G04 #@! TF.GenerationSoftware,KiCad,Pcbnew,5.1.5-1.fc30*
G04 #@! TF.CreationDate,2021-07-16T22:34:16+03:00*
G04 #@! TF.ProjectId,light,6c696768-742e-46b6-9963-61645f706362,rev?*
G04 #@! TF.SameCoordinates,Original*
G04 #@! TF.FileFunction,Copper,L1,Top*
G04 #@! TF.FilePolarity,Positive*
%FSLAX46Y46*%
G04 Gerber Fmt 4.6, Leading zero omitted, Abs format (unit mm)*
G04 Created by KiCad (PCBNEW 5.1.5-1.fc30) date 2021-07-16 22:34:16*
%MOMM*%
%LPD*%
G04 APERTURE LIST*
%ADD10C,0.300000*%
%ADD11C,1.600000*%
%ADD12C,5.999480*%
%ADD13R,5.999480X5.999480*%
%ADD14R,1.358000X1.358000*%
%ADD15C,1.358000*%
%ADD16C,0.100000*%
%ADD17O,1.905000X2.000000*%
%ADD18R,1.905000X2.000000*%
%ADD19O,1.700000X1.700000*%
%ADD20R,1.700000X1.700000*%
%ADD21O,1.600000X2.400000*%
%ADD22R,1.600000X2.400000*%
%ADD23O,1.600000X1.600000*%
%ADD24R,1.600000X1.600000*%
%ADD25C,2.000000*%
%ADD26C,1.500000*%
%ADD27C,2.000000*%
%ADD28C,1.000000*%
%ADD29C,0.254000*%
G04 APERTURE END LIST*
D10*
X257571428Y-106392857D02*
X257071428Y-106392857D01*
X257071428Y-107178571D02*
X257071428Y-105678571D01*
X257785714Y-105678571D01*
X259214285Y-107178571D02*
X258714285Y-106464285D01*
X258357142Y-107178571D02*
X258357142Y-105678571D01*
X258928571Y-105678571D01*
X259071428Y-105750000D01*
X259142857Y-105821428D01*
X259214285Y-105964285D01*
X259214285Y-106178571D01*
X259142857Y-106321428D01*
X259071428Y-106392857D01*
X258928571Y-106464285D01*
X258357142Y-106464285D01*
X260142857Y-105678571D02*
X260428571Y-105678571D01*
X260571428Y-105750000D01*
X260714285Y-105892857D01*
X260785714Y-106178571D01*
X260785714Y-106678571D01*
X260714285Y-106964285D01*
X260571428Y-107107142D01*
X260428571Y-107178571D01*
X260142857Y-107178571D01*
X260000000Y-107107142D01*
X259857142Y-106964285D01*
X259785714Y-106678571D01*
X259785714Y-106178571D01*
X259857142Y-105892857D01*
X260000000Y-105750000D01*
X260142857Y-105678571D01*
X261428571Y-107178571D02*
X261428571Y-105678571D01*
X262285714Y-107178571D01*
X262285714Y-105678571D01*
X262785714Y-105678571D02*
X263642857Y-105678571D01*
X263214285Y-107178571D02*
X263214285Y-105678571D01*
X244178571Y-121464285D02*
X242678571Y-121464285D01*
X242678571Y-120892857D01*
X242750000Y-120750000D01*
X242821428Y-120678571D01*
X242964285Y-120607142D01*
X243178571Y-120607142D01*
X243321428Y-120678571D01*
X243392857Y-120750000D01*
X243464285Y-120892857D01*
X243464285Y-121464285D01*
X242678571Y-120107142D02*
X244178571Y-119750000D01*
X243107142Y-119464285D01*
X244178571Y-119178571D01*
X242678571Y-118821428D01*
X244178571Y-118250000D02*
X242678571Y-118250000D01*
X243750000Y-117750000D01*
X242678571Y-117250000D01*
X244178571Y-117250000D01*
X242750000Y-114607142D02*
X242678571Y-114750000D01*
X242678571Y-114964285D01*
X242750000Y-115178571D01*
X242892857Y-115321428D01*
X243035714Y-115392857D01*
X243321428Y-115464285D01*
X243535714Y-115464285D01*
X243821428Y-115392857D01*
X243964285Y-115321428D01*
X244107142Y-115178571D01*
X244178571Y-114964285D01*
X244178571Y-114821428D01*
X244107142Y-114607142D01*
X244035714Y-114535714D01*
X243535714Y-114535714D01*
X243535714Y-114821428D01*
X244178571Y-113892857D02*
X242678571Y-113892857D01*
X244178571Y-113035714D01*
X242678571Y-113035714D01*
X244178571Y-112321428D02*
X242678571Y-112321428D01*
X242678571Y-111964285D01*
X242750000Y-111750000D01*
X242892857Y-111607142D01*
X243035714Y-111535714D01*
X243321428Y-111464285D01*
X243535714Y-111464285D01*
X243821428Y-111535714D01*
X243964285Y-111607142D01*
X244107142Y-111750000D01*
X244178571Y-111964285D01*
X244178571Y-112321428D01*
X194178571Y-121464285D02*
X192678571Y-121464285D01*
X192678571Y-120892857D01*
X192750000Y-120750000D01*
X192821428Y-120678571D01*
X192964285Y-120607142D01*
X193178571Y-120607142D01*
X193321428Y-120678571D01*
X193392857Y-120750000D01*
X193464285Y-120892857D01*
X193464285Y-121464285D01*
X192678571Y-120107142D02*
X194178571Y-119750000D01*
X193107142Y-119464285D01*
X194178571Y-119178571D01*
X192678571Y-118821428D01*
X194178571Y-118250000D02*
X192678571Y-118250000D01*
X193750000Y-117750000D01*
X192678571Y-117250000D01*
X194178571Y-117250000D01*
X192750000Y-114607142D02*
X192678571Y-114750000D01*
X192678571Y-114964285D01*
X192750000Y-115178571D01*
X192892857Y-115321428D01*
X193035714Y-115392857D01*
X193321428Y-115464285D01*
X193535714Y-115464285D01*
X193821428Y-115392857D01*
X193964285Y-115321428D01*
X194107142Y-115178571D01*
X194178571Y-114964285D01*
X194178571Y-114821428D01*
X194107142Y-114607142D01*
X194035714Y-114535714D01*
X193535714Y-114535714D01*
X193535714Y-114821428D01*
X194178571Y-113892857D02*
X192678571Y-113892857D01*
X194178571Y-113035714D01*
X192678571Y-113035714D01*
X194178571Y-112321428D02*
X192678571Y-112321428D01*
X192678571Y-111964285D01*
X192750000Y-111750000D01*
X192892857Y-111607142D01*
X193035714Y-111535714D01*
X193321428Y-111464285D01*
X193535714Y-111464285D01*
X193821428Y-111535714D01*
X193964285Y-111607142D01*
X194107142Y-111750000D01*
X194178571Y-111964285D01*
X194178571Y-112321428D01*
X207571428Y-106392857D02*
X207071428Y-106392857D01*
X207071428Y-107178571D02*
X207071428Y-105678571D01*
X207785714Y-105678571D01*
X209214285Y-107178571D02*
X208714285Y-106464285D01*
X208357142Y-107178571D02*
X208357142Y-105678571D01*
X208928571Y-105678571D01*
X209071428Y-105750000D01*
X209142857Y-105821428D01*
X209214285Y-105964285D01*
X209214285Y-106178571D01*
X209142857Y-106321428D01*
X209071428Y-106392857D01*
X208928571Y-106464285D01*
X208357142Y-106464285D01*
X210142857Y-105678571D02*
X210428571Y-105678571D01*
X210571428Y-105750000D01*
X210714285Y-105892857D01*
X210785714Y-106178571D01*
X210785714Y-106678571D01*
X210714285Y-106964285D01*
X210571428Y-107107142D01*
X210428571Y-107178571D01*
X210142857Y-107178571D01*
X210000000Y-107107142D01*
X209857142Y-106964285D01*
X209785714Y-106678571D01*
X209785714Y-106178571D01*
X209857142Y-105892857D01*
X210000000Y-105750000D01*
X210142857Y-105678571D01*
X211428571Y-107178571D02*
X211428571Y-105678571D01*
X212285714Y-107178571D01*
X212285714Y-105678571D01*
X212785714Y-105678571D02*
X213642857Y-105678571D01*
X213214285Y-107178571D02*
X213214285Y-105678571D01*
X137928571Y-121464285D02*
X136428571Y-121464285D01*
X136428571Y-120892857D01*
X136500000Y-120750000D01*
X136571428Y-120678571D01*
X136714285Y-120607142D01*
X136928571Y-120607142D01*
X137071428Y-120678571D01*
X137142857Y-120750000D01*
X137214285Y-120892857D01*
X137214285Y-121464285D01*
X136428571Y-120107142D02*
X137928571Y-119750000D01*
X136857142Y-119464285D01*
X137928571Y-119178571D01*
X136428571Y-118821428D01*
X137928571Y-118250000D02*
X136428571Y-118250000D01*
X137500000Y-117750000D01*
X136428571Y-117250000D01*
X137928571Y-117250000D01*
X136500000Y-114607142D02*
X136428571Y-114750000D01*
X136428571Y-114964285D01*
X136500000Y-115178571D01*
X136642857Y-115321428D01*
X136785714Y-115392857D01*
X137071428Y-115464285D01*
X137285714Y-115464285D01*
X137571428Y-115392857D01*
X137714285Y-115321428D01*
X137857142Y-115178571D01*
X137928571Y-114964285D01*
X137928571Y-114821428D01*
X137857142Y-114607142D01*
X137785714Y-114535714D01*
X137285714Y-114535714D01*
X137285714Y-114821428D01*
X137928571Y-113892857D02*
X136428571Y-113892857D01*
X137928571Y-113035714D01*
X136428571Y-113035714D01*
X137928571Y-112321428D02*
X136428571Y-112321428D01*
X136428571Y-111964285D01*
X136500000Y-111750000D01*
X136642857Y-111607142D01*
X136785714Y-111535714D01*
X137071428Y-111464285D01*
X137285714Y-111464285D01*
X137571428Y-111535714D01*
X137714285Y-111607142D01*
X137857142Y-111750000D01*
X137928571Y-111964285D01*
X137928571Y-112321428D01*
X195750000Y-130428571D02*
X196035714Y-130428571D01*
X196178571Y-130500000D01*
X196321428Y-130642857D01*
X196392857Y-130928571D01*
X196392857Y-131428571D01*
X196321428Y-131714285D01*
X196178571Y-131857142D01*
X196035714Y-131928571D01*
X195750000Y-131928571D01*
X195607142Y-131857142D01*
X195464285Y-131714285D01*
X195392857Y-131428571D01*
X195392857Y-130928571D01*
X195464285Y-130642857D01*
X195607142Y-130500000D01*
X195750000Y-130428571D01*
X197035714Y-130428571D02*
X197035714Y-131642857D01*
X197107142Y-131785714D01*
X197178571Y-131857142D01*
X197321428Y-131928571D01*
X197607142Y-131928571D01*
X197750000Y-131857142D01*
X197821428Y-131785714D01*
X197892857Y-131642857D01*
X197892857Y-130428571D01*
X198392857Y-130428571D02*
X199250000Y-130428571D01*
X198821428Y-131928571D02*
X198821428Y-130428571D01*
X200892857Y-131357142D02*
X202035714Y-131357142D01*
X203892857Y-131357142D02*
X205035714Y-131357142D01*
X204464285Y-131928571D02*
X204464285Y-130785714D01*
X248107142Y-87475000D02*
X247964285Y-87403571D01*
X247750000Y-87403571D01*
X247535714Y-87475000D01*
X247392857Y-87617857D01*
X247321428Y-87760714D01*
X247250000Y-88046428D01*
X247250000Y-88260714D01*
X247321428Y-88546428D01*
X247392857Y-88689285D01*
X247535714Y-88832142D01*
X247750000Y-88903571D01*
X247892857Y-88903571D01*
X248107142Y-88832142D01*
X248178571Y-88760714D01*
X248178571Y-88260714D01*
X247892857Y-88260714D01*
X248821428Y-88903571D02*
X248821428Y-87403571D01*
X249678571Y-88903571D01*
X249678571Y-87403571D01*
X250392857Y-88903571D02*
X250392857Y-87403571D01*
X250750000Y-87403571D01*
X250964285Y-87475000D01*
X251107142Y-87617857D01*
X251178571Y-87760714D01*
X251250000Y-88046428D01*
X251250000Y-88260714D01*
X251178571Y-88546428D01*
X251107142Y-88689285D01*
X250964285Y-88832142D01*
X250750000Y-88903571D01*
X250392857Y-88903571D01*
X246607142Y-90882142D02*
X247750000Y-90882142D01*
X247178571Y-91453571D02*
X247178571Y-90310714D01*
X249250000Y-91453571D02*
X248392857Y-91453571D01*
X248821428Y-91453571D02*
X248821428Y-89953571D01*
X248678571Y-90167857D01*
X248535714Y-90310714D01*
X248392857Y-90382142D01*
X249821428Y-90096428D02*
X249892857Y-90025000D01*
X250035714Y-89953571D01*
X250392857Y-89953571D01*
X250535714Y-90025000D01*
X250607142Y-90096428D01*
X250678571Y-90239285D01*
X250678571Y-90382142D01*
X250607142Y-90596428D01*
X249750000Y-91453571D01*
X250678571Y-91453571D01*
X251107142Y-89953571D02*
X251607142Y-91453571D01*
X252107142Y-89953571D01*
X245750000Y-130428571D02*
X246035714Y-130428571D01*
X246178571Y-130500000D01*
X246321428Y-130642857D01*
X246392857Y-130928571D01*
X246392857Y-131428571D01*
X246321428Y-131714285D01*
X246178571Y-131857142D01*
X246035714Y-131928571D01*
X245750000Y-131928571D01*
X245607142Y-131857142D01*
X245464285Y-131714285D01*
X245392857Y-131428571D01*
X245392857Y-130928571D01*
X245464285Y-130642857D01*
X245607142Y-130500000D01*
X245750000Y-130428571D01*
X247035714Y-130428571D02*
X247035714Y-131642857D01*
X247107142Y-131785714D01*
X247178571Y-131857142D01*
X247321428Y-131928571D01*
X247607142Y-131928571D01*
X247750000Y-131857142D01*
X247821428Y-131785714D01*
X247892857Y-131642857D01*
X247892857Y-130428571D01*
X248392857Y-130428571D02*
X249250000Y-130428571D01*
X248821428Y-131928571D02*
X248821428Y-130428571D01*
X250892857Y-131357142D02*
X252035714Y-131357142D01*
X253892857Y-131357142D02*
X255035714Y-131357142D01*
X254464285Y-131928571D02*
X254464285Y-130785714D01*
X141857142Y-87475000D02*
X141714285Y-87403571D01*
X141500000Y-87403571D01*
X141285714Y-87475000D01*
X141142857Y-87617857D01*
X141071428Y-87760714D01*
X141000000Y-88046428D01*
X141000000Y-88260714D01*
X141071428Y-88546428D01*
X141142857Y-88689285D01*
X141285714Y-88832142D01*
X141500000Y-88903571D01*
X141642857Y-88903571D01*
X141857142Y-88832142D01*
X141928571Y-88760714D01*
X141928571Y-88260714D01*
X141642857Y-88260714D01*
X142571428Y-88903571D02*
X142571428Y-87403571D01*
X143428571Y-88903571D01*
X143428571Y-87403571D01*
X144142857Y-88903571D02*
X144142857Y-87403571D01*
X144500000Y-87403571D01*
X144714285Y-87475000D01*
X144857142Y-87617857D01*
X144928571Y-87760714D01*
X145000000Y-88046428D01*
X145000000Y-88260714D01*
X144928571Y-88546428D01*
X144857142Y-88689285D01*
X144714285Y-88832142D01*
X144500000Y-88903571D01*
X144142857Y-88903571D01*
X140357142Y-90882142D02*
X141500000Y-90882142D01*
X140928571Y-91453571D02*
X140928571Y-90310714D01*
X143000000Y-91453571D02*
X142142857Y-91453571D01*
X142571428Y-91453571D02*
X142571428Y-89953571D01*
X142428571Y-90167857D01*
X142285714Y-90310714D01*
X142142857Y-90382142D01*
X143571428Y-90096428D02*
X143642857Y-90025000D01*
X143785714Y-89953571D01*
X144142857Y-89953571D01*
X144285714Y-90025000D01*
X144357142Y-90096428D01*
X144428571Y-90239285D01*
X144428571Y-90382142D01*
X144357142Y-90596428D01*
X143500000Y-91453571D01*
X144428571Y-91453571D01*
X144857142Y-89953571D02*
X145357142Y-91453571D01*
X145857142Y-89953571D01*
X139500000Y-130428571D02*
X139785714Y-130428571D01*
X139928571Y-130500000D01*
X140071428Y-130642857D01*
X140142857Y-130928571D01*
X140142857Y-131428571D01*
X140071428Y-131714285D01*
X139928571Y-131857142D01*
X139785714Y-131928571D01*
X139500000Y-131928571D01*
X139357142Y-131857142D01*
X139214285Y-131714285D01*
X139142857Y-131428571D01*
X139142857Y-130928571D01*
X139214285Y-130642857D01*
X139357142Y-130500000D01*
X139500000Y-130428571D01*
X140785714Y-130428571D02*
X140785714Y-131642857D01*
X140857142Y-131785714D01*
X140928571Y-131857142D01*
X141071428Y-131928571D01*
X141357142Y-131928571D01*
X141500000Y-131857142D01*
X141571428Y-131785714D01*
X141642857Y-131642857D01*
X141642857Y-130428571D01*
X142142857Y-130428571D02*
X143000000Y-130428571D01*
X142571428Y-131928571D02*
X142571428Y-130428571D01*
X144642857Y-131357142D02*
X145785714Y-131357142D01*
X147642857Y-131357142D02*
X148785714Y-131357142D01*
X148214285Y-131928571D02*
X148214285Y-130785714D01*
X151321428Y-106392857D02*
X150821428Y-106392857D01*
X150821428Y-107178571D02*
X150821428Y-105678571D01*
X151535714Y-105678571D01*
X152964285Y-107178571D02*
X152464285Y-106464285D01*
X152107142Y-107178571D02*
X152107142Y-105678571D01*
X152678571Y-105678571D01*
X152821428Y-105750000D01*
X152892857Y-105821428D01*
X152964285Y-105964285D01*
X152964285Y-106178571D01*
X152892857Y-106321428D01*
X152821428Y-106392857D01*
X152678571Y-106464285D01*
X152107142Y-106464285D01*
X153892857Y-105678571D02*
X154178571Y-105678571D01*
X154321428Y-105750000D01*
X154464285Y-105892857D01*
X154535714Y-106178571D01*
X154535714Y-106678571D01*
X154464285Y-106964285D01*
X154321428Y-107107142D01*
X154178571Y-107178571D01*
X153892857Y-107178571D01*
X153750000Y-107107142D01*
X153607142Y-106964285D01*
X153535714Y-106678571D01*
X153535714Y-106178571D01*
X153607142Y-105892857D01*
X153750000Y-105750000D01*
X153892857Y-105678571D01*
X155178571Y-107178571D02*
X155178571Y-105678571D01*
X156035714Y-107178571D01*
X156035714Y-105678571D01*
X156535714Y-105678571D02*
X157392857Y-105678571D01*
X156964285Y-107178571D02*
X156964285Y-105678571D01*
X198107142Y-87475000D02*
X197964285Y-87403571D01*
X197750000Y-87403571D01*
X197535714Y-87475000D01*
X197392857Y-87617857D01*
X197321428Y-87760714D01*
X197250000Y-88046428D01*
X197250000Y-88260714D01*
X197321428Y-88546428D01*
X197392857Y-88689285D01*
X197535714Y-88832142D01*
X197750000Y-88903571D01*
X197892857Y-88903571D01*
X198107142Y-88832142D01*
X198178571Y-88760714D01*
X198178571Y-88260714D01*
X197892857Y-88260714D01*
X198821428Y-88903571D02*
X198821428Y-87403571D01*
X199678571Y-88903571D01*
X199678571Y-87403571D01*
X200392857Y-88903571D02*
X200392857Y-87403571D01*
X200750000Y-87403571D01*
X200964285Y-87475000D01*
X201107142Y-87617857D01*
X201178571Y-87760714D01*
X201250000Y-88046428D01*
X201250000Y-88260714D01*
X201178571Y-88546428D01*
X201107142Y-88689285D01*
X200964285Y-88832142D01*
X200750000Y-88903571D01*
X200392857Y-88903571D01*
X196607142Y-90882142D02*
X197750000Y-90882142D01*
X197178571Y-91453571D02*
X197178571Y-90310714D01*
X199250000Y-91453571D02*
X198392857Y-91453571D01*
X198821428Y-91453571D02*
X198821428Y-89953571D01*
X198678571Y-90167857D01*
X198535714Y-90310714D01*
X198392857Y-90382142D01*
X199821428Y-90096428D02*
X199892857Y-90025000D01*
X200035714Y-89953571D01*
X200392857Y-89953571D01*
X200535714Y-90025000D01*
X200607142Y-90096428D01*
X200678571Y-90239285D01*
X200678571Y-90382142D01*
X200607142Y-90596428D01*
X199750000Y-91453571D01*
X200678571Y-91453571D01*
X201107142Y-89953571D02*
X201607142Y-91453571D01*
X202107142Y-89953571D01*
X244178571Y-52714285D02*
X242678571Y-52714285D01*
X242678571Y-52142857D01*
X242750000Y-52000000D01*
X242821428Y-51928571D01*
X242964285Y-51857142D01*
X243178571Y-51857142D01*
X243321428Y-51928571D01*
X243392857Y-52000000D01*
X243464285Y-52142857D01*
X243464285Y-52714285D01*
X242678571Y-51357142D02*
X244178571Y-51000000D01*
X243107142Y-50714285D01*
X244178571Y-50428571D01*
X242678571Y-50071428D01*
X244178571Y-49500000D02*
X242678571Y-49500000D01*
X243750000Y-49000000D01*
X242678571Y-48500000D01*
X244178571Y-48500000D01*
X242750000Y-45857142D02*
X242678571Y-46000000D01*
X242678571Y-46214285D01*
X242750000Y-46428571D01*
X242892857Y-46571428D01*
X243035714Y-46642857D01*
X243321428Y-46714285D01*
X243535714Y-46714285D01*
X243821428Y-46642857D01*
X243964285Y-46571428D01*
X244107142Y-46428571D01*
X244178571Y-46214285D01*
X244178571Y-46071428D01*
X244107142Y-45857142D01*
X244035714Y-45785714D01*
X243535714Y-45785714D01*
X243535714Y-46071428D01*
X244178571Y-45142857D02*
X242678571Y-45142857D01*
X244178571Y-44285714D01*
X242678571Y-44285714D01*
X244178571Y-43571428D02*
X242678571Y-43571428D01*
X242678571Y-43214285D01*
X242750000Y-43000000D01*
X242892857Y-42857142D01*
X243035714Y-42785714D01*
X243321428Y-42714285D01*
X243535714Y-42714285D01*
X243821428Y-42785714D01*
X243964285Y-42857142D01*
X244107142Y-43000000D01*
X244178571Y-43214285D01*
X244178571Y-43571428D01*
X257571428Y-37642857D02*
X257071428Y-37642857D01*
X257071428Y-38428571D02*
X257071428Y-36928571D01*
X257785714Y-36928571D01*
X259214285Y-38428571D02*
X258714285Y-37714285D01*
X258357142Y-38428571D02*
X258357142Y-36928571D01*
X258928571Y-36928571D01*
X259071428Y-37000000D01*
X259142857Y-37071428D01*
X259214285Y-37214285D01*
X259214285Y-37428571D01*
X259142857Y-37571428D01*
X259071428Y-37642857D01*
X258928571Y-37714285D01*
X258357142Y-37714285D01*
X260142857Y-36928571D02*
X260428571Y-36928571D01*
X260571428Y-37000000D01*
X260714285Y-37142857D01*
X260785714Y-37428571D01*
X260785714Y-37928571D01*
X260714285Y-38214285D01*
X260571428Y-38357142D01*
X260428571Y-38428571D01*
X260142857Y-38428571D01*
X260000000Y-38357142D01*
X259857142Y-38214285D01*
X259785714Y-37928571D01*
X259785714Y-37428571D01*
X259857142Y-37142857D01*
X260000000Y-37000000D01*
X260142857Y-36928571D01*
X261428571Y-38428571D02*
X261428571Y-36928571D01*
X262285714Y-38428571D01*
X262285714Y-36928571D01*
X262785714Y-36928571D02*
X263642857Y-36928571D01*
X263214285Y-38428571D02*
X263214285Y-36928571D01*
X245750000Y-61678571D02*
X246035714Y-61678571D01*
X246178571Y-61750000D01*
X246321428Y-61892857D01*
X246392857Y-62178571D01*
X246392857Y-62678571D01*
X246321428Y-62964285D01*
X246178571Y-63107142D01*
X246035714Y-63178571D01*
X245750000Y-63178571D01*
X245607142Y-63107142D01*
X245464285Y-62964285D01*
X245392857Y-62678571D01*
X245392857Y-62178571D01*
X245464285Y-61892857D01*
X245607142Y-61750000D01*
X245750000Y-61678571D01*
X247035714Y-61678571D02*
X247035714Y-62892857D01*
X247107142Y-63035714D01*
X247178571Y-63107142D01*
X247321428Y-63178571D01*
X247607142Y-63178571D01*
X247750000Y-63107142D01*
X247821428Y-63035714D01*
X247892857Y-62892857D01*
X247892857Y-61678571D01*
X248392857Y-61678571D02*
X249250000Y-61678571D01*
X248821428Y-63178571D02*
X248821428Y-61678571D01*
X250892857Y-62607142D02*
X252035714Y-62607142D01*
X253892857Y-62607142D02*
X255035714Y-62607142D01*
X254464285Y-63178571D02*
X254464285Y-62035714D01*
X248107142Y-18725000D02*
X247964285Y-18653571D01*
X247750000Y-18653571D01*
X247535714Y-18725000D01*
X247392857Y-18867857D01*
X247321428Y-19010714D01*
X247250000Y-19296428D01*
X247250000Y-19510714D01*
X247321428Y-19796428D01*
X247392857Y-19939285D01*
X247535714Y-20082142D01*
X247750000Y-20153571D01*
X247892857Y-20153571D01*
X248107142Y-20082142D01*
X248178571Y-20010714D01*
X248178571Y-19510714D01*
X247892857Y-19510714D01*
X248821428Y-20153571D02*
X248821428Y-18653571D01*
X249678571Y-20153571D01*
X249678571Y-18653571D01*
X250392857Y-20153571D02*
X250392857Y-18653571D01*
X250750000Y-18653571D01*
X250964285Y-18725000D01*
X251107142Y-18867857D01*
X251178571Y-19010714D01*
X251250000Y-19296428D01*
X251250000Y-19510714D01*
X251178571Y-19796428D01*
X251107142Y-19939285D01*
X250964285Y-20082142D01*
X250750000Y-20153571D01*
X250392857Y-20153571D01*
X246607142Y-22132142D02*
X247750000Y-22132142D01*
X247178571Y-22703571D02*
X247178571Y-21560714D01*
X249250000Y-22703571D02*
X248392857Y-22703571D01*
X248821428Y-22703571D02*
X248821428Y-21203571D01*
X248678571Y-21417857D01*
X248535714Y-21560714D01*
X248392857Y-21632142D01*
X249821428Y-21346428D02*
X249892857Y-21275000D01*
X250035714Y-21203571D01*
X250392857Y-21203571D01*
X250535714Y-21275000D01*
X250607142Y-21346428D01*
X250678571Y-21489285D01*
X250678571Y-21632142D01*
X250607142Y-21846428D01*
X249750000Y-22703571D01*
X250678571Y-22703571D01*
X251107142Y-21203571D02*
X251607142Y-22703571D01*
X252107142Y-21203571D01*
X194178571Y-52714285D02*
X192678571Y-52714285D01*
X192678571Y-52142857D01*
X192750000Y-52000000D01*
X192821428Y-51928571D01*
X192964285Y-51857142D01*
X193178571Y-51857142D01*
X193321428Y-51928571D01*
X193392857Y-52000000D01*
X193464285Y-52142857D01*
X193464285Y-52714285D01*
X192678571Y-51357142D02*
X194178571Y-51000000D01*
X193107142Y-50714285D01*
X194178571Y-50428571D01*
X192678571Y-50071428D01*
X194178571Y-49500000D02*
X192678571Y-49500000D01*
X193750000Y-49000000D01*
X192678571Y-48500000D01*
X194178571Y-48500000D01*
X192750000Y-45857142D02*
X192678571Y-46000000D01*
X192678571Y-46214285D01*
X192750000Y-46428571D01*
X192892857Y-46571428D01*
X193035714Y-46642857D01*
X193321428Y-46714285D01*
X193535714Y-46714285D01*
X193821428Y-46642857D01*
X193964285Y-46571428D01*
X194107142Y-46428571D01*
X194178571Y-46214285D01*
X194178571Y-46071428D01*
X194107142Y-45857142D01*
X194035714Y-45785714D01*
X193535714Y-45785714D01*
X193535714Y-46071428D01*
X194178571Y-45142857D02*
X192678571Y-45142857D01*
X194178571Y-44285714D01*
X192678571Y-44285714D01*
X194178571Y-43571428D02*
X192678571Y-43571428D01*
X192678571Y-43214285D01*
X192750000Y-43000000D01*
X192892857Y-42857142D01*
X193035714Y-42785714D01*
X193321428Y-42714285D01*
X193535714Y-42714285D01*
X193821428Y-42785714D01*
X193964285Y-42857142D01*
X194107142Y-43000000D01*
X194178571Y-43214285D01*
X194178571Y-43571428D01*
X207571428Y-37642857D02*
X207071428Y-37642857D01*
X207071428Y-38428571D02*
X207071428Y-36928571D01*
X207785714Y-36928571D01*
X209214285Y-38428571D02*
X208714285Y-37714285D01*
X208357142Y-38428571D02*
X208357142Y-36928571D01*
X208928571Y-36928571D01*
X209071428Y-37000000D01*
X209142857Y-37071428D01*
X209214285Y-37214285D01*
X209214285Y-37428571D01*
X209142857Y-37571428D01*
X209071428Y-37642857D01*
X208928571Y-37714285D01*
X208357142Y-37714285D01*
X210142857Y-36928571D02*
X210428571Y-36928571D01*
X210571428Y-37000000D01*
X210714285Y-37142857D01*
X210785714Y-37428571D01*
X210785714Y-37928571D01*
X210714285Y-38214285D01*
X210571428Y-38357142D01*
X210428571Y-38428571D01*
X210142857Y-38428571D01*
X210000000Y-38357142D01*
X209857142Y-38214285D01*
X209785714Y-37928571D01*
X209785714Y-37428571D01*
X209857142Y-37142857D01*
X210000000Y-37000000D01*
X210142857Y-36928571D01*
X211428571Y-38428571D02*
X211428571Y-36928571D01*
X212285714Y-38428571D01*
X212285714Y-36928571D01*
X212785714Y-36928571D02*
X213642857Y-36928571D01*
X213214285Y-38428571D02*
X213214285Y-36928571D01*
X198107142Y-18725000D02*
X197964285Y-18653571D01*
X197750000Y-18653571D01*
X197535714Y-18725000D01*
X197392857Y-18867857D01*
X197321428Y-19010714D01*
X197250000Y-19296428D01*
X197250000Y-19510714D01*
X197321428Y-19796428D01*
X197392857Y-19939285D01*
X197535714Y-20082142D01*
X197750000Y-20153571D01*
X197892857Y-20153571D01*
X198107142Y-20082142D01*
X198178571Y-20010714D01*
X198178571Y-19510714D01*
X197892857Y-19510714D01*
X198821428Y-20153571D02*
X198821428Y-18653571D01*
X199678571Y-20153571D01*
X199678571Y-18653571D01*
X200392857Y-20153571D02*
X200392857Y-18653571D01*
X200750000Y-18653571D01*
X200964285Y-18725000D01*
X201107142Y-18867857D01*
X201178571Y-19010714D01*
X201250000Y-19296428D01*
X201250000Y-19510714D01*
X201178571Y-19796428D01*
X201107142Y-19939285D01*
X200964285Y-20082142D01*
X200750000Y-20153571D01*
X200392857Y-20153571D01*
X196607142Y-22132142D02*
X197750000Y-22132142D01*
X197178571Y-22703571D02*
X197178571Y-21560714D01*
X199250000Y-22703571D02*
X198392857Y-22703571D01*
X198821428Y-22703571D02*
X198821428Y-21203571D01*
X198678571Y-21417857D01*
X198535714Y-21560714D01*
X198392857Y-21632142D01*
X199821428Y-21346428D02*
X199892857Y-21275000D01*
X200035714Y-21203571D01*
X200392857Y-21203571D01*
X200535714Y-21275000D01*
X200607142Y-21346428D01*
X200678571Y-21489285D01*
X200678571Y-21632142D01*
X200607142Y-21846428D01*
X199750000Y-22703571D01*
X200678571Y-22703571D01*
X201107142Y-21203571D02*
X201607142Y-22703571D01*
X202107142Y-21203571D01*
X195750000Y-61678571D02*
X196035714Y-61678571D01*
X196178571Y-61750000D01*
X196321428Y-61892857D01*
X196392857Y-62178571D01*
X196392857Y-62678571D01*
X196321428Y-62964285D01*
X196178571Y-63107142D01*
X196035714Y-63178571D01*
X195750000Y-63178571D01*
X195607142Y-63107142D01*
X195464285Y-62964285D01*
X195392857Y-62678571D01*
X195392857Y-62178571D01*
X195464285Y-61892857D01*
X195607142Y-61750000D01*
X195750000Y-61678571D01*
X197035714Y-61678571D02*
X197035714Y-62892857D01*
X197107142Y-63035714D01*
X197178571Y-63107142D01*
X197321428Y-63178571D01*
X197607142Y-63178571D01*
X197750000Y-63107142D01*
X197821428Y-63035714D01*
X197892857Y-62892857D01*
X197892857Y-61678571D01*
X198392857Y-61678571D02*
X199250000Y-61678571D01*
X198821428Y-63178571D02*
X198821428Y-61678571D01*
X200892857Y-62607142D02*
X202035714Y-62607142D01*
X203892857Y-62607142D02*
X205035714Y-62607142D01*
X204464285Y-63178571D02*
X204464285Y-62035714D01*
X141857142Y-18725000D02*
X141714285Y-18653571D01*
X141500000Y-18653571D01*
X141285714Y-18725000D01*
X141142857Y-18867857D01*
X141071428Y-19010714D01*
X141000000Y-19296428D01*
X141000000Y-19510714D01*
X141071428Y-19796428D01*
X141142857Y-19939285D01*
X141285714Y-20082142D01*
X141500000Y-20153571D01*
X141642857Y-20153571D01*
X141857142Y-20082142D01*
X141928571Y-20010714D01*
X141928571Y-19510714D01*
X141642857Y-19510714D01*
X142571428Y-20153571D02*
X142571428Y-18653571D01*
X143428571Y-20153571D01*
X143428571Y-18653571D01*
X144142857Y-20153571D02*
X144142857Y-18653571D01*
X144500000Y-18653571D01*
X144714285Y-18725000D01*
X144857142Y-18867857D01*
X144928571Y-19010714D01*
X145000000Y-19296428D01*
X145000000Y-19510714D01*
X144928571Y-19796428D01*
X144857142Y-19939285D01*
X144714285Y-20082142D01*
X144500000Y-20153571D01*
X144142857Y-20153571D01*
X140357142Y-22132142D02*
X141500000Y-22132142D01*
X140928571Y-22703571D02*
X140928571Y-21560714D01*
X143000000Y-22703571D02*
X142142857Y-22703571D01*
X142571428Y-22703571D02*
X142571428Y-21203571D01*
X142428571Y-21417857D01*
X142285714Y-21560714D01*
X142142857Y-21632142D01*
X143571428Y-21346428D02*
X143642857Y-21275000D01*
X143785714Y-21203571D01*
X144142857Y-21203571D01*
X144285714Y-21275000D01*
X144357142Y-21346428D01*
X144428571Y-21489285D01*
X144428571Y-21632142D01*
X144357142Y-21846428D01*
X143500000Y-22703571D01*
X144428571Y-22703571D01*
X144857142Y-21203571D02*
X145357142Y-22703571D01*
X145857142Y-21203571D01*
X139500000Y-61678571D02*
X139785714Y-61678571D01*
X139928571Y-61750000D01*
X140071428Y-61892857D01*
X140142857Y-62178571D01*
X140142857Y-62678571D01*
X140071428Y-62964285D01*
X139928571Y-63107142D01*
X139785714Y-63178571D01*
X139500000Y-63178571D01*
X139357142Y-63107142D01*
X139214285Y-62964285D01*
X139142857Y-62678571D01*
X139142857Y-62178571D01*
X139214285Y-61892857D01*
X139357142Y-61750000D01*
X139500000Y-61678571D01*
X140785714Y-61678571D02*
X140785714Y-62892857D01*
X140857142Y-63035714D01*
X140928571Y-63107142D01*
X141071428Y-63178571D01*
X141357142Y-63178571D01*
X141500000Y-63107142D01*
X141571428Y-63035714D01*
X141642857Y-62892857D01*
X141642857Y-61678571D01*
X142142857Y-61678571D02*
X143000000Y-61678571D01*
X142571428Y-63178571D02*
X142571428Y-61678571D01*
X144642857Y-62607142D02*
X145785714Y-62607142D01*
X147642857Y-62607142D02*
X148785714Y-62607142D01*
X148214285Y-63178571D02*
X148214285Y-62035714D01*
X137928571Y-52714285D02*
X136428571Y-52714285D01*
X136428571Y-52142857D01*
X136500000Y-52000000D01*
X136571428Y-51928571D01*
X136714285Y-51857142D01*
X136928571Y-51857142D01*
X137071428Y-51928571D01*
X137142857Y-52000000D01*
X137214285Y-52142857D01*
X137214285Y-52714285D01*
X136428571Y-51357142D02*
X137928571Y-51000000D01*
X136857142Y-50714285D01*
X137928571Y-50428571D01*
X136428571Y-50071428D01*
X137928571Y-49500000D02*
X136428571Y-49500000D01*
X137500000Y-49000000D01*
X136428571Y-48500000D01*
X137928571Y-48500000D01*
X136500000Y-45857142D02*
X136428571Y-46000000D01*
X136428571Y-46214285D01*
X136500000Y-46428571D01*
X136642857Y-46571428D01*
X136785714Y-46642857D01*
X137071428Y-46714285D01*
X137285714Y-46714285D01*
X137571428Y-46642857D01*
X137714285Y-46571428D01*
X137857142Y-46428571D01*
X137928571Y-46214285D01*
X137928571Y-46071428D01*
X137857142Y-45857142D01*
X137785714Y-45785714D01*
X137285714Y-45785714D01*
X137285714Y-46071428D01*
X137928571Y-45142857D02*
X136428571Y-45142857D01*
X137928571Y-44285714D01*
X136428571Y-44285714D01*
X137928571Y-43571428D02*
X136428571Y-43571428D01*
X136428571Y-43214285D01*
X136500000Y-43000000D01*
X136642857Y-42857142D01*
X136785714Y-42785714D01*
X137071428Y-42714285D01*
X137285714Y-42714285D01*
X137571428Y-42785714D01*
X137714285Y-42857142D01*
X137857142Y-43000000D01*
X137928571Y-43214285D01*
X137928571Y-43571428D01*
X151321428Y-37642857D02*
X150821428Y-37642857D01*
X150821428Y-38428571D02*
X150821428Y-36928571D01*
X151535714Y-36928571D01*
X152964285Y-38428571D02*
X152464285Y-37714285D01*
X152107142Y-38428571D02*
X152107142Y-36928571D01*
X152678571Y-36928571D01*
X152821428Y-37000000D01*
X152892857Y-37071428D01*
X152964285Y-37214285D01*
X152964285Y-37428571D01*
X152892857Y-37571428D01*
X152821428Y-37642857D01*
X152678571Y-37714285D01*
X152107142Y-37714285D01*
X153892857Y-36928571D02*
X154178571Y-36928571D01*
X154321428Y-37000000D01*
X154464285Y-37142857D01*
X154535714Y-37428571D01*
X154535714Y-37928571D01*
X154464285Y-38214285D01*
X154321428Y-38357142D01*
X154178571Y-38428571D01*
X153892857Y-38428571D01*
X153750000Y-38357142D01*
X153607142Y-38214285D01*
X153535714Y-37928571D01*
X153535714Y-37428571D01*
X153607142Y-37142857D01*
X153750000Y-37000000D01*
X153892857Y-36928571D01*
X155178571Y-38428571D02*
X155178571Y-36928571D01*
X156035714Y-38428571D01*
X156035714Y-36928571D01*
X156535714Y-36928571D02*
X157392857Y-36928571D01*
X156964285Y-38428571D02*
X156964285Y-36928571D01*
X89607142Y-18725000D02*
X89464285Y-18653571D01*
X89250000Y-18653571D01*
X89035714Y-18725000D01*
X88892857Y-18867857D01*
X88821428Y-19010714D01*
X88750000Y-19296428D01*
X88750000Y-19510714D01*
X88821428Y-19796428D01*
X88892857Y-19939285D01*
X89035714Y-20082142D01*
X89250000Y-20153571D01*
X89392857Y-20153571D01*
X89607142Y-20082142D01*
X89678571Y-20010714D01*
X89678571Y-19510714D01*
X89392857Y-19510714D01*
X90321428Y-20153571D02*
X90321428Y-18653571D01*
X91178571Y-20153571D01*
X91178571Y-18653571D01*
X91892857Y-20153571D02*
X91892857Y-18653571D01*
X92250000Y-18653571D01*
X92464285Y-18725000D01*
X92607142Y-18867857D01*
X92678571Y-19010714D01*
X92750000Y-19296428D01*
X92750000Y-19510714D01*
X92678571Y-19796428D01*
X92607142Y-19939285D01*
X92464285Y-20082142D01*
X92250000Y-20153571D01*
X91892857Y-20153571D01*
X88107142Y-22132142D02*
X89250000Y-22132142D01*
X88678571Y-22703571D02*
X88678571Y-21560714D01*
X90750000Y-22703571D02*
X89892857Y-22703571D01*
X90321428Y-22703571D02*
X90321428Y-21203571D01*
X90178571Y-21417857D01*
X90035714Y-21560714D01*
X89892857Y-21632142D01*
X91321428Y-21346428D02*
X91392857Y-21275000D01*
X91535714Y-21203571D01*
X91892857Y-21203571D01*
X92035714Y-21275000D01*
X92107142Y-21346428D01*
X92178571Y-21489285D01*
X92178571Y-21632142D01*
X92107142Y-21846428D01*
X91250000Y-22703571D01*
X92178571Y-22703571D01*
X92607142Y-21203571D02*
X93107142Y-22703571D01*
X93607142Y-21203571D01*
X87250000Y-61678571D02*
X87535714Y-61678571D01*
X87678571Y-61750000D01*
X87821428Y-61892857D01*
X87892857Y-62178571D01*
X87892857Y-62678571D01*
X87821428Y-62964285D01*
X87678571Y-63107142D01*
X87535714Y-63178571D01*
X87250000Y-63178571D01*
X87107142Y-63107142D01*
X86964285Y-62964285D01*
X86892857Y-62678571D01*
X86892857Y-62178571D01*
X86964285Y-61892857D01*
X87107142Y-61750000D01*
X87250000Y-61678571D01*
X88535714Y-61678571D02*
X88535714Y-62892857D01*
X88607142Y-63035714D01*
X88678571Y-63107142D01*
X88821428Y-63178571D01*
X89107142Y-63178571D01*
X89250000Y-63107142D01*
X89321428Y-63035714D01*
X89392857Y-62892857D01*
X89392857Y-61678571D01*
X89892857Y-61678571D02*
X90750000Y-61678571D01*
X90321428Y-63178571D02*
X90321428Y-61678571D01*
X92392857Y-62607142D02*
X93535714Y-62607142D01*
X95392857Y-62607142D02*
X96535714Y-62607142D01*
X95964285Y-63178571D02*
X95964285Y-62035714D01*
X85678571Y-52714285D02*
X84178571Y-52714285D01*
X84178571Y-52142857D01*
X84250000Y-52000000D01*
X84321428Y-51928571D01*
X84464285Y-51857142D01*
X84678571Y-51857142D01*
X84821428Y-51928571D01*
X84892857Y-52000000D01*
X84964285Y-52142857D01*
X84964285Y-52714285D01*
X84178571Y-51357142D02*
X85678571Y-51000000D01*
X84607142Y-50714285D01*
X85678571Y-50428571D01*
X84178571Y-50071428D01*
X85678571Y-49500000D02*
X84178571Y-49500000D01*
X85250000Y-49000000D01*
X84178571Y-48500000D01*
X85678571Y-48500000D01*
X84250000Y-45857142D02*
X84178571Y-46000000D01*
X84178571Y-46214285D01*
X84250000Y-46428571D01*
X84392857Y-46571428D01*
X84535714Y-46642857D01*
X84821428Y-46714285D01*
X85035714Y-46714285D01*
X85321428Y-46642857D01*
X85464285Y-46571428D01*
X85607142Y-46428571D01*
X85678571Y-46214285D01*
X85678571Y-46071428D01*
X85607142Y-45857142D01*
X85535714Y-45785714D01*
X85035714Y-45785714D01*
X85035714Y-46071428D01*
X85678571Y-45142857D02*
X84178571Y-45142857D01*
X85678571Y-44285714D01*
X84178571Y-44285714D01*
X85678571Y-43571428D02*
X84178571Y-43571428D01*
X84178571Y-43214285D01*
X84250000Y-43000000D01*
X84392857Y-42857142D01*
X84535714Y-42785714D01*
X84821428Y-42714285D01*
X85035714Y-42714285D01*
X85321428Y-42785714D01*
X85464285Y-42857142D01*
X85607142Y-43000000D01*
X85678571Y-43214285D01*
X85678571Y-43571428D01*
X99071428Y-37642857D02*
X98571428Y-37642857D01*
X98571428Y-38428571D02*
X98571428Y-36928571D01*
X99285714Y-36928571D01*
X100714285Y-38428571D02*
X100214285Y-37714285D01*
X99857142Y-38428571D02*
X99857142Y-36928571D01*
X100428571Y-36928571D01*
X100571428Y-37000000D01*
X100642857Y-37071428D01*
X100714285Y-37214285D01*
X100714285Y-37428571D01*
X100642857Y-37571428D01*
X100571428Y-37642857D01*
X100428571Y-37714285D01*
X99857142Y-37714285D01*
X101642857Y-36928571D02*
X101928571Y-36928571D01*
X102071428Y-37000000D01*
X102214285Y-37142857D01*
X102285714Y-37428571D01*
X102285714Y-37928571D01*
X102214285Y-38214285D01*
X102071428Y-38357142D01*
X101928571Y-38428571D01*
X101642857Y-38428571D01*
X101500000Y-38357142D01*
X101357142Y-38214285D01*
X101285714Y-37928571D01*
X101285714Y-37428571D01*
X101357142Y-37142857D01*
X101500000Y-37000000D01*
X101642857Y-36928571D01*
X102928571Y-38428571D02*
X102928571Y-36928571D01*
X103785714Y-38428571D01*
X103785714Y-36928571D01*
X104285714Y-36928571D02*
X105142857Y-36928571D01*
X104714285Y-38428571D02*
X104714285Y-36928571D01*
X42821428Y-37642857D02*
X42321428Y-37642857D01*
X42321428Y-38428571D02*
X42321428Y-36928571D01*
X43035714Y-36928571D01*
X44464285Y-38428571D02*
X43964285Y-37714285D01*
X43607142Y-38428571D02*
X43607142Y-36928571D01*
X44178571Y-36928571D01*
X44321428Y-37000000D01*
X44392857Y-37071428D01*
X44464285Y-37214285D01*
X44464285Y-37428571D01*
X44392857Y-37571428D01*
X44321428Y-37642857D01*
X44178571Y-37714285D01*
X43607142Y-37714285D01*
X45392857Y-36928571D02*
X45678571Y-36928571D01*
X45821428Y-37000000D01*
X45964285Y-37142857D01*
X46035714Y-37428571D01*
X46035714Y-37928571D01*
X45964285Y-38214285D01*
X45821428Y-38357142D01*
X45678571Y-38428571D01*
X45392857Y-38428571D01*
X45250000Y-38357142D01*
X45107142Y-38214285D01*
X45035714Y-37928571D01*
X45035714Y-37428571D01*
X45107142Y-37142857D01*
X45250000Y-37000000D01*
X45392857Y-36928571D01*
X46678571Y-38428571D02*
X46678571Y-36928571D01*
X47535714Y-38428571D01*
X47535714Y-36928571D01*
X48035714Y-36928571D02*
X48892857Y-36928571D01*
X48464285Y-38428571D02*
X48464285Y-36928571D01*
X29428571Y-52714285D02*
X27928571Y-52714285D01*
X27928571Y-52142857D01*
X28000000Y-52000000D01*
X28071428Y-51928571D01*
X28214285Y-51857142D01*
X28428571Y-51857142D01*
X28571428Y-51928571D01*
X28642857Y-52000000D01*
X28714285Y-52142857D01*
X28714285Y-52714285D01*
X27928571Y-51357142D02*
X29428571Y-51000000D01*
X28357142Y-50714285D01*
X29428571Y-50428571D01*
X27928571Y-50071428D01*
X29428571Y-49500000D02*
X27928571Y-49500000D01*
X29000000Y-49000000D01*
X27928571Y-48500000D01*
X29428571Y-48500000D01*
X28000000Y-45857142D02*
X27928571Y-46000000D01*
X27928571Y-46214285D01*
X28000000Y-46428571D01*
X28142857Y-46571428D01*
X28285714Y-46642857D01*
X28571428Y-46714285D01*
X28785714Y-46714285D01*
X29071428Y-46642857D01*
X29214285Y-46571428D01*
X29357142Y-46428571D01*
X29428571Y-46214285D01*
X29428571Y-46071428D01*
X29357142Y-45857142D01*
X29285714Y-45785714D01*
X28785714Y-45785714D01*
X28785714Y-46071428D01*
X29428571Y-45142857D02*
X27928571Y-45142857D01*
X29428571Y-44285714D01*
X27928571Y-44285714D01*
X29428571Y-43571428D02*
X27928571Y-43571428D01*
X27928571Y-43214285D01*
X28000000Y-43000000D01*
X28142857Y-42857142D01*
X28285714Y-42785714D01*
X28571428Y-42714285D01*
X28785714Y-42714285D01*
X29071428Y-42785714D01*
X29214285Y-42857142D01*
X29357142Y-43000000D01*
X29428571Y-43214285D01*
X29428571Y-43571428D01*
X31000000Y-61678571D02*
X31285714Y-61678571D01*
X31428571Y-61750000D01*
X31571428Y-61892857D01*
X31642857Y-62178571D01*
X31642857Y-62678571D01*
X31571428Y-62964285D01*
X31428571Y-63107142D01*
X31285714Y-63178571D01*
X31000000Y-63178571D01*
X30857142Y-63107142D01*
X30714285Y-62964285D01*
X30642857Y-62678571D01*
X30642857Y-62178571D01*
X30714285Y-61892857D01*
X30857142Y-61750000D01*
X31000000Y-61678571D01*
X32285714Y-61678571D02*
X32285714Y-62892857D01*
X32357142Y-63035714D01*
X32428571Y-63107142D01*
X32571428Y-63178571D01*
X32857142Y-63178571D01*
X33000000Y-63107142D01*
X33071428Y-63035714D01*
X33142857Y-62892857D01*
X33142857Y-61678571D01*
X33642857Y-61678571D02*
X34500000Y-61678571D01*
X34071428Y-63178571D02*
X34071428Y-61678571D01*
X36142857Y-62607142D02*
X37285714Y-62607142D01*
X39142857Y-62607142D02*
X40285714Y-62607142D01*
X39714285Y-63178571D02*
X39714285Y-62035714D01*
X33357142Y-18725000D02*
X33214285Y-18653571D01*
X33000000Y-18653571D01*
X32785714Y-18725000D01*
X32642857Y-18867857D01*
X32571428Y-19010714D01*
X32500000Y-19296428D01*
X32500000Y-19510714D01*
X32571428Y-19796428D01*
X32642857Y-19939285D01*
X32785714Y-20082142D01*
X33000000Y-20153571D01*
X33142857Y-20153571D01*
X33357142Y-20082142D01*
X33428571Y-20010714D01*
X33428571Y-19510714D01*
X33142857Y-19510714D01*
X34071428Y-20153571D02*
X34071428Y-18653571D01*
X34928571Y-20153571D01*
X34928571Y-18653571D01*
X35642857Y-20153571D02*
X35642857Y-18653571D01*
X36000000Y-18653571D01*
X36214285Y-18725000D01*
X36357142Y-18867857D01*
X36428571Y-19010714D01*
X36500000Y-19296428D01*
X36500000Y-19510714D01*
X36428571Y-19796428D01*
X36357142Y-19939285D01*
X36214285Y-20082142D01*
X36000000Y-20153571D01*
X35642857Y-20153571D01*
X31857142Y-22132142D02*
X33000000Y-22132142D01*
X32428571Y-22703571D02*
X32428571Y-21560714D01*
X34500000Y-22703571D02*
X33642857Y-22703571D01*
X34071428Y-22703571D02*
X34071428Y-21203571D01*
X33928571Y-21417857D01*
X33785714Y-21560714D01*
X33642857Y-21632142D01*
X35071428Y-21346428D02*
X35142857Y-21275000D01*
X35285714Y-21203571D01*
X35642857Y-21203571D01*
X35785714Y-21275000D01*
X35857142Y-21346428D01*
X35928571Y-21489285D01*
X35928571Y-21632142D01*
X35857142Y-21846428D01*
X35000000Y-22703571D01*
X35928571Y-22703571D01*
X36357142Y-21203571D02*
X36857142Y-22703571D01*
X37357142Y-21203571D01*
X68821428Y-137832142D02*
X69964285Y-137832142D01*
X69392857Y-138403571D02*
X69392857Y-137260714D01*
X71392857Y-136903571D02*
X70678571Y-136903571D01*
X70607142Y-137617857D01*
X70678571Y-137546428D01*
X70821428Y-137475000D01*
X71178571Y-137475000D01*
X71321428Y-137546428D01*
X71392857Y-137617857D01*
X71464285Y-137760714D01*
X71464285Y-138117857D01*
X71392857Y-138260714D01*
X71321428Y-138332142D01*
X71178571Y-138403571D01*
X70821428Y-138403571D01*
X70678571Y-138332142D01*
X70607142Y-138260714D01*
X71892857Y-136903571D02*
X72392857Y-138403571D01*
X72892857Y-136903571D01*
X69035714Y-139453571D02*
X69892857Y-139453571D01*
X69464285Y-140953571D02*
X69464285Y-139453571D01*
X70321428Y-140882142D02*
X70535714Y-140953571D01*
X70892857Y-140953571D01*
X71035714Y-140882142D01*
X71107142Y-140810714D01*
X71178571Y-140667857D01*
X71178571Y-140525000D01*
X71107142Y-140382142D01*
X71035714Y-140310714D01*
X70892857Y-140239285D01*
X70607142Y-140167857D01*
X70464285Y-140096428D01*
X70392857Y-140025000D01*
X70321428Y-139882142D01*
X70321428Y-139739285D01*
X70392857Y-139596428D01*
X70464285Y-139525000D01*
X70607142Y-139453571D01*
X70964285Y-139453571D01*
X71178571Y-139525000D01*
X71607142Y-139453571D02*
X72464285Y-139453571D01*
X72035714Y-140953571D02*
X72035714Y-139453571D01*
X27607142Y-137035714D02*
X27607142Y-135892857D01*
X28178571Y-136464285D02*
X27035714Y-136464285D01*
X28178571Y-134392857D02*
X28178571Y-135250000D01*
X28178571Y-134821428D02*
X26678571Y-134821428D01*
X26892857Y-134964285D01*
X27035714Y-135107142D01*
X27107142Y-135250000D01*
X26821428Y-133821428D02*
X26750000Y-133750000D01*
X26678571Y-133607142D01*
X26678571Y-133250000D01*
X26750000Y-133107142D01*
X26821428Y-133035714D01*
X26964285Y-132964285D01*
X27107142Y-132964285D01*
X27321428Y-133035714D01*
X28178571Y-133892857D01*
X28178571Y-132964285D01*
X26678571Y-132535714D02*
X28178571Y-132035714D01*
X26678571Y-131535714D01*
X28107142Y-129964285D02*
X28178571Y-129750000D01*
X28178571Y-129392857D01*
X28107142Y-129250000D01*
X28035714Y-129178571D01*
X27892857Y-129107142D01*
X27750000Y-129107142D01*
X27607142Y-129178571D01*
X27535714Y-129250000D01*
X27464285Y-129392857D01*
X27392857Y-129678571D01*
X27321428Y-129821428D01*
X27250000Y-129892857D01*
X27107142Y-129964285D01*
X26964285Y-129964285D01*
X26821428Y-129892857D01*
X26750000Y-129821428D01*
X26678571Y-129678571D01*
X26678571Y-129321428D01*
X26750000Y-129107142D01*
X26678571Y-128607142D02*
X28178571Y-128250000D01*
X27107142Y-127964285D01*
X28178571Y-127678571D01*
X26678571Y-127321428D01*
X62250000Y-120832142D02*
X63392857Y-120832142D01*
X62821428Y-121403571D02*
X62821428Y-120260714D01*
X64892857Y-121403571D02*
X64035714Y-121403571D01*
X64464285Y-121403571D02*
X64464285Y-119903571D01*
X64321428Y-120117857D01*
X64178571Y-120260714D01*
X64035714Y-120332142D01*
X65464285Y-120046428D02*
X65535714Y-119975000D01*
X65678571Y-119903571D01*
X66035714Y-119903571D01*
X66178571Y-119975000D01*
X66250000Y-120046428D01*
X66321428Y-120189285D01*
X66321428Y-120332142D01*
X66250000Y-120546428D01*
X65392857Y-121403571D01*
X66321428Y-121403571D01*
X66750000Y-119903571D02*
X67250000Y-121403571D01*
X67750000Y-119903571D01*
X70178571Y-119975000D02*
X70035714Y-119903571D01*
X69821428Y-119903571D01*
X69607142Y-119975000D01*
X69464285Y-120117857D01*
X69392857Y-120260714D01*
X69321428Y-120546428D01*
X69321428Y-120760714D01*
X69392857Y-121046428D01*
X69464285Y-121189285D01*
X69607142Y-121332142D01*
X69821428Y-121403571D01*
X69964285Y-121403571D01*
X70178571Y-121332142D01*
X70250000Y-121260714D01*
X70250000Y-120760714D01*
X69964285Y-120760714D01*
X70892857Y-121403571D02*
X70892857Y-119903571D01*
X71750000Y-121403571D01*
X71750000Y-119903571D01*
X72464285Y-121403571D02*
X72464285Y-119903571D01*
X72821428Y-119903571D01*
X73035714Y-119975000D01*
X73178571Y-120117857D01*
X73250000Y-120260714D01*
X73321428Y-120546428D01*
X73321428Y-120760714D01*
X73250000Y-121046428D01*
X73178571Y-121189285D01*
X73035714Y-121332142D01*
X72821428Y-121403571D01*
X72464285Y-121403571D01*
X65857142Y-123810714D02*
X65785714Y-123882142D01*
X65571428Y-123953571D01*
X65428571Y-123953571D01*
X65214285Y-123882142D01*
X65071428Y-123739285D01*
X65000000Y-123596428D01*
X64928571Y-123310714D01*
X64928571Y-123096428D01*
X65000000Y-122810714D01*
X65071428Y-122667857D01*
X65214285Y-122525000D01*
X65428571Y-122453571D01*
X65571428Y-122453571D01*
X65785714Y-122525000D01*
X65857142Y-122596428D01*
X66785714Y-122453571D02*
X67071428Y-122453571D01*
X67214285Y-122525000D01*
X67357142Y-122667857D01*
X67428571Y-122953571D01*
X67428571Y-123453571D01*
X67357142Y-123739285D01*
X67214285Y-123882142D01*
X67071428Y-123953571D01*
X66785714Y-123953571D01*
X66642857Y-123882142D01*
X66500000Y-123739285D01*
X66428571Y-123453571D01*
X66428571Y-122953571D01*
X66500000Y-122667857D01*
X66642857Y-122525000D01*
X66785714Y-122453571D01*
X68071428Y-123953571D02*
X68071428Y-122453571D01*
X68928571Y-123953571D01*
X68928571Y-122453571D01*
X69642857Y-123953571D02*
X69642857Y-122453571D01*
X70500000Y-123953571D01*
X70500000Y-122453571D01*
D11*
X251750000Y-101250000D03*
X251750000Y-96250000D03*
X145500000Y-101250000D03*
X145500000Y-96250000D03*
D12*
X143000000Y-120870000D03*
D13*
X143000000Y-113250000D03*
D12*
X244000000Y-96130000D03*
D13*
X244000000Y-103750000D03*
X194000000Y-103750000D03*
D12*
X194000000Y-96130000D03*
D13*
X199250000Y-113250000D03*
D12*
X199250000Y-120870000D03*
X163620000Y-130250000D03*
D13*
X156000000Y-130250000D03*
D11*
X201750000Y-96250000D03*
X201750000Y-101250000D03*
D14*
X208380000Y-94660000D03*
D15*
X223620000Y-94660000D03*
X208380000Y-97200000D03*
X223620000Y-97200000D03*
X208380000Y-119800000D03*
X208380000Y-122340000D03*
X223620000Y-119800000D03*
X223620000Y-122340000D03*
X223620000Y-102280000D03*
D12*
X249250000Y-120870000D03*
D13*
X249250000Y-113250000D03*
X212250000Y-130250000D03*
D12*
X219870000Y-130250000D03*
D15*
X167370000Y-102280000D03*
X167370000Y-122340000D03*
X167370000Y-119800000D03*
X152130000Y-122340000D03*
X152130000Y-119800000D03*
X167370000Y-97200000D03*
X152130000Y-97200000D03*
X167370000Y-94660000D03*
D14*
X152130000Y-94660000D03*
D12*
X137750000Y-96130000D03*
D13*
X137750000Y-103750000D03*
D12*
X269870000Y-130250000D03*
D13*
X262250000Y-130250000D03*
D15*
X273620000Y-102280000D03*
X273620000Y-122340000D03*
X273620000Y-119800000D03*
X258380000Y-122340000D03*
X258380000Y-119800000D03*
X273620000Y-97200000D03*
X258380000Y-97200000D03*
X273620000Y-94660000D03*
D14*
X258380000Y-94660000D03*
D13*
X244000000Y-35000000D03*
D12*
X244000000Y-27380000D03*
D13*
X249250000Y-44500000D03*
D12*
X249250000Y-52120000D03*
D11*
X251750000Y-27500000D03*
X251750000Y-32500000D03*
D14*
X258380000Y-25910000D03*
D15*
X273620000Y-25910000D03*
X258380000Y-28450000D03*
X273620000Y-28450000D03*
X258380000Y-51050000D03*
X258380000Y-53590000D03*
X273620000Y-51050000D03*
X273620000Y-53590000D03*
X273620000Y-33530000D03*
D13*
X262250000Y-61500000D03*
D12*
X269870000Y-61500000D03*
X194000000Y-27380000D03*
D13*
X194000000Y-35000000D03*
D12*
X219870000Y-61500000D03*
D13*
X212250000Y-61500000D03*
D12*
X199250000Y-52120000D03*
D13*
X199250000Y-44500000D03*
D15*
X223620000Y-33530000D03*
X223620000Y-53590000D03*
X223620000Y-51050000D03*
X208380000Y-53590000D03*
X208380000Y-51050000D03*
X223620000Y-28450000D03*
X208380000Y-28450000D03*
X223620000Y-25910000D03*
D14*
X208380000Y-25910000D03*
D11*
X201750000Y-32500000D03*
X201750000Y-27500000D03*
D13*
X137750000Y-35000000D03*
D12*
X137750000Y-27380000D03*
D13*
X143000000Y-44500000D03*
D12*
X143000000Y-52120000D03*
D11*
X145500000Y-27500000D03*
X145500000Y-32500000D03*
D13*
X156000000Y-61500000D03*
D12*
X163620000Y-61500000D03*
D14*
X152130000Y-25910000D03*
D15*
X167370000Y-25910000D03*
X152130000Y-28450000D03*
X167370000Y-28450000D03*
X152130000Y-51050000D03*
X152130000Y-53590000D03*
X167370000Y-51050000D03*
X167370000Y-53590000D03*
X167370000Y-33530000D03*
D13*
X85500000Y-35000000D03*
D12*
X85500000Y-27380000D03*
D13*
X90750000Y-44500000D03*
D12*
X90750000Y-52120000D03*
D11*
X93250000Y-27500000D03*
X93250000Y-32500000D03*
D13*
X103750000Y-61500000D03*
D12*
X111370000Y-61500000D03*
D14*
X99880000Y-25910000D03*
D15*
X115120000Y-25910000D03*
X99880000Y-28450000D03*
X115120000Y-28450000D03*
X99880000Y-51050000D03*
X99880000Y-53590000D03*
X115120000Y-51050000D03*
X115120000Y-53590000D03*
X115120000Y-33530000D03*
D12*
X72276307Y-170723693D03*
X66888154Y-176111846D03*
G04 #@! TA.AperFunction,ComponentPad*
D16*
G36*
X61500000Y-185742273D02*
G01*
X57257727Y-181500000D01*
X61500000Y-177257727D01*
X65742273Y-181500000D01*
X61500000Y-185742273D01*
G37*
G04 #@! TD.AperFunction*
D17*
X56330000Y-134250000D03*
X53790000Y-129170000D03*
D18*
X51250000Y-134250000D03*
D19*
X33210000Y-145760000D03*
X35750000Y-145760000D03*
X33210000Y-148300000D03*
X35750000Y-148300000D03*
X33210000Y-150840000D03*
X35750000Y-150840000D03*
X33210000Y-153380000D03*
X35750000Y-153380000D03*
X33210000Y-155920000D03*
X35750000Y-155920000D03*
X33210000Y-158460000D03*
X35750000Y-158460000D03*
X33210000Y-161000000D03*
X35750000Y-161000000D03*
X33210000Y-163540000D03*
D20*
X35750000Y-163540000D03*
D15*
X58870000Y-33530000D03*
X58870000Y-53590000D03*
X58870000Y-51050000D03*
X43630000Y-53590000D03*
X43630000Y-51050000D03*
X58870000Y-28450000D03*
X43630000Y-28450000D03*
X58870000Y-25910000D03*
D14*
X43630000Y-25910000D03*
D21*
X48000000Y-155630000D03*
X55620000Y-163250000D03*
X50540000Y-155630000D03*
X53080000Y-163250000D03*
X53080000Y-155630000D03*
X50540000Y-163250000D03*
X55620000Y-155630000D03*
D22*
X48000000Y-163250000D03*
D12*
X34668613Y-135466409D03*
D13*
X34668613Y-127846409D03*
D23*
X64500000Y-156090000D03*
D11*
X64500000Y-166250000D03*
D23*
X52660000Y-180500000D03*
D11*
X42500000Y-180500000D03*
D23*
X41500000Y-163910000D03*
D11*
X41500000Y-153750000D03*
D12*
X55120000Y-61500000D03*
D13*
X47500000Y-61500000D03*
D12*
X34500000Y-52120000D03*
D13*
X34500000Y-44500000D03*
D12*
X29250000Y-27380000D03*
D13*
X29250000Y-35000000D03*
D12*
X56750000Y-121750000D03*
D13*
X49130000Y-121750000D03*
D23*
X50120000Y-175500000D03*
D24*
X42500000Y-175500000D03*
D11*
X37000000Y-32500000D03*
X37000000Y-27500000D03*
X45556272Y-169223789D03*
X50556272Y-169223789D03*
X51500000Y-140250000D03*
X56500000Y-140250000D03*
X51500000Y-147500000D03*
D24*
X54000000Y-147500000D03*
D11*
X63250000Y-130750000D03*
X63250000Y-135750000D03*
X43500000Y-130000000D03*
X43500000Y-135000000D03*
D25*
X69250000Y-162000000D03*
D26*
X43033591Y-135466409D02*
X43500000Y-135000000D01*
X34668613Y-135466409D02*
X43033591Y-135466409D01*
X50500000Y-135000000D02*
X51250000Y-134250000D01*
X43500000Y-135000000D02*
X50500000Y-135000000D01*
D27*
X65750000Y-150500000D02*
X69250000Y-150500000D01*
X69250000Y-150500000D02*
X69250000Y-162000000D01*
X69250000Y-162000000D02*
X69250000Y-162000000D01*
D28*
X66111846Y-176111846D02*
X66888154Y-176111846D01*
D26*
X66888154Y-176111846D02*
X66888154Y-174888154D01*
D27*
X60000097Y-169223789D02*
X66888154Y-176111846D01*
X50556272Y-169223789D02*
X60000097Y-169223789D01*
X29250000Y-39250000D02*
X34500000Y-44500000D01*
X29250000Y-35000000D02*
X29250000Y-39250000D01*
X34500000Y-35000000D02*
X37000000Y-32500000D01*
X29250000Y-35000000D02*
X34500000Y-35000000D01*
X85500000Y-39250000D02*
X90750000Y-44500000D01*
X85500000Y-35000000D02*
X85500000Y-39250000D01*
X90750000Y-35000000D02*
X93250000Y-32500000D01*
X85500000Y-35000000D02*
X90750000Y-35000000D01*
X41500000Y-163910000D02*
X41500000Y-164000000D01*
X41500000Y-164000000D02*
X39000000Y-166500000D01*
X39000000Y-166500000D02*
X39000000Y-171000000D01*
X39000000Y-171000000D02*
X40500000Y-172500000D01*
X47120000Y-172500000D02*
X50120000Y-175500000D01*
X40500000Y-172500000D02*
X47120000Y-172500000D01*
X42500000Y-180500000D02*
X42500000Y-175500000D01*
D28*
X34500000Y-52120000D02*
X36380000Y-52120000D01*
X90750000Y-52120000D02*
X92630000Y-52120000D01*
D27*
X60500000Y-180500000D02*
X61500000Y-181500000D01*
X52660000Y-180500000D02*
X60500000Y-180500000D01*
X67802614Y-166250000D02*
X72276307Y-170723693D01*
X64500000Y-166250000D02*
X67802614Y-166250000D01*
X137750000Y-39250000D02*
X143000000Y-44500000D01*
X137750000Y-35000000D02*
X137750000Y-39250000D01*
X143000000Y-35000000D02*
X145500000Y-32500000D01*
X137750000Y-35000000D02*
X143000000Y-35000000D01*
X194000000Y-35000000D02*
X194000000Y-39250000D01*
X199250000Y-35000000D02*
X201750000Y-32500000D01*
X194000000Y-39250000D02*
X199250000Y-44500000D01*
X194000000Y-35000000D02*
X199250000Y-35000000D01*
X249250000Y-35000000D02*
X251750000Y-32500000D01*
X244000000Y-35000000D02*
X244000000Y-39250000D01*
X244000000Y-39250000D02*
X249250000Y-44500000D01*
X244000000Y-35000000D02*
X249250000Y-35000000D01*
X137750000Y-103750000D02*
X137750000Y-108000000D01*
X137750000Y-108000000D02*
X143000000Y-113250000D01*
X143000000Y-103750000D02*
X145500000Y-101250000D01*
X137750000Y-103750000D02*
X143000000Y-103750000D01*
X199250000Y-103750000D02*
X201750000Y-101250000D01*
X194000000Y-103750000D02*
X194000000Y-108000000D01*
X194000000Y-108000000D02*
X199250000Y-113250000D01*
X194000000Y-103750000D02*
X199250000Y-103750000D01*
X244000000Y-103750000D02*
X249250000Y-103750000D01*
X249250000Y-103750000D02*
X251750000Y-101250000D01*
X244000000Y-103750000D02*
X244000000Y-108000000D01*
X244000000Y-108000000D02*
X249250000Y-113250000D01*
D28*
X143000000Y-52120000D02*
X144880000Y-52120000D01*
X199250000Y-52120000D02*
X201130000Y-52120000D01*
X249250000Y-52120000D02*
X251130000Y-52120000D01*
X143000000Y-120870000D02*
X144880000Y-120870000D01*
X199250000Y-120870000D02*
X201130000Y-120870000D01*
X249250000Y-120870000D02*
X251130000Y-120870000D01*
D29*
G36*
X51920189Y-118144376D02*
G01*
X52083850Y-118194022D01*
X52234672Y-118274638D01*
X52366870Y-118383130D01*
X52475362Y-118515328D01*
X52555978Y-118666150D01*
X52605624Y-118829811D01*
X52623000Y-119006234D01*
X52623000Y-124493766D01*
X52605624Y-124670189D01*
X52555978Y-124833850D01*
X52475362Y-124984672D01*
X52366870Y-125116870D01*
X52234672Y-125225362D01*
X52083850Y-125305978D01*
X51920189Y-125355624D01*
X51743766Y-125373000D01*
X40750000Y-125373000D01*
X40737552Y-125373612D01*
X40542462Y-125392827D01*
X40518044Y-125397683D01*
X40330451Y-125454588D01*
X40307450Y-125464116D01*
X40134563Y-125556526D01*
X40113862Y-125570358D01*
X39962325Y-125694721D01*
X39944721Y-125712325D01*
X39820358Y-125863862D01*
X39806526Y-125884563D01*
X39714116Y-126057450D01*
X39704588Y-126080451D01*
X39647683Y-126268044D01*
X39642827Y-126292462D01*
X39623612Y-126487552D01*
X39623000Y-126500000D01*
X39623000Y-130243766D01*
X39605624Y-130420189D01*
X39555978Y-130583850D01*
X39475362Y-130734672D01*
X39366870Y-130866870D01*
X39234672Y-130975362D01*
X39083850Y-131055978D01*
X38920189Y-131105624D01*
X38743766Y-131123000D01*
X31256234Y-131123000D01*
X31079811Y-131105624D01*
X30916150Y-131055978D01*
X30765328Y-130975362D01*
X30633130Y-130866870D01*
X30524638Y-130734672D01*
X30444022Y-130583850D01*
X30394376Y-130420189D01*
X30377000Y-130243766D01*
X30377000Y-119006234D01*
X30394376Y-118829811D01*
X30444022Y-118666150D01*
X30524638Y-118515328D01*
X30633130Y-118383130D01*
X30765328Y-118274638D01*
X30916150Y-118194022D01*
X31079811Y-118144376D01*
X31256234Y-118127000D01*
X51743766Y-118127000D01*
X51920189Y-118144376D01*
G37*
X51920189Y-118144376D02*
X52083850Y-118194022D01*
X52234672Y-118274638D01*
X52366870Y-118383130D01*
X52475362Y-118515328D01*
X52555978Y-118666150D01*
X52605624Y-118829811D01*
X52623000Y-119006234D01*
X52623000Y-124493766D01*
X52605624Y-124670189D01*
X52555978Y-124833850D01*
X52475362Y-124984672D01*
X52366870Y-125116870D01*
X52234672Y-125225362D01*
X52083850Y-125305978D01*
X51920189Y-125355624D01*
X51743766Y-125373000D01*
X40750000Y-125373000D01*
X40737552Y-125373612D01*
X40542462Y-125392827D01*
X40518044Y-125397683D01*
X40330451Y-125454588D01*
X40307450Y-125464116D01*
X40134563Y-125556526D01*
X40113862Y-125570358D01*
X39962325Y-125694721D01*
X39944721Y-125712325D01*
X39820358Y-125863862D01*
X39806526Y-125884563D01*
X39714116Y-126057450D01*
X39704588Y-126080451D01*
X39647683Y-126268044D01*
X39642827Y-126292462D01*
X39623612Y-126487552D01*
X39623000Y-126500000D01*
X39623000Y-130243766D01*
X39605624Y-130420189D01*
X39555978Y-130583850D01*
X39475362Y-130734672D01*
X39366870Y-130866870D01*
X39234672Y-130975362D01*
X39083850Y-131055978D01*
X38920189Y-131105624D01*
X38743766Y-131123000D01*
X31256234Y-131123000D01*
X31079811Y-131105624D01*
X30916150Y-131055978D01*
X30765328Y-130975362D01*
X30633130Y-130866870D01*
X30524638Y-130734672D01*
X30444022Y-130583850D01*
X30394376Y-130420189D01*
X30377000Y-130243766D01*
X30377000Y-119006234D01*
X30394376Y-118829811D01*
X30444022Y-118666150D01*
X30524638Y-118515328D01*
X30633130Y-118383130D01*
X30765328Y-118274638D01*
X30916150Y-118194022D01*
X31079811Y-118144376D01*
X31256234Y-118127000D01*
X51743766Y-118127000D01*
X51920189Y-118144376D01*
G36*
X65920189Y-132894376D02*
G01*
X66083850Y-132944022D01*
X66234672Y-133024638D01*
X66366870Y-133133130D01*
X66475362Y-133265328D01*
X66555978Y-133416150D01*
X66605624Y-133579811D01*
X66623000Y-133756234D01*
X66623000Y-151243766D01*
X66605624Y-151420189D01*
X66555978Y-151583850D01*
X66475362Y-151734672D01*
X66366870Y-151866870D01*
X66234672Y-151975362D01*
X66083850Y-152055978D01*
X65920189Y-152105624D01*
X65743766Y-152123000D01*
X55170448Y-152123000D01*
X54994024Y-152105624D01*
X54830363Y-152055978D01*
X54679542Y-151975363D01*
X54542504Y-151862898D01*
X53637102Y-150957496D01*
X53524637Y-150820458D01*
X53444022Y-150669637D01*
X53394376Y-150505976D01*
X53377000Y-150329552D01*
X53377000Y-147941162D01*
X53427000Y-147689793D01*
X53427000Y-147310207D01*
X53377000Y-147058838D01*
X53377000Y-145170448D01*
X53394376Y-144994024D01*
X53444022Y-144830363D01*
X53524637Y-144679542D01*
X53637102Y-144542504D01*
X54546910Y-143632696D01*
X54555279Y-143623461D01*
X54679642Y-143471925D01*
X54693474Y-143451224D01*
X54785884Y-143278337D01*
X54795412Y-143255336D01*
X54852317Y-143067743D01*
X54857173Y-143043325D01*
X54876388Y-142848234D01*
X54877000Y-142835786D01*
X54877000Y-133756234D01*
X54894376Y-133579811D01*
X54944022Y-133416150D01*
X55024638Y-133265328D01*
X55133130Y-133133130D01*
X55265328Y-133024638D01*
X55416150Y-132944022D01*
X55579811Y-132894376D01*
X55756234Y-132877000D01*
X65743766Y-132877000D01*
X65920189Y-132894376D01*
G37*
X65920189Y-132894376D02*
X66083850Y-132944022D01*
X66234672Y-133024638D01*
X66366870Y-133133130D01*
X66475362Y-133265328D01*
X66555978Y-133416150D01*
X66605624Y-133579811D01*
X66623000Y-133756234D01*
X66623000Y-151243766D01*
X66605624Y-151420189D01*
X66555978Y-151583850D01*
X66475362Y-151734672D01*
X66366870Y-151866870D01*
X66234672Y-151975362D01*
X66083850Y-152055978D01*
X65920189Y-152105624D01*
X65743766Y-152123000D01*
X55170448Y-152123000D01*
X54994024Y-152105624D01*
X54830363Y-152055978D01*
X54679542Y-151975363D01*
X54542504Y-151862898D01*
X53637102Y-150957496D01*
X53524637Y-150820458D01*
X53444022Y-150669637D01*
X53394376Y-150505976D01*
X53377000Y-150329552D01*
X53377000Y-147941162D01*
X53427000Y-147689793D01*
X53427000Y-147310207D01*
X53377000Y-147058838D01*
X53377000Y-145170448D01*
X53394376Y-144994024D01*
X53444022Y-144830363D01*
X53524637Y-144679542D01*
X53637102Y-144542504D01*
X54546910Y-143632696D01*
X54555279Y-143623461D01*
X54679642Y-143471925D01*
X54693474Y-143451224D01*
X54785884Y-143278337D01*
X54795412Y-143255336D01*
X54852317Y-143067743D01*
X54857173Y-143043325D01*
X54876388Y-142848234D01*
X54877000Y-142835786D01*
X54877000Y-133756234D01*
X54894376Y-133579811D01*
X54944022Y-133416150D01*
X55024638Y-133265328D01*
X55133130Y-133133130D01*
X55265328Y-133024638D01*
X55416150Y-132944022D01*
X55579811Y-132894376D01*
X55756234Y-132877000D01*
X65743766Y-132877000D01*
X65920189Y-132894376D01*
G36*
X47345127Y-178561587D02*
G01*
X47816068Y-178948077D01*
X48533024Y-179331299D01*
X48687595Y-179378188D01*
X48592715Y-179690967D01*
X48513032Y-180500000D01*
X48592715Y-181309033D01*
X48828701Y-182086976D01*
X49211922Y-182803932D01*
X49637911Y-183323000D01*
X45522089Y-183323000D01*
X45948078Y-182803932D01*
X46331299Y-182086976D01*
X46567285Y-181309033D01*
X46627000Y-180702738D01*
X46627000Y-177843460D01*
X47345127Y-178561587D01*
G37*
X47345127Y-178561587D02*
X47816068Y-178948077D01*
X48533024Y-179331299D01*
X48687595Y-179378188D01*
X48592715Y-179690967D01*
X48513032Y-180500000D01*
X48592715Y-181309033D01*
X48828701Y-182086976D01*
X49211922Y-182803932D01*
X49637911Y-183323000D01*
X45522089Y-183323000D01*
X45948078Y-182803932D01*
X46331299Y-182086976D01*
X46567285Y-181309033D01*
X46627000Y-180702738D01*
X46627000Y-177843460D01*
X47345127Y-178561587D01*
G36*
X73573001Y-183323000D02*
G01*
X68291399Y-183323000D01*
X68354859Y-183245674D01*
X68645223Y-182702441D01*
X68824028Y-182112999D01*
X68841636Y-181934223D01*
X69790254Y-181541293D01*
X70793723Y-180870796D01*
X71647104Y-180017415D01*
X72317601Y-179013946D01*
X72779447Y-177898950D01*
X72992470Y-176828009D01*
X73573001Y-176712535D01*
X73573001Y-183323000D01*
G37*
X73573001Y-183323000D02*
X68291399Y-183323000D01*
X68354859Y-183245674D01*
X68645223Y-182702441D01*
X68824028Y-182112999D01*
X68841636Y-181934223D01*
X69790254Y-181541293D01*
X70793723Y-180870796D01*
X71647104Y-180017415D01*
X72317601Y-179013946D01*
X72779447Y-177898950D01*
X72992470Y-176828009D01*
X73573001Y-176712535D01*
X73573001Y-183323000D01*
G36*
X47723912Y-139104536D02*
G01*
X47573000Y-139863224D01*
X47573000Y-140636776D01*
X47723912Y-141395464D01*
X48019938Y-142110132D01*
X48449700Y-142753317D01*
X48996683Y-143300300D01*
X49639868Y-143730062D01*
X49873000Y-143826629D01*
X49873000Y-143923371D01*
X49639868Y-144019938D01*
X48996683Y-144449700D01*
X48449700Y-144996683D01*
X48019938Y-145639868D01*
X47723912Y-146354536D01*
X47573000Y-147113224D01*
X47573000Y-147886776D01*
X47723912Y-148645464D01*
X48019938Y-149360132D01*
X48449700Y-150003317D01*
X48996683Y-150550300D01*
X49639868Y-150980062D01*
X49873000Y-151076629D01*
X49873000Y-151349692D01*
X49770173Y-151359820D01*
X49269999Y-151511546D01*
X48769826Y-151359820D01*
X48000000Y-151283999D01*
X47230173Y-151359820D01*
X46489931Y-151584370D01*
X45807719Y-151949020D01*
X45209756Y-152439756D01*
X45208478Y-152441313D01*
X44980062Y-151889868D01*
X44550300Y-151246683D01*
X44003317Y-150699700D01*
X43360132Y-150269938D01*
X42645464Y-149973912D01*
X41886776Y-149823000D01*
X41113224Y-149823000D01*
X40354536Y-149973912D01*
X39687590Y-150250171D01*
X39574166Y-149679952D01*
X39528622Y-149570000D01*
X39574166Y-149460048D01*
X39727000Y-148691700D01*
X39727000Y-147908300D01*
X39574166Y-147139952D01*
X39528622Y-147030000D01*
X39574166Y-146920048D01*
X39727000Y-146151700D01*
X39727000Y-145368300D01*
X39574166Y-144599952D01*
X39274372Y-143876184D01*
X38839138Y-143224810D01*
X38285190Y-142670862D01*
X37633816Y-142235628D01*
X36910048Y-141935834D01*
X36141700Y-141783000D01*
X35358300Y-141783000D01*
X34589952Y-141935834D01*
X34480000Y-141981378D01*
X34370048Y-141935834D01*
X33601700Y-141783000D01*
X32818300Y-141783000D01*
X32049952Y-141935834D01*
X31326184Y-142235628D01*
X30674810Y-142670862D01*
X30120862Y-143224810D01*
X29685628Y-143876184D01*
X29385834Y-144599952D01*
X29233000Y-145368300D01*
X29233000Y-146151700D01*
X29385834Y-146920048D01*
X29431378Y-147030000D01*
X29385834Y-147139952D01*
X29233000Y-147908300D01*
X29233000Y-148691700D01*
X29385834Y-149460048D01*
X29431378Y-149570000D01*
X29385834Y-149679952D01*
X29233000Y-150448300D01*
X29233000Y-151231700D01*
X29385834Y-152000048D01*
X29431378Y-152110000D01*
X29385834Y-152219952D01*
X29233000Y-152988300D01*
X29233000Y-153771700D01*
X29385834Y-154540048D01*
X29431378Y-154650000D01*
X29385834Y-154759952D01*
X29233000Y-155528300D01*
X29233000Y-156311700D01*
X29385834Y-157080048D01*
X29431378Y-157190000D01*
X29385834Y-157299952D01*
X29233000Y-158068300D01*
X29233000Y-158851700D01*
X29385834Y-159620048D01*
X29431378Y-159730000D01*
X29385834Y-159839952D01*
X29233000Y-160608300D01*
X29233000Y-161391700D01*
X29385834Y-162160048D01*
X29431378Y-162270000D01*
X29385834Y-162379952D01*
X29233000Y-163148300D01*
X29233000Y-163931700D01*
X29385834Y-164700048D01*
X29685628Y-165423816D01*
X30120862Y-166075190D01*
X30674810Y-166629138D01*
X31326184Y-167064372D01*
X32049952Y-167364166D01*
X32818300Y-167517000D01*
X33601700Y-167517000D01*
X34105680Y-167416752D01*
X34287001Y-167471755D01*
X34873000Y-167529471D01*
X34873001Y-170797260D01*
X34853033Y-171000000D01*
X34932715Y-171809033D01*
X35168702Y-172586976D01*
X35551923Y-173303932D01*
X35938413Y-173774872D01*
X35938418Y-173774877D01*
X36067652Y-173932349D01*
X36225125Y-174061584D01*
X37438408Y-175274866D01*
X37567651Y-175432349D01*
X38196068Y-175948078D01*
X38373001Y-176042651D01*
X38373000Y-180702737D01*
X38432715Y-181309032D01*
X38668701Y-182086975D01*
X39051922Y-182803932D01*
X39477911Y-183323000D01*
X28177000Y-183323000D01*
X28177000Y-140669857D01*
X31428282Y-140669857D01*
X31766513Y-140895856D01*
X32881509Y-141357702D01*
X34065182Y-141593149D01*
X35272044Y-141593149D01*
X36455717Y-141357702D01*
X37570713Y-140895856D01*
X38574182Y-140225359D01*
X39427563Y-139371978D01*
X39446652Y-139343409D01*
X42843128Y-139343409D01*
X43033591Y-139362168D01*
X43224054Y-139343409D01*
X43793616Y-139287312D01*
X44524433Y-139065621D01*
X44877318Y-138877000D01*
X47818161Y-138877000D01*
X47723912Y-139104536D01*
G37*
X47723912Y-139104536D02*
X47573000Y-139863224D01*
X47573000Y-140636776D01*
X47723912Y-141395464D01*
X48019938Y-142110132D01*
X48449700Y-142753317D01*
X48996683Y-143300300D01*
X49639868Y-143730062D01*
X49873000Y-143826629D01*
X49873000Y-143923371D01*
X49639868Y-144019938D01*
X48996683Y-144449700D01*
X48449700Y-144996683D01*
X48019938Y-145639868D01*
X47723912Y-146354536D01*
X47573000Y-147113224D01*
X47573000Y-147886776D01*
X47723912Y-148645464D01*
X48019938Y-149360132D01*
X48449700Y-150003317D01*
X48996683Y-150550300D01*
X49639868Y-150980062D01*
X49873000Y-151076629D01*
X49873000Y-151349692D01*
X49770173Y-151359820D01*
X49269999Y-151511546D01*
X48769826Y-151359820D01*
X48000000Y-151283999D01*
X47230173Y-151359820D01*
X46489931Y-151584370D01*
X45807719Y-151949020D01*
X45209756Y-152439756D01*
X45208478Y-152441313D01*
X44980062Y-151889868D01*
X44550300Y-151246683D01*
X44003317Y-150699700D01*
X43360132Y-150269938D01*
X42645464Y-149973912D01*
X41886776Y-149823000D01*
X41113224Y-149823000D01*
X40354536Y-149973912D01*
X39687590Y-150250171D01*
X39574166Y-149679952D01*
X39528622Y-149570000D01*
X39574166Y-149460048D01*
X39727000Y-148691700D01*
X39727000Y-147908300D01*
X39574166Y-147139952D01*
X39528622Y-147030000D01*
X39574166Y-146920048D01*
X39727000Y-146151700D01*
X39727000Y-145368300D01*
X39574166Y-144599952D01*
X39274372Y-143876184D01*
X38839138Y-143224810D01*
X38285190Y-142670862D01*
X37633816Y-142235628D01*
X36910048Y-141935834D01*
X36141700Y-141783000D01*
X35358300Y-141783000D01*
X34589952Y-141935834D01*
X34480000Y-141981378D01*
X34370048Y-141935834D01*
X33601700Y-141783000D01*
X32818300Y-141783000D01*
X32049952Y-141935834D01*
X31326184Y-142235628D01*
X30674810Y-142670862D01*
X30120862Y-143224810D01*
X29685628Y-143876184D01*
X29385834Y-144599952D01*
X29233000Y-145368300D01*
X29233000Y-146151700D01*
X29385834Y-146920048D01*
X29431378Y-147030000D01*
X29385834Y-147139952D01*
X29233000Y-147908300D01*
X29233000Y-148691700D01*
X29385834Y-149460048D01*
X29431378Y-149570000D01*
X29385834Y-149679952D01*
X29233000Y-150448300D01*
X29233000Y-151231700D01*
X29385834Y-152000048D01*
X29431378Y-152110000D01*
X29385834Y-152219952D01*
X29233000Y-152988300D01*
X29233000Y-153771700D01*
X29385834Y-154540048D01*
X29431378Y-154650000D01*
X29385834Y-154759952D01*
X29233000Y-155528300D01*
X29233000Y-156311700D01*
X29385834Y-157080048D01*
X29431378Y-157190000D01*
X29385834Y-157299952D01*
X29233000Y-158068300D01*
X29233000Y-158851700D01*
X29385834Y-159620048D01*
X29431378Y-159730000D01*
X29385834Y-159839952D01*
X29233000Y-160608300D01*
X29233000Y-161391700D01*
X29385834Y-162160048D01*
X29431378Y-162270000D01*
X29385834Y-162379952D01*
X29233000Y-163148300D01*
X29233000Y-163931700D01*
X29385834Y-164700048D01*
X29685628Y-165423816D01*
X30120862Y-166075190D01*
X30674810Y-166629138D01*
X31326184Y-167064372D01*
X32049952Y-167364166D01*
X32818300Y-167517000D01*
X33601700Y-167517000D01*
X34105680Y-167416752D01*
X34287001Y-167471755D01*
X34873000Y-167529471D01*
X34873001Y-170797260D01*
X34853033Y-171000000D01*
X34932715Y-171809033D01*
X35168702Y-172586976D01*
X35551923Y-173303932D01*
X35938413Y-173774872D01*
X35938418Y-173774877D01*
X36067652Y-173932349D01*
X36225125Y-174061584D01*
X37438408Y-175274866D01*
X37567651Y-175432349D01*
X38196068Y-175948078D01*
X38373001Y-176042651D01*
X38373000Y-180702737D01*
X38432715Y-181309032D01*
X38668701Y-182086975D01*
X39051922Y-182803932D01*
X39477911Y-183323000D01*
X28177000Y-183323000D01*
X28177000Y-140669857D01*
X31428282Y-140669857D01*
X31766513Y-140895856D01*
X32881509Y-141357702D01*
X34065182Y-141593149D01*
X35272044Y-141593149D01*
X36455717Y-141357702D01*
X37570713Y-140895856D01*
X38574182Y-140225359D01*
X39427563Y-139371978D01*
X39446652Y-139343409D01*
X42843128Y-139343409D01*
X43033591Y-139362168D01*
X43224054Y-139343409D01*
X43793616Y-139287312D01*
X44524433Y-139065621D01*
X44877318Y-138877000D01*
X47818161Y-138877000D01*
X47723912Y-139104536D01*
G36*
X59661319Y-174721470D02*
G01*
X59278179Y-175035906D01*
X57941085Y-176373000D01*
X54167881Y-176373000D01*
X54187285Y-176309033D01*
X54266967Y-175500000D01*
X54187285Y-174690966D01*
X53951299Y-173913024D01*
X53650777Y-173350789D01*
X58290638Y-173350789D01*
X59661319Y-174721470D01*
G37*
X59661319Y-174721470D02*
X59278179Y-175035906D01*
X57941085Y-176373000D01*
X54167881Y-176373000D01*
X54187285Y-176309033D01*
X54266967Y-175500000D01*
X54187285Y-174690966D01*
X53951299Y-173913024D01*
X53650777Y-173350789D01*
X58290638Y-173350789D01*
X59661319Y-174721470D01*
G36*
X60573000Y-156476776D02*
G01*
X60723912Y-157235464D01*
X61019938Y-157950132D01*
X61449700Y-158593317D01*
X61996683Y-159140300D01*
X62639868Y-159570062D01*
X63354536Y-159866088D01*
X64113224Y-160017000D01*
X64886776Y-160017000D01*
X65123001Y-159970012D01*
X65123001Y-161593521D01*
X65123000Y-161593526D01*
X65123000Y-161797262D01*
X65103032Y-162000000D01*
X65115146Y-162123000D01*
X64297262Y-162123000D01*
X63690967Y-162182715D01*
X62913024Y-162418701D01*
X62196068Y-162801922D01*
X61567651Y-163317651D01*
X61051922Y-163946068D01*
X60668701Y-164663024D01*
X60527422Y-165128758D01*
X60202835Y-165096789D01*
X60202827Y-165096789D01*
X60000097Y-165076822D01*
X59797367Y-165096789D01*
X59284826Y-165096789D01*
X59490180Y-164419826D01*
X59547000Y-163842920D01*
X59547000Y-162657079D01*
X59490180Y-162080173D01*
X59265630Y-161339931D01*
X58900980Y-160657719D01*
X58410244Y-160059756D01*
X57812281Y-159569020D01*
X57570901Y-159440000D01*
X57812281Y-159310980D01*
X58410244Y-158820244D01*
X58900980Y-158222281D01*
X59265630Y-157540069D01*
X59490180Y-156799826D01*
X59547000Y-156222920D01*
X59547000Y-156127000D01*
X60573000Y-156127000D01*
X60573000Y-156476776D01*
G37*
X60573000Y-156476776D02*
X60723912Y-157235464D01*
X61019938Y-157950132D01*
X61449700Y-158593317D01*
X61996683Y-159140300D01*
X62639868Y-159570062D01*
X63354536Y-159866088D01*
X64113224Y-160017000D01*
X64886776Y-160017000D01*
X65123001Y-159970012D01*
X65123001Y-161593521D01*
X65123000Y-161593526D01*
X65123000Y-161797262D01*
X65103032Y-162000000D01*
X65115146Y-162123000D01*
X64297262Y-162123000D01*
X63690967Y-162182715D01*
X62913024Y-162418701D01*
X62196068Y-162801922D01*
X61567651Y-163317651D01*
X61051922Y-163946068D01*
X60668701Y-164663024D01*
X60527422Y-165128758D01*
X60202835Y-165096789D01*
X60202827Y-165096789D01*
X60000097Y-165076822D01*
X59797367Y-165096789D01*
X59284826Y-165096789D01*
X59490180Y-164419826D01*
X59547000Y-163842920D01*
X59547000Y-162657079D01*
X59490180Y-162080173D01*
X59265630Y-161339931D01*
X58900980Y-160657719D01*
X58410244Y-160059756D01*
X57812281Y-159569020D01*
X57570901Y-159440000D01*
X57812281Y-159310980D01*
X58410244Y-158820244D01*
X58900980Y-158222281D01*
X59265630Y-157540069D01*
X59490180Y-156799826D01*
X59547000Y-156222920D01*
X59547000Y-156127000D01*
X60573000Y-156127000D01*
X60573000Y-156476776D01*
G36*
X73573001Y-164734851D02*
G01*
X72879738Y-164596953D01*
X72478272Y-164596953D01*
X72568839Y-164461410D01*
X72698078Y-164303932D01*
X72794111Y-164124268D01*
X72907300Y-163954868D01*
X72985267Y-163766639D01*
X73081299Y-163586976D01*
X73140434Y-163392032D01*
X73218402Y-163203802D01*
X73258150Y-163003976D01*
X73317285Y-162809033D01*
X73337253Y-162606297D01*
X73377000Y-162406474D01*
X73377000Y-162202738D01*
X73396968Y-162000000D01*
X73377000Y-161797262D01*
X73377000Y-150702738D01*
X73396968Y-150500000D01*
X73317285Y-149690967D01*
X73081299Y-148913024D01*
X72698078Y-148196068D01*
X72182349Y-147567651D01*
X71553932Y-147051922D01*
X70836976Y-146668701D01*
X70627000Y-146605006D01*
X70627000Y-144797000D01*
X73573000Y-144797000D01*
X73573001Y-164734851D01*
G37*
X73573001Y-164734851D02*
X72879738Y-164596953D01*
X72478272Y-164596953D01*
X72568839Y-164461410D01*
X72698078Y-164303932D01*
X72794111Y-164124268D01*
X72907300Y-163954868D01*
X72985267Y-163766639D01*
X73081299Y-163586976D01*
X73140434Y-163392032D01*
X73218402Y-163203802D01*
X73258150Y-163003976D01*
X73317285Y-162809033D01*
X73337253Y-162606297D01*
X73377000Y-162406474D01*
X73377000Y-162202738D01*
X73396968Y-162000000D01*
X73377000Y-161797262D01*
X73377000Y-150702738D01*
X73396968Y-150500000D01*
X73317285Y-149690967D01*
X73081299Y-148913024D01*
X72698078Y-148196068D01*
X72182349Y-147567651D01*
X71553932Y-147051922D01*
X70836976Y-146668701D01*
X70627000Y-146605006D01*
X70627000Y-144797000D01*
X73573000Y-144797000D01*
X73573001Y-164734851D01*
G36*
X44129820Y-156799827D02*
G01*
X44354370Y-157540069D01*
X44719020Y-158222281D01*
X45209756Y-158820244D01*
X45761631Y-159273156D01*
X45454326Y-159437414D01*
X44978179Y-159828179D01*
X44587414Y-160304326D01*
X44297050Y-160847559D01*
X44292422Y-160862816D01*
X43803932Y-160461922D01*
X43086975Y-160078701D01*
X42309032Y-159842715D01*
X41500000Y-159763032D01*
X40690967Y-159842715D01*
X39913024Y-160078701D01*
X39649658Y-160219473D01*
X39574166Y-159839952D01*
X39528622Y-159730000D01*
X39574166Y-159620048D01*
X39727000Y-158851700D01*
X39727000Y-158068300D01*
X39574166Y-157299952D01*
X39528622Y-157190000D01*
X39539740Y-157163159D01*
X39639868Y-157230062D01*
X40354536Y-157526088D01*
X41113224Y-157677000D01*
X41886776Y-157677000D01*
X42645464Y-157526088D01*
X43360132Y-157230062D01*
X44003317Y-156800300D01*
X44118520Y-156685097D01*
X44129820Y-156799827D01*
G37*
X44129820Y-156799827D02*
X44354370Y-157540069D01*
X44719020Y-158222281D01*
X45209756Y-158820244D01*
X45761631Y-159273156D01*
X45454326Y-159437414D01*
X44978179Y-159828179D01*
X44587414Y-160304326D01*
X44297050Y-160847559D01*
X44292422Y-160862816D01*
X43803932Y-160461922D01*
X43086975Y-160078701D01*
X42309032Y-159842715D01*
X41500000Y-159763032D01*
X40690967Y-159842715D01*
X39913024Y-160078701D01*
X39649658Y-160219473D01*
X39574166Y-159839952D01*
X39528622Y-159730000D01*
X39574166Y-159620048D01*
X39727000Y-158851700D01*
X39727000Y-158068300D01*
X39574166Y-157299952D01*
X39528622Y-157190000D01*
X39539740Y-157163159D01*
X39639868Y-157230062D01*
X40354536Y-157526088D01*
X41113224Y-157677000D01*
X41886776Y-157677000D01*
X42645464Y-157526088D01*
X43360132Y-157230062D01*
X44003317Y-156800300D01*
X44118520Y-156685097D01*
X44129820Y-156799827D01*
G36*
X73573000Y-133443000D02*
G01*
X70627000Y-133443000D01*
X70627000Y-131891718D01*
X70630110Y-131880110D01*
X70720370Y-131855925D01*
X70743671Y-131847156D01*
X70764813Y-131834009D01*
X70777303Y-131823056D01*
X70823056Y-131777303D01*
X70838850Y-131758057D01*
X70850586Y-131736101D01*
X70855925Y-131720370D01*
X70872672Y-131657870D01*
X70877000Y-131625000D01*
X70877000Y-129250000D01*
X70876388Y-129237552D01*
X70857173Y-129042462D01*
X70852317Y-129018044D01*
X70795412Y-128830451D01*
X70785884Y-128807450D01*
X70693474Y-128634563D01*
X70679642Y-128613862D01*
X70555279Y-128462325D01*
X70537675Y-128444721D01*
X70386138Y-128320358D01*
X70365437Y-128306526D01*
X70192550Y-128214116D01*
X70169549Y-128204588D01*
X69981956Y-128147683D01*
X69957538Y-128142827D01*
X69762448Y-128123612D01*
X69750000Y-128123000D01*
X66176617Y-128123000D01*
X65850617Y-127797000D01*
X73573000Y-127797000D01*
X73573000Y-133443000D01*
G37*
X73573000Y-133443000D02*
X70627000Y-133443000D01*
X70627000Y-131891718D01*
X70630110Y-131880110D01*
X70720370Y-131855925D01*
X70743671Y-131847156D01*
X70764813Y-131834009D01*
X70777303Y-131823056D01*
X70823056Y-131777303D01*
X70838850Y-131758057D01*
X70850586Y-131736101D01*
X70855925Y-131720370D01*
X70872672Y-131657870D01*
X70877000Y-131625000D01*
X70877000Y-129250000D01*
X70876388Y-129237552D01*
X70857173Y-129042462D01*
X70852317Y-129018044D01*
X70795412Y-128830451D01*
X70785884Y-128807450D01*
X70693474Y-128634563D01*
X70679642Y-128613862D01*
X70555279Y-128462325D01*
X70537675Y-128444721D01*
X70386138Y-128320358D01*
X70365437Y-128306526D01*
X70192550Y-128214116D01*
X70169549Y-128204588D01*
X69981956Y-128147683D01*
X69957538Y-128142827D01*
X69762448Y-128123612D01*
X69750000Y-128123000D01*
X66176617Y-128123000D01*
X65850617Y-127797000D01*
X73573000Y-127797000D01*
X73573000Y-133443000D01*
G36*
X49170189Y-129894376D02*
G01*
X49333850Y-129944022D01*
X49484672Y-130024638D01*
X49616870Y-130133130D01*
X49653425Y-130177672D01*
X49095059Y-130347050D01*
X48551826Y-130637414D01*
X48075679Y-131028179D01*
X47997861Y-131123000D01*
X47280556Y-131123000D01*
X47427000Y-130386776D01*
X47427000Y-129877000D01*
X48993766Y-129877000D01*
X49170189Y-129894376D01*
G37*
X49170189Y-129894376D02*
X49333850Y-129944022D01*
X49484672Y-130024638D01*
X49616870Y-130133130D01*
X49653425Y-130177672D01*
X49095059Y-130347050D01*
X48551826Y-130637414D01*
X48075679Y-131028179D01*
X47997861Y-131123000D01*
X47280556Y-131123000D01*
X47427000Y-130386776D01*
X47427000Y-129877000D01*
X48993766Y-129877000D01*
X49170189Y-129894376D01*
G36*
X58615857Y-127797000D02*
G01*
X60649383Y-127797000D01*
X60323383Y-128123000D01*
X58506234Y-128123000D01*
X58329811Y-128105624D01*
X58166150Y-128055978D01*
X58015328Y-127975362D01*
X57883130Y-127866870D01*
X57815758Y-127784777D01*
X58537104Y-127641293D01*
X58615857Y-127608672D01*
X58615857Y-127797000D01*
G37*
X58615857Y-127797000D02*
X60649383Y-127797000D01*
X60323383Y-128123000D01*
X58506234Y-128123000D01*
X58329811Y-128105624D01*
X58166150Y-128055978D01*
X58015328Y-127975362D01*
X57883130Y-127866870D01*
X57815758Y-127784777D01*
X58537104Y-127641293D01*
X58615857Y-127608672D01*
X58615857Y-127797000D01*
G36*
X40257166Y-55392817D02*
G01*
X40673686Y-56016184D01*
X41203816Y-56546314D01*
X41789737Y-56937813D01*
X41597310Y-57297819D01*
X41418505Y-57887261D01*
X41385930Y-58218000D01*
X35247917Y-58218000D01*
X36287104Y-58011293D01*
X37402100Y-57549447D01*
X38405569Y-56878950D01*
X39258950Y-56025569D01*
X39929447Y-55022100D01*
X40016529Y-54811866D01*
X40257166Y-55392817D01*
G37*
X40257166Y-55392817D02*
X40673686Y-56016184D01*
X41203816Y-56546314D01*
X41789737Y-56937813D01*
X41597310Y-57297819D01*
X41418505Y-57887261D01*
X41385930Y-58218000D01*
X35247917Y-58218000D01*
X36287104Y-58011293D01*
X37402100Y-57549447D01*
X38405569Y-56878950D01*
X39258950Y-56025569D01*
X39929447Y-55022100D01*
X40016529Y-54811866D01*
X40257166Y-55392817D01*
G36*
X30594431Y-56878950D02*
G01*
X31597900Y-57549447D01*
X32712896Y-58011293D01*
X33752083Y-58218000D01*
X27927000Y-58218000D01*
X27927000Y-56348428D01*
X30063909Y-56348428D01*
X30594431Y-56878950D01*
G37*
X30594431Y-56878950D02*
X31597900Y-57549447D01*
X32712896Y-58011293D01*
X33752083Y-58218000D01*
X27927000Y-58218000D01*
X27927000Y-56348428D01*
X30063909Y-56348428D01*
X30594431Y-56878950D01*
G36*
X59323000Y-22119543D02*
G01*
X59244858Y-22104000D01*
X58495142Y-22104000D01*
X57759831Y-22250262D01*
X57067183Y-22537166D01*
X56443816Y-22953686D01*
X55913686Y-23483816D01*
X55497166Y-24107183D01*
X55210262Y-24799831D01*
X55064000Y-25535142D01*
X55064000Y-26284858D01*
X55210262Y-27020169D01*
X55276466Y-27180000D01*
X55210262Y-27339831D01*
X55064000Y-28075142D01*
X55064000Y-28824858D01*
X55210262Y-29560169D01*
X55497166Y-30252817D01*
X55913686Y-30876184D01*
X56027502Y-30990000D01*
X55913686Y-31103816D01*
X55497166Y-31727183D01*
X55210262Y-32419831D01*
X55064000Y-33155142D01*
X55064000Y-33904858D01*
X55210262Y-34640169D01*
X55497166Y-35332817D01*
X55913686Y-35956184D01*
X56443816Y-36486314D01*
X57067183Y-36902834D01*
X57759831Y-37189738D01*
X58495142Y-37336000D01*
X59244858Y-37336000D01*
X59323000Y-37320457D01*
X59323001Y-47259543D01*
X59244858Y-47244000D01*
X58495142Y-47244000D01*
X57759831Y-47390262D01*
X57067183Y-47677166D01*
X56443816Y-48093686D01*
X55913686Y-48623816D01*
X55497166Y-49247183D01*
X55210262Y-49939831D01*
X55064000Y-50675142D01*
X55064000Y-51424858D01*
X55210262Y-52160169D01*
X55276466Y-52320000D01*
X55210262Y-52479831D01*
X55064000Y-53215142D01*
X55064000Y-53964858D01*
X55210262Y-54700169D01*
X55489065Y-55373260D01*
X54516569Y-55373260D01*
X53332896Y-55608707D01*
X52384278Y-56001637D01*
X52245414Y-55887674D01*
X51702181Y-55597310D01*
X51112739Y-55418505D01*
X50499740Y-55358130D01*
X47017202Y-55358130D01*
X47289738Y-54700169D01*
X47436000Y-53964858D01*
X47436000Y-53215142D01*
X47289738Y-52479831D01*
X47223534Y-52320000D01*
X47289738Y-52160169D01*
X47436000Y-51424858D01*
X47436000Y-50675142D01*
X47289738Y-49939831D01*
X47002834Y-49247183D01*
X46586314Y-48623816D01*
X46056184Y-48093686D01*
X45432817Y-47677166D01*
X44740169Y-47390262D01*
X44004858Y-47244000D01*
X43255142Y-47244000D01*
X42519831Y-47390262D01*
X41827183Y-47677166D01*
X41203816Y-48093686D01*
X40673686Y-48623816D01*
X40257166Y-49247183D01*
X40099371Y-49628134D01*
X39998363Y-49384278D01*
X40112326Y-49245414D01*
X40402690Y-48702181D01*
X40581495Y-48112739D01*
X40641870Y-47499740D01*
X40641870Y-42272000D01*
X52312715Y-42272000D01*
X52312715Y-33468000D01*
X41019063Y-33468000D01*
X41067285Y-33309034D01*
X41146967Y-32500000D01*
X41067285Y-31690967D01*
X40883888Y-31086386D01*
X41203816Y-31406314D01*
X41827183Y-31822834D01*
X42519831Y-32109738D01*
X43255142Y-32256000D01*
X44004858Y-32256000D01*
X44740169Y-32109738D01*
X45432817Y-31822834D01*
X46056184Y-31406314D01*
X46586314Y-30876184D01*
X47002834Y-30252817D01*
X47289738Y-29560169D01*
X47436000Y-28824858D01*
X47436000Y-28075142D01*
X47313186Y-27457711D01*
X47390755Y-27201999D01*
X47451130Y-26589000D01*
X47451130Y-25231000D01*
X47390755Y-24618001D01*
X47211950Y-24028559D01*
X46921586Y-23485326D01*
X46530821Y-23009179D01*
X46054674Y-22618414D01*
X45511441Y-22328050D01*
X44921999Y-22149245D01*
X44309000Y-22088870D01*
X42951000Y-22088870D01*
X42338001Y-22149245D01*
X41748559Y-22328050D01*
X41205326Y-22618414D01*
X40777000Y-22969933D01*
X40777000Y-21177000D01*
X59323000Y-21177000D01*
X59323000Y-22119543D01*
G37*
X59323000Y-22119543D02*
X59244858Y-22104000D01*
X58495142Y-22104000D01*
X57759831Y-22250262D01*
X57067183Y-22537166D01*
X56443816Y-22953686D01*
X55913686Y-23483816D01*
X55497166Y-24107183D01*
X55210262Y-24799831D01*
X55064000Y-25535142D01*
X55064000Y-26284858D01*
X55210262Y-27020169D01*
X55276466Y-27180000D01*
X55210262Y-27339831D01*
X55064000Y-28075142D01*
X55064000Y-28824858D01*
X55210262Y-29560169D01*
X55497166Y-30252817D01*
X55913686Y-30876184D01*
X56027502Y-30990000D01*
X55913686Y-31103816D01*
X55497166Y-31727183D01*
X55210262Y-32419831D01*
X55064000Y-33155142D01*
X55064000Y-33904858D01*
X55210262Y-34640169D01*
X55497166Y-35332817D01*
X55913686Y-35956184D01*
X56443816Y-36486314D01*
X57067183Y-36902834D01*
X57759831Y-37189738D01*
X58495142Y-37336000D01*
X59244858Y-37336000D01*
X59323000Y-37320457D01*
X59323001Y-47259543D01*
X59244858Y-47244000D01*
X58495142Y-47244000D01*
X57759831Y-47390262D01*
X57067183Y-47677166D01*
X56443816Y-48093686D01*
X55913686Y-48623816D01*
X55497166Y-49247183D01*
X55210262Y-49939831D01*
X55064000Y-50675142D01*
X55064000Y-51424858D01*
X55210262Y-52160169D01*
X55276466Y-52320000D01*
X55210262Y-52479831D01*
X55064000Y-53215142D01*
X55064000Y-53964858D01*
X55210262Y-54700169D01*
X55489065Y-55373260D01*
X54516569Y-55373260D01*
X53332896Y-55608707D01*
X52384278Y-56001637D01*
X52245414Y-55887674D01*
X51702181Y-55597310D01*
X51112739Y-55418505D01*
X50499740Y-55358130D01*
X47017202Y-55358130D01*
X47289738Y-54700169D01*
X47436000Y-53964858D01*
X47436000Y-53215142D01*
X47289738Y-52479831D01*
X47223534Y-52320000D01*
X47289738Y-52160169D01*
X47436000Y-51424858D01*
X47436000Y-50675142D01*
X47289738Y-49939831D01*
X47002834Y-49247183D01*
X46586314Y-48623816D01*
X46056184Y-48093686D01*
X45432817Y-47677166D01*
X44740169Y-47390262D01*
X44004858Y-47244000D01*
X43255142Y-47244000D01*
X42519831Y-47390262D01*
X41827183Y-47677166D01*
X41203816Y-48093686D01*
X40673686Y-48623816D01*
X40257166Y-49247183D01*
X40099371Y-49628134D01*
X39998363Y-49384278D01*
X40112326Y-49245414D01*
X40402690Y-48702181D01*
X40581495Y-48112739D01*
X40641870Y-47499740D01*
X40641870Y-42272000D01*
X52312715Y-42272000D01*
X52312715Y-33468000D01*
X41019063Y-33468000D01*
X41067285Y-33309034D01*
X41146967Y-32500000D01*
X41067285Y-31690967D01*
X40883888Y-31086386D01*
X41203816Y-31406314D01*
X41827183Y-31822834D01*
X42519831Y-32109738D01*
X43255142Y-32256000D01*
X44004858Y-32256000D01*
X44740169Y-32109738D01*
X45432817Y-31822834D01*
X46056184Y-31406314D01*
X46586314Y-30876184D01*
X47002834Y-30252817D01*
X47289738Y-29560169D01*
X47436000Y-28824858D01*
X47436000Y-28075142D01*
X47313186Y-27457711D01*
X47390755Y-27201999D01*
X47451130Y-26589000D01*
X47451130Y-25231000D01*
X47390755Y-24618001D01*
X47211950Y-24028559D01*
X46921586Y-23485326D01*
X46530821Y-23009179D01*
X46054674Y-22618414D01*
X45511441Y-22328050D01*
X44921999Y-22149245D01*
X44309000Y-22088870D01*
X42951000Y-22088870D01*
X42338001Y-22149245D01*
X41748559Y-22328050D01*
X41205326Y-22618414D01*
X40777000Y-22969933D01*
X40777000Y-21177000D01*
X59323000Y-21177000D01*
X59323000Y-22119543D01*
G36*
X38687286Y-38592792D02*
G01*
X38112739Y-38418505D01*
X37499740Y-38358130D01*
X36913534Y-38358130D01*
X37432349Y-37932349D01*
X37561588Y-37774871D01*
X38687286Y-36649173D01*
X38687286Y-38592792D01*
G37*
X38687286Y-38592792D02*
X38112739Y-38418505D01*
X37499740Y-38358130D01*
X36913534Y-38358130D01*
X37432349Y-37932349D01*
X37561588Y-37774871D01*
X38687286Y-36649173D01*
X38687286Y-38592792D01*
G36*
X28223000Y-21337513D02*
G01*
X27927000Y-21396391D01*
X27927000Y-21177000D01*
X28223000Y-21177000D01*
X28223000Y-21337513D01*
G37*
X28223000Y-21337513D02*
X27927000Y-21396391D01*
X27927000Y-21177000D01*
X28223000Y-21177000D01*
X28223000Y-21337513D01*
G36*
X96507166Y-55392817D02*
G01*
X96923686Y-56016184D01*
X97453816Y-56546314D01*
X98039737Y-56937813D01*
X97847310Y-57297819D01*
X97668505Y-57887261D01*
X97635930Y-58218000D01*
X91497917Y-58218000D01*
X92537104Y-58011293D01*
X93652100Y-57549447D01*
X94655569Y-56878950D01*
X95508950Y-56025569D01*
X96179447Y-55022100D01*
X96266529Y-54811866D01*
X96507166Y-55392817D01*
G37*
X96507166Y-55392817D02*
X96923686Y-56016184D01*
X97453816Y-56546314D01*
X98039737Y-56937813D01*
X97847310Y-57297819D01*
X97668505Y-57887261D01*
X97635930Y-58218000D01*
X91497917Y-58218000D01*
X92537104Y-58011293D01*
X93652100Y-57549447D01*
X94655569Y-56878950D01*
X95508950Y-56025569D01*
X96179447Y-55022100D01*
X96266529Y-54811866D01*
X96507166Y-55392817D01*
G36*
X86844431Y-56878950D02*
G01*
X87847900Y-57549447D01*
X88962896Y-58011293D01*
X90002083Y-58218000D01*
X84177000Y-58218000D01*
X84177000Y-56348428D01*
X86313909Y-56348428D01*
X86844431Y-56878950D01*
G37*
X86844431Y-56878950D02*
X87847900Y-57549447D01*
X88962896Y-58011293D01*
X90002083Y-58218000D01*
X84177000Y-58218000D01*
X84177000Y-56348428D01*
X86313909Y-56348428D01*
X86844431Y-56878950D01*
G36*
X115573000Y-22119543D02*
G01*
X115494858Y-22104000D01*
X114745142Y-22104000D01*
X114009831Y-22250262D01*
X113317183Y-22537166D01*
X112693816Y-22953686D01*
X112163686Y-23483816D01*
X111747166Y-24107183D01*
X111460262Y-24799831D01*
X111314000Y-25535142D01*
X111314000Y-26284858D01*
X111460262Y-27020169D01*
X111526466Y-27180000D01*
X111460262Y-27339831D01*
X111314000Y-28075142D01*
X111314000Y-28824858D01*
X111460262Y-29560169D01*
X111747166Y-30252817D01*
X112163686Y-30876184D01*
X112277502Y-30990000D01*
X112163686Y-31103816D01*
X111747166Y-31727183D01*
X111460262Y-32419831D01*
X111314000Y-33155142D01*
X111314000Y-33904858D01*
X111460262Y-34640169D01*
X111747166Y-35332817D01*
X112163686Y-35956184D01*
X112693816Y-36486314D01*
X113317183Y-36902834D01*
X114009831Y-37189738D01*
X114745142Y-37336000D01*
X115494858Y-37336000D01*
X115573000Y-37320457D01*
X115573001Y-47259543D01*
X115494858Y-47244000D01*
X114745142Y-47244000D01*
X114009831Y-47390262D01*
X113317183Y-47677166D01*
X112693816Y-48093686D01*
X112163686Y-48623816D01*
X111747166Y-49247183D01*
X111460262Y-49939831D01*
X111314000Y-50675142D01*
X111314000Y-51424858D01*
X111460262Y-52160169D01*
X111526466Y-52320000D01*
X111460262Y-52479831D01*
X111314000Y-53215142D01*
X111314000Y-53964858D01*
X111460262Y-54700169D01*
X111739065Y-55373260D01*
X110766569Y-55373260D01*
X109582896Y-55608707D01*
X108634278Y-56001637D01*
X108495414Y-55887674D01*
X107952181Y-55597310D01*
X107362739Y-55418505D01*
X106749740Y-55358130D01*
X103267202Y-55358130D01*
X103539738Y-54700169D01*
X103686000Y-53964858D01*
X103686000Y-53215142D01*
X103539738Y-52479831D01*
X103473534Y-52320000D01*
X103539738Y-52160169D01*
X103686000Y-51424858D01*
X103686000Y-50675142D01*
X103539738Y-49939831D01*
X103252834Y-49247183D01*
X102836314Y-48623816D01*
X102306184Y-48093686D01*
X101682817Y-47677166D01*
X100990169Y-47390262D01*
X100254858Y-47244000D01*
X99505142Y-47244000D01*
X98769831Y-47390262D01*
X98077183Y-47677166D01*
X97453816Y-48093686D01*
X96923686Y-48623816D01*
X96507166Y-49247183D01*
X96349371Y-49628134D01*
X96248363Y-49384278D01*
X96362326Y-49245414D01*
X96652690Y-48702181D01*
X96831495Y-48112739D01*
X96891870Y-47499740D01*
X96891870Y-42272000D01*
X108562715Y-42272000D01*
X108562715Y-33468000D01*
X97269063Y-33468000D01*
X97317285Y-33309034D01*
X97396967Y-32500000D01*
X97317285Y-31690967D01*
X97133888Y-31086386D01*
X97453816Y-31406314D01*
X98077183Y-31822834D01*
X98769831Y-32109738D01*
X99505142Y-32256000D01*
X100254858Y-32256000D01*
X100990169Y-32109738D01*
X101682817Y-31822834D01*
X102306184Y-31406314D01*
X102836314Y-30876184D01*
X103252834Y-30252817D01*
X103539738Y-29560169D01*
X103686000Y-28824858D01*
X103686000Y-28075142D01*
X103563186Y-27457711D01*
X103640755Y-27201999D01*
X103701130Y-26589000D01*
X103701130Y-25231000D01*
X103640755Y-24618001D01*
X103461950Y-24028559D01*
X103171586Y-23485326D01*
X102780821Y-23009179D01*
X102304674Y-22618414D01*
X101761441Y-22328050D01*
X101171999Y-22149245D01*
X100559000Y-22088870D01*
X99201000Y-22088870D01*
X98588001Y-22149245D01*
X97998559Y-22328050D01*
X97455326Y-22618414D01*
X97027000Y-22969933D01*
X97027000Y-20927000D01*
X115573000Y-20927000D01*
X115573000Y-22119543D01*
G37*
X115573000Y-22119543D02*
X115494858Y-22104000D01*
X114745142Y-22104000D01*
X114009831Y-22250262D01*
X113317183Y-22537166D01*
X112693816Y-22953686D01*
X112163686Y-23483816D01*
X111747166Y-24107183D01*
X111460262Y-24799831D01*
X111314000Y-25535142D01*
X111314000Y-26284858D01*
X111460262Y-27020169D01*
X111526466Y-27180000D01*
X111460262Y-27339831D01*
X111314000Y-28075142D01*
X111314000Y-28824858D01*
X111460262Y-29560169D01*
X111747166Y-30252817D01*
X112163686Y-30876184D01*
X112277502Y-30990000D01*
X112163686Y-31103816D01*
X111747166Y-31727183D01*
X111460262Y-32419831D01*
X111314000Y-33155142D01*
X111314000Y-33904858D01*
X111460262Y-34640169D01*
X111747166Y-35332817D01*
X112163686Y-35956184D01*
X112693816Y-36486314D01*
X113317183Y-36902834D01*
X114009831Y-37189738D01*
X114745142Y-37336000D01*
X115494858Y-37336000D01*
X115573000Y-37320457D01*
X115573001Y-47259543D01*
X115494858Y-47244000D01*
X114745142Y-47244000D01*
X114009831Y-47390262D01*
X113317183Y-47677166D01*
X112693816Y-48093686D01*
X112163686Y-48623816D01*
X111747166Y-49247183D01*
X111460262Y-49939831D01*
X111314000Y-50675142D01*
X111314000Y-51424858D01*
X111460262Y-52160169D01*
X111526466Y-52320000D01*
X111460262Y-52479831D01*
X111314000Y-53215142D01*
X111314000Y-53964858D01*
X111460262Y-54700169D01*
X111739065Y-55373260D01*
X110766569Y-55373260D01*
X109582896Y-55608707D01*
X108634278Y-56001637D01*
X108495414Y-55887674D01*
X107952181Y-55597310D01*
X107362739Y-55418505D01*
X106749740Y-55358130D01*
X103267202Y-55358130D01*
X103539738Y-54700169D01*
X103686000Y-53964858D01*
X103686000Y-53215142D01*
X103539738Y-52479831D01*
X103473534Y-52320000D01*
X103539738Y-52160169D01*
X103686000Y-51424858D01*
X103686000Y-50675142D01*
X103539738Y-49939831D01*
X103252834Y-49247183D01*
X102836314Y-48623816D01*
X102306184Y-48093686D01*
X101682817Y-47677166D01*
X100990169Y-47390262D01*
X100254858Y-47244000D01*
X99505142Y-47244000D01*
X98769831Y-47390262D01*
X98077183Y-47677166D01*
X97453816Y-48093686D01*
X96923686Y-48623816D01*
X96507166Y-49247183D01*
X96349371Y-49628134D01*
X96248363Y-49384278D01*
X96362326Y-49245414D01*
X96652690Y-48702181D01*
X96831495Y-48112739D01*
X96891870Y-47499740D01*
X96891870Y-42272000D01*
X108562715Y-42272000D01*
X108562715Y-33468000D01*
X97269063Y-33468000D01*
X97317285Y-33309034D01*
X97396967Y-32500000D01*
X97317285Y-31690967D01*
X97133888Y-31086386D01*
X97453816Y-31406314D01*
X98077183Y-31822834D01*
X98769831Y-32109738D01*
X99505142Y-32256000D01*
X100254858Y-32256000D01*
X100990169Y-32109738D01*
X101682817Y-31822834D01*
X102306184Y-31406314D01*
X102836314Y-30876184D01*
X103252834Y-30252817D01*
X103539738Y-29560169D01*
X103686000Y-28824858D01*
X103686000Y-28075142D01*
X103563186Y-27457711D01*
X103640755Y-27201999D01*
X103701130Y-26589000D01*
X103701130Y-25231000D01*
X103640755Y-24618001D01*
X103461950Y-24028559D01*
X103171586Y-23485326D01*
X102780821Y-23009179D01*
X102304674Y-22618414D01*
X101761441Y-22328050D01*
X101171999Y-22149245D01*
X100559000Y-22088870D01*
X99201000Y-22088870D01*
X98588001Y-22149245D01*
X97998559Y-22328050D01*
X97455326Y-22618414D01*
X97027000Y-22969933D01*
X97027000Y-20927000D01*
X115573000Y-20927000D01*
X115573000Y-22119543D01*
G36*
X94937286Y-38592792D02*
G01*
X94362739Y-38418505D01*
X93749740Y-38358130D01*
X93163534Y-38358130D01*
X93682349Y-37932349D01*
X93811588Y-37774871D01*
X94937286Y-36649173D01*
X94937286Y-38592792D01*
G37*
X94937286Y-38592792D02*
X94362739Y-38418505D01*
X93749740Y-38358130D01*
X93163534Y-38358130D01*
X93682349Y-37932349D01*
X93811588Y-37774871D01*
X94937286Y-36649173D01*
X94937286Y-38592792D01*
G36*
X84473000Y-21337513D02*
G01*
X84177000Y-21396391D01*
X84177000Y-20927000D01*
X84473000Y-20927000D01*
X84473000Y-21337513D01*
G37*
X84473000Y-21337513D02*
X84177000Y-21396391D01*
X84177000Y-20927000D01*
X84473000Y-20927000D01*
X84473000Y-21337513D01*
G36*
X205007166Y-55392817D02*
G01*
X205423686Y-56016184D01*
X205953816Y-56546314D01*
X206539737Y-56937813D01*
X206347310Y-57297819D01*
X206168505Y-57887261D01*
X206135930Y-58218000D01*
X199997917Y-58218000D01*
X201037104Y-58011293D01*
X202152100Y-57549447D01*
X203155569Y-56878950D01*
X204008950Y-56025569D01*
X204679447Y-55022100D01*
X204766529Y-54811866D01*
X205007166Y-55392817D01*
G37*
X205007166Y-55392817D02*
X205423686Y-56016184D01*
X205953816Y-56546314D01*
X206539737Y-56937813D01*
X206347310Y-57297819D01*
X206168505Y-57887261D01*
X206135930Y-58218000D01*
X199997917Y-58218000D01*
X201037104Y-58011293D01*
X202152100Y-57549447D01*
X203155569Y-56878950D01*
X204008950Y-56025569D01*
X204679447Y-55022100D01*
X204766529Y-54811866D01*
X205007166Y-55392817D01*
G36*
X195344431Y-56878950D02*
G01*
X196347900Y-57549447D01*
X197462896Y-58011293D01*
X198502083Y-58218000D01*
X192677000Y-58218000D01*
X192677000Y-56348428D01*
X194813909Y-56348428D01*
X195344431Y-56878950D01*
G37*
X195344431Y-56878950D02*
X196347900Y-57549447D01*
X197462896Y-58011293D01*
X198502083Y-58218000D01*
X192677000Y-58218000D01*
X192677000Y-56348428D01*
X194813909Y-56348428D01*
X195344431Y-56878950D01*
G36*
X224073000Y-22119543D02*
G01*
X223994858Y-22104000D01*
X223245142Y-22104000D01*
X222509831Y-22250262D01*
X221817183Y-22537166D01*
X221193816Y-22953686D01*
X220663686Y-23483816D01*
X220247166Y-24107183D01*
X219960262Y-24799831D01*
X219814000Y-25535142D01*
X219814000Y-26284858D01*
X219960262Y-27020169D01*
X220026466Y-27180000D01*
X219960262Y-27339831D01*
X219814000Y-28075142D01*
X219814000Y-28824858D01*
X219960262Y-29560169D01*
X220247166Y-30252817D01*
X220663686Y-30876184D01*
X220777502Y-30990000D01*
X220663686Y-31103816D01*
X220247166Y-31727183D01*
X219960262Y-32419831D01*
X219814000Y-33155142D01*
X219814000Y-33904858D01*
X219960262Y-34640169D01*
X220247166Y-35332817D01*
X220663686Y-35956184D01*
X221193816Y-36486314D01*
X221817183Y-36902834D01*
X222509831Y-37189738D01*
X223245142Y-37336000D01*
X223994858Y-37336000D01*
X224073000Y-37320457D01*
X224073001Y-47259543D01*
X223994858Y-47244000D01*
X223245142Y-47244000D01*
X222509831Y-47390262D01*
X221817183Y-47677166D01*
X221193816Y-48093686D01*
X220663686Y-48623816D01*
X220247166Y-49247183D01*
X219960262Y-49939831D01*
X219814000Y-50675142D01*
X219814000Y-51424858D01*
X219960262Y-52160169D01*
X220026466Y-52320000D01*
X219960262Y-52479831D01*
X219814000Y-53215142D01*
X219814000Y-53964858D01*
X219960262Y-54700169D01*
X220239065Y-55373260D01*
X219266569Y-55373260D01*
X218082896Y-55608707D01*
X217134278Y-56001637D01*
X216995414Y-55887674D01*
X216452181Y-55597310D01*
X215862739Y-55418505D01*
X215249740Y-55358130D01*
X211767202Y-55358130D01*
X212039738Y-54700169D01*
X212186000Y-53964858D01*
X212186000Y-53215142D01*
X212039738Y-52479831D01*
X211973534Y-52320000D01*
X212039738Y-52160169D01*
X212186000Y-51424858D01*
X212186000Y-50675142D01*
X212039738Y-49939831D01*
X211752834Y-49247183D01*
X211336314Y-48623816D01*
X210806184Y-48093686D01*
X210182817Y-47677166D01*
X209490169Y-47390262D01*
X208754858Y-47244000D01*
X208005142Y-47244000D01*
X207269831Y-47390262D01*
X206577183Y-47677166D01*
X205953816Y-48093686D01*
X205423686Y-48623816D01*
X205007166Y-49247183D01*
X204849371Y-49628134D01*
X204748363Y-49384278D01*
X204862326Y-49245414D01*
X205152690Y-48702181D01*
X205331495Y-48112739D01*
X205391870Y-47499740D01*
X205391870Y-42272000D01*
X217062715Y-42272000D01*
X217062715Y-33468000D01*
X205769063Y-33468000D01*
X205817285Y-33309034D01*
X205896967Y-32500000D01*
X205817285Y-31690967D01*
X205633888Y-31086386D01*
X205953816Y-31406314D01*
X206577183Y-31822834D01*
X207269831Y-32109738D01*
X208005142Y-32256000D01*
X208754858Y-32256000D01*
X209490169Y-32109738D01*
X210182817Y-31822834D01*
X210806184Y-31406314D01*
X211336314Y-30876184D01*
X211752834Y-30252817D01*
X212039738Y-29560169D01*
X212186000Y-28824858D01*
X212186000Y-28075142D01*
X212063186Y-27457711D01*
X212140755Y-27201999D01*
X212201130Y-26589000D01*
X212201130Y-25231000D01*
X212140755Y-24618001D01*
X211961950Y-24028559D01*
X211671586Y-23485326D01*
X211280821Y-23009179D01*
X210804674Y-22618414D01*
X210261441Y-22328050D01*
X209671999Y-22149245D01*
X209059000Y-22088870D01*
X207701000Y-22088870D01*
X207088001Y-22149245D01*
X206498559Y-22328050D01*
X205955326Y-22618414D01*
X205527000Y-22969933D01*
X205527000Y-21177000D01*
X224073000Y-21177000D01*
X224073000Y-22119543D01*
G37*
X224073000Y-22119543D02*
X223994858Y-22104000D01*
X223245142Y-22104000D01*
X222509831Y-22250262D01*
X221817183Y-22537166D01*
X221193816Y-22953686D01*
X220663686Y-23483816D01*
X220247166Y-24107183D01*
X219960262Y-24799831D01*
X219814000Y-25535142D01*
X219814000Y-26284858D01*
X219960262Y-27020169D01*
X220026466Y-27180000D01*
X219960262Y-27339831D01*
X219814000Y-28075142D01*
X219814000Y-28824858D01*
X219960262Y-29560169D01*
X220247166Y-30252817D01*
X220663686Y-30876184D01*
X220777502Y-30990000D01*
X220663686Y-31103816D01*
X220247166Y-31727183D01*
X219960262Y-32419831D01*
X219814000Y-33155142D01*
X219814000Y-33904858D01*
X219960262Y-34640169D01*
X220247166Y-35332817D01*
X220663686Y-35956184D01*
X221193816Y-36486314D01*
X221817183Y-36902834D01*
X222509831Y-37189738D01*
X223245142Y-37336000D01*
X223994858Y-37336000D01*
X224073000Y-37320457D01*
X224073001Y-47259543D01*
X223994858Y-47244000D01*
X223245142Y-47244000D01*
X222509831Y-47390262D01*
X221817183Y-47677166D01*
X221193816Y-48093686D01*
X220663686Y-48623816D01*
X220247166Y-49247183D01*
X219960262Y-49939831D01*
X219814000Y-50675142D01*
X219814000Y-51424858D01*
X219960262Y-52160169D01*
X220026466Y-52320000D01*
X219960262Y-52479831D01*
X219814000Y-53215142D01*
X219814000Y-53964858D01*
X219960262Y-54700169D01*
X220239065Y-55373260D01*
X219266569Y-55373260D01*
X218082896Y-55608707D01*
X217134278Y-56001637D01*
X216995414Y-55887674D01*
X216452181Y-55597310D01*
X215862739Y-55418505D01*
X215249740Y-55358130D01*
X211767202Y-55358130D01*
X212039738Y-54700169D01*
X212186000Y-53964858D01*
X212186000Y-53215142D01*
X212039738Y-52479831D01*
X211973534Y-52320000D01*
X212039738Y-52160169D01*
X212186000Y-51424858D01*
X212186000Y-50675142D01*
X212039738Y-49939831D01*
X211752834Y-49247183D01*
X211336314Y-48623816D01*
X210806184Y-48093686D01*
X210182817Y-47677166D01*
X209490169Y-47390262D01*
X208754858Y-47244000D01*
X208005142Y-47244000D01*
X207269831Y-47390262D01*
X206577183Y-47677166D01*
X205953816Y-48093686D01*
X205423686Y-48623816D01*
X205007166Y-49247183D01*
X204849371Y-49628134D01*
X204748363Y-49384278D01*
X204862326Y-49245414D01*
X205152690Y-48702181D01*
X205331495Y-48112739D01*
X205391870Y-47499740D01*
X205391870Y-42272000D01*
X217062715Y-42272000D01*
X217062715Y-33468000D01*
X205769063Y-33468000D01*
X205817285Y-33309034D01*
X205896967Y-32500000D01*
X205817285Y-31690967D01*
X205633888Y-31086386D01*
X205953816Y-31406314D01*
X206577183Y-31822834D01*
X207269831Y-32109738D01*
X208005142Y-32256000D01*
X208754858Y-32256000D01*
X209490169Y-32109738D01*
X210182817Y-31822834D01*
X210806184Y-31406314D01*
X211336314Y-30876184D01*
X211752834Y-30252817D01*
X212039738Y-29560169D01*
X212186000Y-28824858D01*
X212186000Y-28075142D01*
X212063186Y-27457711D01*
X212140755Y-27201999D01*
X212201130Y-26589000D01*
X212201130Y-25231000D01*
X212140755Y-24618001D01*
X211961950Y-24028559D01*
X211671586Y-23485326D01*
X211280821Y-23009179D01*
X210804674Y-22618414D01*
X210261441Y-22328050D01*
X209671999Y-22149245D01*
X209059000Y-22088870D01*
X207701000Y-22088870D01*
X207088001Y-22149245D01*
X206498559Y-22328050D01*
X205955326Y-22618414D01*
X205527000Y-22969933D01*
X205527000Y-21177000D01*
X224073000Y-21177000D01*
X224073000Y-22119543D01*
G36*
X203437286Y-38592792D02*
G01*
X202862739Y-38418505D01*
X202249740Y-38358130D01*
X201663534Y-38358130D01*
X202182349Y-37932349D01*
X202311588Y-37774871D01*
X203437286Y-36649173D01*
X203437286Y-38592792D01*
G37*
X203437286Y-38592792D02*
X202862739Y-38418505D01*
X202249740Y-38358130D01*
X201663534Y-38358130D01*
X202182349Y-37932349D01*
X202311588Y-37774871D01*
X203437286Y-36649173D01*
X203437286Y-38592792D01*
G36*
X192973000Y-21337513D02*
G01*
X192677000Y-21396391D01*
X192677000Y-21177000D01*
X192973000Y-21177000D01*
X192973000Y-21337513D01*
G37*
X192973000Y-21337513D02*
X192677000Y-21396391D01*
X192677000Y-21177000D01*
X192973000Y-21177000D01*
X192973000Y-21337513D01*
G36*
X148757166Y-55392817D02*
G01*
X149173686Y-56016184D01*
X149703816Y-56546314D01*
X150289737Y-56937813D01*
X150097310Y-57297819D01*
X149918505Y-57887261D01*
X149885930Y-58218000D01*
X143747917Y-58218000D01*
X144787104Y-58011293D01*
X145902100Y-57549447D01*
X146905569Y-56878950D01*
X147758950Y-56025569D01*
X148429447Y-55022100D01*
X148516529Y-54811866D01*
X148757166Y-55392817D01*
G37*
X148757166Y-55392817D02*
X149173686Y-56016184D01*
X149703816Y-56546314D01*
X150289737Y-56937813D01*
X150097310Y-57297819D01*
X149918505Y-57887261D01*
X149885930Y-58218000D01*
X143747917Y-58218000D01*
X144787104Y-58011293D01*
X145902100Y-57549447D01*
X146905569Y-56878950D01*
X147758950Y-56025569D01*
X148429447Y-55022100D01*
X148516529Y-54811866D01*
X148757166Y-55392817D01*
G36*
X139094431Y-56878950D02*
G01*
X140097900Y-57549447D01*
X141212896Y-58011293D01*
X142252083Y-58218000D01*
X136427000Y-58218000D01*
X136427000Y-56348428D01*
X138563909Y-56348428D01*
X139094431Y-56878950D01*
G37*
X139094431Y-56878950D02*
X140097900Y-57549447D01*
X141212896Y-58011293D01*
X142252083Y-58218000D01*
X136427000Y-58218000D01*
X136427000Y-56348428D01*
X138563909Y-56348428D01*
X139094431Y-56878950D01*
G36*
X167823000Y-22119543D02*
G01*
X167744858Y-22104000D01*
X166995142Y-22104000D01*
X166259831Y-22250262D01*
X165567183Y-22537166D01*
X164943816Y-22953686D01*
X164413686Y-23483816D01*
X163997166Y-24107183D01*
X163710262Y-24799831D01*
X163564000Y-25535142D01*
X163564000Y-26284858D01*
X163710262Y-27020169D01*
X163776466Y-27180000D01*
X163710262Y-27339831D01*
X163564000Y-28075142D01*
X163564000Y-28824858D01*
X163710262Y-29560169D01*
X163997166Y-30252817D01*
X164413686Y-30876184D01*
X164527502Y-30990000D01*
X164413686Y-31103816D01*
X163997166Y-31727183D01*
X163710262Y-32419831D01*
X163564000Y-33155142D01*
X163564000Y-33904858D01*
X163710262Y-34640169D01*
X163997166Y-35332817D01*
X164413686Y-35956184D01*
X164943816Y-36486314D01*
X165567183Y-36902834D01*
X166259831Y-37189738D01*
X166995142Y-37336000D01*
X167744858Y-37336000D01*
X167823000Y-37320457D01*
X167823001Y-47259543D01*
X167744858Y-47244000D01*
X166995142Y-47244000D01*
X166259831Y-47390262D01*
X165567183Y-47677166D01*
X164943816Y-48093686D01*
X164413686Y-48623816D01*
X163997166Y-49247183D01*
X163710262Y-49939831D01*
X163564000Y-50675142D01*
X163564000Y-51424858D01*
X163710262Y-52160169D01*
X163776466Y-52320000D01*
X163710262Y-52479831D01*
X163564000Y-53215142D01*
X163564000Y-53964858D01*
X163710262Y-54700169D01*
X163989065Y-55373260D01*
X163016569Y-55373260D01*
X161832896Y-55608707D01*
X160884278Y-56001637D01*
X160745414Y-55887674D01*
X160202181Y-55597310D01*
X159612739Y-55418505D01*
X158999740Y-55358130D01*
X155517202Y-55358130D01*
X155789738Y-54700169D01*
X155936000Y-53964858D01*
X155936000Y-53215142D01*
X155789738Y-52479831D01*
X155723534Y-52320000D01*
X155789738Y-52160169D01*
X155936000Y-51424858D01*
X155936000Y-50675142D01*
X155789738Y-49939831D01*
X155502834Y-49247183D01*
X155086314Y-48623816D01*
X154556184Y-48093686D01*
X153932817Y-47677166D01*
X153240169Y-47390262D01*
X152504858Y-47244000D01*
X151755142Y-47244000D01*
X151019831Y-47390262D01*
X150327183Y-47677166D01*
X149703816Y-48093686D01*
X149173686Y-48623816D01*
X148757166Y-49247183D01*
X148599371Y-49628134D01*
X148498363Y-49384278D01*
X148612326Y-49245414D01*
X148902690Y-48702181D01*
X149081495Y-48112739D01*
X149141870Y-47499740D01*
X149141870Y-42272000D01*
X160812715Y-42272000D01*
X160812715Y-33468000D01*
X149519063Y-33468000D01*
X149567285Y-33309034D01*
X149646967Y-32500000D01*
X149567285Y-31690967D01*
X149383888Y-31086386D01*
X149703816Y-31406314D01*
X150327183Y-31822834D01*
X151019831Y-32109738D01*
X151755142Y-32256000D01*
X152504858Y-32256000D01*
X153240169Y-32109738D01*
X153932817Y-31822834D01*
X154556184Y-31406314D01*
X155086314Y-30876184D01*
X155502834Y-30252817D01*
X155789738Y-29560169D01*
X155936000Y-28824858D01*
X155936000Y-28075142D01*
X155813186Y-27457711D01*
X155890755Y-27201999D01*
X155951130Y-26589000D01*
X155951130Y-25231000D01*
X155890755Y-24618001D01*
X155711950Y-24028559D01*
X155421586Y-23485326D01*
X155030821Y-23009179D01*
X154554674Y-22618414D01*
X154011441Y-22328050D01*
X153421999Y-22149245D01*
X152809000Y-22088870D01*
X151451000Y-22088870D01*
X150838001Y-22149245D01*
X150248559Y-22328050D01*
X149705326Y-22618414D01*
X149277000Y-22969933D01*
X149277000Y-21177000D01*
X167823000Y-21177000D01*
X167823000Y-22119543D01*
G37*
X167823000Y-22119543D02*
X167744858Y-22104000D01*
X166995142Y-22104000D01*
X166259831Y-22250262D01*
X165567183Y-22537166D01*
X164943816Y-22953686D01*
X164413686Y-23483816D01*
X163997166Y-24107183D01*
X163710262Y-24799831D01*
X163564000Y-25535142D01*
X163564000Y-26284858D01*
X163710262Y-27020169D01*
X163776466Y-27180000D01*
X163710262Y-27339831D01*
X163564000Y-28075142D01*
X163564000Y-28824858D01*
X163710262Y-29560169D01*
X163997166Y-30252817D01*
X164413686Y-30876184D01*
X164527502Y-30990000D01*
X164413686Y-31103816D01*
X163997166Y-31727183D01*
X163710262Y-32419831D01*
X163564000Y-33155142D01*
X163564000Y-33904858D01*
X163710262Y-34640169D01*
X163997166Y-35332817D01*
X164413686Y-35956184D01*
X164943816Y-36486314D01*
X165567183Y-36902834D01*
X166259831Y-37189738D01*
X166995142Y-37336000D01*
X167744858Y-37336000D01*
X167823000Y-37320457D01*
X167823001Y-47259543D01*
X167744858Y-47244000D01*
X166995142Y-47244000D01*
X166259831Y-47390262D01*
X165567183Y-47677166D01*
X164943816Y-48093686D01*
X164413686Y-48623816D01*
X163997166Y-49247183D01*
X163710262Y-49939831D01*
X163564000Y-50675142D01*
X163564000Y-51424858D01*
X163710262Y-52160169D01*
X163776466Y-52320000D01*
X163710262Y-52479831D01*
X163564000Y-53215142D01*
X163564000Y-53964858D01*
X163710262Y-54700169D01*
X163989065Y-55373260D01*
X163016569Y-55373260D01*
X161832896Y-55608707D01*
X160884278Y-56001637D01*
X160745414Y-55887674D01*
X160202181Y-55597310D01*
X159612739Y-55418505D01*
X158999740Y-55358130D01*
X155517202Y-55358130D01*
X155789738Y-54700169D01*
X155936000Y-53964858D01*
X155936000Y-53215142D01*
X155789738Y-52479831D01*
X155723534Y-52320000D01*
X155789738Y-52160169D01*
X155936000Y-51424858D01*
X155936000Y-50675142D01*
X155789738Y-49939831D01*
X155502834Y-49247183D01*
X155086314Y-48623816D01*
X154556184Y-48093686D01*
X153932817Y-47677166D01*
X153240169Y-47390262D01*
X152504858Y-47244000D01*
X151755142Y-47244000D01*
X151019831Y-47390262D01*
X150327183Y-47677166D01*
X149703816Y-48093686D01*
X149173686Y-48623816D01*
X148757166Y-49247183D01*
X148599371Y-49628134D01*
X148498363Y-49384278D01*
X148612326Y-49245414D01*
X148902690Y-48702181D01*
X149081495Y-48112739D01*
X149141870Y-47499740D01*
X149141870Y-42272000D01*
X160812715Y-42272000D01*
X160812715Y-33468000D01*
X149519063Y-33468000D01*
X149567285Y-33309034D01*
X149646967Y-32500000D01*
X149567285Y-31690967D01*
X149383888Y-31086386D01*
X149703816Y-31406314D01*
X150327183Y-31822834D01*
X151019831Y-32109738D01*
X151755142Y-32256000D01*
X152504858Y-32256000D01*
X153240169Y-32109738D01*
X153932817Y-31822834D01*
X154556184Y-31406314D01*
X155086314Y-30876184D01*
X155502834Y-30252817D01*
X155789738Y-29560169D01*
X155936000Y-28824858D01*
X155936000Y-28075142D01*
X155813186Y-27457711D01*
X155890755Y-27201999D01*
X155951130Y-26589000D01*
X155951130Y-25231000D01*
X155890755Y-24618001D01*
X155711950Y-24028559D01*
X155421586Y-23485326D01*
X155030821Y-23009179D01*
X154554674Y-22618414D01*
X154011441Y-22328050D01*
X153421999Y-22149245D01*
X152809000Y-22088870D01*
X151451000Y-22088870D01*
X150838001Y-22149245D01*
X150248559Y-22328050D01*
X149705326Y-22618414D01*
X149277000Y-22969933D01*
X149277000Y-21177000D01*
X167823000Y-21177000D01*
X167823000Y-22119543D01*
G36*
X147187286Y-38592792D02*
G01*
X146612739Y-38418505D01*
X145999740Y-38358130D01*
X145413534Y-38358130D01*
X145932349Y-37932349D01*
X146061588Y-37774871D01*
X147187286Y-36649173D01*
X147187286Y-38592792D01*
G37*
X147187286Y-38592792D02*
X146612739Y-38418505D01*
X145999740Y-38358130D01*
X145413534Y-38358130D01*
X145932349Y-37932349D01*
X146061588Y-37774871D01*
X147187286Y-36649173D01*
X147187286Y-38592792D01*
G36*
X136723000Y-21337513D02*
G01*
X136427000Y-21396391D01*
X136427000Y-21177000D01*
X136723000Y-21177000D01*
X136723000Y-21337513D01*
G37*
X136723000Y-21337513D02*
X136427000Y-21396391D01*
X136427000Y-21177000D01*
X136723000Y-21177000D01*
X136723000Y-21337513D01*
G36*
X255007166Y-55392817D02*
G01*
X255423686Y-56016184D01*
X255953816Y-56546314D01*
X256539737Y-56937813D01*
X256347310Y-57297819D01*
X256168505Y-57887261D01*
X256135930Y-58218000D01*
X249997917Y-58218000D01*
X251037104Y-58011293D01*
X252152100Y-57549447D01*
X253155569Y-56878950D01*
X254008950Y-56025569D01*
X254679447Y-55022100D01*
X254766529Y-54811866D01*
X255007166Y-55392817D01*
G37*
X255007166Y-55392817D02*
X255423686Y-56016184D01*
X255953816Y-56546314D01*
X256539737Y-56937813D01*
X256347310Y-57297819D01*
X256168505Y-57887261D01*
X256135930Y-58218000D01*
X249997917Y-58218000D01*
X251037104Y-58011293D01*
X252152100Y-57549447D01*
X253155569Y-56878950D01*
X254008950Y-56025569D01*
X254679447Y-55022100D01*
X254766529Y-54811866D01*
X255007166Y-55392817D01*
G36*
X245344431Y-56878950D02*
G01*
X246347900Y-57549447D01*
X247462896Y-58011293D01*
X248502083Y-58218000D01*
X242677000Y-58218000D01*
X242677000Y-56348428D01*
X244813909Y-56348428D01*
X245344431Y-56878950D01*
G37*
X245344431Y-56878950D02*
X246347900Y-57549447D01*
X247462896Y-58011293D01*
X248502083Y-58218000D01*
X242677000Y-58218000D01*
X242677000Y-56348428D01*
X244813909Y-56348428D01*
X245344431Y-56878950D01*
G36*
X274073000Y-22119543D02*
G01*
X273994858Y-22104000D01*
X273245142Y-22104000D01*
X272509831Y-22250262D01*
X271817183Y-22537166D01*
X271193816Y-22953686D01*
X270663686Y-23483816D01*
X270247166Y-24107183D01*
X269960262Y-24799831D01*
X269814000Y-25535142D01*
X269814000Y-26284858D01*
X269960262Y-27020169D01*
X270026466Y-27180000D01*
X269960262Y-27339831D01*
X269814000Y-28075142D01*
X269814000Y-28824858D01*
X269960262Y-29560169D01*
X270247166Y-30252817D01*
X270663686Y-30876184D01*
X270777502Y-30990000D01*
X270663686Y-31103816D01*
X270247166Y-31727183D01*
X269960262Y-32419831D01*
X269814000Y-33155142D01*
X269814000Y-33904858D01*
X269960262Y-34640169D01*
X270247166Y-35332817D01*
X270663686Y-35956184D01*
X271193816Y-36486314D01*
X271817183Y-36902834D01*
X272509831Y-37189738D01*
X273245142Y-37336000D01*
X273994858Y-37336000D01*
X274073000Y-37320457D01*
X274073001Y-47259543D01*
X273994858Y-47244000D01*
X273245142Y-47244000D01*
X272509831Y-47390262D01*
X271817183Y-47677166D01*
X271193816Y-48093686D01*
X270663686Y-48623816D01*
X270247166Y-49247183D01*
X269960262Y-49939831D01*
X269814000Y-50675142D01*
X269814000Y-51424858D01*
X269960262Y-52160169D01*
X270026466Y-52320000D01*
X269960262Y-52479831D01*
X269814000Y-53215142D01*
X269814000Y-53964858D01*
X269960262Y-54700169D01*
X270239065Y-55373260D01*
X269266569Y-55373260D01*
X268082896Y-55608707D01*
X267134278Y-56001637D01*
X266995414Y-55887674D01*
X266452181Y-55597310D01*
X265862739Y-55418505D01*
X265249740Y-55358130D01*
X261767202Y-55358130D01*
X262039738Y-54700169D01*
X262186000Y-53964858D01*
X262186000Y-53215142D01*
X262039738Y-52479831D01*
X261973534Y-52320000D01*
X262039738Y-52160169D01*
X262186000Y-51424858D01*
X262186000Y-50675142D01*
X262039738Y-49939831D01*
X261752834Y-49247183D01*
X261336314Y-48623816D01*
X260806184Y-48093686D01*
X260182817Y-47677166D01*
X259490169Y-47390262D01*
X258754858Y-47244000D01*
X258005142Y-47244000D01*
X257269831Y-47390262D01*
X256577183Y-47677166D01*
X255953816Y-48093686D01*
X255423686Y-48623816D01*
X255007166Y-49247183D01*
X254849371Y-49628134D01*
X254748363Y-49384278D01*
X254862326Y-49245414D01*
X255152690Y-48702181D01*
X255331495Y-48112739D01*
X255391870Y-47499740D01*
X255391870Y-42272000D01*
X267062715Y-42272000D01*
X267062715Y-33468000D01*
X255769063Y-33468000D01*
X255817285Y-33309034D01*
X255896967Y-32500000D01*
X255817285Y-31690967D01*
X255633888Y-31086386D01*
X255953816Y-31406314D01*
X256577183Y-31822834D01*
X257269831Y-32109738D01*
X258005142Y-32256000D01*
X258754858Y-32256000D01*
X259490169Y-32109738D01*
X260182817Y-31822834D01*
X260806184Y-31406314D01*
X261336314Y-30876184D01*
X261752834Y-30252817D01*
X262039738Y-29560169D01*
X262186000Y-28824858D01*
X262186000Y-28075142D01*
X262063186Y-27457711D01*
X262140755Y-27201999D01*
X262201130Y-26589000D01*
X262201130Y-25231000D01*
X262140755Y-24618001D01*
X261961950Y-24028559D01*
X261671586Y-23485326D01*
X261280821Y-23009179D01*
X260804674Y-22618414D01*
X260261441Y-22328050D01*
X259671999Y-22149245D01*
X259059000Y-22088870D01*
X257701000Y-22088870D01*
X257088001Y-22149245D01*
X256498559Y-22328050D01*
X255955326Y-22618414D01*
X255527000Y-22969933D01*
X255527000Y-21177000D01*
X274073000Y-21177000D01*
X274073000Y-22119543D01*
G37*
X274073000Y-22119543D02*
X273994858Y-22104000D01*
X273245142Y-22104000D01*
X272509831Y-22250262D01*
X271817183Y-22537166D01*
X271193816Y-22953686D01*
X270663686Y-23483816D01*
X270247166Y-24107183D01*
X269960262Y-24799831D01*
X269814000Y-25535142D01*
X269814000Y-26284858D01*
X269960262Y-27020169D01*
X270026466Y-27180000D01*
X269960262Y-27339831D01*
X269814000Y-28075142D01*
X269814000Y-28824858D01*
X269960262Y-29560169D01*
X270247166Y-30252817D01*
X270663686Y-30876184D01*
X270777502Y-30990000D01*
X270663686Y-31103816D01*
X270247166Y-31727183D01*
X269960262Y-32419831D01*
X269814000Y-33155142D01*
X269814000Y-33904858D01*
X269960262Y-34640169D01*
X270247166Y-35332817D01*
X270663686Y-35956184D01*
X271193816Y-36486314D01*
X271817183Y-36902834D01*
X272509831Y-37189738D01*
X273245142Y-37336000D01*
X273994858Y-37336000D01*
X274073000Y-37320457D01*
X274073001Y-47259543D01*
X273994858Y-47244000D01*
X273245142Y-47244000D01*
X272509831Y-47390262D01*
X271817183Y-47677166D01*
X271193816Y-48093686D01*
X270663686Y-48623816D01*
X270247166Y-49247183D01*
X269960262Y-49939831D01*
X269814000Y-50675142D01*
X269814000Y-51424858D01*
X269960262Y-52160169D01*
X270026466Y-52320000D01*
X269960262Y-52479831D01*
X269814000Y-53215142D01*
X269814000Y-53964858D01*
X269960262Y-54700169D01*
X270239065Y-55373260D01*
X269266569Y-55373260D01*
X268082896Y-55608707D01*
X267134278Y-56001637D01*
X266995414Y-55887674D01*
X266452181Y-55597310D01*
X265862739Y-55418505D01*
X265249740Y-55358130D01*
X261767202Y-55358130D01*
X262039738Y-54700169D01*
X262186000Y-53964858D01*
X262186000Y-53215142D01*
X262039738Y-52479831D01*
X261973534Y-52320000D01*
X262039738Y-52160169D01*
X262186000Y-51424858D01*
X262186000Y-50675142D01*
X262039738Y-49939831D01*
X261752834Y-49247183D01*
X261336314Y-48623816D01*
X260806184Y-48093686D01*
X260182817Y-47677166D01*
X259490169Y-47390262D01*
X258754858Y-47244000D01*
X258005142Y-47244000D01*
X257269831Y-47390262D01*
X256577183Y-47677166D01*
X255953816Y-48093686D01*
X255423686Y-48623816D01*
X255007166Y-49247183D01*
X254849371Y-49628134D01*
X254748363Y-49384278D01*
X254862326Y-49245414D01*
X255152690Y-48702181D01*
X255331495Y-48112739D01*
X255391870Y-47499740D01*
X255391870Y-42272000D01*
X267062715Y-42272000D01*
X267062715Y-33468000D01*
X255769063Y-33468000D01*
X255817285Y-33309034D01*
X255896967Y-32500000D01*
X255817285Y-31690967D01*
X255633888Y-31086386D01*
X255953816Y-31406314D01*
X256577183Y-31822834D01*
X257269831Y-32109738D01*
X258005142Y-32256000D01*
X258754858Y-32256000D01*
X259490169Y-32109738D01*
X260182817Y-31822834D01*
X260806184Y-31406314D01*
X261336314Y-30876184D01*
X261752834Y-30252817D01*
X262039738Y-29560169D01*
X262186000Y-28824858D01*
X262186000Y-28075142D01*
X262063186Y-27457711D01*
X262140755Y-27201999D01*
X262201130Y-26589000D01*
X262201130Y-25231000D01*
X262140755Y-24618001D01*
X261961950Y-24028559D01*
X261671586Y-23485326D01*
X261280821Y-23009179D01*
X260804674Y-22618414D01*
X260261441Y-22328050D01*
X259671999Y-22149245D01*
X259059000Y-22088870D01*
X257701000Y-22088870D01*
X257088001Y-22149245D01*
X256498559Y-22328050D01*
X255955326Y-22618414D01*
X255527000Y-22969933D01*
X255527000Y-21177000D01*
X274073000Y-21177000D01*
X274073000Y-22119543D01*
G36*
X253437286Y-38592792D02*
G01*
X252862739Y-38418505D01*
X252249740Y-38358130D01*
X251663534Y-38358130D01*
X252182349Y-37932349D01*
X252311588Y-37774871D01*
X253437286Y-36649173D01*
X253437286Y-38592792D01*
G37*
X253437286Y-38592792D02*
X252862739Y-38418505D01*
X252249740Y-38358130D01*
X251663534Y-38358130D01*
X252182349Y-37932349D01*
X252311588Y-37774871D01*
X253437286Y-36649173D01*
X253437286Y-38592792D01*
G36*
X242973000Y-21337513D02*
G01*
X242677000Y-21396391D01*
X242677000Y-21177000D01*
X242973000Y-21177000D01*
X242973000Y-21337513D01*
G37*
X242973000Y-21337513D02*
X242677000Y-21396391D01*
X242677000Y-21177000D01*
X242973000Y-21177000D01*
X242973000Y-21337513D01*
G36*
X205007166Y-124142817D02*
G01*
X205423686Y-124766184D01*
X205953816Y-125296314D01*
X206539737Y-125687813D01*
X206347310Y-126047819D01*
X206168505Y-126637261D01*
X206135930Y-126968000D01*
X199997917Y-126968000D01*
X201037104Y-126761293D01*
X202152100Y-126299447D01*
X203155569Y-125628950D01*
X204008950Y-124775569D01*
X204679447Y-123772100D01*
X204766529Y-123561866D01*
X205007166Y-124142817D01*
G37*
X205007166Y-124142817D02*
X205423686Y-124766184D01*
X205953816Y-125296314D01*
X206539737Y-125687813D01*
X206347310Y-126047819D01*
X206168505Y-126637261D01*
X206135930Y-126968000D01*
X199997917Y-126968000D01*
X201037104Y-126761293D01*
X202152100Y-126299447D01*
X203155569Y-125628950D01*
X204008950Y-124775569D01*
X204679447Y-123772100D01*
X204766529Y-123561866D01*
X205007166Y-124142817D01*
G36*
X195344431Y-125628950D02*
G01*
X196347900Y-126299447D01*
X197462896Y-126761293D01*
X198502083Y-126968000D01*
X192677000Y-126968000D01*
X192677000Y-125098428D01*
X194813909Y-125098428D01*
X195344431Y-125628950D01*
G37*
X195344431Y-125628950D02*
X196347900Y-126299447D01*
X197462896Y-126761293D01*
X198502083Y-126968000D01*
X192677000Y-126968000D01*
X192677000Y-125098428D01*
X194813909Y-125098428D01*
X195344431Y-125628950D01*
G36*
X224073000Y-90869543D02*
G01*
X223994858Y-90854000D01*
X223245142Y-90854000D01*
X222509831Y-91000262D01*
X221817183Y-91287166D01*
X221193816Y-91703686D01*
X220663686Y-92233816D01*
X220247166Y-92857183D01*
X219960262Y-93549831D01*
X219814000Y-94285142D01*
X219814000Y-95034858D01*
X219960262Y-95770169D01*
X220026466Y-95930000D01*
X219960262Y-96089831D01*
X219814000Y-96825142D01*
X219814000Y-97574858D01*
X219960262Y-98310169D01*
X220247166Y-99002817D01*
X220663686Y-99626184D01*
X220777502Y-99740000D01*
X220663686Y-99853816D01*
X220247166Y-100477183D01*
X219960262Y-101169831D01*
X219814000Y-101905142D01*
X219814000Y-102654858D01*
X219960262Y-103390169D01*
X220247166Y-104082817D01*
X220663686Y-104706184D01*
X221193816Y-105236314D01*
X221817183Y-105652834D01*
X222509831Y-105939738D01*
X223245142Y-106086000D01*
X223994858Y-106086000D01*
X224073000Y-106070457D01*
X224073001Y-116009543D01*
X223994858Y-115994000D01*
X223245142Y-115994000D01*
X222509831Y-116140262D01*
X221817183Y-116427166D01*
X221193816Y-116843686D01*
X220663686Y-117373816D01*
X220247166Y-117997183D01*
X219960262Y-118689831D01*
X219814000Y-119425142D01*
X219814000Y-120174858D01*
X219960262Y-120910169D01*
X220026466Y-121070000D01*
X219960262Y-121229831D01*
X219814000Y-121965142D01*
X219814000Y-122714858D01*
X219960262Y-123450169D01*
X220239065Y-124123260D01*
X219266569Y-124123260D01*
X218082896Y-124358707D01*
X217134278Y-124751637D01*
X216995414Y-124637674D01*
X216452181Y-124347310D01*
X215862739Y-124168505D01*
X215249740Y-124108130D01*
X211767202Y-124108130D01*
X212039738Y-123450169D01*
X212186000Y-122714858D01*
X212186000Y-121965142D01*
X212039738Y-121229831D01*
X211973534Y-121070000D01*
X212039738Y-120910169D01*
X212186000Y-120174858D01*
X212186000Y-119425142D01*
X212039738Y-118689831D01*
X211752834Y-117997183D01*
X211336314Y-117373816D01*
X210806184Y-116843686D01*
X210182817Y-116427166D01*
X209490169Y-116140262D01*
X208754858Y-115994000D01*
X208005142Y-115994000D01*
X207269831Y-116140262D01*
X206577183Y-116427166D01*
X205953816Y-116843686D01*
X205423686Y-117373816D01*
X205007166Y-117997183D01*
X204849371Y-118378134D01*
X204748363Y-118134278D01*
X204862326Y-117995414D01*
X205152690Y-117452181D01*
X205331495Y-116862739D01*
X205391870Y-116249740D01*
X205391870Y-111022000D01*
X217062715Y-111022000D01*
X217062715Y-102218000D01*
X205769063Y-102218000D01*
X205817285Y-102059034D01*
X205896967Y-101250000D01*
X205817285Y-100440967D01*
X205633888Y-99836386D01*
X205953816Y-100156314D01*
X206577183Y-100572834D01*
X207269831Y-100859738D01*
X208005142Y-101006000D01*
X208754858Y-101006000D01*
X209490169Y-100859738D01*
X210182817Y-100572834D01*
X210806184Y-100156314D01*
X211336314Y-99626184D01*
X211752834Y-99002817D01*
X212039738Y-98310169D01*
X212186000Y-97574858D01*
X212186000Y-96825142D01*
X212063186Y-96207711D01*
X212140755Y-95951999D01*
X212201130Y-95339000D01*
X212201130Y-93981000D01*
X212140755Y-93368001D01*
X211961950Y-92778559D01*
X211671586Y-92235326D01*
X211280821Y-91759179D01*
X210804674Y-91368414D01*
X210261441Y-91078050D01*
X209671999Y-90899245D01*
X209059000Y-90838870D01*
X207701000Y-90838870D01*
X207088001Y-90899245D01*
X206498559Y-91078050D01*
X205955326Y-91368414D01*
X205527000Y-91719933D01*
X205527000Y-89927000D01*
X224073000Y-89927000D01*
X224073000Y-90869543D01*
G37*
X224073000Y-90869543D02*
X223994858Y-90854000D01*
X223245142Y-90854000D01*
X222509831Y-91000262D01*
X221817183Y-91287166D01*
X221193816Y-91703686D01*
X220663686Y-92233816D01*
X220247166Y-92857183D01*
X219960262Y-93549831D01*
X219814000Y-94285142D01*
X219814000Y-95034858D01*
X219960262Y-95770169D01*
X220026466Y-95930000D01*
X219960262Y-96089831D01*
X219814000Y-96825142D01*
X219814000Y-97574858D01*
X219960262Y-98310169D01*
X220247166Y-99002817D01*
X220663686Y-99626184D01*
X220777502Y-99740000D01*
X220663686Y-99853816D01*
X220247166Y-100477183D01*
X219960262Y-101169831D01*
X219814000Y-101905142D01*
X219814000Y-102654858D01*
X219960262Y-103390169D01*
X220247166Y-104082817D01*
X220663686Y-104706184D01*
X221193816Y-105236314D01*
X221817183Y-105652834D01*
X222509831Y-105939738D01*
X223245142Y-106086000D01*
X223994858Y-106086000D01*
X224073000Y-106070457D01*
X224073001Y-116009543D01*
X223994858Y-115994000D01*
X223245142Y-115994000D01*
X222509831Y-116140262D01*
X221817183Y-116427166D01*
X221193816Y-116843686D01*
X220663686Y-117373816D01*
X220247166Y-117997183D01*
X219960262Y-118689831D01*
X219814000Y-119425142D01*
X219814000Y-120174858D01*
X219960262Y-120910169D01*
X220026466Y-121070000D01*
X219960262Y-121229831D01*
X219814000Y-121965142D01*
X219814000Y-122714858D01*
X219960262Y-123450169D01*
X220239065Y-124123260D01*
X219266569Y-124123260D01*
X218082896Y-124358707D01*
X217134278Y-124751637D01*
X216995414Y-124637674D01*
X216452181Y-124347310D01*
X215862739Y-124168505D01*
X215249740Y-124108130D01*
X211767202Y-124108130D01*
X212039738Y-123450169D01*
X212186000Y-122714858D01*
X212186000Y-121965142D01*
X212039738Y-121229831D01*
X211973534Y-121070000D01*
X212039738Y-120910169D01*
X212186000Y-120174858D01*
X212186000Y-119425142D01*
X212039738Y-118689831D01*
X211752834Y-117997183D01*
X211336314Y-117373816D01*
X210806184Y-116843686D01*
X210182817Y-116427166D01*
X209490169Y-116140262D01*
X208754858Y-115994000D01*
X208005142Y-115994000D01*
X207269831Y-116140262D01*
X206577183Y-116427166D01*
X205953816Y-116843686D01*
X205423686Y-117373816D01*
X205007166Y-117997183D01*
X204849371Y-118378134D01*
X204748363Y-118134278D01*
X204862326Y-117995414D01*
X205152690Y-117452181D01*
X205331495Y-116862739D01*
X205391870Y-116249740D01*
X205391870Y-111022000D01*
X217062715Y-111022000D01*
X217062715Y-102218000D01*
X205769063Y-102218000D01*
X205817285Y-102059034D01*
X205896967Y-101250000D01*
X205817285Y-100440967D01*
X205633888Y-99836386D01*
X205953816Y-100156314D01*
X206577183Y-100572834D01*
X207269831Y-100859738D01*
X208005142Y-101006000D01*
X208754858Y-101006000D01*
X209490169Y-100859738D01*
X210182817Y-100572834D01*
X210806184Y-100156314D01*
X211336314Y-99626184D01*
X211752834Y-99002817D01*
X212039738Y-98310169D01*
X212186000Y-97574858D01*
X212186000Y-96825142D01*
X212063186Y-96207711D01*
X212140755Y-95951999D01*
X212201130Y-95339000D01*
X212201130Y-93981000D01*
X212140755Y-93368001D01*
X211961950Y-92778559D01*
X211671586Y-92235326D01*
X211280821Y-91759179D01*
X210804674Y-91368414D01*
X210261441Y-91078050D01*
X209671999Y-90899245D01*
X209059000Y-90838870D01*
X207701000Y-90838870D01*
X207088001Y-90899245D01*
X206498559Y-91078050D01*
X205955326Y-91368414D01*
X205527000Y-91719933D01*
X205527000Y-89927000D01*
X224073000Y-89927000D01*
X224073000Y-90869543D01*
G36*
X203437286Y-107342792D02*
G01*
X202862739Y-107168505D01*
X202249740Y-107108130D01*
X201663534Y-107108130D01*
X202182349Y-106682349D01*
X202311588Y-106524871D01*
X203437286Y-105399173D01*
X203437286Y-107342792D01*
G37*
X203437286Y-107342792D02*
X202862739Y-107168505D01*
X202249740Y-107108130D01*
X201663534Y-107108130D01*
X202182349Y-106682349D01*
X202311588Y-106524871D01*
X203437286Y-105399173D01*
X203437286Y-107342792D01*
G36*
X192973000Y-90087513D02*
G01*
X192677000Y-90146391D01*
X192677000Y-89927000D01*
X192973000Y-89927000D01*
X192973000Y-90087513D01*
G37*
X192973000Y-90087513D02*
X192677000Y-90146391D01*
X192677000Y-89927000D01*
X192973000Y-89927000D01*
X192973000Y-90087513D01*
G36*
X255007166Y-124142817D02*
G01*
X255423686Y-124766184D01*
X255953816Y-125296314D01*
X256539737Y-125687813D01*
X256347310Y-126047819D01*
X256168505Y-126637261D01*
X256135930Y-126968000D01*
X249997917Y-126968000D01*
X251037104Y-126761293D01*
X252152100Y-126299447D01*
X253155569Y-125628950D01*
X254008950Y-124775569D01*
X254679447Y-123772100D01*
X254766529Y-123561866D01*
X255007166Y-124142817D01*
G37*
X255007166Y-124142817D02*
X255423686Y-124766184D01*
X255953816Y-125296314D01*
X256539737Y-125687813D01*
X256347310Y-126047819D01*
X256168505Y-126637261D01*
X256135930Y-126968000D01*
X249997917Y-126968000D01*
X251037104Y-126761293D01*
X252152100Y-126299447D01*
X253155569Y-125628950D01*
X254008950Y-124775569D01*
X254679447Y-123772100D01*
X254766529Y-123561866D01*
X255007166Y-124142817D01*
G36*
X245344431Y-125628950D02*
G01*
X246347900Y-126299447D01*
X247462896Y-126761293D01*
X248502083Y-126968000D01*
X242677000Y-126968000D01*
X242677000Y-125098428D01*
X244813909Y-125098428D01*
X245344431Y-125628950D01*
G37*
X245344431Y-125628950D02*
X246347900Y-126299447D01*
X247462896Y-126761293D01*
X248502083Y-126968000D01*
X242677000Y-126968000D01*
X242677000Y-125098428D01*
X244813909Y-125098428D01*
X245344431Y-125628950D01*
G36*
X274073000Y-90869543D02*
G01*
X273994858Y-90854000D01*
X273245142Y-90854000D01*
X272509831Y-91000262D01*
X271817183Y-91287166D01*
X271193816Y-91703686D01*
X270663686Y-92233816D01*
X270247166Y-92857183D01*
X269960262Y-93549831D01*
X269814000Y-94285142D01*
X269814000Y-95034858D01*
X269960262Y-95770169D01*
X270026466Y-95930000D01*
X269960262Y-96089831D01*
X269814000Y-96825142D01*
X269814000Y-97574858D01*
X269960262Y-98310169D01*
X270247166Y-99002817D01*
X270663686Y-99626184D01*
X270777502Y-99740000D01*
X270663686Y-99853816D01*
X270247166Y-100477183D01*
X269960262Y-101169831D01*
X269814000Y-101905142D01*
X269814000Y-102654858D01*
X269960262Y-103390169D01*
X270247166Y-104082817D01*
X270663686Y-104706184D01*
X271193816Y-105236314D01*
X271817183Y-105652834D01*
X272509831Y-105939738D01*
X273245142Y-106086000D01*
X273994858Y-106086000D01*
X274073000Y-106070457D01*
X274073001Y-116009543D01*
X273994858Y-115994000D01*
X273245142Y-115994000D01*
X272509831Y-116140262D01*
X271817183Y-116427166D01*
X271193816Y-116843686D01*
X270663686Y-117373816D01*
X270247166Y-117997183D01*
X269960262Y-118689831D01*
X269814000Y-119425142D01*
X269814000Y-120174858D01*
X269960262Y-120910169D01*
X270026466Y-121070000D01*
X269960262Y-121229831D01*
X269814000Y-121965142D01*
X269814000Y-122714858D01*
X269960262Y-123450169D01*
X270239065Y-124123260D01*
X269266569Y-124123260D01*
X268082896Y-124358707D01*
X267134278Y-124751637D01*
X266995414Y-124637674D01*
X266452181Y-124347310D01*
X265862739Y-124168505D01*
X265249740Y-124108130D01*
X261767202Y-124108130D01*
X262039738Y-123450169D01*
X262186000Y-122714858D01*
X262186000Y-121965142D01*
X262039738Y-121229831D01*
X261973534Y-121070000D01*
X262039738Y-120910169D01*
X262186000Y-120174858D01*
X262186000Y-119425142D01*
X262039738Y-118689831D01*
X261752834Y-117997183D01*
X261336314Y-117373816D01*
X260806184Y-116843686D01*
X260182817Y-116427166D01*
X259490169Y-116140262D01*
X258754858Y-115994000D01*
X258005142Y-115994000D01*
X257269831Y-116140262D01*
X256577183Y-116427166D01*
X255953816Y-116843686D01*
X255423686Y-117373816D01*
X255007166Y-117997183D01*
X254849371Y-118378134D01*
X254748363Y-118134278D01*
X254862326Y-117995414D01*
X255152690Y-117452181D01*
X255331495Y-116862739D01*
X255391870Y-116249740D01*
X255391870Y-111022000D01*
X267062715Y-111022000D01*
X267062715Y-102218000D01*
X255769063Y-102218000D01*
X255817285Y-102059034D01*
X255896967Y-101250000D01*
X255817285Y-100440967D01*
X255633888Y-99836386D01*
X255953816Y-100156314D01*
X256577183Y-100572834D01*
X257269831Y-100859738D01*
X258005142Y-101006000D01*
X258754858Y-101006000D01*
X259490169Y-100859738D01*
X260182817Y-100572834D01*
X260806184Y-100156314D01*
X261336314Y-99626184D01*
X261752834Y-99002817D01*
X262039738Y-98310169D01*
X262186000Y-97574858D01*
X262186000Y-96825142D01*
X262063186Y-96207711D01*
X262140755Y-95951999D01*
X262201130Y-95339000D01*
X262201130Y-93981000D01*
X262140755Y-93368001D01*
X261961950Y-92778559D01*
X261671586Y-92235326D01*
X261280821Y-91759179D01*
X260804674Y-91368414D01*
X260261441Y-91078050D01*
X259671999Y-90899245D01*
X259059000Y-90838870D01*
X257701000Y-90838870D01*
X257088001Y-90899245D01*
X256498559Y-91078050D01*
X255955326Y-91368414D01*
X255527000Y-91719933D01*
X255527000Y-89927000D01*
X274073000Y-89927000D01*
X274073000Y-90869543D01*
G37*
X274073000Y-90869543D02*
X273994858Y-90854000D01*
X273245142Y-90854000D01*
X272509831Y-91000262D01*
X271817183Y-91287166D01*
X271193816Y-91703686D01*
X270663686Y-92233816D01*
X270247166Y-92857183D01*
X269960262Y-93549831D01*
X269814000Y-94285142D01*
X269814000Y-95034858D01*
X269960262Y-95770169D01*
X270026466Y-95930000D01*
X269960262Y-96089831D01*
X269814000Y-96825142D01*
X269814000Y-97574858D01*
X269960262Y-98310169D01*
X270247166Y-99002817D01*
X270663686Y-99626184D01*
X270777502Y-99740000D01*
X270663686Y-99853816D01*
X270247166Y-100477183D01*
X269960262Y-101169831D01*
X269814000Y-101905142D01*
X269814000Y-102654858D01*
X269960262Y-103390169D01*
X270247166Y-104082817D01*
X270663686Y-104706184D01*
X271193816Y-105236314D01*
X271817183Y-105652834D01*
X272509831Y-105939738D01*
X273245142Y-106086000D01*
X273994858Y-106086000D01*
X274073000Y-106070457D01*
X274073001Y-116009543D01*
X273994858Y-115994000D01*
X273245142Y-115994000D01*
X272509831Y-116140262D01*
X271817183Y-116427166D01*
X271193816Y-116843686D01*
X270663686Y-117373816D01*
X270247166Y-117997183D01*
X269960262Y-118689831D01*
X269814000Y-119425142D01*
X269814000Y-120174858D01*
X269960262Y-120910169D01*
X270026466Y-121070000D01*
X269960262Y-121229831D01*
X269814000Y-121965142D01*
X269814000Y-122714858D01*
X269960262Y-123450169D01*
X270239065Y-124123260D01*
X269266569Y-124123260D01*
X268082896Y-124358707D01*
X267134278Y-124751637D01*
X266995414Y-124637674D01*
X266452181Y-124347310D01*
X265862739Y-124168505D01*
X265249740Y-124108130D01*
X261767202Y-124108130D01*
X262039738Y-123450169D01*
X262186000Y-122714858D01*
X262186000Y-121965142D01*
X262039738Y-121229831D01*
X261973534Y-121070000D01*
X262039738Y-120910169D01*
X262186000Y-120174858D01*
X262186000Y-119425142D01*
X262039738Y-118689831D01*
X261752834Y-117997183D01*
X261336314Y-117373816D01*
X260806184Y-116843686D01*
X260182817Y-116427166D01*
X259490169Y-116140262D01*
X258754858Y-115994000D01*
X258005142Y-115994000D01*
X257269831Y-116140262D01*
X256577183Y-116427166D01*
X255953816Y-116843686D01*
X255423686Y-117373816D01*
X255007166Y-117997183D01*
X254849371Y-118378134D01*
X254748363Y-118134278D01*
X254862326Y-117995414D01*
X255152690Y-117452181D01*
X255331495Y-116862739D01*
X255391870Y-116249740D01*
X255391870Y-111022000D01*
X267062715Y-111022000D01*
X267062715Y-102218000D01*
X255769063Y-102218000D01*
X255817285Y-102059034D01*
X255896967Y-101250000D01*
X255817285Y-100440967D01*
X255633888Y-99836386D01*
X255953816Y-100156314D01*
X256577183Y-100572834D01*
X257269831Y-100859738D01*
X258005142Y-101006000D01*
X258754858Y-101006000D01*
X259490169Y-100859738D01*
X260182817Y-100572834D01*
X260806184Y-100156314D01*
X261336314Y-99626184D01*
X261752834Y-99002817D01*
X262039738Y-98310169D01*
X262186000Y-97574858D01*
X262186000Y-96825142D01*
X262063186Y-96207711D01*
X262140755Y-95951999D01*
X262201130Y-95339000D01*
X262201130Y-93981000D01*
X262140755Y-93368001D01*
X261961950Y-92778559D01*
X261671586Y-92235326D01*
X261280821Y-91759179D01*
X260804674Y-91368414D01*
X260261441Y-91078050D01*
X259671999Y-90899245D01*
X259059000Y-90838870D01*
X257701000Y-90838870D01*
X257088001Y-90899245D01*
X256498559Y-91078050D01*
X255955326Y-91368414D01*
X255527000Y-91719933D01*
X255527000Y-89927000D01*
X274073000Y-89927000D01*
X274073000Y-90869543D01*
G36*
X253437286Y-107342792D02*
G01*
X252862739Y-107168505D01*
X252249740Y-107108130D01*
X251663534Y-107108130D01*
X252182349Y-106682349D01*
X252311588Y-106524871D01*
X253437286Y-105399173D01*
X253437286Y-107342792D01*
G37*
X253437286Y-107342792D02*
X252862739Y-107168505D01*
X252249740Y-107108130D01*
X251663534Y-107108130D01*
X252182349Y-106682349D01*
X252311588Y-106524871D01*
X253437286Y-105399173D01*
X253437286Y-107342792D01*
G36*
X242973000Y-90087513D02*
G01*
X242677000Y-90146391D01*
X242677000Y-89927000D01*
X242973000Y-89927000D01*
X242973000Y-90087513D01*
G37*
X242973000Y-90087513D02*
X242677000Y-90146391D01*
X242677000Y-89927000D01*
X242973000Y-89927000D01*
X242973000Y-90087513D01*
G36*
X148757166Y-124142817D02*
G01*
X149173686Y-124766184D01*
X149703816Y-125296314D01*
X150289737Y-125687813D01*
X150097310Y-126047819D01*
X149918505Y-126637261D01*
X149885930Y-126968000D01*
X143747917Y-126968000D01*
X144787104Y-126761293D01*
X145902100Y-126299447D01*
X146905569Y-125628950D01*
X147758950Y-124775569D01*
X148429447Y-123772100D01*
X148516529Y-123561866D01*
X148757166Y-124142817D01*
G37*
X148757166Y-124142817D02*
X149173686Y-124766184D01*
X149703816Y-125296314D01*
X150289737Y-125687813D01*
X150097310Y-126047819D01*
X149918505Y-126637261D01*
X149885930Y-126968000D01*
X143747917Y-126968000D01*
X144787104Y-126761293D01*
X145902100Y-126299447D01*
X146905569Y-125628950D01*
X147758950Y-124775569D01*
X148429447Y-123772100D01*
X148516529Y-123561866D01*
X148757166Y-124142817D01*
G36*
X139094431Y-125628950D02*
G01*
X140097900Y-126299447D01*
X141212896Y-126761293D01*
X142252083Y-126968000D01*
X136427000Y-126968000D01*
X136427000Y-125098428D01*
X138563909Y-125098428D01*
X139094431Y-125628950D01*
G37*
X139094431Y-125628950D02*
X140097900Y-126299447D01*
X141212896Y-126761293D01*
X142252083Y-126968000D01*
X136427000Y-126968000D01*
X136427000Y-125098428D01*
X138563909Y-125098428D01*
X139094431Y-125628950D01*
G36*
X167823000Y-90869543D02*
G01*
X167744858Y-90854000D01*
X166995142Y-90854000D01*
X166259831Y-91000262D01*
X165567183Y-91287166D01*
X164943816Y-91703686D01*
X164413686Y-92233816D01*
X163997166Y-92857183D01*
X163710262Y-93549831D01*
X163564000Y-94285142D01*
X163564000Y-95034858D01*
X163710262Y-95770169D01*
X163776466Y-95930000D01*
X163710262Y-96089831D01*
X163564000Y-96825142D01*
X163564000Y-97574858D01*
X163710262Y-98310169D01*
X163997166Y-99002817D01*
X164413686Y-99626184D01*
X164527502Y-99740000D01*
X164413686Y-99853816D01*
X163997166Y-100477183D01*
X163710262Y-101169831D01*
X163564000Y-101905142D01*
X163564000Y-102654858D01*
X163710262Y-103390169D01*
X163997166Y-104082817D01*
X164413686Y-104706184D01*
X164943816Y-105236314D01*
X165567183Y-105652834D01*
X166259831Y-105939738D01*
X166995142Y-106086000D01*
X167744858Y-106086000D01*
X167823000Y-106070457D01*
X167823001Y-116009543D01*
X167744858Y-115994000D01*
X166995142Y-115994000D01*
X166259831Y-116140262D01*
X165567183Y-116427166D01*
X164943816Y-116843686D01*
X164413686Y-117373816D01*
X163997166Y-117997183D01*
X163710262Y-118689831D01*
X163564000Y-119425142D01*
X163564000Y-120174858D01*
X163710262Y-120910169D01*
X163776466Y-121070000D01*
X163710262Y-121229831D01*
X163564000Y-121965142D01*
X163564000Y-122714858D01*
X163710262Y-123450169D01*
X163989065Y-124123260D01*
X163016569Y-124123260D01*
X161832896Y-124358707D01*
X160884278Y-124751637D01*
X160745414Y-124637674D01*
X160202181Y-124347310D01*
X159612739Y-124168505D01*
X158999740Y-124108130D01*
X155517202Y-124108130D01*
X155789738Y-123450169D01*
X155936000Y-122714858D01*
X155936000Y-121965142D01*
X155789738Y-121229831D01*
X155723534Y-121070000D01*
X155789738Y-120910169D01*
X155936000Y-120174858D01*
X155936000Y-119425142D01*
X155789738Y-118689831D01*
X155502834Y-117997183D01*
X155086314Y-117373816D01*
X154556184Y-116843686D01*
X153932817Y-116427166D01*
X153240169Y-116140262D01*
X152504858Y-115994000D01*
X151755142Y-115994000D01*
X151019831Y-116140262D01*
X150327183Y-116427166D01*
X149703816Y-116843686D01*
X149173686Y-117373816D01*
X148757166Y-117997183D01*
X148599371Y-118378134D01*
X148498363Y-118134278D01*
X148612326Y-117995414D01*
X148902690Y-117452181D01*
X149081495Y-116862739D01*
X149141870Y-116249740D01*
X149141870Y-111022000D01*
X160812715Y-111022000D01*
X160812715Y-102218000D01*
X149519063Y-102218000D01*
X149567285Y-102059034D01*
X149646967Y-101250000D01*
X149567285Y-100440967D01*
X149383888Y-99836386D01*
X149703816Y-100156314D01*
X150327183Y-100572834D01*
X151019831Y-100859738D01*
X151755142Y-101006000D01*
X152504858Y-101006000D01*
X153240169Y-100859738D01*
X153932817Y-100572834D01*
X154556184Y-100156314D01*
X155086314Y-99626184D01*
X155502834Y-99002817D01*
X155789738Y-98310169D01*
X155936000Y-97574858D01*
X155936000Y-96825142D01*
X155813186Y-96207711D01*
X155890755Y-95951999D01*
X155951130Y-95339000D01*
X155951130Y-93981000D01*
X155890755Y-93368001D01*
X155711950Y-92778559D01*
X155421586Y-92235326D01*
X155030821Y-91759179D01*
X154554674Y-91368414D01*
X154011441Y-91078050D01*
X153421999Y-90899245D01*
X152809000Y-90838870D01*
X151451000Y-90838870D01*
X150838001Y-90899245D01*
X150248559Y-91078050D01*
X149705326Y-91368414D01*
X149277000Y-91719933D01*
X149277000Y-89927000D01*
X167823000Y-89927000D01*
X167823000Y-90869543D01*
G37*
X167823000Y-90869543D02*
X167744858Y-90854000D01*
X166995142Y-90854000D01*
X166259831Y-91000262D01*
X165567183Y-91287166D01*
X164943816Y-91703686D01*
X164413686Y-92233816D01*
X163997166Y-92857183D01*
X163710262Y-93549831D01*
X163564000Y-94285142D01*
X163564000Y-95034858D01*
X163710262Y-95770169D01*
X163776466Y-95930000D01*
X163710262Y-96089831D01*
X163564000Y-96825142D01*
X163564000Y-97574858D01*
X163710262Y-98310169D01*
X163997166Y-99002817D01*
X164413686Y-99626184D01*
X164527502Y-99740000D01*
X164413686Y-99853816D01*
X163997166Y-100477183D01*
X163710262Y-101169831D01*
X163564000Y-101905142D01*
X163564000Y-102654858D01*
X163710262Y-103390169D01*
X163997166Y-104082817D01*
X164413686Y-104706184D01*
X164943816Y-105236314D01*
X165567183Y-105652834D01*
X166259831Y-105939738D01*
X166995142Y-106086000D01*
X167744858Y-106086000D01*
X167823000Y-106070457D01*
X167823001Y-116009543D01*
X167744858Y-115994000D01*
X166995142Y-115994000D01*
X166259831Y-116140262D01*
X165567183Y-116427166D01*
X164943816Y-116843686D01*
X164413686Y-117373816D01*
X163997166Y-117997183D01*
X163710262Y-118689831D01*
X163564000Y-119425142D01*
X163564000Y-120174858D01*
X163710262Y-120910169D01*
X163776466Y-121070000D01*
X163710262Y-121229831D01*
X163564000Y-121965142D01*
X163564000Y-122714858D01*
X163710262Y-123450169D01*
X163989065Y-124123260D01*
X163016569Y-124123260D01*
X161832896Y-124358707D01*
X160884278Y-124751637D01*
X160745414Y-124637674D01*
X160202181Y-124347310D01*
X159612739Y-124168505D01*
X158999740Y-124108130D01*
X155517202Y-124108130D01*
X155789738Y-123450169D01*
X155936000Y-122714858D01*
X155936000Y-121965142D01*
X155789738Y-121229831D01*
X155723534Y-121070000D01*
X155789738Y-120910169D01*
X155936000Y-120174858D01*
X155936000Y-119425142D01*
X155789738Y-118689831D01*
X155502834Y-117997183D01*
X155086314Y-117373816D01*
X154556184Y-116843686D01*
X153932817Y-116427166D01*
X153240169Y-116140262D01*
X152504858Y-115994000D01*
X151755142Y-115994000D01*
X151019831Y-116140262D01*
X150327183Y-116427166D01*
X149703816Y-116843686D01*
X149173686Y-117373816D01*
X148757166Y-117997183D01*
X148599371Y-118378134D01*
X148498363Y-118134278D01*
X148612326Y-117995414D01*
X148902690Y-117452181D01*
X149081495Y-116862739D01*
X149141870Y-116249740D01*
X149141870Y-111022000D01*
X160812715Y-111022000D01*
X160812715Y-102218000D01*
X149519063Y-102218000D01*
X149567285Y-102059034D01*
X149646967Y-101250000D01*
X149567285Y-100440967D01*
X149383888Y-99836386D01*
X149703816Y-100156314D01*
X150327183Y-100572834D01*
X151019831Y-100859738D01*
X151755142Y-101006000D01*
X152504858Y-101006000D01*
X153240169Y-100859738D01*
X153932817Y-100572834D01*
X154556184Y-100156314D01*
X155086314Y-99626184D01*
X155502834Y-99002817D01*
X155789738Y-98310169D01*
X155936000Y-97574858D01*
X155936000Y-96825142D01*
X155813186Y-96207711D01*
X155890755Y-95951999D01*
X155951130Y-95339000D01*
X155951130Y-93981000D01*
X155890755Y-93368001D01*
X155711950Y-92778559D01*
X155421586Y-92235326D01*
X155030821Y-91759179D01*
X154554674Y-91368414D01*
X154011441Y-91078050D01*
X153421999Y-90899245D01*
X152809000Y-90838870D01*
X151451000Y-90838870D01*
X150838001Y-90899245D01*
X150248559Y-91078050D01*
X149705326Y-91368414D01*
X149277000Y-91719933D01*
X149277000Y-89927000D01*
X167823000Y-89927000D01*
X167823000Y-90869543D01*
G36*
X147187286Y-107342792D02*
G01*
X146612739Y-107168505D01*
X145999740Y-107108130D01*
X145413534Y-107108130D01*
X145932349Y-106682349D01*
X146061588Y-106524871D01*
X147187286Y-105399173D01*
X147187286Y-107342792D01*
G37*
X147187286Y-107342792D02*
X146612739Y-107168505D01*
X145999740Y-107108130D01*
X145413534Y-107108130D01*
X145932349Y-106682349D01*
X146061588Y-106524871D01*
X147187286Y-105399173D01*
X147187286Y-107342792D01*
G36*
X136723000Y-90087513D02*
G01*
X136427000Y-90146391D01*
X136427000Y-89927000D01*
X136723000Y-89927000D01*
X136723000Y-90087513D01*
G37*
X136723000Y-90087513D02*
X136427000Y-90146391D01*
X136427000Y-89927000D01*
X136723000Y-89927000D01*
X136723000Y-90087513D01*
M02*
