G04 #@! TF.GenerationSoftware,KiCad,Pcbnew,5.1.5-1.fc30*
G04 #@! TF.CreationDate,2021-07-16T22:34:16+03:00*
G04 #@! TF.ProjectId,light,6c696768-742e-46b6-9963-61645f706362,rev?*
G04 #@! TF.SameCoordinates,Original*
G04 #@! TF.FileFunction,Profile,NP*
%FSLAX46Y46*%
G04 Gerber Fmt 4.6, Leading zero omitted, Abs format (unit mm)*
G04 Created by KiCad (PCBNEW 5.1.5-1.fc30) date 2021-07-16 22:34:16*
%MOMM*%
%LPD*%
G04 APERTURE LIST*
%ADD10C,0.100000*%
G04 APERTURE END LIST*
D10*
X76750000Y-116250000D02*
X76750000Y-186500000D01*
X25000000Y-116250000D02*
X76750000Y-116250000D01*
X25000000Y-186500000D02*
X25000000Y-116250000D01*
X76750000Y-186500000D02*
X25000000Y-186500000D01*
X133250000Y-86750000D02*
X171000000Y-86750000D01*
X171000000Y-86750000D02*
X171000000Y-134500000D01*
X171000000Y-134500000D02*
X133250000Y-134500000D01*
X133250000Y-134500000D02*
X133250000Y-86750000D01*
X189500000Y-86750000D02*
X227250000Y-86750000D01*
X227250000Y-86750000D02*
X227250000Y-134500000D01*
X227250000Y-134500000D02*
X189500000Y-134500000D01*
X189500000Y-134500000D02*
X189500000Y-86750000D01*
X239500000Y-86750000D02*
X277250000Y-86750000D01*
X277250000Y-86750000D02*
X277250000Y-134500000D01*
X277250000Y-134500000D02*
X239500000Y-134500000D01*
X239500000Y-134500000D02*
X239500000Y-86750000D01*
X239500000Y-18000000D02*
X277250000Y-18000000D01*
X277250000Y-18000000D02*
X277250000Y-65750000D01*
X277250000Y-65750000D02*
X239500000Y-65750000D01*
X239500000Y-65750000D02*
X239500000Y-18000000D01*
X189500000Y-18000000D02*
X227250000Y-18000000D01*
X227250000Y-18000000D02*
X227250000Y-65750000D01*
X227250000Y-65750000D02*
X189500000Y-65750000D01*
X189500000Y-65750000D02*
X189500000Y-18000000D01*
X133250000Y-18000000D02*
X171000000Y-18000000D01*
X171000000Y-18000000D02*
X171000000Y-65750000D01*
X171000000Y-65750000D02*
X133250000Y-65750000D01*
X133250000Y-65750000D02*
X133250000Y-18000000D01*
X118750000Y-17750000D02*
X118750000Y-65500000D01*
X118750000Y-65500000D02*
X81000000Y-65500000D01*
X81000000Y-17750000D02*
X118750000Y-17750000D01*
X81000000Y-65500000D02*
X81000000Y-17750000D01*
X62500000Y-18000000D02*
X62500000Y-65750000D01*
X24750000Y-18000000D02*
X62500000Y-18000000D01*
X24750000Y-65750000D02*
X24750000Y-18000000D01*
X62500000Y-65750000D02*
X24750000Y-65750000D01*
M02*
