%FSLAX45Y45*%
G04 Gerber Fmt 4.5, Leading zero omitted, Abs format (unit mm)*
G04 Created by KiCad (PCBNEW 5.1.5-1.fc30) date 2021-07-16 22:34:20*
%MOMM*%
%LPD*%
G04 APERTURE LIST*
%TA.AperFunction,Profile*%
%ADD10C,0.100000*%
%TD*%
%ADD11C,0.200000*%
%ADD12C,0.300000*%
G04 APERTURE END LIST*
D10*
X7675000Y-11625000D02*
X7675000Y-18650000D01*
X2500000Y-11625000D02*
X7675000Y-11625000D01*
X2500000Y-18650000D02*
X2500000Y-11625000D01*
X7675000Y-18650000D02*
X2500000Y-18650000D01*
X13325000Y-8675000D02*
X17100000Y-8675000D01*
X17100000Y-8675000D02*
X17100000Y-13450000D01*
X17100000Y-13450000D02*
X13325000Y-13450000D01*
X13325000Y-13450000D02*
X13325000Y-8675000D01*
X18950000Y-8675000D02*
X22725000Y-8675000D01*
X22725000Y-8675000D02*
X22725000Y-13450000D01*
X22725000Y-13450000D02*
X18950000Y-13450000D01*
X18950000Y-13450000D02*
X18950000Y-8675000D01*
X23950000Y-8675000D02*
X27725000Y-8675000D01*
X27725000Y-8675000D02*
X27725000Y-13450000D01*
X27725000Y-13450000D02*
X23950000Y-13450000D01*
X23950000Y-13450000D02*
X23950000Y-8675000D01*
X23950000Y-1800000D02*
X27725000Y-1800000D01*
X27725000Y-1800000D02*
X27725000Y-6575000D01*
X27725000Y-6575000D02*
X23950000Y-6575000D01*
X23950000Y-6575000D02*
X23950000Y-1800000D01*
X18950000Y-1800000D02*
X22725000Y-1800000D01*
X22725000Y-1800000D02*
X22725000Y-6575000D01*
X22725000Y-6575000D02*
X18950000Y-6575000D01*
X18950000Y-6575000D02*
X18950000Y-1800000D01*
X13325000Y-1800000D02*
X17100000Y-1800000D01*
X17100000Y-1800000D02*
X17100000Y-6575000D01*
X17100000Y-6575000D02*
X13325000Y-6575000D01*
X13325000Y-6575000D02*
X13325000Y-1800000D01*
X11875000Y-1775000D02*
X11875000Y-6550000D01*
X11875000Y-6550000D02*
X8100000Y-6550000D01*
X8100000Y-1775000D02*
X11875000Y-1775000D01*
X8100000Y-6550000D02*
X8100000Y-1775000D01*
X6250000Y-1800000D02*
X6250000Y-6575000D01*
X2475000Y-1800000D02*
X6250000Y-1800000D01*
X2475000Y-6575000D02*
X2475000Y-1800000D01*
X6250000Y-6575000D02*
X2475000Y-6575000D01*
D11*
X6410000Y-15569000D02*
X6490000Y-15649000D01*
X6490000Y-15569000D02*
X6410000Y-15649000D01*
X6410000Y-16585000D02*
X6490000Y-16665000D01*
X6490000Y-16585000D02*
X6410000Y-16665000D01*
X4210000Y-17510000D02*
X4290000Y-17590000D01*
X4290000Y-17510000D02*
X4210000Y-17590000D01*
X4972000Y-17510000D02*
X5052000Y-17590000D01*
X5052000Y-17510000D02*
X4972000Y-17590000D01*
X25135000Y-9585000D02*
X25215000Y-9665000D01*
X25215000Y-9585000D02*
X25135000Y-9665000D01*
X25135000Y-10085000D02*
X25215000Y-10165000D01*
X25215000Y-10085000D02*
X25135000Y-10165000D01*
X5110000Y-14710000D02*
X5190000Y-14790000D01*
X5190000Y-14710000D02*
X5110000Y-14790000D01*
X5360000Y-14710000D02*
X5440000Y-14790000D01*
X5440000Y-14710000D02*
X5360000Y-14790000D01*
X4210000Y-18010000D02*
X4290000Y-18090000D01*
X4290000Y-18010000D02*
X4210000Y-18090000D01*
X5226000Y-18010000D02*
X5306000Y-18090000D01*
X5306000Y-18010000D02*
X5226000Y-18090000D01*
X5110000Y-13985000D02*
X5190000Y-14065000D01*
X5190000Y-13985000D02*
X5110000Y-14065000D01*
X5610000Y-13985000D02*
X5690000Y-14065000D01*
X5690000Y-13985000D02*
X5610000Y-14065000D01*
X14510000Y-9585000D02*
X14590000Y-9665000D01*
X14590000Y-9585000D02*
X14510000Y-9665000D01*
X14510000Y-10085000D02*
X14590000Y-10165000D01*
X14590000Y-10085000D02*
X14510000Y-10165000D01*
X3660000Y-2710000D02*
X3740000Y-2790000D01*
X3740000Y-2710000D02*
X3660000Y-2790000D01*
X3660000Y-3210000D02*
X3740000Y-3290000D01*
X3740000Y-3210000D02*
X3660000Y-3290000D01*
X4110000Y-15335000D02*
X4190000Y-15415000D01*
X4190000Y-15335000D02*
X4110000Y-15415000D01*
X4110000Y-16351000D02*
X4190000Y-16431000D01*
X4190000Y-16351000D02*
X4110000Y-16431000D01*
X25135000Y-2710000D02*
X25215000Y-2790000D01*
X25215000Y-2710000D02*
X25135000Y-2790000D01*
X25135000Y-3210000D02*
X25215000Y-3290000D01*
X25215000Y-3210000D02*
X25135000Y-3290000D01*
X9285000Y-2710000D02*
X9365000Y-2790000D01*
X9365000Y-2710000D02*
X9285000Y-2790000D01*
X9285000Y-3210000D02*
X9365000Y-3290000D01*
X9365000Y-3210000D02*
X9285000Y-3290000D01*
X14510000Y-2710000D02*
X14590000Y-2790000D01*
X14590000Y-2710000D02*
X14510000Y-2790000D01*
X14510000Y-3210000D02*
X14590000Y-3290000D01*
X14590000Y-3210000D02*
X14510000Y-3290000D01*
X4310000Y-12960000D02*
X4390000Y-13040000D01*
X4390000Y-12960000D02*
X4310000Y-13040000D01*
X4310000Y-13460000D02*
X4390000Y-13540000D01*
X4390000Y-13460000D02*
X4310000Y-13540000D01*
X20135000Y-9585000D02*
X20215000Y-9665000D01*
X20215000Y-9585000D02*
X20135000Y-9665000D01*
X20135000Y-10085000D02*
X20215000Y-10165000D01*
X20215000Y-10085000D02*
X20135000Y-10165000D01*
X20135000Y-2710000D02*
X20215000Y-2790000D01*
X20215000Y-2710000D02*
X20135000Y-2790000D01*
X20135000Y-3210000D02*
X20215000Y-3290000D01*
X20215000Y-3210000D02*
X20135000Y-3290000D01*
X4760000Y-15523000D02*
X4840000Y-15603000D01*
X4840000Y-15523000D02*
X4760000Y-15603000D01*
X4760000Y-16285000D02*
X4840000Y-16365000D01*
X4840000Y-16285000D02*
X4760000Y-16365000D01*
X5014000Y-15523000D02*
X5094000Y-15603000D01*
X5094000Y-15523000D02*
X5014000Y-15603000D01*
X5014000Y-16285000D02*
X5094000Y-16365000D01*
X5094000Y-16285000D02*
X5014000Y-16365000D01*
X5268000Y-15523000D02*
X5348000Y-15603000D01*
X5348000Y-15523000D02*
X5268000Y-15603000D01*
X5268000Y-16285000D02*
X5348000Y-16365000D01*
X5348000Y-16285000D02*
X5268000Y-16365000D01*
X5522000Y-15523000D02*
X5602000Y-15603000D01*
X5602000Y-15523000D02*
X5522000Y-15603000D01*
X5522000Y-16285000D02*
X5602000Y-16365000D01*
X5602000Y-16285000D02*
X5522000Y-16365000D01*
X6285000Y-13035000D02*
X6365000Y-13115000D01*
X6365000Y-13035000D02*
X6285000Y-13115000D01*
X6285000Y-13535000D02*
X6365000Y-13615000D01*
X6365000Y-13535000D02*
X6285000Y-13615000D01*
X4515627Y-16882379D02*
X4595627Y-16962379D01*
X4595627Y-16882379D02*
X4515627Y-16962379D01*
X5015627Y-16882379D02*
X5095627Y-16962379D01*
X5095627Y-16882379D02*
X5015627Y-16962379D01*
X20880500Y-9466000D02*
G75*
G03X20880500Y-9466000I-42500J0D01*
G01*
X20880500Y-9720000D02*
G75*
G03X20880500Y-9720000I-42500J0D01*
G01*
X20880500Y-11980000D02*
G75*
G03X20880500Y-11980000I-42500J0D01*
G01*
X20880500Y-12234000D02*
G75*
G03X20880500Y-12234000I-42500J0D01*
G01*
X22404500Y-9466000D02*
G75*
G03X22404500Y-9466000I-42500J0D01*
G01*
X22404500Y-9720000D02*
G75*
G03X22404500Y-9720000I-42500J0D01*
G01*
X22404500Y-10228000D02*
G75*
G03X22404500Y-10228000I-42500J0D01*
G01*
X22404500Y-11980000D02*
G75*
G03X22404500Y-11980000I-42500J0D01*
G01*
X22404500Y-12234000D02*
G75*
G03X22404500Y-12234000I-42500J0D01*
G01*
X15255500Y-2591000D02*
G75*
G03X15255500Y-2591000I-42500J0D01*
G01*
X15255500Y-2845000D02*
G75*
G03X15255500Y-2845000I-42500J0D01*
G01*
X15255500Y-5105000D02*
G75*
G03X15255500Y-5105000I-42500J0D01*
G01*
X15255500Y-5359000D02*
G75*
G03X15255500Y-5359000I-42500J0D01*
G01*
X16779500Y-2591000D02*
G75*
G03X16779500Y-2591000I-42500J0D01*
G01*
X16779500Y-2845000D02*
G75*
G03X16779500Y-2845000I-42500J0D01*
G01*
X16779500Y-3353000D02*
G75*
G03X16779500Y-3353000I-42500J0D01*
G01*
X16779500Y-5105000D02*
G75*
G03X16779500Y-5105000I-42500J0D01*
G01*
X16779500Y-5359000D02*
G75*
G03X16779500Y-5359000I-42500J0D01*
G01*
X15255500Y-9466000D02*
G75*
G03X15255500Y-9466000I-42500J0D01*
G01*
X15255500Y-9720000D02*
G75*
G03X15255500Y-9720000I-42500J0D01*
G01*
X15255500Y-11980000D02*
G75*
G03X15255500Y-11980000I-42500J0D01*
G01*
X15255500Y-12234000D02*
G75*
G03X15255500Y-12234000I-42500J0D01*
G01*
X16779500Y-9466000D02*
G75*
G03X16779500Y-9466000I-42500J0D01*
G01*
X16779500Y-9720000D02*
G75*
G03X16779500Y-9720000I-42500J0D01*
G01*
X16779500Y-10228000D02*
G75*
G03X16779500Y-10228000I-42500J0D01*
G01*
X16779500Y-11980000D02*
G75*
G03X16779500Y-11980000I-42500J0D01*
G01*
X16779500Y-12234000D02*
G75*
G03X16779500Y-12234000I-42500J0D01*
G01*
X4405500Y-2591000D02*
G75*
G03X4405500Y-2591000I-42500J0D01*
G01*
X4405500Y-2845000D02*
G75*
G03X4405500Y-2845000I-42500J0D01*
G01*
X4405500Y-5105000D02*
G75*
G03X4405500Y-5105000I-42500J0D01*
G01*
X4405500Y-5359000D02*
G75*
G03X4405500Y-5359000I-42500J0D01*
G01*
X5929500Y-2591000D02*
G75*
G03X5929500Y-2591000I-42500J0D01*
G01*
X5929500Y-2845000D02*
G75*
G03X5929500Y-2845000I-42500J0D01*
G01*
X5929500Y-3353000D02*
G75*
G03X5929500Y-3353000I-42500J0D01*
G01*
X5929500Y-5105000D02*
G75*
G03X5929500Y-5105000I-42500J0D01*
G01*
X5929500Y-5359000D02*
G75*
G03X5929500Y-5359000I-42500J0D01*
G01*
X10030500Y-2591000D02*
G75*
G03X10030500Y-2591000I-42500J0D01*
G01*
X10030500Y-2845000D02*
G75*
G03X10030500Y-2845000I-42500J0D01*
G01*
X10030500Y-5105000D02*
G75*
G03X10030500Y-5105000I-42500J0D01*
G01*
X10030500Y-5359000D02*
G75*
G03X10030500Y-5359000I-42500J0D01*
G01*
X11554500Y-2591000D02*
G75*
G03X11554500Y-2591000I-42500J0D01*
G01*
X11554500Y-2845000D02*
G75*
G03X11554500Y-2845000I-42500J0D01*
G01*
X11554500Y-3353000D02*
G75*
G03X11554500Y-3353000I-42500J0D01*
G01*
X11554500Y-5105000D02*
G75*
G03X11554500Y-5105000I-42500J0D01*
G01*
X11554500Y-5359000D02*
G75*
G03X11554500Y-5359000I-42500J0D01*
G01*
X20880500Y-2591000D02*
G75*
G03X20880500Y-2591000I-42500J0D01*
G01*
X20880500Y-2845000D02*
G75*
G03X20880500Y-2845000I-42500J0D01*
G01*
X20880500Y-5105000D02*
G75*
G03X20880500Y-5105000I-42500J0D01*
G01*
X20880500Y-5359000D02*
G75*
G03X20880500Y-5359000I-42500J0D01*
G01*
X22404500Y-2591000D02*
G75*
G03X22404500Y-2591000I-42500J0D01*
G01*
X22404500Y-2845000D02*
G75*
G03X22404500Y-2845000I-42500J0D01*
G01*
X22404500Y-3353000D02*
G75*
G03X22404500Y-3353000I-42500J0D01*
G01*
X22404500Y-5105000D02*
G75*
G03X22404500Y-5105000I-42500J0D01*
G01*
X22404500Y-5359000D02*
G75*
G03X22404500Y-5359000I-42500J0D01*
G01*
X25880500Y-9466000D02*
G75*
G03X25880500Y-9466000I-42500J0D01*
G01*
X25880500Y-9720000D02*
G75*
G03X25880500Y-9720000I-42500J0D01*
G01*
X25880500Y-11980000D02*
G75*
G03X25880500Y-11980000I-42500J0D01*
G01*
X25880500Y-12234000D02*
G75*
G03X25880500Y-12234000I-42500J0D01*
G01*
X27404500Y-9466000D02*
G75*
G03X27404500Y-9466000I-42500J0D01*
G01*
X27404500Y-9720000D02*
G75*
G03X27404500Y-9720000I-42500J0D01*
G01*
X27404500Y-10228000D02*
G75*
G03X27404500Y-10228000I-42500J0D01*
G01*
X27404500Y-11980000D02*
G75*
G03X27404500Y-11980000I-42500J0D01*
G01*
X27404500Y-12234000D02*
G75*
G03X27404500Y-12234000I-42500J0D01*
G01*
X25880500Y-2591000D02*
G75*
G03X25880500Y-2591000I-42500J0D01*
G01*
X25880500Y-2845000D02*
G75*
G03X25880500Y-2845000I-42500J0D01*
G01*
X25880500Y-5105000D02*
G75*
G03X25880500Y-5105000I-42500J0D01*
G01*
X25880500Y-5359000D02*
G75*
G03X25880500Y-5359000I-42500J0D01*
G01*
X27404500Y-2591000D02*
G75*
G03X27404500Y-2591000I-42500J0D01*
G01*
X27404500Y-2845000D02*
G75*
G03X27404500Y-2845000I-42500J0D01*
G01*
X27404500Y-3353000D02*
G75*
G03X27404500Y-3353000I-42500J0D01*
G01*
X27404500Y-5105000D02*
G75*
G03X27404500Y-5105000I-42500J0D01*
G01*
X27404500Y-5359000D02*
G75*
G03X27404500Y-5359000I-42500J0D01*
G01*
X6925000Y-16150000D02*
X6925000Y-16250000D01*
X6875000Y-16200000D02*
X6975000Y-16200000D01*
X3321000Y-14526000D02*
X3321000Y-14626000D01*
X3271000Y-14576000D02*
X3371000Y-14576000D01*
X3321000Y-14780000D02*
X3321000Y-14880000D01*
X3271000Y-14830000D02*
X3371000Y-14830000D01*
X3321000Y-15034000D02*
X3321000Y-15134000D01*
X3271000Y-15084000D02*
X3371000Y-15084000D01*
X3321000Y-15288000D02*
X3321000Y-15388000D01*
X3271000Y-15338000D02*
X3371000Y-15338000D01*
X3321000Y-15542000D02*
X3321000Y-15642000D01*
X3271000Y-15592000D02*
X3371000Y-15592000D01*
X3321000Y-15796000D02*
X3321000Y-15896000D01*
X3271000Y-15846000D02*
X3371000Y-15846000D01*
X3321000Y-16050000D02*
X3321000Y-16150000D01*
X3271000Y-16100000D02*
X3371000Y-16100000D01*
X3321000Y-16304000D02*
X3321000Y-16404000D01*
X3271000Y-16354000D02*
X3371000Y-16354000D01*
X3575000Y-14526000D02*
X3575000Y-14626000D01*
X3525000Y-14576000D02*
X3625000Y-14576000D01*
X3575000Y-14780000D02*
X3575000Y-14880000D01*
X3525000Y-14830000D02*
X3625000Y-14830000D01*
X3575000Y-15034000D02*
X3575000Y-15134000D01*
X3525000Y-15084000D02*
X3625000Y-15084000D01*
X3575000Y-15288000D02*
X3575000Y-15388000D01*
X3525000Y-15338000D02*
X3625000Y-15338000D01*
X3575000Y-15542000D02*
X3575000Y-15642000D01*
X3525000Y-15592000D02*
X3625000Y-15592000D01*
X3575000Y-15796000D02*
X3575000Y-15896000D01*
X3525000Y-15846000D02*
X3625000Y-15846000D01*
X3575000Y-16050000D02*
X3575000Y-16150000D01*
X3525000Y-16100000D02*
X3625000Y-16100000D01*
X3575000Y-16304000D02*
X3575000Y-16404000D01*
X3525000Y-16354000D02*
X3625000Y-16354000D01*
X5163891Y-13463891D02*
X5163891Y-13386109D01*
X5086109Y-13386109D01*
X5086109Y-13463891D01*
X5163891Y-13463891D01*
X5417891Y-12955891D02*
X5417891Y-12878109D01*
X5340109Y-12878109D01*
X5340109Y-12955891D01*
X5417891Y-12955891D01*
X5671891Y-13463891D02*
X5671891Y-13386109D01*
X5594109Y-13386109D01*
X5594109Y-13463891D01*
X5671891Y-13463891D01*
X10375000Y-6274968D02*
X10499968Y-6150000D01*
X10375000Y-6025032D01*
X10250032Y-6150000D01*
X10375000Y-6274968D01*
X11137000Y-6274968D02*
X11261968Y-6150000D01*
X11137000Y-6025032D01*
X11012032Y-6150000D01*
X11137000Y-6274968D01*
X14300000Y-11449968D02*
X14424968Y-11325000D01*
X14300000Y-11200032D01*
X14175032Y-11325000D01*
X14300000Y-11449968D01*
X14300000Y-12211968D02*
X14424968Y-12087000D01*
X14300000Y-11962032D01*
X14175032Y-12087000D01*
X14300000Y-12211968D01*
X9075000Y-4574968D02*
X9199968Y-4450000D01*
X9075000Y-4325032D01*
X8950032Y-4450000D01*
X9075000Y-4574968D01*
X9075000Y-5336968D02*
X9199968Y-5212000D01*
X9075000Y-5087032D01*
X8950032Y-5212000D01*
X9075000Y-5336968D01*
X26225000Y-6274968D02*
X26349968Y-6150000D01*
X26225000Y-6025032D01*
X26100032Y-6150000D01*
X26225000Y-6274968D01*
X26987000Y-6274968D02*
X27111968Y-6150000D01*
X26987000Y-6025032D01*
X26862032Y-6150000D01*
X26987000Y-6274968D01*
X13775000Y-9737968D02*
X13899968Y-9613000D01*
X13775000Y-9488032D01*
X13650032Y-9613000D01*
X13775000Y-9737968D01*
X13775000Y-10499968D02*
X13899968Y-10375000D01*
X13775000Y-10250032D01*
X13650032Y-10375000D01*
X13775000Y-10499968D01*
X4913000Y-12299968D02*
X5037968Y-12175000D01*
X4913000Y-12050032D01*
X4788032Y-12175000D01*
X4913000Y-12299968D01*
X5675000Y-12299968D02*
X5799968Y-12175000D01*
X5675000Y-12050032D01*
X5550032Y-12175000D01*
X5675000Y-12299968D01*
X24400000Y-2862968D02*
X24524968Y-2738000D01*
X24400000Y-2613032D01*
X24275032Y-2738000D01*
X24400000Y-2862968D01*
X24400000Y-3624968D02*
X24524968Y-3500000D01*
X24400000Y-3375032D01*
X24275032Y-3500000D01*
X24400000Y-3624968D01*
X3466861Y-12909609D02*
X3591829Y-12784641D01*
X3466861Y-12659673D01*
X3341893Y-12784641D01*
X3466861Y-12909609D01*
X3466861Y-13671609D02*
X3591829Y-13546641D01*
X3466861Y-13421673D01*
X3341893Y-13546641D01*
X3466861Y-13671609D01*
X19925000Y-11449968D02*
X20049968Y-11325000D01*
X19925000Y-11200032D01*
X19800032Y-11325000D01*
X19925000Y-11449968D01*
X19925000Y-12211968D02*
X20049968Y-12087000D01*
X19925000Y-11962032D01*
X19800032Y-12087000D01*
X19925000Y-12211968D01*
X24400000Y-9737968D02*
X24524968Y-9613000D01*
X24400000Y-9488032D01*
X24275032Y-9613000D01*
X24400000Y-9737968D01*
X24400000Y-10499968D02*
X24524968Y-10375000D01*
X24400000Y-10250032D01*
X24275032Y-10375000D01*
X24400000Y-10499968D01*
X19925000Y-4574968D02*
X20049968Y-4450000D01*
X19925000Y-4325032D01*
X19800032Y-4450000D01*
X19925000Y-4574968D01*
X19925000Y-5336968D02*
X20049968Y-5212000D01*
X19925000Y-5087032D01*
X19800032Y-5212000D01*
X19925000Y-5336968D01*
X3450000Y-4574968D02*
X3574968Y-4450000D01*
X3450000Y-4325032D01*
X3325032Y-4450000D01*
X3450000Y-4574968D01*
X3450000Y-5336968D02*
X3574968Y-5212000D01*
X3450000Y-5087032D01*
X3325032Y-5212000D01*
X3450000Y-5336968D01*
X6150000Y-18274968D02*
X6274968Y-18150000D01*
X6150000Y-18025032D01*
X6025032Y-18150000D01*
X6150000Y-18274968D01*
X6688815Y-17736153D02*
X6813783Y-17611185D01*
X6688815Y-17486217D01*
X6563847Y-17611185D01*
X6688815Y-17736153D01*
X7227631Y-17197337D02*
X7352599Y-17072369D01*
X7227631Y-16947401D01*
X7102663Y-17072369D01*
X7227631Y-17197337D01*
X19400000Y-2862968D02*
X19524968Y-2738000D01*
X19400000Y-2613032D01*
X19275032Y-2738000D01*
X19400000Y-2862968D01*
X19400000Y-3624968D02*
X19524968Y-3500000D01*
X19400000Y-3375032D01*
X19275032Y-3500000D01*
X19400000Y-3624968D01*
X21225000Y-6274968D02*
X21349968Y-6150000D01*
X21225000Y-6025032D01*
X21100032Y-6150000D01*
X21225000Y-6274968D01*
X21987000Y-6274968D02*
X22111968Y-6150000D01*
X21987000Y-6025032D01*
X21862032Y-6150000D01*
X21987000Y-6274968D01*
X8550000Y-2862968D02*
X8674968Y-2738000D01*
X8550000Y-2613032D01*
X8425032Y-2738000D01*
X8550000Y-2862968D01*
X8550000Y-3624968D02*
X8674968Y-3500000D01*
X8550000Y-3375032D01*
X8425032Y-3500000D01*
X8550000Y-3624968D01*
X24925000Y-4574968D02*
X25049968Y-4450000D01*
X24925000Y-4325032D01*
X24800032Y-4450000D01*
X24925000Y-4574968D01*
X24925000Y-5336968D02*
X25049968Y-5212000D01*
X24925000Y-5087032D01*
X24800032Y-5212000D01*
X24925000Y-5336968D01*
X13775000Y-2862968D02*
X13899968Y-2738000D01*
X13775000Y-2613032D01*
X13650032Y-2738000D01*
X13775000Y-2862968D01*
X13775000Y-3624968D02*
X13899968Y-3500000D01*
X13775000Y-3375032D01*
X13650032Y-3500000D01*
X13775000Y-3624968D01*
X2925000Y-2862968D02*
X3049968Y-2738000D01*
X2925000Y-2613032D01*
X2800032Y-2738000D01*
X2925000Y-2862968D01*
X2925000Y-3624968D02*
X3049968Y-3500000D01*
X2925000Y-3375032D01*
X2800032Y-3500000D01*
X2925000Y-3624968D01*
X4750000Y-6274968D02*
X4874968Y-6150000D01*
X4750000Y-6025032D01*
X4625032Y-6150000D01*
X4750000Y-6274968D01*
X5512000Y-6274968D02*
X5636968Y-6150000D01*
X5512000Y-6025032D01*
X5387032Y-6150000D01*
X5512000Y-6274968D01*
X24925000Y-11449968D02*
X25049968Y-11325000D01*
X24925000Y-11200032D01*
X24800032Y-11325000D01*
X24925000Y-11449968D01*
X24925000Y-12211968D02*
X25049968Y-12087000D01*
X24925000Y-11962032D01*
X24800032Y-12087000D01*
X24925000Y-12211968D01*
X15600000Y-6274968D02*
X15724968Y-6150000D01*
X15600000Y-6025032D01*
X15475032Y-6150000D01*
X15600000Y-6274968D01*
X16362000Y-6274968D02*
X16486968Y-6150000D01*
X16362000Y-6025032D01*
X16237032Y-6150000D01*
X16362000Y-6274968D01*
X26225000Y-13149968D02*
X26349968Y-13025000D01*
X26225000Y-12900032D01*
X26100032Y-13025000D01*
X26225000Y-13149968D01*
X26987000Y-13149968D02*
X27111968Y-13025000D01*
X26987000Y-12900032D01*
X26862032Y-13025000D01*
X26987000Y-13149968D01*
X15600000Y-13149968D02*
X15724968Y-13025000D01*
X15600000Y-12900032D01*
X15475032Y-13025000D01*
X15600000Y-13149968D01*
X16362000Y-13149968D02*
X16486968Y-13025000D01*
X16362000Y-12900032D01*
X16237032Y-13025000D01*
X16362000Y-13149968D01*
X14300000Y-4574968D02*
X14424968Y-4450000D01*
X14300000Y-4325032D01*
X14175032Y-4450000D01*
X14300000Y-4574968D01*
X14300000Y-5336968D02*
X14424968Y-5212000D01*
X14300000Y-5087032D01*
X14175032Y-5212000D01*
X14300000Y-5336968D01*
X21225000Y-13149968D02*
X21349968Y-13025000D01*
X21225000Y-12900032D01*
X21100032Y-13025000D01*
X21225000Y-13149968D01*
X21987000Y-13149968D02*
X22111968Y-13025000D01*
X21987000Y-12900032D01*
X21862032Y-13025000D01*
X21987000Y-13149968D01*
X19400000Y-9737968D02*
X19524968Y-9613000D01*
X19400000Y-9488032D01*
X19275032Y-9613000D01*
X19400000Y-9737968D01*
X19400000Y-10499968D02*
X19524968Y-10375000D01*
X19400000Y-10250032D01*
X19275032Y-10375000D01*
X19400000Y-10499968D01*
D12*
X2756428Y-19120714D02*
X2756428Y-18820714D01*
X2827857Y-18820714D01*
X2870714Y-18835000D01*
X2899286Y-18863572D01*
X2913571Y-18892143D01*
X2927857Y-18949286D01*
X2927857Y-18992143D01*
X2913571Y-19049286D01*
X2899286Y-19077857D01*
X2870714Y-19106429D01*
X2827857Y-19120714D01*
X2756428Y-19120714D01*
X3056428Y-19120714D02*
X3056428Y-18920714D01*
X3056428Y-18977857D02*
X3070714Y-18949286D01*
X3085000Y-18935000D01*
X3113571Y-18920714D01*
X3142143Y-18920714D01*
X3242143Y-19120714D02*
X3242143Y-18920714D01*
X3242143Y-18820714D02*
X3227857Y-18835000D01*
X3242143Y-18849286D01*
X3256428Y-18835000D01*
X3242143Y-18820714D01*
X3242143Y-18849286D01*
X3427857Y-19120714D02*
X3399286Y-19106429D01*
X3385000Y-19077857D01*
X3385000Y-18820714D01*
X3585000Y-19120714D02*
X3556428Y-19106429D01*
X3542143Y-19077857D01*
X3542143Y-18820714D01*
X3927857Y-19120714D02*
X3927857Y-18820714D01*
X4027857Y-19035000D01*
X4127857Y-18820714D01*
X4127857Y-19120714D01*
X4399286Y-19120714D02*
X4399286Y-18963572D01*
X4385000Y-18935000D01*
X4356428Y-18920714D01*
X4299286Y-18920714D01*
X4270714Y-18935000D01*
X4399286Y-19106429D02*
X4370714Y-19120714D01*
X4299286Y-19120714D01*
X4270714Y-19106429D01*
X4256428Y-19077857D01*
X4256428Y-19049286D01*
X4270714Y-19020714D01*
X4299286Y-19006429D01*
X4370714Y-19006429D01*
X4399286Y-18992143D01*
X4542143Y-18920714D02*
X4542143Y-19220714D01*
X4542143Y-18935000D02*
X4570714Y-18920714D01*
X4627857Y-18920714D01*
X4656428Y-18935000D01*
X4670714Y-18949286D01*
X4685000Y-18977857D01*
X4685000Y-19063572D01*
X4670714Y-19092143D01*
X4656428Y-19106429D01*
X4627857Y-19120714D01*
X4570714Y-19120714D01*
X4542143Y-19106429D01*
X4813571Y-19092143D02*
X4827857Y-19106429D01*
X4813571Y-19120714D01*
X4799286Y-19106429D01*
X4813571Y-19092143D01*
X4813571Y-19120714D01*
X4813571Y-18935000D02*
X4827857Y-18949286D01*
X4813571Y-18963572D01*
X4799286Y-18949286D01*
X4813571Y-18935000D01*
X4813571Y-18963572D01*
X2390000Y-19575000D02*
X2470000Y-19655000D01*
X2470000Y-19575000D02*
X2390000Y-19655000D01*
X2813571Y-19450714D02*
X2842143Y-19450714D01*
X2870714Y-19465000D01*
X2885000Y-19479286D01*
X2899286Y-19507857D01*
X2913571Y-19565000D01*
X2913571Y-19636429D01*
X2899286Y-19693572D01*
X2885000Y-19722143D01*
X2870714Y-19736429D01*
X2842143Y-19750714D01*
X2813571Y-19750714D01*
X2785000Y-19736429D01*
X2770714Y-19722143D01*
X2756428Y-19693572D01*
X2742143Y-19636429D01*
X2742143Y-19565000D01*
X2756428Y-19507857D01*
X2770714Y-19479286D01*
X2785000Y-19465000D01*
X2813571Y-19450714D01*
X3042143Y-19722143D02*
X3056428Y-19736429D01*
X3042143Y-19750714D01*
X3027857Y-19736429D01*
X3042143Y-19722143D01*
X3042143Y-19750714D01*
X3227857Y-19579286D02*
X3199286Y-19565000D01*
X3185000Y-19550714D01*
X3170714Y-19522143D01*
X3170714Y-19507857D01*
X3185000Y-19479286D01*
X3199286Y-19465000D01*
X3227857Y-19450714D01*
X3285000Y-19450714D01*
X3313571Y-19465000D01*
X3327857Y-19479286D01*
X3342143Y-19507857D01*
X3342143Y-19522143D01*
X3327857Y-19550714D01*
X3313571Y-19565000D01*
X3285000Y-19579286D01*
X3227857Y-19579286D01*
X3199286Y-19593572D01*
X3185000Y-19607857D01*
X3170714Y-19636429D01*
X3170714Y-19693572D01*
X3185000Y-19722143D01*
X3199286Y-19736429D01*
X3227857Y-19750714D01*
X3285000Y-19750714D01*
X3313571Y-19736429D01*
X3327857Y-19722143D01*
X3342143Y-19693572D01*
X3342143Y-19636429D01*
X3327857Y-19607857D01*
X3313571Y-19593572D01*
X3285000Y-19579286D01*
X3527857Y-19450714D02*
X3556428Y-19450714D01*
X3585000Y-19465000D01*
X3599286Y-19479286D01*
X3613571Y-19507857D01*
X3627857Y-19565000D01*
X3627857Y-19636429D01*
X3613571Y-19693572D01*
X3599286Y-19722143D01*
X3585000Y-19736429D01*
X3556428Y-19750714D01*
X3527857Y-19750714D01*
X3499286Y-19736429D01*
X3485000Y-19722143D01*
X3470714Y-19693572D01*
X3456428Y-19636429D01*
X3456428Y-19565000D01*
X3470714Y-19507857D01*
X3485000Y-19479286D01*
X3499286Y-19465000D01*
X3527857Y-19450714D01*
X3756428Y-19750714D02*
X3756428Y-19550714D01*
X3756428Y-19579286D02*
X3770714Y-19565000D01*
X3799286Y-19550714D01*
X3842143Y-19550714D01*
X3870714Y-19565000D01*
X3885000Y-19593572D01*
X3885000Y-19750714D01*
X3885000Y-19593572D02*
X3899286Y-19565000D01*
X3927857Y-19550714D01*
X3970714Y-19550714D01*
X3999286Y-19565000D01*
X4013571Y-19593572D01*
X4013571Y-19750714D01*
X4156428Y-19750714D02*
X4156428Y-19550714D01*
X4156428Y-19579286D02*
X4170714Y-19565000D01*
X4199286Y-19550714D01*
X4242143Y-19550714D01*
X4270714Y-19565000D01*
X4285000Y-19593572D01*
X4285000Y-19750714D01*
X4285000Y-19593572D02*
X4299286Y-19565000D01*
X4327857Y-19550714D01*
X4370714Y-19550714D01*
X4399286Y-19565000D01*
X4413571Y-19593572D01*
X4413571Y-19750714D01*
X4999286Y-19436429D02*
X4742143Y-19822143D01*
X5385000Y-19450714D02*
X5413571Y-19450714D01*
X5442143Y-19465000D01*
X5456428Y-19479286D01*
X5470714Y-19507857D01*
X5485000Y-19565000D01*
X5485000Y-19636429D01*
X5470714Y-19693572D01*
X5456428Y-19722143D01*
X5442143Y-19736429D01*
X5413571Y-19750714D01*
X5385000Y-19750714D01*
X5356428Y-19736429D01*
X5342143Y-19722143D01*
X5327857Y-19693572D01*
X5313571Y-19636429D01*
X5313571Y-19565000D01*
X5327857Y-19507857D01*
X5342143Y-19479286D01*
X5356428Y-19465000D01*
X5385000Y-19450714D01*
X5613571Y-19722143D02*
X5627857Y-19736429D01*
X5613571Y-19750714D01*
X5599286Y-19736429D01*
X5613571Y-19722143D01*
X5613571Y-19750714D01*
X5813571Y-19450714D02*
X5842143Y-19450714D01*
X5870714Y-19465000D01*
X5885000Y-19479286D01*
X5899286Y-19507857D01*
X5913571Y-19565000D01*
X5913571Y-19636429D01*
X5899286Y-19693572D01*
X5885000Y-19722143D01*
X5870714Y-19736429D01*
X5842143Y-19750714D01*
X5813571Y-19750714D01*
X5785000Y-19736429D01*
X5770714Y-19722143D01*
X5756428Y-19693572D01*
X5742143Y-19636429D01*
X5742143Y-19565000D01*
X5756428Y-19507857D01*
X5770714Y-19479286D01*
X5785000Y-19465000D01*
X5813571Y-19450714D01*
X6013571Y-19450714D02*
X6199286Y-19450714D01*
X6099286Y-19565000D01*
X6142143Y-19565000D01*
X6170714Y-19579286D01*
X6185000Y-19593572D01*
X6199286Y-19622143D01*
X6199286Y-19693572D01*
X6185000Y-19722143D01*
X6170714Y-19736429D01*
X6142143Y-19750714D01*
X6056428Y-19750714D01*
X6027857Y-19736429D01*
X6013571Y-19722143D01*
X6485000Y-19750714D02*
X6313571Y-19750714D01*
X6399286Y-19750714D02*
X6399286Y-19450714D01*
X6370714Y-19493572D01*
X6342143Y-19522143D01*
X6313571Y-19536429D01*
X6599286Y-19450714D02*
X6599286Y-19507857D01*
X6713571Y-19450714D02*
X6713571Y-19507857D01*
X7156428Y-19865000D02*
X7142143Y-19850714D01*
X7113571Y-19807857D01*
X7099286Y-19779286D01*
X7085000Y-19736429D01*
X7070714Y-19665000D01*
X7070714Y-19607857D01*
X7085000Y-19536429D01*
X7099286Y-19493572D01*
X7113571Y-19465000D01*
X7142143Y-19422143D01*
X7156428Y-19407857D01*
X7399286Y-19550714D02*
X7399286Y-19750714D01*
X7327857Y-19436429D02*
X7256428Y-19650714D01*
X7442143Y-19650714D01*
X7542143Y-19479286D02*
X7556428Y-19465000D01*
X7585000Y-19450714D01*
X7656428Y-19450714D01*
X7685000Y-19465000D01*
X7699286Y-19479286D01*
X7713571Y-19507857D01*
X7713571Y-19536429D01*
X7699286Y-19579286D01*
X7527857Y-19750714D01*
X7713571Y-19750714D01*
X8070714Y-19750714D02*
X8070714Y-19450714D01*
X8199286Y-19750714D02*
X8199286Y-19593572D01*
X8185000Y-19565000D01*
X8156428Y-19550714D01*
X8113571Y-19550714D01*
X8085000Y-19565000D01*
X8070714Y-19579286D01*
X8385000Y-19750714D02*
X8356428Y-19736429D01*
X8342143Y-19722143D01*
X8327857Y-19693572D01*
X8327857Y-19607857D01*
X8342143Y-19579286D01*
X8356428Y-19565000D01*
X8385000Y-19550714D01*
X8427857Y-19550714D01*
X8456428Y-19565000D01*
X8470714Y-19579286D01*
X8485000Y-19607857D01*
X8485000Y-19693572D01*
X8470714Y-19722143D01*
X8456428Y-19736429D01*
X8427857Y-19750714D01*
X8385000Y-19750714D01*
X8656428Y-19750714D02*
X8627857Y-19736429D01*
X8613571Y-19707857D01*
X8613571Y-19450714D01*
X8885000Y-19736429D02*
X8856428Y-19750714D01*
X8799286Y-19750714D01*
X8770714Y-19736429D01*
X8756428Y-19707857D01*
X8756428Y-19593572D01*
X8770714Y-19565000D01*
X8799286Y-19550714D01*
X8856428Y-19550714D01*
X8885000Y-19565000D01*
X8899286Y-19593572D01*
X8899286Y-19622143D01*
X8756428Y-19650714D01*
X9013571Y-19736429D02*
X9042143Y-19750714D01*
X9099286Y-19750714D01*
X9127857Y-19736429D01*
X9142143Y-19707857D01*
X9142143Y-19693572D01*
X9127857Y-19665000D01*
X9099286Y-19650714D01*
X9056428Y-19650714D01*
X9027857Y-19636429D01*
X9013571Y-19607857D01*
X9013571Y-19593572D01*
X9027857Y-19565000D01*
X9056428Y-19550714D01*
X9099286Y-19550714D01*
X9127857Y-19565000D01*
X9242143Y-19865000D02*
X9256428Y-19850714D01*
X9285000Y-19807857D01*
X9299286Y-19779286D01*
X9313571Y-19736429D01*
X9327857Y-19665000D01*
X9327857Y-19607857D01*
X9313571Y-19536429D01*
X9299286Y-19493572D01*
X9285000Y-19465000D01*
X9256428Y-19422143D01*
X9242143Y-19407857D01*
X2470000Y-20011000D02*
G75*
G03X2470000Y-20011000I-42500J0D01*
G01*
X2813571Y-19846714D02*
X2842143Y-19846714D01*
X2870714Y-19861000D01*
X2885000Y-19875286D01*
X2899286Y-19903857D01*
X2913571Y-19961000D01*
X2913571Y-20032429D01*
X2899286Y-20089572D01*
X2885000Y-20118143D01*
X2870714Y-20132429D01*
X2842143Y-20146714D01*
X2813571Y-20146714D01*
X2785000Y-20132429D01*
X2770714Y-20118143D01*
X2756428Y-20089572D01*
X2742143Y-20032429D01*
X2742143Y-19961000D01*
X2756428Y-19903857D01*
X2770714Y-19875286D01*
X2785000Y-19861000D01*
X2813571Y-19846714D01*
X3042143Y-20118143D02*
X3056428Y-20132429D01*
X3042143Y-20146714D01*
X3027857Y-20132429D01*
X3042143Y-20118143D01*
X3042143Y-20146714D01*
X3227857Y-19975286D02*
X3199286Y-19961000D01*
X3185000Y-19946714D01*
X3170714Y-19918143D01*
X3170714Y-19903857D01*
X3185000Y-19875286D01*
X3199286Y-19861000D01*
X3227857Y-19846714D01*
X3285000Y-19846714D01*
X3313571Y-19861000D01*
X3327857Y-19875286D01*
X3342143Y-19903857D01*
X3342143Y-19918143D01*
X3327857Y-19946714D01*
X3313571Y-19961000D01*
X3285000Y-19975286D01*
X3227857Y-19975286D01*
X3199286Y-19989572D01*
X3185000Y-20003857D01*
X3170714Y-20032429D01*
X3170714Y-20089572D01*
X3185000Y-20118143D01*
X3199286Y-20132429D01*
X3227857Y-20146714D01*
X3285000Y-20146714D01*
X3313571Y-20132429D01*
X3327857Y-20118143D01*
X3342143Y-20089572D01*
X3342143Y-20032429D01*
X3327857Y-20003857D01*
X3313571Y-19989572D01*
X3285000Y-19975286D01*
X3613571Y-19846714D02*
X3470714Y-19846714D01*
X3456428Y-19989572D01*
X3470714Y-19975286D01*
X3499286Y-19961000D01*
X3570714Y-19961000D01*
X3599286Y-19975286D01*
X3613571Y-19989572D01*
X3627857Y-20018143D01*
X3627857Y-20089572D01*
X3613571Y-20118143D01*
X3599286Y-20132429D01*
X3570714Y-20146714D01*
X3499286Y-20146714D01*
X3470714Y-20132429D01*
X3456428Y-20118143D01*
X3756428Y-20146714D02*
X3756428Y-19946714D01*
X3756428Y-19975286D02*
X3770714Y-19961000D01*
X3799286Y-19946714D01*
X3842143Y-19946714D01*
X3870714Y-19961000D01*
X3885000Y-19989572D01*
X3885000Y-20146714D01*
X3885000Y-19989572D02*
X3899286Y-19961000D01*
X3927857Y-19946714D01*
X3970714Y-19946714D01*
X3999286Y-19961000D01*
X4013571Y-19989572D01*
X4013571Y-20146714D01*
X4156428Y-20146714D02*
X4156428Y-19946714D01*
X4156428Y-19975286D02*
X4170714Y-19961000D01*
X4199286Y-19946714D01*
X4242143Y-19946714D01*
X4270714Y-19961000D01*
X4285000Y-19989572D01*
X4285000Y-20146714D01*
X4285000Y-19989572D02*
X4299286Y-19961000D01*
X4327857Y-19946714D01*
X4370714Y-19946714D01*
X4399286Y-19961000D01*
X4413571Y-19989572D01*
X4413571Y-20146714D01*
X4999286Y-19832429D02*
X4742143Y-20218143D01*
X5385000Y-19846714D02*
X5413571Y-19846714D01*
X5442143Y-19861000D01*
X5456428Y-19875286D01*
X5470714Y-19903857D01*
X5485000Y-19961000D01*
X5485000Y-20032429D01*
X5470714Y-20089572D01*
X5456428Y-20118143D01*
X5442143Y-20132429D01*
X5413571Y-20146714D01*
X5385000Y-20146714D01*
X5356428Y-20132429D01*
X5342143Y-20118143D01*
X5327857Y-20089572D01*
X5313571Y-20032429D01*
X5313571Y-19961000D01*
X5327857Y-19903857D01*
X5342143Y-19875286D01*
X5356428Y-19861000D01*
X5385000Y-19846714D01*
X5613571Y-20118143D02*
X5627857Y-20132429D01*
X5613571Y-20146714D01*
X5599286Y-20132429D01*
X5613571Y-20118143D01*
X5613571Y-20146714D01*
X5813571Y-19846714D02*
X5842143Y-19846714D01*
X5870714Y-19861000D01*
X5885000Y-19875286D01*
X5899286Y-19903857D01*
X5913571Y-19961000D01*
X5913571Y-20032429D01*
X5899286Y-20089572D01*
X5885000Y-20118143D01*
X5870714Y-20132429D01*
X5842143Y-20146714D01*
X5813571Y-20146714D01*
X5785000Y-20132429D01*
X5770714Y-20118143D01*
X5756428Y-20089572D01*
X5742143Y-20032429D01*
X5742143Y-19961000D01*
X5756428Y-19903857D01*
X5770714Y-19875286D01*
X5785000Y-19861000D01*
X5813571Y-19846714D01*
X6013571Y-19846714D02*
X6199286Y-19846714D01*
X6099286Y-19961000D01*
X6142143Y-19961000D01*
X6170714Y-19975286D01*
X6185000Y-19989572D01*
X6199286Y-20018143D01*
X6199286Y-20089572D01*
X6185000Y-20118143D01*
X6170714Y-20132429D01*
X6142143Y-20146714D01*
X6056428Y-20146714D01*
X6027857Y-20132429D01*
X6013571Y-20118143D01*
X6299286Y-19846714D02*
X6485000Y-19846714D01*
X6385000Y-19961000D01*
X6427857Y-19961000D01*
X6456428Y-19975286D01*
X6470714Y-19989572D01*
X6485000Y-20018143D01*
X6485000Y-20089572D01*
X6470714Y-20118143D01*
X6456428Y-20132429D01*
X6427857Y-20146714D01*
X6342143Y-20146714D01*
X6313571Y-20132429D01*
X6299286Y-20118143D01*
X6599286Y-19846714D02*
X6599286Y-19903857D01*
X6713571Y-19846714D02*
X6713571Y-19903857D01*
X7156428Y-20261000D02*
X7142143Y-20246714D01*
X7113571Y-20203857D01*
X7099286Y-20175286D01*
X7085000Y-20132429D01*
X7070714Y-20061000D01*
X7070714Y-20003857D01*
X7085000Y-19932429D01*
X7099286Y-19889572D01*
X7113571Y-19861000D01*
X7142143Y-19818143D01*
X7156428Y-19803857D01*
X7242143Y-19846714D02*
X7442143Y-19846714D01*
X7313571Y-20146714D01*
X7542143Y-19875286D02*
X7556428Y-19861000D01*
X7585000Y-19846714D01*
X7656428Y-19846714D01*
X7685000Y-19861000D01*
X7699286Y-19875286D01*
X7713571Y-19903857D01*
X7713571Y-19932429D01*
X7699286Y-19975286D01*
X7527857Y-20146714D01*
X7713571Y-20146714D01*
X8070714Y-20146714D02*
X8070714Y-19846714D01*
X8199286Y-20146714D02*
X8199286Y-19989572D01*
X8185000Y-19961000D01*
X8156428Y-19946714D01*
X8113571Y-19946714D01*
X8085000Y-19961000D01*
X8070714Y-19975286D01*
X8385000Y-20146714D02*
X8356428Y-20132429D01*
X8342143Y-20118143D01*
X8327857Y-20089572D01*
X8327857Y-20003857D01*
X8342143Y-19975286D01*
X8356428Y-19961000D01*
X8385000Y-19946714D01*
X8427857Y-19946714D01*
X8456428Y-19961000D01*
X8470714Y-19975286D01*
X8485000Y-20003857D01*
X8485000Y-20089572D01*
X8470714Y-20118143D01*
X8456428Y-20132429D01*
X8427857Y-20146714D01*
X8385000Y-20146714D01*
X8656428Y-20146714D02*
X8627857Y-20132429D01*
X8613571Y-20103857D01*
X8613571Y-19846714D01*
X8885000Y-20132429D02*
X8856428Y-20146714D01*
X8799286Y-20146714D01*
X8770714Y-20132429D01*
X8756428Y-20103857D01*
X8756428Y-19989572D01*
X8770714Y-19961000D01*
X8799286Y-19946714D01*
X8856428Y-19946714D01*
X8885000Y-19961000D01*
X8899286Y-19989572D01*
X8899286Y-20018143D01*
X8756428Y-20046714D01*
X9013571Y-20132429D02*
X9042143Y-20146714D01*
X9099286Y-20146714D01*
X9127857Y-20132429D01*
X9142143Y-20103857D01*
X9142143Y-20089572D01*
X9127857Y-20061000D01*
X9099286Y-20046714D01*
X9056428Y-20046714D01*
X9027857Y-20032429D01*
X9013571Y-20003857D01*
X9013571Y-19989572D01*
X9027857Y-19961000D01*
X9056428Y-19946714D01*
X9099286Y-19946714D01*
X9127857Y-19961000D01*
X9242143Y-20261000D02*
X9256428Y-20246714D01*
X9285000Y-20203857D01*
X9299286Y-20175286D01*
X9313571Y-20132429D01*
X9327857Y-20061000D01*
X9327857Y-20003857D01*
X9313571Y-19932429D01*
X9299286Y-19889572D01*
X9285000Y-19861000D01*
X9256428Y-19818143D01*
X9242143Y-19803857D01*
X2420000Y-20357000D02*
X2420000Y-20457000D01*
X2370000Y-20407000D02*
X2470000Y-20407000D01*
X2913571Y-20542714D02*
X2742143Y-20542714D01*
X2827857Y-20542714D02*
X2827857Y-20242714D01*
X2799286Y-20285572D01*
X2770714Y-20314143D01*
X2742143Y-20328429D01*
X3042143Y-20514143D02*
X3056428Y-20528429D01*
X3042143Y-20542714D01*
X3027857Y-20528429D01*
X3042143Y-20514143D01*
X3042143Y-20542714D01*
X3242143Y-20242714D02*
X3270714Y-20242714D01*
X3299286Y-20257000D01*
X3313571Y-20271286D01*
X3327857Y-20299857D01*
X3342143Y-20357000D01*
X3342143Y-20428429D01*
X3327857Y-20485572D01*
X3313571Y-20514143D01*
X3299286Y-20528429D01*
X3270714Y-20542714D01*
X3242143Y-20542714D01*
X3213571Y-20528429D01*
X3199286Y-20514143D01*
X3185000Y-20485572D01*
X3170714Y-20428429D01*
X3170714Y-20357000D01*
X3185000Y-20299857D01*
X3199286Y-20271286D01*
X3213571Y-20257000D01*
X3242143Y-20242714D01*
X3527857Y-20242714D02*
X3556428Y-20242714D01*
X3585000Y-20257000D01*
X3599286Y-20271286D01*
X3613571Y-20299857D01*
X3627857Y-20357000D01*
X3627857Y-20428429D01*
X3613571Y-20485572D01*
X3599286Y-20514143D01*
X3585000Y-20528429D01*
X3556428Y-20542714D01*
X3527857Y-20542714D01*
X3499286Y-20528429D01*
X3485000Y-20514143D01*
X3470714Y-20485572D01*
X3456428Y-20428429D01*
X3456428Y-20357000D01*
X3470714Y-20299857D01*
X3485000Y-20271286D01*
X3499286Y-20257000D01*
X3527857Y-20242714D01*
X3756428Y-20542714D02*
X3756428Y-20342714D01*
X3756428Y-20371286D02*
X3770714Y-20357000D01*
X3799286Y-20342714D01*
X3842143Y-20342714D01*
X3870714Y-20357000D01*
X3885000Y-20385572D01*
X3885000Y-20542714D01*
X3885000Y-20385572D02*
X3899286Y-20357000D01*
X3927857Y-20342714D01*
X3970714Y-20342714D01*
X3999286Y-20357000D01*
X4013571Y-20385572D01*
X4013571Y-20542714D01*
X4156428Y-20542714D02*
X4156428Y-20342714D01*
X4156428Y-20371286D02*
X4170714Y-20357000D01*
X4199286Y-20342714D01*
X4242143Y-20342714D01*
X4270714Y-20357000D01*
X4285000Y-20385572D01*
X4285000Y-20542714D01*
X4285000Y-20385572D02*
X4299286Y-20357000D01*
X4327857Y-20342714D01*
X4370714Y-20342714D01*
X4399286Y-20357000D01*
X4413571Y-20385572D01*
X4413571Y-20542714D01*
X4999286Y-20228429D02*
X4742143Y-20614143D01*
X5385000Y-20242714D02*
X5413571Y-20242714D01*
X5442143Y-20257000D01*
X5456428Y-20271286D01*
X5470714Y-20299857D01*
X5485000Y-20357000D01*
X5485000Y-20428429D01*
X5470714Y-20485572D01*
X5456428Y-20514143D01*
X5442143Y-20528429D01*
X5413571Y-20542714D01*
X5385000Y-20542714D01*
X5356428Y-20528429D01*
X5342143Y-20514143D01*
X5327857Y-20485572D01*
X5313571Y-20428429D01*
X5313571Y-20357000D01*
X5327857Y-20299857D01*
X5342143Y-20271286D01*
X5356428Y-20257000D01*
X5385000Y-20242714D01*
X5613571Y-20514143D02*
X5627857Y-20528429D01*
X5613571Y-20542714D01*
X5599286Y-20528429D01*
X5613571Y-20514143D01*
X5613571Y-20542714D01*
X5813571Y-20242714D02*
X5842143Y-20242714D01*
X5870714Y-20257000D01*
X5885000Y-20271286D01*
X5899286Y-20299857D01*
X5913571Y-20357000D01*
X5913571Y-20428429D01*
X5899286Y-20485572D01*
X5885000Y-20514143D01*
X5870714Y-20528429D01*
X5842143Y-20542714D01*
X5813571Y-20542714D01*
X5785000Y-20528429D01*
X5770714Y-20514143D01*
X5756428Y-20485572D01*
X5742143Y-20428429D01*
X5742143Y-20357000D01*
X5756428Y-20299857D01*
X5770714Y-20271286D01*
X5785000Y-20257000D01*
X5813571Y-20242714D01*
X6013571Y-20242714D02*
X6199286Y-20242714D01*
X6099286Y-20357000D01*
X6142143Y-20357000D01*
X6170714Y-20371286D01*
X6185000Y-20385572D01*
X6199286Y-20414143D01*
X6199286Y-20485572D01*
X6185000Y-20514143D01*
X6170714Y-20528429D01*
X6142143Y-20542714D01*
X6056428Y-20542714D01*
X6027857Y-20528429D01*
X6013571Y-20514143D01*
X6342143Y-20542714D02*
X6399286Y-20542714D01*
X6427857Y-20528429D01*
X6442143Y-20514143D01*
X6470714Y-20471286D01*
X6485000Y-20414143D01*
X6485000Y-20299857D01*
X6470714Y-20271286D01*
X6456428Y-20257000D01*
X6427857Y-20242714D01*
X6370714Y-20242714D01*
X6342143Y-20257000D01*
X6327857Y-20271286D01*
X6313571Y-20299857D01*
X6313571Y-20371286D01*
X6327857Y-20399857D01*
X6342143Y-20414143D01*
X6370714Y-20428429D01*
X6427857Y-20428429D01*
X6456428Y-20414143D01*
X6470714Y-20399857D01*
X6485000Y-20371286D01*
X6599286Y-20242714D02*
X6599286Y-20299857D01*
X6713571Y-20242714D02*
X6713571Y-20299857D01*
X7156428Y-20657000D02*
X7142143Y-20642714D01*
X7113571Y-20599857D01*
X7099286Y-20571286D01*
X7085000Y-20528429D01*
X7070714Y-20457000D01*
X7070714Y-20399857D01*
X7085000Y-20328429D01*
X7099286Y-20285572D01*
X7113571Y-20257000D01*
X7142143Y-20214143D01*
X7156428Y-20199857D01*
X7427857Y-20542714D02*
X7256428Y-20542714D01*
X7342143Y-20542714D02*
X7342143Y-20242714D01*
X7313571Y-20285572D01*
X7285000Y-20314143D01*
X7256428Y-20328429D01*
X7527857Y-20242714D02*
X7727857Y-20242714D01*
X7599286Y-20542714D01*
X8070714Y-20542714D02*
X8070714Y-20242714D01*
X8199286Y-20542714D02*
X8199286Y-20385572D01*
X8185000Y-20357000D01*
X8156428Y-20342714D01*
X8113571Y-20342714D01*
X8085000Y-20357000D01*
X8070714Y-20371286D01*
X8385000Y-20542714D02*
X8356428Y-20528429D01*
X8342143Y-20514143D01*
X8327857Y-20485572D01*
X8327857Y-20399857D01*
X8342143Y-20371286D01*
X8356428Y-20357000D01*
X8385000Y-20342714D01*
X8427857Y-20342714D01*
X8456428Y-20357000D01*
X8470714Y-20371286D01*
X8485000Y-20399857D01*
X8485000Y-20485572D01*
X8470714Y-20514143D01*
X8456428Y-20528429D01*
X8427857Y-20542714D01*
X8385000Y-20542714D01*
X8656428Y-20542714D02*
X8627857Y-20528429D01*
X8613571Y-20499857D01*
X8613571Y-20242714D01*
X8885000Y-20528429D02*
X8856428Y-20542714D01*
X8799286Y-20542714D01*
X8770714Y-20528429D01*
X8756428Y-20499857D01*
X8756428Y-20385572D01*
X8770714Y-20357000D01*
X8799286Y-20342714D01*
X8856428Y-20342714D01*
X8885000Y-20357000D01*
X8899286Y-20385572D01*
X8899286Y-20414143D01*
X8756428Y-20442714D01*
X9013571Y-20528429D02*
X9042143Y-20542714D01*
X9099286Y-20542714D01*
X9127857Y-20528429D01*
X9142143Y-20499857D01*
X9142143Y-20485572D01*
X9127857Y-20457000D01*
X9099286Y-20442714D01*
X9056428Y-20442714D01*
X9027857Y-20428429D01*
X9013571Y-20399857D01*
X9013571Y-20385572D01*
X9027857Y-20357000D01*
X9056428Y-20342714D01*
X9099286Y-20342714D01*
X9127857Y-20357000D01*
X9242143Y-20657000D02*
X9256428Y-20642714D01*
X9285000Y-20599857D01*
X9299286Y-20571286D01*
X9313571Y-20528429D01*
X9327857Y-20457000D01*
X9327857Y-20399857D01*
X9313571Y-20328429D01*
X9299286Y-20285572D01*
X9285000Y-20257000D01*
X9256428Y-20214143D01*
X9242143Y-20199857D01*
X2453891Y-20841891D02*
X2453891Y-20764109D01*
X2376109Y-20764109D01*
X2376109Y-20841891D01*
X2453891Y-20841891D01*
X2913571Y-20938714D02*
X2742143Y-20938714D01*
X2827857Y-20938714D02*
X2827857Y-20638714D01*
X2799286Y-20681572D01*
X2770714Y-20710143D01*
X2742143Y-20724429D01*
X3042143Y-20910143D02*
X3056428Y-20924429D01*
X3042143Y-20938714D01*
X3027857Y-20924429D01*
X3042143Y-20910143D01*
X3042143Y-20938714D01*
X3342143Y-20938714D02*
X3170714Y-20938714D01*
X3256428Y-20938714D02*
X3256428Y-20638714D01*
X3227857Y-20681572D01*
X3199286Y-20710143D01*
X3170714Y-20724429D01*
X3527857Y-20638714D02*
X3556428Y-20638714D01*
X3585000Y-20653000D01*
X3599286Y-20667286D01*
X3613571Y-20695857D01*
X3627857Y-20753000D01*
X3627857Y-20824429D01*
X3613571Y-20881572D01*
X3599286Y-20910143D01*
X3585000Y-20924429D01*
X3556428Y-20938714D01*
X3527857Y-20938714D01*
X3499286Y-20924429D01*
X3485000Y-20910143D01*
X3470714Y-20881572D01*
X3456428Y-20824429D01*
X3456428Y-20753000D01*
X3470714Y-20695857D01*
X3485000Y-20667286D01*
X3499286Y-20653000D01*
X3527857Y-20638714D01*
X3756428Y-20938714D02*
X3756428Y-20738714D01*
X3756428Y-20767286D02*
X3770714Y-20753000D01*
X3799286Y-20738714D01*
X3842143Y-20738714D01*
X3870714Y-20753000D01*
X3885000Y-20781572D01*
X3885000Y-20938714D01*
X3885000Y-20781572D02*
X3899286Y-20753000D01*
X3927857Y-20738714D01*
X3970714Y-20738714D01*
X3999286Y-20753000D01*
X4013571Y-20781572D01*
X4013571Y-20938714D01*
X4156428Y-20938714D02*
X4156428Y-20738714D01*
X4156428Y-20767286D02*
X4170714Y-20753000D01*
X4199286Y-20738714D01*
X4242143Y-20738714D01*
X4270714Y-20753000D01*
X4285000Y-20781572D01*
X4285000Y-20938714D01*
X4285000Y-20781572D02*
X4299286Y-20753000D01*
X4327857Y-20738714D01*
X4370714Y-20738714D01*
X4399286Y-20753000D01*
X4413571Y-20781572D01*
X4413571Y-20938714D01*
X4999286Y-20624429D02*
X4742143Y-21010143D01*
X5385000Y-20638714D02*
X5413571Y-20638714D01*
X5442143Y-20653000D01*
X5456428Y-20667286D01*
X5470714Y-20695857D01*
X5485000Y-20753000D01*
X5485000Y-20824429D01*
X5470714Y-20881572D01*
X5456428Y-20910143D01*
X5442143Y-20924429D01*
X5413571Y-20938714D01*
X5385000Y-20938714D01*
X5356428Y-20924429D01*
X5342143Y-20910143D01*
X5327857Y-20881572D01*
X5313571Y-20824429D01*
X5313571Y-20753000D01*
X5327857Y-20695857D01*
X5342143Y-20667286D01*
X5356428Y-20653000D01*
X5385000Y-20638714D01*
X5613571Y-20910143D02*
X5627857Y-20924429D01*
X5613571Y-20938714D01*
X5599286Y-20924429D01*
X5613571Y-20910143D01*
X5613571Y-20938714D01*
X5813571Y-20638714D02*
X5842143Y-20638714D01*
X5870714Y-20653000D01*
X5885000Y-20667286D01*
X5899286Y-20695857D01*
X5913571Y-20753000D01*
X5913571Y-20824429D01*
X5899286Y-20881572D01*
X5885000Y-20910143D01*
X5870714Y-20924429D01*
X5842143Y-20938714D01*
X5813571Y-20938714D01*
X5785000Y-20924429D01*
X5770714Y-20910143D01*
X5756428Y-20881572D01*
X5742143Y-20824429D01*
X5742143Y-20753000D01*
X5756428Y-20695857D01*
X5770714Y-20667286D01*
X5785000Y-20653000D01*
X5813571Y-20638714D01*
X6170714Y-20738714D02*
X6170714Y-20938714D01*
X6099286Y-20624429D02*
X6027857Y-20838714D01*
X6213571Y-20838714D01*
X6299286Y-20638714D02*
X6485000Y-20638714D01*
X6385000Y-20753000D01*
X6427857Y-20753000D01*
X6456428Y-20767286D01*
X6470714Y-20781572D01*
X6485000Y-20810143D01*
X6485000Y-20881572D01*
X6470714Y-20910143D01*
X6456428Y-20924429D01*
X6427857Y-20938714D01*
X6342143Y-20938714D01*
X6313571Y-20924429D01*
X6299286Y-20910143D01*
X6599286Y-20638714D02*
X6599286Y-20695857D01*
X6713571Y-20638714D02*
X6713571Y-20695857D01*
X7156428Y-21053000D02*
X7142143Y-21038714D01*
X7113571Y-20995857D01*
X7099286Y-20967286D01*
X7085000Y-20924429D01*
X7070714Y-20853000D01*
X7070714Y-20795857D01*
X7085000Y-20724429D01*
X7099286Y-20681572D01*
X7113571Y-20653000D01*
X7142143Y-20610143D01*
X7156428Y-20595857D01*
X7242143Y-20638714D02*
X7427857Y-20638714D01*
X7327857Y-20753000D01*
X7370714Y-20753000D01*
X7399286Y-20767286D01*
X7413571Y-20781572D01*
X7427857Y-20810143D01*
X7427857Y-20881572D01*
X7413571Y-20910143D01*
X7399286Y-20924429D01*
X7370714Y-20938714D01*
X7285000Y-20938714D01*
X7256428Y-20924429D01*
X7242143Y-20910143D01*
X7785000Y-20938714D02*
X7785000Y-20638714D01*
X7913571Y-20938714D02*
X7913571Y-20781572D01*
X7899286Y-20753000D01*
X7870714Y-20738714D01*
X7827857Y-20738714D01*
X7799286Y-20753000D01*
X7785000Y-20767286D01*
X8099286Y-20938714D02*
X8070714Y-20924429D01*
X8056428Y-20910143D01*
X8042143Y-20881572D01*
X8042143Y-20795857D01*
X8056428Y-20767286D01*
X8070714Y-20753000D01*
X8099286Y-20738714D01*
X8142143Y-20738714D01*
X8170714Y-20753000D01*
X8185000Y-20767286D01*
X8199286Y-20795857D01*
X8199286Y-20881572D01*
X8185000Y-20910143D01*
X8170714Y-20924429D01*
X8142143Y-20938714D01*
X8099286Y-20938714D01*
X8370714Y-20938714D02*
X8342143Y-20924429D01*
X8327857Y-20895857D01*
X8327857Y-20638714D01*
X8599286Y-20924429D02*
X8570714Y-20938714D01*
X8513571Y-20938714D01*
X8485000Y-20924429D01*
X8470714Y-20895857D01*
X8470714Y-20781572D01*
X8485000Y-20753000D01*
X8513571Y-20738714D01*
X8570714Y-20738714D01*
X8599286Y-20753000D01*
X8613571Y-20781572D01*
X8613571Y-20810143D01*
X8470714Y-20838714D01*
X8727857Y-20924429D02*
X8756428Y-20938714D01*
X8813571Y-20938714D01*
X8842143Y-20924429D01*
X8856428Y-20895857D01*
X8856428Y-20881572D01*
X8842143Y-20853000D01*
X8813571Y-20838714D01*
X8770714Y-20838714D01*
X8742143Y-20824429D01*
X8727857Y-20795857D01*
X8727857Y-20781572D01*
X8742143Y-20753000D01*
X8770714Y-20738714D01*
X8813571Y-20738714D01*
X8842143Y-20753000D01*
X8956428Y-21053000D02*
X8970714Y-21038714D01*
X8999286Y-20995857D01*
X9013571Y-20967286D01*
X9027857Y-20924429D01*
X9042143Y-20853000D01*
X9042143Y-20795857D01*
X9027857Y-20724429D01*
X9013571Y-20681572D01*
X8999286Y-20653000D01*
X8970714Y-20610143D01*
X8956428Y-20595857D01*
X2345032Y-21323968D02*
X2470000Y-21199000D01*
X2345032Y-21074032D01*
X2220064Y-21199000D01*
X2345032Y-21323968D01*
X2742143Y-21063286D02*
X2756428Y-21049000D01*
X2785000Y-21034714D01*
X2856428Y-21034714D01*
X2885000Y-21049000D01*
X2899286Y-21063286D01*
X2913571Y-21091857D01*
X2913571Y-21120429D01*
X2899286Y-21163286D01*
X2727857Y-21334714D01*
X2913571Y-21334714D01*
X3042143Y-21306143D02*
X3056428Y-21320429D01*
X3042143Y-21334714D01*
X3027857Y-21320429D01*
X3042143Y-21306143D01*
X3042143Y-21334714D01*
X3327857Y-21034714D02*
X3185000Y-21034714D01*
X3170714Y-21177572D01*
X3185000Y-21163286D01*
X3213571Y-21149000D01*
X3285000Y-21149000D01*
X3313571Y-21163286D01*
X3327857Y-21177572D01*
X3342143Y-21206143D01*
X3342143Y-21277572D01*
X3327857Y-21306143D01*
X3313571Y-21320429D01*
X3285000Y-21334714D01*
X3213571Y-21334714D01*
X3185000Y-21320429D01*
X3170714Y-21306143D01*
X3527857Y-21034714D02*
X3556428Y-21034714D01*
X3585000Y-21049000D01*
X3599286Y-21063286D01*
X3613571Y-21091857D01*
X3627857Y-21149000D01*
X3627857Y-21220429D01*
X3613571Y-21277572D01*
X3599286Y-21306143D01*
X3585000Y-21320429D01*
X3556428Y-21334714D01*
X3527857Y-21334714D01*
X3499286Y-21320429D01*
X3485000Y-21306143D01*
X3470714Y-21277572D01*
X3456428Y-21220429D01*
X3456428Y-21149000D01*
X3470714Y-21091857D01*
X3485000Y-21063286D01*
X3499286Y-21049000D01*
X3527857Y-21034714D01*
X3756428Y-21334714D02*
X3756428Y-21134714D01*
X3756428Y-21163286D02*
X3770714Y-21149000D01*
X3799286Y-21134714D01*
X3842143Y-21134714D01*
X3870714Y-21149000D01*
X3885000Y-21177572D01*
X3885000Y-21334714D01*
X3885000Y-21177572D02*
X3899286Y-21149000D01*
X3927857Y-21134714D01*
X3970714Y-21134714D01*
X3999286Y-21149000D01*
X4013571Y-21177572D01*
X4013571Y-21334714D01*
X4156428Y-21334714D02*
X4156428Y-21134714D01*
X4156428Y-21163286D02*
X4170714Y-21149000D01*
X4199286Y-21134714D01*
X4242143Y-21134714D01*
X4270714Y-21149000D01*
X4285000Y-21177572D01*
X4285000Y-21334714D01*
X4285000Y-21177572D02*
X4299286Y-21149000D01*
X4327857Y-21134714D01*
X4370714Y-21134714D01*
X4399286Y-21149000D01*
X4413571Y-21177572D01*
X4413571Y-21334714D01*
X4999286Y-21020429D02*
X4742143Y-21406143D01*
X5385000Y-21034714D02*
X5413571Y-21034714D01*
X5442143Y-21049000D01*
X5456428Y-21063286D01*
X5470714Y-21091857D01*
X5485000Y-21149000D01*
X5485000Y-21220429D01*
X5470714Y-21277572D01*
X5456428Y-21306143D01*
X5442143Y-21320429D01*
X5413571Y-21334714D01*
X5385000Y-21334714D01*
X5356428Y-21320429D01*
X5342143Y-21306143D01*
X5327857Y-21277572D01*
X5313571Y-21220429D01*
X5313571Y-21149000D01*
X5327857Y-21091857D01*
X5342143Y-21063286D01*
X5356428Y-21049000D01*
X5385000Y-21034714D01*
X5613571Y-21306143D02*
X5627857Y-21320429D01*
X5613571Y-21334714D01*
X5599286Y-21320429D01*
X5613571Y-21306143D01*
X5613571Y-21334714D01*
X5813571Y-21034714D02*
X5842143Y-21034714D01*
X5870714Y-21049000D01*
X5885000Y-21063286D01*
X5899286Y-21091857D01*
X5913571Y-21149000D01*
X5913571Y-21220429D01*
X5899286Y-21277572D01*
X5885000Y-21306143D01*
X5870714Y-21320429D01*
X5842143Y-21334714D01*
X5813571Y-21334714D01*
X5785000Y-21320429D01*
X5770714Y-21306143D01*
X5756428Y-21277572D01*
X5742143Y-21220429D01*
X5742143Y-21149000D01*
X5756428Y-21091857D01*
X5770714Y-21063286D01*
X5785000Y-21049000D01*
X5813571Y-21034714D01*
X6056428Y-21334714D02*
X6113571Y-21334714D01*
X6142143Y-21320429D01*
X6156428Y-21306143D01*
X6185000Y-21263286D01*
X6199286Y-21206143D01*
X6199286Y-21091857D01*
X6185000Y-21063286D01*
X6170714Y-21049000D01*
X6142143Y-21034714D01*
X6085000Y-21034714D01*
X6056428Y-21049000D01*
X6042143Y-21063286D01*
X6027857Y-21091857D01*
X6027857Y-21163286D01*
X6042143Y-21191857D01*
X6056428Y-21206143D01*
X6085000Y-21220429D01*
X6142143Y-21220429D01*
X6170714Y-21206143D01*
X6185000Y-21191857D01*
X6199286Y-21163286D01*
X6370714Y-21163286D02*
X6342143Y-21149000D01*
X6327857Y-21134714D01*
X6313571Y-21106143D01*
X6313571Y-21091857D01*
X6327857Y-21063286D01*
X6342143Y-21049000D01*
X6370714Y-21034714D01*
X6427857Y-21034714D01*
X6456428Y-21049000D01*
X6470714Y-21063286D01*
X6485000Y-21091857D01*
X6485000Y-21106143D01*
X6470714Y-21134714D01*
X6456428Y-21149000D01*
X6427857Y-21163286D01*
X6370714Y-21163286D01*
X6342143Y-21177572D01*
X6327857Y-21191857D01*
X6313571Y-21220429D01*
X6313571Y-21277572D01*
X6327857Y-21306143D01*
X6342143Y-21320429D01*
X6370714Y-21334714D01*
X6427857Y-21334714D01*
X6456428Y-21320429D01*
X6470714Y-21306143D01*
X6485000Y-21277572D01*
X6485000Y-21220429D01*
X6470714Y-21191857D01*
X6456428Y-21177572D01*
X6427857Y-21163286D01*
X6599286Y-21034714D02*
X6599286Y-21091857D01*
X6713571Y-21034714D02*
X6713571Y-21091857D01*
X7156428Y-21449000D02*
X7142143Y-21434714D01*
X7113571Y-21391857D01*
X7099286Y-21363286D01*
X7085000Y-21320429D01*
X7070714Y-21249000D01*
X7070714Y-21191857D01*
X7085000Y-21120429D01*
X7099286Y-21077572D01*
X7113571Y-21049000D01*
X7142143Y-21006143D01*
X7156428Y-20991857D01*
X7413571Y-21034714D02*
X7270714Y-21034714D01*
X7256428Y-21177572D01*
X7270714Y-21163286D01*
X7299286Y-21149000D01*
X7370714Y-21149000D01*
X7399286Y-21163286D01*
X7413571Y-21177572D01*
X7427857Y-21206143D01*
X7427857Y-21277572D01*
X7413571Y-21306143D01*
X7399286Y-21320429D01*
X7370714Y-21334714D01*
X7299286Y-21334714D01*
X7270714Y-21320429D01*
X7256428Y-21306143D01*
X7699286Y-21034714D02*
X7556428Y-21034714D01*
X7542143Y-21177572D01*
X7556428Y-21163286D01*
X7585000Y-21149000D01*
X7656428Y-21149000D01*
X7685000Y-21163286D01*
X7699286Y-21177572D01*
X7713571Y-21206143D01*
X7713571Y-21277572D01*
X7699286Y-21306143D01*
X7685000Y-21320429D01*
X7656428Y-21334714D01*
X7585000Y-21334714D01*
X7556428Y-21320429D01*
X7542143Y-21306143D01*
X8070714Y-21334714D02*
X8070714Y-21034714D01*
X8199286Y-21334714D02*
X8199286Y-21177572D01*
X8185000Y-21149000D01*
X8156428Y-21134714D01*
X8113571Y-21134714D01*
X8085000Y-21149000D01*
X8070714Y-21163286D01*
X8385000Y-21334714D02*
X8356428Y-21320429D01*
X8342143Y-21306143D01*
X8327857Y-21277572D01*
X8327857Y-21191857D01*
X8342143Y-21163286D01*
X8356428Y-21149000D01*
X8385000Y-21134714D01*
X8427857Y-21134714D01*
X8456428Y-21149000D01*
X8470714Y-21163286D01*
X8485000Y-21191857D01*
X8485000Y-21277572D01*
X8470714Y-21306143D01*
X8456428Y-21320429D01*
X8427857Y-21334714D01*
X8385000Y-21334714D01*
X8656428Y-21334714D02*
X8627857Y-21320429D01*
X8613571Y-21291857D01*
X8613571Y-21034714D01*
X8885000Y-21320429D02*
X8856428Y-21334714D01*
X8799286Y-21334714D01*
X8770714Y-21320429D01*
X8756428Y-21291857D01*
X8756428Y-21177572D01*
X8770714Y-21149000D01*
X8799286Y-21134714D01*
X8856428Y-21134714D01*
X8885000Y-21149000D01*
X8899286Y-21177572D01*
X8899286Y-21206143D01*
X8756428Y-21234714D01*
X9013571Y-21320429D02*
X9042143Y-21334714D01*
X9099286Y-21334714D01*
X9127857Y-21320429D01*
X9142143Y-21291857D01*
X9142143Y-21277572D01*
X9127857Y-21249000D01*
X9099286Y-21234714D01*
X9056428Y-21234714D01*
X9027857Y-21220429D01*
X9013571Y-21191857D01*
X9013571Y-21177572D01*
X9027857Y-21149000D01*
X9056428Y-21134714D01*
X9099286Y-21134714D01*
X9127857Y-21149000D01*
X9242143Y-21449000D02*
X9256428Y-21434714D01*
X9285000Y-21391857D01*
X9299286Y-21363286D01*
X9313571Y-21320429D01*
X9327857Y-21249000D01*
X9327857Y-21191857D01*
X9313571Y-21120429D01*
X9299286Y-21077572D01*
X9285000Y-21049000D01*
X9256428Y-21006143D01*
X9242143Y-20991857D01*
M02*
