G04 #@! TF.GenerationSoftware,KiCad,Pcbnew,5.1.5-1.fc30*
G04 #@! TF.CreationDate,2021-07-16T22:34:16+03:00*
G04 #@! TF.ProjectId,light,6c696768-742e-46b6-9963-61645f706362,rev?*
G04 #@! TF.SameCoordinates,Original*
G04 #@! TF.FileFunction,Soldermask,Bot*
G04 #@! TF.FilePolarity,Negative*
%FSLAX46Y46*%
G04 Gerber Fmt 4.6, Leading zero omitted, Abs format (unit mm)*
G04 Created by KiCad (PCBNEW 5.1.5-1.fc30) date 2021-07-16 22:34:16*
%MOMM*%
%LPD*%
G04 APERTURE LIST*
%ADD10C,0.100000*%
G04 APERTURE END LIST*
D10*
G36*
X65814398Y-181500000D02*
G01*
X61500000Y-185814398D01*
X57185602Y-181500000D01*
X61500000Y-177185602D01*
X65814398Y-181500000D01*
G37*
G36*
X52908228Y-179681703D02*
G01*
X53063100Y-179745853D01*
X53202481Y-179838985D01*
X53321015Y-179957519D01*
X53414147Y-180096900D01*
X53478297Y-180251772D01*
X53511000Y-180416184D01*
X53511000Y-180583816D01*
X53478297Y-180748228D01*
X53414147Y-180903100D01*
X53321015Y-181042481D01*
X53202481Y-181161015D01*
X53063100Y-181254147D01*
X52908228Y-181318297D01*
X52743816Y-181351000D01*
X52576184Y-181351000D01*
X52411772Y-181318297D01*
X52256900Y-181254147D01*
X52117519Y-181161015D01*
X51998985Y-181042481D01*
X51905853Y-180903100D01*
X51841703Y-180748228D01*
X51809000Y-180583816D01*
X51809000Y-180416184D01*
X51841703Y-180251772D01*
X51905853Y-180096900D01*
X51998985Y-179957519D01*
X52117519Y-179838985D01*
X52256900Y-179745853D01*
X52411772Y-179681703D01*
X52576184Y-179649000D01*
X52743816Y-179649000D01*
X52908228Y-179681703D01*
G37*
G36*
X42748228Y-179681703D02*
G01*
X42903100Y-179745853D01*
X43042481Y-179838985D01*
X43161015Y-179957519D01*
X43254147Y-180096900D01*
X43318297Y-180251772D01*
X43351000Y-180416184D01*
X43351000Y-180583816D01*
X43318297Y-180748228D01*
X43254147Y-180903100D01*
X43161015Y-181042481D01*
X43042481Y-181161015D01*
X42903100Y-181254147D01*
X42748228Y-181318297D01*
X42583816Y-181351000D01*
X42416184Y-181351000D01*
X42251772Y-181318297D01*
X42096900Y-181254147D01*
X41957519Y-181161015D01*
X41838985Y-181042481D01*
X41745853Y-180903100D01*
X41681703Y-180748228D01*
X41649000Y-180583816D01*
X41649000Y-180416184D01*
X41681703Y-180251772D01*
X41745853Y-180096900D01*
X41838985Y-179957519D01*
X41957519Y-179838985D01*
X42096900Y-179745853D01*
X42251772Y-179681703D01*
X42416184Y-179649000D01*
X42583816Y-179649000D01*
X42748228Y-179681703D01*
G37*
G36*
X67350763Y-173093357D02*
G01*
X67778022Y-173178344D01*
X68333221Y-173408315D01*
X68619021Y-173599281D01*
X68832887Y-173742181D01*
X69257819Y-174167113D01*
X69400719Y-174380979D01*
X69591685Y-174666779D01*
X69769848Y-175096903D01*
X69821656Y-175221979D01*
X69926334Y-175748228D01*
X69938894Y-175811374D01*
X69938894Y-176412318D01*
X69821656Y-177001714D01*
X69591685Y-177556913D01*
X69400719Y-177842713D01*
X69257819Y-178056579D01*
X68832887Y-178481511D01*
X68619021Y-178624411D01*
X68333221Y-178815377D01*
X67778022Y-179045348D01*
X67483324Y-179103967D01*
X67188627Y-179162586D01*
X66587681Y-179162586D01*
X66292984Y-179103967D01*
X65998286Y-179045348D01*
X65443087Y-178815377D01*
X65157287Y-178624411D01*
X64943421Y-178481511D01*
X64518489Y-178056579D01*
X64375589Y-177842713D01*
X64184623Y-177556913D01*
X63954652Y-177001714D01*
X63837414Y-176412318D01*
X63837414Y-175811374D01*
X63849975Y-175748228D01*
X63954652Y-175221979D01*
X64006460Y-175096903D01*
X64184623Y-174666779D01*
X64375589Y-174380979D01*
X64518489Y-174167113D01*
X64943421Y-173742181D01*
X65157287Y-173599281D01*
X65443087Y-173408315D01*
X65998286Y-173178344D01*
X66425545Y-173093357D01*
X66587681Y-173061106D01*
X67188627Y-173061106D01*
X67350763Y-173093357D01*
G37*
G36*
X43351000Y-176351000D02*
G01*
X41649000Y-176351000D01*
X41649000Y-174649000D01*
X43351000Y-174649000D01*
X43351000Y-176351000D01*
G37*
G36*
X50368228Y-174681703D02*
G01*
X50523100Y-174745853D01*
X50662481Y-174838985D01*
X50781015Y-174957519D01*
X50874147Y-175096900D01*
X50938297Y-175251772D01*
X50971000Y-175416184D01*
X50971000Y-175583816D01*
X50938297Y-175748228D01*
X50874147Y-175903100D01*
X50781015Y-176042481D01*
X50662481Y-176161015D01*
X50523100Y-176254147D01*
X50368228Y-176318297D01*
X50203816Y-176351000D01*
X50036184Y-176351000D01*
X49871772Y-176318297D01*
X49716900Y-176254147D01*
X49577519Y-176161015D01*
X49458985Y-176042481D01*
X49365853Y-175903100D01*
X49301703Y-175748228D01*
X49269000Y-175583816D01*
X49269000Y-175416184D01*
X49301703Y-175251772D01*
X49365853Y-175096900D01*
X49458985Y-174957519D01*
X49577519Y-174838985D01*
X49716900Y-174745853D01*
X49871772Y-174681703D01*
X50036184Y-174649000D01*
X50203816Y-174649000D01*
X50368228Y-174681703D01*
G37*
G36*
X72871477Y-167731572D02*
G01*
X73166175Y-167790191D01*
X73721374Y-168020162D01*
X74007174Y-168211128D01*
X74221040Y-168354028D01*
X74645972Y-168778960D01*
X74673856Y-168820692D01*
X74979838Y-169278626D01*
X75209809Y-169833825D01*
X75327047Y-170423221D01*
X75327047Y-171024165D01*
X75209809Y-171613561D01*
X74979838Y-172168760D01*
X74788872Y-172454560D01*
X74645972Y-172668426D01*
X74221040Y-173093358D01*
X74007174Y-173236258D01*
X73721374Y-173427224D01*
X73166175Y-173657195D01*
X72871477Y-173715814D01*
X72576780Y-173774433D01*
X71975834Y-173774433D01*
X71681137Y-173715814D01*
X71386439Y-173657195D01*
X70831240Y-173427224D01*
X70545440Y-173236258D01*
X70331574Y-173093358D01*
X69906642Y-172668426D01*
X69763742Y-172454560D01*
X69572776Y-172168760D01*
X69342805Y-171613561D01*
X69225567Y-171024165D01*
X69225567Y-170423221D01*
X69342805Y-169833825D01*
X69572776Y-169278626D01*
X69878758Y-168820692D01*
X69906642Y-168778960D01*
X70331574Y-168354028D01*
X70545440Y-168211128D01*
X70831240Y-168020162D01*
X71386439Y-167790191D01*
X71681137Y-167731572D01*
X71975834Y-167672953D01*
X72576780Y-167672953D01*
X72871477Y-167731572D01*
G37*
G36*
X45804500Y-168405492D02*
G01*
X45959372Y-168469642D01*
X46098753Y-168562774D01*
X46217287Y-168681308D01*
X46310419Y-168820689D01*
X46374569Y-168975561D01*
X46407272Y-169139973D01*
X46407272Y-169307605D01*
X46374569Y-169472017D01*
X46310419Y-169626889D01*
X46217287Y-169766270D01*
X46098753Y-169884804D01*
X45959372Y-169977936D01*
X45804500Y-170042086D01*
X45640088Y-170074789D01*
X45472456Y-170074789D01*
X45308044Y-170042086D01*
X45153172Y-169977936D01*
X45013791Y-169884804D01*
X44895257Y-169766270D01*
X44802125Y-169626889D01*
X44737975Y-169472017D01*
X44705272Y-169307605D01*
X44705272Y-169139973D01*
X44737975Y-168975561D01*
X44802125Y-168820689D01*
X44895257Y-168681308D01*
X45013791Y-168562774D01*
X45153172Y-168469642D01*
X45308044Y-168405492D01*
X45472456Y-168372789D01*
X45640088Y-168372789D01*
X45804500Y-168405492D01*
G37*
G36*
X50804500Y-168405492D02*
G01*
X50959372Y-168469642D01*
X51098753Y-168562774D01*
X51217287Y-168681308D01*
X51310419Y-168820689D01*
X51374569Y-168975561D01*
X51407272Y-169139973D01*
X51407272Y-169307605D01*
X51374569Y-169472017D01*
X51310419Y-169626889D01*
X51217287Y-169766270D01*
X51098753Y-169884804D01*
X50959372Y-169977936D01*
X50804500Y-170042086D01*
X50640088Y-170074789D01*
X50472456Y-170074789D01*
X50308044Y-170042086D01*
X50153172Y-169977936D01*
X50013791Y-169884804D01*
X49895257Y-169766270D01*
X49802125Y-169626889D01*
X49737975Y-169472017D01*
X49705272Y-169307605D01*
X49705272Y-169139973D01*
X49737975Y-168975561D01*
X49802125Y-168820689D01*
X49895257Y-168681308D01*
X50013791Y-168562774D01*
X50153172Y-168469642D01*
X50308044Y-168405492D01*
X50472456Y-168372789D01*
X50640088Y-168372789D01*
X50804500Y-168405492D01*
G37*
G36*
X64748228Y-165431703D02*
G01*
X64903100Y-165495853D01*
X65042481Y-165588985D01*
X65161015Y-165707519D01*
X65254147Y-165846900D01*
X65318297Y-166001772D01*
X65351000Y-166166184D01*
X65351000Y-166333816D01*
X65318297Y-166498228D01*
X65254147Y-166653100D01*
X65161015Y-166792481D01*
X65042481Y-166911015D01*
X64903100Y-167004147D01*
X64748228Y-167068297D01*
X64583816Y-167101000D01*
X64416184Y-167101000D01*
X64251772Y-167068297D01*
X64096900Y-167004147D01*
X63957519Y-166911015D01*
X63838985Y-166792481D01*
X63745853Y-166653100D01*
X63681703Y-166498228D01*
X63649000Y-166333816D01*
X63649000Y-166166184D01*
X63681703Y-166001772D01*
X63745853Y-165846900D01*
X63838985Y-165707519D01*
X63957519Y-165588985D01*
X64096900Y-165495853D01*
X64251772Y-165431703D01*
X64416184Y-165399000D01*
X64583816Y-165399000D01*
X64748228Y-165431703D01*
G37*
G36*
X41748228Y-163091703D02*
G01*
X41903100Y-163155853D01*
X42042481Y-163248985D01*
X42161015Y-163367519D01*
X42254147Y-163506900D01*
X42318297Y-163661772D01*
X42351000Y-163826184D01*
X42351000Y-163993816D01*
X42318297Y-164158228D01*
X42254147Y-164313100D01*
X42161015Y-164452481D01*
X42042481Y-164571015D01*
X41903100Y-164664147D01*
X41748228Y-164728297D01*
X41583816Y-164761000D01*
X41416184Y-164761000D01*
X41251772Y-164728297D01*
X41096900Y-164664147D01*
X40957519Y-164571015D01*
X40838985Y-164452481D01*
X40745853Y-164313100D01*
X40681703Y-164158228D01*
X40649000Y-163993816D01*
X40649000Y-163826184D01*
X40681703Y-163661772D01*
X40745853Y-163506900D01*
X40838985Y-163367519D01*
X40957519Y-163248985D01*
X41096900Y-163155853D01*
X41251772Y-163091703D01*
X41416184Y-163059000D01*
X41583816Y-163059000D01*
X41748228Y-163091703D01*
G37*
G36*
X53246822Y-162011313D02*
G01*
X53407241Y-162059976D01*
X53555077Y-162138995D01*
X53684659Y-162245341D01*
X53791004Y-162374922D01*
X53791005Y-162374924D01*
X53870024Y-162522758D01*
X53918687Y-162683177D01*
X53931000Y-162808196D01*
X53931000Y-163691803D01*
X53918687Y-163816822D01*
X53870024Y-163977242D01*
X53799114Y-164109906D01*
X53791004Y-164125078D01*
X53684659Y-164254659D01*
X53555078Y-164361004D01*
X53555076Y-164361005D01*
X53407242Y-164440024D01*
X53246823Y-164488687D01*
X53080000Y-164505117D01*
X52913178Y-164488687D01*
X52752759Y-164440024D01*
X52604925Y-164361005D01*
X52604923Y-164361004D01*
X52475342Y-164254659D01*
X52368997Y-164125078D01*
X52360887Y-164109906D01*
X52289977Y-163977242D01*
X52241314Y-163816823D01*
X52229000Y-163691803D01*
X52229000Y-162808197D01*
X52241313Y-162683178D01*
X52289976Y-162522759D01*
X52368995Y-162374923D01*
X52475341Y-162245341D01*
X52604922Y-162138996D01*
X52620094Y-162130886D01*
X52752758Y-162059976D01*
X52913177Y-162011313D01*
X53080000Y-161994883D01*
X53246822Y-162011313D01*
G37*
G36*
X50706822Y-162011313D02*
G01*
X50867241Y-162059976D01*
X51015077Y-162138995D01*
X51144659Y-162245341D01*
X51251004Y-162374922D01*
X51251005Y-162374924D01*
X51330024Y-162522758D01*
X51378687Y-162683177D01*
X51391000Y-162808196D01*
X51391000Y-163691803D01*
X51378687Y-163816822D01*
X51330024Y-163977242D01*
X51259114Y-164109906D01*
X51251004Y-164125078D01*
X51144659Y-164254659D01*
X51015078Y-164361004D01*
X51015076Y-164361005D01*
X50867242Y-164440024D01*
X50706823Y-164488687D01*
X50540000Y-164505117D01*
X50373178Y-164488687D01*
X50212759Y-164440024D01*
X50064925Y-164361005D01*
X50064923Y-164361004D01*
X49935342Y-164254659D01*
X49828997Y-164125078D01*
X49820887Y-164109906D01*
X49749977Y-163977242D01*
X49701314Y-163816823D01*
X49689000Y-163691803D01*
X49689000Y-162808197D01*
X49701313Y-162683178D01*
X49749976Y-162522759D01*
X49828995Y-162374923D01*
X49935341Y-162245341D01*
X50064922Y-162138996D01*
X50080094Y-162130886D01*
X50212758Y-162059976D01*
X50373177Y-162011313D01*
X50540000Y-161994883D01*
X50706822Y-162011313D01*
G37*
G36*
X55786822Y-162011313D02*
G01*
X55947241Y-162059976D01*
X56095077Y-162138995D01*
X56224659Y-162245341D01*
X56331004Y-162374922D01*
X56331005Y-162374924D01*
X56410024Y-162522758D01*
X56458687Y-162683177D01*
X56471000Y-162808196D01*
X56471000Y-163691803D01*
X56458687Y-163816822D01*
X56410024Y-163977242D01*
X56339114Y-164109906D01*
X56331004Y-164125078D01*
X56224659Y-164254659D01*
X56095078Y-164361004D01*
X56095076Y-164361005D01*
X55947242Y-164440024D01*
X55786823Y-164488687D01*
X55620000Y-164505117D01*
X55453178Y-164488687D01*
X55292759Y-164440024D01*
X55144925Y-164361005D01*
X55144923Y-164361004D01*
X55015342Y-164254659D01*
X54908997Y-164125078D01*
X54900887Y-164109906D01*
X54829977Y-163977242D01*
X54781314Y-163816823D01*
X54769000Y-163691803D01*
X54769000Y-162808197D01*
X54781313Y-162683178D01*
X54829976Y-162522759D01*
X54908995Y-162374923D01*
X55015341Y-162245341D01*
X55144922Y-162138996D01*
X55160094Y-162130886D01*
X55292758Y-162059976D01*
X55453177Y-162011313D01*
X55620000Y-161994883D01*
X55786822Y-162011313D01*
G37*
G36*
X48851000Y-164501000D02*
G01*
X47149000Y-164501000D01*
X47149000Y-161999000D01*
X48851000Y-161999000D01*
X48851000Y-164501000D01*
G37*
G36*
X36651000Y-164441000D02*
G01*
X34849000Y-164441000D01*
X34849000Y-162639000D01*
X36651000Y-162639000D01*
X36651000Y-164441000D01*
G37*
G36*
X33323512Y-162643927D02*
G01*
X33472812Y-162673624D01*
X33636784Y-162741544D01*
X33784354Y-162840147D01*
X33909853Y-162965646D01*
X34008456Y-163113216D01*
X34076376Y-163277188D01*
X34111000Y-163451259D01*
X34111000Y-163628741D01*
X34076376Y-163802812D01*
X34008456Y-163966784D01*
X33909853Y-164114354D01*
X33784354Y-164239853D01*
X33636784Y-164338456D01*
X33472812Y-164406376D01*
X33323512Y-164436073D01*
X33298742Y-164441000D01*
X33121258Y-164441000D01*
X33096488Y-164436073D01*
X32947188Y-164406376D01*
X32783216Y-164338456D01*
X32635646Y-164239853D01*
X32510147Y-164114354D01*
X32411544Y-163966784D01*
X32343624Y-163802812D01*
X32309000Y-163628741D01*
X32309000Y-163451259D01*
X32343624Y-163277188D01*
X32411544Y-163113216D01*
X32510147Y-162965646D01*
X32635646Y-162840147D01*
X32783216Y-162741544D01*
X32947188Y-162673624D01*
X33096488Y-162643927D01*
X33121258Y-162639000D01*
X33298742Y-162639000D01*
X33323512Y-162643927D01*
G37*
G36*
X33323512Y-160103927D02*
G01*
X33472812Y-160133624D01*
X33636784Y-160201544D01*
X33784354Y-160300147D01*
X33909853Y-160425646D01*
X34008456Y-160573216D01*
X34076376Y-160737188D01*
X34111000Y-160911259D01*
X34111000Y-161088741D01*
X34076376Y-161262812D01*
X34008456Y-161426784D01*
X33909853Y-161574354D01*
X33784354Y-161699853D01*
X33636784Y-161798456D01*
X33472812Y-161866376D01*
X33323512Y-161896073D01*
X33298742Y-161901000D01*
X33121258Y-161901000D01*
X33096488Y-161896073D01*
X32947188Y-161866376D01*
X32783216Y-161798456D01*
X32635646Y-161699853D01*
X32510147Y-161574354D01*
X32411544Y-161426784D01*
X32343624Y-161262812D01*
X32309000Y-161088741D01*
X32309000Y-160911259D01*
X32343624Y-160737188D01*
X32411544Y-160573216D01*
X32510147Y-160425646D01*
X32635646Y-160300147D01*
X32783216Y-160201544D01*
X32947188Y-160133624D01*
X33096488Y-160103927D01*
X33121258Y-160099000D01*
X33298742Y-160099000D01*
X33323512Y-160103927D01*
G37*
G36*
X35863512Y-160103927D02*
G01*
X36012812Y-160133624D01*
X36176784Y-160201544D01*
X36324354Y-160300147D01*
X36449853Y-160425646D01*
X36548456Y-160573216D01*
X36616376Y-160737188D01*
X36651000Y-160911259D01*
X36651000Y-161088741D01*
X36616376Y-161262812D01*
X36548456Y-161426784D01*
X36449853Y-161574354D01*
X36324354Y-161699853D01*
X36176784Y-161798456D01*
X36012812Y-161866376D01*
X35863512Y-161896073D01*
X35838742Y-161901000D01*
X35661258Y-161901000D01*
X35636488Y-161896073D01*
X35487188Y-161866376D01*
X35323216Y-161798456D01*
X35175646Y-161699853D01*
X35050147Y-161574354D01*
X34951544Y-161426784D01*
X34883624Y-161262812D01*
X34849000Y-161088741D01*
X34849000Y-160911259D01*
X34883624Y-160737188D01*
X34951544Y-160573216D01*
X35050147Y-160425646D01*
X35175646Y-160300147D01*
X35323216Y-160201544D01*
X35487188Y-160133624D01*
X35636488Y-160103927D01*
X35661258Y-160099000D01*
X35838742Y-160099000D01*
X35863512Y-160103927D01*
G37*
G36*
X35863512Y-157563927D02*
G01*
X36012812Y-157593624D01*
X36176784Y-157661544D01*
X36324354Y-157760147D01*
X36449853Y-157885646D01*
X36548456Y-158033216D01*
X36616376Y-158197188D01*
X36651000Y-158371259D01*
X36651000Y-158548741D01*
X36616376Y-158722812D01*
X36548456Y-158886784D01*
X36449853Y-159034354D01*
X36324354Y-159159853D01*
X36176784Y-159258456D01*
X36012812Y-159326376D01*
X35863512Y-159356073D01*
X35838742Y-159361000D01*
X35661258Y-159361000D01*
X35636488Y-159356073D01*
X35487188Y-159326376D01*
X35323216Y-159258456D01*
X35175646Y-159159853D01*
X35050147Y-159034354D01*
X34951544Y-158886784D01*
X34883624Y-158722812D01*
X34849000Y-158548741D01*
X34849000Y-158371259D01*
X34883624Y-158197188D01*
X34951544Y-158033216D01*
X35050147Y-157885646D01*
X35175646Y-157760147D01*
X35323216Y-157661544D01*
X35487188Y-157593624D01*
X35636488Y-157563927D01*
X35661258Y-157559000D01*
X35838742Y-157559000D01*
X35863512Y-157563927D01*
G37*
G36*
X33323512Y-157563927D02*
G01*
X33472812Y-157593624D01*
X33636784Y-157661544D01*
X33784354Y-157760147D01*
X33909853Y-157885646D01*
X34008456Y-158033216D01*
X34076376Y-158197188D01*
X34111000Y-158371259D01*
X34111000Y-158548741D01*
X34076376Y-158722812D01*
X34008456Y-158886784D01*
X33909853Y-159034354D01*
X33784354Y-159159853D01*
X33636784Y-159258456D01*
X33472812Y-159326376D01*
X33323512Y-159356073D01*
X33298742Y-159361000D01*
X33121258Y-159361000D01*
X33096488Y-159356073D01*
X32947188Y-159326376D01*
X32783216Y-159258456D01*
X32635646Y-159159853D01*
X32510147Y-159034354D01*
X32411544Y-158886784D01*
X32343624Y-158722812D01*
X32309000Y-158548741D01*
X32309000Y-158371259D01*
X32343624Y-158197188D01*
X32411544Y-158033216D01*
X32510147Y-157885646D01*
X32635646Y-157760147D01*
X32783216Y-157661544D01*
X32947188Y-157593624D01*
X33096488Y-157563927D01*
X33121258Y-157559000D01*
X33298742Y-157559000D01*
X33323512Y-157563927D01*
G37*
G36*
X64748228Y-155271703D02*
G01*
X64903100Y-155335853D01*
X65042481Y-155428985D01*
X65161015Y-155547519D01*
X65254147Y-155686900D01*
X65318297Y-155841772D01*
X65351000Y-156006184D01*
X65351000Y-156173816D01*
X65318297Y-156338228D01*
X65254147Y-156493100D01*
X65161015Y-156632481D01*
X65042481Y-156751015D01*
X64903100Y-156844147D01*
X64748228Y-156908297D01*
X64583816Y-156941000D01*
X64416184Y-156941000D01*
X64251772Y-156908297D01*
X64096900Y-156844147D01*
X63957519Y-156751015D01*
X63838985Y-156632481D01*
X63745853Y-156493100D01*
X63681703Y-156338228D01*
X63649000Y-156173816D01*
X63649000Y-156006184D01*
X63681703Y-155841772D01*
X63745853Y-155686900D01*
X63838985Y-155547519D01*
X63957519Y-155428985D01*
X64096900Y-155335853D01*
X64251772Y-155271703D01*
X64416184Y-155239000D01*
X64583816Y-155239000D01*
X64748228Y-155271703D01*
G37*
G36*
X53246822Y-154391313D02*
G01*
X53407241Y-154439976D01*
X53555077Y-154518995D01*
X53684659Y-154625341D01*
X53791004Y-154754922D01*
X53791005Y-154754924D01*
X53870024Y-154902758D01*
X53918687Y-155063177D01*
X53931000Y-155188196D01*
X53931000Y-156071803D01*
X53918687Y-156196822D01*
X53870024Y-156357242D01*
X53799114Y-156489906D01*
X53791004Y-156505078D01*
X53684659Y-156634659D01*
X53555078Y-156741004D01*
X53555076Y-156741005D01*
X53407242Y-156820024D01*
X53246823Y-156868687D01*
X53080000Y-156885117D01*
X52913178Y-156868687D01*
X52752759Y-156820024D01*
X52604925Y-156741005D01*
X52604923Y-156741004D01*
X52475342Y-156634659D01*
X52368997Y-156505078D01*
X52360887Y-156489906D01*
X52289977Y-156357242D01*
X52241314Y-156196823D01*
X52229000Y-156071803D01*
X52229000Y-155188197D01*
X52241313Y-155063178D01*
X52289976Y-154902759D01*
X52368995Y-154754923D01*
X52475341Y-154625341D01*
X52604922Y-154518996D01*
X52632703Y-154504147D01*
X52752758Y-154439976D01*
X52913177Y-154391313D01*
X53080000Y-154374883D01*
X53246822Y-154391313D01*
G37*
G36*
X55786822Y-154391313D02*
G01*
X55947241Y-154439976D01*
X56095077Y-154518995D01*
X56224659Y-154625341D01*
X56331004Y-154754922D01*
X56331005Y-154754924D01*
X56410024Y-154902758D01*
X56458687Y-155063177D01*
X56471000Y-155188196D01*
X56471000Y-156071803D01*
X56458687Y-156196822D01*
X56410024Y-156357242D01*
X56339114Y-156489906D01*
X56331004Y-156505078D01*
X56224659Y-156634659D01*
X56095078Y-156741004D01*
X56095076Y-156741005D01*
X55947242Y-156820024D01*
X55786823Y-156868687D01*
X55620000Y-156885117D01*
X55453178Y-156868687D01*
X55292759Y-156820024D01*
X55144925Y-156741005D01*
X55144923Y-156741004D01*
X55015342Y-156634659D01*
X54908997Y-156505078D01*
X54900887Y-156489906D01*
X54829977Y-156357242D01*
X54781314Y-156196823D01*
X54769000Y-156071803D01*
X54769000Y-155188197D01*
X54781313Y-155063178D01*
X54829976Y-154902759D01*
X54908995Y-154754923D01*
X55015341Y-154625341D01*
X55144922Y-154518996D01*
X55172703Y-154504147D01*
X55292758Y-154439976D01*
X55453177Y-154391313D01*
X55620000Y-154374883D01*
X55786822Y-154391313D01*
G37*
G36*
X50706822Y-154391313D02*
G01*
X50867241Y-154439976D01*
X51015077Y-154518995D01*
X51144659Y-154625341D01*
X51251004Y-154754922D01*
X51251005Y-154754924D01*
X51330024Y-154902758D01*
X51378687Y-155063177D01*
X51391000Y-155188196D01*
X51391000Y-156071803D01*
X51378687Y-156196822D01*
X51330024Y-156357242D01*
X51259114Y-156489906D01*
X51251004Y-156505078D01*
X51144659Y-156634659D01*
X51015078Y-156741004D01*
X51015076Y-156741005D01*
X50867242Y-156820024D01*
X50706823Y-156868687D01*
X50540000Y-156885117D01*
X50373178Y-156868687D01*
X50212759Y-156820024D01*
X50064925Y-156741005D01*
X50064923Y-156741004D01*
X49935342Y-156634659D01*
X49828997Y-156505078D01*
X49820887Y-156489906D01*
X49749977Y-156357242D01*
X49701314Y-156196823D01*
X49689000Y-156071803D01*
X49689000Y-155188197D01*
X49701313Y-155063178D01*
X49749976Y-154902759D01*
X49828995Y-154754923D01*
X49935341Y-154625341D01*
X50064922Y-154518996D01*
X50092703Y-154504147D01*
X50212758Y-154439976D01*
X50373177Y-154391313D01*
X50540000Y-154374883D01*
X50706822Y-154391313D01*
G37*
G36*
X48166822Y-154391313D02*
G01*
X48327241Y-154439976D01*
X48475077Y-154518995D01*
X48604659Y-154625341D01*
X48711004Y-154754922D01*
X48711005Y-154754924D01*
X48790024Y-154902758D01*
X48838687Y-155063177D01*
X48851000Y-155188196D01*
X48851000Y-156071803D01*
X48838687Y-156196822D01*
X48790024Y-156357242D01*
X48719114Y-156489906D01*
X48711004Y-156505078D01*
X48604659Y-156634659D01*
X48475078Y-156741004D01*
X48475076Y-156741005D01*
X48327242Y-156820024D01*
X48166823Y-156868687D01*
X48000000Y-156885117D01*
X47833178Y-156868687D01*
X47672759Y-156820024D01*
X47524925Y-156741005D01*
X47524923Y-156741004D01*
X47395342Y-156634659D01*
X47288997Y-156505078D01*
X47280887Y-156489906D01*
X47209977Y-156357242D01*
X47161314Y-156196823D01*
X47149000Y-156071803D01*
X47149000Y-155188197D01*
X47161313Y-155063178D01*
X47209976Y-154902759D01*
X47288995Y-154754923D01*
X47395341Y-154625341D01*
X47524922Y-154518996D01*
X47552703Y-154504147D01*
X47672758Y-154439976D01*
X47833177Y-154391313D01*
X48000000Y-154374883D01*
X48166822Y-154391313D01*
G37*
G36*
X35863512Y-155023927D02*
G01*
X36012812Y-155053624D01*
X36176784Y-155121544D01*
X36324354Y-155220147D01*
X36449853Y-155345646D01*
X36548456Y-155493216D01*
X36616376Y-155657188D01*
X36651000Y-155831259D01*
X36651000Y-156008741D01*
X36616376Y-156182812D01*
X36548456Y-156346784D01*
X36449853Y-156494354D01*
X36324354Y-156619853D01*
X36176784Y-156718456D01*
X36012812Y-156786376D01*
X35863512Y-156816073D01*
X35838742Y-156821000D01*
X35661258Y-156821000D01*
X35636488Y-156816073D01*
X35487188Y-156786376D01*
X35323216Y-156718456D01*
X35175646Y-156619853D01*
X35050147Y-156494354D01*
X34951544Y-156346784D01*
X34883624Y-156182812D01*
X34849000Y-156008741D01*
X34849000Y-155831259D01*
X34883624Y-155657188D01*
X34951544Y-155493216D01*
X35050147Y-155345646D01*
X35175646Y-155220147D01*
X35323216Y-155121544D01*
X35487188Y-155053624D01*
X35636488Y-155023927D01*
X35661258Y-155019000D01*
X35838742Y-155019000D01*
X35863512Y-155023927D01*
G37*
G36*
X33323512Y-155023927D02*
G01*
X33472812Y-155053624D01*
X33636784Y-155121544D01*
X33784354Y-155220147D01*
X33909853Y-155345646D01*
X34008456Y-155493216D01*
X34076376Y-155657188D01*
X34111000Y-155831259D01*
X34111000Y-156008741D01*
X34076376Y-156182812D01*
X34008456Y-156346784D01*
X33909853Y-156494354D01*
X33784354Y-156619853D01*
X33636784Y-156718456D01*
X33472812Y-156786376D01*
X33323512Y-156816073D01*
X33298742Y-156821000D01*
X33121258Y-156821000D01*
X33096488Y-156816073D01*
X32947188Y-156786376D01*
X32783216Y-156718456D01*
X32635646Y-156619853D01*
X32510147Y-156494354D01*
X32411544Y-156346784D01*
X32343624Y-156182812D01*
X32309000Y-156008741D01*
X32309000Y-155831259D01*
X32343624Y-155657188D01*
X32411544Y-155493216D01*
X32510147Y-155345646D01*
X32635646Y-155220147D01*
X32783216Y-155121544D01*
X32947188Y-155053624D01*
X33096488Y-155023927D01*
X33121258Y-155019000D01*
X33298742Y-155019000D01*
X33323512Y-155023927D01*
G37*
G36*
X41748228Y-152931703D02*
G01*
X41903100Y-152995853D01*
X42042481Y-153088985D01*
X42161015Y-153207519D01*
X42254147Y-153346900D01*
X42318297Y-153501772D01*
X42351000Y-153666184D01*
X42351000Y-153833816D01*
X42318297Y-153998228D01*
X42254147Y-154153100D01*
X42161015Y-154292481D01*
X42042481Y-154411015D01*
X41903100Y-154504147D01*
X41748228Y-154568297D01*
X41583816Y-154601000D01*
X41416184Y-154601000D01*
X41251772Y-154568297D01*
X41096900Y-154504147D01*
X40957519Y-154411015D01*
X40838985Y-154292481D01*
X40745853Y-154153100D01*
X40681703Y-153998228D01*
X40649000Y-153833816D01*
X40649000Y-153666184D01*
X40681703Y-153501772D01*
X40745853Y-153346900D01*
X40838985Y-153207519D01*
X40957519Y-153088985D01*
X41096900Y-152995853D01*
X41251772Y-152931703D01*
X41416184Y-152899000D01*
X41583816Y-152899000D01*
X41748228Y-152931703D01*
G37*
G36*
X33323512Y-152483927D02*
G01*
X33472812Y-152513624D01*
X33636784Y-152581544D01*
X33784354Y-152680147D01*
X33909853Y-152805646D01*
X34008456Y-152953216D01*
X34076376Y-153117188D01*
X34111000Y-153291259D01*
X34111000Y-153468741D01*
X34076376Y-153642812D01*
X34008456Y-153806784D01*
X33909853Y-153954354D01*
X33784354Y-154079853D01*
X33636784Y-154178456D01*
X33472812Y-154246376D01*
X33323512Y-154276073D01*
X33298742Y-154281000D01*
X33121258Y-154281000D01*
X33096488Y-154276073D01*
X32947188Y-154246376D01*
X32783216Y-154178456D01*
X32635646Y-154079853D01*
X32510147Y-153954354D01*
X32411544Y-153806784D01*
X32343624Y-153642812D01*
X32309000Y-153468741D01*
X32309000Y-153291259D01*
X32343624Y-153117188D01*
X32411544Y-152953216D01*
X32510147Y-152805646D01*
X32635646Y-152680147D01*
X32783216Y-152581544D01*
X32947188Y-152513624D01*
X33096488Y-152483927D01*
X33121258Y-152479000D01*
X33298742Y-152479000D01*
X33323512Y-152483927D01*
G37*
G36*
X35863512Y-152483927D02*
G01*
X36012812Y-152513624D01*
X36176784Y-152581544D01*
X36324354Y-152680147D01*
X36449853Y-152805646D01*
X36548456Y-152953216D01*
X36616376Y-153117188D01*
X36651000Y-153291259D01*
X36651000Y-153468741D01*
X36616376Y-153642812D01*
X36548456Y-153806784D01*
X36449853Y-153954354D01*
X36324354Y-154079853D01*
X36176784Y-154178456D01*
X36012812Y-154246376D01*
X35863512Y-154276073D01*
X35838742Y-154281000D01*
X35661258Y-154281000D01*
X35636488Y-154276073D01*
X35487188Y-154246376D01*
X35323216Y-154178456D01*
X35175646Y-154079853D01*
X35050147Y-153954354D01*
X34951544Y-153806784D01*
X34883624Y-153642812D01*
X34849000Y-153468741D01*
X34849000Y-153291259D01*
X34883624Y-153117188D01*
X34951544Y-152953216D01*
X35050147Y-152805646D01*
X35175646Y-152680147D01*
X35323216Y-152581544D01*
X35487188Y-152513624D01*
X35636488Y-152483927D01*
X35661258Y-152479000D01*
X35838742Y-152479000D01*
X35863512Y-152483927D01*
G37*
G36*
X35863512Y-149943927D02*
G01*
X36012812Y-149973624D01*
X36176784Y-150041544D01*
X36324354Y-150140147D01*
X36449853Y-150265646D01*
X36548456Y-150413216D01*
X36616376Y-150577188D01*
X36651000Y-150751259D01*
X36651000Y-150928741D01*
X36616376Y-151102812D01*
X36548456Y-151266784D01*
X36449853Y-151414354D01*
X36324354Y-151539853D01*
X36176784Y-151638456D01*
X36012812Y-151706376D01*
X35863512Y-151736073D01*
X35838742Y-151741000D01*
X35661258Y-151741000D01*
X35636488Y-151736073D01*
X35487188Y-151706376D01*
X35323216Y-151638456D01*
X35175646Y-151539853D01*
X35050147Y-151414354D01*
X34951544Y-151266784D01*
X34883624Y-151102812D01*
X34849000Y-150928741D01*
X34849000Y-150751259D01*
X34883624Y-150577188D01*
X34951544Y-150413216D01*
X35050147Y-150265646D01*
X35175646Y-150140147D01*
X35323216Y-150041544D01*
X35487188Y-149973624D01*
X35636488Y-149943927D01*
X35661258Y-149939000D01*
X35838742Y-149939000D01*
X35863512Y-149943927D01*
G37*
G36*
X33323512Y-149943927D02*
G01*
X33472812Y-149973624D01*
X33636784Y-150041544D01*
X33784354Y-150140147D01*
X33909853Y-150265646D01*
X34008456Y-150413216D01*
X34076376Y-150577188D01*
X34111000Y-150751259D01*
X34111000Y-150928741D01*
X34076376Y-151102812D01*
X34008456Y-151266784D01*
X33909853Y-151414354D01*
X33784354Y-151539853D01*
X33636784Y-151638456D01*
X33472812Y-151706376D01*
X33323512Y-151736073D01*
X33298742Y-151741000D01*
X33121258Y-151741000D01*
X33096488Y-151736073D01*
X32947188Y-151706376D01*
X32783216Y-151638456D01*
X32635646Y-151539853D01*
X32510147Y-151414354D01*
X32411544Y-151266784D01*
X32343624Y-151102812D01*
X32309000Y-150928741D01*
X32309000Y-150751259D01*
X32343624Y-150577188D01*
X32411544Y-150413216D01*
X32510147Y-150265646D01*
X32635646Y-150140147D01*
X32783216Y-150041544D01*
X32947188Y-149973624D01*
X33096488Y-149943927D01*
X33121258Y-149939000D01*
X33298742Y-149939000D01*
X33323512Y-149943927D01*
G37*
G36*
X33323512Y-147403927D02*
G01*
X33472812Y-147433624D01*
X33636784Y-147501544D01*
X33784354Y-147600147D01*
X33909853Y-147725646D01*
X34008456Y-147873216D01*
X34076376Y-148037188D01*
X34111000Y-148211259D01*
X34111000Y-148388741D01*
X34076376Y-148562812D01*
X34008456Y-148726784D01*
X33909853Y-148874354D01*
X33784354Y-148999853D01*
X33636784Y-149098456D01*
X33472812Y-149166376D01*
X33323512Y-149196073D01*
X33298742Y-149201000D01*
X33121258Y-149201000D01*
X33096488Y-149196073D01*
X32947188Y-149166376D01*
X32783216Y-149098456D01*
X32635646Y-148999853D01*
X32510147Y-148874354D01*
X32411544Y-148726784D01*
X32343624Y-148562812D01*
X32309000Y-148388741D01*
X32309000Y-148211259D01*
X32343624Y-148037188D01*
X32411544Y-147873216D01*
X32510147Y-147725646D01*
X32635646Y-147600147D01*
X32783216Y-147501544D01*
X32947188Y-147433624D01*
X33096488Y-147403927D01*
X33121258Y-147399000D01*
X33298742Y-147399000D01*
X33323512Y-147403927D01*
G37*
G36*
X35863512Y-147403927D02*
G01*
X36012812Y-147433624D01*
X36176784Y-147501544D01*
X36324354Y-147600147D01*
X36449853Y-147725646D01*
X36548456Y-147873216D01*
X36616376Y-148037188D01*
X36651000Y-148211259D01*
X36651000Y-148388741D01*
X36616376Y-148562812D01*
X36548456Y-148726784D01*
X36449853Y-148874354D01*
X36324354Y-148999853D01*
X36176784Y-149098456D01*
X36012812Y-149166376D01*
X35863512Y-149196073D01*
X35838742Y-149201000D01*
X35661258Y-149201000D01*
X35636488Y-149196073D01*
X35487188Y-149166376D01*
X35323216Y-149098456D01*
X35175646Y-148999853D01*
X35050147Y-148874354D01*
X34951544Y-148726784D01*
X34883624Y-148562812D01*
X34849000Y-148388741D01*
X34849000Y-148211259D01*
X34883624Y-148037188D01*
X34951544Y-147873216D01*
X35050147Y-147725646D01*
X35175646Y-147600147D01*
X35323216Y-147501544D01*
X35487188Y-147433624D01*
X35636488Y-147403927D01*
X35661258Y-147399000D01*
X35838742Y-147399000D01*
X35863512Y-147403927D01*
G37*
G36*
X54851000Y-148351000D02*
G01*
X53149000Y-148351000D01*
X53149000Y-146649000D01*
X54851000Y-146649000D01*
X54851000Y-148351000D01*
G37*
G36*
X51748228Y-146681703D02*
G01*
X51903100Y-146745853D01*
X52042481Y-146838985D01*
X52161015Y-146957519D01*
X52254147Y-147096900D01*
X52318297Y-147251772D01*
X52351000Y-147416184D01*
X52351000Y-147583816D01*
X52318297Y-147748228D01*
X52254147Y-147903100D01*
X52161015Y-148042481D01*
X52042481Y-148161015D01*
X51903100Y-148254147D01*
X51748228Y-148318297D01*
X51583816Y-148351000D01*
X51416184Y-148351000D01*
X51251772Y-148318297D01*
X51096900Y-148254147D01*
X50957519Y-148161015D01*
X50838985Y-148042481D01*
X50745853Y-147903100D01*
X50681703Y-147748228D01*
X50649000Y-147583816D01*
X50649000Y-147416184D01*
X50681703Y-147251772D01*
X50745853Y-147096900D01*
X50838985Y-146957519D01*
X50957519Y-146838985D01*
X51096900Y-146745853D01*
X51251772Y-146681703D01*
X51416184Y-146649000D01*
X51583816Y-146649000D01*
X51748228Y-146681703D01*
G37*
G36*
X33323512Y-144863927D02*
G01*
X33472812Y-144893624D01*
X33636784Y-144961544D01*
X33784354Y-145060147D01*
X33909853Y-145185646D01*
X34008456Y-145333216D01*
X34076376Y-145497188D01*
X34111000Y-145671259D01*
X34111000Y-145848741D01*
X34076376Y-146022812D01*
X34008456Y-146186784D01*
X33909853Y-146334354D01*
X33784354Y-146459853D01*
X33636784Y-146558456D01*
X33472812Y-146626376D01*
X33323512Y-146656073D01*
X33298742Y-146661000D01*
X33121258Y-146661000D01*
X33096488Y-146656073D01*
X32947188Y-146626376D01*
X32783216Y-146558456D01*
X32635646Y-146459853D01*
X32510147Y-146334354D01*
X32411544Y-146186784D01*
X32343624Y-146022812D01*
X32309000Y-145848741D01*
X32309000Y-145671259D01*
X32343624Y-145497188D01*
X32411544Y-145333216D01*
X32510147Y-145185646D01*
X32635646Y-145060147D01*
X32783216Y-144961544D01*
X32947188Y-144893624D01*
X33096488Y-144863927D01*
X33121258Y-144859000D01*
X33298742Y-144859000D01*
X33323512Y-144863927D01*
G37*
G36*
X35863512Y-144863927D02*
G01*
X36012812Y-144893624D01*
X36176784Y-144961544D01*
X36324354Y-145060147D01*
X36449853Y-145185646D01*
X36548456Y-145333216D01*
X36616376Y-145497188D01*
X36651000Y-145671259D01*
X36651000Y-145848741D01*
X36616376Y-146022812D01*
X36548456Y-146186784D01*
X36449853Y-146334354D01*
X36324354Y-146459853D01*
X36176784Y-146558456D01*
X36012812Y-146626376D01*
X35863512Y-146656073D01*
X35838742Y-146661000D01*
X35661258Y-146661000D01*
X35636488Y-146656073D01*
X35487188Y-146626376D01*
X35323216Y-146558456D01*
X35175646Y-146459853D01*
X35050147Y-146334354D01*
X34951544Y-146186784D01*
X34883624Y-146022812D01*
X34849000Y-145848741D01*
X34849000Y-145671259D01*
X34883624Y-145497188D01*
X34951544Y-145333216D01*
X35050147Y-145185646D01*
X35175646Y-145060147D01*
X35323216Y-144961544D01*
X35487188Y-144893624D01*
X35636488Y-144863927D01*
X35661258Y-144859000D01*
X35838742Y-144859000D01*
X35863512Y-144863927D01*
G37*
G36*
X56748228Y-139431703D02*
G01*
X56903100Y-139495853D01*
X57042481Y-139588985D01*
X57161015Y-139707519D01*
X57254147Y-139846900D01*
X57318297Y-140001772D01*
X57351000Y-140166184D01*
X57351000Y-140333816D01*
X57318297Y-140498228D01*
X57254147Y-140653100D01*
X57161015Y-140792481D01*
X57042481Y-140911015D01*
X56903100Y-141004147D01*
X56748228Y-141068297D01*
X56583816Y-141101000D01*
X56416184Y-141101000D01*
X56251772Y-141068297D01*
X56096900Y-141004147D01*
X55957519Y-140911015D01*
X55838985Y-140792481D01*
X55745853Y-140653100D01*
X55681703Y-140498228D01*
X55649000Y-140333816D01*
X55649000Y-140166184D01*
X55681703Y-140001772D01*
X55745853Y-139846900D01*
X55838985Y-139707519D01*
X55957519Y-139588985D01*
X56096900Y-139495853D01*
X56251772Y-139431703D01*
X56416184Y-139399000D01*
X56583816Y-139399000D01*
X56748228Y-139431703D01*
G37*
G36*
X51748228Y-139431703D02*
G01*
X51903100Y-139495853D01*
X52042481Y-139588985D01*
X52161015Y-139707519D01*
X52254147Y-139846900D01*
X52318297Y-140001772D01*
X52351000Y-140166184D01*
X52351000Y-140333816D01*
X52318297Y-140498228D01*
X52254147Y-140653100D01*
X52161015Y-140792481D01*
X52042481Y-140911015D01*
X51903100Y-141004147D01*
X51748228Y-141068297D01*
X51583816Y-141101000D01*
X51416184Y-141101000D01*
X51251772Y-141068297D01*
X51096900Y-141004147D01*
X50957519Y-140911015D01*
X50838985Y-140792481D01*
X50745853Y-140653100D01*
X50681703Y-140498228D01*
X50649000Y-140333816D01*
X50649000Y-140166184D01*
X50681703Y-140001772D01*
X50745853Y-139846900D01*
X50838985Y-139707519D01*
X50957519Y-139588985D01*
X51096900Y-139495853D01*
X51251772Y-139431703D01*
X51416184Y-139399000D01*
X51583816Y-139399000D01*
X51748228Y-139431703D01*
G37*
G36*
X35263783Y-132474288D02*
G01*
X35558481Y-132532907D01*
X36113680Y-132762878D01*
X36399012Y-132953531D01*
X36613346Y-133096744D01*
X37038278Y-133521676D01*
X37181178Y-133735542D01*
X37372144Y-134021342D01*
X37602115Y-134576541D01*
X37719353Y-135165937D01*
X37719353Y-135766881D01*
X37602115Y-136356277D01*
X37372144Y-136911476D01*
X37181178Y-137197276D01*
X37038278Y-137411142D01*
X36613346Y-137836074D01*
X36399480Y-137978974D01*
X36113680Y-138169940D01*
X35558481Y-138399911D01*
X35263783Y-138458530D01*
X34969086Y-138517149D01*
X34368140Y-138517149D01*
X34073443Y-138458530D01*
X33778745Y-138399911D01*
X33223546Y-138169940D01*
X32937746Y-137978974D01*
X32723880Y-137836074D01*
X32298948Y-137411142D01*
X32156048Y-137197276D01*
X31965082Y-136911476D01*
X31735111Y-136356277D01*
X31617873Y-135766881D01*
X31617873Y-135165937D01*
X31735111Y-134576541D01*
X31965082Y-134021342D01*
X32156048Y-133735542D01*
X32298948Y-133521676D01*
X32723880Y-133096744D01*
X32938214Y-132953531D01*
X33223546Y-132762878D01*
X33778745Y-132532907D01*
X34073443Y-132474288D01*
X34368140Y-132415669D01*
X34969086Y-132415669D01*
X35263783Y-132474288D01*
G37*
G36*
X63498228Y-134931703D02*
G01*
X63653100Y-134995853D01*
X63792481Y-135088985D01*
X63911015Y-135207519D01*
X64004147Y-135346900D01*
X64068297Y-135501772D01*
X64101000Y-135666184D01*
X64101000Y-135833816D01*
X64068297Y-135998228D01*
X64004147Y-136153100D01*
X63911015Y-136292481D01*
X63792481Y-136411015D01*
X63653100Y-136504147D01*
X63498228Y-136568297D01*
X63333816Y-136601000D01*
X63166184Y-136601000D01*
X63001772Y-136568297D01*
X62846900Y-136504147D01*
X62707519Y-136411015D01*
X62588985Y-136292481D01*
X62495853Y-136153100D01*
X62431703Y-135998228D01*
X62399000Y-135833816D01*
X62399000Y-135666184D01*
X62431703Y-135501772D01*
X62495853Y-135346900D01*
X62588985Y-135207519D01*
X62707519Y-135088985D01*
X62846900Y-134995853D01*
X63001772Y-134931703D01*
X63166184Y-134899000D01*
X63333816Y-134899000D01*
X63498228Y-134931703D01*
G37*
G36*
X43748228Y-134181703D02*
G01*
X43903100Y-134245853D01*
X44042481Y-134338985D01*
X44161015Y-134457519D01*
X44254147Y-134596900D01*
X44318297Y-134751772D01*
X44351000Y-134916184D01*
X44351000Y-135083816D01*
X44318297Y-135248228D01*
X44254147Y-135403100D01*
X44161015Y-135542481D01*
X44042481Y-135661015D01*
X43903100Y-135754147D01*
X43748228Y-135818297D01*
X43583816Y-135851000D01*
X43416184Y-135851000D01*
X43251772Y-135818297D01*
X43096900Y-135754147D01*
X42957519Y-135661015D01*
X42838985Y-135542481D01*
X42745853Y-135403100D01*
X42681703Y-135248228D01*
X42649000Y-135083816D01*
X42649000Y-134916184D01*
X42681703Y-134751772D01*
X42745853Y-134596900D01*
X42838985Y-134457519D01*
X42957519Y-134338985D01*
X43096900Y-134245853D01*
X43251772Y-134181703D01*
X43416184Y-134149000D01*
X43583816Y-134149000D01*
X43748228Y-134181703D01*
G37*
G36*
X56526719Y-133213520D02*
G01*
X56715880Y-133270901D01*
X56715883Y-133270902D01*
X56808333Y-133320318D01*
X56890212Y-133364083D01*
X57043015Y-133489485D01*
X57168417Y-133642288D01*
X57261599Y-133816619D01*
X57318980Y-134005780D01*
X57333500Y-134153206D01*
X57333500Y-134346793D01*
X57318980Y-134494219D01*
X57287832Y-134596900D01*
X57261598Y-134683383D01*
X57225043Y-134751772D01*
X57168417Y-134857712D01*
X57043015Y-135010515D01*
X56890212Y-135135917D01*
X56715881Y-135229099D01*
X56526720Y-135286480D01*
X56330000Y-135305855D01*
X56133281Y-135286480D01*
X55944120Y-135229099D01*
X55769788Y-135135917D01*
X55616985Y-135010515D01*
X55491583Y-134857712D01*
X55398401Y-134683381D01*
X55341020Y-134494220D01*
X55326500Y-134346794D01*
X55326500Y-134153207D01*
X55341020Y-134005781D01*
X55398401Y-133816620D01*
X55398402Y-133816617D01*
X55447818Y-133724167D01*
X55491583Y-133642288D01*
X55616985Y-133489485D01*
X55769788Y-133364083D01*
X55944119Y-133270901D01*
X56133280Y-133213520D01*
X56330000Y-133194145D01*
X56526719Y-133213520D01*
G37*
G36*
X52253500Y-135301000D02*
G01*
X50246500Y-135301000D01*
X50246500Y-133199000D01*
X52253500Y-133199000D01*
X52253500Y-135301000D01*
G37*
G36*
X215300740Y-133300740D02*
G01*
X209199260Y-133300740D01*
X209199260Y-127199260D01*
X215300740Y-127199260D01*
X215300740Y-133300740D01*
G37*
G36*
X265300740Y-133300740D02*
G01*
X259199260Y-133300740D01*
X259199260Y-127199260D01*
X265300740Y-127199260D01*
X265300740Y-133300740D01*
G37*
G36*
X270465170Y-127257879D02*
G01*
X270759868Y-127316498D01*
X271315067Y-127546469D01*
X271600867Y-127737435D01*
X271814733Y-127880335D01*
X272239665Y-128305267D01*
X272382565Y-128519133D01*
X272573531Y-128804933D01*
X272803502Y-129360132D01*
X272814261Y-129414220D01*
X272920740Y-129949527D01*
X272920740Y-130550473D01*
X272897723Y-130666185D01*
X272803502Y-131139868D01*
X272573531Y-131695067D01*
X272382565Y-131980867D01*
X272239665Y-132194733D01*
X271814733Y-132619665D01*
X271600867Y-132762565D01*
X271315067Y-132953531D01*
X270759868Y-133183502D01*
X270608957Y-133213520D01*
X270170473Y-133300740D01*
X269569527Y-133300740D01*
X269131043Y-133213520D01*
X268980132Y-133183502D01*
X268424933Y-132953531D01*
X268139133Y-132762565D01*
X267925267Y-132619665D01*
X267500335Y-132194733D01*
X267357435Y-131980867D01*
X267166469Y-131695067D01*
X266936498Y-131139868D01*
X266842277Y-130666185D01*
X266819260Y-130550473D01*
X266819260Y-129949527D01*
X266925739Y-129414220D01*
X266936498Y-129360132D01*
X267166469Y-128804933D01*
X267357435Y-128519133D01*
X267500335Y-128305267D01*
X267925267Y-127880335D01*
X268139133Y-127737435D01*
X268424933Y-127546469D01*
X268980132Y-127316498D01*
X269274830Y-127257879D01*
X269569527Y-127199260D01*
X270170473Y-127199260D01*
X270465170Y-127257879D01*
G37*
G36*
X220465170Y-127257879D02*
G01*
X220759868Y-127316498D01*
X221315067Y-127546469D01*
X221600867Y-127737435D01*
X221814733Y-127880335D01*
X222239665Y-128305267D01*
X222382565Y-128519133D01*
X222573531Y-128804933D01*
X222803502Y-129360132D01*
X222814261Y-129414220D01*
X222920740Y-129949527D01*
X222920740Y-130550473D01*
X222897723Y-130666185D01*
X222803502Y-131139868D01*
X222573531Y-131695067D01*
X222382565Y-131980867D01*
X222239665Y-132194733D01*
X221814733Y-132619665D01*
X221600867Y-132762565D01*
X221315067Y-132953531D01*
X220759868Y-133183502D01*
X220608957Y-133213520D01*
X220170473Y-133300740D01*
X219569527Y-133300740D01*
X219131043Y-133213520D01*
X218980132Y-133183502D01*
X218424933Y-132953531D01*
X218139133Y-132762565D01*
X217925267Y-132619665D01*
X217500335Y-132194733D01*
X217357435Y-131980867D01*
X217166469Y-131695067D01*
X216936498Y-131139868D01*
X216842277Y-130666185D01*
X216819260Y-130550473D01*
X216819260Y-129949527D01*
X216925739Y-129414220D01*
X216936498Y-129360132D01*
X217166469Y-128804933D01*
X217357435Y-128519133D01*
X217500335Y-128305267D01*
X217925267Y-127880335D01*
X218139133Y-127737435D01*
X218424933Y-127546469D01*
X218980132Y-127316498D01*
X219274830Y-127257879D01*
X219569527Y-127199260D01*
X220170473Y-127199260D01*
X220465170Y-127257879D01*
G37*
G36*
X159050740Y-133300740D02*
G01*
X152949260Y-133300740D01*
X152949260Y-127199260D01*
X159050740Y-127199260D01*
X159050740Y-133300740D01*
G37*
G36*
X164215170Y-127257879D02*
G01*
X164509868Y-127316498D01*
X165065067Y-127546469D01*
X165350867Y-127737435D01*
X165564733Y-127880335D01*
X165989665Y-128305267D01*
X166132565Y-128519133D01*
X166323531Y-128804933D01*
X166553502Y-129360132D01*
X166564261Y-129414220D01*
X166670740Y-129949527D01*
X166670740Y-130550473D01*
X166647723Y-130666185D01*
X166553502Y-131139868D01*
X166323531Y-131695067D01*
X166132565Y-131980867D01*
X165989665Y-132194733D01*
X165564733Y-132619665D01*
X165350867Y-132762565D01*
X165065067Y-132953531D01*
X164509868Y-133183502D01*
X164358957Y-133213520D01*
X163920473Y-133300740D01*
X163319527Y-133300740D01*
X162881043Y-133213520D01*
X162730132Y-133183502D01*
X162174933Y-132953531D01*
X161889133Y-132762565D01*
X161675267Y-132619665D01*
X161250335Y-132194733D01*
X161107435Y-131980867D01*
X160916469Y-131695067D01*
X160686498Y-131139868D01*
X160592277Y-130666185D01*
X160569260Y-130550473D01*
X160569260Y-129949527D01*
X160675739Y-129414220D01*
X160686498Y-129360132D01*
X160916469Y-128804933D01*
X161107435Y-128519133D01*
X161250335Y-128305267D01*
X161675267Y-127880335D01*
X161889133Y-127737435D01*
X162174933Y-127546469D01*
X162730132Y-127316498D01*
X163024830Y-127257879D01*
X163319527Y-127199260D01*
X163920473Y-127199260D01*
X164215170Y-127257879D01*
G37*
G36*
X63498228Y-129931703D02*
G01*
X63653100Y-129995853D01*
X63792481Y-130088985D01*
X63911015Y-130207519D01*
X64004147Y-130346900D01*
X64068297Y-130501772D01*
X64101000Y-130666184D01*
X64101000Y-130833816D01*
X64068297Y-130998228D01*
X64004147Y-131153100D01*
X63911015Y-131292481D01*
X63792481Y-131411015D01*
X63653100Y-131504147D01*
X63498228Y-131568297D01*
X63333816Y-131601000D01*
X63166184Y-131601000D01*
X63001772Y-131568297D01*
X62846900Y-131504147D01*
X62707519Y-131411015D01*
X62588985Y-131292481D01*
X62495853Y-131153100D01*
X62431703Y-130998228D01*
X62399000Y-130833816D01*
X62399000Y-130666184D01*
X62431703Y-130501772D01*
X62495853Y-130346900D01*
X62588985Y-130207519D01*
X62707519Y-130088985D01*
X62846900Y-129995853D01*
X63001772Y-129931703D01*
X63166184Y-129899000D01*
X63333816Y-129899000D01*
X63498228Y-129931703D01*
G37*
G36*
X37719353Y-130897149D02*
G01*
X31617873Y-130897149D01*
X31617873Y-124795669D01*
X37719353Y-124795669D01*
X37719353Y-130897149D01*
G37*
G36*
X43748228Y-129181703D02*
G01*
X43903100Y-129245853D01*
X44042481Y-129338985D01*
X44161015Y-129457519D01*
X44254147Y-129596900D01*
X44318297Y-129751772D01*
X44351000Y-129916184D01*
X44351000Y-130083816D01*
X44318297Y-130248228D01*
X44254147Y-130403100D01*
X44161015Y-130542481D01*
X44042481Y-130661015D01*
X43903100Y-130754147D01*
X43748228Y-130818297D01*
X43583816Y-130851000D01*
X43416184Y-130851000D01*
X43251772Y-130818297D01*
X43096900Y-130754147D01*
X42957519Y-130661015D01*
X42838985Y-130542481D01*
X42745853Y-130403100D01*
X42681703Y-130248228D01*
X42649000Y-130083816D01*
X42649000Y-129916184D01*
X42681703Y-129751772D01*
X42745853Y-129596900D01*
X42838985Y-129457519D01*
X42957519Y-129338985D01*
X43096900Y-129245853D01*
X43251772Y-129181703D01*
X43416184Y-129149000D01*
X43583816Y-129149000D01*
X43748228Y-129181703D01*
G37*
G36*
X53986719Y-128133520D02*
G01*
X54175880Y-128190901D01*
X54175883Y-128190902D01*
X54268333Y-128240318D01*
X54350212Y-128284083D01*
X54503015Y-128409485D01*
X54628417Y-128562288D01*
X54721599Y-128736619D01*
X54778980Y-128925780D01*
X54793500Y-129073206D01*
X54793500Y-129266793D01*
X54778980Y-129414219D01*
X54723565Y-129596900D01*
X54721598Y-129603383D01*
X54672182Y-129695833D01*
X54628417Y-129777712D01*
X54503015Y-129930515D01*
X54350212Y-130055917D01*
X54175881Y-130149099D01*
X53986720Y-130206480D01*
X53790000Y-130225855D01*
X53593281Y-130206480D01*
X53404120Y-130149099D01*
X53229788Y-130055917D01*
X53076985Y-129930515D01*
X52951583Y-129777712D01*
X52858401Y-129603381D01*
X52801020Y-129414220D01*
X52786500Y-129266794D01*
X52786500Y-129073207D01*
X52801020Y-128925781D01*
X52858401Y-128736620D01*
X52858402Y-128736617D01*
X52907818Y-128644167D01*
X52951583Y-128562288D01*
X53076985Y-128409485D01*
X53229788Y-128284083D01*
X53404119Y-128190901D01*
X53593280Y-128133520D01*
X53790000Y-128114145D01*
X53986719Y-128133520D01*
G37*
G36*
X52180740Y-124800740D02*
G01*
X46079260Y-124800740D01*
X46079260Y-118699260D01*
X52180740Y-118699260D01*
X52180740Y-124800740D01*
G37*
G36*
X57345170Y-118757879D02*
G01*
X57639868Y-118816498D01*
X58195067Y-119046469D01*
X58474188Y-119232972D01*
X58694733Y-119380335D01*
X59119665Y-119805267D01*
X59236506Y-119980133D01*
X59453531Y-120304933D01*
X59683502Y-120860132D01*
X59800740Y-121449528D01*
X59800740Y-122050472D01*
X59683502Y-122639868D01*
X59453531Y-123195067D01*
X59262565Y-123480867D01*
X59119665Y-123694733D01*
X58694733Y-124119665D01*
X58480867Y-124262565D01*
X58195067Y-124453531D01*
X57639868Y-124683502D01*
X57345170Y-124742121D01*
X57050473Y-124800740D01*
X56449527Y-124800740D01*
X56154830Y-124742121D01*
X55860132Y-124683502D01*
X55304933Y-124453531D01*
X55019133Y-124262565D01*
X54805267Y-124119665D01*
X54380335Y-123694733D01*
X54237435Y-123480867D01*
X54046469Y-123195067D01*
X53816498Y-122639868D01*
X53699260Y-122050472D01*
X53699260Y-121449528D01*
X53816498Y-120860132D01*
X54046469Y-120304933D01*
X54263494Y-119980133D01*
X54380335Y-119805267D01*
X54805267Y-119380335D01*
X55025812Y-119232972D01*
X55304933Y-119046469D01*
X55860132Y-118816498D01*
X56154830Y-118757879D01*
X56449527Y-118699260D01*
X57050473Y-118699260D01*
X57345170Y-118757879D01*
G37*
G36*
X199845170Y-117877879D02*
G01*
X200139868Y-117936498D01*
X200695067Y-118166469D01*
X200980867Y-118357435D01*
X201194733Y-118500335D01*
X201619665Y-118925267D01*
X201700649Y-119046469D01*
X201953531Y-119424933D01*
X202183502Y-119980132D01*
X202216452Y-120145783D01*
X202292878Y-120530000D01*
X202300740Y-120569528D01*
X202300740Y-121170472D01*
X202183502Y-121759868D01*
X201953531Y-122315067D01*
X201762565Y-122600867D01*
X201619665Y-122814733D01*
X201194733Y-123239665D01*
X200980867Y-123382565D01*
X200695067Y-123573531D01*
X200139868Y-123803502D01*
X199845170Y-123862121D01*
X199550473Y-123920740D01*
X198949527Y-123920740D01*
X198654830Y-123862121D01*
X198360132Y-123803502D01*
X197804933Y-123573531D01*
X197519133Y-123382565D01*
X197305267Y-123239665D01*
X196880335Y-122814733D01*
X196737435Y-122600867D01*
X196546469Y-122315067D01*
X196316498Y-121759868D01*
X196199260Y-121170472D01*
X196199260Y-120569528D01*
X196207123Y-120530000D01*
X196283548Y-120145783D01*
X196316498Y-119980132D01*
X196546469Y-119424933D01*
X196799351Y-119046469D01*
X196880335Y-118925267D01*
X197305267Y-118500335D01*
X197519133Y-118357435D01*
X197804933Y-118166469D01*
X198360132Y-117936498D01*
X198654830Y-117877879D01*
X198949527Y-117819260D01*
X199550473Y-117819260D01*
X199845170Y-117877879D01*
G37*
G36*
X249845170Y-117877879D02*
G01*
X250139868Y-117936498D01*
X250695067Y-118166469D01*
X250980867Y-118357435D01*
X251194733Y-118500335D01*
X251619665Y-118925267D01*
X251700649Y-119046469D01*
X251953531Y-119424933D01*
X252183502Y-119980132D01*
X252216452Y-120145783D01*
X252292878Y-120530000D01*
X252300740Y-120569528D01*
X252300740Y-121170472D01*
X252183502Y-121759868D01*
X251953531Y-122315067D01*
X251762565Y-122600867D01*
X251619665Y-122814733D01*
X251194733Y-123239665D01*
X250980867Y-123382565D01*
X250695067Y-123573531D01*
X250139868Y-123803502D01*
X249845170Y-123862121D01*
X249550473Y-123920740D01*
X248949527Y-123920740D01*
X248654830Y-123862121D01*
X248360132Y-123803502D01*
X247804933Y-123573531D01*
X247519133Y-123382565D01*
X247305267Y-123239665D01*
X246880335Y-122814733D01*
X246737435Y-122600867D01*
X246546469Y-122315067D01*
X246316498Y-121759868D01*
X246199260Y-121170472D01*
X246199260Y-120569528D01*
X246207123Y-120530000D01*
X246283548Y-120145783D01*
X246316498Y-119980132D01*
X246546469Y-119424933D01*
X246799351Y-119046469D01*
X246880335Y-118925267D01*
X247305267Y-118500335D01*
X247519133Y-118357435D01*
X247804933Y-118166469D01*
X248360132Y-117936498D01*
X248654830Y-117877879D01*
X248949527Y-117819260D01*
X249550473Y-117819260D01*
X249845170Y-117877879D01*
G37*
G36*
X143595170Y-117877879D02*
G01*
X143889868Y-117936498D01*
X144445067Y-118166469D01*
X144730867Y-118357435D01*
X144944733Y-118500335D01*
X145369665Y-118925267D01*
X145450649Y-119046469D01*
X145703531Y-119424933D01*
X145933502Y-119980132D01*
X145966452Y-120145783D01*
X146042878Y-120530000D01*
X146050740Y-120569528D01*
X146050740Y-121170472D01*
X145933502Y-121759868D01*
X145703531Y-122315067D01*
X145512565Y-122600867D01*
X145369665Y-122814733D01*
X144944733Y-123239665D01*
X144730867Y-123382565D01*
X144445067Y-123573531D01*
X143889868Y-123803502D01*
X143595170Y-123862121D01*
X143300473Y-123920740D01*
X142699527Y-123920740D01*
X142404830Y-123862121D01*
X142110132Y-123803502D01*
X141554933Y-123573531D01*
X141269133Y-123382565D01*
X141055267Y-123239665D01*
X140630335Y-122814733D01*
X140487435Y-122600867D01*
X140296469Y-122315067D01*
X140066498Y-121759868D01*
X139949260Y-121170472D01*
X139949260Y-120569528D01*
X139957123Y-120530000D01*
X140033548Y-120145783D01*
X140066498Y-119980132D01*
X140296469Y-119424933D01*
X140549351Y-119046469D01*
X140630335Y-118925267D01*
X141055267Y-118500335D01*
X141269133Y-118357435D01*
X141554933Y-118166469D01*
X142110132Y-117936498D01*
X142404830Y-117877879D01*
X142699527Y-117819260D01*
X143300473Y-117819260D01*
X143595170Y-117877879D01*
G37*
G36*
X167582932Y-121638053D02*
G01*
X167715783Y-121693082D01*
X167715785Y-121693083D01*
X167835348Y-121772972D01*
X167937028Y-121874652D01*
X168016917Y-121994215D01*
X168016918Y-121994217D01*
X168071947Y-122127068D01*
X168100000Y-122268100D01*
X168100000Y-122411900D01*
X168071947Y-122552932D01*
X168016918Y-122685783D01*
X168016917Y-122685785D01*
X167937028Y-122805348D01*
X167835348Y-122907028D01*
X167715785Y-122986917D01*
X167715784Y-122986918D01*
X167715783Y-122986918D01*
X167582932Y-123041947D01*
X167441900Y-123070000D01*
X167298100Y-123070000D01*
X167157068Y-123041947D01*
X167024217Y-122986918D01*
X167024216Y-122986918D01*
X167024215Y-122986917D01*
X166904652Y-122907028D01*
X166802972Y-122805348D01*
X166723083Y-122685785D01*
X166723082Y-122685783D01*
X166668053Y-122552932D01*
X166640000Y-122411900D01*
X166640000Y-122268100D01*
X166668053Y-122127068D01*
X166723082Y-121994217D01*
X166723083Y-121994215D01*
X166802972Y-121874652D01*
X166904652Y-121772972D01*
X167024215Y-121693083D01*
X167024217Y-121693082D01*
X167157068Y-121638053D01*
X167298100Y-121610000D01*
X167441900Y-121610000D01*
X167582932Y-121638053D01*
G37*
G36*
X273832932Y-121638053D02*
G01*
X273965783Y-121693082D01*
X273965785Y-121693083D01*
X274085348Y-121772972D01*
X274187028Y-121874652D01*
X274266917Y-121994215D01*
X274266918Y-121994217D01*
X274321947Y-122127068D01*
X274350000Y-122268100D01*
X274350000Y-122411900D01*
X274321947Y-122552932D01*
X274266918Y-122685783D01*
X274266917Y-122685785D01*
X274187028Y-122805348D01*
X274085348Y-122907028D01*
X273965785Y-122986917D01*
X273965784Y-122986918D01*
X273965783Y-122986918D01*
X273832932Y-123041947D01*
X273691900Y-123070000D01*
X273548100Y-123070000D01*
X273407068Y-123041947D01*
X273274217Y-122986918D01*
X273274216Y-122986918D01*
X273274215Y-122986917D01*
X273154652Y-122907028D01*
X273052972Y-122805348D01*
X272973083Y-122685785D01*
X272973082Y-122685783D01*
X272918053Y-122552932D01*
X272890000Y-122411900D01*
X272890000Y-122268100D01*
X272918053Y-122127068D01*
X272973082Y-121994217D01*
X272973083Y-121994215D01*
X273052972Y-121874652D01*
X273154652Y-121772972D01*
X273274215Y-121693083D01*
X273274217Y-121693082D01*
X273407068Y-121638053D01*
X273548100Y-121610000D01*
X273691900Y-121610000D01*
X273832932Y-121638053D01*
G37*
G36*
X223832932Y-121638053D02*
G01*
X223965783Y-121693082D01*
X223965785Y-121693083D01*
X224085348Y-121772972D01*
X224187028Y-121874652D01*
X224266917Y-121994215D01*
X224266918Y-121994217D01*
X224321947Y-122127068D01*
X224350000Y-122268100D01*
X224350000Y-122411900D01*
X224321947Y-122552932D01*
X224266918Y-122685783D01*
X224266917Y-122685785D01*
X224187028Y-122805348D01*
X224085348Y-122907028D01*
X223965785Y-122986917D01*
X223965784Y-122986918D01*
X223965783Y-122986918D01*
X223832932Y-123041947D01*
X223691900Y-123070000D01*
X223548100Y-123070000D01*
X223407068Y-123041947D01*
X223274217Y-122986918D01*
X223274216Y-122986918D01*
X223274215Y-122986917D01*
X223154652Y-122907028D01*
X223052972Y-122805348D01*
X222973083Y-122685785D01*
X222973082Y-122685783D01*
X222918053Y-122552932D01*
X222890000Y-122411900D01*
X222890000Y-122268100D01*
X222918053Y-122127068D01*
X222973082Y-121994217D01*
X222973083Y-121994215D01*
X223052972Y-121874652D01*
X223154652Y-121772972D01*
X223274215Y-121693083D01*
X223274217Y-121693082D01*
X223407068Y-121638053D01*
X223548100Y-121610000D01*
X223691900Y-121610000D01*
X223832932Y-121638053D01*
G37*
G36*
X208592932Y-121638053D02*
G01*
X208725783Y-121693082D01*
X208725785Y-121693083D01*
X208845348Y-121772972D01*
X208947028Y-121874652D01*
X209026917Y-121994215D01*
X209026918Y-121994217D01*
X209081947Y-122127068D01*
X209110000Y-122268100D01*
X209110000Y-122411900D01*
X209081947Y-122552932D01*
X209026918Y-122685783D01*
X209026917Y-122685785D01*
X208947028Y-122805348D01*
X208845348Y-122907028D01*
X208725785Y-122986917D01*
X208725784Y-122986918D01*
X208725783Y-122986918D01*
X208592932Y-123041947D01*
X208451900Y-123070000D01*
X208308100Y-123070000D01*
X208167068Y-123041947D01*
X208034217Y-122986918D01*
X208034216Y-122986918D01*
X208034215Y-122986917D01*
X207914652Y-122907028D01*
X207812972Y-122805348D01*
X207733083Y-122685785D01*
X207733082Y-122685783D01*
X207678053Y-122552932D01*
X207650000Y-122411900D01*
X207650000Y-122268100D01*
X207678053Y-122127068D01*
X207733082Y-121994217D01*
X207733083Y-121994215D01*
X207812972Y-121874652D01*
X207914652Y-121772972D01*
X208034215Y-121693083D01*
X208034217Y-121693082D01*
X208167068Y-121638053D01*
X208308100Y-121610000D01*
X208451900Y-121610000D01*
X208592932Y-121638053D01*
G37*
G36*
X258592932Y-121638053D02*
G01*
X258725783Y-121693082D01*
X258725785Y-121693083D01*
X258845348Y-121772972D01*
X258947028Y-121874652D01*
X259026917Y-121994215D01*
X259026918Y-121994217D01*
X259081947Y-122127068D01*
X259110000Y-122268100D01*
X259110000Y-122411900D01*
X259081947Y-122552932D01*
X259026918Y-122685783D01*
X259026917Y-122685785D01*
X258947028Y-122805348D01*
X258845348Y-122907028D01*
X258725785Y-122986917D01*
X258725784Y-122986918D01*
X258725783Y-122986918D01*
X258592932Y-123041947D01*
X258451900Y-123070000D01*
X258308100Y-123070000D01*
X258167068Y-123041947D01*
X258034217Y-122986918D01*
X258034216Y-122986918D01*
X258034215Y-122986917D01*
X257914652Y-122907028D01*
X257812972Y-122805348D01*
X257733083Y-122685785D01*
X257733082Y-122685783D01*
X257678053Y-122552932D01*
X257650000Y-122411900D01*
X257650000Y-122268100D01*
X257678053Y-122127068D01*
X257733082Y-121994217D01*
X257733083Y-121994215D01*
X257812972Y-121874652D01*
X257914652Y-121772972D01*
X258034215Y-121693083D01*
X258034217Y-121693082D01*
X258167068Y-121638053D01*
X258308100Y-121610000D01*
X258451900Y-121610000D01*
X258592932Y-121638053D01*
G37*
G36*
X152342932Y-121638053D02*
G01*
X152475783Y-121693082D01*
X152475785Y-121693083D01*
X152595348Y-121772972D01*
X152697028Y-121874652D01*
X152776917Y-121994215D01*
X152776918Y-121994217D01*
X152831947Y-122127068D01*
X152860000Y-122268100D01*
X152860000Y-122411900D01*
X152831947Y-122552932D01*
X152776918Y-122685783D01*
X152776917Y-122685785D01*
X152697028Y-122805348D01*
X152595348Y-122907028D01*
X152475785Y-122986917D01*
X152475784Y-122986918D01*
X152475783Y-122986918D01*
X152342932Y-123041947D01*
X152201900Y-123070000D01*
X152058100Y-123070000D01*
X151917068Y-123041947D01*
X151784217Y-122986918D01*
X151784216Y-122986918D01*
X151784215Y-122986917D01*
X151664652Y-122907028D01*
X151562972Y-122805348D01*
X151483083Y-122685785D01*
X151483082Y-122685783D01*
X151428053Y-122552932D01*
X151400000Y-122411900D01*
X151400000Y-122268100D01*
X151428053Y-122127068D01*
X151483082Y-121994217D01*
X151483083Y-121994215D01*
X151562972Y-121874652D01*
X151664652Y-121772972D01*
X151784215Y-121693083D01*
X151784217Y-121693082D01*
X151917068Y-121638053D01*
X152058100Y-121610000D01*
X152201900Y-121610000D01*
X152342932Y-121638053D01*
G37*
G36*
X152342932Y-119098053D02*
G01*
X152475783Y-119153082D01*
X152475785Y-119153083D01*
X152595348Y-119232972D01*
X152697028Y-119334652D01*
X152776917Y-119454215D01*
X152776918Y-119454217D01*
X152831947Y-119587068D01*
X152860000Y-119728100D01*
X152860000Y-119871900D01*
X152831947Y-120012932D01*
X152776918Y-120145783D01*
X152776917Y-120145785D01*
X152697028Y-120265348D01*
X152595348Y-120367028D01*
X152475785Y-120446917D01*
X152475784Y-120446918D01*
X152475783Y-120446918D01*
X152342932Y-120501947D01*
X152201900Y-120530000D01*
X152058100Y-120530000D01*
X151917068Y-120501947D01*
X151784217Y-120446918D01*
X151784216Y-120446918D01*
X151784215Y-120446917D01*
X151664652Y-120367028D01*
X151562972Y-120265348D01*
X151483083Y-120145785D01*
X151483082Y-120145783D01*
X151428053Y-120012932D01*
X151400000Y-119871900D01*
X151400000Y-119728100D01*
X151428053Y-119587068D01*
X151483082Y-119454217D01*
X151483083Y-119454215D01*
X151562972Y-119334652D01*
X151664652Y-119232972D01*
X151784215Y-119153083D01*
X151784217Y-119153082D01*
X151917068Y-119098053D01*
X152058100Y-119070000D01*
X152201900Y-119070000D01*
X152342932Y-119098053D01*
G37*
G36*
X167582932Y-119098053D02*
G01*
X167715783Y-119153082D01*
X167715785Y-119153083D01*
X167835348Y-119232972D01*
X167937028Y-119334652D01*
X168016917Y-119454215D01*
X168016918Y-119454217D01*
X168071947Y-119587068D01*
X168100000Y-119728100D01*
X168100000Y-119871900D01*
X168071947Y-120012932D01*
X168016918Y-120145783D01*
X168016917Y-120145785D01*
X167937028Y-120265348D01*
X167835348Y-120367028D01*
X167715785Y-120446917D01*
X167715784Y-120446918D01*
X167715783Y-120446918D01*
X167582932Y-120501947D01*
X167441900Y-120530000D01*
X167298100Y-120530000D01*
X167157068Y-120501947D01*
X167024217Y-120446918D01*
X167024216Y-120446918D01*
X167024215Y-120446917D01*
X166904652Y-120367028D01*
X166802972Y-120265348D01*
X166723083Y-120145785D01*
X166723082Y-120145783D01*
X166668053Y-120012932D01*
X166640000Y-119871900D01*
X166640000Y-119728100D01*
X166668053Y-119587068D01*
X166723082Y-119454217D01*
X166723083Y-119454215D01*
X166802972Y-119334652D01*
X166904652Y-119232972D01*
X167024215Y-119153083D01*
X167024217Y-119153082D01*
X167157068Y-119098053D01*
X167298100Y-119070000D01*
X167441900Y-119070000D01*
X167582932Y-119098053D01*
G37*
G36*
X208592932Y-119098053D02*
G01*
X208725783Y-119153082D01*
X208725785Y-119153083D01*
X208845348Y-119232972D01*
X208947028Y-119334652D01*
X209026917Y-119454215D01*
X209026918Y-119454217D01*
X209081947Y-119587068D01*
X209110000Y-119728100D01*
X209110000Y-119871900D01*
X209081947Y-120012932D01*
X209026918Y-120145783D01*
X209026917Y-120145785D01*
X208947028Y-120265348D01*
X208845348Y-120367028D01*
X208725785Y-120446917D01*
X208725784Y-120446918D01*
X208725783Y-120446918D01*
X208592932Y-120501947D01*
X208451900Y-120530000D01*
X208308100Y-120530000D01*
X208167068Y-120501947D01*
X208034217Y-120446918D01*
X208034216Y-120446918D01*
X208034215Y-120446917D01*
X207914652Y-120367028D01*
X207812972Y-120265348D01*
X207733083Y-120145785D01*
X207733082Y-120145783D01*
X207678053Y-120012932D01*
X207650000Y-119871900D01*
X207650000Y-119728100D01*
X207678053Y-119587068D01*
X207733082Y-119454217D01*
X207733083Y-119454215D01*
X207812972Y-119334652D01*
X207914652Y-119232972D01*
X208034215Y-119153083D01*
X208034217Y-119153082D01*
X208167068Y-119098053D01*
X208308100Y-119070000D01*
X208451900Y-119070000D01*
X208592932Y-119098053D01*
G37*
G36*
X223832932Y-119098053D02*
G01*
X223965783Y-119153082D01*
X223965785Y-119153083D01*
X224085348Y-119232972D01*
X224187028Y-119334652D01*
X224266917Y-119454215D01*
X224266918Y-119454217D01*
X224321947Y-119587068D01*
X224350000Y-119728100D01*
X224350000Y-119871900D01*
X224321947Y-120012932D01*
X224266918Y-120145783D01*
X224266917Y-120145785D01*
X224187028Y-120265348D01*
X224085348Y-120367028D01*
X223965785Y-120446917D01*
X223965784Y-120446918D01*
X223965783Y-120446918D01*
X223832932Y-120501947D01*
X223691900Y-120530000D01*
X223548100Y-120530000D01*
X223407068Y-120501947D01*
X223274217Y-120446918D01*
X223274216Y-120446918D01*
X223274215Y-120446917D01*
X223154652Y-120367028D01*
X223052972Y-120265348D01*
X222973083Y-120145785D01*
X222973082Y-120145783D01*
X222918053Y-120012932D01*
X222890000Y-119871900D01*
X222890000Y-119728100D01*
X222918053Y-119587068D01*
X222973082Y-119454217D01*
X222973083Y-119454215D01*
X223052972Y-119334652D01*
X223154652Y-119232972D01*
X223274215Y-119153083D01*
X223274217Y-119153082D01*
X223407068Y-119098053D01*
X223548100Y-119070000D01*
X223691900Y-119070000D01*
X223832932Y-119098053D01*
G37*
G36*
X258592932Y-119098053D02*
G01*
X258725783Y-119153082D01*
X258725785Y-119153083D01*
X258845348Y-119232972D01*
X258947028Y-119334652D01*
X259026917Y-119454215D01*
X259026918Y-119454217D01*
X259081947Y-119587068D01*
X259110000Y-119728100D01*
X259110000Y-119871900D01*
X259081947Y-120012932D01*
X259026918Y-120145783D01*
X259026917Y-120145785D01*
X258947028Y-120265348D01*
X258845348Y-120367028D01*
X258725785Y-120446917D01*
X258725784Y-120446918D01*
X258725783Y-120446918D01*
X258592932Y-120501947D01*
X258451900Y-120530000D01*
X258308100Y-120530000D01*
X258167068Y-120501947D01*
X258034217Y-120446918D01*
X258034216Y-120446918D01*
X258034215Y-120446917D01*
X257914652Y-120367028D01*
X257812972Y-120265348D01*
X257733083Y-120145785D01*
X257733082Y-120145783D01*
X257678053Y-120012932D01*
X257650000Y-119871900D01*
X257650000Y-119728100D01*
X257678053Y-119587068D01*
X257733082Y-119454217D01*
X257733083Y-119454215D01*
X257812972Y-119334652D01*
X257914652Y-119232972D01*
X258034215Y-119153083D01*
X258034217Y-119153082D01*
X258167068Y-119098053D01*
X258308100Y-119070000D01*
X258451900Y-119070000D01*
X258592932Y-119098053D01*
G37*
G36*
X273832932Y-119098053D02*
G01*
X273965783Y-119153082D01*
X273965785Y-119153083D01*
X274085348Y-119232972D01*
X274187028Y-119334652D01*
X274266917Y-119454215D01*
X274266918Y-119454217D01*
X274321947Y-119587068D01*
X274350000Y-119728100D01*
X274350000Y-119871900D01*
X274321947Y-120012932D01*
X274266918Y-120145783D01*
X274266917Y-120145785D01*
X274187028Y-120265348D01*
X274085348Y-120367028D01*
X273965785Y-120446917D01*
X273965784Y-120446918D01*
X273965783Y-120446918D01*
X273832932Y-120501947D01*
X273691900Y-120530000D01*
X273548100Y-120530000D01*
X273407068Y-120501947D01*
X273274217Y-120446918D01*
X273274216Y-120446918D01*
X273274215Y-120446917D01*
X273154652Y-120367028D01*
X273052972Y-120265348D01*
X272973083Y-120145785D01*
X272973082Y-120145783D01*
X272918053Y-120012932D01*
X272890000Y-119871900D01*
X272890000Y-119728100D01*
X272918053Y-119587068D01*
X272973082Y-119454217D01*
X272973083Y-119454215D01*
X273052972Y-119334652D01*
X273154652Y-119232972D01*
X273274215Y-119153083D01*
X273274217Y-119153082D01*
X273407068Y-119098053D01*
X273548100Y-119070000D01*
X273691900Y-119070000D01*
X273832932Y-119098053D01*
G37*
G36*
X252300740Y-116300740D02*
G01*
X246199260Y-116300740D01*
X246199260Y-110199260D01*
X252300740Y-110199260D01*
X252300740Y-116300740D01*
G37*
G36*
X202300740Y-116300740D02*
G01*
X196199260Y-116300740D01*
X196199260Y-110199260D01*
X202300740Y-110199260D01*
X202300740Y-116300740D01*
G37*
G36*
X146050740Y-116300740D02*
G01*
X139949260Y-116300740D01*
X139949260Y-110199260D01*
X146050740Y-110199260D01*
X146050740Y-116300740D01*
G37*
G36*
X140800740Y-106800740D02*
G01*
X134699260Y-106800740D01*
X134699260Y-100699260D01*
X140800740Y-100699260D01*
X140800740Y-106800740D01*
G37*
G36*
X197050740Y-106800740D02*
G01*
X190949260Y-106800740D01*
X190949260Y-100699260D01*
X197050740Y-100699260D01*
X197050740Y-106800740D01*
G37*
G36*
X247050740Y-106800740D02*
G01*
X240949260Y-106800740D01*
X240949260Y-100699260D01*
X247050740Y-100699260D01*
X247050740Y-106800740D01*
G37*
G36*
X273832932Y-101578053D02*
G01*
X273965783Y-101633082D01*
X273965785Y-101633083D01*
X274085348Y-101712972D01*
X274187028Y-101814652D01*
X274251415Y-101911015D01*
X274266918Y-101934217D01*
X274321947Y-102067068D01*
X274350000Y-102208100D01*
X274350000Y-102351900D01*
X274321947Y-102492932D01*
X274266918Y-102625783D01*
X274266917Y-102625785D01*
X274187028Y-102745348D01*
X274085348Y-102847028D01*
X273965785Y-102926917D01*
X273965784Y-102926918D01*
X273965783Y-102926918D01*
X273832932Y-102981947D01*
X273691900Y-103010000D01*
X273548100Y-103010000D01*
X273407068Y-102981947D01*
X273274217Y-102926918D01*
X273274216Y-102926918D01*
X273274215Y-102926917D01*
X273154652Y-102847028D01*
X273052972Y-102745348D01*
X272973083Y-102625785D01*
X272973082Y-102625783D01*
X272918053Y-102492932D01*
X272890000Y-102351900D01*
X272890000Y-102208100D01*
X272918053Y-102067068D01*
X272973082Y-101934217D01*
X272988585Y-101911015D01*
X273052972Y-101814652D01*
X273154652Y-101712972D01*
X273274215Y-101633083D01*
X273274217Y-101633082D01*
X273407068Y-101578053D01*
X273548100Y-101550000D01*
X273691900Y-101550000D01*
X273832932Y-101578053D01*
G37*
G36*
X223832932Y-101578053D02*
G01*
X223965783Y-101633082D01*
X223965785Y-101633083D01*
X224085348Y-101712972D01*
X224187028Y-101814652D01*
X224251415Y-101911015D01*
X224266918Y-101934217D01*
X224321947Y-102067068D01*
X224350000Y-102208100D01*
X224350000Y-102351900D01*
X224321947Y-102492932D01*
X224266918Y-102625783D01*
X224266917Y-102625785D01*
X224187028Y-102745348D01*
X224085348Y-102847028D01*
X223965785Y-102926917D01*
X223965784Y-102926918D01*
X223965783Y-102926918D01*
X223832932Y-102981947D01*
X223691900Y-103010000D01*
X223548100Y-103010000D01*
X223407068Y-102981947D01*
X223274217Y-102926918D01*
X223274216Y-102926918D01*
X223274215Y-102926917D01*
X223154652Y-102847028D01*
X223052972Y-102745348D01*
X222973083Y-102625785D01*
X222973082Y-102625783D01*
X222918053Y-102492932D01*
X222890000Y-102351900D01*
X222890000Y-102208100D01*
X222918053Y-102067068D01*
X222973082Y-101934217D01*
X222988585Y-101911015D01*
X223052972Y-101814652D01*
X223154652Y-101712972D01*
X223274215Y-101633083D01*
X223274217Y-101633082D01*
X223407068Y-101578053D01*
X223548100Y-101550000D01*
X223691900Y-101550000D01*
X223832932Y-101578053D01*
G37*
G36*
X167582932Y-101578053D02*
G01*
X167715783Y-101633082D01*
X167715785Y-101633083D01*
X167835348Y-101712972D01*
X167937028Y-101814652D01*
X168001415Y-101911015D01*
X168016918Y-101934217D01*
X168071947Y-102067068D01*
X168100000Y-102208100D01*
X168100000Y-102351900D01*
X168071947Y-102492932D01*
X168016918Y-102625783D01*
X168016917Y-102625785D01*
X167937028Y-102745348D01*
X167835348Y-102847028D01*
X167715785Y-102926917D01*
X167715784Y-102926918D01*
X167715783Y-102926918D01*
X167582932Y-102981947D01*
X167441900Y-103010000D01*
X167298100Y-103010000D01*
X167157068Y-102981947D01*
X167024217Y-102926918D01*
X167024216Y-102926918D01*
X167024215Y-102926917D01*
X166904652Y-102847028D01*
X166802972Y-102745348D01*
X166723083Y-102625785D01*
X166723082Y-102625783D01*
X166668053Y-102492932D01*
X166640000Y-102351900D01*
X166640000Y-102208100D01*
X166668053Y-102067068D01*
X166723082Y-101934217D01*
X166738585Y-101911015D01*
X166802972Y-101814652D01*
X166904652Y-101712972D01*
X167024215Y-101633083D01*
X167024217Y-101633082D01*
X167157068Y-101578053D01*
X167298100Y-101550000D01*
X167441900Y-101550000D01*
X167582932Y-101578053D01*
G37*
G36*
X251998228Y-100431703D02*
G01*
X252153100Y-100495853D01*
X252292481Y-100588985D01*
X252411015Y-100707519D01*
X252504147Y-100846900D01*
X252568297Y-101001772D01*
X252601000Y-101166184D01*
X252601000Y-101333816D01*
X252568297Y-101498228D01*
X252504147Y-101653100D01*
X252411015Y-101792481D01*
X252292481Y-101911015D01*
X252153100Y-102004147D01*
X251998228Y-102068297D01*
X251833816Y-102101000D01*
X251666184Y-102101000D01*
X251501772Y-102068297D01*
X251346900Y-102004147D01*
X251207519Y-101911015D01*
X251088985Y-101792481D01*
X250995853Y-101653100D01*
X250931703Y-101498228D01*
X250899000Y-101333816D01*
X250899000Y-101166184D01*
X250931703Y-101001772D01*
X250995853Y-100846900D01*
X251088985Y-100707519D01*
X251207519Y-100588985D01*
X251346900Y-100495853D01*
X251501772Y-100431703D01*
X251666184Y-100399000D01*
X251833816Y-100399000D01*
X251998228Y-100431703D01*
G37*
G36*
X201998228Y-100431703D02*
G01*
X202153100Y-100495853D01*
X202292481Y-100588985D01*
X202411015Y-100707519D01*
X202504147Y-100846900D01*
X202568297Y-101001772D01*
X202601000Y-101166184D01*
X202601000Y-101333816D01*
X202568297Y-101498228D01*
X202504147Y-101653100D01*
X202411015Y-101792481D01*
X202292481Y-101911015D01*
X202153100Y-102004147D01*
X201998228Y-102068297D01*
X201833816Y-102101000D01*
X201666184Y-102101000D01*
X201501772Y-102068297D01*
X201346900Y-102004147D01*
X201207519Y-101911015D01*
X201088985Y-101792481D01*
X200995853Y-101653100D01*
X200931703Y-101498228D01*
X200899000Y-101333816D01*
X200899000Y-101166184D01*
X200931703Y-101001772D01*
X200995853Y-100846900D01*
X201088985Y-100707519D01*
X201207519Y-100588985D01*
X201346900Y-100495853D01*
X201501772Y-100431703D01*
X201666184Y-100399000D01*
X201833816Y-100399000D01*
X201998228Y-100431703D01*
G37*
G36*
X145748228Y-100431703D02*
G01*
X145903100Y-100495853D01*
X146042481Y-100588985D01*
X146161015Y-100707519D01*
X146254147Y-100846900D01*
X146318297Y-101001772D01*
X146351000Y-101166184D01*
X146351000Y-101333816D01*
X146318297Y-101498228D01*
X146254147Y-101653100D01*
X146161015Y-101792481D01*
X146042481Y-101911015D01*
X145903100Y-102004147D01*
X145748228Y-102068297D01*
X145583816Y-102101000D01*
X145416184Y-102101000D01*
X145251772Y-102068297D01*
X145096900Y-102004147D01*
X144957519Y-101911015D01*
X144838985Y-101792481D01*
X144745853Y-101653100D01*
X144681703Y-101498228D01*
X144649000Y-101333816D01*
X144649000Y-101166184D01*
X144681703Y-101001772D01*
X144745853Y-100846900D01*
X144838985Y-100707519D01*
X144957519Y-100588985D01*
X145096900Y-100495853D01*
X145251772Y-100431703D01*
X145416184Y-100399000D01*
X145583816Y-100399000D01*
X145748228Y-100431703D01*
G37*
G36*
X244595170Y-93137879D02*
G01*
X244889868Y-93196498D01*
X245445067Y-93426469D01*
X245730867Y-93617435D01*
X245944733Y-93760335D01*
X246369665Y-94185267D01*
X246375936Y-94194653D01*
X246703531Y-94684933D01*
X246933502Y-95240132D01*
X246965103Y-95399000D01*
X247050740Y-95829527D01*
X247050740Y-96430473D01*
X247026351Y-96553083D01*
X246933502Y-97019868D01*
X246703531Y-97575067D01*
X246512565Y-97860867D01*
X246369665Y-98074733D01*
X245944733Y-98499665D01*
X245730867Y-98642565D01*
X245445067Y-98833531D01*
X244889868Y-99063502D01*
X244595170Y-99122121D01*
X244300473Y-99180740D01*
X243699527Y-99180740D01*
X243404830Y-99122121D01*
X243110132Y-99063502D01*
X242554933Y-98833531D01*
X242269133Y-98642565D01*
X242055267Y-98499665D01*
X241630335Y-98074733D01*
X241487435Y-97860867D01*
X241296469Y-97575067D01*
X241066498Y-97019868D01*
X240973649Y-96553083D01*
X240949260Y-96430473D01*
X240949260Y-95829527D01*
X241034897Y-95399000D01*
X241066498Y-95240132D01*
X241296469Y-94684933D01*
X241624064Y-94194653D01*
X241630335Y-94185267D01*
X242055267Y-93760335D01*
X242269133Y-93617435D01*
X242554933Y-93426469D01*
X243110132Y-93196498D01*
X243404830Y-93137879D01*
X243699527Y-93079260D01*
X244300473Y-93079260D01*
X244595170Y-93137879D01*
G37*
G36*
X138345170Y-93137879D02*
G01*
X138639868Y-93196498D01*
X139195067Y-93426469D01*
X139480867Y-93617435D01*
X139694733Y-93760335D01*
X140119665Y-94185267D01*
X140125936Y-94194653D01*
X140453531Y-94684933D01*
X140683502Y-95240132D01*
X140715103Y-95399000D01*
X140800740Y-95829527D01*
X140800740Y-96430473D01*
X140776351Y-96553083D01*
X140683502Y-97019868D01*
X140453531Y-97575067D01*
X140262565Y-97860867D01*
X140119665Y-98074733D01*
X139694733Y-98499665D01*
X139480867Y-98642565D01*
X139195067Y-98833531D01*
X138639868Y-99063502D01*
X138345170Y-99122121D01*
X138050473Y-99180740D01*
X137449527Y-99180740D01*
X137154830Y-99122121D01*
X136860132Y-99063502D01*
X136304933Y-98833531D01*
X136019133Y-98642565D01*
X135805267Y-98499665D01*
X135380335Y-98074733D01*
X135237435Y-97860867D01*
X135046469Y-97575067D01*
X134816498Y-97019868D01*
X134723649Y-96553083D01*
X134699260Y-96430473D01*
X134699260Y-95829527D01*
X134784897Y-95399000D01*
X134816498Y-95240132D01*
X135046469Y-94684933D01*
X135374064Y-94194653D01*
X135380335Y-94185267D01*
X135805267Y-93760335D01*
X136019133Y-93617435D01*
X136304933Y-93426469D01*
X136860132Y-93196498D01*
X137154830Y-93137879D01*
X137449527Y-93079260D01*
X138050473Y-93079260D01*
X138345170Y-93137879D01*
G37*
G36*
X194595170Y-93137879D02*
G01*
X194889868Y-93196498D01*
X195445067Y-93426469D01*
X195730867Y-93617435D01*
X195944733Y-93760335D01*
X196369665Y-94185267D01*
X196375936Y-94194653D01*
X196703531Y-94684933D01*
X196933502Y-95240132D01*
X196965103Y-95399000D01*
X197050740Y-95829527D01*
X197050740Y-96430473D01*
X197026351Y-96553083D01*
X196933502Y-97019868D01*
X196703531Y-97575067D01*
X196512565Y-97860867D01*
X196369665Y-98074733D01*
X195944733Y-98499665D01*
X195730867Y-98642565D01*
X195445067Y-98833531D01*
X194889868Y-99063502D01*
X194595170Y-99122121D01*
X194300473Y-99180740D01*
X193699527Y-99180740D01*
X193404830Y-99122121D01*
X193110132Y-99063502D01*
X192554933Y-98833531D01*
X192269133Y-98642565D01*
X192055267Y-98499665D01*
X191630335Y-98074733D01*
X191487435Y-97860867D01*
X191296469Y-97575067D01*
X191066498Y-97019868D01*
X190973649Y-96553083D01*
X190949260Y-96430473D01*
X190949260Y-95829527D01*
X191034897Y-95399000D01*
X191066498Y-95240132D01*
X191296469Y-94684933D01*
X191624064Y-94194653D01*
X191630335Y-94185267D01*
X192055267Y-93760335D01*
X192269133Y-93617435D01*
X192554933Y-93426469D01*
X193110132Y-93196498D01*
X193404830Y-93137879D01*
X193699527Y-93079260D01*
X194300473Y-93079260D01*
X194595170Y-93137879D01*
G37*
G36*
X258592932Y-96498053D02*
G01*
X258725783Y-96553082D01*
X258725785Y-96553083D01*
X258845348Y-96632972D01*
X258947028Y-96734652D01*
X259026917Y-96854215D01*
X259026918Y-96854217D01*
X259081947Y-96987068D01*
X259110000Y-97128100D01*
X259110000Y-97271900D01*
X259081947Y-97412932D01*
X259026918Y-97545783D01*
X259026917Y-97545785D01*
X258947028Y-97665348D01*
X258845348Y-97767028D01*
X258725785Y-97846917D01*
X258725784Y-97846918D01*
X258725783Y-97846918D01*
X258592932Y-97901947D01*
X258451900Y-97930000D01*
X258308100Y-97930000D01*
X258167068Y-97901947D01*
X258034217Y-97846918D01*
X258034216Y-97846918D01*
X258034215Y-97846917D01*
X257914652Y-97767028D01*
X257812972Y-97665348D01*
X257733083Y-97545785D01*
X257733082Y-97545783D01*
X257678053Y-97412932D01*
X257650000Y-97271900D01*
X257650000Y-97128100D01*
X257678053Y-96987068D01*
X257733082Y-96854217D01*
X257733083Y-96854215D01*
X257812972Y-96734652D01*
X257914652Y-96632972D01*
X258034215Y-96553083D01*
X258034217Y-96553082D01*
X258167068Y-96498053D01*
X258308100Y-96470000D01*
X258451900Y-96470000D01*
X258592932Y-96498053D01*
G37*
G36*
X208592932Y-96498053D02*
G01*
X208725783Y-96553082D01*
X208725785Y-96553083D01*
X208845348Y-96632972D01*
X208947028Y-96734652D01*
X209026917Y-96854215D01*
X209026918Y-96854217D01*
X209081947Y-96987068D01*
X209110000Y-97128100D01*
X209110000Y-97271900D01*
X209081947Y-97412932D01*
X209026918Y-97545783D01*
X209026917Y-97545785D01*
X208947028Y-97665348D01*
X208845348Y-97767028D01*
X208725785Y-97846917D01*
X208725784Y-97846918D01*
X208725783Y-97846918D01*
X208592932Y-97901947D01*
X208451900Y-97930000D01*
X208308100Y-97930000D01*
X208167068Y-97901947D01*
X208034217Y-97846918D01*
X208034216Y-97846918D01*
X208034215Y-97846917D01*
X207914652Y-97767028D01*
X207812972Y-97665348D01*
X207733083Y-97545785D01*
X207733082Y-97545783D01*
X207678053Y-97412932D01*
X207650000Y-97271900D01*
X207650000Y-97128100D01*
X207678053Y-96987068D01*
X207733082Y-96854217D01*
X207733083Y-96854215D01*
X207812972Y-96734652D01*
X207914652Y-96632972D01*
X208034215Y-96553083D01*
X208034217Y-96553082D01*
X208167068Y-96498053D01*
X208308100Y-96470000D01*
X208451900Y-96470000D01*
X208592932Y-96498053D01*
G37*
G36*
X223832932Y-96498053D02*
G01*
X223965783Y-96553082D01*
X223965785Y-96553083D01*
X224085348Y-96632972D01*
X224187028Y-96734652D01*
X224266917Y-96854215D01*
X224266918Y-96854217D01*
X224321947Y-96987068D01*
X224350000Y-97128100D01*
X224350000Y-97271900D01*
X224321947Y-97412932D01*
X224266918Y-97545783D01*
X224266917Y-97545785D01*
X224187028Y-97665348D01*
X224085348Y-97767028D01*
X223965785Y-97846917D01*
X223965784Y-97846918D01*
X223965783Y-97846918D01*
X223832932Y-97901947D01*
X223691900Y-97930000D01*
X223548100Y-97930000D01*
X223407068Y-97901947D01*
X223274217Y-97846918D01*
X223274216Y-97846918D01*
X223274215Y-97846917D01*
X223154652Y-97767028D01*
X223052972Y-97665348D01*
X222973083Y-97545785D01*
X222973082Y-97545783D01*
X222918053Y-97412932D01*
X222890000Y-97271900D01*
X222890000Y-97128100D01*
X222918053Y-96987068D01*
X222973082Y-96854217D01*
X222973083Y-96854215D01*
X223052972Y-96734652D01*
X223154652Y-96632972D01*
X223274215Y-96553083D01*
X223274217Y-96553082D01*
X223407068Y-96498053D01*
X223548100Y-96470000D01*
X223691900Y-96470000D01*
X223832932Y-96498053D01*
G37*
G36*
X273832932Y-96498053D02*
G01*
X273965783Y-96553082D01*
X273965785Y-96553083D01*
X274085348Y-96632972D01*
X274187028Y-96734652D01*
X274266917Y-96854215D01*
X274266918Y-96854217D01*
X274321947Y-96987068D01*
X274350000Y-97128100D01*
X274350000Y-97271900D01*
X274321947Y-97412932D01*
X274266918Y-97545783D01*
X274266917Y-97545785D01*
X274187028Y-97665348D01*
X274085348Y-97767028D01*
X273965785Y-97846917D01*
X273965784Y-97846918D01*
X273965783Y-97846918D01*
X273832932Y-97901947D01*
X273691900Y-97930000D01*
X273548100Y-97930000D01*
X273407068Y-97901947D01*
X273274217Y-97846918D01*
X273274216Y-97846918D01*
X273274215Y-97846917D01*
X273154652Y-97767028D01*
X273052972Y-97665348D01*
X272973083Y-97545785D01*
X272973082Y-97545783D01*
X272918053Y-97412932D01*
X272890000Y-97271900D01*
X272890000Y-97128100D01*
X272918053Y-96987068D01*
X272973082Y-96854217D01*
X272973083Y-96854215D01*
X273052972Y-96734652D01*
X273154652Y-96632972D01*
X273274215Y-96553083D01*
X273274217Y-96553082D01*
X273407068Y-96498053D01*
X273548100Y-96470000D01*
X273691900Y-96470000D01*
X273832932Y-96498053D01*
G37*
G36*
X167582932Y-96498053D02*
G01*
X167715783Y-96553082D01*
X167715785Y-96553083D01*
X167835348Y-96632972D01*
X167937028Y-96734652D01*
X168016917Y-96854215D01*
X168016918Y-96854217D01*
X168071947Y-96987068D01*
X168100000Y-97128100D01*
X168100000Y-97271900D01*
X168071947Y-97412932D01*
X168016918Y-97545783D01*
X168016917Y-97545785D01*
X167937028Y-97665348D01*
X167835348Y-97767028D01*
X167715785Y-97846917D01*
X167715784Y-97846918D01*
X167715783Y-97846918D01*
X167582932Y-97901947D01*
X167441900Y-97930000D01*
X167298100Y-97930000D01*
X167157068Y-97901947D01*
X167024217Y-97846918D01*
X167024216Y-97846918D01*
X167024215Y-97846917D01*
X166904652Y-97767028D01*
X166802972Y-97665348D01*
X166723083Y-97545785D01*
X166723082Y-97545783D01*
X166668053Y-97412932D01*
X166640000Y-97271900D01*
X166640000Y-97128100D01*
X166668053Y-96987068D01*
X166723082Y-96854217D01*
X166723083Y-96854215D01*
X166802972Y-96734652D01*
X166904652Y-96632972D01*
X167024215Y-96553083D01*
X167024217Y-96553082D01*
X167157068Y-96498053D01*
X167298100Y-96470000D01*
X167441900Y-96470000D01*
X167582932Y-96498053D01*
G37*
G36*
X152342932Y-96498053D02*
G01*
X152475783Y-96553082D01*
X152475785Y-96553083D01*
X152595348Y-96632972D01*
X152697028Y-96734652D01*
X152776917Y-96854215D01*
X152776918Y-96854217D01*
X152831947Y-96987068D01*
X152860000Y-97128100D01*
X152860000Y-97271900D01*
X152831947Y-97412932D01*
X152776918Y-97545783D01*
X152776917Y-97545785D01*
X152697028Y-97665348D01*
X152595348Y-97767028D01*
X152475785Y-97846917D01*
X152475784Y-97846918D01*
X152475783Y-97846918D01*
X152342932Y-97901947D01*
X152201900Y-97930000D01*
X152058100Y-97930000D01*
X151917068Y-97901947D01*
X151784217Y-97846918D01*
X151784216Y-97846918D01*
X151784215Y-97846917D01*
X151664652Y-97767028D01*
X151562972Y-97665348D01*
X151483083Y-97545785D01*
X151483082Y-97545783D01*
X151428053Y-97412932D01*
X151400000Y-97271900D01*
X151400000Y-97128100D01*
X151428053Y-96987068D01*
X151483082Y-96854217D01*
X151483083Y-96854215D01*
X151562972Y-96734652D01*
X151664652Y-96632972D01*
X151784215Y-96553083D01*
X151784217Y-96553082D01*
X151917068Y-96498053D01*
X152058100Y-96470000D01*
X152201900Y-96470000D01*
X152342932Y-96498053D01*
G37*
G36*
X145748228Y-95431703D02*
G01*
X145903100Y-95495853D01*
X146042481Y-95588985D01*
X146161015Y-95707519D01*
X146254147Y-95846900D01*
X146318297Y-96001772D01*
X146351000Y-96166184D01*
X146351000Y-96333816D01*
X146318297Y-96498228D01*
X146254147Y-96653100D01*
X146161015Y-96792481D01*
X146042481Y-96911015D01*
X145903100Y-97004147D01*
X145748228Y-97068297D01*
X145583816Y-97101000D01*
X145416184Y-97101000D01*
X145251772Y-97068297D01*
X145096900Y-97004147D01*
X144957519Y-96911015D01*
X144838985Y-96792481D01*
X144745853Y-96653100D01*
X144681703Y-96498228D01*
X144649000Y-96333816D01*
X144649000Y-96166184D01*
X144681703Y-96001772D01*
X144745853Y-95846900D01*
X144838985Y-95707519D01*
X144957519Y-95588985D01*
X145096900Y-95495853D01*
X145251772Y-95431703D01*
X145416184Y-95399000D01*
X145583816Y-95399000D01*
X145748228Y-95431703D01*
G37*
G36*
X201998228Y-95431703D02*
G01*
X202153100Y-95495853D01*
X202292481Y-95588985D01*
X202411015Y-95707519D01*
X202504147Y-95846900D01*
X202568297Y-96001772D01*
X202601000Y-96166184D01*
X202601000Y-96333816D01*
X202568297Y-96498228D01*
X202504147Y-96653100D01*
X202411015Y-96792481D01*
X202292481Y-96911015D01*
X202153100Y-97004147D01*
X201998228Y-97068297D01*
X201833816Y-97101000D01*
X201666184Y-97101000D01*
X201501772Y-97068297D01*
X201346900Y-97004147D01*
X201207519Y-96911015D01*
X201088985Y-96792481D01*
X200995853Y-96653100D01*
X200931703Y-96498228D01*
X200899000Y-96333816D01*
X200899000Y-96166184D01*
X200931703Y-96001772D01*
X200995853Y-95846900D01*
X201088985Y-95707519D01*
X201207519Y-95588985D01*
X201346900Y-95495853D01*
X201501772Y-95431703D01*
X201666184Y-95399000D01*
X201833816Y-95399000D01*
X201998228Y-95431703D01*
G37*
G36*
X251998228Y-95431703D02*
G01*
X252153100Y-95495853D01*
X252292481Y-95588985D01*
X252411015Y-95707519D01*
X252504147Y-95846900D01*
X252568297Y-96001772D01*
X252601000Y-96166184D01*
X252601000Y-96333816D01*
X252568297Y-96498228D01*
X252504147Y-96653100D01*
X252411015Y-96792481D01*
X252292481Y-96911015D01*
X252153100Y-97004147D01*
X251998228Y-97068297D01*
X251833816Y-97101000D01*
X251666184Y-97101000D01*
X251501772Y-97068297D01*
X251346900Y-97004147D01*
X251207519Y-96911015D01*
X251088985Y-96792481D01*
X250995853Y-96653100D01*
X250931703Y-96498228D01*
X250899000Y-96333816D01*
X250899000Y-96166184D01*
X250931703Y-96001772D01*
X250995853Y-95846900D01*
X251088985Y-95707519D01*
X251207519Y-95588985D01*
X251346900Y-95495853D01*
X251501772Y-95431703D01*
X251666184Y-95399000D01*
X251833816Y-95399000D01*
X251998228Y-95431703D01*
G37*
G36*
X223832932Y-93958053D02*
G01*
X223965783Y-94013082D01*
X223965785Y-94013083D01*
X224085348Y-94092972D01*
X224187028Y-94194652D01*
X224266917Y-94314215D01*
X224266918Y-94314217D01*
X224321947Y-94447068D01*
X224350000Y-94588100D01*
X224350000Y-94731900D01*
X224321947Y-94872932D01*
X224266918Y-95005783D01*
X224266917Y-95005785D01*
X224187028Y-95125348D01*
X224085348Y-95227028D01*
X223965785Y-95306917D01*
X223965784Y-95306918D01*
X223965783Y-95306918D01*
X223832932Y-95361947D01*
X223691900Y-95390000D01*
X223548100Y-95390000D01*
X223407068Y-95361947D01*
X223274217Y-95306918D01*
X223274216Y-95306918D01*
X223274215Y-95306917D01*
X223154652Y-95227028D01*
X223052972Y-95125348D01*
X222973083Y-95005785D01*
X222973082Y-95005783D01*
X222918053Y-94872932D01*
X222890000Y-94731900D01*
X222890000Y-94588100D01*
X222918053Y-94447068D01*
X222973082Y-94314217D01*
X222973083Y-94314215D01*
X223052972Y-94194652D01*
X223154652Y-94092972D01*
X223274215Y-94013083D01*
X223274217Y-94013082D01*
X223407068Y-93958053D01*
X223548100Y-93930000D01*
X223691900Y-93930000D01*
X223832932Y-93958053D01*
G37*
G36*
X209110000Y-95390000D02*
G01*
X207650000Y-95390000D01*
X207650000Y-93930000D01*
X209110000Y-93930000D01*
X209110000Y-95390000D01*
G37*
G36*
X152860000Y-95390000D02*
G01*
X151400000Y-95390000D01*
X151400000Y-93930000D01*
X152860000Y-93930000D01*
X152860000Y-95390000D01*
G37*
G36*
X167582932Y-93958053D02*
G01*
X167715783Y-94013082D01*
X167715785Y-94013083D01*
X167835348Y-94092972D01*
X167937028Y-94194652D01*
X168016917Y-94314215D01*
X168016918Y-94314217D01*
X168071947Y-94447068D01*
X168100000Y-94588100D01*
X168100000Y-94731900D01*
X168071947Y-94872932D01*
X168016918Y-95005783D01*
X168016917Y-95005785D01*
X167937028Y-95125348D01*
X167835348Y-95227028D01*
X167715785Y-95306917D01*
X167715784Y-95306918D01*
X167715783Y-95306918D01*
X167582932Y-95361947D01*
X167441900Y-95390000D01*
X167298100Y-95390000D01*
X167157068Y-95361947D01*
X167024217Y-95306918D01*
X167024216Y-95306918D01*
X167024215Y-95306917D01*
X166904652Y-95227028D01*
X166802972Y-95125348D01*
X166723083Y-95005785D01*
X166723082Y-95005783D01*
X166668053Y-94872932D01*
X166640000Y-94731900D01*
X166640000Y-94588100D01*
X166668053Y-94447068D01*
X166723082Y-94314217D01*
X166723083Y-94314215D01*
X166802972Y-94194652D01*
X166904652Y-94092972D01*
X167024215Y-94013083D01*
X167024217Y-94013082D01*
X167157068Y-93958053D01*
X167298100Y-93930000D01*
X167441900Y-93930000D01*
X167582932Y-93958053D01*
G37*
G36*
X259110000Y-95390000D02*
G01*
X257650000Y-95390000D01*
X257650000Y-93930000D01*
X259110000Y-93930000D01*
X259110000Y-95390000D01*
G37*
G36*
X273832932Y-93958053D02*
G01*
X273965783Y-94013082D01*
X273965785Y-94013083D01*
X274085348Y-94092972D01*
X274187028Y-94194652D01*
X274266917Y-94314215D01*
X274266918Y-94314217D01*
X274321947Y-94447068D01*
X274350000Y-94588100D01*
X274350000Y-94731900D01*
X274321947Y-94872932D01*
X274266918Y-95005783D01*
X274266917Y-95005785D01*
X274187028Y-95125348D01*
X274085348Y-95227028D01*
X273965785Y-95306917D01*
X273965784Y-95306918D01*
X273965783Y-95306918D01*
X273832932Y-95361947D01*
X273691900Y-95390000D01*
X273548100Y-95390000D01*
X273407068Y-95361947D01*
X273274217Y-95306918D01*
X273274216Y-95306918D01*
X273274215Y-95306917D01*
X273154652Y-95227028D01*
X273052972Y-95125348D01*
X272973083Y-95005785D01*
X272973082Y-95005783D01*
X272918053Y-94872932D01*
X272890000Y-94731900D01*
X272890000Y-94588100D01*
X272918053Y-94447068D01*
X272973082Y-94314217D01*
X272973083Y-94314215D01*
X273052972Y-94194652D01*
X273154652Y-94092972D01*
X273274215Y-94013083D01*
X273274217Y-94013082D01*
X273407068Y-93958053D01*
X273548100Y-93930000D01*
X273691900Y-93930000D01*
X273832932Y-93958053D01*
G37*
G36*
X50550740Y-64550740D02*
G01*
X44449260Y-64550740D01*
X44449260Y-58449260D01*
X50550740Y-58449260D01*
X50550740Y-64550740D01*
G37*
G36*
X106800740Y-64550740D02*
G01*
X100699260Y-64550740D01*
X100699260Y-58449260D01*
X106800740Y-58449260D01*
X106800740Y-64550740D01*
G37*
G36*
X55715170Y-58507879D02*
G01*
X56009868Y-58566498D01*
X56565067Y-58796469D01*
X56850867Y-58987435D01*
X57064733Y-59130335D01*
X57489665Y-59555267D01*
X57632565Y-59769133D01*
X57823531Y-60054933D01*
X58053502Y-60610132D01*
X58170740Y-61199528D01*
X58170740Y-61800472D01*
X58053502Y-62389868D01*
X57823531Y-62945067D01*
X57632565Y-63230867D01*
X57489665Y-63444733D01*
X57064733Y-63869665D01*
X56850867Y-64012565D01*
X56565067Y-64203531D01*
X56009868Y-64433502D01*
X55715170Y-64492121D01*
X55420473Y-64550740D01*
X54819527Y-64550740D01*
X54524830Y-64492121D01*
X54230132Y-64433502D01*
X53674933Y-64203531D01*
X53389133Y-64012565D01*
X53175267Y-63869665D01*
X52750335Y-63444733D01*
X52607435Y-63230867D01*
X52416469Y-62945067D01*
X52186498Y-62389868D01*
X52069260Y-61800472D01*
X52069260Y-61199528D01*
X52186498Y-60610132D01*
X52416469Y-60054933D01*
X52607435Y-59769133D01*
X52750335Y-59555267D01*
X53175267Y-59130335D01*
X53389133Y-58987435D01*
X53674933Y-58796469D01*
X54230132Y-58566498D01*
X54524830Y-58507879D01*
X54819527Y-58449260D01*
X55420473Y-58449260D01*
X55715170Y-58507879D01*
G37*
G36*
X265300740Y-64550740D02*
G01*
X259199260Y-64550740D01*
X259199260Y-58449260D01*
X265300740Y-58449260D01*
X265300740Y-64550740D01*
G37*
G36*
X220465170Y-58507879D02*
G01*
X220759868Y-58566498D01*
X221315067Y-58796469D01*
X221600867Y-58987435D01*
X221814733Y-59130335D01*
X222239665Y-59555267D01*
X222382565Y-59769133D01*
X222573531Y-60054933D01*
X222803502Y-60610132D01*
X222920740Y-61199528D01*
X222920740Y-61800472D01*
X222803502Y-62389868D01*
X222573531Y-62945067D01*
X222382565Y-63230867D01*
X222239665Y-63444733D01*
X221814733Y-63869665D01*
X221600867Y-64012565D01*
X221315067Y-64203531D01*
X220759868Y-64433502D01*
X220465170Y-64492121D01*
X220170473Y-64550740D01*
X219569527Y-64550740D01*
X219274830Y-64492121D01*
X218980132Y-64433502D01*
X218424933Y-64203531D01*
X218139133Y-64012565D01*
X217925267Y-63869665D01*
X217500335Y-63444733D01*
X217357435Y-63230867D01*
X217166469Y-62945067D01*
X216936498Y-62389868D01*
X216819260Y-61800472D01*
X216819260Y-61199528D01*
X216936498Y-60610132D01*
X217166469Y-60054933D01*
X217357435Y-59769133D01*
X217500335Y-59555267D01*
X217925267Y-59130335D01*
X218139133Y-58987435D01*
X218424933Y-58796469D01*
X218980132Y-58566498D01*
X219274830Y-58507879D01*
X219569527Y-58449260D01*
X220170473Y-58449260D01*
X220465170Y-58507879D01*
G37*
G36*
X215300740Y-64550740D02*
G01*
X209199260Y-64550740D01*
X209199260Y-58449260D01*
X215300740Y-58449260D01*
X215300740Y-64550740D01*
G37*
G36*
X270465170Y-58507879D02*
G01*
X270759868Y-58566498D01*
X271315067Y-58796469D01*
X271600867Y-58987435D01*
X271814733Y-59130335D01*
X272239665Y-59555267D01*
X272382565Y-59769133D01*
X272573531Y-60054933D01*
X272803502Y-60610132D01*
X272920740Y-61199528D01*
X272920740Y-61800472D01*
X272803502Y-62389868D01*
X272573531Y-62945067D01*
X272382565Y-63230867D01*
X272239665Y-63444733D01*
X271814733Y-63869665D01*
X271600867Y-64012565D01*
X271315067Y-64203531D01*
X270759868Y-64433502D01*
X270465170Y-64492121D01*
X270170473Y-64550740D01*
X269569527Y-64550740D01*
X269274830Y-64492121D01*
X268980132Y-64433502D01*
X268424933Y-64203531D01*
X268139133Y-64012565D01*
X267925267Y-63869665D01*
X267500335Y-63444733D01*
X267357435Y-63230867D01*
X267166469Y-62945067D01*
X266936498Y-62389868D01*
X266819260Y-61800472D01*
X266819260Y-61199528D01*
X266936498Y-60610132D01*
X267166469Y-60054933D01*
X267357435Y-59769133D01*
X267500335Y-59555267D01*
X267925267Y-59130335D01*
X268139133Y-58987435D01*
X268424933Y-58796469D01*
X268980132Y-58566498D01*
X269274830Y-58507879D01*
X269569527Y-58449260D01*
X270170473Y-58449260D01*
X270465170Y-58507879D01*
G37*
G36*
X159050740Y-64550740D02*
G01*
X152949260Y-64550740D01*
X152949260Y-58449260D01*
X159050740Y-58449260D01*
X159050740Y-64550740D01*
G37*
G36*
X164215170Y-58507879D02*
G01*
X164509868Y-58566498D01*
X165065067Y-58796469D01*
X165350867Y-58987435D01*
X165564733Y-59130335D01*
X165989665Y-59555267D01*
X166132565Y-59769133D01*
X166323531Y-60054933D01*
X166553502Y-60610132D01*
X166670740Y-61199528D01*
X166670740Y-61800472D01*
X166553502Y-62389868D01*
X166323531Y-62945067D01*
X166132565Y-63230867D01*
X165989665Y-63444733D01*
X165564733Y-63869665D01*
X165350867Y-64012565D01*
X165065067Y-64203531D01*
X164509868Y-64433502D01*
X164215170Y-64492121D01*
X163920473Y-64550740D01*
X163319527Y-64550740D01*
X163024830Y-64492121D01*
X162730132Y-64433502D01*
X162174933Y-64203531D01*
X161889133Y-64012565D01*
X161675267Y-63869665D01*
X161250335Y-63444733D01*
X161107435Y-63230867D01*
X160916469Y-62945067D01*
X160686498Y-62389868D01*
X160569260Y-61800472D01*
X160569260Y-61199528D01*
X160686498Y-60610132D01*
X160916469Y-60054933D01*
X161107435Y-59769133D01*
X161250335Y-59555267D01*
X161675267Y-59130335D01*
X161889133Y-58987435D01*
X162174933Y-58796469D01*
X162730132Y-58566498D01*
X163024830Y-58507879D01*
X163319527Y-58449260D01*
X163920473Y-58449260D01*
X164215170Y-58507879D01*
G37*
G36*
X111965170Y-58507879D02*
G01*
X112259868Y-58566498D01*
X112815067Y-58796469D01*
X113100867Y-58987435D01*
X113314733Y-59130335D01*
X113739665Y-59555267D01*
X113882565Y-59769133D01*
X114073531Y-60054933D01*
X114303502Y-60610132D01*
X114420740Y-61199528D01*
X114420740Y-61800472D01*
X114303502Y-62389868D01*
X114073531Y-62945067D01*
X113882565Y-63230867D01*
X113739665Y-63444733D01*
X113314733Y-63869665D01*
X113100867Y-64012565D01*
X112815067Y-64203531D01*
X112259868Y-64433502D01*
X111965170Y-64492121D01*
X111670473Y-64550740D01*
X111069527Y-64550740D01*
X110774830Y-64492121D01*
X110480132Y-64433502D01*
X109924933Y-64203531D01*
X109639133Y-64012565D01*
X109425267Y-63869665D01*
X109000335Y-63444733D01*
X108857435Y-63230867D01*
X108666469Y-62945067D01*
X108436498Y-62389868D01*
X108319260Y-61800472D01*
X108319260Y-61199528D01*
X108436498Y-60610132D01*
X108666469Y-60054933D01*
X108857435Y-59769133D01*
X109000335Y-59555267D01*
X109425267Y-59130335D01*
X109639133Y-58987435D01*
X109924933Y-58796469D01*
X110480132Y-58566498D01*
X110774830Y-58507879D01*
X111069527Y-58449260D01*
X111670473Y-58449260D01*
X111965170Y-58507879D01*
G37*
G36*
X35095170Y-49127879D02*
G01*
X35389868Y-49186498D01*
X35945067Y-49416469D01*
X36230867Y-49607435D01*
X36444733Y-49750335D01*
X36869665Y-50175267D01*
X36966372Y-50320000D01*
X37203531Y-50674933D01*
X37433502Y-51230132D01*
X37466452Y-51395783D01*
X37542878Y-51780000D01*
X37550740Y-51819528D01*
X37550740Y-52420472D01*
X37433502Y-53009868D01*
X37203531Y-53565067D01*
X37012565Y-53850867D01*
X36869665Y-54064733D01*
X36444733Y-54489665D01*
X36230867Y-54632565D01*
X35945067Y-54823531D01*
X35389868Y-55053502D01*
X35095170Y-55112121D01*
X34800473Y-55170740D01*
X34199527Y-55170740D01*
X33904830Y-55112121D01*
X33610132Y-55053502D01*
X33054933Y-54823531D01*
X32769133Y-54632565D01*
X32555267Y-54489665D01*
X32130335Y-54064733D01*
X31987435Y-53850867D01*
X31796469Y-53565067D01*
X31566498Y-53009868D01*
X31449260Y-52420472D01*
X31449260Y-51819528D01*
X31457123Y-51780000D01*
X31533548Y-51395783D01*
X31566498Y-51230132D01*
X31796469Y-50674933D01*
X32033628Y-50320000D01*
X32130335Y-50175267D01*
X32555267Y-49750335D01*
X32769133Y-49607435D01*
X33054933Y-49416469D01*
X33610132Y-49186498D01*
X33904830Y-49127879D01*
X34199527Y-49069260D01*
X34800473Y-49069260D01*
X35095170Y-49127879D01*
G37*
G36*
X143595170Y-49127879D02*
G01*
X143889868Y-49186498D01*
X144445067Y-49416469D01*
X144730867Y-49607435D01*
X144944733Y-49750335D01*
X145369665Y-50175267D01*
X145466372Y-50320000D01*
X145703531Y-50674933D01*
X145933502Y-51230132D01*
X145966452Y-51395783D01*
X146042878Y-51780000D01*
X146050740Y-51819528D01*
X146050740Y-52420472D01*
X145933502Y-53009868D01*
X145703531Y-53565067D01*
X145512565Y-53850867D01*
X145369665Y-54064733D01*
X144944733Y-54489665D01*
X144730867Y-54632565D01*
X144445067Y-54823531D01*
X143889868Y-55053502D01*
X143595170Y-55112121D01*
X143300473Y-55170740D01*
X142699527Y-55170740D01*
X142404830Y-55112121D01*
X142110132Y-55053502D01*
X141554933Y-54823531D01*
X141269133Y-54632565D01*
X141055267Y-54489665D01*
X140630335Y-54064733D01*
X140487435Y-53850867D01*
X140296469Y-53565067D01*
X140066498Y-53009868D01*
X139949260Y-52420472D01*
X139949260Y-51819528D01*
X139957123Y-51780000D01*
X140033548Y-51395783D01*
X140066498Y-51230132D01*
X140296469Y-50674933D01*
X140533628Y-50320000D01*
X140630335Y-50175267D01*
X141055267Y-49750335D01*
X141269133Y-49607435D01*
X141554933Y-49416469D01*
X142110132Y-49186498D01*
X142404830Y-49127879D01*
X142699527Y-49069260D01*
X143300473Y-49069260D01*
X143595170Y-49127879D01*
G37*
G36*
X199845170Y-49127879D02*
G01*
X200139868Y-49186498D01*
X200695067Y-49416469D01*
X200980867Y-49607435D01*
X201194733Y-49750335D01*
X201619665Y-50175267D01*
X201716372Y-50320000D01*
X201953531Y-50674933D01*
X202183502Y-51230132D01*
X202216452Y-51395783D01*
X202292878Y-51780000D01*
X202300740Y-51819528D01*
X202300740Y-52420472D01*
X202183502Y-53009868D01*
X201953531Y-53565067D01*
X201762565Y-53850867D01*
X201619665Y-54064733D01*
X201194733Y-54489665D01*
X200980867Y-54632565D01*
X200695067Y-54823531D01*
X200139868Y-55053502D01*
X199845170Y-55112121D01*
X199550473Y-55170740D01*
X198949527Y-55170740D01*
X198654830Y-55112121D01*
X198360132Y-55053502D01*
X197804933Y-54823531D01*
X197519133Y-54632565D01*
X197305267Y-54489665D01*
X196880335Y-54064733D01*
X196737435Y-53850867D01*
X196546469Y-53565067D01*
X196316498Y-53009868D01*
X196199260Y-52420472D01*
X196199260Y-51819528D01*
X196207123Y-51780000D01*
X196283548Y-51395783D01*
X196316498Y-51230132D01*
X196546469Y-50674933D01*
X196783628Y-50320000D01*
X196880335Y-50175267D01*
X197305267Y-49750335D01*
X197519133Y-49607435D01*
X197804933Y-49416469D01*
X198360132Y-49186498D01*
X198654830Y-49127879D01*
X198949527Y-49069260D01*
X199550473Y-49069260D01*
X199845170Y-49127879D01*
G37*
G36*
X91345170Y-49127879D02*
G01*
X91639868Y-49186498D01*
X92195067Y-49416469D01*
X92480867Y-49607435D01*
X92694733Y-49750335D01*
X93119665Y-50175267D01*
X93216372Y-50320000D01*
X93453531Y-50674933D01*
X93683502Y-51230132D01*
X93716452Y-51395783D01*
X93792878Y-51780000D01*
X93800740Y-51819528D01*
X93800740Y-52420472D01*
X93683502Y-53009868D01*
X93453531Y-53565067D01*
X93262565Y-53850867D01*
X93119665Y-54064733D01*
X92694733Y-54489665D01*
X92480867Y-54632565D01*
X92195067Y-54823531D01*
X91639868Y-55053502D01*
X91345170Y-55112121D01*
X91050473Y-55170740D01*
X90449527Y-55170740D01*
X90154830Y-55112121D01*
X89860132Y-55053502D01*
X89304933Y-54823531D01*
X89019133Y-54632565D01*
X88805267Y-54489665D01*
X88380335Y-54064733D01*
X88237435Y-53850867D01*
X88046469Y-53565067D01*
X87816498Y-53009868D01*
X87699260Y-52420472D01*
X87699260Y-51819528D01*
X87707123Y-51780000D01*
X87783548Y-51395783D01*
X87816498Y-51230132D01*
X88046469Y-50674933D01*
X88283628Y-50320000D01*
X88380335Y-50175267D01*
X88805267Y-49750335D01*
X89019133Y-49607435D01*
X89304933Y-49416469D01*
X89860132Y-49186498D01*
X90154830Y-49127879D01*
X90449527Y-49069260D01*
X91050473Y-49069260D01*
X91345170Y-49127879D01*
G37*
G36*
X249845170Y-49127879D02*
G01*
X250139868Y-49186498D01*
X250695067Y-49416469D01*
X250980867Y-49607435D01*
X251194733Y-49750335D01*
X251619665Y-50175267D01*
X251716372Y-50320000D01*
X251953531Y-50674933D01*
X252183502Y-51230132D01*
X252216452Y-51395783D01*
X252292878Y-51780000D01*
X252300740Y-51819528D01*
X252300740Y-52420472D01*
X252183502Y-53009868D01*
X251953531Y-53565067D01*
X251762565Y-53850867D01*
X251619665Y-54064733D01*
X251194733Y-54489665D01*
X250980867Y-54632565D01*
X250695067Y-54823531D01*
X250139868Y-55053502D01*
X249845170Y-55112121D01*
X249550473Y-55170740D01*
X248949527Y-55170740D01*
X248654830Y-55112121D01*
X248360132Y-55053502D01*
X247804933Y-54823531D01*
X247519133Y-54632565D01*
X247305267Y-54489665D01*
X246880335Y-54064733D01*
X246737435Y-53850867D01*
X246546469Y-53565067D01*
X246316498Y-53009868D01*
X246199260Y-52420472D01*
X246199260Y-51819528D01*
X246207123Y-51780000D01*
X246283548Y-51395783D01*
X246316498Y-51230132D01*
X246546469Y-50674933D01*
X246783628Y-50320000D01*
X246880335Y-50175267D01*
X247305267Y-49750335D01*
X247519133Y-49607435D01*
X247804933Y-49416469D01*
X248360132Y-49186498D01*
X248654830Y-49127879D01*
X248949527Y-49069260D01*
X249550473Y-49069260D01*
X249845170Y-49127879D01*
G37*
G36*
X115332932Y-52888053D02*
G01*
X115465783Y-52943082D01*
X115465785Y-52943083D01*
X115585348Y-53022972D01*
X115687028Y-53124652D01*
X115766917Y-53244215D01*
X115766918Y-53244217D01*
X115821947Y-53377068D01*
X115850000Y-53518100D01*
X115850000Y-53661900D01*
X115821947Y-53802932D01*
X115766918Y-53935783D01*
X115766917Y-53935785D01*
X115687028Y-54055348D01*
X115585348Y-54157028D01*
X115465785Y-54236917D01*
X115465784Y-54236918D01*
X115465783Y-54236918D01*
X115332932Y-54291947D01*
X115191900Y-54320000D01*
X115048100Y-54320000D01*
X114907068Y-54291947D01*
X114774217Y-54236918D01*
X114774216Y-54236918D01*
X114774215Y-54236917D01*
X114654652Y-54157028D01*
X114552972Y-54055348D01*
X114473083Y-53935785D01*
X114473082Y-53935783D01*
X114418053Y-53802932D01*
X114390000Y-53661900D01*
X114390000Y-53518100D01*
X114418053Y-53377068D01*
X114473082Y-53244217D01*
X114473083Y-53244215D01*
X114552972Y-53124652D01*
X114654652Y-53022972D01*
X114774215Y-52943083D01*
X114774217Y-52943082D01*
X114907068Y-52888053D01*
X115048100Y-52860000D01*
X115191900Y-52860000D01*
X115332932Y-52888053D01*
G37*
G36*
X43842932Y-52888053D02*
G01*
X43975783Y-52943082D01*
X43975785Y-52943083D01*
X44095348Y-53022972D01*
X44197028Y-53124652D01*
X44276917Y-53244215D01*
X44276918Y-53244217D01*
X44331947Y-53377068D01*
X44360000Y-53518100D01*
X44360000Y-53661900D01*
X44331947Y-53802932D01*
X44276918Y-53935783D01*
X44276917Y-53935785D01*
X44197028Y-54055348D01*
X44095348Y-54157028D01*
X43975785Y-54236917D01*
X43975784Y-54236918D01*
X43975783Y-54236918D01*
X43842932Y-54291947D01*
X43701900Y-54320000D01*
X43558100Y-54320000D01*
X43417068Y-54291947D01*
X43284217Y-54236918D01*
X43284216Y-54236918D01*
X43284215Y-54236917D01*
X43164652Y-54157028D01*
X43062972Y-54055348D01*
X42983083Y-53935785D01*
X42983082Y-53935783D01*
X42928053Y-53802932D01*
X42900000Y-53661900D01*
X42900000Y-53518100D01*
X42928053Y-53377068D01*
X42983082Y-53244217D01*
X42983083Y-53244215D01*
X43062972Y-53124652D01*
X43164652Y-53022972D01*
X43284215Y-52943083D01*
X43284217Y-52943082D01*
X43417068Y-52888053D01*
X43558100Y-52860000D01*
X43701900Y-52860000D01*
X43842932Y-52888053D01*
G37*
G36*
X208592932Y-52888053D02*
G01*
X208725783Y-52943082D01*
X208725785Y-52943083D01*
X208845348Y-53022972D01*
X208947028Y-53124652D01*
X209026917Y-53244215D01*
X209026918Y-53244217D01*
X209081947Y-53377068D01*
X209110000Y-53518100D01*
X209110000Y-53661900D01*
X209081947Y-53802932D01*
X209026918Y-53935783D01*
X209026917Y-53935785D01*
X208947028Y-54055348D01*
X208845348Y-54157028D01*
X208725785Y-54236917D01*
X208725784Y-54236918D01*
X208725783Y-54236918D01*
X208592932Y-54291947D01*
X208451900Y-54320000D01*
X208308100Y-54320000D01*
X208167068Y-54291947D01*
X208034217Y-54236918D01*
X208034216Y-54236918D01*
X208034215Y-54236917D01*
X207914652Y-54157028D01*
X207812972Y-54055348D01*
X207733083Y-53935785D01*
X207733082Y-53935783D01*
X207678053Y-53802932D01*
X207650000Y-53661900D01*
X207650000Y-53518100D01*
X207678053Y-53377068D01*
X207733082Y-53244217D01*
X207733083Y-53244215D01*
X207812972Y-53124652D01*
X207914652Y-53022972D01*
X208034215Y-52943083D01*
X208034217Y-52943082D01*
X208167068Y-52888053D01*
X208308100Y-52860000D01*
X208451900Y-52860000D01*
X208592932Y-52888053D01*
G37*
G36*
X223832932Y-52888053D02*
G01*
X223965783Y-52943082D01*
X223965785Y-52943083D01*
X224085348Y-53022972D01*
X224187028Y-53124652D01*
X224266917Y-53244215D01*
X224266918Y-53244217D01*
X224321947Y-53377068D01*
X224350000Y-53518100D01*
X224350000Y-53661900D01*
X224321947Y-53802932D01*
X224266918Y-53935783D01*
X224266917Y-53935785D01*
X224187028Y-54055348D01*
X224085348Y-54157028D01*
X223965785Y-54236917D01*
X223965784Y-54236918D01*
X223965783Y-54236918D01*
X223832932Y-54291947D01*
X223691900Y-54320000D01*
X223548100Y-54320000D01*
X223407068Y-54291947D01*
X223274217Y-54236918D01*
X223274216Y-54236918D01*
X223274215Y-54236917D01*
X223154652Y-54157028D01*
X223052972Y-54055348D01*
X222973083Y-53935785D01*
X222973082Y-53935783D01*
X222918053Y-53802932D01*
X222890000Y-53661900D01*
X222890000Y-53518100D01*
X222918053Y-53377068D01*
X222973082Y-53244217D01*
X222973083Y-53244215D01*
X223052972Y-53124652D01*
X223154652Y-53022972D01*
X223274215Y-52943083D01*
X223274217Y-52943082D01*
X223407068Y-52888053D01*
X223548100Y-52860000D01*
X223691900Y-52860000D01*
X223832932Y-52888053D01*
G37*
G36*
X152342932Y-52888053D02*
G01*
X152475783Y-52943082D01*
X152475785Y-52943083D01*
X152595348Y-53022972D01*
X152697028Y-53124652D01*
X152776917Y-53244215D01*
X152776918Y-53244217D01*
X152831947Y-53377068D01*
X152860000Y-53518100D01*
X152860000Y-53661900D01*
X152831947Y-53802932D01*
X152776918Y-53935783D01*
X152776917Y-53935785D01*
X152697028Y-54055348D01*
X152595348Y-54157028D01*
X152475785Y-54236917D01*
X152475784Y-54236918D01*
X152475783Y-54236918D01*
X152342932Y-54291947D01*
X152201900Y-54320000D01*
X152058100Y-54320000D01*
X151917068Y-54291947D01*
X151784217Y-54236918D01*
X151784216Y-54236918D01*
X151784215Y-54236917D01*
X151664652Y-54157028D01*
X151562972Y-54055348D01*
X151483083Y-53935785D01*
X151483082Y-53935783D01*
X151428053Y-53802932D01*
X151400000Y-53661900D01*
X151400000Y-53518100D01*
X151428053Y-53377068D01*
X151483082Y-53244217D01*
X151483083Y-53244215D01*
X151562972Y-53124652D01*
X151664652Y-53022972D01*
X151784215Y-52943083D01*
X151784217Y-52943082D01*
X151917068Y-52888053D01*
X152058100Y-52860000D01*
X152201900Y-52860000D01*
X152342932Y-52888053D01*
G37*
G36*
X100092932Y-52888053D02*
G01*
X100225783Y-52943082D01*
X100225785Y-52943083D01*
X100345348Y-53022972D01*
X100447028Y-53124652D01*
X100526917Y-53244215D01*
X100526918Y-53244217D01*
X100581947Y-53377068D01*
X100610000Y-53518100D01*
X100610000Y-53661900D01*
X100581947Y-53802932D01*
X100526918Y-53935783D01*
X100526917Y-53935785D01*
X100447028Y-54055348D01*
X100345348Y-54157028D01*
X100225785Y-54236917D01*
X100225784Y-54236918D01*
X100225783Y-54236918D01*
X100092932Y-54291947D01*
X99951900Y-54320000D01*
X99808100Y-54320000D01*
X99667068Y-54291947D01*
X99534217Y-54236918D01*
X99534216Y-54236918D01*
X99534215Y-54236917D01*
X99414652Y-54157028D01*
X99312972Y-54055348D01*
X99233083Y-53935785D01*
X99233082Y-53935783D01*
X99178053Y-53802932D01*
X99150000Y-53661900D01*
X99150000Y-53518100D01*
X99178053Y-53377068D01*
X99233082Y-53244217D01*
X99233083Y-53244215D01*
X99312972Y-53124652D01*
X99414652Y-53022972D01*
X99534215Y-52943083D01*
X99534217Y-52943082D01*
X99667068Y-52888053D01*
X99808100Y-52860000D01*
X99951900Y-52860000D01*
X100092932Y-52888053D01*
G37*
G36*
X59082932Y-52888053D02*
G01*
X59215783Y-52943082D01*
X59215785Y-52943083D01*
X59335348Y-53022972D01*
X59437028Y-53124652D01*
X59516917Y-53244215D01*
X59516918Y-53244217D01*
X59571947Y-53377068D01*
X59600000Y-53518100D01*
X59600000Y-53661900D01*
X59571947Y-53802932D01*
X59516918Y-53935783D01*
X59516917Y-53935785D01*
X59437028Y-54055348D01*
X59335348Y-54157028D01*
X59215785Y-54236917D01*
X59215784Y-54236918D01*
X59215783Y-54236918D01*
X59082932Y-54291947D01*
X58941900Y-54320000D01*
X58798100Y-54320000D01*
X58657068Y-54291947D01*
X58524217Y-54236918D01*
X58524216Y-54236918D01*
X58524215Y-54236917D01*
X58404652Y-54157028D01*
X58302972Y-54055348D01*
X58223083Y-53935785D01*
X58223082Y-53935783D01*
X58168053Y-53802932D01*
X58140000Y-53661900D01*
X58140000Y-53518100D01*
X58168053Y-53377068D01*
X58223082Y-53244217D01*
X58223083Y-53244215D01*
X58302972Y-53124652D01*
X58404652Y-53022972D01*
X58524215Y-52943083D01*
X58524217Y-52943082D01*
X58657068Y-52888053D01*
X58798100Y-52860000D01*
X58941900Y-52860000D01*
X59082932Y-52888053D01*
G37*
G36*
X258592932Y-52888053D02*
G01*
X258725783Y-52943082D01*
X258725785Y-52943083D01*
X258845348Y-53022972D01*
X258947028Y-53124652D01*
X259026917Y-53244215D01*
X259026918Y-53244217D01*
X259081947Y-53377068D01*
X259110000Y-53518100D01*
X259110000Y-53661900D01*
X259081947Y-53802932D01*
X259026918Y-53935783D01*
X259026917Y-53935785D01*
X258947028Y-54055348D01*
X258845348Y-54157028D01*
X258725785Y-54236917D01*
X258725784Y-54236918D01*
X258725783Y-54236918D01*
X258592932Y-54291947D01*
X258451900Y-54320000D01*
X258308100Y-54320000D01*
X258167068Y-54291947D01*
X258034217Y-54236918D01*
X258034216Y-54236918D01*
X258034215Y-54236917D01*
X257914652Y-54157028D01*
X257812972Y-54055348D01*
X257733083Y-53935785D01*
X257733082Y-53935783D01*
X257678053Y-53802932D01*
X257650000Y-53661900D01*
X257650000Y-53518100D01*
X257678053Y-53377068D01*
X257733082Y-53244217D01*
X257733083Y-53244215D01*
X257812972Y-53124652D01*
X257914652Y-53022972D01*
X258034215Y-52943083D01*
X258034217Y-52943082D01*
X258167068Y-52888053D01*
X258308100Y-52860000D01*
X258451900Y-52860000D01*
X258592932Y-52888053D01*
G37*
G36*
X273832932Y-52888053D02*
G01*
X273965783Y-52943082D01*
X273965785Y-52943083D01*
X274085348Y-53022972D01*
X274187028Y-53124652D01*
X274266917Y-53244215D01*
X274266918Y-53244217D01*
X274321947Y-53377068D01*
X274350000Y-53518100D01*
X274350000Y-53661900D01*
X274321947Y-53802932D01*
X274266918Y-53935783D01*
X274266917Y-53935785D01*
X274187028Y-54055348D01*
X274085348Y-54157028D01*
X273965785Y-54236917D01*
X273965784Y-54236918D01*
X273965783Y-54236918D01*
X273832932Y-54291947D01*
X273691900Y-54320000D01*
X273548100Y-54320000D01*
X273407068Y-54291947D01*
X273274217Y-54236918D01*
X273274216Y-54236918D01*
X273274215Y-54236917D01*
X273154652Y-54157028D01*
X273052972Y-54055348D01*
X272973083Y-53935785D01*
X272973082Y-53935783D01*
X272918053Y-53802932D01*
X272890000Y-53661900D01*
X272890000Y-53518100D01*
X272918053Y-53377068D01*
X272973082Y-53244217D01*
X272973083Y-53244215D01*
X273052972Y-53124652D01*
X273154652Y-53022972D01*
X273274215Y-52943083D01*
X273274217Y-52943082D01*
X273407068Y-52888053D01*
X273548100Y-52860000D01*
X273691900Y-52860000D01*
X273832932Y-52888053D01*
G37*
G36*
X167582932Y-52888053D02*
G01*
X167715783Y-52943082D01*
X167715785Y-52943083D01*
X167835348Y-53022972D01*
X167937028Y-53124652D01*
X168016917Y-53244215D01*
X168016918Y-53244217D01*
X168071947Y-53377068D01*
X168100000Y-53518100D01*
X168100000Y-53661900D01*
X168071947Y-53802932D01*
X168016918Y-53935783D01*
X168016917Y-53935785D01*
X167937028Y-54055348D01*
X167835348Y-54157028D01*
X167715785Y-54236917D01*
X167715784Y-54236918D01*
X167715783Y-54236918D01*
X167582932Y-54291947D01*
X167441900Y-54320000D01*
X167298100Y-54320000D01*
X167157068Y-54291947D01*
X167024217Y-54236918D01*
X167024216Y-54236918D01*
X167024215Y-54236917D01*
X166904652Y-54157028D01*
X166802972Y-54055348D01*
X166723083Y-53935785D01*
X166723082Y-53935783D01*
X166668053Y-53802932D01*
X166640000Y-53661900D01*
X166640000Y-53518100D01*
X166668053Y-53377068D01*
X166723082Y-53244217D01*
X166723083Y-53244215D01*
X166802972Y-53124652D01*
X166904652Y-53022972D01*
X167024215Y-52943083D01*
X167024217Y-52943082D01*
X167157068Y-52888053D01*
X167298100Y-52860000D01*
X167441900Y-52860000D01*
X167582932Y-52888053D01*
G37*
G36*
X59082932Y-50348053D02*
G01*
X59215783Y-50403082D01*
X59215785Y-50403083D01*
X59335348Y-50482972D01*
X59437028Y-50584652D01*
X59516917Y-50704215D01*
X59516918Y-50704217D01*
X59571947Y-50837068D01*
X59600000Y-50978100D01*
X59600000Y-51121900D01*
X59571947Y-51262932D01*
X59516918Y-51395783D01*
X59516917Y-51395785D01*
X59437028Y-51515348D01*
X59335348Y-51617028D01*
X59215785Y-51696917D01*
X59215784Y-51696918D01*
X59215783Y-51696918D01*
X59082932Y-51751947D01*
X58941900Y-51780000D01*
X58798100Y-51780000D01*
X58657068Y-51751947D01*
X58524217Y-51696918D01*
X58524216Y-51696918D01*
X58524215Y-51696917D01*
X58404652Y-51617028D01*
X58302972Y-51515348D01*
X58223083Y-51395785D01*
X58223082Y-51395783D01*
X58168053Y-51262932D01*
X58140000Y-51121900D01*
X58140000Y-50978100D01*
X58168053Y-50837068D01*
X58223082Y-50704217D01*
X58223083Y-50704215D01*
X58302972Y-50584652D01*
X58404652Y-50482972D01*
X58524215Y-50403083D01*
X58524217Y-50403082D01*
X58657068Y-50348053D01*
X58798100Y-50320000D01*
X58941900Y-50320000D01*
X59082932Y-50348053D01*
G37*
G36*
X223832932Y-50348053D02*
G01*
X223965783Y-50403082D01*
X223965785Y-50403083D01*
X224085348Y-50482972D01*
X224187028Y-50584652D01*
X224266917Y-50704215D01*
X224266918Y-50704217D01*
X224321947Y-50837068D01*
X224350000Y-50978100D01*
X224350000Y-51121900D01*
X224321947Y-51262932D01*
X224266918Y-51395783D01*
X224266917Y-51395785D01*
X224187028Y-51515348D01*
X224085348Y-51617028D01*
X223965785Y-51696917D01*
X223965784Y-51696918D01*
X223965783Y-51696918D01*
X223832932Y-51751947D01*
X223691900Y-51780000D01*
X223548100Y-51780000D01*
X223407068Y-51751947D01*
X223274217Y-51696918D01*
X223274216Y-51696918D01*
X223274215Y-51696917D01*
X223154652Y-51617028D01*
X223052972Y-51515348D01*
X222973083Y-51395785D01*
X222973082Y-51395783D01*
X222918053Y-51262932D01*
X222890000Y-51121900D01*
X222890000Y-50978100D01*
X222918053Y-50837068D01*
X222973082Y-50704217D01*
X222973083Y-50704215D01*
X223052972Y-50584652D01*
X223154652Y-50482972D01*
X223274215Y-50403083D01*
X223274217Y-50403082D01*
X223407068Y-50348053D01*
X223548100Y-50320000D01*
X223691900Y-50320000D01*
X223832932Y-50348053D01*
G37*
G36*
X273832932Y-50348053D02*
G01*
X273965783Y-50403082D01*
X273965785Y-50403083D01*
X274085348Y-50482972D01*
X274187028Y-50584652D01*
X274266917Y-50704215D01*
X274266918Y-50704217D01*
X274321947Y-50837068D01*
X274350000Y-50978100D01*
X274350000Y-51121900D01*
X274321947Y-51262932D01*
X274266918Y-51395783D01*
X274266917Y-51395785D01*
X274187028Y-51515348D01*
X274085348Y-51617028D01*
X273965785Y-51696917D01*
X273965784Y-51696918D01*
X273965783Y-51696918D01*
X273832932Y-51751947D01*
X273691900Y-51780000D01*
X273548100Y-51780000D01*
X273407068Y-51751947D01*
X273274217Y-51696918D01*
X273274216Y-51696918D01*
X273274215Y-51696917D01*
X273154652Y-51617028D01*
X273052972Y-51515348D01*
X272973083Y-51395785D01*
X272973082Y-51395783D01*
X272918053Y-51262932D01*
X272890000Y-51121900D01*
X272890000Y-50978100D01*
X272918053Y-50837068D01*
X272973082Y-50704217D01*
X272973083Y-50704215D01*
X273052972Y-50584652D01*
X273154652Y-50482972D01*
X273274215Y-50403083D01*
X273274217Y-50403082D01*
X273407068Y-50348053D01*
X273548100Y-50320000D01*
X273691900Y-50320000D01*
X273832932Y-50348053D01*
G37*
G36*
X258592932Y-50348053D02*
G01*
X258725783Y-50403082D01*
X258725785Y-50403083D01*
X258845348Y-50482972D01*
X258947028Y-50584652D01*
X259026917Y-50704215D01*
X259026918Y-50704217D01*
X259081947Y-50837068D01*
X259110000Y-50978100D01*
X259110000Y-51121900D01*
X259081947Y-51262932D01*
X259026918Y-51395783D01*
X259026917Y-51395785D01*
X258947028Y-51515348D01*
X258845348Y-51617028D01*
X258725785Y-51696917D01*
X258725784Y-51696918D01*
X258725783Y-51696918D01*
X258592932Y-51751947D01*
X258451900Y-51780000D01*
X258308100Y-51780000D01*
X258167068Y-51751947D01*
X258034217Y-51696918D01*
X258034216Y-51696918D01*
X258034215Y-51696917D01*
X257914652Y-51617028D01*
X257812972Y-51515348D01*
X257733083Y-51395785D01*
X257733082Y-51395783D01*
X257678053Y-51262932D01*
X257650000Y-51121900D01*
X257650000Y-50978100D01*
X257678053Y-50837068D01*
X257733082Y-50704217D01*
X257733083Y-50704215D01*
X257812972Y-50584652D01*
X257914652Y-50482972D01*
X258034215Y-50403083D01*
X258034217Y-50403082D01*
X258167068Y-50348053D01*
X258308100Y-50320000D01*
X258451900Y-50320000D01*
X258592932Y-50348053D01*
G37*
G36*
X208592932Y-50348053D02*
G01*
X208725783Y-50403082D01*
X208725785Y-50403083D01*
X208845348Y-50482972D01*
X208947028Y-50584652D01*
X209026917Y-50704215D01*
X209026918Y-50704217D01*
X209081947Y-50837068D01*
X209110000Y-50978100D01*
X209110000Y-51121900D01*
X209081947Y-51262932D01*
X209026918Y-51395783D01*
X209026917Y-51395785D01*
X208947028Y-51515348D01*
X208845348Y-51617028D01*
X208725785Y-51696917D01*
X208725784Y-51696918D01*
X208725783Y-51696918D01*
X208592932Y-51751947D01*
X208451900Y-51780000D01*
X208308100Y-51780000D01*
X208167068Y-51751947D01*
X208034217Y-51696918D01*
X208034216Y-51696918D01*
X208034215Y-51696917D01*
X207914652Y-51617028D01*
X207812972Y-51515348D01*
X207733083Y-51395785D01*
X207733082Y-51395783D01*
X207678053Y-51262932D01*
X207650000Y-51121900D01*
X207650000Y-50978100D01*
X207678053Y-50837068D01*
X207733082Y-50704217D01*
X207733083Y-50704215D01*
X207812972Y-50584652D01*
X207914652Y-50482972D01*
X208034215Y-50403083D01*
X208034217Y-50403082D01*
X208167068Y-50348053D01*
X208308100Y-50320000D01*
X208451900Y-50320000D01*
X208592932Y-50348053D01*
G37*
G36*
X152342932Y-50348053D02*
G01*
X152475783Y-50403082D01*
X152475785Y-50403083D01*
X152595348Y-50482972D01*
X152697028Y-50584652D01*
X152776917Y-50704215D01*
X152776918Y-50704217D01*
X152831947Y-50837068D01*
X152860000Y-50978100D01*
X152860000Y-51121900D01*
X152831947Y-51262932D01*
X152776918Y-51395783D01*
X152776917Y-51395785D01*
X152697028Y-51515348D01*
X152595348Y-51617028D01*
X152475785Y-51696917D01*
X152475784Y-51696918D01*
X152475783Y-51696918D01*
X152342932Y-51751947D01*
X152201900Y-51780000D01*
X152058100Y-51780000D01*
X151917068Y-51751947D01*
X151784217Y-51696918D01*
X151784216Y-51696918D01*
X151784215Y-51696917D01*
X151664652Y-51617028D01*
X151562972Y-51515348D01*
X151483083Y-51395785D01*
X151483082Y-51395783D01*
X151428053Y-51262932D01*
X151400000Y-51121900D01*
X151400000Y-50978100D01*
X151428053Y-50837068D01*
X151483082Y-50704217D01*
X151483083Y-50704215D01*
X151562972Y-50584652D01*
X151664652Y-50482972D01*
X151784215Y-50403083D01*
X151784217Y-50403082D01*
X151917068Y-50348053D01*
X152058100Y-50320000D01*
X152201900Y-50320000D01*
X152342932Y-50348053D01*
G37*
G36*
X43842932Y-50348053D02*
G01*
X43975783Y-50403082D01*
X43975785Y-50403083D01*
X44095348Y-50482972D01*
X44197028Y-50584652D01*
X44276917Y-50704215D01*
X44276918Y-50704217D01*
X44331947Y-50837068D01*
X44360000Y-50978100D01*
X44360000Y-51121900D01*
X44331947Y-51262932D01*
X44276918Y-51395783D01*
X44276917Y-51395785D01*
X44197028Y-51515348D01*
X44095348Y-51617028D01*
X43975785Y-51696917D01*
X43975784Y-51696918D01*
X43975783Y-51696918D01*
X43842932Y-51751947D01*
X43701900Y-51780000D01*
X43558100Y-51780000D01*
X43417068Y-51751947D01*
X43284217Y-51696918D01*
X43284216Y-51696918D01*
X43284215Y-51696917D01*
X43164652Y-51617028D01*
X43062972Y-51515348D01*
X42983083Y-51395785D01*
X42983082Y-51395783D01*
X42928053Y-51262932D01*
X42900000Y-51121900D01*
X42900000Y-50978100D01*
X42928053Y-50837068D01*
X42983082Y-50704217D01*
X42983083Y-50704215D01*
X43062972Y-50584652D01*
X43164652Y-50482972D01*
X43284215Y-50403083D01*
X43284217Y-50403082D01*
X43417068Y-50348053D01*
X43558100Y-50320000D01*
X43701900Y-50320000D01*
X43842932Y-50348053D01*
G37*
G36*
X167582932Y-50348053D02*
G01*
X167715783Y-50403082D01*
X167715785Y-50403083D01*
X167835348Y-50482972D01*
X167937028Y-50584652D01*
X168016917Y-50704215D01*
X168016918Y-50704217D01*
X168071947Y-50837068D01*
X168100000Y-50978100D01*
X168100000Y-51121900D01*
X168071947Y-51262932D01*
X168016918Y-51395783D01*
X168016917Y-51395785D01*
X167937028Y-51515348D01*
X167835348Y-51617028D01*
X167715785Y-51696917D01*
X167715784Y-51696918D01*
X167715783Y-51696918D01*
X167582932Y-51751947D01*
X167441900Y-51780000D01*
X167298100Y-51780000D01*
X167157068Y-51751947D01*
X167024217Y-51696918D01*
X167024216Y-51696918D01*
X167024215Y-51696917D01*
X166904652Y-51617028D01*
X166802972Y-51515348D01*
X166723083Y-51395785D01*
X166723082Y-51395783D01*
X166668053Y-51262932D01*
X166640000Y-51121900D01*
X166640000Y-50978100D01*
X166668053Y-50837068D01*
X166723082Y-50704217D01*
X166723083Y-50704215D01*
X166802972Y-50584652D01*
X166904652Y-50482972D01*
X167024215Y-50403083D01*
X167024217Y-50403082D01*
X167157068Y-50348053D01*
X167298100Y-50320000D01*
X167441900Y-50320000D01*
X167582932Y-50348053D01*
G37*
G36*
X115332932Y-50348053D02*
G01*
X115465783Y-50403082D01*
X115465785Y-50403083D01*
X115585348Y-50482972D01*
X115687028Y-50584652D01*
X115766917Y-50704215D01*
X115766918Y-50704217D01*
X115821947Y-50837068D01*
X115850000Y-50978100D01*
X115850000Y-51121900D01*
X115821947Y-51262932D01*
X115766918Y-51395783D01*
X115766917Y-51395785D01*
X115687028Y-51515348D01*
X115585348Y-51617028D01*
X115465785Y-51696917D01*
X115465784Y-51696918D01*
X115465783Y-51696918D01*
X115332932Y-51751947D01*
X115191900Y-51780000D01*
X115048100Y-51780000D01*
X114907068Y-51751947D01*
X114774217Y-51696918D01*
X114774216Y-51696918D01*
X114774215Y-51696917D01*
X114654652Y-51617028D01*
X114552972Y-51515348D01*
X114473083Y-51395785D01*
X114473082Y-51395783D01*
X114418053Y-51262932D01*
X114390000Y-51121900D01*
X114390000Y-50978100D01*
X114418053Y-50837068D01*
X114473082Y-50704217D01*
X114473083Y-50704215D01*
X114552972Y-50584652D01*
X114654652Y-50482972D01*
X114774215Y-50403083D01*
X114774217Y-50403082D01*
X114907068Y-50348053D01*
X115048100Y-50320000D01*
X115191900Y-50320000D01*
X115332932Y-50348053D01*
G37*
G36*
X100092932Y-50348053D02*
G01*
X100225783Y-50403082D01*
X100225785Y-50403083D01*
X100345348Y-50482972D01*
X100447028Y-50584652D01*
X100526917Y-50704215D01*
X100526918Y-50704217D01*
X100581947Y-50837068D01*
X100610000Y-50978100D01*
X100610000Y-51121900D01*
X100581947Y-51262932D01*
X100526918Y-51395783D01*
X100526917Y-51395785D01*
X100447028Y-51515348D01*
X100345348Y-51617028D01*
X100225785Y-51696917D01*
X100225784Y-51696918D01*
X100225783Y-51696918D01*
X100092932Y-51751947D01*
X99951900Y-51780000D01*
X99808100Y-51780000D01*
X99667068Y-51751947D01*
X99534217Y-51696918D01*
X99534216Y-51696918D01*
X99534215Y-51696917D01*
X99414652Y-51617028D01*
X99312972Y-51515348D01*
X99233083Y-51395785D01*
X99233082Y-51395783D01*
X99178053Y-51262932D01*
X99150000Y-51121900D01*
X99150000Y-50978100D01*
X99178053Y-50837068D01*
X99233082Y-50704217D01*
X99233083Y-50704215D01*
X99312972Y-50584652D01*
X99414652Y-50482972D01*
X99534215Y-50403083D01*
X99534217Y-50403082D01*
X99667068Y-50348053D01*
X99808100Y-50320000D01*
X99951900Y-50320000D01*
X100092932Y-50348053D01*
G37*
G36*
X146050740Y-47550740D02*
G01*
X139949260Y-47550740D01*
X139949260Y-41449260D01*
X146050740Y-41449260D01*
X146050740Y-47550740D01*
G37*
G36*
X93800740Y-47550740D02*
G01*
X87699260Y-47550740D01*
X87699260Y-41449260D01*
X93800740Y-41449260D01*
X93800740Y-47550740D01*
G37*
G36*
X37550740Y-47550740D02*
G01*
X31449260Y-47550740D01*
X31449260Y-41449260D01*
X37550740Y-41449260D01*
X37550740Y-47550740D01*
G37*
G36*
X202300740Y-47550740D02*
G01*
X196199260Y-47550740D01*
X196199260Y-41449260D01*
X202300740Y-41449260D01*
X202300740Y-47550740D01*
G37*
G36*
X252300740Y-47550740D02*
G01*
X246199260Y-47550740D01*
X246199260Y-41449260D01*
X252300740Y-41449260D01*
X252300740Y-47550740D01*
G37*
G36*
X197050740Y-38050740D02*
G01*
X190949260Y-38050740D01*
X190949260Y-31949260D01*
X197050740Y-31949260D01*
X197050740Y-38050740D01*
G37*
G36*
X140800740Y-38050740D02*
G01*
X134699260Y-38050740D01*
X134699260Y-31949260D01*
X140800740Y-31949260D01*
X140800740Y-38050740D01*
G37*
G36*
X247050740Y-38050740D02*
G01*
X240949260Y-38050740D01*
X240949260Y-31949260D01*
X247050740Y-31949260D01*
X247050740Y-38050740D01*
G37*
G36*
X32300740Y-38050740D02*
G01*
X26199260Y-38050740D01*
X26199260Y-31949260D01*
X32300740Y-31949260D01*
X32300740Y-38050740D01*
G37*
G36*
X88550740Y-38050740D02*
G01*
X82449260Y-38050740D01*
X82449260Y-31949260D01*
X88550740Y-31949260D01*
X88550740Y-38050740D01*
G37*
G36*
X115332932Y-32828053D02*
G01*
X115465783Y-32883082D01*
X115465785Y-32883083D01*
X115585348Y-32962972D01*
X115687028Y-33064652D01*
X115751415Y-33161015D01*
X115766918Y-33184217D01*
X115821947Y-33317068D01*
X115850000Y-33458100D01*
X115850000Y-33601900D01*
X115821947Y-33742932D01*
X115766918Y-33875783D01*
X115766917Y-33875785D01*
X115687028Y-33995348D01*
X115585348Y-34097028D01*
X115465785Y-34176917D01*
X115465784Y-34176918D01*
X115465783Y-34176918D01*
X115332932Y-34231947D01*
X115191900Y-34260000D01*
X115048100Y-34260000D01*
X114907068Y-34231947D01*
X114774217Y-34176918D01*
X114774216Y-34176918D01*
X114774215Y-34176917D01*
X114654652Y-34097028D01*
X114552972Y-33995348D01*
X114473083Y-33875785D01*
X114473082Y-33875783D01*
X114418053Y-33742932D01*
X114390000Y-33601900D01*
X114390000Y-33458100D01*
X114418053Y-33317068D01*
X114473082Y-33184217D01*
X114488585Y-33161015D01*
X114552972Y-33064652D01*
X114654652Y-32962972D01*
X114774215Y-32883083D01*
X114774217Y-32883082D01*
X114907068Y-32828053D01*
X115048100Y-32800000D01*
X115191900Y-32800000D01*
X115332932Y-32828053D01*
G37*
G36*
X59082932Y-32828053D02*
G01*
X59215783Y-32883082D01*
X59215785Y-32883083D01*
X59335348Y-32962972D01*
X59437028Y-33064652D01*
X59501415Y-33161015D01*
X59516918Y-33184217D01*
X59571947Y-33317068D01*
X59600000Y-33458100D01*
X59600000Y-33601900D01*
X59571947Y-33742932D01*
X59516918Y-33875783D01*
X59516917Y-33875785D01*
X59437028Y-33995348D01*
X59335348Y-34097028D01*
X59215785Y-34176917D01*
X59215784Y-34176918D01*
X59215783Y-34176918D01*
X59082932Y-34231947D01*
X58941900Y-34260000D01*
X58798100Y-34260000D01*
X58657068Y-34231947D01*
X58524217Y-34176918D01*
X58524216Y-34176918D01*
X58524215Y-34176917D01*
X58404652Y-34097028D01*
X58302972Y-33995348D01*
X58223083Y-33875785D01*
X58223082Y-33875783D01*
X58168053Y-33742932D01*
X58140000Y-33601900D01*
X58140000Y-33458100D01*
X58168053Y-33317068D01*
X58223082Y-33184217D01*
X58238585Y-33161015D01*
X58302972Y-33064652D01*
X58404652Y-32962972D01*
X58524215Y-32883083D01*
X58524217Y-32883082D01*
X58657068Y-32828053D01*
X58798100Y-32800000D01*
X58941900Y-32800000D01*
X59082932Y-32828053D01*
G37*
G36*
X273832932Y-32828053D02*
G01*
X273965783Y-32883082D01*
X273965785Y-32883083D01*
X274085348Y-32962972D01*
X274187028Y-33064652D01*
X274251415Y-33161015D01*
X274266918Y-33184217D01*
X274321947Y-33317068D01*
X274350000Y-33458100D01*
X274350000Y-33601900D01*
X274321947Y-33742932D01*
X274266918Y-33875783D01*
X274266917Y-33875785D01*
X274187028Y-33995348D01*
X274085348Y-34097028D01*
X273965785Y-34176917D01*
X273965784Y-34176918D01*
X273965783Y-34176918D01*
X273832932Y-34231947D01*
X273691900Y-34260000D01*
X273548100Y-34260000D01*
X273407068Y-34231947D01*
X273274217Y-34176918D01*
X273274216Y-34176918D01*
X273274215Y-34176917D01*
X273154652Y-34097028D01*
X273052972Y-33995348D01*
X272973083Y-33875785D01*
X272973082Y-33875783D01*
X272918053Y-33742932D01*
X272890000Y-33601900D01*
X272890000Y-33458100D01*
X272918053Y-33317068D01*
X272973082Y-33184217D01*
X272988585Y-33161015D01*
X273052972Y-33064652D01*
X273154652Y-32962972D01*
X273274215Y-32883083D01*
X273274217Y-32883082D01*
X273407068Y-32828053D01*
X273548100Y-32800000D01*
X273691900Y-32800000D01*
X273832932Y-32828053D01*
G37*
G36*
X223832932Y-32828053D02*
G01*
X223965783Y-32883082D01*
X223965785Y-32883083D01*
X224085348Y-32962972D01*
X224187028Y-33064652D01*
X224251415Y-33161015D01*
X224266918Y-33184217D01*
X224321947Y-33317068D01*
X224350000Y-33458100D01*
X224350000Y-33601900D01*
X224321947Y-33742932D01*
X224266918Y-33875783D01*
X224266917Y-33875785D01*
X224187028Y-33995348D01*
X224085348Y-34097028D01*
X223965785Y-34176917D01*
X223965784Y-34176918D01*
X223965783Y-34176918D01*
X223832932Y-34231947D01*
X223691900Y-34260000D01*
X223548100Y-34260000D01*
X223407068Y-34231947D01*
X223274217Y-34176918D01*
X223274216Y-34176918D01*
X223274215Y-34176917D01*
X223154652Y-34097028D01*
X223052972Y-33995348D01*
X222973083Y-33875785D01*
X222973082Y-33875783D01*
X222918053Y-33742932D01*
X222890000Y-33601900D01*
X222890000Y-33458100D01*
X222918053Y-33317068D01*
X222973082Y-33184217D01*
X222988585Y-33161015D01*
X223052972Y-33064652D01*
X223154652Y-32962972D01*
X223274215Y-32883083D01*
X223274217Y-32883082D01*
X223407068Y-32828053D01*
X223548100Y-32800000D01*
X223691900Y-32800000D01*
X223832932Y-32828053D01*
G37*
G36*
X167582932Y-32828053D02*
G01*
X167715783Y-32883082D01*
X167715785Y-32883083D01*
X167835348Y-32962972D01*
X167937028Y-33064652D01*
X168001415Y-33161015D01*
X168016918Y-33184217D01*
X168071947Y-33317068D01*
X168100000Y-33458100D01*
X168100000Y-33601900D01*
X168071947Y-33742932D01*
X168016918Y-33875783D01*
X168016917Y-33875785D01*
X167937028Y-33995348D01*
X167835348Y-34097028D01*
X167715785Y-34176917D01*
X167715784Y-34176918D01*
X167715783Y-34176918D01*
X167582932Y-34231947D01*
X167441900Y-34260000D01*
X167298100Y-34260000D01*
X167157068Y-34231947D01*
X167024217Y-34176918D01*
X167024216Y-34176918D01*
X167024215Y-34176917D01*
X166904652Y-34097028D01*
X166802972Y-33995348D01*
X166723083Y-33875785D01*
X166723082Y-33875783D01*
X166668053Y-33742932D01*
X166640000Y-33601900D01*
X166640000Y-33458100D01*
X166668053Y-33317068D01*
X166723082Y-33184217D01*
X166738585Y-33161015D01*
X166802972Y-33064652D01*
X166904652Y-32962972D01*
X167024215Y-32883083D01*
X167024217Y-32883082D01*
X167157068Y-32828053D01*
X167298100Y-32800000D01*
X167441900Y-32800000D01*
X167582932Y-32828053D01*
G37*
G36*
X37248228Y-31681703D02*
G01*
X37403100Y-31745853D01*
X37542481Y-31838985D01*
X37661015Y-31957519D01*
X37754147Y-32096900D01*
X37818297Y-32251772D01*
X37851000Y-32416184D01*
X37851000Y-32583816D01*
X37818297Y-32748228D01*
X37754147Y-32903100D01*
X37661015Y-33042481D01*
X37542481Y-33161015D01*
X37403100Y-33254147D01*
X37248228Y-33318297D01*
X37083816Y-33351000D01*
X36916184Y-33351000D01*
X36751772Y-33318297D01*
X36596900Y-33254147D01*
X36457519Y-33161015D01*
X36338985Y-33042481D01*
X36245853Y-32903100D01*
X36181703Y-32748228D01*
X36149000Y-32583816D01*
X36149000Y-32416184D01*
X36181703Y-32251772D01*
X36245853Y-32096900D01*
X36338985Y-31957519D01*
X36457519Y-31838985D01*
X36596900Y-31745853D01*
X36751772Y-31681703D01*
X36916184Y-31649000D01*
X37083816Y-31649000D01*
X37248228Y-31681703D01*
G37*
G36*
X251998228Y-31681703D02*
G01*
X252153100Y-31745853D01*
X252292481Y-31838985D01*
X252411015Y-31957519D01*
X252504147Y-32096900D01*
X252568297Y-32251772D01*
X252601000Y-32416184D01*
X252601000Y-32583816D01*
X252568297Y-32748228D01*
X252504147Y-32903100D01*
X252411015Y-33042481D01*
X252292481Y-33161015D01*
X252153100Y-33254147D01*
X251998228Y-33318297D01*
X251833816Y-33351000D01*
X251666184Y-33351000D01*
X251501772Y-33318297D01*
X251346900Y-33254147D01*
X251207519Y-33161015D01*
X251088985Y-33042481D01*
X250995853Y-32903100D01*
X250931703Y-32748228D01*
X250899000Y-32583816D01*
X250899000Y-32416184D01*
X250931703Y-32251772D01*
X250995853Y-32096900D01*
X251088985Y-31957519D01*
X251207519Y-31838985D01*
X251346900Y-31745853D01*
X251501772Y-31681703D01*
X251666184Y-31649000D01*
X251833816Y-31649000D01*
X251998228Y-31681703D01*
G37*
G36*
X201998228Y-31681703D02*
G01*
X202153100Y-31745853D01*
X202292481Y-31838985D01*
X202411015Y-31957519D01*
X202504147Y-32096900D01*
X202568297Y-32251772D01*
X202601000Y-32416184D01*
X202601000Y-32583816D01*
X202568297Y-32748228D01*
X202504147Y-32903100D01*
X202411015Y-33042481D01*
X202292481Y-33161015D01*
X202153100Y-33254147D01*
X201998228Y-33318297D01*
X201833816Y-33351000D01*
X201666184Y-33351000D01*
X201501772Y-33318297D01*
X201346900Y-33254147D01*
X201207519Y-33161015D01*
X201088985Y-33042481D01*
X200995853Y-32903100D01*
X200931703Y-32748228D01*
X200899000Y-32583816D01*
X200899000Y-32416184D01*
X200931703Y-32251772D01*
X200995853Y-32096900D01*
X201088985Y-31957519D01*
X201207519Y-31838985D01*
X201346900Y-31745853D01*
X201501772Y-31681703D01*
X201666184Y-31649000D01*
X201833816Y-31649000D01*
X201998228Y-31681703D01*
G37*
G36*
X93498228Y-31681703D02*
G01*
X93653100Y-31745853D01*
X93792481Y-31838985D01*
X93911015Y-31957519D01*
X94004147Y-32096900D01*
X94068297Y-32251772D01*
X94101000Y-32416184D01*
X94101000Y-32583816D01*
X94068297Y-32748228D01*
X94004147Y-32903100D01*
X93911015Y-33042481D01*
X93792481Y-33161015D01*
X93653100Y-33254147D01*
X93498228Y-33318297D01*
X93333816Y-33351000D01*
X93166184Y-33351000D01*
X93001772Y-33318297D01*
X92846900Y-33254147D01*
X92707519Y-33161015D01*
X92588985Y-33042481D01*
X92495853Y-32903100D01*
X92431703Y-32748228D01*
X92399000Y-32583816D01*
X92399000Y-32416184D01*
X92431703Y-32251772D01*
X92495853Y-32096900D01*
X92588985Y-31957519D01*
X92707519Y-31838985D01*
X92846900Y-31745853D01*
X93001772Y-31681703D01*
X93166184Y-31649000D01*
X93333816Y-31649000D01*
X93498228Y-31681703D01*
G37*
G36*
X145748228Y-31681703D02*
G01*
X145903100Y-31745853D01*
X146042481Y-31838985D01*
X146161015Y-31957519D01*
X146254147Y-32096900D01*
X146318297Y-32251772D01*
X146351000Y-32416184D01*
X146351000Y-32583816D01*
X146318297Y-32748228D01*
X146254147Y-32903100D01*
X146161015Y-33042481D01*
X146042481Y-33161015D01*
X145903100Y-33254147D01*
X145748228Y-33318297D01*
X145583816Y-33351000D01*
X145416184Y-33351000D01*
X145251772Y-33318297D01*
X145096900Y-33254147D01*
X144957519Y-33161015D01*
X144838985Y-33042481D01*
X144745853Y-32903100D01*
X144681703Y-32748228D01*
X144649000Y-32583816D01*
X144649000Y-32416184D01*
X144681703Y-32251772D01*
X144745853Y-32096900D01*
X144838985Y-31957519D01*
X144957519Y-31838985D01*
X145096900Y-31745853D01*
X145251772Y-31681703D01*
X145416184Y-31649000D01*
X145583816Y-31649000D01*
X145748228Y-31681703D01*
G37*
G36*
X29845170Y-24387879D02*
G01*
X30139868Y-24446498D01*
X30695067Y-24676469D01*
X30980867Y-24867435D01*
X31194733Y-25010335D01*
X31619665Y-25435267D01*
X31625936Y-25444653D01*
X31953531Y-25934933D01*
X32183502Y-26490132D01*
X32215103Y-26649000D01*
X32300740Y-27079527D01*
X32300740Y-27680473D01*
X32276351Y-27803083D01*
X32183502Y-28269868D01*
X31953531Y-28825067D01*
X31762565Y-29110867D01*
X31619665Y-29324733D01*
X31194733Y-29749665D01*
X30980867Y-29892565D01*
X30695067Y-30083531D01*
X30139868Y-30313502D01*
X29845170Y-30372121D01*
X29550473Y-30430740D01*
X28949527Y-30430740D01*
X28654830Y-30372121D01*
X28360132Y-30313502D01*
X27804933Y-30083531D01*
X27519133Y-29892565D01*
X27305267Y-29749665D01*
X26880335Y-29324733D01*
X26737435Y-29110867D01*
X26546469Y-28825067D01*
X26316498Y-28269868D01*
X26223649Y-27803083D01*
X26199260Y-27680473D01*
X26199260Y-27079527D01*
X26284897Y-26649000D01*
X26316498Y-26490132D01*
X26546469Y-25934933D01*
X26874064Y-25444653D01*
X26880335Y-25435267D01*
X27305267Y-25010335D01*
X27519133Y-24867435D01*
X27804933Y-24676469D01*
X28360132Y-24446498D01*
X28654830Y-24387879D01*
X28949527Y-24329260D01*
X29550473Y-24329260D01*
X29845170Y-24387879D01*
G37*
G36*
X244595170Y-24387879D02*
G01*
X244889868Y-24446498D01*
X245445067Y-24676469D01*
X245730867Y-24867435D01*
X245944733Y-25010335D01*
X246369665Y-25435267D01*
X246375936Y-25444653D01*
X246703531Y-25934933D01*
X246933502Y-26490132D01*
X246965103Y-26649000D01*
X247050740Y-27079527D01*
X247050740Y-27680473D01*
X247026351Y-27803083D01*
X246933502Y-28269868D01*
X246703531Y-28825067D01*
X246512565Y-29110867D01*
X246369665Y-29324733D01*
X245944733Y-29749665D01*
X245730867Y-29892565D01*
X245445067Y-30083531D01*
X244889868Y-30313502D01*
X244595170Y-30372121D01*
X244300473Y-30430740D01*
X243699527Y-30430740D01*
X243404830Y-30372121D01*
X243110132Y-30313502D01*
X242554933Y-30083531D01*
X242269133Y-29892565D01*
X242055267Y-29749665D01*
X241630335Y-29324733D01*
X241487435Y-29110867D01*
X241296469Y-28825067D01*
X241066498Y-28269868D01*
X240973649Y-27803083D01*
X240949260Y-27680473D01*
X240949260Y-27079527D01*
X241034897Y-26649000D01*
X241066498Y-26490132D01*
X241296469Y-25934933D01*
X241624064Y-25444653D01*
X241630335Y-25435267D01*
X242055267Y-25010335D01*
X242269133Y-24867435D01*
X242554933Y-24676469D01*
X243110132Y-24446498D01*
X243404830Y-24387879D01*
X243699527Y-24329260D01*
X244300473Y-24329260D01*
X244595170Y-24387879D01*
G37*
G36*
X138345170Y-24387879D02*
G01*
X138639868Y-24446498D01*
X139195067Y-24676469D01*
X139480867Y-24867435D01*
X139694733Y-25010335D01*
X140119665Y-25435267D01*
X140125936Y-25444653D01*
X140453531Y-25934933D01*
X140683502Y-26490132D01*
X140715103Y-26649000D01*
X140800740Y-27079527D01*
X140800740Y-27680473D01*
X140776351Y-27803083D01*
X140683502Y-28269868D01*
X140453531Y-28825067D01*
X140262565Y-29110867D01*
X140119665Y-29324733D01*
X139694733Y-29749665D01*
X139480867Y-29892565D01*
X139195067Y-30083531D01*
X138639868Y-30313502D01*
X138345170Y-30372121D01*
X138050473Y-30430740D01*
X137449527Y-30430740D01*
X137154830Y-30372121D01*
X136860132Y-30313502D01*
X136304933Y-30083531D01*
X136019133Y-29892565D01*
X135805267Y-29749665D01*
X135380335Y-29324733D01*
X135237435Y-29110867D01*
X135046469Y-28825067D01*
X134816498Y-28269868D01*
X134723649Y-27803083D01*
X134699260Y-27680473D01*
X134699260Y-27079527D01*
X134784897Y-26649000D01*
X134816498Y-26490132D01*
X135046469Y-25934933D01*
X135374064Y-25444653D01*
X135380335Y-25435267D01*
X135805267Y-25010335D01*
X136019133Y-24867435D01*
X136304933Y-24676469D01*
X136860132Y-24446498D01*
X137154830Y-24387879D01*
X137449527Y-24329260D01*
X138050473Y-24329260D01*
X138345170Y-24387879D01*
G37*
G36*
X86095170Y-24387879D02*
G01*
X86389868Y-24446498D01*
X86945067Y-24676469D01*
X87230867Y-24867435D01*
X87444733Y-25010335D01*
X87869665Y-25435267D01*
X87875936Y-25444653D01*
X88203531Y-25934933D01*
X88433502Y-26490132D01*
X88465103Y-26649000D01*
X88550740Y-27079527D01*
X88550740Y-27680473D01*
X88526351Y-27803083D01*
X88433502Y-28269868D01*
X88203531Y-28825067D01*
X88012565Y-29110867D01*
X87869665Y-29324733D01*
X87444733Y-29749665D01*
X87230867Y-29892565D01*
X86945067Y-30083531D01*
X86389868Y-30313502D01*
X86095170Y-30372121D01*
X85800473Y-30430740D01*
X85199527Y-30430740D01*
X84904830Y-30372121D01*
X84610132Y-30313502D01*
X84054933Y-30083531D01*
X83769133Y-29892565D01*
X83555267Y-29749665D01*
X83130335Y-29324733D01*
X82987435Y-29110867D01*
X82796469Y-28825067D01*
X82566498Y-28269868D01*
X82473649Y-27803083D01*
X82449260Y-27680473D01*
X82449260Y-27079527D01*
X82534897Y-26649000D01*
X82566498Y-26490132D01*
X82796469Y-25934933D01*
X83124064Y-25444653D01*
X83130335Y-25435267D01*
X83555267Y-25010335D01*
X83769133Y-24867435D01*
X84054933Y-24676469D01*
X84610132Y-24446498D01*
X84904830Y-24387879D01*
X85199527Y-24329260D01*
X85800473Y-24329260D01*
X86095170Y-24387879D01*
G37*
G36*
X194595170Y-24387879D02*
G01*
X194889868Y-24446498D01*
X195445067Y-24676469D01*
X195730867Y-24867435D01*
X195944733Y-25010335D01*
X196369665Y-25435267D01*
X196375936Y-25444653D01*
X196703531Y-25934933D01*
X196933502Y-26490132D01*
X196965103Y-26649000D01*
X197050740Y-27079527D01*
X197050740Y-27680473D01*
X197026351Y-27803083D01*
X196933502Y-28269868D01*
X196703531Y-28825067D01*
X196512565Y-29110867D01*
X196369665Y-29324733D01*
X195944733Y-29749665D01*
X195730867Y-29892565D01*
X195445067Y-30083531D01*
X194889868Y-30313502D01*
X194595170Y-30372121D01*
X194300473Y-30430740D01*
X193699527Y-30430740D01*
X193404830Y-30372121D01*
X193110132Y-30313502D01*
X192554933Y-30083531D01*
X192269133Y-29892565D01*
X192055267Y-29749665D01*
X191630335Y-29324733D01*
X191487435Y-29110867D01*
X191296469Y-28825067D01*
X191066498Y-28269868D01*
X190973649Y-27803083D01*
X190949260Y-27680473D01*
X190949260Y-27079527D01*
X191034897Y-26649000D01*
X191066498Y-26490132D01*
X191296469Y-25934933D01*
X191624064Y-25444653D01*
X191630335Y-25435267D01*
X192055267Y-25010335D01*
X192269133Y-24867435D01*
X192554933Y-24676469D01*
X193110132Y-24446498D01*
X193404830Y-24387879D01*
X193699527Y-24329260D01*
X194300473Y-24329260D01*
X194595170Y-24387879D01*
G37*
G36*
X59082932Y-27748053D02*
G01*
X59215783Y-27803082D01*
X59215785Y-27803083D01*
X59335348Y-27882972D01*
X59437028Y-27984652D01*
X59516917Y-28104215D01*
X59516918Y-28104217D01*
X59571947Y-28237068D01*
X59600000Y-28378100D01*
X59600000Y-28521900D01*
X59571947Y-28662932D01*
X59516918Y-28795783D01*
X59516917Y-28795785D01*
X59437028Y-28915348D01*
X59335348Y-29017028D01*
X59215785Y-29096917D01*
X59215784Y-29096918D01*
X59215783Y-29096918D01*
X59082932Y-29151947D01*
X58941900Y-29180000D01*
X58798100Y-29180000D01*
X58657068Y-29151947D01*
X58524217Y-29096918D01*
X58524216Y-29096918D01*
X58524215Y-29096917D01*
X58404652Y-29017028D01*
X58302972Y-28915348D01*
X58223083Y-28795785D01*
X58223082Y-28795783D01*
X58168053Y-28662932D01*
X58140000Y-28521900D01*
X58140000Y-28378100D01*
X58168053Y-28237068D01*
X58223082Y-28104217D01*
X58223083Y-28104215D01*
X58302972Y-27984652D01*
X58404652Y-27882972D01*
X58524215Y-27803083D01*
X58524217Y-27803082D01*
X58657068Y-27748053D01*
X58798100Y-27720000D01*
X58941900Y-27720000D01*
X59082932Y-27748053D01*
G37*
G36*
X208592932Y-27748053D02*
G01*
X208725783Y-27803082D01*
X208725785Y-27803083D01*
X208845348Y-27882972D01*
X208947028Y-27984652D01*
X209026917Y-28104215D01*
X209026918Y-28104217D01*
X209081947Y-28237068D01*
X209110000Y-28378100D01*
X209110000Y-28521900D01*
X209081947Y-28662932D01*
X209026918Y-28795783D01*
X209026917Y-28795785D01*
X208947028Y-28915348D01*
X208845348Y-29017028D01*
X208725785Y-29096917D01*
X208725784Y-29096918D01*
X208725783Y-29096918D01*
X208592932Y-29151947D01*
X208451900Y-29180000D01*
X208308100Y-29180000D01*
X208167068Y-29151947D01*
X208034217Y-29096918D01*
X208034216Y-29096918D01*
X208034215Y-29096917D01*
X207914652Y-29017028D01*
X207812972Y-28915348D01*
X207733083Y-28795785D01*
X207733082Y-28795783D01*
X207678053Y-28662932D01*
X207650000Y-28521900D01*
X207650000Y-28378100D01*
X207678053Y-28237068D01*
X207733082Y-28104217D01*
X207733083Y-28104215D01*
X207812972Y-27984652D01*
X207914652Y-27882972D01*
X208034215Y-27803083D01*
X208034217Y-27803082D01*
X208167068Y-27748053D01*
X208308100Y-27720000D01*
X208451900Y-27720000D01*
X208592932Y-27748053D01*
G37*
G36*
X258592932Y-27748053D02*
G01*
X258725783Y-27803082D01*
X258725785Y-27803083D01*
X258845348Y-27882972D01*
X258947028Y-27984652D01*
X259026917Y-28104215D01*
X259026918Y-28104217D01*
X259081947Y-28237068D01*
X259110000Y-28378100D01*
X259110000Y-28521900D01*
X259081947Y-28662932D01*
X259026918Y-28795783D01*
X259026917Y-28795785D01*
X258947028Y-28915348D01*
X258845348Y-29017028D01*
X258725785Y-29096917D01*
X258725784Y-29096918D01*
X258725783Y-29096918D01*
X258592932Y-29151947D01*
X258451900Y-29180000D01*
X258308100Y-29180000D01*
X258167068Y-29151947D01*
X258034217Y-29096918D01*
X258034216Y-29096918D01*
X258034215Y-29096917D01*
X257914652Y-29017028D01*
X257812972Y-28915348D01*
X257733083Y-28795785D01*
X257733082Y-28795783D01*
X257678053Y-28662932D01*
X257650000Y-28521900D01*
X257650000Y-28378100D01*
X257678053Y-28237068D01*
X257733082Y-28104217D01*
X257733083Y-28104215D01*
X257812972Y-27984652D01*
X257914652Y-27882972D01*
X258034215Y-27803083D01*
X258034217Y-27803082D01*
X258167068Y-27748053D01*
X258308100Y-27720000D01*
X258451900Y-27720000D01*
X258592932Y-27748053D01*
G37*
G36*
X273832932Y-27748053D02*
G01*
X273965783Y-27803082D01*
X273965785Y-27803083D01*
X274085348Y-27882972D01*
X274187028Y-27984652D01*
X274266917Y-28104215D01*
X274266918Y-28104217D01*
X274321947Y-28237068D01*
X274350000Y-28378100D01*
X274350000Y-28521900D01*
X274321947Y-28662932D01*
X274266918Y-28795783D01*
X274266917Y-28795785D01*
X274187028Y-28915348D01*
X274085348Y-29017028D01*
X273965785Y-29096917D01*
X273965784Y-29096918D01*
X273965783Y-29096918D01*
X273832932Y-29151947D01*
X273691900Y-29180000D01*
X273548100Y-29180000D01*
X273407068Y-29151947D01*
X273274217Y-29096918D01*
X273274216Y-29096918D01*
X273274215Y-29096917D01*
X273154652Y-29017028D01*
X273052972Y-28915348D01*
X272973083Y-28795785D01*
X272973082Y-28795783D01*
X272918053Y-28662932D01*
X272890000Y-28521900D01*
X272890000Y-28378100D01*
X272918053Y-28237068D01*
X272973082Y-28104217D01*
X272973083Y-28104215D01*
X273052972Y-27984652D01*
X273154652Y-27882972D01*
X273274215Y-27803083D01*
X273274217Y-27803082D01*
X273407068Y-27748053D01*
X273548100Y-27720000D01*
X273691900Y-27720000D01*
X273832932Y-27748053D01*
G37*
G36*
X115332932Y-27748053D02*
G01*
X115465783Y-27803082D01*
X115465785Y-27803083D01*
X115585348Y-27882972D01*
X115687028Y-27984652D01*
X115766917Y-28104215D01*
X115766918Y-28104217D01*
X115821947Y-28237068D01*
X115850000Y-28378100D01*
X115850000Y-28521900D01*
X115821947Y-28662932D01*
X115766918Y-28795783D01*
X115766917Y-28795785D01*
X115687028Y-28915348D01*
X115585348Y-29017028D01*
X115465785Y-29096917D01*
X115465784Y-29096918D01*
X115465783Y-29096918D01*
X115332932Y-29151947D01*
X115191900Y-29180000D01*
X115048100Y-29180000D01*
X114907068Y-29151947D01*
X114774217Y-29096918D01*
X114774216Y-29096918D01*
X114774215Y-29096917D01*
X114654652Y-29017028D01*
X114552972Y-28915348D01*
X114473083Y-28795785D01*
X114473082Y-28795783D01*
X114418053Y-28662932D01*
X114390000Y-28521900D01*
X114390000Y-28378100D01*
X114418053Y-28237068D01*
X114473082Y-28104217D01*
X114473083Y-28104215D01*
X114552972Y-27984652D01*
X114654652Y-27882972D01*
X114774215Y-27803083D01*
X114774217Y-27803082D01*
X114907068Y-27748053D01*
X115048100Y-27720000D01*
X115191900Y-27720000D01*
X115332932Y-27748053D01*
G37*
G36*
X167582932Y-27748053D02*
G01*
X167715783Y-27803082D01*
X167715785Y-27803083D01*
X167835348Y-27882972D01*
X167937028Y-27984652D01*
X168016917Y-28104215D01*
X168016918Y-28104217D01*
X168071947Y-28237068D01*
X168100000Y-28378100D01*
X168100000Y-28521900D01*
X168071947Y-28662932D01*
X168016918Y-28795783D01*
X168016917Y-28795785D01*
X167937028Y-28915348D01*
X167835348Y-29017028D01*
X167715785Y-29096917D01*
X167715784Y-29096918D01*
X167715783Y-29096918D01*
X167582932Y-29151947D01*
X167441900Y-29180000D01*
X167298100Y-29180000D01*
X167157068Y-29151947D01*
X167024217Y-29096918D01*
X167024216Y-29096918D01*
X167024215Y-29096917D01*
X166904652Y-29017028D01*
X166802972Y-28915348D01*
X166723083Y-28795785D01*
X166723082Y-28795783D01*
X166668053Y-28662932D01*
X166640000Y-28521900D01*
X166640000Y-28378100D01*
X166668053Y-28237068D01*
X166723082Y-28104217D01*
X166723083Y-28104215D01*
X166802972Y-27984652D01*
X166904652Y-27882972D01*
X167024215Y-27803083D01*
X167024217Y-27803082D01*
X167157068Y-27748053D01*
X167298100Y-27720000D01*
X167441900Y-27720000D01*
X167582932Y-27748053D01*
G37*
G36*
X223832932Y-27748053D02*
G01*
X223965783Y-27803082D01*
X223965785Y-27803083D01*
X224085348Y-27882972D01*
X224187028Y-27984652D01*
X224266917Y-28104215D01*
X224266918Y-28104217D01*
X224321947Y-28237068D01*
X224350000Y-28378100D01*
X224350000Y-28521900D01*
X224321947Y-28662932D01*
X224266918Y-28795783D01*
X224266917Y-28795785D01*
X224187028Y-28915348D01*
X224085348Y-29017028D01*
X223965785Y-29096917D01*
X223965784Y-29096918D01*
X223965783Y-29096918D01*
X223832932Y-29151947D01*
X223691900Y-29180000D01*
X223548100Y-29180000D01*
X223407068Y-29151947D01*
X223274217Y-29096918D01*
X223274216Y-29096918D01*
X223274215Y-29096917D01*
X223154652Y-29017028D01*
X223052972Y-28915348D01*
X222973083Y-28795785D01*
X222973082Y-28795783D01*
X222918053Y-28662932D01*
X222890000Y-28521900D01*
X222890000Y-28378100D01*
X222918053Y-28237068D01*
X222973082Y-28104217D01*
X222973083Y-28104215D01*
X223052972Y-27984652D01*
X223154652Y-27882972D01*
X223274215Y-27803083D01*
X223274217Y-27803082D01*
X223407068Y-27748053D01*
X223548100Y-27720000D01*
X223691900Y-27720000D01*
X223832932Y-27748053D01*
G37*
G36*
X100092932Y-27748053D02*
G01*
X100225783Y-27803082D01*
X100225785Y-27803083D01*
X100345348Y-27882972D01*
X100447028Y-27984652D01*
X100526917Y-28104215D01*
X100526918Y-28104217D01*
X100581947Y-28237068D01*
X100610000Y-28378100D01*
X100610000Y-28521900D01*
X100581947Y-28662932D01*
X100526918Y-28795783D01*
X100526917Y-28795785D01*
X100447028Y-28915348D01*
X100345348Y-29017028D01*
X100225785Y-29096917D01*
X100225784Y-29096918D01*
X100225783Y-29096918D01*
X100092932Y-29151947D01*
X99951900Y-29180000D01*
X99808100Y-29180000D01*
X99667068Y-29151947D01*
X99534217Y-29096918D01*
X99534216Y-29096918D01*
X99534215Y-29096917D01*
X99414652Y-29017028D01*
X99312972Y-28915348D01*
X99233083Y-28795785D01*
X99233082Y-28795783D01*
X99178053Y-28662932D01*
X99150000Y-28521900D01*
X99150000Y-28378100D01*
X99178053Y-28237068D01*
X99233082Y-28104217D01*
X99233083Y-28104215D01*
X99312972Y-27984652D01*
X99414652Y-27882972D01*
X99534215Y-27803083D01*
X99534217Y-27803082D01*
X99667068Y-27748053D01*
X99808100Y-27720000D01*
X99951900Y-27720000D01*
X100092932Y-27748053D01*
G37*
G36*
X43842932Y-27748053D02*
G01*
X43975783Y-27803082D01*
X43975785Y-27803083D01*
X44095348Y-27882972D01*
X44197028Y-27984652D01*
X44276917Y-28104215D01*
X44276918Y-28104217D01*
X44331947Y-28237068D01*
X44360000Y-28378100D01*
X44360000Y-28521900D01*
X44331947Y-28662932D01*
X44276918Y-28795783D01*
X44276917Y-28795785D01*
X44197028Y-28915348D01*
X44095348Y-29017028D01*
X43975785Y-29096917D01*
X43975784Y-29096918D01*
X43975783Y-29096918D01*
X43842932Y-29151947D01*
X43701900Y-29180000D01*
X43558100Y-29180000D01*
X43417068Y-29151947D01*
X43284217Y-29096918D01*
X43284216Y-29096918D01*
X43284215Y-29096917D01*
X43164652Y-29017028D01*
X43062972Y-28915348D01*
X42983083Y-28795785D01*
X42983082Y-28795783D01*
X42928053Y-28662932D01*
X42900000Y-28521900D01*
X42900000Y-28378100D01*
X42928053Y-28237068D01*
X42983082Y-28104217D01*
X42983083Y-28104215D01*
X43062972Y-27984652D01*
X43164652Y-27882972D01*
X43284215Y-27803083D01*
X43284217Y-27803082D01*
X43417068Y-27748053D01*
X43558100Y-27720000D01*
X43701900Y-27720000D01*
X43842932Y-27748053D01*
G37*
G36*
X152342932Y-27748053D02*
G01*
X152475783Y-27803082D01*
X152475785Y-27803083D01*
X152595348Y-27882972D01*
X152697028Y-27984652D01*
X152776917Y-28104215D01*
X152776918Y-28104217D01*
X152831947Y-28237068D01*
X152860000Y-28378100D01*
X152860000Y-28521900D01*
X152831947Y-28662932D01*
X152776918Y-28795783D01*
X152776917Y-28795785D01*
X152697028Y-28915348D01*
X152595348Y-29017028D01*
X152475785Y-29096917D01*
X152475784Y-29096918D01*
X152475783Y-29096918D01*
X152342932Y-29151947D01*
X152201900Y-29180000D01*
X152058100Y-29180000D01*
X151917068Y-29151947D01*
X151784217Y-29096918D01*
X151784216Y-29096918D01*
X151784215Y-29096917D01*
X151664652Y-29017028D01*
X151562972Y-28915348D01*
X151483083Y-28795785D01*
X151483082Y-28795783D01*
X151428053Y-28662932D01*
X151400000Y-28521900D01*
X151400000Y-28378100D01*
X151428053Y-28237068D01*
X151483082Y-28104217D01*
X151483083Y-28104215D01*
X151562972Y-27984652D01*
X151664652Y-27882972D01*
X151784215Y-27803083D01*
X151784217Y-27803082D01*
X151917068Y-27748053D01*
X152058100Y-27720000D01*
X152201900Y-27720000D01*
X152342932Y-27748053D01*
G37*
G36*
X145748228Y-26681703D02*
G01*
X145903100Y-26745853D01*
X146042481Y-26838985D01*
X146161015Y-26957519D01*
X146254147Y-27096900D01*
X146318297Y-27251772D01*
X146351000Y-27416184D01*
X146351000Y-27583816D01*
X146318297Y-27748228D01*
X146254147Y-27903100D01*
X146161015Y-28042481D01*
X146042481Y-28161015D01*
X145903100Y-28254147D01*
X145748228Y-28318297D01*
X145583816Y-28351000D01*
X145416184Y-28351000D01*
X145251772Y-28318297D01*
X145096900Y-28254147D01*
X144957519Y-28161015D01*
X144838985Y-28042481D01*
X144745853Y-27903100D01*
X144681703Y-27748228D01*
X144649000Y-27583816D01*
X144649000Y-27416184D01*
X144681703Y-27251772D01*
X144745853Y-27096900D01*
X144838985Y-26957519D01*
X144957519Y-26838985D01*
X145096900Y-26745853D01*
X145251772Y-26681703D01*
X145416184Y-26649000D01*
X145583816Y-26649000D01*
X145748228Y-26681703D01*
G37*
G36*
X93498228Y-26681703D02*
G01*
X93653100Y-26745853D01*
X93792481Y-26838985D01*
X93911015Y-26957519D01*
X94004147Y-27096900D01*
X94068297Y-27251772D01*
X94101000Y-27416184D01*
X94101000Y-27583816D01*
X94068297Y-27748228D01*
X94004147Y-27903100D01*
X93911015Y-28042481D01*
X93792481Y-28161015D01*
X93653100Y-28254147D01*
X93498228Y-28318297D01*
X93333816Y-28351000D01*
X93166184Y-28351000D01*
X93001772Y-28318297D01*
X92846900Y-28254147D01*
X92707519Y-28161015D01*
X92588985Y-28042481D01*
X92495853Y-27903100D01*
X92431703Y-27748228D01*
X92399000Y-27583816D01*
X92399000Y-27416184D01*
X92431703Y-27251772D01*
X92495853Y-27096900D01*
X92588985Y-26957519D01*
X92707519Y-26838985D01*
X92846900Y-26745853D01*
X93001772Y-26681703D01*
X93166184Y-26649000D01*
X93333816Y-26649000D01*
X93498228Y-26681703D01*
G37*
G36*
X37248228Y-26681703D02*
G01*
X37403100Y-26745853D01*
X37542481Y-26838985D01*
X37661015Y-26957519D01*
X37754147Y-27096900D01*
X37818297Y-27251772D01*
X37851000Y-27416184D01*
X37851000Y-27583816D01*
X37818297Y-27748228D01*
X37754147Y-27903100D01*
X37661015Y-28042481D01*
X37542481Y-28161015D01*
X37403100Y-28254147D01*
X37248228Y-28318297D01*
X37083816Y-28351000D01*
X36916184Y-28351000D01*
X36751772Y-28318297D01*
X36596900Y-28254147D01*
X36457519Y-28161015D01*
X36338985Y-28042481D01*
X36245853Y-27903100D01*
X36181703Y-27748228D01*
X36149000Y-27583816D01*
X36149000Y-27416184D01*
X36181703Y-27251772D01*
X36245853Y-27096900D01*
X36338985Y-26957519D01*
X36457519Y-26838985D01*
X36596900Y-26745853D01*
X36751772Y-26681703D01*
X36916184Y-26649000D01*
X37083816Y-26649000D01*
X37248228Y-26681703D01*
G37*
G36*
X251998228Y-26681703D02*
G01*
X252153100Y-26745853D01*
X252292481Y-26838985D01*
X252411015Y-26957519D01*
X252504147Y-27096900D01*
X252568297Y-27251772D01*
X252601000Y-27416184D01*
X252601000Y-27583816D01*
X252568297Y-27748228D01*
X252504147Y-27903100D01*
X252411015Y-28042481D01*
X252292481Y-28161015D01*
X252153100Y-28254147D01*
X251998228Y-28318297D01*
X251833816Y-28351000D01*
X251666184Y-28351000D01*
X251501772Y-28318297D01*
X251346900Y-28254147D01*
X251207519Y-28161015D01*
X251088985Y-28042481D01*
X250995853Y-27903100D01*
X250931703Y-27748228D01*
X250899000Y-27583816D01*
X250899000Y-27416184D01*
X250931703Y-27251772D01*
X250995853Y-27096900D01*
X251088985Y-26957519D01*
X251207519Y-26838985D01*
X251346900Y-26745853D01*
X251501772Y-26681703D01*
X251666184Y-26649000D01*
X251833816Y-26649000D01*
X251998228Y-26681703D01*
G37*
G36*
X201998228Y-26681703D02*
G01*
X202153100Y-26745853D01*
X202292481Y-26838985D01*
X202411015Y-26957519D01*
X202504147Y-27096900D01*
X202568297Y-27251772D01*
X202601000Y-27416184D01*
X202601000Y-27583816D01*
X202568297Y-27748228D01*
X202504147Y-27903100D01*
X202411015Y-28042481D01*
X202292481Y-28161015D01*
X202153100Y-28254147D01*
X201998228Y-28318297D01*
X201833816Y-28351000D01*
X201666184Y-28351000D01*
X201501772Y-28318297D01*
X201346900Y-28254147D01*
X201207519Y-28161015D01*
X201088985Y-28042481D01*
X200995853Y-27903100D01*
X200931703Y-27748228D01*
X200899000Y-27583816D01*
X200899000Y-27416184D01*
X200931703Y-27251772D01*
X200995853Y-27096900D01*
X201088985Y-26957519D01*
X201207519Y-26838985D01*
X201346900Y-26745853D01*
X201501772Y-26681703D01*
X201666184Y-26649000D01*
X201833816Y-26649000D01*
X201998228Y-26681703D01*
G37*
G36*
X273832932Y-25208053D02*
G01*
X273965783Y-25263082D01*
X273965785Y-25263083D01*
X274085348Y-25342972D01*
X274187028Y-25444652D01*
X274266917Y-25564215D01*
X274266918Y-25564217D01*
X274321947Y-25697068D01*
X274350000Y-25838100D01*
X274350000Y-25981900D01*
X274321947Y-26122932D01*
X274266918Y-26255783D01*
X274266917Y-26255785D01*
X274187028Y-26375348D01*
X274085348Y-26477028D01*
X273965785Y-26556917D01*
X273965784Y-26556918D01*
X273965783Y-26556918D01*
X273832932Y-26611947D01*
X273691900Y-26640000D01*
X273548100Y-26640000D01*
X273407068Y-26611947D01*
X273274217Y-26556918D01*
X273274216Y-26556918D01*
X273274215Y-26556917D01*
X273154652Y-26477028D01*
X273052972Y-26375348D01*
X272973083Y-26255785D01*
X272973082Y-26255783D01*
X272918053Y-26122932D01*
X272890000Y-25981900D01*
X272890000Y-25838100D01*
X272918053Y-25697068D01*
X272973082Y-25564217D01*
X272973083Y-25564215D01*
X273052972Y-25444652D01*
X273154652Y-25342972D01*
X273274215Y-25263083D01*
X273274217Y-25263082D01*
X273407068Y-25208053D01*
X273548100Y-25180000D01*
X273691900Y-25180000D01*
X273832932Y-25208053D01*
G37*
G36*
X259110000Y-26640000D02*
G01*
X257650000Y-26640000D01*
X257650000Y-25180000D01*
X259110000Y-25180000D01*
X259110000Y-26640000D01*
G37*
G36*
X44360000Y-26640000D02*
G01*
X42900000Y-26640000D01*
X42900000Y-25180000D01*
X44360000Y-25180000D01*
X44360000Y-26640000D01*
G37*
G36*
X59082932Y-25208053D02*
G01*
X59215783Y-25263082D01*
X59215785Y-25263083D01*
X59335348Y-25342972D01*
X59437028Y-25444652D01*
X59516917Y-25564215D01*
X59516918Y-25564217D01*
X59571947Y-25697068D01*
X59600000Y-25838100D01*
X59600000Y-25981900D01*
X59571947Y-26122932D01*
X59516918Y-26255783D01*
X59516917Y-26255785D01*
X59437028Y-26375348D01*
X59335348Y-26477028D01*
X59215785Y-26556917D01*
X59215784Y-26556918D01*
X59215783Y-26556918D01*
X59082932Y-26611947D01*
X58941900Y-26640000D01*
X58798100Y-26640000D01*
X58657068Y-26611947D01*
X58524217Y-26556918D01*
X58524216Y-26556918D01*
X58524215Y-26556917D01*
X58404652Y-26477028D01*
X58302972Y-26375348D01*
X58223083Y-26255785D01*
X58223082Y-26255783D01*
X58168053Y-26122932D01*
X58140000Y-25981900D01*
X58140000Y-25838100D01*
X58168053Y-25697068D01*
X58223082Y-25564217D01*
X58223083Y-25564215D01*
X58302972Y-25444652D01*
X58404652Y-25342972D01*
X58524215Y-25263083D01*
X58524217Y-25263082D01*
X58657068Y-25208053D01*
X58798100Y-25180000D01*
X58941900Y-25180000D01*
X59082932Y-25208053D01*
G37*
G36*
X209110000Y-26640000D02*
G01*
X207650000Y-26640000D01*
X207650000Y-25180000D01*
X209110000Y-25180000D01*
X209110000Y-26640000D01*
G37*
G36*
X167582932Y-25208053D02*
G01*
X167715783Y-25263082D01*
X167715785Y-25263083D01*
X167835348Y-25342972D01*
X167937028Y-25444652D01*
X168016917Y-25564215D01*
X168016918Y-25564217D01*
X168071947Y-25697068D01*
X168100000Y-25838100D01*
X168100000Y-25981900D01*
X168071947Y-26122932D01*
X168016918Y-26255783D01*
X168016917Y-26255785D01*
X167937028Y-26375348D01*
X167835348Y-26477028D01*
X167715785Y-26556917D01*
X167715784Y-26556918D01*
X167715783Y-26556918D01*
X167582932Y-26611947D01*
X167441900Y-26640000D01*
X167298100Y-26640000D01*
X167157068Y-26611947D01*
X167024217Y-26556918D01*
X167024216Y-26556918D01*
X167024215Y-26556917D01*
X166904652Y-26477028D01*
X166802972Y-26375348D01*
X166723083Y-26255785D01*
X166723082Y-26255783D01*
X166668053Y-26122932D01*
X166640000Y-25981900D01*
X166640000Y-25838100D01*
X166668053Y-25697068D01*
X166723082Y-25564217D01*
X166723083Y-25564215D01*
X166802972Y-25444652D01*
X166904652Y-25342972D01*
X167024215Y-25263083D01*
X167024217Y-25263082D01*
X167157068Y-25208053D01*
X167298100Y-25180000D01*
X167441900Y-25180000D01*
X167582932Y-25208053D01*
G37*
G36*
X152860000Y-26640000D02*
G01*
X151400000Y-26640000D01*
X151400000Y-25180000D01*
X152860000Y-25180000D01*
X152860000Y-26640000D01*
G37*
G36*
X115332932Y-25208053D02*
G01*
X115465783Y-25263082D01*
X115465785Y-25263083D01*
X115585348Y-25342972D01*
X115687028Y-25444652D01*
X115766917Y-25564215D01*
X115766918Y-25564217D01*
X115821947Y-25697068D01*
X115850000Y-25838100D01*
X115850000Y-25981900D01*
X115821947Y-26122932D01*
X115766918Y-26255783D01*
X115766917Y-26255785D01*
X115687028Y-26375348D01*
X115585348Y-26477028D01*
X115465785Y-26556917D01*
X115465784Y-26556918D01*
X115465783Y-26556918D01*
X115332932Y-26611947D01*
X115191900Y-26640000D01*
X115048100Y-26640000D01*
X114907068Y-26611947D01*
X114774217Y-26556918D01*
X114774216Y-26556918D01*
X114774215Y-26556917D01*
X114654652Y-26477028D01*
X114552972Y-26375348D01*
X114473083Y-26255785D01*
X114473082Y-26255783D01*
X114418053Y-26122932D01*
X114390000Y-25981900D01*
X114390000Y-25838100D01*
X114418053Y-25697068D01*
X114473082Y-25564217D01*
X114473083Y-25564215D01*
X114552972Y-25444652D01*
X114654652Y-25342972D01*
X114774215Y-25263083D01*
X114774217Y-25263082D01*
X114907068Y-25208053D01*
X115048100Y-25180000D01*
X115191900Y-25180000D01*
X115332932Y-25208053D01*
G37*
G36*
X100610000Y-26640000D02*
G01*
X99150000Y-26640000D01*
X99150000Y-25180000D01*
X100610000Y-25180000D01*
X100610000Y-26640000D01*
G37*
G36*
X223832932Y-25208053D02*
G01*
X223965783Y-25263082D01*
X223965785Y-25263083D01*
X224085348Y-25342972D01*
X224187028Y-25444652D01*
X224266917Y-25564215D01*
X224266918Y-25564217D01*
X224321947Y-25697068D01*
X224350000Y-25838100D01*
X224350000Y-25981900D01*
X224321947Y-26122932D01*
X224266918Y-26255783D01*
X224266917Y-26255785D01*
X224187028Y-26375348D01*
X224085348Y-26477028D01*
X223965785Y-26556917D01*
X223965784Y-26556918D01*
X223965783Y-26556918D01*
X223832932Y-26611947D01*
X223691900Y-26640000D01*
X223548100Y-26640000D01*
X223407068Y-26611947D01*
X223274217Y-26556918D01*
X223274216Y-26556918D01*
X223274215Y-26556917D01*
X223154652Y-26477028D01*
X223052972Y-26375348D01*
X222973083Y-26255785D01*
X222973082Y-26255783D01*
X222918053Y-26122932D01*
X222890000Y-25981900D01*
X222890000Y-25838100D01*
X222918053Y-25697068D01*
X222973082Y-25564217D01*
X222973083Y-25564215D01*
X223052972Y-25444652D01*
X223154652Y-25342972D01*
X223274215Y-25263083D01*
X223274217Y-25263082D01*
X223407068Y-25208053D01*
X223548100Y-25180000D01*
X223691900Y-25180000D01*
X223832932Y-25208053D01*
G37*
M02*
