G04 #@! TF.GenerationSoftware,KiCad,Pcbnew,5.1.5-1.fc30*
G04 #@! TF.CreationDate,2021-07-16T22:34:16+03:00*
G04 #@! TF.ProjectId,light,6c696768-742e-46b6-9963-61645f706362,rev?*
G04 #@! TF.SameCoordinates,Original*
G04 #@! TF.FileFunction,Copper,L2,Bot*
G04 #@! TF.FilePolarity,Positive*
%FSLAX46Y46*%
G04 Gerber Fmt 4.6, Leading zero omitted, Abs format (unit mm)*
G04 Created by KiCad (PCBNEW 5.1.5-1.fc30) date 2021-07-16 22:34:16*
%MOMM*%
%LPD*%
G04 APERTURE LIST*
%ADD10C,0.300000*%
%ADD11C,1.600000*%
%ADD12C,5.999480*%
%ADD13R,5.999480X5.999480*%
%ADD14R,1.358000X1.358000*%
%ADD15C,1.358000*%
%ADD16C,0.100000*%
%ADD17O,1.905000X2.000000*%
%ADD18R,1.905000X2.000000*%
%ADD19O,1.700000X1.700000*%
%ADD20R,1.700000X1.700000*%
%ADD21O,1.600000X2.400000*%
%ADD22R,1.600000X2.400000*%
%ADD23O,1.600000X1.600000*%
%ADD24R,1.600000X1.600000*%
%ADD25C,2.000000*%
%ADD26C,1.000000*%
%ADD27C,2.000000*%
%ADD28C,0.254000*%
G04 APERTURE END LIST*
D10*
X167535714Y-110392857D02*
X167321428Y-110464285D01*
X167250000Y-110535714D01*
X167178571Y-110678571D01*
X167178571Y-110892857D01*
X167250000Y-111035714D01*
X167321428Y-111107142D01*
X167464285Y-111178571D01*
X168035714Y-111178571D01*
X168035714Y-109678571D01*
X167535714Y-109678571D01*
X167392857Y-109750000D01*
X167321428Y-109821428D01*
X167250000Y-109964285D01*
X167250000Y-110107142D01*
X167321428Y-110250000D01*
X167392857Y-110321428D01*
X167535714Y-110392857D01*
X168035714Y-110392857D01*
X166607142Y-110750000D02*
X165892857Y-110750000D01*
X166750000Y-111178571D02*
X166250000Y-109678571D01*
X165750000Y-111178571D01*
X164392857Y-111035714D02*
X164464285Y-111107142D01*
X164678571Y-111178571D01*
X164821428Y-111178571D01*
X165035714Y-111107142D01*
X165178571Y-110964285D01*
X165250000Y-110821428D01*
X165321428Y-110535714D01*
X165321428Y-110321428D01*
X165250000Y-110035714D01*
X165178571Y-109892857D01*
X165035714Y-109750000D01*
X164821428Y-109678571D01*
X164678571Y-109678571D01*
X164464285Y-109750000D01*
X164392857Y-109821428D01*
X163750000Y-111178571D02*
X163750000Y-109678571D01*
X162892857Y-111178571D02*
X163535714Y-110321428D01*
X162892857Y-109678571D02*
X163750000Y-110535714D01*
X273785714Y-110392857D02*
X273571428Y-110464285D01*
X273500000Y-110535714D01*
X273428571Y-110678571D01*
X273428571Y-110892857D01*
X273500000Y-111035714D01*
X273571428Y-111107142D01*
X273714285Y-111178571D01*
X274285714Y-111178571D01*
X274285714Y-109678571D01*
X273785714Y-109678571D01*
X273642857Y-109750000D01*
X273571428Y-109821428D01*
X273500000Y-109964285D01*
X273500000Y-110107142D01*
X273571428Y-110250000D01*
X273642857Y-110321428D01*
X273785714Y-110392857D01*
X274285714Y-110392857D01*
X272857142Y-110750000D02*
X272142857Y-110750000D01*
X273000000Y-111178571D02*
X272500000Y-109678571D01*
X272000000Y-111178571D01*
X270642857Y-111035714D02*
X270714285Y-111107142D01*
X270928571Y-111178571D01*
X271071428Y-111178571D01*
X271285714Y-111107142D01*
X271428571Y-110964285D01*
X271500000Y-110821428D01*
X271571428Y-110535714D01*
X271571428Y-110321428D01*
X271500000Y-110035714D01*
X271428571Y-109892857D01*
X271285714Y-109750000D01*
X271071428Y-109678571D01*
X270928571Y-109678571D01*
X270714285Y-109750000D01*
X270642857Y-109821428D01*
X270000000Y-111178571D02*
X270000000Y-109678571D01*
X269142857Y-111178571D02*
X269785714Y-110321428D01*
X269142857Y-109678571D02*
X270000000Y-110535714D01*
X223785714Y-110392857D02*
X223571428Y-110464285D01*
X223500000Y-110535714D01*
X223428571Y-110678571D01*
X223428571Y-110892857D01*
X223500000Y-111035714D01*
X223571428Y-111107142D01*
X223714285Y-111178571D01*
X224285714Y-111178571D01*
X224285714Y-109678571D01*
X223785714Y-109678571D01*
X223642857Y-109750000D01*
X223571428Y-109821428D01*
X223500000Y-109964285D01*
X223500000Y-110107142D01*
X223571428Y-110250000D01*
X223642857Y-110321428D01*
X223785714Y-110392857D01*
X224285714Y-110392857D01*
X222857142Y-110750000D02*
X222142857Y-110750000D01*
X223000000Y-111178571D02*
X222500000Y-109678571D01*
X222000000Y-111178571D01*
X220642857Y-111035714D02*
X220714285Y-111107142D01*
X220928571Y-111178571D01*
X221071428Y-111178571D01*
X221285714Y-111107142D01*
X221428571Y-110964285D01*
X221500000Y-110821428D01*
X221571428Y-110535714D01*
X221571428Y-110321428D01*
X221500000Y-110035714D01*
X221428571Y-109892857D01*
X221285714Y-109750000D01*
X221071428Y-109678571D01*
X220928571Y-109678571D01*
X220714285Y-109750000D01*
X220642857Y-109821428D01*
X220000000Y-111178571D02*
X220000000Y-109678571D01*
X219142857Y-111178571D02*
X219785714Y-110321428D01*
X219142857Y-109678571D02*
X220000000Y-110535714D01*
X273785714Y-41642857D02*
X273571428Y-41714285D01*
X273500000Y-41785714D01*
X273428571Y-41928571D01*
X273428571Y-42142857D01*
X273500000Y-42285714D01*
X273571428Y-42357142D01*
X273714285Y-42428571D01*
X274285714Y-42428571D01*
X274285714Y-40928571D01*
X273785714Y-40928571D01*
X273642857Y-41000000D01*
X273571428Y-41071428D01*
X273500000Y-41214285D01*
X273500000Y-41357142D01*
X273571428Y-41500000D01*
X273642857Y-41571428D01*
X273785714Y-41642857D01*
X274285714Y-41642857D01*
X272857142Y-42000000D02*
X272142857Y-42000000D01*
X273000000Y-42428571D02*
X272500000Y-40928571D01*
X272000000Y-42428571D01*
X270642857Y-42285714D02*
X270714285Y-42357142D01*
X270928571Y-42428571D01*
X271071428Y-42428571D01*
X271285714Y-42357142D01*
X271428571Y-42214285D01*
X271500000Y-42071428D01*
X271571428Y-41785714D01*
X271571428Y-41571428D01*
X271500000Y-41285714D01*
X271428571Y-41142857D01*
X271285714Y-41000000D01*
X271071428Y-40928571D01*
X270928571Y-40928571D01*
X270714285Y-41000000D01*
X270642857Y-41071428D01*
X270000000Y-42428571D02*
X270000000Y-40928571D01*
X269142857Y-42428571D02*
X269785714Y-41571428D01*
X269142857Y-40928571D02*
X270000000Y-41785714D01*
X223785714Y-41642857D02*
X223571428Y-41714285D01*
X223500000Y-41785714D01*
X223428571Y-41928571D01*
X223428571Y-42142857D01*
X223500000Y-42285714D01*
X223571428Y-42357142D01*
X223714285Y-42428571D01*
X224285714Y-42428571D01*
X224285714Y-40928571D01*
X223785714Y-40928571D01*
X223642857Y-41000000D01*
X223571428Y-41071428D01*
X223500000Y-41214285D01*
X223500000Y-41357142D01*
X223571428Y-41500000D01*
X223642857Y-41571428D01*
X223785714Y-41642857D01*
X224285714Y-41642857D01*
X222857142Y-42000000D02*
X222142857Y-42000000D01*
X223000000Y-42428571D02*
X222500000Y-40928571D01*
X222000000Y-42428571D01*
X220642857Y-42285714D02*
X220714285Y-42357142D01*
X220928571Y-42428571D01*
X221071428Y-42428571D01*
X221285714Y-42357142D01*
X221428571Y-42214285D01*
X221500000Y-42071428D01*
X221571428Y-41785714D01*
X221571428Y-41571428D01*
X221500000Y-41285714D01*
X221428571Y-41142857D01*
X221285714Y-41000000D01*
X221071428Y-40928571D01*
X220928571Y-40928571D01*
X220714285Y-41000000D01*
X220642857Y-41071428D01*
X220000000Y-42428571D02*
X220000000Y-40928571D01*
X219142857Y-42428571D02*
X219785714Y-41571428D01*
X219142857Y-40928571D02*
X220000000Y-41785714D01*
X167535714Y-41642857D02*
X167321428Y-41714285D01*
X167250000Y-41785714D01*
X167178571Y-41928571D01*
X167178571Y-42142857D01*
X167250000Y-42285714D01*
X167321428Y-42357142D01*
X167464285Y-42428571D01*
X168035714Y-42428571D01*
X168035714Y-40928571D01*
X167535714Y-40928571D01*
X167392857Y-41000000D01*
X167321428Y-41071428D01*
X167250000Y-41214285D01*
X167250000Y-41357142D01*
X167321428Y-41500000D01*
X167392857Y-41571428D01*
X167535714Y-41642857D01*
X168035714Y-41642857D01*
X166607142Y-42000000D02*
X165892857Y-42000000D01*
X166750000Y-42428571D02*
X166250000Y-40928571D01*
X165750000Y-42428571D01*
X164392857Y-42285714D02*
X164464285Y-42357142D01*
X164678571Y-42428571D01*
X164821428Y-42428571D01*
X165035714Y-42357142D01*
X165178571Y-42214285D01*
X165250000Y-42071428D01*
X165321428Y-41785714D01*
X165321428Y-41571428D01*
X165250000Y-41285714D01*
X165178571Y-41142857D01*
X165035714Y-41000000D01*
X164821428Y-40928571D01*
X164678571Y-40928571D01*
X164464285Y-41000000D01*
X164392857Y-41071428D01*
X163750000Y-42428571D02*
X163750000Y-40928571D01*
X162892857Y-42428571D02*
X163535714Y-41571428D01*
X162892857Y-40928571D02*
X163750000Y-41785714D01*
X115285714Y-41642857D02*
X115071428Y-41714285D01*
X115000000Y-41785714D01*
X114928571Y-41928571D01*
X114928571Y-42142857D01*
X115000000Y-42285714D01*
X115071428Y-42357142D01*
X115214285Y-42428571D01*
X115785714Y-42428571D01*
X115785714Y-40928571D01*
X115285714Y-40928571D01*
X115142857Y-41000000D01*
X115071428Y-41071428D01*
X115000000Y-41214285D01*
X115000000Y-41357142D01*
X115071428Y-41500000D01*
X115142857Y-41571428D01*
X115285714Y-41642857D01*
X115785714Y-41642857D01*
X114357142Y-42000000D02*
X113642857Y-42000000D01*
X114500000Y-42428571D02*
X114000000Y-40928571D01*
X113500000Y-42428571D01*
X112142857Y-42285714D02*
X112214285Y-42357142D01*
X112428571Y-42428571D01*
X112571428Y-42428571D01*
X112785714Y-42357142D01*
X112928571Y-42214285D01*
X113000000Y-42071428D01*
X113071428Y-41785714D01*
X113071428Y-41571428D01*
X113000000Y-41285714D01*
X112928571Y-41142857D01*
X112785714Y-41000000D01*
X112571428Y-40928571D01*
X112428571Y-40928571D01*
X112214285Y-41000000D01*
X112142857Y-41071428D01*
X111500000Y-42428571D02*
X111500000Y-40928571D01*
X110642857Y-42428571D02*
X111285714Y-41571428D01*
X110642857Y-40928571D02*
X111500000Y-41785714D01*
X59035714Y-41642857D02*
X58821428Y-41714285D01*
X58750000Y-41785714D01*
X58678571Y-41928571D01*
X58678571Y-42142857D01*
X58750000Y-42285714D01*
X58821428Y-42357142D01*
X58964285Y-42428571D01*
X59535714Y-42428571D01*
X59535714Y-40928571D01*
X59035714Y-40928571D01*
X58892857Y-41000000D01*
X58821428Y-41071428D01*
X58750000Y-41214285D01*
X58750000Y-41357142D01*
X58821428Y-41500000D01*
X58892857Y-41571428D01*
X59035714Y-41642857D01*
X59535714Y-41642857D01*
X58107142Y-42000000D02*
X57392857Y-42000000D01*
X58250000Y-42428571D02*
X57750000Y-40928571D01*
X57250000Y-42428571D01*
X55892857Y-42285714D02*
X55964285Y-42357142D01*
X56178571Y-42428571D01*
X56321428Y-42428571D01*
X56535714Y-42357142D01*
X56678571Y-42214285D01*
X56750000Y-42071428D01*
X56821428Y-41785714D01*
X56821428Y-41571428D01*
X56750000Y-41285714D01*
X56678571Y-41142857D01*
X56535714Y-41000000D01*
X56321428Y-40928571D01*
X56178571Y-40928571D01*
X55964285Y-41000000D01*
X55892857Y-41071428D01*
X55250000Y-42428571D02*
X55250000Y-40928571D01*
X54392857Y-42428571D02*
X55035714Y-41571428D01*
X54392857Y-40928571D02*
X55250000Y-41785714D01*
X34464285Y-182750000D02*
X34607142Y-182678571D01*
X34821428Y-182678571D01*
X35035714Y-182750000D01*
X35178571Y-182892857D01*
X35250000Y-183035714D01*
X35321428Y-183321428D01*
X35321428Y-183535714D01*
X35250000Y-183821428D01*
X35178571Y-183964285D01*
X35035714Y-184107142D01*
X34821428Y-184178571D01*
X34678571Y-184178571D01*
X34464285Y-184107142D01*
X34392857Y-184035714D01*
X34392857Y-183535714D01*
X34678571Y-183535714D01*
X32892857Y-184178571D02*
X33392857Y-183464285D01*
X33750000Y-184178571D02*
X33750000Y-182678571D01*
X33178571Y-182678571D01*
X33035714Y-182750000D01*
X32964285Y-182821428D01*
X32892857Y-182964285D01*
X32892857Y-183178571D01*
X32964285Y-183321428D01*
X33035714Y-183392857D01*
X33178571Y-183464285D01*
X33750000Y-183464285D01*
X31964285Y-182678571D02*
X31678571Y-182678571D01*
X31535714Y-182750000D01*
X31392857Y-182892857D01*
X31321428Y-183178571D01*
X31321428Y-183678571D01*
X31392857Y-183964285D01*
X31535714Y-184107142D01*
X31678571Y-184178571D01*
X31964285Y-184178571D01*
X32107142Y-184107142D01*
X32249999Y-183964285D01*
X32321428Y-183678571D01*
X32321428Y-183178571D01*
X32249999Y-182892857D01*
X32107142Y-182750000D01*
X31964285Y-182678571D01*
X30678571Y-182678571D02*
X30678571Y-183892857D01*
X30607142Y-184035714D01*
X30535714Y-184107142D01*
X30392857Y-184178571D01*
X30107142Y-184178571D01*
X29964285Y-184107142D01*
X29892857Y-184035714D01*
X29821428Y-183892857D01*
X29821428Y-182678571D01*
X29107142Y-184178571D02*
X29107142Y-182678571D01*
X28250000Y-184178571D01*
X28250000Y-182678571D01*
X27535714Y-184178571D02*
X27535714Y-182678571D01*
X27178571Y-182678571D01*
X26964285Y-182750000D01*
X26821428Y-182892857D01*
X26750000Y-183035714D01*
X26678571Y-183321428D01*
X26678571Y-183535714D01*
X26750000Y-183821428D01*
X26821428Y-183964285D01*
X26964285Y-184107142D01*
X27178571Y-184178571D01*
X27535714Y-184178571D01*
D11*
X251750000Y-101250000D03*
X251750000Y-96250000D03*
X145500000Y-101250000D03*
X145500000Y-96250000D03*
D12*
X143000000Y-120870000D03*
D13*
X143000000Y-113250000D03*
D12*
X244000000Y-96130000D03*
D13*
X244000000Y-103750000D03*
X194000000Y-103750000D03*
D12*
X194000000Y-96130000D03*
D13*
X199250000Y-113250000D03*
D12*
X199250000Y-120870000D03*
X163620000Y-130250000D03*
D13*
X156000000Y-130250000D03*
D11*
X201750000Y-96250000D03*
X201750000Y-101250000D03*
D14*
X208380000Y-94660000D03*
D15*
X223620000Y-94660000D03*
X208380000Y-97200000D03*
X223620000Y-97200000D03*
X208380000Y-119800000D03*
X208380000Y-122340000D03*
X223620000Y-119800000D03*
X223620000Y-122340000D03*
X223620000Y-102280000D03*
D12*
X249250000Y-120870000D03*
D13*
X249250000Y-113250000D03*
X212250000Y-130250000D03*
D12*
X219870000Y-130250000D03*
D15*
X167370000Y-102280000D03*
X167370000Y-122340000D03*
X167370000Y-119800000D03*
X152130000Y-122340000D03*
X152130000Y-119800000D03*
X167370000Y-97200000D03*
X152130000Y-97200000D03*
X167370000Y-94660000D03*
D14*
X152130000Y-94660000D03*
D12*
X137750000Y-96130000D03*
D13*
X137750000Y-103750000D03*
D12*
X269870000Y-130250000D03*
D13*
X262250000Y-130250000D03*
D15*
X273620000Y-102280000D03*
X273620000Y-122340000D03*
X273620000Y-119800000D03*
X258380000Y-122340000D03*
X258380000Y-119800000D03*
X273620000Y-97200000D03*
X258380000Y-97200000D03*
X273620000Y-94660000D03*
D14*
X258380000Y-94660000D03*
D13*
X244000000Y-35000000D03*
D12*
X244000000Y-27380000D03*
D13*
X249250000Y-44500000D03*
D12*
X249250000Y-52120000D03*
D11*
X251750000Y-27500000D03*
X251750000Y-32500000D03*
D14*
X258380000Y-25910000D03*
D15*
X273620000Y-25910000D03*
X258380000Y-28450000D03*
X273620000Y-28450000D03*
X258380000Y-51050000D03*
X258380000Y-53590000D03*
X273620000Y-51050000D03*
X273620000Y-53590000D03*
X273620000Y-33530000D03*
D13*
X262250000Y-61500000D03*
D12*
X269870000Y-61500000D03*
X194000000Y-27380000D03*
D13*
X194000000Y-35000000D03*
D12*
X219870000Y-61500000D03*
D13*
X212250000Y-61500000D03*
D12*
X199250000Y-52120000D03*
D13*
X199250000Y-44500000D03*
D15*
X223620000Y-33530000D03*
X223620000Y-53590000D03*
X223620000Y-51050000D03*
X208380000Y-53590000D03*
X208380000Y-51050000D03*
X223620000Y-28450000D03*
X208380000Y-28450000D03*
X223620000Y-25910000D03*
D14*
X208380000Y-25910000D03*
D11*
X201750000Y-32500000D03*
X201750000Y-27500000D03*
D13*
X137750000Y-35000000D03*
D12*
X137750000Y-27380000D03*
D13*
X143000000Y-44500000D03*
D12*
X143000000Y-52120000D03*
D11*
X145500000Y-27500000D03*
X145500000Y-32500000D03*
D13*
X156000000Y-61500000D03*
D12*
X163620000Y-61500000D03*
D14*
X152130000Y-25910000D03*
D15*
X167370000Y-25910000D03*
X152130000Y-28450000D03*
X167370000Y-28450000D03*
X152130000Y-51050000D03*
X152130000Y-53590000D03*
X167370000Y-51050000D03*
X167370000Y-53590000D03*
X167370000Y-33530000D03*
D13*
X85500000Y-35000000D03*
D12*
X85500000Y-27380000D03*
D13*
X90750000Y-44500000D03*
D12*
X90750000Y-52120000D03*
D11*
X93250000Y-27500000D03*
X93250000Y-32500000D03*
D13*
X103750000Y-61500000D03*
D12*
X111370000Y-61500000D03*
D14*
X99880000Y-25910000D03*
D15*
X115120000Y-25910000D03*
X99880000Y-28450000D03*
X115120000Y-28450000D03*
X99880000Y-51050000D03*
X99880000Y-53590000D03*
X115120000Y-51050000D03*
X115120000Y-53590000D03*
X115120000Y-33530000D03*
D12*
X72276307Y-170723693D03*
X66888154Y-176111846D03*
G04 #@! TA.AperFunction,ComponentPad*
D16*
G36*
X61500000Y-185742273D02*
G01*
X57257727Y-181500000D01*
X61500000Y-177257727D01*
X65742273Y-181500000D01*
X61500000Y-185742273D01*
G37*
G04 #@! TD.AperFunction*
D17*
X56330000Y-134250000D03*
X53790000Y-129170000D03*
D18*
X51250000Y-134250000D03*
D19*
X33210000Y-145760000D03*
X35750000Y-145760000D03*
X33210000Y-148300000D03*
X35750000Y-148300000D03*
X33210000Y-150840000D03*
X35750000Y-150840000D03*
X33210000Y-153380000D03*
X35750000Y-153380000D03*
X33210000Y-155920000D03*
X35750000Y-155920000D03*
X33210000Y-158460000D03*
X35750000Y-158460000D03*
X33210000Y-161000000D03*
X35750000Y-161000000D03*
X33210000Y-163540000D03*
D20*
X35750000Y-163540000D03*
D15*
X58870000Y-33530000D03*
X58870000Y-53590000D03*
X58870000Y-51050000D03*
X43630000Y-53590000D03*
X43630000Y-51050000D03*
X58870000Y-28450000D03*
X43630000Y-28450000D03*
X58870000Y-25910000D03*
D14*
X43630000Y-25910000D03*
D21*
X48000000Y-155630000D03*
X55620000Y-163250000D03*
X50540000Y-155630000D03*
X53080000Y-163250000D03*
X53080000Y-155630000D03*
X50540000Y-163250000D03*
X55620000Y-155630000D03*
D22*
X48000000Y-163250000D03*
D12*
X34668613Y-135466409D03*
D13*
X34668613Y-127846409D03*
D23*
X64500000Y-156090000D03*
D11*
X64500000Y-166250000D03*
D23*
X52660000Y-180500000D03*
D11*
X42500000Y-180500000D03*
D23*
X41500000Y-163910000D03*
D11*
X41500000Y-153750000D03*
D12*
X55120000Y-61500000D03*
D13*
X47500000Y-61500000D03*
D12*
X34500000Y-52120000D03*
D13*
X34500000Y-44500000D03*
D12*
X29250000Y-27380000D03*
D13*
X29250000Y-35000000D03*
D12*
X56750000Y-121750000D03*
D13*
X49130000Y-121750000D03*
D23*
X50120000Y-175500000D03*
D24*
X42500000Y-175500000D03*
D11*
X37000000Y-32500000D03*
X37000000Y-27500000D03*
X45556272Y-169223789D03*
X50556272Y-169223789D03*
X51500000Y-140250000D03*
X56500000Y-140250000D03*
X51500000Y-147500000D03*
D24*
X54000000Y-147500000D03*
D11*
X63250000Y-130750000D03*
X63250000Y-135750000D03*
X43500000Y-130000000D03*
X43500000Y-135000000D03*
D25*
X69250000Y-162000000D03*
D26*
X56120000Y-163750000D02*
X55620000Y-163250000D01*
X69250000Y-162000000D02*
X62000000Y-162000000D01*
X60750000Y-163250000D02*
X55620000Y-163250000D01*
X62000000Y-162000000D02*
X60750000Y-163250000D01*
X48000000Y-155630000D02*
X48000000Y-151250000D01*
X48000000Y-151250000D02*
X48750000Y-150500000D01*
X48750000Y-150500000D02*
X53500000Y-150500000D01*
X54000000Y-150000000D02*
X54000000Y-147500000D01*
X53500000Y-150500000D02*
X54000000Y-150000000D01*
X50556272Y-163266272D02*
X50540000Y-163250000D01*
X50556272Y-169223789D02*
X50556272Y-163266272D01*
X50540000Y-163250000D02*
X50540000Y-160960000D01*
X53080000Y-158420000D02*
X53080000Y-155630000D01*
X50540000Y-160960000D02*
X53080000Y-158420000D01*
X53080000Y-163250000D02*
X53080000Y-165080000D01*
X53080000Y-165080000D02*
X55750000Y-167750000D01*
X55750000Y-167750000D02*
X55750000Y-172500000D01*
X52750000Y-175500000D02*
X50120000Y-175500000D01*
X55750000Y-172500000D02*
X52750000Y-175500000D01*
D27*
X36120000Y-153750000D02*
X35750000Y-153380000D01*
X41500000Y-153750000D02*
X36120000Y-153750000D01*
X35750000Y-163540000D02*
X35750000Y-145760000D01*
D26*
X34500000Y-52120000D02*
X36380000Y-52120000D01*
X58870000Y-33530000D02*
X57720000Y-33530000D01*
X57720000Y-33530000D02*
X44500000Y-46750000D01*
X44500000Y-46750000D02*
X42250000Y-46750000D01*
X36880000Y-52120000D02*
X34500000Y-52120000D01*
X42250000Y-46750000D02*
X36880000Y-52120000D01*
X90750000Y-52120000D02*
X92630000Y-52120000D01*
X115120000Y-33530000D02*
X113970000Y-33530000D01*
X113970000Y-33530000D02*
X100750000Y-46750000D01*
X100750000Y-46750000D02*
X98500000Y-46750000D01*
X93130000Y-52120000D02*
X90750000Y-52120000D01*
X98500000Y-46750000D02*
X93130000Y-52120000D01*
X50540000Y-155630000D02*
X50540000Y-153960000D01*
X50540000Y-153960000D02*
X52000000Y-152500000D01*
X60910000Y-152500000D02*
X64500000Y-156090000D01*
X52000000Y-152500000D02*
X60910000Y-152500000D01*
X143000000Y-52120000D02*
X144880000Y-52120000D01*
X167370000Y-33530000D02*
X166220000Y-33530000D01*
X166220000Y-33530000D02*
X153000000Y-46750000D01*
X153000000Y-46750000D02*
X150750000Y-46750000D01*
X145380000Y-52120000D02*
X143000000Y-52120000D01*
X150750000Y-46750000D02*
X145380000Y-52120000D01*
X223620000Y-33530000D02*
X222470000Y-33530000D01*
X209250000Y-46750000D02*
X207000000Y-46750000D01*
X207000000Y-46750000D02*
X201630000Y-52120000D01*
X201630000Y-52120000D02*
X199250000Y-52120000D01*
X222470000Y-33530000D02*
X209250000Y-46750000D01*
X199250000Y-52120000D02*
X201130000Y-52120000D01*
X259250000Y-46750000D02*
X257000000Y-46750000D01*
X272470000Y-33530000D02*
X259250000Y-46750000D01*
X257000000Y-46750000D02*
X251630000Y-52120000D01*
X273620000Y-33530000D02*
X272470000Y-33530000D01*
X249250000Y-52120000D02*
X251130000Y-52120000D01*
X251630000Y-52120000D02*
X249250000Y-52120000D01*
X167370000Y-102280000D02*
X166220000Y-102280000D01*
X153000000Y-115500000D02*
X150750000Y-115500000D01*
X145380000Y-120870000D02*
X143000000Y-120870000D01*
X166220000Y-102280000D02*
X153000000Y-115500000D01*
X150750000Y-115500000D02*
X145380000Y-120870000D01*
X143000000Y-120870000D02*
X144880000Y-120870000D01*
X209250000Y-115500000D02*
X207000000Y-115500000D01*
X222470000Y-102280000D02*
X209250000Y-115500000D01*
X207000000Y-115500000D02*
X201630000Y-120870000D01*
X223620000Y-102280000D02*
X222470000Y-102280000D01*
X199250000Y-120870000D02*
X201130000Y-120870000D01*
X201630000Y-120870000D02*
X199250000Y-120870000D01*
X272470000Y-102280000D02*
X259250000Y-115500000D01*
X273620000Y-102280000D02*
X272470000Y-102280000D01*
X259250000Y-115500000D02*
X257000000Y-115500000D01*
X251630000Y-120870000D02*
X249250000Y-120870000D01*
X249250000Y-120870000D02*
X251130000Y-120870000D01*
X257000000Y-115500000D02*
X251630000Y-120870000D01*
D28*
G36*
X75573001Y-168229606D02*
G01*
X75481756Y-168093049D01*
X74906951Y-167518244D01*
X74231052Y-167066623D01*
X73480033Y-166755541D01*
X72682755Y-166596953D01*
X71869859Y-166596953D01*
X71072581Y-166755541D01*
X70321562Y-167066623D01*
X69645663Y-167518244D01*
X69070858Y-168093049D01*
X68619237Y-168768948D01*
X68308155Y-169519967D01*
X68149567Y-170317245D01*
X68149567Y-171130141D01*
X68308155Y-171927419D01*
X68461084Y-172296623D01*
X68091880Y-172143694D01*
X67294602Y-171985106D01*
X66481706Y-171985106D01*
X65684428Y-172143694D01*
X64933409Y-172454776D01*
X64257510Y-172906397D01*
X63682705Y-173481202D01*
X63231084Y-174157101D01*
X62920002Y-174908120D01*
X62761414Y-175705398D01*
X62761414Y-176518294D01*
X62860565Y-177016762D01*
X62300765Y-176456962D01*
X62129157Y-176316127D01*
X61933371Y-176211477D01*
X61720931Y-176147034D01*
X61500000Y-176125274D01*
X61279069Y-176147034D01*
X61066629Y-176211477D01*
X60870843Y-176316127D01*
X60699235Y-176456962D01*
X56456962Y-180699235D01*
X56316127Y-180870843D01*
X56211477Y-181066629D01*
X56147034Y-181279069D01*
X56125274Y-181500000D01*
X56147034Y-181720931D01*
X56211477Y-181933371D01*
X56316127Y-182129157D01*
X56456962Y-182300765D01*
X58779197Y-184623000D01*
X36884143Y-184623000D01*
X36884143Y-181218000D01*
X26177000Y-181218000D01*
X26177000Y-180310207D01*
X40573000Y-180310207D01*
X40573000Y-180689793D01*
X40647053Y-181062085D01*
X40792315Y-181412777D01*
X41003201Y-181728391D01*
X41271609Y-181996799D01*
X41587223Y-182207685D01*
X41937915Y-182352947D01*
X42310207Y-182427000D01*
X42689793Y-182427000D01*
X43062085Y-182352947D01*
X43412777Y-182207685D01*
X43728391Y-181996799D01*
X43996799Y-181728391D01*
X44207685Y-181412777D01*
X44352947Y-181062085D01*
X44427000Y-180689793D01*
X44427000Y-180310207D01*
X50733000Y-180310207D01*
X50733000Y-180689793D01*
X50807053Y-181062085D01*
X50952315Y-181412777D01*
X51163201Y-181728391D01*
X51431609Y-181996799D01*
X51747223Y-182207685D01*
X52097915Y-182352947D01*
X52470207Y-182427000D01*
X52849793Y-182427000D01*
X53222085Y-182352947D01*
X53572777Y-182207685D01*
X53888391Y-181996799D01*
X54156799Y-181728391D01*
X54367685Y-181412777D01*
X54512947Y-181062085D01*
X54587000Y-180689793D01*
X54587000Y-180310207D01*
X54512947Y-179937915D01*
X54367685Y-179587223D01*
X54156799Y-179271609D01*
X53888391Y-179003201D01*
X53572777Y-178792315D01*
X53222085Y-178647053D01*
X52849793Y-178573000D01*
X52470207Y-178573000D01*
X52097915Y-178647053D01*
X51747223Y-178792315D01*
X51431609Y-179003201D01*
X51163201Y-179271609D01*
X50952315Y-179587223D01*
X50807053Y-179937915D01*
X50733000Y-180310207D01*
X44427000Y-180310207D01*
X44352947Y-179937915D01*
X44207685Y-179587223D01*
X43996799Y-179271609D01*
X43728391Y-179003201D01*
X43412777Y-178792315D01*
X43062085Y-178647053D01*
X42689793Y-178573000D01*
X42310207Y-178573000D01*
X41937915Y-178647053D01*
X41587223Y-178792315D01*
X41271609Y-179003201D01*
X41003201Y-179271609D01*
X40792315Y-179587223D01*
X40647053Y-179937915D01*
X40573000Y-180310207D01*
X26177000Y-180310207D01*
X26177000Y-174700000D01*
X40567547Y-174700000D01*
X40567547Y-176300000D01*
X40589307Y-176520931D01*
X40653750Y-176733371D01*
X40758400Y-176929157D01*
X40899235Y-177100765D01*
X41070843Y-177241600D01*
X41266629Y-177346250D01*
X41479069Y-177410693D01*
X41700000Y-177432453D01*
X43300000Y-177432453D01*
X43520931Y-177410693D01*
X43733371Y-177346250D01*
X43929157Y-177241600D01*
X44100765Y-177100765D01*
X44241600Y-176929157D01*
X44346250Y-176733371D01*
X44410693Y-176520931D01*
X44432453Y-176300000D01*
X44432453Y-174700000D01*
X44410693Y-174479069D01*
X44346250Y-174266629D01*
X44241600Y-174070843D01*
X44100765Y-173899235D01*
X43929157Y-173758400D01*
X43733371Y-173653750D01*
X43520931Y-173589307D01*
X43300000Y-173567547D01*
X41700000Y-173567547D01*
X41479069Y-173589307D01*
X41266629Y-173653750D01*
X41070843Y-173758400D01*
X40899235Y-173899235D01*
X40758400Y-174070843D01*
X40653750Y-174266629D01*
X40589307Y-174479069D01*
X40567547Y-174700000D01*
X26177000Y-174700000D01*
X26177000Y-153380000D01*
X33612709Y-153380000D01*
X33623001Y-153484491D01*
X33623000Y-163644486D01*
X33653776Y-163956964D01*
X33767547Y-164332014D01*
X33767547Y-164390000D01*
X33789307Y-164610931D01*
X33853750Y-164823371D01*
X33958400Y-165019157D01*
X34099235Y-165190765D01*
X34270843Y-165331600D01*
X34466629Y-165436250D01*
X34679069Y-165500693D01*
X34900000Y-165522453D01*
X34957985Y-165522453D01*
X35333035Y-165636224D01*
X35750000Y-165677291D01*
X36166964Y-165636224D01*
X36542014Y-165522453D01*
X36600000Y-165522453D01*
X36820931Y-165500693D01*
X37033371Y-165436250D01*
X37229157Y-165331600D01*
X37400765Y-165190765D01*
X37541600Y-165019157D01*
X37646250Y-164823371D01*
X37710693Y-164610931D01*
X37732453Y-164390000D01*
X37732453Y-164332015D01*
X37846224Y-163956965D01*
X37869542Y-163720207D01*
X39573000Y-163720207D01*
X39573000Y-164099793D01*
X39647053Y-164472085D01*
X39792315Y-164822777D01*
X40003201Y-165138391D01*
X40271609Y-165406799D01*
X40587223Y-165617685D01*
X40937915Y-165762947D01*
X41310207Y-165837000D01*
X41689793Y-165837000D01*
X42062085Y-165762947D01*
X42412777Y-165617685D01*
X42728391Y-165406799D01*
X42996799Y-165138391D01*
X43207685Y-164822777D01*
X43352947Y-164472085D01*
X43427000Y-164099793D01*
X43427000Y-163720207D01*
X43352947Y-163347915D01*
X43207685Y-162997223D01*
X42996799Y-162681609D01*
X42728391Y-162413201D01*
X42412777Y-162202315D01*
X42062085Y-162057053D01*
X41689793Y-161983000D01*
X41310207Y-161983000D01*
X40937915Y-162057053D01*
X40587223Y-162202315D01*
X40271609Y-162413201D01*
X40003201Y-162681609D01*
X39792315Y-162997223D01*
X39647053Y-163347915D01*
X39573000Y-163720207D01*
X37869542Y-163720207D01*
X37877000Y-163644487D01*
X37877000Y-155877000D01*
X41604487Y-155877000D01*
X41916965Y-155846224D01*
X42317906Y-155724599D01*
X42687415Y-155527093D01*
X43011293Y-155261293D01*
X43277093Y-154937415D01*
X43474599Y-154567906D01*
X43596224Y-154166965D01*
X43612668Y-154000000D01*
X45623000Y-154000000D01*
X45623000Y-160500000D01*
X45623612Y-160512448D01*
X45642827Y-160707538D01*
X45647683Y-160731956D01*
X45704588Y-160919549D01*
X45714116Y-160942550D01*
X45806526Y-161115437D01*
X45820358Y-161136138D01*
X45944721Y-161287675D01*
X45962325Y-161305279D01*
X46113862Y-161429642D01*
X46134563Y-161443474D01*
X46307450Y-161535884D01*
X46330451Y-161545412D01*
X46518044Y-161602317D01*
X46542462Y-161607173D01*
X46737552Y-161626388D01*
X46750000Y-161627000D01*
X48493766Y-161627000D01*
X48670189Y-161644376D01*
X48833850Y-161694022D01*
X48913001Y-161736329D01*
X48913001Y-161806052D01*
X48751071Y-162109002D01*
X48640883Y-162472243D01*
X48613000Y-162755343D01*
X48613000Y-163744658D01*
X48640883Y-164027758D01*
X48751071Y-164390999D01*
X48929273Y-164724391D01*
X48929272Y-168190258D01*
X48848587Y-168311012D01*
X48703325Y-168661704D01*
X48629272Y-169033996D01*
X48629272Y-169413582D01*
X48703325Y-169785874D01*
X48848587Y-170136566D01*
X49059473Y-170452180D01*
X49327881Y-170720588D01*
X49643495Y-170931474D01*
X49994187Y-171076736D01*
X50366479Y-171150789D01*
X50746065Y-171150789D01*
X51118357Y-171076736D01*
X51469049Y-170931474D01*
X51784663Y-170720588D01*
X52053071Y-170452180D01*
X52263957Y-170136566D01*
X52409219Y-169785874D01*
X52483272Y-169413582D01*
X52483272Y-169033996D01*
X52409219Y-168661704D01*
X52263957Y-168311012D01*
X52183272Y-168190258D01*
X52183272Y-166484197D01*
X54123000Y-168423926D01*
X54123001Y-171826073D01*
X52076075Y-173873000D01*
X51153531Y-173873000D01*
X51032777Y-173792315D01*
X50682085Y-173647053D01*
X50309793Y-173573000D01*
X49930207Y-173573000D01*
X49557915Y-173647053D01*
X49207223Y-173792315D01*
X48891609Y-174003201D01*
X48623201Y-174271609D01*
X48412315Y-174587223D01*
X48267053Y-174937915D01*
X48193000Y-175310207D01*
X48193000Y-175689793D01*
X48267053Y-176062085D01*
X48412315Y-176412777D01*
X48623201Y-176728391D01*
X48891609Y-176996799D01*
X49207223Y-177207685D01*
X49557915Y-177352947D01*
X49930207Y-177427000D01*
X50309793Y-177427000D01*
X50682085Y-177352947D01*
X51032777Y-177207685D01*
X51153531Y-177127000D01*
X52670086Y-177127000D01*
X52750000Y-177134871D01*
X52829914Y-177127000D01*
X52829925Y-177127000D01*
X53068948Y-177103458D01*
X53375638Y-177010425D01*
X53658286Y-176859346D01*
X53906029Y-176656029D01*
X53956979Y-176593946D01*
X56843951Y-173706975D01*
X56906029Y-173656029D01*
X56956975Y-173593951D01*
X56956978Y-173593948D01*
X57109346Y-173408286D01*
X57260424Y-173125639D01*
X57260425Y-173125638D01*
X57353458Y-172818948D01*
X57377000Y-172579925D01*
X57384872Y-172500000D01*
X57377000Y-172420075D01*
X57377000Y-167829914D01*
X57384871Y-167749999D01*
X57377000Y-167670085D01*
X57377000Y-167670075D01*
X57353458Y-167431052D01*
X57260425Y-167124362D01*
X57109346Y-166841714D01*
X56979469Y-166683458D01*
X56956978Y-166656052D01*
X56956975Y-166656049D01*
X56906029Y-166593971D01*
X56843952Y-166543026D01*
X56361133Y-166060207D01*
X62573000Y-166060207D01*
X62573000Y-166439793D01*
X62647053Y-166812085D01*
X62792315Y-167162777D01*
X63003201Y-167478391D01*
X63271609Y-167746799D01*
X63587223Y-167957685D01*
X63937915Y-168102947D01*
X64310207Y-168177000D01*
X64689793Y-168177000D01*
X65062085Y-168102947D01*
X65412777Y-167957685D01*
X65728391Y-167746799D01*
X65996799Y-167478391D01*
X66207685Y-167162777D01*
X66352947Y-166812085D01*
X66427000Y-166439793D01*
X66427000Y-166060207D01*
X66352947Y-165687915D01*
X66207685Y-165337223D01*
X65996799Y-165021609D01*
X65728391Y-164753201D01*
X65412777Y-164542315D01*
X65062085Y-164397053D01*
X64689793Y-164323000D01*
X64310207Y-164323000D01*
X63937915Y-164397053D01*
X63587223Y-164542315D01*
X63271609Y-164753201D01*
X63003201Y-165021609D01*
X62792315Y-165337223D01*
X62647053Y-165687915D01*
X62573000Y-166060207D01*
X56361133Y-166060207D01*
X55927926Y-165627000D01*
X56000000Y-165627000D01*
X56012448Y-165626388D01*
X56207538Y-165607173D01*
X56231956Y-165602317D01*
X56419549Y-165545412D01*
X56442550Y-165535884D01*
X56615437Y-165443474D01*
X56636138Y-165429642D01*
X56787675Y-165305279D01*
X56805279Y-165287675D01*
X56891726Y-165182338D01*
X57028285Y-165109346D01*
X57276029Y-164906029D01*
X57299852Y-164877000D01*
X60670086Y-164877000D01*
X60750000Y-164884871D01*
X60829914Y-164877000D01*
X60829925Y-164877000D01*
X61068948Y-164853458D01*
X61375638Y-164760425D01*
X61658286Y-164609346D01*
X61906029Y-164406029D01*
X61956979Y-164343946D01*
X62673926Y-163627000D01*
X67868967Y-163627000D01*
X67894116Y-163652149D01*
X68242488Y-163884923D01*
X68629577Y-164045261D01*
X69040509Y-164127000D01*
X69459491Y-164127000D01*
X69870423Y-164045261D01*
X70257512Y-163884923D01*
X70605884Y-163652149D01*
X70902149Y-163355884D01*
X71134923Y-163007512D01*
X71295261Y-162620423D01*
X71377000Y-162209491D01*
X71377000Y-161790509D01*
X71295261Y-161379577D01*
X71134923Y-160992488D01*
X70902149Y-160644116D01*
X70605884Y-160347851D01*
X70257512Y-160115077D01*
X69870423Y-159954739D01*
X69459491Y-159873000D01*
X69040509Y-159873000D01*
X68629577Y-159954739D01*
X68242488Y-160115077D01*
X67894116Y-160347851D01*
X67868967Y-160373000D01*
X62079914Y-160373000D01*
X62000000Y-160365129D01*
X61920085Y-160373000D01*
X61920075Y-160373000D01*
X61681052Y-160396542D01*
X61374362Y-160489575D01*
X61091714Y-160640654D01*
X60906052Y-160793022D01*
X60906049Y-160793025D01*
X60843971Y-160843971D01*
X60793025Y-160906049D01*
X60076075Y-161623000D01*
X57538712Y-161623000D01*
X57645987Y-161608877D01*
X57678011Y-161600296D01*
X57798601Y-161550346D01*
X57827313Y-161533768D01*
X57930866Y-161454308D01*
X57954308Y-161430866D01*
X58033768Y-161327313D01*
X58050346Y-161298601D01*
X58100296Y-161178011D01*
X58108877Y-161145987D01*
X58125914Y-161016577D01*
X58127000Y-161000000D01*
X58127000Y-154127000D01*
X60236075Y-154127000D01*
X62618720Y-156509646D01*
X62647053Y-156652085D01*
X62792315Y-157002777D01*
X63003201Y-157318391D01*
X63271609Y-157586799D01*
X63587223Y-157797685D01*
X63937915Y-157942947D01*
X64310207Y-158017000D01*
X64689793Y-158017000D01*
X65062085Y-157942947D01*
X65412777Y-157797685D01*
X65728391Y-157586799D01*
X65996799Y-157318391D01*
X66207685Y-157002777D01*
X66352947Y-156652085D01*
X66427000Y-156279793D01*
X66427000Y-155900207D01*
X66352947Y-155527915D01*
X66207685Y-155177223D01*
X65996799Y-154861609D01*
X65728391Y-154593201D01*
X65412777Y-154382315D01*
X65062085Y-154237053D01*
X64919646Y-154208720D01*
X62116979Y-151406054D01*
X62066029Y-151343971D01*
X61818286Y-151140654D01*
X61535638Y-150989575D01*
X61228948Y-150896542D01*
X60989925Y-150873000D01*
X60989914Y-150873000D01*
X60910000Y-150865129D01*
X60830086Y-150873000D01*
X55378207Y-150873000D01*
X55510425Y-150625638D01*
X55603458Y-150318948D01*
X55627000Y-150079925D01*
X55627000Y-150079924D01*
X55634872Y-150000000D01*
X55627000Y-149920075D01*
X55627000Y-149068798D01*
X55741600Y-148929157D01*
X55846250Y-148733371D01*
X55910693Y-148520931D01*
X55932453Y-148300000D01*
X55932453Y-146700000D01*
X55910693Y-146479069D01*
X55846250Y-146266629D01*
X55741600Y-146070843D01*
X55600765Y-145899235D01*
X55429157Y-145758400D01*
X55233371Y-145653750D01*
X55020931Y-145589307D01*
X54800000Y-145567547D01*
X53200000Y-145567547D01*
X52979069Y-145589307D01*
X52766629Y-145653750D01*
X52570843Y-145758400D01*
X52399235Y-145899235D01*
X52258400Y-146070843D01*
X52153750Y-146266629D01*
X52089307Y-146479069D01*
X52067547Y-146700000D01*
X52067547Y-148300000D01*
X52089307Y-148520931D01*
X52153750Y-148733371D01*
X52228383Y-148873000D01*
X48829914Y-148873000D01*
X48749999Y-148865129D01*
X48670085Y-148873000D01*
X48670075Y-148873000D01*
X48431052Y-148896542D01*
X48124362Y-148989575D01*
X47841714Y-149140654D01*
X47593971Y-149343971D01*
X47543022Y-149406053D01*
X46906050Y-150043025D01*
X46843972Y-150093971D01*
X46793026Y-150156049D01*
X46793022Y-150156053D01*
X46640654Y-150341715D01*
X46489576Y-150624362D01*
X46403450Y-150908285D01*
X46396543Y-150931053D01*
X46365129Y-151250000D01*
X46373001Y-151329924D01*
X46373000Y-152941681D01*
X46330451Y-152954588D01*
X46307450Y-152964116D01*
X46134563Y-153056526D01*
X46113862Y-153070358D01*
X45962325Y-153194721D01*
X45944721Y-153212325D01*
X45820358Y-153363862D01*
X45806526Y-153384563D01*
X45714116Y-153557450D01*
X45704588Y-153580451D01*
X45647683Y-153768044D01*
X45642827Y-153792462D01*
X45623612Y-153987552D01*
X45623000Y-154000000D01*
X43612668Y-154000000D01*
X43637291Y-153750000D01*
X43596224Y-153333035D01*
X43474599Y-152932094D01*
X43277093Y-152562585D01*
X43011293Y-152238707D01*
X42687415Y-151972907D01*
X42317906Y-151775401D01*
X41916965Y-151653776D01*
X41604487Y-151623000D01*
X37877000Y-151623000D01*
X37877000Y-145655513D01*
X37846224Y-145343035D01*
X37724599Y-144942094D01*
X37527093Y-144572585D01*
X37261293Y-144248707D01*
X36937415Y-143982907D01*
X36567906Y-143785401D01*
X36166965Y-143663776D01*
X35750000Y-143622709D01*
X35333036Y-143663776D01*
X34932095Y-143785401D01*
X34562586Y-143982907D01*
X34238708Y-144248707D01*
X33972908Y-144572585D01*
X33775402Y-144942094D01*
X33653777Y-145343035D01*
X33623001Y-145655513D01*
X33623001Y-153275509D01*
X33612709Y-153380000D01*
X26177000Y-153380000D01*
X26177000Y-124000000D01*
X30123000Y-124000000D01*
X30123000Y-139750000D01*
X30123612Y-139762448D01*
X30142827Y-139957538D01*
X30147683Y-139981956D01*
X30204588Y-140169549D01*
X30214116Y-140192550D01*
X30306526Y-140365437D01*
X30320358Y-140386138D01*
X30444721Y-140537675D01*
X30462325Y-140555279D01*
X30613862Y-140679642D01*
X30634563Y-140693474D01*
X30807450Y-140785884D01*
X30830451Y-140795412D01*
X31018044Y-140852317D01*
X31042462Y-140857173D01*
X31237552Y-140876388D01*
X31250000Y-140877000D01*
X38250000Y-140877000D01*
X38262448Y-140876388D01*
X38457538Y-140857173D01*
X38481956Y-140852317D01*
X38669549Y-140795412D01*
X38692550Y-140785884D01*
X38865437Y-140693474D01*
X38886138Y-140679642D01*
X39037675Y-140555279D01*
X39055279Y-140537675D01*
X39179642Y-140386138D01*
X39193474Y-140365437D01*
X39285884Y-140192550D01*
X39295412Y-140169549D01*
X39328580Y-140060207D01*
X54573000Y-140060207D01*
X54573000Y-140439793D01*
X54647053Y-140812085D01*
X54792315Y-141162777D01*
X55003201Y-141478391D01*
X55271609Y-141746799D01*
X55587223Y-141957685D01*
X55937915Y-142102947D01*
X56310207Y-142177000D01*
X56689793Y-142177000D01*
X57062085Y-142102947D01*
X57412777Y-141957685D01*
X57728391Y-141746799D01*
X57996799Y-141478391D01*
X58207685Y-141162777D01*
X58352947Y-140812085D01*
X58427000Y-140439793D01*
X58427000Y-140060207D01*
X58352947Y-139687915D01*
X58207685Y-139337223D01*
X57996799Y-139021609D01*
X57728391Y-138753201D01*
X57412777Y-138542315D01*
X57062085Y-138397053D01*
X56689793Y-138323000D01*
X56310207Y-138323000D01*
X55937915Y-138397053D01*
X55587223Y-138542315D01*
X55271609Y-138753201D01*
X55003201Y-139021609D01*
X54792315Y-139337223D01*
X54647053Y-139687915D01*
X54573000Y-140060207D01*
X39328580Y-140060207D01*
X39352317Y-139981956D01*
X39357173Y-139957538D01*
X39376388Y-139762448D01*
X39377000Y-139750000D01*
X39377000Y-134810207D01*
X41573000Y-134810207D01*
X41573000Y-135189793D01*
X41647053Y-135562085D01*
X41792315Y-135912777D01*
X42003201Y-136228391D01*
X42271609Y-136496799D01*
X42587223Y-136707685D01*
X42937915Y-136852947D01*
X43310207Y-136927000D01*
X43689793Y-136927000D01*
X44062085Y-136852947D01*
X44412777Y-136707685D01*
X44728391Y-136496799D01*
X44996799Y-136228391D01*
X45207685Y-135912777D01*
X45352947Y-135562085D01*
X45427000Y-135189793D01*
X45427000Y-134810207D01*
X45352947Y-134437915D01*
X45207685Y-134087223D01*
X44996799Y-133771609D01*
X44728391Y-133503201D01*
X44412777Y-133292315D01*
X44062085Y-133147053D01*
X43689793Y-133073000D01*
X43310207Y-133073000D01*
X42937915Y-133147053D01*
X42587223Y-133292315D01*
X42271609Y-133503201D01*
X42003201Y-133771609D01*
X41792315Y-134087223D01*
X41647053Y-134437915D01*
X41573000Y-134810207D01*
X39377000Y-134810207D01*
X39377000Y-133000000D01*
X48373000Y-133000000D01*
X48373000Y-135500000D01*
X48373612Y-135512448D01*
X48392827Y-135707538D01*
X48397683Y-135731956D01*
X48454588Y-135919549D01*
X48464116Y-135942550D01*
X48556526Y-136115437D01*
X48570358Y-136136138D01*
X48694721Y-136287675D01*
X48712325Y-136305279D01*
X48863862Y-136429642D01*
X48884563Y-136443474D01*
X49057450Y-136535884D01*
X49080451Y-136545412D01*
X49268044Y-136602317D01*
X49292462Y-136607173D01*
X49487552Y-136626388D01*
X49500000Y-136627000D01*
X57750000Y-136627000D01*
X57762448Y-136626388D01*
X57957538Y-136607173D01*
X57981956Y-136602317D01*
X58169549Y-136545412D01*
X58192550Y-136535884D01*
X58365437Y-136443474D01*
X58386138Y-136429642D01*
X58537675Y-136305279D01*
X58555279Y-136287675D01*
X58679642Y-136136138D01*
X58693474Y-136115437D01*
X58785884Y-135942550D01*
X58795412Y-135919549D01*
X58852317Y-135731956D01*
X58857173Y-135707538D01*
X58871684Y-135560207D01*
X61323000Y-135560207D01*
X61323000Y-135939793D01*
X61397053Y-136312085D01*
X61542315Y-136662777D01*
X61753201Y-136978391D01*
X62021609Y-137246799D01*
X62337223Y-137457685D01*
X62687915Y-137602947D01*
X63060207Y-137677000D01*
X63439793Y-137677000D01*
X63812085Y-137602947D01*
X64162777Y-137457685D01*
X64478391Y-137246799D01*
X64746799Y-136978391D01*
X64957685Y-136662777D01*
X65102947Y-136312085D01*
X65177000Y-135939793D01*
X65177000Y-135560207D01*
X65102947Y-135187915D01*
X64957685Y-134837223D01*
X64746799Y-134521609D01*
X64478391Y-134253201D01*
X64162777Y-134042315D01*
X63812085Y-133897053D01*
X63439793Y-133823000D01*
X63060207Y-133823000D01*
X62687915Y-133897053D01*
X62337223Y-134042315D01*
X62021609Y-134253201D01*
X61753201Y-134521609D01*
X61542315Y-134837223D01*
X61397053Y-135187915D01*
X61323000Y-135560207D01*
X58871684Y-135560207D01*
X58876388Y-135512448D01*
X58877000Y-135500000D01*
X58877000Y-133000000D01*
X58876388Y-132987552D01*
X58857173Y-132792462D01*
X58852317Y-132768044D01*
X58795412Y-132580451D01*
X58785884Y-132557450D01*
X58693474Y-132384563D01*
X58679642Y-132363862D01*
X58555279Y-132212325D01*
X58537675Y-132194721D01*
X58386138Y-132070358D01*
X58365437Y-132056526D01*
X58192550Y-131964116D01*
X58169549Y-131954588D01*
X57981956Y-131897683D01*
X57957538Y-131892827D01*
X57762448Y-131873612D01*
X57750000Y-131873000D01*
X49500000Y-131873000D01*
X49487552Y-131873612D01*
X49292462Y-131892827D01*
X49268044Y-131897683D01*
X49080451Y-131954588D01*
X49057450Y-131964116D01*
X48884563Y-132056526D01*
X48863862Y-132070358D01*
X48712325Y-132194721D01*
X48694721Y-132212325D01*
X48570358Y-132363862D01*
X48556526Y-132384563D01*
X48464116Y-132557450D01*
X48454588Y-132580451D01*
X48397683Y-132768044D01*
X48392827Y-132792462D01*
X48373612Y-132987552D01*
X48373000Y-133000000D01*
X39377000Y-133000000D01*
X39377000Y-124000000D01*
X39376388Y-123987552D01*
X39357173Y-123792462D01*
X39352317Y-123768044D01*
X39295412Y-123580451D01*
X39285884Y-123557450D01*
X39193474Y-123384563D01*
X39179642Y-123363862D01*
X39055279Y-123212325D01*
X39037675Y-123194721D01*
X38886138Y-123070358D01*
X38865437Y-123056526D01*
X38692550Y-122964116D01*
X38669549Y-122954588D01*
X38481956Y-122897683D01*
X38457538Y-122892827D01*
X38262448Y-122873612D01*
X38250000Y-122873000D01*
X31250000Y-122873000D01*
X31237552Y-122873612D01*
X31042462Y-122892827D01*
X31018044Y-122897683D01*
X30830451Y-122954588D01*
X30807450Y-122964116D01*
X30634563Y-123056526D01*
X30613862Y-123070358D01*
X30462325Y-123194721D01*
X30444721Y-123212325D01*
X30320358Y-123363862D01*
X30306526Y-123384563D01*
X30214116Y-123557450D01*
X30204588Y-123580451D01*
X30147683Y-123768044D01*
X30142827Y-123792462D01*
X30123612Y-123987552D01*
X30123000Y-124000000D01*
X26177000Y-124000000D01*
X26177000Y-118750260D01*
X44997807Y-118750260D01*
X44997807Y-124749740D01*
X45019567Y-124970671D01*
X45084010Y-125183111D01*
X45188660Y-125378897D01*
X45329495Y-125550505D01*
X45501103Y-125691340D01*
X45696889Y-125795990D01*
X45909329Y-125860433D01*
X46130260Y-125882193D01*
X52129740Y-125882193D01*
X52350671Y-125860433D01*
X52563111Y-125795990D01*
X52758897Y-125691340D01*
X52930505Y-125550505D01*
X53071340Y-125378897D01*
X53175990Y-125183111D01*
X53240433Y-124970671D01*
X53262193Y-124749740D01*
X53262193Y-118750260D01*
X53240433Y-118529329D01*
X53175990Y-118316889D01*
X53071340Y-118121103D01*
X52930505Y-117949495D01*
X52758897Y-117808660D01*
X52563111Y-117704010D01*
X52350671Y-117639567D01*
X52129740Y-117617807D01*
X46130260Y-117617807D01*
X45909329Y-117639567D01*
X45696889Y-117704010D01*
X45501103Y-117808660D01*
X45329495Y-117949495D01*
X45188660Y-118121103D01*
X45084010Y-118316889D01*
X45019567Y-118529329D01*
X44997807Y-118750260D01*
X26177000Y-118750260D01*
X26177000Y-117427000D01*
X75573000Y-117427000D01*
X75573001Y-168229606D01*
G37*
X75573001Y-168229606D02*
X75481756Y-168093049D01*
X74906951Y-167518244D01*
X74231052Y-167066623D01*
X73480033Y-166755541D01*
X72682755Y-166596953D01*
X71869859Y-166596953D01*
X71072581Y-166755541D01*
X70321562Y-167066623D01*
X69645663Y-167518244D01*
X69070858Y-168093049D01*
X68619237Y-168768948D01*
X68308155Y-169519967D01*
X68149567Y-170317245D01*
X68149567Y-171130141D01*
X68308155Y-171927419D01*
X68461084Y-172296623D01*
X68091880Y-172143694D01*
X67294602Y-171985106D01*
X66481706Y-171985106D01*
X65684428Y-172143694D01*
X64933409Y-172454776D01*
X64257510Y-172906397D01*
X63682705Y-173481202D01*
X63231084Y-174157101D01*
X62920002Y-174908120D01*
X62761414Y-175705398D01*
X62761414Y-176518294D01*
X62860565Y-177016762D01*
X62300765Y-176456962D01*
X62129157Y-176316127D01*
X61933371Y-176211477D01*
X61720931Y-176147034D01*
X61500000Y-176125274D01*
X61279069Y-176147034D01*
X61066629Y-176211477D01*
X60870843Y-176316127D01*
X60699235Y-176456962D01*
X56456962Y-180699235D01*
X56316127Y-180870843D01*
X56211477Y-181066629D01*
X56147034Y-181279069D01*
X56125274Y-181500000D01*
X56147034Y-181720931D01*
X56211477Y-181933371D01*
X56316127Y-182129157D01*
X56456962Y-182300765D01*
X58779197Y-184623000D01*
X36884143Y-184623000D01*
X36884143Y-181218000D01*
X26177000Y-181218000D01*
X26177000Y-180310207D01*
X40573000Y-180310207D01*
X40573000Y-180689793D01*
X40647053Y-181062085D01*
X40792315Y-181412777D01*
X41003201Y-181728391D01*
X41271609Y-181996799D01*
X41587223Y-182207685D01*
X41937915Y-182352947D01*
X42310207Y-182427000D01*
X42689793Y-182427000D01*
X43062085Y-182352947D01*
X43412777Y-182207685D01*
X43728391Y-181996799D01*
X43996799Y-181728391D01*
X44207685Y-181412777D01*
X44352947Y-181062085D01*
X44427000Y-180689793D01*
X44427000Y-180310207D01*
X50733000Y-180310207D01*
X50733000Y-180689793D01*
X50807053Y-181062085D01*
X50952315Y-181412777D01*
X51163201Y-181728391D01*
X51431609Y-181996799D01*
X51747223Y-182207685D01*
X52097915Y-182352947D01*
X52470207Y-182427000D01*
X52849793Y-182427000D01*
X53222085Y-182352947D01*
X53572777Y-182207685D01*
X53888391Y-181996799D01*
X54156799Y-181728391D01*
X54367685Y-181412777D01*
X54512947Y-181062085D01*
X54587000Y-180689793D01*
X54587000Y-180310207D01*
X54512947Y-179937915D01*
X54367685Y-179587223D01*
X54156799Y-179271609D01*
X53888391Y-179003201D01*
X53572777Y-178792315D01*
X53222085Y-178647053D01*
X52849793Y-178573000D01*
X52470207Y-178573000D01*
X52097915Y-178647053D01*
X51747223Y-178792315D01*
X51431609Y-179003201D01*
X51163201Y-179271609D01*
X50952315Y-179587223D01*
X50807053Y-179937915D01*
X50733000Y-180310207D01*
X44427000Y-180310207D01*
X44352947Y-179937915D01*
X44207685Y-179587223D01*
X43996799Y-179271609D01*
X43728391Y-179003201D01*
X43412777Y-178792315D01*
X43062085Y-178647053D01*
X42689793Y-178573000D01*
X42310207Y-178573000D01*
X41937915Y-178647053D01*
X41587223Y-178792315D01*
X41271609Y-179003201D01*
X41003201Y-179271609D01*
X40792315Y-179587223D01*
X40647053Y-179937915D01*
X40573000Y-180310207D01*
X26177000Y-180310207D01*
X26177000Y-174700000D01*
X40567547Y-174700000D01*
X40567547Y-176300000D01*
X40589307Y-176520931D01*
X40653750Y-176733371D01*
X40758400Y-176929157D01*
X40899235Y-177100765D01*
X41070843Y-177241600D01*
X41266629Y-177346250D01*
X41479069Y-177410693D01*
X41700000Y-177432453D01*
X43300000Y-177432453D01*
X43520931Y-177410693D01*
X43733371Y-177346250D01*
X43929157Y-177241600D01*
X44100765Y-177100765D01*
X44241600Y-176929157D01*
X44346250Y-176733371D01*
X44410693Y-176520931D01*
X44432453Y-176300000D01*
X44432453Y-174700000D01*
X44410693Y-174479069D01*
X44346250Y-174266629D01*
X44241600Y-174070843D01*
X44100765Y-173899235D01*
X43929157Y-173758400D01*
X43733371Y-173653750D01*
X43520931Y-173589307D01*
X43300000Y-173567547D01*
X41700000Y-173567547D01*
X41479069Y-173589307D01*
X41266629Y-173653750D01*
X41070843Y-173758400D01*
X40899235Y-173899235D01*
X40758400Y-174070843D01*
X40653750Y-174266629D01*
X40589307Y-174479069D01*
X40567547Y-174700000D01*
X26177000Y-174700000D01*
X26177000Y-153380000D01*
X33612709Y-153380000D01*
X33623001Y-153484491D01*
X33623000Y-163644486D01*
X33653776Y-163956964D01*
X33767547Y-164332014D01*
X33767547Y-164390000D01*
X33789307Y-164610931D01*
X33853750Y-164823371D01*
X33958400Y-165019157D01*
X34099235Y-165190765D01*
X34270843Y-165331600D01*
X34466629Y-165436250D01*
X34679069Y-165500693D01*
X34900000Y-165522453D01*
X34957985Y-165522453D01*
X35333035Y-165636224D01*
X35750000Y-165677291D01*
X36166964Y-165636224D01*
X36542014Y-165522453D01*
X36600000Y-165522453D01*
X36820931Y-165500693D01*
X37033371Y-165436250D01*
X37229157Y-165331600D01*
X37400765Y-165190765D01*
X37541600Y-165019157D01*
X37646250Y-164823371D01*
X37710693Y-164610931D01*
X37732453Y-164390000D01*
X37732453Y-164332015D01*
X37846224Y-163956965D01*
X37869542Y-163720207D01*
X39573000Y-163720207D01*
X39573000Y-164099793D01*
X39647053Y-164472085D01*
X39792315Y-164822777D01*
X40003201Y-165138391D01*
X40271609Y-165406799D01*
X40587223Y-165617685D01*
X40937915Y-165762947D01*
X41310207Y-165837000D01*
X41689793Y-165837000D01*
X42062085Y-165762947D01*
X42412777Y-165617685D01*
X42728391Y-165406799D01*
X42996799Y-165138391D01*
X43207685Y-164822777D01*
X43352947Y-164472085D01*
X43427000Y-164099793D01*
X43427000Y-163720207D01*
X43352947Y-163347915D01*
X43207685Y-162997223D01*
X42996799Y-162681609D01*
X42728391Y-162413201D01*
X42412777Y-162202315D01*
X42062085Y-162057053D01*
X41689793Y-161983000D01*
X41310207Y-161983000D01*
X40937915Y-162057053D01*
X40587223Y-162202315D01*
X40271609Y-162413201D01*
X40003201Y-162681609D01*
X39792315Y-162997223D01*
X39647053Y-163347915D01*
X39573000Y-163720207D01*
X37869542Y-163720207D01*
X37877000Y-163644487D01*
X37877000Y-155877000D01*
X41604487Y-155877000D01*
X41916965Y-155846224D01*
X42317906Y-155724599D01*
X42687415Y-155527093D01*
X43011293Y-155261293D01*
X43277093Y-154937415D01*
X43474599Y-154567906D01*
X43596224Y-154166965D01*
X43612668Y-154000000D01*
X45623000Y-154000000D01*
X45623000Y-160500000D01*
X45623612Y-160512448D01*
X45642827Y-160707538D01*
X45647683Y-160731956D01*
X45704588Y-160919549D01*
X45714116Y-160942550D01*
X45806526Y-161115437D01*
X45820358Y-161136138D01*
X45944721Y-161287675D01*
X45962325Y-161305279D01*
X46113862Y-161429642D01*
X46134563Y-161443474D01*
X46307450Y-161535884D01*
X46330451Y-161545412D01*
X46518044Y-161602317D01*
X46542462Y-161607173D01*
X46737552Y-161626388D01*
X46750000Y-161627000D01*
X48493766Y-161627000D01*
X48670189Y-161644376D01*
X48833850Y-161694022D01*
X48913001Y-161736329D01*
X48913001Y-161806052D01*
X48751071Y-162109002D01*
X48640883Y-162472243D01*
X48613000Y-162755343D01*
X48613000Y-163744658D01*
X48640883Y-164027758D01*
X48751071Y-164390999D01*
X48929273Y-164724391D01*
X48929272Y-168190258D01*
X48848587Y-168311012D01*
X48703325Y-168661704D01*
X48629272Y-169033996D01*
X48629272Y-169413582D01*
X48703325Y-169785874D01*
X48848587Y-170136566D01*
X49059473Y-170452180D01*
X49327881Y-170720588D01*
X49643495Y-170931474D01*
X49994187Y-171076736D01*
X50366479Y-171150789D01*
X50746065Y-171150789D01*
X51118357Y-171076736D01*
X51469049Y-170931474D01*
X51784663Y-170720588D01*
X52053071Y-170452180D01*
X52263957Y-170136566D01*
X52409219Y-169785874D01*
X52483272Y-169413582D01*
X52483272Y-169033996D01*
X52409219Y-168661704D01*
X52263957Y-168311012D01*
X52183272Y-168190258D01*
X52183272Y-166484197D01*
X54123000Y-168423926D01*
X54123001Y-171826073D01*
X52076075Y-173873000D01*
X51153531Y-173873000D01*
X51032777Y-173792315D01*
X50682085Y-173647053D01*
X50309793Y-173573000D01*
X49930207Y-173573000D01*
X49557915Y-173647053D01*
X49207223Y-173792315D01*
X48891609Y-174003201D01*
X48623201Y-174271609D01*
X48412315Y-174587223D01*
X48267053Y-174937915D01*
X48193000Y-175310207D01*
X48193000Y-175689793D01*
X48267053Y-176062085D01*
X48412315Y-176412777D01*
X48623201Y-176728391D01*
X48891609Y-176996799D01*
X49207223Y-177207685D01*
X49557915Y-177352947D01*
X49930207Y-177427000D01*
X50309793Y-177427000D01*
X50682085Y-177352947D01*
X51032777Y-177207685D01*
X51153531Y-177127000D01*
X52670086Y-177127000D01*
X52750000Y-177134871D01*
X52829914Y-177127000D01*
X52829925Y-177127000D01*
X53068948Y-177103458D01*
X53375638Y-177010425D01*
X53658286Y-176859346D01*
X53906029Y-176656029D01*
X53956979Y-176593946D01*
X56843951Y-173706975D01*
X56906029Y-173656029D01*
X56956975Y-173593951D01*
X56956978Y-173593948D01*
X57109346Y-173408286D01*
X57260424Y-173125639D01*
X57260425Y-173125638D01*
X57353458Y-172818948D01*
X57377000Y-172579925D01*
X57384872Y-172500000D01*
X57377000Y-172420075D01*
X57377000Y-167829914D01*
X57384871Y-167749999D01*
X57377000Y-167670085D01*
X57377000Y-167670075D01*
X57353458Y-167431052D01*
X57260425Y-167124362D01*
X57109346Y-166841714D01*
X56979469Y-166683458D01*
X56956978Y-166656052D01*
X56956975Y-166656049D01*
X56906029Y-166593971D01*
X56843952Y-166543026D01*
X56361133Y-166060207D01*
X62573000Y-166060207D01*
X62573000Y-166439793D01*
X62647053Y-166812085D01*
X62792315Y-167162777D01*
X63003201Y-167478391D01*
X63271609Y-167746799D01*
X63587223Y-167957685D01*
X63937915Y-168102947D01*
X64310207Y-168177000D01*
X64689793Y-168177000D01*
X65062085Y-168102947D01*
X65412777Y-167957685D01*
X65728391Y-167746799D01*
X65996799Y-167478391D01*
X66207685Y-167162777D01*
X66352947Y-166812085D01*
X66427000Y-166439793D01*
X66427000Y-166060207D01*
X66352947Y-165687915D01*
X66207685Y-165337223D01*
X65996799Y-165021609D01*
X65728391Y-164753201D01*
X65412777Y-164542315D01*
X65062085Y-164397053D01*
X64689793Y-164323000D01*
X64310207Y-164323000D01*
X63937915Y-164397053D01*
X63587223Y-164542315D01*
X63271609Y-164753201D01*
X63003201Y-165021609D01*
X62792315Y-165337223D01*
X62647053Y-165687915D01*
X62573000Y-166060207D01*
X56361133Y-166060207D01*
X55927926Y-165627000D01*
X56000000Y-165627000D01*
X56012448Y-165626388D01*
X56207538Y-165607173D01*
X56231956Y-165602317D01*
X56419549Y-165545412D01*
X56442550Y-165535884D01*
X56615437Y-165443474D01*
X56636138Y-165429642D01*
X56787675Y-165305279D01*
X56805279Y-165287675D01*
X56891726Y-165182338D01*
X57028285Y-165109346D01*
X57276029Y-164906029D01*
X57299852Y-164877000D01*
X60670086Y-164877000D01*
X60750000Y-164884871D01*
X60829914Y-164877000D01*
X60829925Y-164877000D01*
X61068948Y-164853458D01*
X61375638Y-164760425D01*
X61658286Y-164609346D01*
X61906029Y-164406029D01*
X61956979Y-164343946D01*
X62673926Y-163627000D01*
X67868967Y-163627000D01*
X67894116Y-163652149D01*
X68242488Y-163884923D01*
X68629577Y-164045261D01*
X69040509Y-164127000D01*
X69459491Y-164127000D01*
X69870423Y-164045261D01*
X70257512Y-163884923D01*
X70605884Y-163652149D01*
X70902149Y-163355884D01*
X71134923Y-163007512D01*
X71295261Y-162620423D01*
X71377000Y-162209491D01*
X71377000Y-161790509D01*
X71295261Y-161379577D01*
X71134923Y-160992488D01*
X70902149Y-160644116D01*
X70605884Y-160347851D01*
X70257512Y-160115077D01*
X69870423Y-159954739D01*
X69459491Y-159873000D01*
X69040509Y-159873000D01*
X68629577Y-159954739D01*
X68242488Y-160115077D01*
X67894116Y-160347851D01*
X67868967Y-160373000D01*
X62079914Y-160373000D01*
X62000000Y-160365129D01*
X61920085Y-160373000D01*
X61920075Y-160373000D01*
X61681052Y-160396542D01*
X61374362Y-160489575D01*
X61091714Y-160640654D01*
X60906052Y-160793022D01*
X60906049Y-160793025D01*
X60843971Y-160843971D01*
X60793025Y-160906049D01*
X60076075Y-161623000D01*
X57538712Y-161623000D01*
X57645987Y-161608877D01*
X57678011Y-161600296D01*
X57798601Y-161550346D01*
X57827313Y-161533768D01*
X57930866Y-161454308D01*
X57954308Y-161430866D01*
X58033768Y-161327313D01*
X58050346Y-161298601D01*
X58100296Y-161178011D01*
X58108877Y-161145987D01*
X58125914Y-161016577D01*
X58127000Y-161000000D01*
X58127000Y-154127000D01*
X60236075Y-154127000D01*
X62618720Y-156509646D01*
X62647053Y-156652085D01*
X62792315Y-157002777D01*
X63003201Y-157318391D01*
X63271609Y-157586799D01*
X63587223Y-157797685D01*
X63937915Y-157942947D01*
X64310207Y-158017000D01*
X64689793Y-158017000D01*
X65062085Y-157942947D01*
X65412777Y-157797685D01*
X65728391Y-157586799D01*
X65996799Y-157318391D01*
X66207685Y-157002777D01*
X66352947Y-156652085D01*
X66427000Y-156279793D01*
X66427000Y-155900207D01*
X66352947Y-155527915D01*
X66207685Y-155177223D01*
X65996799Y-154861609D01*
X65728391Y-154593201D01*
X65412777Y-154382315D01*
X65062085Y-154237053D01*
X64919646Y-154208720D01*
X62116979Y-151406054D01*
X62066029Y-151343971D01*
X61818286Y-151140654D01*
X61535638Y-150989575D01*
X61228948Y-150896542D01*
X60989925Y-150873000D01*
X60989914Y-150873000D01*
X60910000Y-150865129D01*
X60830086Y-150873000D01*
X55378207Y-150873000D01*
X55510425Y-150625638D01*
X55603458Y-150318948D01*
X55627000Y-150079925D01*
X55627000Y-150079924D01*
X55634872Y-150000000D01*
X55627000Y-149920075D01*
X55627000Y-149068798D01*
X55741600Y-148929157D01*
X55846250Y-148733371D01*
X55910693Y-148520931D01*
X55932453Y-148300000D01*
X55932453Y-146700000D01*
X55910693Y-146479069D01*
X55846250Y-146266629D01*
X55741600Y-146070843D01*
X55600765Y-145899235D01*
X55429157Y-145758400D01*
X55233371Y-145653750D01*
X55020931Y-145589307D01*
X54800000Y-145567547D01*
X53200000Y-145567547D01*
X52979069Y-145589307D01*
X52766629Y-145653750D01*
X52570843Y-145758400D01*
X52399235Y-145899235D01*
X52258400Y-146070843D01*
X52153750Y-146266629D01*
X52089307Y-146479069D01*
X52067547Y-146700000D01*
X52067547Y-148300000D01*
X52089307Y-148520931D01*
X52153750Y-148733371D01*
X52228383Y-148873000D01*
X48829914Y-148873000D01*
X48749999Y-148865129D01*
X48670085Y-148873000D01*
X48670075Y-148873000D01*
X48431052Y-148896542D01*
X48124362Y-148989575D01*
X47841714Y-149140654D01*
X47593971Y-149343971D01*
X47543022Y-149406053D01*
X46906050Y-150043025D01*
X46843972Y-150093971D01*
X46793026Y-150156049D01*
X46793022Y-150156053D01*
X46640654Y-150341715D01*
X46489576Y-150624362D01*
X46403450Y-150908285D01*
X46396543Y-150931053D01*
X46365129Y-151250000D01*
X46373001Y-151329924D01*
X46373000Y-152941681D01*
X46330451Y-152954588D01*
X46307450Y-152964116D01*
X46134563Y-153056526D01*
X46113862Y-153070358D01*
X45962325Y-153194721D01*
X45944721Y-153212325D01*
X45820358Y-153363862D01*
X45806526Y-153384563D01*
X45714116Y-153557450D01*
X45704588Y-153580451D01*
X45647683Y-153768044D01*
X45642827Y-153792462D01*
X45623612Y-153987552D01*
X45623000Y-154000000D01*
X43612668Y-154000000D01*
X43637291Y-153750000D01*
X43596224Y-153333035D01*
X43474599Y-152932094D01*
X43277093Y-152562585D01*
X43011293Y-152238707D01*
X42687415Y-151972907D01*
X42317906Y-151775401D01*
X41916965Y-151653776D01*
X41604487Y-151623000D01*
X37877000Y-151623000D01*
X37877000Y-145655513D01*
X37846224Y-145343035D01*
X37724599Y-144942094D01*
X37527093Y-144572585D01*
X37261293Y-144248707D01*
X36937415Y-143982907D01*
X36567906Y-143785401D01*
X36166965Y-143663776D01*
X35750000Y-143622709D01*
X35333036Y-143663776D01*
X34932095Y-143785401D01*
X34562586Y-143982907D01*
X34238708Y-144248707D01*
X33972908Y-144572585D01*
X33775402Y-144942094D01*
X33653777Y-145343035D01*
X33623001Y-145655513D01*
X33623001Y-153275509D01*
X33612709Y-153380000D01*
X26177000Y-153380000D01*
X26177000Y-124000000D01*
X30123000Y-124000000D01*
X30123000Y-139750000D01*
X30123612Y-139762448D01*
X30142827Y-139957538D01*
X30147683Y-139981956D01*
X30204588Y-140169549D01*
X30214116Y-140192550D01*
X30306526Y-140365437D01*
X30320358Y-140386138D01*
X30444721Y-140537675D01*
X30462325Y-140555279D01*
X30613862Y-140679642D01*
X30634563Y-140693474D01*
X30807450Y-140785884D01*
X30830451Y-140795412D01*
X31018044Y-140852317D01*
X31042462Y-140857173D01*
X31237552Y-140876388D01*
X31250000Y-140877000D01*
X38250000Y-140877000D01*
X38262448Y-140876388D01*
X38457538Y-140857173D01*
X38481956Y-140852317D01*
X38669549Y-140795412D01*
X38692550Y-140785884D01*
X38865437Y-140693474D01*
X38886138Y-140679642D01*
X39037675Y-140555279D01*
X39055279Y-140537675D01*
X39179642Y-140386138D01*
X39193474Y-140365437D01*
X39285884Y-140192550D01*
X39295412Y-140169549D01*
X39328580Y-140060207D01*
X54573000Y-140060207D01*
X54573000Y-140439793D01*
X54647053Y-140812085D01*
X54792315Y-141162777D01*
X55003201Y-141478391D01*
X55271609Y-141746799D01*
X55587223Y-141957685D01*
X55937915Y-142102947D01*
X56310207Y-142177000D01*
X56689793Y-142177000D01*
X57062085Y-142102947D01*
X57412777Y-141957685D01*
X57728391Y-141746799D01*
X57996799Y-141478391D01*
X58207685Y-141162777D01*
X58352947Y-140812085D01*
X58427000Y-140439793D01*
X58427000Y-140060207D01*
X58352947Y-139687915D01*
X58207685Y-139337223D01*
X57996799Y-139021609D01*
X57728391Y-138753201D01*
X57412777Y-138542315D01*
X57062085Y-138397053D01*
X56689793Y-138323000D01*
X56310207Y-138323000D01*
X55937915Y-138397053D01*
X55587223Y-138542315D01*
X55271609Y-138753201D01*
X55003201Y-139021609D01*
X54792315Y-139337223D01*
X54647053Y-139687915D01*
X54573000Y-140060207D01*
X39328580Y-140060207D01*
X39352317Y-139981956D01*
X39357173Y-139957538D01*
X39376388Y-139762448D01*
X39377000Y-139750000D01*
X39377000Y-134810207D01*
X41573000Y-134810207D01*
X41573000Y-135189793D01*
X41647053Y-135562085D01*
X41792315Y-135912777D01*
X42003201Y-136228391D01*
X42271609Y-136496799D01*
X42587223Y-136707685D01*
X42937915Y-136852947D01*
X43310207Y-136927000D01*
X43689793Y-136927000D01*
X44062085Y-136852947D01*
X44412777Y-136707685D01*
X44728391Y-136496799D01*
X44996799Y-136228391D01*
X45207685Y-135912777D01*
X45352947Y-135562085D01*
X45427000Y-135189793D01*
X45427000Y-134810207D01*
X45352947Y-134437915D01*
X45207685Y-134087223D01*
X44996799Y-133771609D01*
X44728391Y-133503201D01*
X44412777Y-133292315D01*
X44062085Y-133147053D01*
X43689793Y-133073000D01*
X43310207Y-133073000D01*
X42937915Y-133147053D01*
X42587223Y-133292315D01*
X42271609Y-133503201D01*
X42003201Y-133771609D01*
X41792315Y-134087223D01*
X41647053Y-134437915D01*
X41573000Y-134810207D01*
X39377000Y-134810207D01*
X39377000Y-133000000D01*
X48373000Y-133000000D01*
X48373000Y-135500000D01*
X48373612Y-135512448D01*
X48392827Y-135707538D01*
X48397683Y-135731956D01*
X48454588Y-135919549D01*
X48464116Y-135942550D01*
X48556526Y-136115437D01*
X48570358Y-136136138D01*
X48694721Y-136287675D01*
X48712325Y-136305279D01*
X48863862Y-136429642D01*
X48884563Y-136443474D01*
X49057450Y-136535884D01*
X49080451Y-136545412D01*
X49268044Y-136602317D01*
X49292462Y-136607173D01*
X49487552Y-136626388D01*
X49500000Y-136627000D01*
X57750000Y-136627000D01*
X57762448Y-136626388D01*
X57957538Y-136607173D01*
X57981956Y-136602317D01*
X58169549Y-136545412D01*
X58192550Y-136535884D01*
X58365437Y-136443474D01*
X58386138Y-136429642D01*
X58537675Y-136305279D01*
X58555279Y-136287675D01*
X58679642Y-136136138D01*
X58693474Y-136115437D01*
X58785884Y-135942550D01*
X58795412Y-135919549D01*
X58852317Y-135731956D01*
X58857173Y-135707538D01*
X58871684Y-135560207D01*
X61323000Y-135560207D01*
X61323000Y-135939793D01*
X61397053Y-136312085D01*
X61542315Y-136662777D01*
X61753201Y-136978391D01*
X62021609Y-137246799D01*
X62337223Y-137457685D01*
X62687915Y-137602947D01*
X63060207Y-137677000D01*
X63439793Y-137677000D01*
X63812085Y-137602947D01*
X64162777Y-137457685D01*
X64478391Y-137246799D01*
X64746799Y-136978391D01*
X64957685Y-136662777D01*
X65102947Y-136312085D01*
X65177000Y-135939793D01*
X65177000Y-135560207D01*
X65102947Y-135187915D01*
X64957685Y-134837223D01*
X64746799Y-134521609D01*
X64478391Y-134253201D01*
X64162777Y-134042315D01*
X63812085Y-133897053D01*
X63439793Y-133823000D01*
X63060207Y-133823000D01*
X62687915Y-133897053D01*
X62337223Y-134042315D01*
X62021609Y-134253201D01*
X61753201Y-134521609D01*
X61542315Y-134837223D01*
X61397053Y-135187915D01*
X61323000Y-135560207D01*
X58871684Y-135560207D01*
X58876388Y-135512448D01*
X58877000Y-135500000D01*
X58877000Y-133000000D01*
X58876388Y-132987552D01*
X58857173Y-132792462D01*
X58852317Y-132768044D01*
X58795412Y-132580451D01*
X58785884Y-132557450D01*
X58693474Y-132384563D01*
X58679642Y-132363862D01*
X58555279Y-132212325D01*
X58537675Y-132194721D01*
X58386138Y-132070358D01*
X58365437Y-132056526D01*
X58192550Y-131964116D01*
X58169549Y-131954588D01*
X57981956Y-131897683D01*
X57957538Y-131892827D01*
X57762448Y-131873612D01*
X57750000Y-131873000D01*
X49500000Y-131873000D01*
X49487552Y-131873612D01*
X49292462Y-131892827D01*
X49268044Y-131897683D01*
X49080451Y-131954588D01*
X49057450Y-131964116D01*
X48884563Y-132056526D01*
X48863862Y-132070358D01*
X48712325Y-132194721D01*
X48694721Y-132212325D01*
X48570358Y-132363862D01*
X48556526Y-132384563D01*
X48464116Y-132557450D01*
X48454588Y-132580451D01*
X48397683Y-132768044D01*
X48392827Y-132792462D01*
X48373612Y-132987552D01*
X48373000Y-133000000D01*
X39377000Y-133000000D01*
X39377000Y-124000000D01*
X39376388Y-123987552D01*
X39357173Y-123792462D01*
X39352317Y-123768044D01*
X39295412Y-123580451D01*
X39285884Y-123557450D01*
X39193474Y-123384563D01*
X39179642Y-123363862D01*
X39055279Y-123212325D01*
X39037675Y-123194721D01*
X38886138Y-123070358D01*
X38865437Y-123056526D01*
X38692550Y-122964116D01*
X38669549Y-122954588D01*
X38481956Y-122897683D01*
X38457538Y-122892827D01*
X38262448Y-122873612D01*
X38250000Y-122873000D01*
X31250000Y-122873000D01*
X31237552Y-122873612D01*
X31042462Y-122892827D01*
X31018044Y-122897683D01*
X30830451Y-122954588D01*
X30807450Y-122964116D01*
X30634563Y-123056526D01*
X30613862Y-123070358D01*
X30462325Y-123194721D01*
X30444721Y-123212325D01*
X30320358Y-123363862D01*
X30306526Y-123384563D01*
X30214116Y-123557450D01*
X30204588Y-123580451D01*
X30147683Y-123768044D01*
X30142827Y-123792462D01*
X30123612Y-123987552D01*
X30123000Y-124000000D01*
X26177000Y-124000000D01*
X26177000Y-118750260D01*
X44997807Y-118750260D01*
X44997807Y-124749740D01*
X45019567Y-124970671D01*
X45084010Y-125183111D01*
X45188660Y-125378897D01*
X45329495Y-125550505D01*
X45501103Y-125691340D01*
X45696889Y-125795990D01*
X45909329Y-125860433D01*
X46130260Y-125882193D01*
X52129740Y-125882193D01*
X52350671Y-125860433D01*
X52563111Y-125795990D01*
X52758897Y-125691340D01*
X52930505Y-125550505D01*
X53071340Y-125378897D01*
X53175990Y-125183111D01*
X53240433Y-124970671D01*
X53262193Y-124749740D01*
X53262193Y-118750260D01*
X53240433Y-118529329D01*
X53175990Y-118316889D01*
X53071340Y-118121103D01*
X52930505Y-117949495D01*
X52758897Y-117808660D01*
X52563111Y-117704010D01*
X52350671Y-117639567D01*
X52129740Y-117617807D01*
X46130260Y-117617807D01*
X45909329Y-117639567D01*
X45696889Y-117704010D01*
X45501103Y-117808660D01*
X45329495Y-117949495D01*
X45188660Y-118121103D01*
X45084010Y-118316889D01*
X45019567Y-118529329D01*
X44997807Y-118750260D01*
X26177000Y-118750260D01*
X26177000Y-117427000D01*
X75573000Y-117427000D01*
X75573001Y-168229606D01*
G36*
X44920189Y-24894376D02*
G01*
X45083850Y-24944022D01*
X45234672Y-25024638D01*
X45366870Y-25133130D01*
X45475362Y-25265328D01*
X45555978Y-25416150D01*
X45605624Y-25579811D01*
X45623000Y-25756234D01*
X45623000Y-33493766D01*
X45605624Y-33670189D01*
X45555978Y-33833850D01*
X45475362Y-33984672D01*
X45366870Y-34116870D01*
X45234672Y-34225362D01*
X45083850Y-34305978D01*
X44920189Y-34355624D01*
X44743766Y-34373000D01*
X36506234Y-34373000D01*
X36329811Y-34355624D01*
X36166150Y-34305978D01*
X36015328Y-34225362D01*
X35883130Y-34116870D01*
X35774638Y-33984672D01*
X35694022Y-33833850D01*
X35644376Y-33670189D01*
X35627000Y-33493766D01*
X35627000Y-31506234D01*
X35644376Y-31329811D01*
X35694022Y-31166150D01*
X35774638Y-31015328D01*
X35883130Y-30883130D01*
X36015328Y-30774638D01*
X36166150Y-30694022D01*
X36329811Y-30644376D01*
X36506234Y-30627000D01*
X40750000Y-30627000D01*
X40762448Y-30626388D01*
X40957538Y-30607173D01*
X40981956Y-30602317D01*
X41169549Y-30545412D01*
X41192550Y-30535884D01*
X41365437Y-30443474D01*
X41386138Y-30429642D01*
X41537675Y-30305279D01*
X41555279Y-30287675D01*
X41679642Y-30136138D01*
X41693474Y-30115437D01*
X41785884Y-29942550D01*
X41795412Y-29919549D01*
X41852317Y-29731956D01*
X41857173Y-29707538D01*
X41876388Y-29512448D01*
X41877000Y-29500000D01*
X41877000Y-25756234D01*
X41894376Y-25579811D01*
X41944022Y-25416150D01*
X42024638Y-25265328D01*
X42133130Y-25133130D01*
X42265328Y-25024638D01*
X42416150Y-24944022D01*
X42579811Y-24894376D01*
X42756234Y-24877000D01*
X44743766Y-24877000D01*
X44920189Y-24894376D01*
G37*
X44920189Y-24894376D02*
X45083850Y-24944022D01*
X45234672Y-25024638D01*
X45366870Y-25133130D01*
X45475362Y-25265328D01*
X45555978Y-25416150D01*
X45605624Y-25579811D01*
X45623000Y-25756234D01*
X45623000Y-33493766D01*
X45605624Y-33670189D01*
X45555978Y-33833850D01*
X45475362Y-33984672D01*
X45366870Y-34116870D01*
X45234672Y-34225362D01*
X45083850Y-34305978D01*
X44920189Y-34355624D01*
X44743766Y-34373000D01*
X36506234Y-34373000D01*
X36329811Y-34355624D01*
X36166150Y-34305978D01*
X36015328Y-34225362D01*
X35883130Y-34116870D01*
X35774638Y-33984672D01*
X35694022Y-33833850D01*
X35644376Y-33670189D01*
X35627000Y-33493766D01*
X35627000Y-31506234D01*
X35644376Y-31329811D01*
X35694022Y-31166150D01*
X35774638Y-31015328D01*
X35883130Y-30883130D01*
X36015328Y-30774638D01*
X36166150Y-30694022D01*
X36329811Y-30644376D01*
X36506234Y-30627000D01*
X40750000Y-30627000D01*
X40762448Y-30626388D01*
X40957538Y-30607173D01*
X40981956Y-30602317D01*
X41169549Y-30545412D01*
X41192550Y-30535884D01*
X41365437Y-30443474D01*
X41386138Y-30429642D01*
X41537675Y-30305279D01*
X41555279Y-30287675D01*
X41679642Y-30136138D01*
X41693474Y-30115437D01*
X41785884Y-29942550D01*
X41795412Y-29919549D01*
X41852317Y-29731956D01*
X41857173Y-29707538D01*
X41876388Y-29512448D01*
X41877000Y-29500000D01*
X41877000Y-25756234D01*
X41894376Y-25579811D01*
X41944022Y-25416150D01*
X42024638Y-25265328D01*
X42133130Y-25133130D01*
X42265328Y-25024638D01*
X42416150Y-24944022D01*
X42579811Y-24894376D01*
X42756234Y-24877000D01*
X44743766Y-24877000D01*
X44920189Y-24894376D01*
G36*
X49670189Y-49644376D02*
G01*
X49833850Y-49694022D01*
X49984672Y-49774638D01*
X50116870Y-49883130D01*
X50225362Y-50015328D01*
X50305978Y-50166150D01*
X50355624Y-50329811D01*
X50373000Y-50506234D01*
X50373000Y-63993766D01*
X50355624Y-64170189D01*
X50305978Y-64333850D01*
X50225362Y-64484672D01*
X50152873Y-64573000D01*
X42347127Y-64573000D01*
X42274638Y-64484672D01*
X42194022Y-64333850D01*
X42144376Y-64170189D01*
X42127000Y-63993766D01*
X42127000Y-50506234D01*
X42144376Y-50329811D01*
X42194022Y-50166150D01*
X42274638Y-50015328D01*
X42383130Y-49883130D01*
X42515328Y-49774638D01*
X42666150Y-49694022D01*
X42829811Y-49644376D01*
X43006234Y-49627000D01*
X49493766Y-49627000D01*
X49670189Y-49644376D01*
G37*
X49670189Y-49644376D02*
X49833850Y-49694022D01*
X49984672Y-49774638D01*
X50116870Y-49883130D01*
X50225362Y-50015328D01*
X50305978Y-50166150D01*
X50355624Y-50329811D01*
X50373000Y-50506234D01*
X50373000Y-63993766D01*
X50355624Y-64170189D01*
X50305978Y-64333850D01*
X50225362Y-64484672D01*
X50152873Y-64573000D01*
X42347127Y-64573000D01*
X42274638Y-64484672D01*
X42194022Y-64333850D01*
X42144376Y-64170189D01*
X42127000Y-63993766D01*
X42127000Y-50506234D01*
X42144376Y-50329811D01*
X42194022Y-50166150D01*
X42274638Y-50015328D01*
X42383130Y-49883130D01*
X42515328Y-49774638D01*
X42666150Y-49694022D01*
X42829811Y-49644376D01*
X43006234Y-49627000D01*
X49493766Y-49627000D01*
X49670189Y-49644376D01*
G36*
X59670189Y-49644376D02*
G01*
X59833850Y-49694022D01*
X59984672Y-49774638D01*
X60116870Y-49883130D01*
X60225362Y-50015328D01*
X60305978Y-50166150D01*
X60355624Y-50329811D01*
X60373000Y-50506234D01*
X60373000Y-63993766D01*
X60355624Y-64170189D01*
X60305978Y-64333850D01*
X60225362Y-64484672D01*
X60152873Y-64573000D01*
X52347127Y-64573000D01*
X52274638Y-64484672D01*
X52194022Y-64333850D01*
X52144376Y-64170189D01*
X52127000Y-63993766D01*
X52127000Y-50506234D01*
X52144376Y-50329811D01*
X52194022Y-50166150D01*
X52274638Y-50015328D01*
X52383130Y-49883130D01*
X52515328Y-49774638D01*
X52666150Y-49694022D01*
X52829811Y-49644376D01*
X53006234Y-49627000D01*
X59493766Y-49627000D01*
X59670189Y-49644376D01*
G37*
X59670189Y-49644376D02*
X59833850Y-49694022D01*
X59984672Y-49774638D01*
X60116870Y-49883130D01*
X60225362Y-50015328D01*
X60305978Y-50166150D01*
X60355624Y-50329811D01*
X60373000Y-50506234D01*
X60373000Y-63993766D01*
X60355624Y-64170189D01*
X60305978Y-64333850D01*
X60225362Y-64484672D01*
X60152873Y-64573000D01*
X52347127Y-64573000D01*
X52274638Y-64484672D01*
X52194022Y-64333850D01*
X52144376Y-64170189D01*
X52127000Y-63993766D01*
X52127000Y-50506234D01*
X52144376Y-50329811D01*
X52194022Y-50166150D01*
X52274638Y-50015328D01*
X52383130Y-49883130D01*
X52515328Y-49774638D01*
X52666150Y-49694022D01*
X52829811Y-49644376D01*
X53006234Y-49627000D01*
X59493766Y-49627000D01*
X59670189Y-49644376D01*
G36*
X60975362Y-19265328D02*
G01*
X61055978Y-19416150D01*
X61105624Y-19579811D01*
X61123000Y-19756234D01*
X61123000Y-29243766D01*
X61105624Y-29420189D01*
X61055978Y-29583850D01*
X60975362Y-29734672D01*
X60866870Y-29866870D01*
X60734672Y-29975362D01*
X60583850Y-30055978D01*
X60420189Y-30105624D01*
X60243766Y-30123000D01*
X49006234Y-30123000D01*
X48829811Y-30105624D01*
X48666150Y-30055978D01*
X48515328Y-29975362D01*
X48383130Y-29866870D01*
X48274638Y-29734672D01*
X48194022Y-29583850D01*
X48144376Y-29420189D01*
X48127000Y-29243766D01*
X48127000Y-24500000D01*
X48126388Y-24487552D01*
X48107173Y-24292462D01*
X48102317Y-24268044D01*
X48045412Y-24080451D01*
X48035884Y-24057450D01*
X47943474Y-23884563D01*
X47929642Y-23863862D01*
X47805279Y-23712325D01*
X47787675Y-23694721D01*
X47636138Y-23570358D01*
X47615437Y-23556526D01*
X47442550Y-23464116D01*
X47419549Y-23454588D01*
X47231956Y-23397683D01*
X47207538Y-23392827D01*
X47012448Y-23373612D01*
X47000000Y-23373000D01*
X39750000Y-23373000D01*
X39737552Y-23373612D01*
X39542462Y-23392827D01*
X39518044Y-23397683D01*
X39330451Y-23454588D01*
X39307450Y-23464116D01*
X39134563Y-23556526D01*
X39113862Y-23570358D01*
X38962325Y-23694721D01*
X38944721Y-23712325D01*
X38820358Y-23863862D01*
X38806526Y-23884563D01*
X38714116Y-24057450D01*
X38704588Y-24080451D01*
X38647683Y-24268044D01*
X38642827Y-24292462D01*
X38623612Y-24487552D01*
X38623000Y-24500000D01*
X38623000Y-27493766D01*
X38605624Y-27670189D01*
X38555978Y-27833850D01*
X38475362Y-27984672D01*
X38366870Y-28116870D01*
X38234672Y-28225362D01*
X38083850Y-28305978D01*
X37920189Y-28355624D01*
X37743766Y-28373000D01*
X33875000Y-28373000D01*
X33860781Y-28373799D01*
X33666075Y-28395737D01*
X33638349Y-28402065D01*
X33453407Y-28466779D01*
X33427784Y-28479118D01*
X33261878Y-28583363D01*
X33239643Y-28601094D01*
X33101094Y-28739643D01*
X33083363Y-28761878D01*
X32979118Y-28927784D01*
X32966779Y-28953407D01*
X32902065Y-29138349D01*
X32895737Y-29166075D01*
X32853463Y-29541266D01*
X32798202Y-29699195D01*
X32709184Y-29840867D01*
X32590867Y-29959184D01*
X32449195Y-30048202D01*
X32291266Y-30103463D01*
X32117872Y-30123000D01*
X27006234Y-30123000D01*
X26829811Y-30105624D01*
X26666150Y-30055978D01*
X26515328Y-29975362D01*
X26383130Y-29866870D01*
X26274638Y-29734672D01*
X26194022Y-29583850D01*
X26144376Y-29420189D01*
X26127000Y-29243766D01*
X26127000Y-19756234D01*
X26144376Y-19579811D01*
X26194022Y-19416150D01*
X26274638Y-19265328D01*
X26347127Y-19177000D01*
X60902873Y-19177000D01*
X60975362Y-19265328D01*
G37*
X60975362Y-19265328D02*
X61055978Y-19416150D01*
X61105624Y-19579811D01*
X61123000Y-19756234D01*
X61123000Y-29243766D01*
X61105624Y-29420189D01*
X61055978Y-29583850D01*
X60975362Y-29734672D01*
X60866870Y-29866870D01*
X60734672Y-29975362D01*
X60583850Y-30055978D01*
X60420189Y-30105624D01*
X60243766Y-30123000D01*
X49006234Y-30123000D01*
X48829811Y-30105624D01*
X48666150Y-30055978D01*
X48515328Y-29975362D01*
X48383130Y-29866870D01*
X48274638Y-29734672D01*
X48194022Y-29583850D01*
X48144376Y-29420189D01*
X48127000Y-29243766D01*
X48127000Y-24500000D01*
X48126388Y-24487552D01*
X48107173Y-24292462D01*
X48102317Y-24268044D01*
X48045412Y-24080451D01*
X48035884Y-24057450D01*
X47943474Y-23884563D01*
X47929642Y-23863862D01*
X47805279Y-23712325D01*
X47787675Y-23694721D01*
X47636138Y-23570358D01*
X47615437Y-23556526D01*
X47442550Y-23464116D01*
X47419549Y-23454588D01*
X47231956Y-23397683D01*
X47207538Y-23392827D01*
X47012448Y-23373612D01*
X47000000Y-23373000D01*
X39750000Y-23373000D01*
X39737552Y-23373612D01*
X39542462Y-23392827D01*
X39518044Y-23397683D01*
X39330451Y-23454588D01*
X39307450Y-23464116D01*
X39134563Y-23556526D01*
X39113862Y-23570358D01*
X38962325Y-23694721D01*
X38944721Y-23712325D01*
X38820358Y-23863862D01*
X38806526Y-23884563D01*
X38714116Y-24057450D01*
X38704588Y-24080451D01*
X38647683Y-24268044D01*
X38642827Y-24292462D01*
X38623612Y-24487552D01*
X38623000Y-24500000D01*
X38623000Y-27493766D01*
X38605624Y-27670189D01*
X38555978Y-27833850D01*
X38475362Y-27984672D01*
X38366870Y-28116870D01*
X38234672Y-28225362D01*
X38083850Y-28305978D01*
X37920189Y-28355624D01*
X37743766Y-28373000D01*
X33875000Y-28373000D01*
X33860781Y-28373799D01*
X33666075Y-28395737D01*
X33638349Y-28402065D01*
X33453407Y-28466779D01*
X33427784Y-28479118D01*
X33261878Y-28583363D01*
X33239643Y-28601094D01*
X33101094Y-28739643D01*
X33083363Y-28761878D01*
X32979118Y-28927784D01*
X32966779Y-28953407D01*
X32902065Y-29138349D01*
X32895737Y-29166075D01*
X32853463Y-29541266D01*
X32798202Y-29699195D01*
X32709184Y-29840867D01*
X32590867Y-29959184D01*
X32449195Y-30048202D01*
X32291266Y-30103463D01*
X32117872Y-30123000D01*
X27006234Y-30123000D01*
X26829811Y-30105624D01*
X26666150Y-30055978D01*
X26515328Y-29975362D01*
X26383130Y-29866870D01*
X26274638Y-29734672D01*
X26194022Y-29583850D01*
X26144376Y-29420189D01*
X26127000Y-29243766D01*
X26127000Y-19756234D01*
X26144376Y-19579811D01*
X26194022Y-19416150D01*
X26274638Y-19265328D01*
X26347127Y-19177000D01*
X60902873Y-19177000D01*
X60975362Y-19265328D01*
G36*
X116833850Y-18944022D02*
G01*
X116984672Y-19024638D01*
X117116870Y-19133130D01*
X117225362Y-19265328D01*
X117305978Y-19416150D01*
X117355624Y-19579811D01*
X117373000Y-19756234D01*
X117373000Y-29243766D01*
X117355624Y-29420189D01*
X117305978Y-29583850D01*
X117225362Y-29734672D01*
X117116870Y-29866870D01*
X116984672Y-29975362D01*
X116833850Y-30055978D01*
X116670189Y-30105624D01*
X116493766Y-30123000D01*
X105256234Y-30123000D01*
X105079811Y-30105624D01*
X104916150Y-30055978D01*
X104765328Y-29975362D01*
X104633130Y-29866870D01*
X104524638Y-29734672D01*
X104444022Y-29583850D01*
X104394376Y-29420189D01*
X104377000Y-29243766D01*
X104377000Y-24500000D01*
X104376388Y-24487552D01*
X104357173Y-24292462D01*
X104352317Y-24268044D01*
X104295412Y-24080451D01*
X104285884Y-24057450D01*
X104193474Y-23884563D01*
X104179642Y-23863862D01*
X104055279Y-23712325D01*
X104037675Y-23694721D01*
X103886138Y-23570358D01*
X103865437Y-23556526D01*
X103692550Y-23464116D01*
X103669549Y-23454588D01*
X103481956Y-23397683D01*
X103457538Y-23392827D01*
X103262448Y-23373612D01*
X103250000Y-23373000D01*
X96000000Y-23373000D01*
X95987552Y-23373612D01*
X95792462Y-23392827D01*
X95768044Y-23397683D01*
X95580451Y-23454588D01*
X95557450Y-23464116D01*
X95384563Y-23556526D01*
X95363862Y-23570358D01*
X95212325Y-23694721D01*
X95194721Y-23712325D01*
X95070358Y-23863862D01*
X95056526Y-23884563D01*
X94964116Y-24057450D01*
X94954588Y-24080451D01*
X94897683Y-24268044D01*
X94892827Y-24292462D01*
X94873612Y-24487552D01*
X94873000Y-24500000D01*
X94873000Y-27493766D01*
X94855624Y-27670189D01*
X94805978Y-27833850D01*
X94725362Y-27984672D01*
X94616870Y-28116870D01*
X94484672Y-28225362D01*
X94333850Y-28305978D01*
X94170189Y-28355624D01*
X93993766Y-28373000D01*
X90125000Y-28373000D01*
X90110781Y-28373799D01*
X89916075Y-28395737D01*
X89888349Y-28402065D01*
X89703407Y-28466779D01*
X89677784Y-28479118D01*
X89511878Y-28583363D01*
X89489643Y-28601094D01*
X89351094Y-28739643D01*
X89333363Y-28761878D01*
X89229118Y-28927784D01*
X89216779Y-28953407D01*
X89152065Y-29138349D01*
X89145737Y-29166075D01*
X89103463Y-29541266D01*
X89048202Y-29699195D01*
X88959184Y-29840867D01*
X88840867Y-29959184D01*
X88699195Y-30048202D01*
X88541266Y-30103463D01*
X88367872Y-30123000D01*
X83256234Y-30123000D01*
X83079811Y-30105624D01*
X82916150Y-30055978D01*
X82765328Y-29975362D01*
X82633130Y-29866870D01*
X82524638Y-29734672D01*
X82444022Y-29583850D01*
X82394376Y-29420189D01*
X82377000Y-29243766D01*
X82377000Y-19756234D01*
X82394376Y-19579811D01*
X82444022Y-19416150D01*
X82524638Y-19265328D01*
X82633130Y-19133130D01*
X82765328Y-19024638D01*
X82916150Y-18944022D01*
X82972264Y-18927000D01*
X116777736Y-18927000D01*
X116833850Y-18944022D01*
G37*
X116833850Y-18944022D02*
X116984672Y-19024638D01*
X117116870Y-19133130D01*
X117225362Y-19265328D01*
X117305978Y-19416150D01*
X117355624Y-19579811D01*
X117373000Y-19756234D01*
X117373000Y-29243766D01*
X117355624Y-29420189D01*
X117305978Y-29583850D01*
X117225362Y-29734672D01*
X117116870Y-29866870D01*
X116984672Y-29975362D01*
X116833850Y-30055978D01*
X116670189Y-30105624D01*
X116493766Y-30123000D01*
X105256234Y-30123000D01*
X105079811Y-30105624D01*
X104916150Y-30055978D01*
X104765328Y-29975362D01*
X104633130Y-29866870D01*
X104524638Y-29734672D01*
X104444022Y-29583850D01*
X104394376Y-29420189D01*
X104377000Y-29243766D01*
X104377000Y-24500000D01*
X104376388Y-24487552D01*
X104357173Y-24292462D01*
X104352317Y-24268044D01*
X104295412Y-24080451D01*
X104285884Y-24057450D01*
X104193474Y-23884563D01*
X104179642Y-23863862D01*
X104055279Y-23712325D01*
X104037675Y-23694721D01*
X103886138Y-23570358D01*
X103865437Y-23556526D01*
X103692550Y-23464116D01*
X103669549Y-23454588D01*
X103481956Y-23397683D01*
X103457538Y-23392827D01*
X103262448Y-23373612D01*
X103250000Y-23373000D01*
X96000000Y-23373000D01*
X95987552Y-23373612D01*
X95792462Y-23392827D01*
X95768044Y-23397683D01*
X95580451Y-23454588D01*
X95557450Y-23464116D01*
X95384563Y-23556526D01*
X95363862Y-23570358D01*
X95212325Y-23694721D01*
X95194721Y-23712325D01*
X95070358Y-23863862D01*
X95056526Y-23884563D01*
X94964116Y-24057450D01*
X94954588Y-24080451D01*
X94897683Y-24268044D01*
X94892827Y-24292462D01*
X94873612Y-24487552D01*
X94873000Y-24500000D01*
X94873000Y-27493766D01*
X94855624Y-27670189D01*
X94805978Y-27833850D01*
X94725362Y-27984672D01*
X94616870Y-28116870D01*
X94484672Y-28225362D01*
X94333850Y-28305978D01*
X94170189Y-28355624D01*
X93993766Y-28373000D01*
X90125000Y-28373000D01*
X90110781Y-28373799D01*
X89916075Y-28395737D01*
X89888349Y-28402065D01*
X89703407Y-28466779D01*
X89677784Y-28479118D01*
X89511878Y-28583363D01*
X89489643Y-28601094D01*
X89351094Y-28739643D01*
X89333363Y-28761878D01*
X89229118Y-28927784D01*
X89216779Y-28953407D01*
X89152065Y-29138349D01*
X89145737Y-29166075D01*
X89103463Y-29541266D01*
X89048202Y-29699195D01*
X88959184Y-29840867D01*
X88840867Y-29959184D01*
X88699195Y-30048202D01*
X88541266Y-30103463D01*
X88367872Y-30123000D01*
X83256234Y-30123000D01*
X83079811Y-30105624D01*
X82916150Y-30055978D01*
X82765328Y-29975362D01*
X82633130Y-29866870D01*
X82524638Y-29734672D01*
X82444022Y-29583850D01*
X82394376Y-29420189D01*
X82377000Y-29243766D01*
X82377000Y-19756234D01*
X82394376Y-19579811D01*
X82444022Y-19416150D01*
X82524638Y-19265328D01*
X82633130Y-19133130D01*
X82765328Y-19024638D01*
X82916150Y-18944022D01*
X82972264Y-18927000D01*
X116777736Y-18927000D01*
X116833850Y-18944022D01*
G36*
X101170189Y-24894376D02*
G01*
X101333850Y-24944022D01*
X101484672Y-25024638D01*
X101616870Y-25133130D01*
X101725362Y-25265328D01*
X101805978Y-25416150D01*
X101855624Y-25579811D01*
X101873000Y-25756234D01*
X101873000Y-33493766D01*
X101855624Y-33670189D01*
X101805978Y-33833850D01*
X101725362Y-33984672D01*
X101616870Y-34116870D01*
X101484672Y-34225362D01*
X101333850Y-34305978D01*
X101170189Y-34355624D01*
X100993766Y-34373000D01*
X92756234Y-34373000D01*
X92579811Y-34355624D01*
X92416150Y-34305978D01*
X92265328Y-34225362D01*
X92133130Y-34116870D01*
X92024638Y-33984672D01*
X91944022Y-33833850D01*
X91894376Y-33670189D01*
X91877000Y-33493766D01*
X91877000Y-31506234D01*
X91894376Y-31329811D01*
X91944022Y-31166150D01*
X92024638Y-31015328D01*
X92133130Y-30883130D01*
X92265328Y-30774638D01*
X92416150Y-30694022D01*
X92579811Y-30644376D01*
X92756234Y-30627000D01*
X97000000Y-30627000D01*
X97012448Y-30626388D01*
X97207538Y-30607173D01*
X97231956Y-30602317D01*
X97419549Y-30545412D01*
X97442550Y-30535884D01*
X97615437Y-30443474D01*
X97636138Y-30429642D01*
X97787675Y-30305279D01*
X97805279Y-30287675D01*
X97929642Y-30136138D01*
X97943474Y-30115437D01*
X98035884Y-29942550D01*
X98045412Y-29919549D01*
X98102317Y-29731956D01*
X98107173Y-29707538D01*
X98126388Y-29512448D01*
X98127000Y-29500000D01*
X98127000Y-25756234D01*
X98144376Y-25579811D01*
X98194022Y-25416150D01*
X98274638Y-25265328D01*
X98383130Y-25133130D01*
X98515328Y-25024638D01*
X98666150Y-24944022D01*
X98829811Y-24894376D01*
X99006234Y-24877000D01*
X100993766Y-24877000D01*
X101170189Y-24894376D01*
G37*
X101170189Y-24894376D02*
X101333850Y-24944022D01*
X101484672Y-25024638D01*
X101616870Y-25133130D01*
X101725362Y-25265328D01*
X101805978Y-25416150D01*
X101855624Y-25579811D01*
X101873000Y-25756234D01*
X101873000Y-33493766D01*
X101855624Y-33670189D01*
X101805978Y-33833850D01*
X101725362Y-33984672D01*
X101616870Y-34116870D01*
X101484672Y-34225362D01*
X101333850Y-34305978D01*
X101170189Y-34355624D01*
X100993766Y-34373000D01*
X92756234Y-34373000D01*
X92579811Y-34355624D01*
X92416150Y-34305978D01*
X92265328Y-34225362D01*
X92133130Y-34116870D01*
X92024638Y-33984672D01*
X91944022Y-33833850D01*
X91894376Y-33670189D01*
X91877000Y-33493766D01*
X91877000Y-31506234D01*
X91894376Y-31329811D01*
X91944022Y-31166150D01*
X92024638Y-31015328D01*
X92133130Y-30883130D01*
X92265328Y-30774638D01*
X92416150Y-30694022D01*
X92579811Y-30644376D01*
X92756234Y-30627000D01*
X97000000Y-30627000D01*
X97012448Y-30626388D01*
X97207538Y-30607173D01*
X97231956Y-30602317D01*
X97419549Y-30545412D01*
X97442550Y-30535884D01*
X97615437Y-30443474D01*
X97636138Y-30429642D01*
X97787675Y-30305279D01*
X97805279Y-30287675D01*
X97929642Y-30136138D01*
X97943474Y-30115437D01*
X98035884Y-29942550D01*
X98045412Y-29919549D01*
X98102317Y-29731956D01*
X98107173Y-29707538D01*
X98126388Y-29512448D01*
X98127000Y-29500000D01*
X98127000Y-25756234D01*
X98144376Y-25579811D01*
X98194022Y-25416150D01*
X98274638Y-25265328D01*
X98383130Y-25133130D01*
X98515328Y-25024638D01*
X98666150Y-24944022D01*
X98829811Y-24894376D01*
X99006234Y-24877000D01*
X100993766Y-24877000D01*
X101170189Y-24894376D01*
G36*
X115920189Y-49644376D02*
G01*
X116083850Y-49694022D01*
X116234672Y-49774638D01*
X116366870Y-49883130D01*
X116475362Y-50015328D01*
X116555978Y-50166150D01*
X116605624Y-50329811D01*
X116623000Y-50506234D01*
X116623000Y-63993766D01*
X116605624Y-64170189D01*
X116559269Y-64323000D01*
X108440731Y-64323000D01*
X108394376Y-64170189D01*
X108377000Y-63993766D01*
X108377000Y-50506234D01*
X108394376Y-50329811D01*
X108444022Y-50166150D01*
X108524638Y-50015328D01*
X108633130Y-49883130D01*
X108765328Y-49774638D01*
X108916150Y-49694022D01*
X109079811Y-49644376D01*
X109256234Y-49627000D01*
X115743766Y-49627000D01*
X115920189Y-49644376D01*
G37*
X115920189Y-49644376D02*
X116083850Y-49694022D01*
X116234672Y-49774638D01*
X116366870Y-49883130D01*
X116475362Y-50015328D01*
X116555978Y-50166150D01*
X116605624Y-50329811D01*
X116623000Y-50506234D01*
X116623000Y-63993766D01*
X116605624Y-64170189D01*
X116559269Y-64323000D01*
X108440731Y-64323000D01*
X108394376Y-64170189D01*
X108377000Y-63993766D01*
X108377000Y-50506234D01*
X108394376Y-50329811D01*
X108444022Y-50166150D01*
X108524638Y-50015328D01*
X108633130Y-49883130D01*
X108765328Y-49774638D01*
X108916150Y-49694022D01*
X109079811Y-49644376D01*
X109256234Y-49627000D01*
X115743766Y-49627000D01*
X115920189Y-49644376D01*
G36*
X105920189Y-49644376D02*
G01*
X106083850Y-49694022D01*
X106234672Y-49774638D01*
X106366870Y-49883130D01*
X106475362Y-50015328D01*
X106555978Y-50166150D01*
X106605624Y-50329811D01*
X106623000Y-50506234D01*
X106623000Y-63993766D01*
X106605624Y-64170189D01*
X106559269Y-64323000D01*
X98440731Y-64323000D01*
X98394376Y-64170189D01*
X98377000Y-63993766D01*
X98377000Y-50506234D01*
X98394376Y-50329811D01*
X98444022Y-50166150D01*
X98524638Y-50015328D01*
X98633130Y-49883130D01*
X98765328Y-49774638D01*
X98916150Y-49694022D01*
X99079811Y-49644376D01*
X99256234Y-49627000D01*
X105743766Y-49627000D01*
X105920189Y-49644376D01*
G37*
X105920189Y-49644376D02*
X106083850Y-49694022D01*
X106234672Y-49774638D01*
X106366870Y-49883130D01*
X106475362Y-50015328D01*
X106555978Y-50166150D01*
X106605624Y-50329811D01*
X106623000Y-50506234D01*
X106623000Y-63993766D01*
X106605624Y-64170189D01*
X106559269Y-64323000D01*
X98440731Y-64323000D01*
X98394376Y-64170189D01*
X98377000Y-63993766D01*
X98377000Y-50506234D01*
X98394376Y-50329811D01*
X98444022Y-50166150D01*
X98524638Y-50015328D01*
X98633130Y-49883130D01*
X98765328Y-49774638D01*
X98916150Y-49694022D01*
X99079811Y-49644376D01*
X99256234Y-49627000D01*
X105743766Y-49627000D01*
X105920189Y-49644376D01*
G36*
X209670189Y-24894376D02*
G01*
X209833850Y-24944022D01*
X209984672Y-25024638D01*
X210116870Y-25133130D01*
X210225362Y-25265328D01*
X210305978Y-25416150D01*
X210355624Y-25579811D01*
X210373000Y-25756234D01*
X210373000Y-33493766D01*
X210355624Y-33670189D01*
X210305978Y-33833850D01*
X210225362Y-33984672D01*
X210116870Y-34116870D01*
X209984672Y-34225362D01*
X209833850Y-34305978D01*
X209670189Y-34355624D01*
X209493766Y-34373000D01*
X201256234Y-34373000D01*
X201079811Y-34355624D01*
X200916150Y-34305978D01*
X200765328Y-34225362D01*
X200633130Y-34116870D01*
X200524638Y-33984672D01*
X200444022Y-33833850D01*
X200394376Y-33670189D01*
X200377000Y-33493766D01*
X200377000Y-31506234D01*
X200394376Y-31329811D01*
X200444022Y-31166150D01*
X200524638Y-31015328D01*
X200633130Y-30883130D01*
X200765328Y-30774638D01*
X200916150Y-30694022D01*
X201079811Y-30644376D01*
X201256234Y-30627000D01*
X205500000Y-30627000D01*
X205512448Y-30626388D01*
X205707538Y-30607173D01*
X205731956Y-30602317D01*
X205919549Y-30545412D01*
X205942550Y-30535884D01*
X206115437Y-30443474D01*
X206136138Y-30429642D01*
X206287675Y-30305279D01*
X206305279Y-30287675D01*
X206429642Y-30136138D01*
X206443474Y-30115437D01*
X206535884Y-29942550D01*
X206545412Y-29919549D01*
X206602317Y-29731956D01*
X206607173Y-29707538D01*
X206626388Y-29512448D01*
X206627000Y-29500000D01*
X206627000Y-25756234D01*
X206644376Y-25579811D01*
X206694022Y-25416150D01*
X206774638Y-25265328D01*
X206883130Y-25133130D01*
X207015328Y-25024638D01*
X207166150Y-24944022D01*
X207329811Y-24894376D01*
X207506234Y-24877000D01*
X209493766Y-24877000D01*
X209670189Y-24894376D01*
G37*
X209670189Y-24894376D02*
X209833850Y-24944022D01*
X209984672Y-25024638D01*
X210116870Y-25133130D01*
X210225362Y-25265328D01*
X210305978Y-25416150D01*
X210355624Y-25579811D01*
X210373000Y-25756234D01*
X210373000Y-33493766D01*
X210355624Y-33670189D01*
X210305978Y-33833850D01*
X210225362Y-33984672D01*
X210116870Y-34116870D01*
X209984672Y-34225362D01*
X209833850Y-34305978D01*
X209670189Y-34355624D01*
X209493766Y-34373000D01*
X201256234Y-34373000D01*
X201079811Y-34355624D01*
X200916150Y-34305978D01*
X200765328Y-34225362D01*
X200633130Y-34116870D01*
X200524638Y-33984672D01*
X200444022Y-33833850D01*
X200394376Y-33670189D01*
X200377000Y-33493766D01*
X200377000Y-31506234D01*
X200394376Y-31329811D01*
X200444022Y-31166150D01*
X200524638Y-31015328D01*
X200633130Y-30883130D01*
X200765328Y-30774638D01*
X200916150Y-30694022D01*
X201079811Y-30644376D01*
X201256234Y-30627000D01*
X205500000Y-30627000D01*
X205512448Y-30626388D01*
X205707538Y-30607173D01*
X205731956Y-30602317D01*
X205919549Y-30545412D01*
X205942550Y-30535884D01*
X206115437Y-30443474D01*
X206136138Y-30429642D01*
X206287675Y-30305279D01*
X206305279Y-30287675D01*
X206429642Y-30136138D01*
X206443474Y-30115437D01*
X206535884Y-29942550D01*
X206545412Y-29919549D01*
X206602317Y-29731956D01*
X206607173Y-29707538D01*
X206626388Y-29512448D01*
X206627000Y-29500000D01*
X206627000Y-25756234D01*
X206644376Y-25579811D01*
X206694022Y-25416150D01*
X206774638Y-25265328D01*
X206883130Y-25133130D01*
X207015328Y-25024638D01*
X207166150Y-24944022D01*
X207329811Y-24894376D01*
X207506234Y-24877000D01*
X209493766Y-24877000D01*
X209670189Y-24894376D01*
G36*
X169475362Y-19265328D02*
G01*
X169555978Y-19416150D01*
X169605624Y-19579811D01*
X169623000Y-19756234D01*
X169623000Y-29243766D01*
X169605624Y-29420189D01*
X169555978Y-29583850D01*
X169475362Y-29734672D01*
X169366870Y-29866870D01*
X169234672Y-29975362D01*
X169083850Y-30055978D01*
X168920189Y-30105624D01*
X168743766Y-30123000D01*
X157506234Y-30123000D01*
X157329811Y-30105624D01*
X157166150Y-30055978D01*
X157015328Y-29975362D01*
X156883130Y-29866870D01*
X156774638Y-29734672D01*
X156694022Y-29583850D01*
X156644376Y-29420189D01*
X156627000Y-29243766D01*
X156627000Y-24500000D01*
X156626388Y-24487552D01*
X156607173Y-24292462D01*
X156602317Y-24268044D01*
X156545412Y-24080451D01*
X156535884Y-24057450D01*
X156443474Y-23884563D01*
X156429642Y-23863862D01*
X156305279Y-23712325D01*
X156287675Y-23694721D01*
X156136138Y-23570358D01*
X156115437Y-23556526D01*
X155942550Y-23464116D01*
X155919549Y-23454588D01*
X155731956Y-23397683D01*
X155707538Y-23392827D01*
X155512448Y-23373612D01*
X155500000Y-23373000D01*
X148250000Y-23373000D01*
X148237552Y-23373612D01*
X148042462Y-23392827D01*
X148018044Y-23397683D01*
X147830451Y-23454588D01*
X147807450Y-23464116D01*
X147634563Y-23556526D01*
X147613862Y-23570358D01*
X147462325Y-23694721D01*
X147444721Y-23712325D01*
X147320358Y-23863862D01*
X147306526Y-23884563D01*
X147214116Y-24057450D01*
X147204588Y-24080451D01*
X147147683Y-24268044D01*
X147142827Y-24292462D01*
X147123612Y-24487552D01*
X147123000Y-24500000D01*
X147123000Y-27493766D01*
X147105624Y-27670189D01*
X147055978Y-27833850D01*
X146975362Y-27984672D01*
X146866870Y-28116870D01*
X146734672Y-28225362D01*
X146583850Y-28305978D01*
X146420189Y-28355624D01*
X146243766Y-28373000D01*
X142375000Y-28373000D01*
X142360781Y-28373799D01*
X142166075Y-28395737D01*
X142138349Y-28402065D01*
X141953407Y-28466779D01*
X141927784Y-28479118D01*
X141761878Y-28583363D01*
X141739643Y-28601094D01*
X141690675Y-28650062D01*
X141718152Y-28583726D01*
X141876740Y-27786448D01*
X141876740Y-26973552D01*
X141718152Y-26176274D01*
X141407070Y-25425255D01*
X140955449Y-24749356D01*
X140380644Y-24174551D01*
X139704745Y-23722930D01*
X138953726Y-23411848D01*
X138156448Y-23253260D01*
X137343552Y-23253260D01*
X136546274Y-23411848D01*
X135795255Y-23722930D01*
X135119356Y-24174551D01*
X134627000Y-24666907D01*
X134627000Y-19756234D01*
X134644376Y-19579811D01*
X134694022Y-19416150D01*
X134774638Y-19265328D01*
X134847127Y-19177000D01*
X169402873Y-19177000D01*
X169475362Y-19265328D01*
G37*
X169475362Y-19265328D02*
X169555978Y-19416150D01*
X169605624Y-19579811D01*
X169623000Y-19756234D01*
X169623000Y-29243766D01*
X169605624Y-29420189D01*
X169555978Y-29583850D01*
X169475362Y-29734672D01*
X169366870Y-29866870D01*
X169234672Y-29975362D01*
X169083850Y-30055978D01*
X168920189Y-30105624D01*
X168743766Y-30123000D01*
X157506234Y-30123000D01*
X157329811Y-30105624D01*
X157166150Y-30055978D01*
X157015328Y-29975362D01*
X156883130Y-29866870D01*
X156774638Y-29734672D01*
X156694022Y-29583850D01*
X156644376Y-29420189D01*
X156627000Y-29243766D01*
X156627000Y-24500000D01*
X156626388Y-24487552D01*
X156607173Y-24292462D01*
X156602317Y-24268044D01*
X156545412Y-24080451D01*
X156535884Y-24057450D01*
X156443474Y-23884563D01*
X156429642Y-23863862D01*
X156305279Y-23712325D01*
X156287675Y-23694721D01*
X156136138Y-23570358D01*
X156115437Y-23556526D01*
X155942550Y-23464116D01*
X155919549Y-23454588D01*
X155731956Y-23397683D01*
X155707538Y-23392827D01*
X155512448Y-23373612D01*
X155500000Y-23373000D01*
X148250000Y-23373000D01*
X148237552Y-23373612D01*
X148042462Y-23392827D01*
X148018044Y-23397683D01*
X147830451Y-23454588D01*
X147807450Y-23464116D01*
X147634563Y-23556526D01*
X147613862Y-23570358D01*
X147462325Y-23694721D01*
X147444721Y-23712325D01*
X147320358Y-23863862D01*
X147306526Y-23884563D01*
X147214116Y-24057450D01*
X147204588Y-24080451D01*
X147147683Y-24268044D01*
X147142827Y-24292462D01*
X147123612Y-24487552D01*
X147123000Y-24500000D01*
X147123000Y-27493766D01*
X147105624Y-27670189D01*
X147055978Y-27833850D01*
X146975362Y-27984672D01*
X146866870Y-28116870D01*
X146734672Y-28225362D01*
X146583850Y-28305978D01*
X146420189Y-28355624D01*
X146243766Y-28373000D01*
X142375000Y-28373000D01*
X142360781Y-28373799D01*
X142166075Y-28395737D01*
X142138349Y-28402065D01*
X141953407Y-28466779D01*
X141927784Y-28479118D01*
X141761878Y-28583363D01*
X141739643Y-28601094D01*
X141690675Y-28650062D01*
X141718152Y-28583726D01*
X141876740Y-27786448D01*
X141876740Y-26973552D01*
X141718152Y-26176274D01*
X141407070Y-25425255D01*
X140955449Y-24749356D01*
X140380644Y-24174551D01*
X139704745Y-23722930D01*
X138953726Y-23411848D01*
X138156448Y-23253260D01*
X137343552Y-23253260D01*
X136546274Y-23411848D01*
X135795255Y-23722930D01*
X135119356Y-24174551D01*
X134627000Y-24666907D01*
X134627000Y-19756234D01*
X134644376Y-19579811D01*
X134694022Y-19416150D01*
X134774638Y-19265328D01*
X134847127Y-19177000D01*
X169402873Y-19177000D01*
X169475362Y-19265328D01*
G36*
X225725362Y-19265328D02*
G01*
X225805978Y-19416150D01*
X225855624Y-19579811D01*
X225873000Y-19756234D01*
X225873000Y-29243766D01*
X225855624Y-29420189D01*
X225805978Y-29583850D01*
X225725362Y-29734672D01*
X225616870Y-29866870D01*
X225484672Y-29975362D01*
X225333850Y-30055978D01*
X225170189Y-30105624D01*
X224993766Y-30123000D01*
X213756234Y-30123000D01*
X213579811Y-30105624D01*
X213416150Y-30055978D01*
X213265328Y-29975362D01*
X213133130Y-29866870D01*
X213024638Y-29734672D01*
X212944022Y-29583850D01*
X212894376Y-29420189D01*
X212877000Y-29243766D01*
X212877000Y-24500000D01*
X212876388Y-24487552D01*
X212857173Y-24292462D01*
X212852317Y-24268044D01*
X212795412Y-24080451D01*
X212785884Y-24057450D01*
X212693474Y-23884563D01*
X212679642Y-23863862D01*
X212555279Y-23712325D01*
X212537675Y-23694721D01*
X212386138Y-23570358D01*
X212365437Y-23556526D01*
X212192550Y-23464116D01*
X212169549Y-23454588D01*
X211981956Y-23397683D01*
X211957538Y-23392827D01*
X211762448Y-23373612D01*
X211750000Y-23373000D01*
X204500000Y-23373000D01*
X204487552Y-23373612D01*
X204292462Y-23392827D01*
X204268044Y-23397683D01*
X204080451Y-23454588D01*
X204057450Y-23464116D01*
X203884563Y-23556526D01*
X203863862Y-23570358D01*
X203712325Y-23694721D01*
X203694721Y-23712325D01*
X203570358Y-23863862D01*
X203556526Y-23884563D01*
X203464116Y-24057450D01*
X203454588Y-24080451D01*
X203397683Y-24268044D01*
X203392827Y-24292462D01*
X203373612Y-24487552D01*
X203373000Y-24500000D01*
X203373000Y-27493766D01*
X203355624Y-27670189D01*
X203305978Y-27833850D01*
X203225362Y-27984672D01*
X203116870Y-28116870D01*
X202984672Y-28225362D01*
X202833850Y-28305978D01*
X202670189Y-28355624D01*
X202493766Y-28373000D01*
X198625000Y-28373000D01*
X198610781Y-28373799D01*
X198416075Y-28395737D01*
X198388349Y-28402065D01*
X198203407Y-28466779D01*
X198177784Y-28479118D01*
X198011878Y-28583363D01*
X197989643Y-28601094D01*
X197851094Y-28739643D01*
X197833363Y-28761878D01*
X197729118Y-28927784D01*
X197716779Y-28953407D01*
X197652065Y-29138349D01*
X197645737Y-29166075D01*
X197603463Y-29541266D01*
X197548202Y-29699195D01*
X197459184Y-29840867D01*
X197340867Y-29959184D01*
X197199195Y-30048202D01*
X197041266Y-30103463D01*
X196867872Y-30123000D01*
X191756234Y-30123000D01*
X191579811Y-30105624D01*
X191416150Y-30055978D01*
X191265328Y-29975362D01*
X191133130Y-29866870D01*
X191024638Y-29734672D01*
X190944022Y-29583850D01*
X190894376Y-29420189D01*
X190877000Y-29243766D01*
X190877000Y-19756234D01*
X190894376Y-19579811D01*
X190944022Y-19416150D01*
X191024638Y-19265328D01*
X191097127Y-19177000D01*
X225652873Y-19177000D01*
X225725362Y-19265328D01*
G37*
X225725362Y-19265328D02*
X225805978Y-19416150D01*
X225855624Y-19579811D01*
X225873000Y-19756234D01*
X225873000Y-29243766D01*
X225855624Y-29420189D01*
X225805978Y-29583850D01*
X225725362Y-29734672D01*
X225616870Y-29866870D01*
X225484672Y-29975362D01*
X225333850Y-30055978D01*
X225170189Y-30105624D01*
X224993766Y-30123000D01*
X213756234Y-30123000D01*
X213579811Y-30105624D01*
X213416150Y-30055978D01*
X213265328Y-29975362D01*
X213133130Y-29866870D01*
X213024638Y-29734672D01*
X212944022Y-29583850D01*
X212894376Y-29420189D01*
X212877000Y-29243766D01*
X212877000Y-24500000D01*
X212876388Y-24487552D01*
X212857173Y-24292462D01*
X212852317Y-24268044D01*
X212795412Y-24080451D01*
X212785884Y-24057450D01*
X212693474Y-23884563D01*
X212679642Y-23863862D01*
X212555279Y-23712325D01*
X212537675Y-23694721D01*
X212386138Y-23570358D01*
X212365437Y-23556526D01*
X212192550Y-23464116D01*
X212169549Y-23454588D01*
X211981956Y-23397683D01*
X211957538Y-23392827D01*
X211762448Y-23373612D01*
X211750000Y-23373000D01*
X204500000Y-23373000D01*
X204487552Y-23373612D01*
X204292462Y-23392827D01*
X204268044Y-23397683D01*
X204080451Y-23454588D01*
X204057450Y-23464116D01*
X203884563Y-23556526D01*
X203863862Y-23570358D01*
X203712325Y-23694721D01*
X203694721Y-23712325D01*
X203570358Y-23863862D01*
X203556526Y-23884563D01*
X203464116Y-24057450D01*
X203454588Y-24080451D01*
X203397683Y-24268044D01*
X203392827Y-24292462D01*
X203373612Y-24487552D01*
X203373000Y-24500000D01*
X203373000Y-27493766D01*
X203355624Y-27670189D01*
X203305978Y-27833850D01*
X203225362Y-27984672D01*
X203116870Y-28116870D01*
X202984672Y-28225362D01*
X202833850Y-28305978D01*
X202670189Y-28355624D01*
X202493766Y-28373000D01*
X198625000Y-28373000D01*
X198610781Y-28373799D01*
X198416075Y-28395737D01*
X198388349Y-28402065D01*
X198203407Y-28466779D01*
X198177784Y-28479118D01*
X198011878Y-28583363D01*
X197989643Y-28601094D01*
X197851094Y-28739643D01*
X197833363Y-28761878D01*
X197729118Y-28927784D01*
X197716779Y-28953407D01*
X197652065Y-29138349D01*
X197645737Y-29166075D01*
X197603463Y-29541266D01*
X197548202Y-29699195D01*
X197459184Y-29840867D01*
X197340867Y-29959184D01*
X197199195Y-30048202D01*
X197041266Y-30103463D01*
X196867872Y-30123000D01*
X191756234Y-30123000D01*
X191579811Y-30105624D01*
X191416150Y-30055978D01*
X191265328Y-29975362D01*
X191133130Y-29866870D01*
X191024638Y-29734672D01*
X190944022Y-29583850D01*
X190894376Y-29420189D01*
X190877000Y-29243766D01*
X190877000Y-19756234D01*
X190894376Y-19579811D01*
X190944022Y-19416150D01*
X191024638Y-19265328D01*
X191097127Y-19177000D01*
X225652873Y-19177000D01*
X225725362Y-19265328D01*
G36*
X214420189Y-49644376D02*
G01*
X214583850Y-49694022D01*
X214734672Y-49774638D01*
X214866870Y-49883130D01*
X214975362Y-50015328D01*
X215055978Y-50166150D01*
X215105624Y-50329811D01*
X215123000Y-50506234D01*
X215123000Y-63993766D01*
X215105624Y-64170189D01*
X215055978Y-64333850D01*
X214975362Y-64484672D01*
X214902873Y-64573000D01*
X207097127Y-64573000D01*
X207024638Y-64484672D01*
X206944022Y-64333850D01*
X206894376Y-64170189D01*
X206877000Y-63993766D01*
X206877000Y-50506234D01*
X206894376Y-50329811D01*
X206944022Y-50166150D01*
X207024638Y-50015328D01*
X207133130Y-49883130D01*
X207265328Y-49774638D01*
X207416150Y-49694022D01*
X207579811Y-49644376D01*
X207756234Y-49627000D01*
X214243766Y-49627000D01*
X214420189Y-49644376D01*
G37*
X214420189Y-49644376D02*
X214583850Y-49694022D01*
X214734672Y-49774638D01*
X214866870Y-49883130D01*
X214975362Y-50015328D01*
X215055978Y-50166150D01*
X215105624Y-50329811D01*
X215123000Y-50506234D01*
X215123000Y-63993766D01*
X215105624Y-64170189D01*
X215055978Y-64333850D01*
X214975362Y-64484672D01*
X214902873Y-64573000D01*
X207097127Y-64573000D01*
X207024638Y-64484672D01*
X206944022Y-64333850D01*
X206894376Y-64170189D01*
X206877000Y-63993766D01*
X206877000Y-50506234D01*
X206894376Y-50329811D01*
X206944022Y-50166150D01*
X207024638Y-50015328D01*
X207133130Y-49883130D01*
X207265328Y-49774638D01*
X207416150Y-49694022D01*
X207579811Y-49644376D01*
X207756234Y-49627000D01*
X214243766Y-49627000D01*
X214420189Y-49644376D01*
G36*
X224420189Y-49644376D02*
G01*
X224583850Y-49694022D01*
X224734672Y-49774638D01*
X224866870Y-49883130D01*
X224975362Y-50015328D01*
X225055978Y-50166150D01*
X225105624Y-50329811D01*
X225123000Y-50506234D01*
X225123000Y-63993766D01*
X225105624Y-64170189D01*
X225055978Y-64333850D01*
X224975362Y-64484672D01*
X224902873Y-64573000D01*
X217097127Y-64573000D01*
X217024638Y-64484672D01*
X216944022Y-64333850D01*
X216894376Y-64170189D01*
X216877000Y-63993766D01*
X216877000Y-50506234D01*
X216894376Y-50329811D01*
X216944022Y-50166150D01*
X217024638Y-50015328D01*
X217133130Y-49883130D01*
X217265328Y-49774638D01*
X217416150Y-49694022D01*
X217579811Y-49644376D01*
X217756234Y-49627000D01*
X224243766Y-49627000D01*
X224420189Y-49644376D01*
G37*
X224420189Y-49644376D02*
X224583850Y-49694022D01*
X224734672Y-49774638D01*
X224866870Y-49883130D01*
X224975362Y-50015328D01*
X225055978Y-50166150D01*
X225105624Y-50329811D01*
X225123000Y-50506234D01*
X225123000Y-63993766D01*
X225105624Y-64170189D01*
X225055978Y-64333850D01*
X224975362Y-64484672D01*
X224902873Y-64573000D01*
X217097127Y-64573000D01*
X217024638Y-64484672D01*
X216944022Y-64333850D01*
X216894376Y-64170189D01*
X216877000Y-63993766D01*
X216877000Y-50506234D01*
X216894376Y-50329811D01*
X216944022Y-50166150D01*
X217024638Y-50015328D01*
X217133130Y-49883130D01*
X217265328Y-49774638D01*
X217416150Y-49694022D01*
X217579811Y-49644376D01*
X217756234Y-49627000D01*
X224243766Y-49627000D01*
X224420189Y-49644376D01*
G36*
X153420189Y-24894376D02*
G01*
X153583850Y-24944022D01*
X153734672Y-25024638D01*
X153866870Y-25133130D01*
X153975362Y-25265328D01*
X154055978Y-25416150D01*
X154105624Y-25579811D01*
X154123000Y-25756234D01*
X154123000Y-33493766D01*
X154105624Y-33670189D01*
X154055978Y-33833850D01*
X153975362Y-33984672D01*
X153866870Y-34116870D01*
X153734672Y-34225362D01*
X153583850Y-34305978D01*
X153420189Y-34355624D01*
X153243766Y-34373000D01*
X145006234Y-34373000D01*
X144829811Y-34355624D01*
X144666150Y-34305978D01*
X144515328Y-34225362D01*
X144383130Y-34116870D01*
X144274638Y-33984672D01*
X144194022Y-33833850D01*
X144144376Y-33670189D01*
X144127000Y-33493766D01*
X144127000Y-31506234D01*
X144144376Y-31329811D01*
X144194022Y-31166150D01*
X144274638Y-31015328D01*
X144383130Y-30883130D01*
X144515328Y-30774638D01*
X144666150Y-30694022D01*
X144829811Y-30644376D01*
X145006234Y-30627000D01*
X149250000Y-30627000D01*
X149262448Y-30626388D01*
X149457538Y-30607173D01*
X149481956Y-30602317D01*
X149669549Y-30545412D01*
X149692550Y-30535884D01*
X149865437Y-30443474D01*
X149886138Y-30429642D01*
X150037675Y-30305279D01*
X150055279Y-30287675D01*
X150179642Y-30136138D01*
X150193474Y-30115437D01*
X150285884Y-29942550D01*
X150295412Y-29919549D01*
X150352317Y-29731956D01*
X150357173Y-29707538D01*
X150376388Y-29512448D01*
X150377000Y-29500000D01*
X150377000Y-25756234D01*
X150394376Y-25579811D01*
X150444022Y-25416150D01*
X150524638Y-25265328D01*
X150633130Y-25133130D01*
X150765328Y-25024638D01*
X150916150Y-24944022D01*
X151079811Y-24894376D01*
X151256234Y-24877000D01*
X153243766Y-24877000D01*
X153420189Y-24894376D01*
G37*
X153420189Y-24894376D02*
X153583850Y-24944022D01*
X153734672Y-25024638D01*
X153866870Y-25133130D01*
X153975362Y-25265328D01*
X154055978Y-25416150D01*
X154105624Y-25579811D01*
X154123000Y-25756234D01*
X154123000Y-33493766D01*
X154105624Y-33670189D01*
X154055978Y-33833850D01*
X153975362Y-33984672D01*
X153866870Y-34116870D01*
X153734672Y-34225362D01*
X153583850Y-34305978D01*
X153420189Y-34355624D01*
X153243766Y-34373000D01*
X145006234Y-34373000D01*
X144829811Y-34355624D01*
X144666150Y-34305978D01*
X144515328Y-34225362D01*
X144383130Y-34116870D01*
X144274638Y-33984672D01*
X144194022Y-33833850D01*
X144144376Y-33670189D01*
X144127000Y-33493766D01*
X144127000Y-31506234D01*
X144144376Y-31329811D01*
X144194022Y-31166150D01*
X144274638Y-31015328D01*
X144383130Y-30883130D01*
X144515328Y-30774638D01*
X144666150Y-30694022D01*
X144829811Y-30644376D01*
X145006234Y-30627000D01*
X149250000Y-30627000D01*
X149262448Y-30626388D01*
X149457538Y-30607173D01*
X149481956Y-30602317D01*
X149669549Y-30545412D01*
X149692550Y-30535884D01*
X149865437Y-30443474D01*
X149886138Y-30429642D01*
X150037675Y-30305279D01*
X150055279Y-30287675D01*
X150179642Y-30136138D01*
X150193474Y-30115437D01*
X150285884Y-29942550D01*
X150295412Y-29919549D01*
X150352317Y-29731956D01*
X150357173Y-29707538D01*
X150376388Y-29512448D01*
X150377000Y-29500000D01*
X150377000Y-25756234D01*
X150394376Y-25579811D01*
X150444022Y-25416150D01*
X150524638Y-25265328D01*
X150633130Y-25133130D01*
X150765328Y-25024638D01*
X150916150Y-24944022D01*
X151079811Y-24894376D01*
X151256234Y-24877000D01*
X153243766Y-24877000D01*
X153420189Y-24894376D01*
G36*
X168170189Y-49644376D02*
G01*
X168333850Y-49694022D01*
X168484672Y-49774638D01*
X168616870Y-49883130D01*
X168725362Y-50015328D01*
X168805978Y-50166150D01*
X168855624Y-50329811D01*
X168873000Y-50506234D01*
X168873000Y-63993766D01*
X168855624Y-64170189D01*
X168805978Y-64333850D01*
X168725362Y-64484672D01*
X168652873Y-64573000D01*
X160847127Y-64573000D01*
X160774638Y-64484672D01*
X160694022Y-64333850D01*
X160644376Y-64170189D01*
X160627000Y-63993766D01*
X160627000Y-50506234D01*
X160644376Y-50329811D01*
X160694022Y-50166150D01*
X160774638Y-50015328D01*
X160883130Y-49883130D01*
X161015328Y-49774638D01*
X161166150Y-49694022D01*
X161329811Y-49644376D01*
X161506234Y-49627000D01*
X167993766Y-49627000D01*
X168170189Y-49644376D01*
G37*
X168170189Y-49644376D02*
X168333850Y-49694022D01*
X168484672Y-49774638D01*
X168616870Y-49883130D01*
X168725362Y-50015328D01*
X168805978Y-50166150D01*
X168855624Y-50329811D01*
X168873000Y-50506234D01*
X168873000Y-63993766D01*
X168855624Y-64170189D01*
X168805978Y-64333850D01*
X168725362Y-64484672D01*
X168652873Y-64573000D01*
X160847127Y-64573000D01*
X160774638Y-64484672D01*
X160694022Y-64333850D01*
X160644376Y-64170189D01*
X160627000Y-63993766D01*
X160627000Y-50506234D01*
X160644376Y-50329811D01*
X160694022Y-50166150D01*
X160774638Y-50015328D01*
X160883130Y-49883130D01*
X161015328Y-49774638D01*
X161166150Y-49694022D01*
X161329811Y-49644376D01*
X161506234Y-49627000D01*
X167993766Y-49627000D01*
X168170189Y-49644376D01*
G36*
X158170189Y-49644376D02*
G01*
X158333850Y-49694022D01*
X158484672Y-49774638D01*
X158616870Y-49883130D01*
X158725362Y-50015328D01*
X158805978Y-50166150D01*
X158855624Y-50329811D01*
X158873000Y-50506234D01*
X158873000Y-63993766D01*
X158855624Y-64170189D01*
X158805978Y-64333850D01*
X158725362Y-64484672D01*
X158652873Y-64573000D01*
X150847127Y-64573000D01*
X150774638Y-64484672D01*
X150694022Y-64333850D01*
X150644376Y-64170189D01*
X150627000Y-63993766D01*
X150627000Y-50506234D01*
X150644376Y-50329811D01*
X150694022Y-50166150D01*
X150774638Y-50015328D01*
X150883130Y-49883130D01*
X151015328Y-49774638D01*
X151166150Y-49694022D01*
X151329811Y-49644376D01*
X151506234Y-49627000D01*
X157993766Y-49627000D01*
X158170189Y-49644376D01*
G37*
X158170189Y-49644376D02*
X158333850Y-49694022D01*
X158484672Y-49774638D01*
X158616870Y-49883130D01*
X158725362Y-50015328D01*
X158805978Y-50166150D01*
X158855624Y-50329811D01*
X158873000Y-50506234D01*
X158873000Y-63993766D01*
X158855624Y-64170189D01*
X158805978Y-64333850D01*
X158725362Y-64484672D01*
X158652873Y-64573000D01*
X150847127Y-64573000D01*
X150774638Y-64484672D01*
X150694022Y-64333850D01*
X150644376Y-64170189D01*
X150627000Y-63993766D01*
X150627000Y-50506234D01*
X150644376Y-50329811D01*
X150694022Y-50166150D01*
X150774638Y-50015328D01*
X150883130Y-49883130D01*
X151015328Y-49774638D01*
X151166150Y-49694022D01*
X151329811Y-49644376D01*
X151506234Y-49627000D01*
X157993766Y-49627000D01*
X158170189Y-49644376D01*
G36*
X259670189Y-24894376D02*
G01*
X259833850Y-24944022D01*
X259984672Y-25024638D01*
X260116870Y-25133130D01*
X260225362Y-25265328D01*
X260305978Y-25416150D01*
X260355624Y-25579811D01*
X260373000Y-25756234D01*
X260373000Y-33493766D01*
X260355624Y-33670189D01*
X260305978Y-33833850D01*
X260225362Y-33984672D01*
X260116870Y-34116870D01*
X259984672Y-34225362D01*
X259833850Y-34305978D01*
X259670189Y-34355624D01*
X259493766Y-34373000D01*
X251256234Y-34373000D01*
X251079811Y-34355624D01*
X250916150Y-34305978D01*
X250765328Y-34225362D01*
X250633130Y-34116870D01*
X250524638Y-33984672D01*
X250444022Y-33833850D01*
X250394376Y-33670189D01*
X250377000Y-33493766D01*
X250377000Y-31506234D01*
X250394376Y-31329811D01*
X250444022Y-31166150D01*
X250524638Y-31015328D01*
X250633130Y-30883130D01*
X250765328Y-30774638D01*
X250916150Y-30694022D01*
X251079811Y-30644376D01*
X251256234Y-30627000D01*
X255500000Y-30627000D01*
X255512448Y-30626388D01*
X255707538Y-30607173D01*
X255731956Y-30602317D01*
X255919549Y-30545412D01*
X255942550Y-30535884D01*
X256115437Y-30443474D01*
X256136138Y-30429642D01*
X256287675Y-30305279D01*
X256305279Y-30287675D01*
X256429642Y-30136138D01*
X256443474Y-30115437D01*
X256535884Y-29942550D01*
X256545412Y-29919549D01*
X256602317Y-29731956D01*
X256607173Y-29707538D01*
X256626388Y-29512448D01*
X256627000Y-29500000D01*
X256627000Y-25756234D01*
X256644376Y-25579811D01*
X256694022Y-25416150D01*
X256774638Y-25265328D01*
X256883130Y-25133130D01*
X257015328Y-25024638D01*
X257166150Y-24944022D01*
X257329811Y-24894376D01*
X257506234Y-24877000D01*
X259493766Y-24877000D01*
X259670189Y-24894376D01*
G37*
X259670189Y-24894376D02*
X259833850Y-24944022D01*
X259984672Y-25024638D01*
X260116870Y-25133130D01*
X260225362Y-25265328D01*
X260305978Y-25416150D01*
X260355624Y-25579811D01*
X260373000Y-25756234D01*
X260373000Y-33493766D01*
X260355624Y-33670189D01*
X260305978Y-33833850D01*
X260225362Y-33984672D01*
X260116870Y-34116870D01*
X259984672Y-34225362D01*
X259833850Y-34305978D01*
X259670189Y-34355624D01*
X259493766Y-34373000D01*
X251256234Y-34373000D01*
X251079811Y-34355624D01*
X250916150Y-34305978D01*
X250765328Y-34225362D01*
X250633130Y-34116870D01*
X250524638Y-33984672D01*
X250444022Y-33833850D01*
X250394376Y-33670189D01*
X250377000Y-33493766D01*
X250377000Y-31506234D01*
X250394376Y-31329811D01*
X250444022Y-31166150D01*
X250524638Y-31015328D01*
X250633130Y-30883130D01*
X250765328Y-30774638D01*
X250916150Y-30694022D01*
X251079811Y-30644376D01*
X251256234Y-30627000D01*
X255500000Y-30627000D01*
X255512448Y-30626388D01*
X255707538Y-30607173D01*
X255731956Y-30602317D01*
X255919549Y-30545412D01*
X255942550Y-30535884D01*
X256115437Y-30443474D01*
X256136138Y-30429642D01*
X256287675Y-30305279D01*
X256305279Y-30287675D01*
X256429642Y-30136138D01*
X256443474Y-30115437D01*
X256535884Y-29942550D01*
X256545412Y-29919549D01*
X256602317Y-29731956D01*
X256607173Y-29707538D01*
X256626388Y-29512448D01*
X256627000Y-29500000D01*
X256627000Y-25756234D01*
X256644376Y-25579811D01*
X256694022Y-25416150D01*
X256774638Y-25265328D01*
X256883130Y-25133130D01*
X257015328Y-25024638D01*
X257166150Y-24944022D01*
X257329811Y-24894376D01*
X257506234Y-24877000D01*
X259493766Y-24877000D01*
X259670189Y-24894376D01*
G36*
X275725362Y-19265328D02*
G01*
X275805978Y-19416150D01*
X275855624Y-19579811D01*
X275873000Y-19756234D01*
X275873000Y-29243766D01*
X275855624Y-29420189D01*
X275805978Y-29583850D01*
X275725362Y-29734672D01*
X275616870Y-29866870D01*
X275484672Y-29975362D01*
X275333850Y-30055978D01*
X275170189Y-30105624D01*
X274993766Y-30123000D01*
X263756234Y-30123000D01*
X263579811Y-30105624D01*
X263416150Y-30055978D01*
X263265328Y-29975362D01*
X263133130Y-29866870D01*
X263024638Y-29734672D01*
X262944022Y-29583850D01*
X262894376Y-29420189D01*
X262877000Y-29243766D01*
X262877000Y-24500000D01*
X262876388Y-24487552D01*
X262857173Y-24292462D01*
X262852317Y-24268044D01*
X262795412Y-24080451D01*
X262785884Y-24057450D01*
X262693474Y-23884563D01*
X262679642Y-23863862D01*
X262555279Y-23712325D01*
X262537675Y-23694721D01*
X262386138Y-23570358D01*
X262365437Y-23556526D01*
X262192550Y-23464116D01*
X262169549Y-23454588D01*
X261981956Y-23397683D01*
X261957538Y-23392827D01*
X261762448Y-23373612D01*
X261750000Y-23373000D01*
X254500000Y-23373000D01*
X254487552Y-23373612D01*
X254292462Y-23392827D01*
X254268044Y-23397683D01*
X254080451Y-23454588D01*
X254057450Y-23464116D01*
X253884563Y-23556526D01*
X253863862Y-23570358D01*
X253712325Y-23694721D01*
X253694721Y-23712325D01*
X253570358Y-23863862D01*
X253556526Y-23884563D01*
X253464116Y-24057450D01*
X253454588Y-24080451D01*
X253397683Y-24268044D01*
X253392827Y-24292462D01*
X253373612Y-24487552D01*
X253373000Y-24500000D01*
X253373000Y-27493766D01*
X253355624Y-27670189D01*
X253305978Y-27833850D01*
X253225362Y-27984672D01*
X253116870Y-28116870D01*
X252984672Y-28225362D01*
X252833850Y-28305978D01*
X252670189Y-28355624D01*
X252493766Y-28373000D01*
X248625000Y-28373000D01*
X248610781Y-28373799D01*
X248416075Y-28395737D01*
X248388349Y-28402065D01*
X248203407Y-28466779D01*
X248177784Y-28479118D01*
X248011878Y-28583363D01*
X247989643Y-28601094D01*
X247851094Y-28739643D01*
X247833363Y-28761878D01*
X247729118Y-28927784D01*
X247716779Y-28953407D01*
X247652065Y-29138349D01*
X247645737Y-29166075D01*
X247603463Y-29541266D01*
X247548202Y-29699195D01*
X247459184Y-29840867D01*
X247340867Y-29959184D01*
X247199195Y-30048202D01*
X247041266Y-30103463D01*
X246867872Y-30123000D01*
X241756234Y-30123000D01*
X241579811Y-30105624D01*
X241416150Y-30055978D01*
X241265328Y-29975362D01*
X241133130Y-29866870D01*
X241024638Y-29734672D01*
X240944022Y-29583850D01*
X240894376Y-29420189D01*
X240877000Y-29243766D01*
X240877000Y-19756234D01*
X240894376Y-19579811D01*
X240944022Y-19416150D01*
X241024638Y-19265328D01*
X241097127Y-19177000D01*
X275652873Y-19177000D01*
X275725362Y-19265328D01*
G37*
X275725362Y-19265328D02*
X275805978Y-19416150D01*
X275855624Y-19579811D01*
X275873000Y-19756234D01*
X275873000Y-29243766D01*
X275855624Y-29420189D01*
X275805978Y-29583850D01*
X275725362Y-29734672D01*
X275616870Y-29866870D01*
X275484672Y-29975362D01*
X275333850Y-30055978D01*
X275170189Y-30105624D01*
X274993766Y-30123000D01*
X263756234Y-30123000D01*
X263579811Y-30105624D01*
X263416150Y-30055978D01*
X263265328Y-29975362D01*
X263133130Y-29866870D01*
X263024638Y-29734672D01*
X262944022Y-29583850D01*
X262894376Y-29420189D01*
X262877000Y-29243766D01*
X262877000Y-24500000D01*
X262876388Y-24487552D01*
X262857173Y-24292462D01*
X262852317Y-24268044D01*
X262795412Y-24080451D01*
X262785884Y-24057450D01*
X262693474Y-23884563D01*
X262679642Y-23863862D01*
X262555279Y-23712325D01*
X262537675Y-23694721D01*
X262386138Y-23570358D01*
X262365437Y-23556526D01*
X262192550Y-23464116D01*
X262169549Y-23454588D01*
X261981956Y-23397683D01*
X261957538Y-23392827D01*
X261762448Y-23373612D01*
X261750000Y-23373000D01*
X254500000Y-23373000D01*
X254487552Y-23373612D01*
X254292462Y-23392827D01*
X254268044Y-23397683D01*
X254080451Y-23454588D01*
X254057450Y-23464116D01*
X253884563Y-23556526D01*
X253863862Y-23570358D01*
X253712325Y-23694721D01*
X253694721Y-23712325D01*
X253570358Y-23863862D01*
X253556526Y-23884563D01*
X253464116Y-24057450D01*
X253454588Y-24080451D01*
X253397683Y-24268044D01*
X253392827Y-24292462D01*
X253373612Y-24487552D01*
X253373000Y-24500000D01*
X253373000Y-27493766D01*
X253355624Y-27670189D01*
X253305978Y-27833850D01*
X253225362Y-27984672D01*
X253116870Y-28116870D01*
X252984672Y-28225362D01*
X252833850Y-28305978D01*
X252670189Y-28355624D01*
X252493766Y-28373000D01*
X248625000Y-28373000D01*
X248610781Y-28373799D01*
X248416075Y-28395737D01*
X248388349Y-28402065D01*
X248203407Y-28466779D01*
X248177784Y-28479118D01*
X248011878Y-28583363D01*
X247989643Y-28601094D01*
X247851094Y-28739643D01*
X247833363Y-28761878D01*
X247729118Y-28927784D01*
X247716779Y-28953407D01*
X247652065Y-29138349D01*
X247645737Y-29166075D01*
X247603463Y-29541266D01*
X247548202Y-29699195D01*
X247459184Y-29840867D01*
X247340867Y-29959184D01*
X247199195Y-30048202D01*
X247041266Y-30103463D01*
X246867872Y-30123000D01*
X241756234Y-30123000D01*
X241579811Y-30105624D01*
X241416150Y-30055978D01*
X241265328Y-29975362D01*
X241133130Y-29866870D01*
X241024638Y-29734672D01*
X240944022Y-29583850D01*
X240894376Y-29420189D01*
X240877000Y-29243766D01*
X240877000Y-19756234D01*
X240894376Y-19579811D01*
X240944022Y-19416150D01*
X241024638Y-19265328D01*
X241097127Y-19177000D01*
X275652873Y-19177000D01*
X275725362Y-19265328D01*
G36*
X274420189Y-49644376D02*
G01*
X274583850Y-49694022D01*
X274734672Y-49774638D01*
X274866870Y-49883130D01*
X274975362Y-50015328D01*
X275055978Y-50166150D01*
X275105624Y-50329811D01*
X275123000Y-50506234D01*
X275123000Y-63993766D01*
X275105624Y-64170189D01*
X275055978Y-64333850D01*
X274975362Y-64484672D01*
X274902873Y-64573000D01*
X267097127Y-64573000D01*
X267024638Y-64484672D01*
X266944022Y-64333850D01*
X266894376Y-64170189D01*
X266877000Y-63993766D01*
X266877000Y-50506234D01*
X266894376Y-50329811D01*
X266944022Y-50166150D01*
X267024638Y-50015328D01*
X267133130Y-49883130D01*
X267265328Y-49774638D01*
X267416150Y-49694022D01*
X267579811Y-49644376D01*
X267756234Y-49627000D01*
X274243766Y-49627000D01*
X274420189Y-49644376D01*
G37*
X274420189Y-49644376D02*
X274583850Y-49694022D01*
X274734672Y-49774638D01*
X274866870Y-49883130D01*
X274975362Y-50015328D01*
X275055978Y-50166150D01*
X275105624Y-50329811D01*
X275123000Y-50506234D01*
X275123000Y-63993766D01*
X275105624Y-64170189D01*
X275055978Y-64333850D01*
X274975362Y-64484672D01*
X274902873Y-64573000D01*
X267097127Y-64573000D01*
X267024638Y-64484672D01*
X266944022Y-64333850D01*
X266894376Y-64170189D01*
X266877000Y-63993766D01*
X266877000Y-50506234D01*
X266894376Y-50329811D01*
X266944022Y-50166150D01*
X267024638Y-50015328D01*
X267133130Y-49883130D01*
X267265328Y-49774638D01*
X267416150Y-49694022D01*
X267579811Y-49644376D01*
X267756234Y-49627000D01*
X274243766Y-49627000D01*
X274420189Y-49644376D01*
G36*
X264420189Y-49644376D02*
G01*
X264583850Y-49694022D01*
X264734672Y-49774638D01*
X264866870Y-49883130D01*
X264975362Y-50015328D01*
X265055978Y-50166150D01*
X265105624Y-50329811D01*
X265123000Y-50506234D01*
X265123000Y-63993766D01*
X265105624Y-64170189D01*
X265055978Y-64333850D01*
X264975362Y-64484672D01*
X264902873Y-64573000D01*
X257097127Y-64573000D01*
X257024638Y-64484672D01*
X256944022Y-64333850D01*
X256894376Y-64170189D01*
X256877000Y-63993766D01*
X256877000Y-50506234D01*
X256894376Y-50329811D01*
X256944022Y-50166150D01*
X257024638Y-50015328D01*
X257133130Y-49883130D01*
X257265328Y-49774638D01*
X257416150Y-49694022D01*
X257579811Y-49644376D01*
X257756234Y-49627000D01*
X264243766Y-49627000D01*
X264420189Y-49644376D01*
G37*
X264420189Y-49644376D02*
X264583850Y-49694022D01*
X264734672Y-49774638D01*
X264866870Y-49883130D01*
X264975362Y-50015328D01*
X265055978Y-50166150D01*
X265105624Y-50329811D01*
X265123000Y-50506234D01*
X265123000Y-63993766D01*
X265105624Y-64170189D01*
X265055978Y-64333850D01*
X264975362Y-64484672D01*
X264902873Y-64573000D01*
X257097127Y-64573000D01*
X257024638Y-64484672D01*
X256944022Y-64333850D01*
X256894376Y-64170189D01*
X256877000Y-63993766D01*
X256877000Y-50506234D01*
X256894376Y-50329811D01*
X256944022Y-50166150D01*
X257024638Y-50015328D01*
X257133130Y-49883130D01*
X257265328Y-49774638D01*
X257416150Y-49694022D01*
X257579811Y-49644376D01*
X257756234Y-49627000D01*
X264243766Y-49627000D01*
X264420189Y-49644376D01*
G36*
X264420189Y-118394376D02*
G01*
X264583850Y-118444022D01*
X264734672Y-118524638D01*
X264866870Y-118633130D01*
X264975362Y-118765328D01*
X265055978Y-118916150D01*
X265105624Y-119079811D01*
X265123000Y-119256234D01*
X265123000Y-132743766D01*
X265105624Y-132920189D01*
X265055978Y-133083850D01*
X264975362Y-133234672D01*
X264902873Y-133323000D01*
X257097127Y-133323000D01*
X257024638Y-133234672D01*
X256944022Y-133083850D01*
X256894376Y-132920189D01*
X256877000Y-132743766D01*
X256877000Y-119256234D01*
X256894376Y-119079811D01*
X256944022Y-118916150D01*
X257024638Y-118765328D01*
X257133130Y-118633130D01*
X257265328Y-118524638D01*
X257416150Y-118444022D01*
X257579811Y-118394376D01*
X257756234Y-118377000D01*
X264243766Y-118377000D01*
X264420189Y-118394376D01*
G37*
X264420189Y-118394376D02*
X264583850Y-118444022D01*
X264734672Y-118524638D01*
X264866870Y-118633130D01*
X264975362Y-118765328D01*
X265055978Y-118916150D01*
X265105624Y-119079811D01*
X265123000Y-119256234D01*
X265123000Y-132743766D01*
X265105624Y-132920189D01*
X265055978Y-133083850D01*
X264975362Y-133234672D01*
X264902873Y-133323000D01*
X257097127Y-133323000D01*
X257024638Y-133234672D01*
X256944022Y-133083850D01*
X256894376Y-132920189D01*
X256877000Y-132743766D01*
X256877000Y-119256234D01*
X256894376Y-119079811D01*
X256944022Y-118916150D01*
X257024638Y-118765328D01*
X257133130Y-118633130D01*
X257265328Y-118524638D01*
X257416150Y-118444022D01*
X257579811Y-118394376D01*
X257756234Y-118377000D01*
X264243766Y-118377000D01*
X264420189Y-118394376D01*
G36*
X169475362Y-88015328D02*
G01*
X169555978Y-88166150D01*
X169605624Y-88329811D01*
X169623000Y-88506234D01*
X169623000Y-97993766D01*
X169605624Y-98170189D01*
X169555978Y-98333850D01*
X169475362Y-98484672D01*
X169366870Y-98616870D01*
X169234672Y-98725362D01*
X169083850Y-98805978D01*
X168920189Y-98855624D01*
X168743766Y-98873000D01*
X157506234Y-98873000D01*
X157329811Y-98855624D01*
X157166150Y-98805978D01*
X157015328Y-98725362D01*
X156883130Y-98616870D01*
X156774638Y-98484672D01*
X156694022Y-98333850D01*
X156644376Y-98170189D01*
X156627000Y-97993766D01*
X156627000Y-93250000D01*
X156626388Y-93237552D01*
X156607173Y-93042462D01*
X156602317Y-93018044D01*
X156545412Y-92830451D01*
X156535884Y-92807450D01*
X156443474Y-92634563D01*
X156429642Y-92613862D01*
X156305279Y-92462325D01*
X156287675Y-92444721D01*
X156136138Y-92320358D01*
X156115437Y-92306526D01*
X155942550Y-92214116D01*
X155919549Y-92204588D01*
X155731956Y-92147683D01*
X155707538Y-92142827D01*
X155512448Y-92123612D01*
X155500000Y-92123000D01*
X148250000Y-92123000D01*
X148237552Y-92123612D01*
X148042462Y-92142827D01*
X148018044Y-92147683D01*
X147830451Y-92204588D01*
X147807450Y-92214116D01*
X147634563Y-92306526D01*
X147613862Y-92320358D01*
X147462325Y-92444721D01*
X147444721Y-92462325D01*
X147320358Y-92613862D01*
X147306526Y-92634563D01*
X147214116Y-92807450D01*
X147204588Y-92830451D01*
X147147683Y-93018044D01*
X147142827Y-93042462D01*
X147123612Y-93237552D01*
X147123000Y-93250000D01*
X147123000Y-96243766D01*
X147105624Y-96420189D01*
X147055978Y-96583850D01*
X146975362Y-96734672D01*
X146866870Y-96866870D01*
X146734672Y-96975362D01*
X146583850Y-97055978D01*
X146420189Y-97105624D01*
X146243766Y-97123000D01*
X142375000Y-97123000D01*
X142360781Y-97123799D01*
X142166075Y-97145737D01*
X142138349Y-97152065D01*
X141953407Y-97216779D01*
X141927784Y-97229118D01*
X141761878Y-97333363D01*
X141739643Y-97351094D01*
X141601094Y-97489643D01*
X141583363Y-97511878D01*
X141479118Y-97677784D01*
X141466779Y-97703407D01*
X141402065Y-97888349D01*
X141395737Y-97916075D01*
X141353463Y-98291266D01*
X141298202Y-98449195D01*
X141209184Y-98590867D01*
X141090867Y-98709184D01*
X140949195Y-98798202D01*
X140791266Y-98853463D01*
X140617872Y-98873000D01*
X135506234Y-98873000D01*
X135329811Y-98855624D01*
X135166150Y-98805978D01*
X135015328Y-98725362D01*
X134883130Y-98616870D01*
X134774638Y-98484672D01*
X134694022Y-98333850D01*
X134644376Y-98170189D01*
X134627000Y-97993766D01*
X134627000Y-88506234D01*
X134644376Y-88329811D01*
X134694022Y-88166150D01*
X134774638Y-88015328D01*
X134847127Y-87927000D01*
X169402873Y-87927000D01*
X169475362Y-88015328D01*
G37*
X169475362Y-88015328D02*
X169555978Y-88166150D01*
X169605624Y-88329811D01*
X169623000Y-88506234D01*
X169623000Y-97993766D01*
X169605624Y-98170189D01*
X169555978Y-98333850D01*
X169475362Y-98484672D01*
X169366870Y-98616870D01*
X169234672Y-98725362D01*
X169083850Y-98805978D01*
X168920189Y-98855624D01*
X168743766Y-98873000D01*
X157506234Y-98873000D01*
X157329811Y-98855624D01*
X157166150Y-98805978D01*
X157015328Y-98725362D01*
X156883130Y-98616870D01*
X156774638Y-98484672D01*
X156694022Y-98333850D01*
X156644376Y-98170189D01*
X156627000Y-97993766D01*
X156627000Y-93250000D01*
X156626388Y-93237552D01*
X156607173Y-93042462D01*
X156602317Y-93018044D01*
X156545412Y-92830451D01*
X156535884Y-92807450D01*
X156443474Y-92634563D01*
X156429642Y-92613862D01*
X156305279Y-92462325D01*
X156287675Y-92444721D01*
X156136138Y-92320358D01*
X156115437Y-92306526D01*
X155942550Y-92214116D01*
X155919549Y-92204588D01*
X155731956Y-92147683D01*
X155707538Y-92142827D01*
X155512448Y-92123612D01*
X155500000Y-92123000D01*
X148250000Y-92123000D01*
X148237552Y-92123612D01*
X148042462Y-92142827D01*
X148018044Y-92147683D01*
X147830451Y-92204588D01*
X147807450Y-92214116D01*
X147634563Y-92306526D01*
X147613862Y-92320358D01*
X147462325Y-92444721D01*
X147444721Y-92462325D01*
X147320358Y-92613862D01*
X147306526Y-92634563D01*
X147214116Y-92807450D01*
X147204588Y-92830451D01*
X147147683Y-93018044D01*
X147142827Y-93042462D01*
X147123612Y-93237552D01*
X147123000Y-93250000D01*
X147123000Y-96243766D01*
X147105624Y-96420189D01*
X147055978Y-96583850D01*
X146975362Y-96734672D01*
X146866870Y-96866870D01*
X146734672Y-96975362D01*
X146583850Y-97055978D01*
X146420189Y-97105624D01*
X146243766Y-97123000D01*
X142375000Y-97123000D01*
X142360781Y-97123799D01*
X142166075Y-97145737D01*
X142138349Y-97152065D01*
X141953407Y-97216779D01*
X141927784Y-97229118D01*
X141761878Y-97333363D01*
X141739643Y-97351094D01*
X141601094Y-97489643D01*
X141583363Y-97511878D01*
X141479118Y-97677784D01*
X141466779Y-97703407D01*
X141402065Y-97888349D01*
X141395737Y-97916075D01*
X141353463Y-98291266D01*
X141298202Y-98449195D01*
X141209184Y-98590867D01*
X141090867Y-98709184D01*
X140949195Y-98798202D01*
X140791266Y-98853463D01*
X140617872Y-98873000D01*
X135506234Y-98873000D01*
X135329811Y-98855624D01*
X135166150Y-98805978D01*
X135015328Y-98725362D01*
X134883130Y-98616870D01*
X134774638Y-98484672D01*
X134694022Y-98333850D01*
X134644376Y-98170189D01*
X134627000Y-97993766D01*
X134627000Y-88506234D01*
X134644376Y-88329811D01*
X134694022Y-88166150D01*
X134774638Y-88015328D01*
X134847127Y-87927000D01*
X169402873Y-87927000D01*
X169475362Y-88015328D01*
G36*
X158170189Y-118394376D02*
G01*
X158333850Y-118444022D01*
X158484672Y-118524638D01*
X158616870Y-118633130D01*
X158725362Y-118765328D01*
X158805978Y-118916150D01*
X158855624Y-119079811D01*
X158873000Y-119256234D01*
X158873000Y-132743766D01*
X158855624Y-132920189D01*
X158805978Y-133083850D01*
X158725362Y-133234672D01*
X158652873Y-133323000D01*
X150847127Y-133323000D01*
X150774638Y-133234672D01*
X150694022Y-133083850D01*
X150644376Y-132920189D01*
X150627000Y-132743766D01*
X150627000Y-119256234D01*
X150644376Y-119079811D01*
X150694022Y-118916150D01*
X150774638Y-118765328D01*
X150883130Y-118633130D01*
X151015328Y-118524638D01*
X151166150Y-118444022D01*
X151329811Y-118394376D01*
X151506234Y-118377000D01*
X157993766Y-118377000D01*
X158170189Y-118394376D01*
G37*
X158170189Y-118394376D02*
X158333850Y-118444022D01*
X158484672Y-118524638D01*
X158616870Y-118633130D01*
X158725362Y-118765328D01*
X158805978Y-118916150D01*
X158855624Y-119079811D01*
X158873000Y-119256234D01*
X158873000Y-132743766D01*
X158855624Y-132920189D01*
X158805978Y-133083850D01*
X158725362Y-133234672D01*
X158652873Y-133323000D01*
X150847127Y-133323000D01*
X150774638Y-133234672D01*
X150694022Y-133083850D01*
X150644376Y-132920189D01*
X150627000Y-132743766D01*
X150627000Y-119256234D01*
X150644376Y-119079811D01*
X150694022Y-118916150D01*
X150774638Y-118765328D01*
X150883130Y-118633130D01*
X151015328Y-118524638D01*
X151166150Y-118444022D01*
X151329811Y-118394376D01*
X151506234Y-118377000D01*
X157993766Y-118377000D01*
X158170189Y-118394376D01*
G36*
X153420189Y-93644376D02*
G01*
X153583850Y-93694022D01*
X153734672Y-93774638D01*
X153866870Y-93883130D01*
X153975362Y-94015328D01*
X154055978Y-94166150D01*
X154105624Y-94329811D01*
X154123000Y-94506234D01*
X154123000Y-102243766D01*
X154105624Y-102420189D01*
X154055978Y-102583850D01*
X153975362Y-102734672D01*
X153866870Y-102866870D01*
X153734672Y-102975362D01*
X153583850Y-103055978D01*
X153420189Y-103105624D01*
X153243766Y-103123000D01*
X145006234Y-103123000D01*
X144829811Y-103105624D01*
X144666150Y-103055978D01*
X144515328Y-102975362D01*
X144383130Y-102866870D01*
X144274638Y-102734672D01*
X144194022Y-102583850D01*
X144144376Y-102420189D01*
X144127000Y-102243766D01*
X144127000Y-100256234D01*
X144144376Y-100079811D01*
X144194022Y-99916150D01*
X144274638Y-99765328D01*
X144383130Y-99633130D01*
X144515328Y-99524638D01*
X144666150Y-99444022D01*
X144829811Y-99394376D01*
X145006234Y-99377000D01*
X149250000Y-99377000D01*
X149262448Y-99376388D01*
X149457538Y-99357173D01*
X149481956Y-99352317D01*
X149669549Y-99295412D01*
X149692550Y-99285884D01*
X149865437Y-99193474D01*
X149886138Y-99179642D01*
X150037675Y-99055279D01*
X150055279Y-99037675D01*
X150179642Y-98886138D01*
X150193474Y-98865437D01*
X150285884Y-98692550D01*
X150295412Y-98669549D01*
X150352317Y-98481956D01*
X150357173Y-98457538D01*
X150376388Y-98262448D01*
X150377000Y-98250000D01*
X150377000Y-94506234D01*
X150394376Y-94329811D01*
X150444022Y-94166150D01*
X150524638Y-94015328D01*
X150633130Y-93883130D01*
X150765328Y-93774638D01*
X150916150Y-93694022D01*
X151079811Y-93644376D01*
X151256234Y-93627000D01*
X153243766Y-93627000D01*
X153420189Y-93644376D01*
G37*
X153420189Y-93644376D02*
X153583850Y-93694022D01*
X153734672Y-93774638D01*
X153866870Y-93883130D01*
X153975362Y-94015328D01*
X154055978Y-94166150D01*
X154105624Y-94329811D01*
X154123000Y-94506234D01*
X154123000Y-102243766D01*
X154105624Y-102420189D01*
X154055978Y-102583850D01*
X153975362Y-102734672D01*
X153866870Y-102866870D01*
X153734672Y-102975362D01*
X153583850Y-103055978D01*
X153420189Y-103105624D01*
X153243766Y-103123000D01*
X145006234Y-103123000D01*
X144829811Y-103105624D01*
X144666150Y-103055978D01*
X144515328Y-102975362D01*
X144383130Y-102866870D01*
X144274638Y-102734672D01*
X144194022Y-102583850D01*
X144144376Y-102420189D01*
X144127000Y-102243766D01*
X144127000Y-100256234D01*
X144144376Y-100079811D01*
X144194022Y-99916150D01*
X144274638Y-99765328D01*
X144383130Y-99633130D01*
X144515328Y-99524638D01*
X144666150Y-99444022D01*
X144829811Y-99394376D01*
X145006234Y-99377000D01*
X149250000Y-99377000D01*
X149262448Y-99376388D01*
X149457538Y-99357173D01*
X149481956Y-99352317D01*
X149669549Y-99295412D01*
X149692550Y-99285884D01*
X149865437Y-99193474D01*
X149886138Y-99179642D01*
X150037675Y-99055279D01*
X150055279Y-99037675D01*
X150179642Y-98886138D01*
X150193474Y-98865437D01*
X150285884Y-98692550D01*
X150295412Y-98669549D01*
X150352317Y-98481956D01*
X150357173Y-98457538D01*
X150376388Y-98262448D01*
X150377000Y-98250000D01*
X150377000Y-94506234D01*
X150394376Y-94329811D01*
X150444022Y-94166150D01*
X150524638Y-94015328D01*
X150633130Y-93883130D01*
X150765328Y-93774638D01*
X150916150Y-93694022D01*
X151079811Y-93644376D01*
X151256234Y-93627000D01*
X153243766Y-93627000D01*
X153420189Y-93644376D01*
G36*
X209670189Y-93644376D02*
G01*
X209833850Y-93694022D01*
X209984672Y-93774638D01*
X210116870Y-93883130D01*
X210225362Y-94015328D01*
X210305978Y-94166150D01*
X210355624Y-94329811D01*
X210373000Y-94506234D01*
X210373000Y-102243766D01*
X210355624Y-102420189D01*
X210305978Y-102583850D01*
X210225362Y-102734672D01*
X210116870Y-102866870D01*
X209984672Y-102975362D01*
X209833850Y-103055978D01*
X209670189Y-103105624D01*
X209493766Y-103123000D01*
X201256234Y-103123000D01*
X201079811Y-103105624D01*
X200916150Y-103055978D01*
X200765328Y-102975362D01*
X200633130Y-102866870D01*
X200524638Y-102734672D01*
X200444022Y-102583850D01*
X200394376Y-102420189D01*
X200377000Y-102243766D01*
X200377000Y-100256234D01*
X200394376Y-100079811D01*
X200444022Y-99916150D01*
X200524638Y-99765328D01*
X200633130Y-99633130D01*
X200765328Y-99524638D01*
X200916150Y-99444022D01*
X201079811Y-99394376D01*
X201256234Y-99377000D01*
X205500000Y-99377000D01*
X205512448Y-99376388D01*
X205707538Y-99357173D01*
X205731956Y-99352317D01*
X205919549Y-99295412D01*
X205942550Y-99285884D01*
X206115437Y-99193474D01*
X206136138Y-99179642D01*
X206287675Y-99055279D01*
X206305279Y-99037675D01*
X206429642Y-98886138D01*
X206443474Y-98865437D01*
X206535884Y-98692550D01*
X206545412Y-98669549D01*
X206602317Y-98481956D01*
X206607173Y-98457538D01*
X206626388Y-98262448D01*
X206627000Y-98250000D01*
X206627000Y-94506234D01*
X206644376Y-94329811D01*
X206694022Y-94166150D01*
X206774638Y-94015328D01*
X206883130Y-93883130D01*
X207015328Y-93774638D01*
X207166150Y-93694022D01*
X207329811Y-93644376D01*
X207506234Y-93627000D01*
X209493766Y-93627000D01*
X209670189Y-93644376D01*
G37*
X209670189Y-93644376D02*
X209833850Y-93694022D01*
X209984672Y-93774638D01*
X210116870Y-93883130D01*
X210225362Y-94015328D01*
X210305978Y-94166150D01*
X210355624Y-94329811D01*
X210373000Y-94506234D01*
X210373000Y-102243766D01*
X210355624Y-102420189D01*
X210305978Y-102583850D01*
X210225362Y-102734672D01*
X210116870Y-102866870D01*
X209984672Y-102975362D01*
X209833850Y-103055978D01*
X209670189Y-103105624D01*
X209493766Y-103123000D01*
X201256234Y-103123000D01*
X201079811Y-103105624D01*
X200916150Y-103055978D01*
X200765328Y-102975362D01*
X200633130Y-102866870D01*
X200524638Y-102734672D01*
X200444022Y-102583850D01*
X200394376Y-102420189D01*
X200377000Y-102243766D01*
X200377000Y-100256234D01*
X200394376Y-100079811D01*
X200444022Y-99916150D01*
X200524638Y-99765328D01*
X200633130Y-99633130D01*
X200765328Y-99524638D01*
X200916150Y-99444022D01*
X201079811Y-99394376D01*
X201256234Y-99377000D01*
X205500000Y-99377000D01*
X205512448Y-99376388D01*
X205707538Y-99357173D01*
X205731956Y-99352317D01*
X205919549Y-99295412D01*
X205942550Y-99285884D01*
X206115437Y-99193474D01*
X206136138Y-99179642D01*
X206287675Y-99055279D01*
X206305279Y-99037675D01*
X206429642Y-98886138D01*
X206443474Y-98865437D01*
X206535884Y-98692550D01*
X206545412Y-98669549D01*
X206602317Y-98481956D01*
X206607173Y-98457538D01*
X206626388Y-98262448D01*
X206627000Y-98250000D01*
X206627000Y-94506234D01*
X206644376Y-94329811D01*
X206694022Y-94166150D01*
X206774638Y-94015328D01*
X206883130Y-93883130D01*
X207015328Y-93774638D01*
X207166150Y-93694022D01*
X207329811Y-93644376D01*
X207506234Y-93627000D01*
X209493766Y-93627000D01*
X209670189Y-93644376D01*
G36*
X225725362Y-88015328D02*
G01*
X225805978Y-88166150D01*
X225855624Y-88329811D01*
X225873000Y-88506234D01*
X225873000Y-97993766D01*
X225855624Y-98170189D01*
X225805978Y-98333850D01*
X225725362Y-98484672D01*
X225616870Y-98616870D01*
X225484672Y-98725362D01*
X225333850Y-98805978D01*
X225170189Y-98855624D01*
X224993766Y-98873000D01*
X213756234Y-98873000D01*
X213579811Y-98855624D01*
X213416150Y-98805978D01*
X213265328Y-98725362D01*
X213133130Y-98616870D01*
X213024638Y-98484672D01*
X212944022Y-98333850D01*
X212894376Y-98170189D01*
X212877000Y-97993766D01*
X212877000Y-93250000D01*
X212876388Y-93237552D01*
X212857173Y-93042462D01*
X212852317Y-93018044D01*
X212795412Y-92830451D01*
X212785884Y-92807450D01*
X212693474Y-92634563D01*
X212679642Y-92613862D01*
X212555279Y-92462325D01*
X212537675Y-92444721D01*
X212386138Y-92320358D01*
X212365437Y-92306526D01*
X212192550Y-92214116D01*
X212169549Y-92204588D01*
X211981956Y-92147683D01*
X211957538Y-92142827D01*
X211762448Y-92123612D01*
X211750000Y-92123000D01*
X204500000Y-92123000D01*
X204487552Y-92123612D01*
X204292462Y-92142827D01*
X204268044Y-92147683D01*
X204080451Y-92204588D01*
X204057450Y-92214116D01*
X203884563Y-92306526D01*
X203863862Y-92320358D01*
X203712325Y-92444721D01*
X203694721Y-92462325D01*
X203570358Y-92613862D01*
X203556526Y-92634563D01*
X203464116Y-92807450D01*
X203454588Y-92830451D01*
X203397683Y-93018044D01*
X203392827Y-93042462D01*
X203373612Y-93237552D01*
X203373000Y-93250000D01*
X203373000Y-96243766D01*
X203355624Y-96420189D01*
X203305978Y-96583850D01*
X203225362Y-96734672D01*
X203116870Y-96866870D01*
X202984672Y-96975362D01*
X202833850Y-97055978D01*
X202670189Y-97105624D01*
X202493766Y-97123000D01*
X198625000Y-97123000D01*
X198610781Y-97123799D01*
X198416075Y-97145737D01*
X198388349Y-97152065D01*
X198203407Y-97216779D01*
X198177784Y-97229118D01*
X198011878Y-97333363D01*
X197989643Y-97351094D01*
X197851094Y-97489643D01*
X197833363Y-97511878D01*
X197729118Y-97677784D01*
X197716779Y-97703407D01*
X197652065Y-97888349D01*
X197645737Y-97916075D01*
X197603463Y-98291266D01*
X197548202Y-98449195D01*
X197459184Y-98590867D01*
X197340867Y-98709184D01*
X197199195Y-98798202D01*
X197041266Y-98853463D01*
X196867872Y-98873000D01*
X191756234Y-98873000D01*
X191579811Y-98855624D01*
X191416150Y-98805978D01*
X191265328Y-98725362D01*
X191133130Y-98616870D01*
X191024638Y-98484672D01*
X190944022Y-98333850D01*
X190894376Y-98170189D01*
X190877000Y-97993766D01*
X190877000Y-88506234D01*
X190894376Y-88329811D01*
X190944022Y-88166150D01*
X191024638Y-88015328D01*
X191097127Y-87927000D01*
X225652873Y-87927000D01*
X225725362Y-88015328D01*
G37*
X225725362Y-88015328D02*
X225805978Y-88166150D01*
X225855624Y-88329811D01*
X225873000Y-88506234D01*
X225873000Y-97993766D01*
X225855624Y-98170189D01*
X225805978Y-98333850D01*
X225725362Y-98484672D01*
X225616870Y-98616870D01*
X225484672Y-98725362D01*
X225333850Y-98805978D01*
X225170189Y-98855624D01*
X224993766Y-98873000D01*
X213756234Y-98873000D01*
X213579811Y-98855624D01*
X213416150Y-98805978D01*
X213265328Y-98725362D01*
X213133130Y-98616870D01*
X213024638Y-98484672D01*
X212944022Y-98333850D01*
X212894376Y-98170189D01*
X212877000Y-97993766D01*
X212877000Y-93250000D01*
X212876388Y-93237552D01*
X212857173Y-93042462D01*
X212852317Y-93018044D01*
X212795412Y-92830451D01*
X212785884Y-92807450D01*
X212693474Y-92634563D01*
X212679642Y-92613862D01*
X212555279Y-92462325D01*
X212537675Y-92444721D01*
X212386138Y-92320358D01*
X212365437Y-92306526D01*
X212192550Y-92214116D01*
X212169549Y-92204588D01*
X211981956Y-92147683D01*
X211957538Y-92142827D01*
X211762448Y-92123612D01*
X211750000Y-92123000D01*
X204500000Y-92123000D01*
X204487552Y-92123612D01*
X204292462Y-92142827D01*
X204268044Y-92147683D01*
X204080451Y-92204588D01*
X204057450Y-92214116D01*
X203884563Y-92306526D01*
X203863862Y-92320358D01*
X203712325Y-92444721D01*
X203694721Y-92462325D01*
X203570358Y-92613862D01*
X203556526Y-92634563D01*
X203464116Y-92807450D01*
X203454588Y-92830451D01*
X203397683Y-93018044D01*
X203392827Y-93042462D01*
X203373612Y-93237552D01*
X203373000Y-93250000D01*
X203373000Y-96243766D01*
X203355624Y-96420189D01*
X203305978Y-96583850D01*
X203225362Y-96734672D01*
X203116870Y-96866870D01*
X202984672Y-96975362D01*
X202833850Y-97055978D01*
X202670189Y-97105624D01*
X202493766Y-97123000D01*
X198625000Y-97123000D01*
X198610781Y-97123799D01*
X198416075Y-97145737D01*
X198388349Y-97152065D01*
X198203407Y-97216779D01*
X198177784Y-97229118D01*
X198011878Y-97333363D01*
X197989643Y-97351094D01*
X197851094Y-97489643D01*
X197833363Y-97511878D01*
X197729118Y-97677784D01*
X197716779Y-97703407D01*
X197652065Y-97888349D01*
X197645737Y-97916075D01*
X197603463Y-98291266D01*
X197548202Y-98449195D01*
X197459184Y-98590867D01*
X197340867Y-98709184D01*
X197199195Y-98798202D01*
X197041266Y-98853463D01*
X196867872Y-98873000D01*
X191756234Y-98873000D01*
X191579811Y-98855624D01*
X191416150Y-98805978D01*
X191265328Y-98725362D01*
X191133130Y-98616870D01*
X191024638Y-98484672D01*
X190944022Y-98333850D01*
X190894376Y-98170189D01*
X190877000Y-97993766D01*
X190877000Y-88506234D01*
X190894376Y-88329811D01*
X190944022Y-88166150D01*
X191024638Y-88015328D01*
X191097127Y-87927000D01*
X225652873Y-87927000D01*
X225725362Y-88015328D01*
G36*
X274420189Y-118394376D02*
G01*
X274583850Y-118444022D01*
X274734672Y-118524638D01*
X274866870Y-118633130D01*
X274975362Y-118765328D01*
X275055978Y-118916150D01*
X275105624Y-119079811D01*
X275123000Y-119256234D01*
X275123000Y-132743766D01*
X275105624Y-132920189D01*
X275055978Y-133083850D01*
X274975362Y-133234672D01*
X274902873Y-133323000D01*
X267097127Y-133323000D01*
X267024638Y-133234672D01*
X266944022Y-133083850D01*
X266894376Y-132920189D01*
X266877000Y-132743766D01*
X266877000Y-119256234D01*
X266894376Y-119079811D01*
X266944022Y-118916150D01*
X267024638Y-118765328D01*
X267133130Y-118633130D01*
X267265328Y-118524638D01*
X267416150Y-118444022D01*
X267579811Y-118394376D01*
X267756234Y-118377000D01*
X274243766Y-118377000D01*
X274420189Y-118394376D01*
G37*
X274420189Y-118394376D02*
X274583850Y-118444022D01*
X274734672Y-118524638D01*
X274866870Y-118633130D01*
X274975362Y-118765328D01*
X275055978Y-118916150D01*
X275105624Y-119079811D01*
X275123000Y-119256234D01*
X275123000Y-132743766D01*
X275105624Y-132920189D01*
X275055978Y-133083850D01*
X274975362Y-133234672D01*
X274902873Y-133323000D01*
X267097127Y-133323000D01*
X267024638Y-133234672D01*
X266944022Y-133083850D01*
X266894376Y-132920189D01*
X266877000Y-132743766D01*
X266877000Y-119256234D01*
X266894376Y-119079811D01*
X266944022Y-118916150D01*
X267024638Y-118765328D01*
X267133130Y-118633130D01*
X267265328Y-118524638D01*
X267416150Y-118444022D01*
X267579811Y-118394376D01*
X267756234Y-118377000D01*
X274243766Y-118377000D01*
X274420189Y-118394376D01*
G36*
X224420189Y-118394376D02*
G01*
X224583850Y-118444022D01*
X224734672Y-118524638D01*
X224866870Y-118633130D01*
X224975362Y-118765328D01*
X225055978Y-118916150D01*
X225105624Y-119079811D01*
X225123000Y-119256234D01*
X225123000Y-132743766D01*
X225105624Y-132920189D01*
X225055978Y-133083850D01*
X224975362Y-133234672D01*
X224902873Y-133323000D01*
X217097127Y-133323000D01*
X217024638Y-133234672D01*
X216944022Y-133083850D01*
X216894376Y-132920189D01*
X216877000Y-132743766D01*
X216877000Y-119256234D01*
X216894376Y-119079811D01*
X216944022Y-118916150D01*
X217024638Y-118765328D01*
X217133130Y-118633130D01*
X217265328Y-118524638D01*
X217416150Y-118444022D01*
X217579811Y-118394376D01*
X217756234Y-118377000D01*
X224243766Y-118377000D01*
X224420189Y-118394376D01*
G37*
X224420189Y-118394376D02*
X224583850Y-118444022D01*
X224734672Y-118524638D01*
X224866870Y-118633130D01*
X224975362Y-118765328D01*
X225055978Y-118916150D01*
X225105624Y-119079811D01*
X225123000Y-119256234D01*
X225123000Y-132743766D01*
X225105624Y-132920189D01*
X225055978Y-133083850D01*
X224975362Y-133234672D01*
X224902873Y-133323000D01*
X217097127Y-133323000D01*
X217024638Y-133234672D01*
X216944022Y-133083850D01*
X216894376Y-132920189D01*
X216877000Y-132743766D01*
X216877000Y-119256234D01*
X216894376Y-119079811D01*
X216944022Y-118916150D01*
X217024638Y-118765328D01*
X217133130Y-118633130D01*
X217265328Y-118524638D01*
X217416150Y-118444022D01*
X217579811Y-118394376D01*
X217756234Y-118377000D01*
X224243766Y-118377000D01*
X224420189Y-118394376D01*
G36*
X214420189Y-118394376D02*
G01*
X214583850Y-118444022D01*
X214734672Y-118524638D01*
X214866870Y-118633130D01*
X214975362Y-118765328D01*
X215055978Y-118916150D01*
X215105624Y-119079811D01*
X215123000Y-119256234D01*
X215123000Y-132743766D01*
X215105624Y-132920189D01*
X215055978Y-133083850D01*
X214975362Y-133234672D01*
X214902873Y-133323000D01*
X207097127Y-133323000D01*
X207024638Y-133234672D01*
X206944022Y-133083850D01*
X206894376Y-132920189D01*
X206877000Y-132743766D01*
X206877000Y-119256234D01*
X206894376Y-119079811D01*
X206944022Y-118916150D01*
X207024638Y-118765328D01*
X207133130Y-118633130D01*
X207265328Y-118524638D01*
X207416150Y-118444022D01*
X207579811Y-118394376D01*
X207756234Y-118377000D01*
X214243766Y-118377000D01*
X214420189Y-118394376D01*
G37*
X214420189Y-118394376D02*
X214583850Y-118444022D01*
X214734672Y-118524638D01*
X214866870Y-118633130D01*
X214975362Y-118765328D01*
X215055978Y-118916150D01*
X215105624Y-119079811D01*
X215123000Y-119256234D01*
X215123000Y-132743766D01*
X215105624Y-132920189D01*
X215055978Y-133083850D01*
X214975362Y-133234672D01*
X214902873Y-133323000D01*
X207097127Y-133323000D01*
X207024638Y-133234672D01*
X206944022Y-133083850D01*
X206894376Y-132920189D01*
X206877000Y-132743766D01*
X206877000Y-119256234D01*
X206894376Y-119079811D01*
X206944022Y-118916150D01*
X207024638Y-118765328D01*
X207133130Y-118633130D01*
X207265328Y-118524638D01*
X207416150Y-118444022D01*
X207579811Y-118394376D01*
X207756234Y-118377000D01*
X214243766Y-118377000D01*
X214420189Y-118394376D01*
G36*
X168170189Y-118394376D02*
G01*
X168333850Y-118444022D01*
X168484672Y-118524638D01*
X168616870Y-118633130D01*
X168725362Y-118765328D01*
X168805978Y-118916150D01*
X168855624Y-119079811D01*
X168873000Y-119256234D01*
X168873000Y-132743766D01*
X168855624Y-132920189D01*
X168805978Y-133083850D01*
X168725362Y-133234672D01*
X168652873Y-133323000D01*
X160847127Y-133323000D01*
X160774638Y-133234672D01*
X160694022Y-133083850D01*
X160644376Y-132920189D01*
X160627000Y-132743766D01*
X160627000Y-119256234D01*
X160644376Y-119079811D01*
X160694022Y-118916150D01*
X160774638Y-118765328D01*
X160883130Y-118633130D01*
X161015328Y-118524638D01*
X161166150Y-118444022D01*
X161329811Y-118394376D01*
X161506234Y-118377000D01*
X167993766Y-118377000D01*
X168170189Y-118394376D01*
G37*
X168170189Y-118394376D02*
X168333850Y-118444022D01*
X168484672Y-118524638D01*
X168616870Y-118633130D01*
X168725362Y-118765328D01*
X168805978Y-118916150D01*
X168855624Y-119079811D01*
X168873000Y-119256234D01*
X168873000Y-132743766D01*
X168855624Y-132920189D01*
X168805978Y-133083850D01*
X168725362Y-133234672D01*
X168652873Y-133323000D01*
X160847127Y-133323000D01*
X160774638Y-133234672D01*
X160694022Y-133083850D01*
X160644376Y-132920189D01*
X160627000Y-132743766D01*
X160627000Y-119256234D01*
X160644376Y-119079811D01*
X160694022Y-118916150D01*
X160774638Y-118765328D01*
X160883130Y-118633130D01*
X161015328Y-118524638D01*
X161166150Y-118444022D01*
X161329811Y-118394376D01*
X161506234Y-118377000D01*
X167993766Y-118377000D01*
X168170189Y-118394376D01*
G36*
X275725362Y-88015328D02*
G01*
X275805978Y-88166150D01*
X275855624Y-88329811D01*
X275873000Y-88506234D01*
X275873000Y-97993766D01*
X275855624Y-98170189D01*
X275805978Y-98333850D01*
X275725362Y-98484672D01*
X275616870Y-98616870D01*
X275484672Y-98725362D01*
X275333850Y-98805978D01*
X275170189Y-98855624D01*
X274993766Y-98873000D01*
X263756234Y-98873000D01*
X263579811Y-98855624D01*
X263416150Y-98805978D01*
X263265328Y-98725362D01*
X263133130Y-98616870D01*
X263024638Y-98484672D01*
X262944022Y-98333850D01*
X262894376Y-98170189D01*
X262877000Y-97993766D01*
X262877000Y-93250000D01*
X262876388Y-93237552D01*
X262857173Y-93042462D01*
X262852317Y-93018044D01*
X262795412Y-92830451D01*
X262785884Y-92807450D01*
X262693474Y-92634563D01*
X262679642Y-92613862D01*
X262555279Y-92462325D01*
X262537675Y-92444721D01*
X262386138Y-92320358D01*
X262365437Y-92306526D01*
X262192550Y-92214116D01*
X262169549Y-92204588D01*
X261981956Y-92147683D01*
X261957538Y-92142827D01*
X261762448Y-92123612D01*
X261750000Y-92123000D01*
X254500000Y-92123000D01*
X254487552Y-92123612D01*
X254292462Y-92142827D01*
X254268044Y-92147683D01*
X254080451Y-92204588D01*
X254057450Y-92214116D01*
X253884563Y-92306526D01*
X253863862Y-92320358D01*
X253712325Y-92444721D01*
X253694721Y-92462325D01*
X253570358Y-92613862D01*
X253556526Y-92634563D01*
X253464116Y-92807450D01*
X253454588Y-92830451D01*
X253397683Y-93018044D01*
X253392827Y-93042462D01*
X253373612Y-93237552D01*
X253373000Y-93250000D01*
X253373000Y-96243766D01*
X253355624Y-96420189D01*
X253305978Y-96583850D01*
X253225362Y-96734672D01*
X253116870Y-96866870D01*
X252984672Y-96975362D01*
X252833850Y-97055978D01*
X252670189Y-97105624D01*
X252493766Y-97123000D01*
X248625000Y-97123000D01*
X248610781Y-97123799D01*
X248416075Y-97145737D01*
X248388349Y-97152065D01*
X248203407Y-97216779D01*
X248177784Y-97229118D01*
X248011878Y-97333363D01*
X247989643Y-97351094D01*
X247851094Y-97489643D01*
X247833363Y-97511878D01*
X247729118Y-97677784D01*
X247716779Y-97703407D01*
X247652065Y-97888349D01*
X247645737Y-97916075D01*
X247603463Y-98291266D01*
X247548202Y-98449195D01*
X247459184Y-98590867D01*
X247340867Y-98709184D01*
X247199195Y-98798202D01*
X247041266Y-98853463D01*
X246867872Y-98873000D01*
X241756234Y-98873000D01*
X241579811Y-98855624D01*
X241416150Y-98805978D01*
X241265328Y-98725362D01*
X241133130Y-98616870D01*
X241024638Y-98484672D01*
X240944022Y-98333850D01*
X240894376Y-98170189D01*
X240877000Y-97993766D01*
X240877000Y-88506234D01*
X240894376Y-88329811D01*
X240944022Y-88166150D01*
X241024638Y-88015328D01*
X241097127Y-87927000D01*
X275652873Y-87927000D01*
X275725362Y-88015328D01*
G37*
X275725362Y-88015328D02*
X275805978Y-88166150D01*
X275855624Y-88329811D01*
X275873000Y-88506234D01*
X275873000Y-97993766D01*
X275855624Y-98170189D01*
X275805978Y-98333850D01*
X275725362Y-98484672D01*
X275616870Y-98616870D01*
X275484672Y-98725362D01*
X275333850Y-98805978D01*
X275170189Y-98855624D01*
X274993766Y-98873000D01*
X263756234Y-98873000D01*
X263579811Y-98855624D01*
X263416150Y-98805978D01*
X263265328Y-98725362D01*
X263133130Y-98616870D01*
X263024638Y-98484672D01*
X262944022Y-98333850D01*
X262894376Y-98170189D01*
X262877000Y-97993766D01*
X262877000Y-93250000D01*
X262876388Y-93237552D01*
X262857173Y-93042462D01*
X262852317Y-93018044D01*
X262795412Y-92830451D01*
X262785884Y-92807450D01*
X262693474Y-92634563D01*
X262679642Y-92613862D01*
X262555279Y-92462325D01*
X262537675Y-92444721D01*
X262386138Y-92320358D01*
X262365437Y-92306526D01*
X262192550Y-92214116D01*
X262169549Y-92204588D01*
X261981956Y-92147683D01*
X261957538Y-92142827D01*
X261762448Y-92123612D01*
X261750000Y-92123000D01*
X254500000Y-92123000D01*
X254487552Y-92123612D01*
X254292462Y-92142827D01*
X254268044Y-92147683D01*
X254080451Y-92204588D01*
X254057450Y-92214116D01*
X253884563Y-92306526D01*
X253863862Y-92320358D01*
X253712325Y-92444721D01*
X253694721Y-92462325D01*
X253570358Y-92613862D01*
X253556526Y-92634563D01*
X253464116Y-92807450D01*
X253454588Y-92830451D01*
X253397683Y-93018044D01*
X253392827Y-93042462D01*
X253373612Y-93237552D01*
X253373000Y-93250000D01*
X253373000Y-96243766D01*
X253355624Y-96420189D01*
X253305978Y-96583850D01*
X253225362Y-96734672D01*
X253116870Y-96866870D01*
X252984672Y-96975362D01*
X252833850Y-97055978D01*
X252670189Y-97105624D01*
X252493766Y-97123000D01*
X248625000Y-97123000D01*
X248610781Y-97123799D01*
X248416075Y-97145737D01*
X248388349Y-97152065D01*
X248203407Y-97216779D01*
X248177784Y-97229118D01*
X248011878Y-97333363D01*
X247989643Y-97351094D01*
X247851094Y-97489643D01*
X247833363Y-97511878D01*
X247729118Y-97677784D01*
X247716779Y-97703407D01*
X247652065Y-97888349D01*
X247645737Y-97916075D01*
X247603463Y-98291266D01*
X247548202Y-98449195D01*
X247459184Y-98590867D01*
X247340867Y-98709184D01*
X247199195Y-98798202D01*
X247041266Y-98853463D01*
X246867872Y-98873000D01*
X241756234Y-98873000D01*
X241579811Y-98855624D01*
X241416150Y-98805978D01*
X241265328Y-98725362D01*
X241133130Y-98616870D01*
X241024638Y-98484672D01*
X240944022Y-98333850D01*
X240894376Y-98170189D01*
X240877000Y-97993766D01*
X240877000Y-88506234D01*
X240894376Y-88329811D01*
X240944022Y-88166150D01*
X241024638Y-88015328D01*
X241097127Y-87927000D01*
X275652873Y-87927000D01*
X275725362Y-88015328D01*
G36*
X259670189Y-93644376D02*
G01*
X259833850Y-93694022D01*
X259984672Y-93774638D01*
X260116870Y-93883130D01*
X260225362Y-94015328D01*
X260305978Y-94166150D01*
X260355624Y-94329811D01*
X260373000Y-94506234D01*
X260373000Y-102243766D01*
X260355624Y-102420189D01*
X260305978Y-102583850D01*
X260225362Y-102734672D01*
X260116870Y-102866870D01*
X259984672Y-102975362D01*
X259833850Y-103055978D01*
X259670189Y-103105624D01*
X259493766Y-103123000D01*
X251256234Y-103123000D01*
X251079811Y-103105624D01*
X250916150Y-103055978D01*
X250765328Y-102975362D01*
X250633130Y-102866870D01*
X250524638Y-102734672D01*
X250444022Y-102583850D01*
X250394376Y-102420189D01*
X250377000Y-102243766D01*
X250377000Y-100256234D01*
X250394376Y-100079811D01*
X250444022Y-99916150D01*
X250524638Y-99765328D01*
X250633130Y-99633130D01*
X250765328Y-99524638D01*
X250916150Y-99444022D01*
X251079811Y-99394376D01*
X251256234Y-99377000D01*
X255500000Y-99377000D01*
X255512448Y-99376388D01*
X255707538Y-99357173D01*
X255731956Y-99352317D01*
X255919549Y-99295412D01*
X255942550Y-99285884D01*
X256115437Y-99193474D01*
X256136138Y-99179642D01*
X256287675Y-99055279D01*
X256305279Y-99037675D01*
X256429642Y-98886138D01*
X256443474Y-98865437D01*
X256535884Y-98692550D01*
X256545412Y-98669549D01*
X256602317Y-98481956D01*
X256607173Y-98457538D01*
X256626388Y-98262448D01*
X256627000Y-98250000D01*
X256627000Y-94506234D01*
X256644376Y-94329811D01*
X256694022Y-94166150D01*
X256774638Y-94015328D01*
X256883130Y-93883130D01*
X257015328Y-93774638D01*
X257166150Y-93694022D01*
X257329811Y-93644376D01*
X257506234Y-93627000D01*
X259493766Y-93627000D01*
X259670189Y-93644376D01*
G37*
X259670189Y-93644376D02*
X259833850Y-93694022D01*
X259984672Y-93774638D01*
X260116870Y-93883130D01*
X260225362Y-94015328D01*
X260305978Y-94166150D01*
X260355624Y-94329811D01*
X260373000Y-94506234D01*
X260373000Y-102243766D01*
X260355624Y-102420189D01*
X260305978Y-102583850D01*
X260225362Y-102734672D01*
X260116870Y-102866870D01*
X259984672Y-102975362D01*
X259833850Y-103055978D01*
X259670189Y-103105624D01*
X259493766Y-103123000D01*
X251256234Y-103123000D01*
X251079811Y-103105624D01*
X250916150Y-103055978D01*
X250765328Y-102975362D01*
X250633130Y-102866870D01*
X250524638Y-102734672D01*
X250444022Y-102583850D01*
X250394376Y-102420189D01*
X250377000Y-102243766D01*
X250377000Y-100256234D01*
X250394376Y-100079811D01*
X250444022Y-99916150D01*
X250524638Y-99765328D01*
X250633130Y-99633130D01*
X250765328Y-99524638D01*
X250916150Y-99444022D01*
X251079811Y-99394376D01*
X251256234Y-99377000D01*
X255500000Y-99377000D01*
X255512448Y-99376388D01*
X255707538Y-99357173D01*
X255731956Y-99352317D01*
X255919549Y-99295412D01*
X255942550Y-99285884D01*
X256115437Y-99193474D01*
X256136138Y-99179642D01*
X256287675Y-99055279D01*
X256305279Y-99037675D01*
X256429642Y-98886138D01*
X256443474Y-98865437D01*
X256535884Y-98692550D01*
X256545412Y-98669549D01*
X256602317Y-98481956D01*
X256607173Y-98457538D01*
X256626388Y-98262448D01*
X256627000Y-98250000D01*
X256627000Y-94506234D01*
X256644376Y-94329811D01*
X256694022Y-94166150D01*
X256774638Y-94015328D01*
X256883130Y-93883130D01*
X257015328Y-93774638D01*
X257166150Y-93694022D01*
X257329811Y-93644376D01*
X257506234Y-93627000D01*
X259493766Y-93627000D01*
X259670189Y-93644376D01*
M02*
