G04 #@! TF.GenerationSoftware,KiCad,Pcbnew,5.1.5-1.fc30*
G04 #@! TF.CreationDate,2021-07-16T22:34:16+03:00*
G04 #@! TF.ProjectId,light,6c696768-742e-46b6-9963-61645f706362,rev?*
G04 #@! TF.SameCoordinates,Original*
G04 #@! TF.FileFunction,Legend,Top*
G04 #@! TF.FilePolarity,Positive*
%FSLAX46Y46*%
G04 Gerber Fmt 4.6, Leading zero omitted, Abs format (unit mm)*
G04 Created by KiCad (PCBNEW 5.1.5-1.fc30) date 2021-07-16 22:34:16*
%MOMM*%
%LPD*%
G04 APERTURE LIST*
%ADD10C,0.120000*%
%ADD11C,0.127000*%
%ADD12C,0.200000*%
%ADD13C,0.150000*%
%ADD14C,0.015000*%
G04 APERTURE END LIST*
D10*
X253120000Y-103870000D02*
X250380000Y-103870000D01*
X253120000Y-93630000D02*
X250380000Y-93630000D01*
X250380000Y-93630000D02*
X250380000Y-103870000D01*
X253120000Y-93630000D02*
X253120000Y-103870000D01*
X146870000Y-103870000D02*
X144130000Y-103870000D01*
X146870000Y-93630000D02*
X144130000Y-93630000D01*
X144130000Y-93630000D02*
X144130000Y-103870000D01*
X146870000Y-93630000D02*
X146870000Y-103870000D01*
X203120000Y-93630000D02*
X203120000Y-103870000D01*
X200380000Y-93630000D02*
X200380000Y-103870000D01*
X203120000Y-93630000D02*
X200380000Y-93630000D01*
X203120000Y-103870000D02*
X200380000Y-103870000D01*
D11*
X205850000Y-92600000D02*
X226150000Y-92600000D01*
X226150000Y-92600000D02*
X226150000Y-124400000D01*
X226150000Y-124400000D02*
X205850000Y-124400000D01*
X205850000Y-124400000D02*
X205850000Y-92600000D01*
D12*
X205200000Y-94300000D02*
G75*
G03X205200000Y-94300000I-100000J0D01*
G01*
X148950000Y-94300000D02*
G75*
G03X148950000Y-94300000I-100000J0D01*
G01*
D11*
X149600000Y-124400000D02*
X149600000Y-92600000D01*
X169900000Y-124400000D02*
X149600000Y-124400000D01*
X169900000Y-92600000D02*
X169900000Y-124400000D01*
X149600000Y-92600000D02*
X169900000Y-92600000D01*
D12*
X255200000Y-94300000D02*
G75*
G03X255200000Y-94300000I-100000J0D01*
G01*
D11*
X255850000Y-124400000D02*
X255850000Y-92600000D01*
X276150000Y-124400000D02*
X255850000Y-124400000D01*
X276150000Y-92600000D02*
X276150000Y-124400000D01*
X255850000Y-92600000D02*
X276150000Y-92600000D01*
D10*
X253120000Y-24880000D02*
X253120000Y-35120000D01*
X250380000Y-24880000D02*
X250380000Y-35120000D01*
X253120000Y-24880000D02*
X250380000Y-24880000D01*
X253120000Y-35120000D02*
X250380000Y-35120000D01*
D11*
X255850000Y-23850000D02*
X276150000Y-23850000D01*
X276150000Y-23850000D02*
X276150000Y-55650000D01*
X276150000Y-55650000D02*
X255850000Y-55650000D01*
X255850000Y-55650000D02*
X255850000Y-23850000D01*
D12*
X255200000Y-25550000D02*
G75*
G03X255200000Y-25550000I-100000J0D01*
G01*
X205200000Y-25550000D02*
G75*
G03X205200000Y-25550000I-100000J0D01*
G01*
D11*
X205850000Y-55650000D02*
X205850000Y-23850000D01*
X226150000Y-55650000D02*
X205850000Y-55650000D01*
X226150000Y-23850000D02*
X226150000Y-55650000D01*
X205850000Y-23850000D02*
X226150000Y-23850000D01*
D10*
X203120000Y-35120000D02*
X200380000Y-35120000D01*
X203120000Y-24880000D02*
X200380000Y-24880000D01*
X200380000Y-24880000D02*
X200380000Y-35120000D01*
X203120000Y-24880000D02*
X203120000Y-35120000D01*
X146870000Y-24880000D02*
X146870000Y-35120000D01*
X144130000Y-24880000D02*
X144130000Y-35120000D01*
X146870000Y-24880000D02*
X144130000Y-24880000D01*
X146870000Y-35120000D02*
X144130000Y-35120000D01*
D11*
X149600000Y-23850000D02*
X169900000Y-23850000D01*
X169900000Y-23850000D02*
X169900000Y-55650000D01*
X169900000Y-55650000D02*
X149600000Y-55650000D01*
X149600000Y-55650000D02*
X149600000Y-23850000D01*
D12*
X148950000Y-25550000D02*
G75*
G03X148950000Y-25550000I-100000J0D01*
G01*
D10*
X94620000Y-24880000D02*
X94620000Y-35120000D01*
X91880000Y-24880000D02*
X91880000Y-35120000D01*
X94620000Y-24880000D02*
X91880000Y-24880000D01*
X94620000Y-35120000D02*
X91880000Y-35120000D01*
D11*
X97350000Y-23850000D02*
X117650000Y-23850000D01*
X117650000Y-23850000D02*
X117650000Y-55650000D01*
X117650000Y-55650000D02*
X97350000Y-55650000D01*
X97350000Y-55650000D02*
X97350000Y-23850000D01*
D12*
X96700000Y-25550000D02*
G75*
G03X96700000Y-25550000I-100000J0D01*
G01*
D10*
X55641000Y-130980000D02*
X55641000Y-132490000D01*
X51940000Y-130980000D02*
X51940000Y-132490000D01*
X48670000Y-132490000D02*
X58910000Y-132490000D01*
X58910000Y-130980000D02*
X58910000Y-135621000D01*
X48670000Y-130980000D02*
X48670000Y-135621000D01*
X48670000Y-135621000D02*
X58910000Y-135621000D01*
X48670000Y-130980000D02*
X58910000Y-130980000D01*
X37080000Y-164870000D02*
X35750000Y-164870000D01*
X37080000Y-163540000D02*
X37080000Y-164870000D01*
X34480000Y-164870000D02*
X31880000Y-164870000D01*
X34480000Y-162270000D02*
X34480000Y-164870000D01*
X37080000Y-162270000D02*
X34480000Y-162270000D01*
X31880000Y-164870000D02*
X31880000Y-144430000D01*
X37080000Y-162270000D02*
X37080000Y-144430000D01*
X37080000Y-144430000D02*
X31880000Y-144430000D01*
D12*
X40450000Y-25550000D02*
G75*
G03X40450000Y-25550000I-100000J0D01*
G01*
D11*
X41100000Y-55650000D02*
X41100000Y-23850000D01*
X61400000Y-55650000D02*
X41100000Y-55650000D01*
X61400000Y-23850000D02*
X61400000Y-55650000D01*
X41100000Y-23850000D02*
X61400000Y-23850000D01*
D10*
X46670000Y-157190000D02*
X46670000Y-158440000D01*
X56950000Y-157190000D02*
X46670000Y-157190000D01*
X56950000Y-161690000D02*
X56950000Y-157190000D01*
X46670000Y-161690000D02*
X56950000Y-161690000D01*
X46670000Y-160440000D02*
X46670000Y-161690000D01*
X46670000Y-158440000D02*
G75*
G02X46670000Y-160440000I0J-1000000D01*
G01*
X64500000Y-157130000D02*
X64500000Y-157900000D01*
X64500000Y-165210000D02*
X64500000Y-164440000D01*
X63130000Y-157900000D02*
X63130000Y-164440000D01*
X65870000Y-157900000D02*
X63130000Y-157900000D01*
X65870000Y-164440000D02*
X65870000Y-157900000D01*
X63130000Y-164440000D02*
X65870000Y-164440000D01*
X51620000Y-180500000D02*
X50850000Y-180500000D01*
X43540000Y-180500000D02*
X44310000Y-180500000D01*
X50850000Y-179130000D02*
X44310000Y-179130000D01*
X50850000Y-181870000D02*
X50850000Y-179130000D01*
X44310000Y-181870000D02*
X50850000Y-181870000D01*
X44310000Y-179130000D02*
X44310000Y-181870000D01*
X41500000Y-162870000D02*
X41500000Y-162100000D01*
X41500000Y-154790000D02*
X41500000Y-155560000D01*
X42870000Y-162100000D02*
X42870000Y-155560000D01*
X40130000Y-162100000D02*
X42870000Y-162100000D01*
X40130000Y-155560000D02*
X40130000Y-162100000D01*
X42870000Y-155560000D02*
X40130000Y-155560000D01*
X44790000Y-174380000D02*
X44790000Y-176620000D01*
X45030000Y-174380000D02*
X45030000Y-176620000D01*
X44910000Y-174380000D02*
X44910000Y-176620000D01*
X49080000Y-175500000D02*
X48430000Y-175500000D01*
X43540000Y-175500000D02*
X44190000Y-175500000D01*
X48430000Y-174380000D02*
X44190000Y-174380000D01*
X48430000Y-176620000D02*
X48430000Y-174380000D01*
X44190000Y-176620000D02*
X48430000Y-176620000D01*
X44190000Y-174380000D02*
X44190000Y-176620000D01*
X38370000Y-35120000D02*
X35630000Y-35120000D01*
X38370000Y-24880000D02*
X35630000Y-24880000D01*
X35630000Y-24880000D02*
X35630000Y-35120000D01*
X38370000Y-24880000D02*
X38370000Y-35120000D01*
X42936272Y-170593789D02*
X42936272Y-167853789D01*
X53176272Y-170593789D02*
X53176272Y-167853789D01*
X53176272Y-167853789D02*
X42936272Y-167853789D01*
X53176272Y-170593789D02*
X42936272Y-170593789D01*
X48880000Y-141620000D02*
X48880000Y-138880000D01*
X59120000Y-141620000D02*
X59120000Y-138880000D01*
X59120000Y-138880000D02*
X48880000Y-138880000D01*
X59120000Y-141620000D02*
X48880000Y-141620000D01*
X56759698Y-150215000D02*
X56759698Y-149415000D01*
X57159698Y-149815000D02*
X56359698Y-149815000D01*
X48669000Y-148033000D02*
X48669000Y-146967000D01*
X48709000Y-148268000D02*
X48709000Y-146732000D01*
X48749000Y-148448000D02*
X48749000Y-146552000D01*
X48789000Y-148598000D02*
X48789000Y-146402000D01*
X48829000Y-148729000D02*
X48829000Y-146271000D01*
X48869000Y-148846000D02*
X48869000Y-146154000D01*
X48909000Y-148953000D02*
X48909000Y-146047000D01*
X48949000Y-149052000D02*
X48949000Y-145948000D01*
X48989000Y-149145000D02*
X48989000Y-145855000D01*
X49029000Y-149231000D02*
X49029000Y-145769000D01*
X49069000Y-149313000D02*
X49069000Y-145687000D01*
X49109000Y-149390000D02*
X49109000Y-145610000D01*
X49149000Y-149464000D02*
X49149000Y-145536000D01*
X49189000Y-149534000D02*
X49189000Y-145466000D01*
X49229000Y-149602000D02*
X49229000Y-145398000D01*
X49269000Y-149666000D02*
X49269000Y-145334000D01*
X49309000Y-149728000D02*
X49309000Y-145272000D01*
X49349000Y-149787000D02*
X49349000Y-145213000D01*
X49389000Y-149845000D02*
X49389000Y-145155000D01*
X49429000Y-149900000D02*
X49429000Y-145100000D01*
X49469000Y-149954000D02*
X49469000Y-145046000D01*
X49509000Y-150005000D02*
X49509000Y-144995000D01*
X49549000Y-150056000D02*
X49549000Y-144944000D01*
X49589000Y-150104000D02*
X49589000Y-144896000D01*
X49629000Y-150151000D02*
X49629000Y-144849000D01*
X49669000Y-150197000D02*
X49669000Y-144803000D01*
X49709000Y-150241000D02*
X49709000Y-144759000D01*
X49749000Y-150284000D02*
X49749000Y-144716000D01*
X49789000Y-150326000D02*
X49789000Y-144674000D01*
X49829000Y-150367000D02*
X49829000Y-144633000D01*
X49869000Y-150407000D02*
X49869000Y-144593000D01*
X49909000Y-150445000D02*
X49909000Y-144555000D01*
X49949000Y-150483000D02*
X49949000Y-144517000D01*
X49989000Y-150519000D02*
X49989000Y-144481000D01*
X50029000Y-150555000D02*
X50029000Y-144445000D01*
X50069000Y-150590000D02*
X50069000Y-144410000D01*
X50109000Y-150624000D02*
X50109000Y-144376000D01*
X50149000Y-150656000D02*
X50149000Y-144344000D01*
X50189000Y-150689000D02*
X50189000Y-144311000D01*
X50229000Y-150720000D02*
X50229000Y-144280000D01*
X50269000Y-150750000D02*
X50269000Y-144250000D01*
X50309000Y-150780000D02*
X50309000Y-144220000D01*
X50349000Y-150809000D02*
X50349000Y-144191000D01*
X50389000Y-150838000D02*
X50389000Y-144162000D01*
X50429000Y-150865000D02*
X50429000Y-144135000D01*
X50469000Y-146460000D02*
X50469000Y-144108000D01*
X50469000Y-150892000D02*
X50469000Y-148540000D01*
X50509000Y-146460000D02*
X50509000Y-144082000D01*
X50509000Y-150918000D02*
X50509000Y-148540000D01*
X50549000Y-146460000D02*
X50549000Y-144056000D01*
X50549000Y-150944000D02*
X50549000Y-148540000D01*
X50589000Y-146460000D02*
X50589000Y-144031000D01*
X50589000Y-150969000D02*
X50589000Y-148540000D01*
X50629000Y-146460000D02*
X50629000Y-144007000D01*
X50629000Y-150993000D02*
X50629000Y-148540000D01*
X50669000Y-146460000D02*
X50669000Y-143983000D01*
X50669000Y-151017000D02*
X50669000Y-148540000D01*
X50709000Y-146460000D02*
X50709000Y-143960000D01*
X50709000Y-151040000D02*
X50709000Y-148540000D01*
X50749000Y-146460000D02*
X50749000Y-143938000D01*
X50749000Y-151062000D02*
X50749000Y-148540000D01*
X50789000Y-146460000D02*
X50789000Y-143916000D01*
X50789000Y-151084000D02*
X50789000Y-148540000D01*
X50829000Y-146460000D02*
X50829000Y-143894000D01*
X50829000Y-151106000D02*
X50829000Y-148540000D01*
X50869000Y-146460000D02*
X50869000Y-143873000D01*
X50869000Y-151127000D02*
X50869000Y-148540000D01*
X50909000Y-146460000D02*
X50909000Y-143853000D01*
X50909000Y-151147000D02*
X50909000Y-148540000D01*
X50949000Y-146460000D02*
X50949000Y-143834000D01*
X50949000Y-151166000D02*
X50949000Y-148540000D01*
X50989000Y-146460000D02*
X50989000Y-143814000D01*
X50989000Y-151186000D02*
X50989000Y-148540000D01*
X51029000Y-146460000D02*
X51029000Y-143796000D01*
X51029000Y-151204000D02*
X51029000Y-148540000D01*
X51069000Y-146460000D02*
X51069000Y-143778000D01*
X51069000Y-151222000D02*
X51069000Y-148540000D01*
X51109000Y-146460000D02*
X51109000Y-143760000D01*
X51109000Y-151240000D02*
X51109000Y-148540000D01*
X51149000Y-146460000D02*
X51149000Y-143743000D01*
X51149000Y-151257000D02*
X51149000Y-148540000D01*
X51189000Y-146460000D02*
X51189000Y-143726000D01*
X51189000Y-151274000D02*
X51189000Y-148540000D01*
X51229000Y-146460000D02*
X51229000Y-143710000D01*
X51229000Y-151290000D02*
X51229000Y-148540000D01*
X51269000Y-146460000D02*
X51269000Y-143695000D01*
X51269000Y-151305000D02*
X51269000Y-148540000D01*
X51309000Y-146460000D02*
X51309000Y-143679000D01*
X51309000Y-151321000D02*
X51309000Y-148540000D01*
X51349000Y-146460000D02*
X51349000Y-143665000D01*
X51349000Y-151335000D02*
X51349000Y-148540000D01*
X51389000Y-146460000D02*
X51389000Y-143650000D01*
X51389000Y-151350000D02*
X51389000Y-148540000D01*
X51429000Y-146460000D02*
X51429000Y-143637000D01*
X51429000Y-151363000D02*
X51429000Y-148540000D01*
X51469000Y-146460000D02*
X51469000Y-143623000D01*
X51469000Y-151377000D02*
X51469000Y-148540000D01*
X51509000Y-146460000D02*
X51509000Y-143611000D01*
X51509000Y-151389000D02*
X51509000Y-148540000D01*
X51549000Y-146460000D02*
X51549000Y-143598000D01*
X51549000Y-151402000D02*
X51549000Y-148540000D01*
X51589000Y-146460000D02*
X51589000Y-143586000D01*
X51589000Y-151414000D02*
X51589000Y-148540000D01*
X51629000Y-146460000D02*
X51629000Y-143575000D01*
X51629000Y-151425000D02*
X51629000Y-148540000D01*
X51669000Y-146460000D02*
X51669000Y-143564000D01*
X51669000Y-151436000D02*
X51669000Y-148540000D01*
X51709000Y-146460000D02*
X51709000Y-143553000D01*
X51709000Y-151447000D02*
X51709000Y-148540000D01*
X51749000Y-146460000D02*
X51749000Y-143543000D01*
X51749000Y-151457000D02*
X51749000Y-148540000D01*
X51789000Y-146460000D02*
X51789000Y-143533000D01*
X51789000Y-151467000D02*
X51789000Y-148540000D01*
X51829000Y-146460000D02*
X51829000Y-143524000D01*
X51829000Y-151476000D02*
X51829000Y-148540000D01*
X51869000Y-146460000D02*
X51869000Y-143515000D01*
X51869000Y-151485000D02*
X51869000Y-148540000D01*
X51909000Y-146460000D02*
X51909000Y-143506000D01*
X51909000Y-151494000D02*
X51909000Y-148540000D01*
X51949000Y-146460000D02*
X51949000Y-143498000D01*
X51949000Y-151502000D02*
X51949000Y-148540000D01*
X51989000Y-146460000D02*
X51989000Y-143490000D01*
X51989000Y-151510000D02*
X51989000Y-148540000D01*
X52029000Y-146460000D02*
X52029000Y-143483000D01*
X52029000Y-151517000D02*
X52029000Y-148540000D01*
X52070000Y-146460000D02*
X52070000Y-143476000D01*
X52070000Y-151524000D02*
X52070000Y-148540000D01*
X52110000Y-146460000D02*
X52110000Y-143470000D01*
X52110000Y-151530000D02*
X52110000Y-148540000D01*
X52150000Y-146460000D02*
X52150000Y-143463000D01*
X52150000Y-151537000D02*
X52150000Y-148540000D01*
X52190000Y-146460000D02*
X52190000Y-143458000D01*
X52190000Y-151542000D02*
X52190000Y-148540000D01*
X52230000Y-146460000D02*
X52230000Y-143452000D01*
X52230000Y-151548000D02*
X52230000Y-148540000D01*
X52270000Y-146460000D02*
X52270000Y-143448000D01*
X52270000Y-151552000D02*
X52270000Y-148540000D01*
X52310000Y-146460000D02*
X52310000Y-143443000D01*
X52310000Y-151557000D02*
X52310000Y-148540000D01*
X52350000Y-146460000D02*
X52350000Y-143439000D01*
X52350000Y-151561000D02*
X52350000Y-148540000D01*
X52390000Y-146460000D02*
X52390000Y-143435000D01*
X52390000Y-151565000D02*
X52390000Y-148540000D01*
X52430000Y-146460000D02*
X52430000Y-143432000D01*
X52430000Y-151568000D02*
X52430000Y-148540000D01*
X52470000Y-146460000D02*
X52470000Y-143429000D01*
X52470000Y-151571000D02*
X52470000Y-148540000D01*
X52510000Y-146460000D02*
X52510000Y-143426000D01*
X52510000Y-151574000D02*
X52510000Y-148540000D01*
X52550000Y-151576000D02*
X52550000Y-143424000D01*
X52590000Y-151577000D02*
X52590000Y-143423000D01*
X52630000Y-151579000D02*
X52630000Y-143421000D01*
X52670000Y-151580000D02*
X52670000Y-143420000D01*
X52710000Y-151580000D02*
X52710000Y-143420000D01*
X52750000Y-151580000D02*
X52750000Y-143420000D01*
X56870000Y-147500000D02*
G75*
G03X56870000Y-147500000I-4120000J0D01*
G01*
X61880000Y-128130000D02*
X64620000Y-128130000D01*
X61880000Y-138370000D02*
X64620000Y-138370000D01*
X64620000Y-138370000D02*
X64620000Y-128130000D01*
X61880000Y-138370000D02*
X61880000Y-128130000D01*
X42130000Y-127380000D02*
X44870000Y-127380000D01*
X42130000Y-137620000D02*
X44870000Y-137620000D01*
X44870000Y-137620000D02*
X44870000Y-127380000D01*
X42130000Y-137620000D02*
X42130000Y-127380000D01*
D13*
X254607142Y-99392857D02*
X254654761Y-99440476D01*
X254702380Y-99583333D01*
X254702380Y-99678571D01*
X254654761Y-99821428D01*
X254559523Y-99916666D01*
X254464285Y-99964285D01*
X254273809Y-100011904D01*
X254130952Y-100011904D01*
X253940476Y-99964285D01*
X253845238Y-99916666D01*
X253750000Y-99821428D01*
X253702380Y-99678571D01*
X253702380Y-99583333D01*
X253750000Y-99440476D01*
X253797619Y-99392857D01*
X254702380Y-98440476D02*
X254702380Y-99011904D01*
X254702380Y-98726190D02*
X253702380Y-98726190D01*
X253845238Y-98821428D01*
X253940476Y-98916666D01*
X253988095Y-99011904D01*
X253702380Y-98107142D02*
X253702380Y-97488095D01*
X254083333Y-97821428D01*
X254083333Y-97678571D01*
X254130952Y-97583333D01*
X254178571Y-97535714D01*
X254273809Y-97488095D01*
X254511904Y-97488095D01*
X254607142Y-97535714D01*
X254654761Y-97583333D01*
X254702380Y-97678571D01*
X254702380Y-97964285D01*
X254654761Y-98059523D01*
X254607142Y-98107142D01*
X148357142Y-99392857D02*
X148404761Y-99440476D01*
X148452380Y-99583333D01*
X148452380Y-99678571D01*
X148404761Y-99821428D01*
X148309523Y-99916666D01*
X148214285Y-99964285D01*
X148023809Y-100011904D01*
X147880952Y-100011904D01*
X147690476Y-99964285D01*
X147595238Y-99916666D01*
X147500000Y-99821428D01*
X147452380Y-99678571D01*
X147452380Y-99583333D01*
X147500000Y-99440476D01*
X147547619Y-99392857D01*
X148452380Y-98440476D02*
X148452380Y-99011904D01*
X148452380Y-98726190D02*
X147452380Y-98726190D01*
X147595238Y-98821428D01*
X147690476Y-98916666D01*
X147738095Y-99011904D01*
X148452380Y-97488095D02*
X148452380Y-98059523D01*
X148452380Y-97773809D02*
X147452380Y-97773809D01*
X147595238Y-97869047D01*
X147690476Y-97964285D01*
X147738095Y-98059523D01*
X147532380Y-117869523D02*
X148246666Y-117869523D01*
X148389523Y-117917142D01*
X148484761Y-118012380D01*
X148532380Y-118155238D01*
X148532380Y-118250476D01*
X148532380Y-116869523D02*
X148532380Y-117440952D01*
X148532380Y-117155238D02*
X147532380Y-117155238D01*
X147675238Y-117250476D01*
X147770476Y-117345714D01*
X147818095Y-117440952D01*
X148532380Y-116393333D02*
X148532380Y-116202857D01*
X148484761Y-116107619D01*
X148437142Y-116060000D01*
X148294285Y-115964761D01*
X148103809Y-115917142D01*
X147722857Y-115917142D01*
X147627619Y-115964761D01*
X147580000Y-116012380D01*
X147532380Y-116107619D01*
X147532380Y-116298095D01*
X147580000Y-116393333D01*
X147627619Y-116440952D01*
X147722857Y-116488571D01*
X147960952Y-116488571D01*
X148056190Y-116440952D01*
X148103809Y-116393333D01*
X148151428Y-116298095D01*
X148151428Y-116107619D01*
X148103809Y-116012380D01*
X148056190Y-115964761D01*
X147960952Y-115917142D01*
X243372380Y-91249523D02*
X244086666Y-91249523D01*
X244229523Y-91297142D01*
X244324761Y-91392380D01*
X244372380Y-91535238D01*
X244372380Y-91630476D01*
X243467619Y-90820952D02*
X243420000Y-90773333D01*
X243372380Y-90678095D01*
X243372380Y-90440000D01*
X243420000Y-90344761D01*
X243467619Y-90297142D01*
X243562857Y-90249523D01*
X243658095Y-90249523D01*
X243800952Y-90297142D01*
X244372380Y-90868571D01*
X244372380Y-90249523D01*
X243705714Y-89392380D02*
X244372380Y-89392380D01*
X243324761Y-89630476D02*
X244039047Y-89868571D01*
X244039047Y-89249523D01*
X193372380Y-91249523D02*
X194086666Y-91249523D01*
X194229523Y-91297142D01*
X194324761Y-91392380D01*
X194372380Y-91535238D01*
X194372380Y-91630476D01*
X193467619Y-90820952D02*
X193420000Y-90773333D01*
X193372380Y-90678095D01*
X193372380Y-90440000D01*
X193420000Y-90344761D01*
X193467619Y-90297142D01*
X193562857Y-90249523D01*
X193658095Y-90249523D01*
X193800952Y-90297142D01*
X194372380Y-90868571D01*
X194372380Y-90249523D01*
X194372380Y-89297142D02*
X194372380Y-89868571D01*
X194372380Y-89582857D02*
X193372380Y-89582857D01*
X193515238Y-89678095D01*
X193610476Y-89773333D01*
X193658095Y-89868571D01*
X203782380Y-117869523D02*
X204496666Y-117869523D01*
X204639523Y-117917142D01*
X204734761Y-118012380D01*
X204782380Y-118155238D01*
X204782380Y-118250476D01*
X203877619Y-117440952D02*
X203830000Y-117393333D01*
X203782380Y-117298095D01*
X203782380Y-117060000D01*
X203830000Y-116964761D01*
X203877619Y-116917142D01*
X203972857Y-116869523D01*
X204068095Y-116869523D01*
X204210952Y-116917142D01*
X204782380Y-117488571D01*
X204782380Y-116869523D01*
X203877619Y-116488571D02*
X203830000Y-116440952D01*
X203782380Y-116345714D01*
X203782380Y-116107619D01*
X203830000Y-116012380D01*
X203877619Y-115964761D01*
X203972857Y-115917142D01*
X204068095Y-115917142D01*
X204210952Y-115964761D01*
X204782380Y-116536190D01*
X204782380Y-115917142D01*
X159000476Y-124622380D02*
X159000476Y-125336666D01*
X158952857Y-125479523D01*
X158857619Y-125574761D01*
X158714761Y-125622380D01*
X158619523Y-125622380D01*
X159429047Y-124717619D02*
X159476666Y-124670000D01*
X159571904Y-124622380D01*
X159810000Y-124622380D01*
X159905238Y-124670000D01*
X159952857Y-124717619D01*
X160000476Y-124812857D01*
X160000476Y-124908095D01*
X159952857Y-125050952D01*
X159381428Y-125622380D01*
X160000476Y-125622380D01*
X160619523Y-124622380D02*
X160714761Y-124622380D01*
X160810000Y-124670000D01*
X160857619Y-124717619D01*
X160905238Y-124812857D01*
X160952857Y-125003333D01*
X160952857Y-125241428D01*
X160905238Y-125431904D01*
X160857619Y-125527142D01*
X160810000Y-125574761D01*
X160714761Y-125622380D01*
X160619523Y-125622380D01*
X160524285Y-125574761D01*
X160476666Y-125527142D01*
X160429047Y-125431904D01*
X160381428Y-125241428D01*
X160381428Y-125003333D01*
X160429047Y-124812857D01*
X160476666Y-124717619D01*
X160524285Y-124670000D01*
X160619523Y-124622380D01*
X204607142Y-99392857D02*
X204654761Y-99440476D01*
X204702380Y-99583333D01*
X204702380Y-99678571D01*
X204654761Y-99821428D01*
X204559523Y-99916666D01*
X204464285Y-99964285D01*
X204273809Y-100011904D01*
X204130952Y-100011904D01*
X203940476Y-99964285D01*
X203845238Y-99916666D01*
X203750000Y-99821428D01*
X203702380Y-99678571D01*
X203702380Y-99583333D01*
X203750000Y-99440476D01*
X203797619Y-99392857D01*
X204702380Y-98440476D02*
X204702380Y-99011904D01*
X204702380Y-98726190D02*
X203702380Y-98726190D01*
X203845238Y-98821428D01*
X203940476Y-98916666D01*
X203988095Y-99011904D01*
X203797619Y-98059523D02*
X203750000Y-98011904D01*
X203702380Y-97916666D01*
X203702380Y-97678571D01*
X203750000Y-97583333D01*
X203797619Y-97535714D01*
X203892857Y-97488095D01*
X203988095Y-97488095D01*
X204130952Y-97535714D01*
X204702380Y-98107142D01*
X204702380Y-97488095D01*
D14*
X208253095Y-90807380D02*
X208253095Y-91616904D01*
X208300714Y-91712142D01*
X208348333Y-91759761D01*
X208443571Y-91807380D01*
X208634047Y-91807380D01*
X208729285Y-91759761D01*
X208776904Y-91712142D01*
X208824523Y-91616904D01*
X208824523Y-90807380D01*
X209348333Y-91807380D02*
X209538809Y-91807380D01*
X209634047Y-91759761D01*
X209681666Y-91712142D01*
X209776904Y-91569285D01*
X209824523Y-91378809D01*
X209824523Y-90997857D01*
X209776904Y-90902619D01*
X209729285Y-90855000D01*
X209634047Y-90807380D01*
X209443571Y-90807380D01*
X209348333Y-90855000D01*
X209300714Y-90902619D01*
X209253095Y-90997857D01*
X209253095Y-91235952D01*
X209300714Y-91331190D01*
X209348333Y-91378809D01*
X209443571Y-91426428D01*
X209634047Y-91426428D01*
X209729285Y-91378809D01*
X209776904Y-91331190D01*
X209824523Y-91235952D01*
D13*
X253782380Y-117869523D02*
X254496666Y-117869523D01*
X254639523Y-117917142D01*
X254734761Y-118012380D01*
X254782380Y-118155238D01*
X254782380Y-118250476D01*
X253877619Y-117440952D02*
X253830000Y-117393333D01*
X253782380Y-117298095D01*
X253782380Y-117060000D01*
X253830000Y-116964761D01*
X253877619Y-116917142D01*
X253972857Y-116869523D01*
X254068095Y-116869523D01*
X254210952Y-116917142D01*
X254782380Y-117488571D01*
X254782380Y-116869523D01*
X253782380Y-115964761D02*
X253782380Y-116440952D01*
X254258571Y-116488571D01*
X254210952Y-116440952D01*
X254163333Y-116345714D01*
X254163333Y-116107619D01*
X254210952Y-116012380D01*
X254258571Y-115964761D01*
X254353809Y-115917142D01*
X254591904Y-115917142D01*
X254687142Y-115964761D01*
X254734761Y-116012380D01*
X254782380Y-116107619D01*
X254782380Y-116345714D01*
X254734761Y-116440952D01*
X254687142Y-116488571D01*
X215250476Y-124622380D02*
X215250476Y-125336666D01*
X215202857Y-125479523D01*
X215107619Y-125574761D01*
X214964761Y-125622380D01*
X214869523Y-125622380D01*
X215679047Y-124717619D02*
X215726666Y-124670000D01*
X215821904Y-124622380D01*
X216060000Y-124622380D01*
X216155238Y-124670000D01*
X216202857Y-124717619D01*
X216250476Y-124812857D01*
X216250476Y-124908095D01*
X216202857Y-125050952D01*
X215631428Y-125622380D01*
X216250476Y-125622380D01*
X216583809Y-124622380D02*
X217202857Y-124622380D01*
X216869523Y-125003333D01*
X217012380Y-125003333D01*
X217107619Y-125050952D01*
X217155238Y-125098571D01*
X217202857Y-125193809D01*
X217202857Y-125431904D01*
X217155238Y-125527142D01*
X217107619Y-125574761D01*
X217012380Y-125622380D01*
X216726666Y-125622380D01*
X216631428Y-125574761D01*
X216583809Y-125527142D01*
D14*
X152003095Y-90807380D02*
X152003095Y-91616904D01*
X152050714Y-91712142D01*
X152098333Y-91759761D01*
X152193571Y-91807380D01*
X152384047Y-91807380D01*
X152479285Y-91759761D01*
X152526904Y-91712142D01*
X152574523Y-91616904D01*
X152574523Y-90807380D01*
X153193571Y-91235952D02*
X153098333Y-91188333D01*
X153050714Y-91140714D01*
X153003095Y-91045476D01*
X153003095Y-90997857D01*
X153050714Y-90902619D01*
X153098333Y-90855000D01*
X153193571Y-90807380D01*
X153384047Y-90807380D01*
X153479285Y-90855000D01*
X153526904Y-90902619D01*
X153574523Y-90997857D01*
X153574523Y-91045476D01*
X153526904Y-91140714D01*
X153479285Y-91188333D01*
X153384047Y-91235952D01*
X153193571Y-91235952D01*
X153098333Y-91283571D01*
X153050714Y-91331190D01*
X153003095Y-91426428D01*
X153003095Y-91616904D01*
X153050714Y-91712142D01*
X153098333Y-91759761D01*
X153193571Y-91807380D01*
X153384047Y-91807380D01*
X153479285Y-91759761D01*
X153526904Y-91712142D01*
X153574523Y-91616904D01*
X153574523Y-91426428D01*
X153526904Y-91331190D01*
X153479285Y-91283571D01*
X153384047Y-91235952D01*
D13*
X137122380Y-91249523D02*
X137836666Y-91249523D01*
X137979523Y-91297142D01*
X138074761Y-91392380D01*
X138122380Y-91535238D01*
X138122380Y-91630476D01*
X138122380Y-90249523D02*
X138122380Y-90820952D01*
X138122380Y-90535238D02*
X137122380Y-90535238D01*
X137265238Y-90630476D01*
X137360476Y-90725714D01*
X137408095Y-90820952D01*
X137550952Y-89678095D02*
X137503333Y-89773333D01*
X137455714Y-89820952D01*
X137360476Y-89868571D01*
X137312857Y-89868571D01*
X137217619Y-89820952D01*
X137170000Y-89773333D01*
X137122380Y-89678095D01*
X137122380Y-89487619D01*
X137170000Y-89392380D01*
X137217619Y-89344761D01*
X137312857Y-89297142D01*
X137360476Y-89297142D01*
X137455714Y-89344761D01*
X137503333Y-89392380D01*
X137550952Y-89487619D01*
X137550952Y-89678095D01*
X137598571Y-89773333D01*
X137646190Y-89820952D01*
X137741428Y-89868571D01*
X137931904Y-89868571D01*
X138027142Y-89820952D01*
X138074761Y-89773333D01*
X138122380Y-89678095D01*
X138122380Y-89487619D01*
X138074761Y-89392380D01*
X138027142Y-89344761D01*
X137931904Y-89297142D01*
X137741428Y-89297142D01*
X137646190Y-89344761D01*
X137598571Y-89392380D01*
X137550952Y-89487619D01*
X265250476Y-124622380D02*
X265250476Y-125336666D01*
X265202857Y-125479523D01*
X265107619Y-125574761D01*
X264964761Y-125622380D01*
X264869523Y-125622380D01*
X265679047Y-124717619D02*
X265726666Y-124670000D01*
X265821904Y-124622380D01*
X266060000Y-124622380D01*
X266155238Y-124670000D01*
X266202857Y-124717619D01*
X266250476Y-124812857D01*
X266250476Y-124908095D01*
X266202857Y-125050952D01*
X265631428Y-125622380D01*
X266250476Y-125622380D01*
X267107619Y-124622380D02*
X266917142Y-124622380D01*
X266821904Y-124670000D01*
X266774285Y-124717619D01*
X266679047Y-124860476D01*
X266631428Y-125050952D01*
X266631428Y-125431904D01*
X266679047Y-125527142D01*
X266726666Y-125574761D01*
X266821904Y-125622380D01*
X267012380Y-125622380D01*
X267107619Y-125574761D01*
X267155238Y-125527142D01*
X267202857Y-125431904D01*
X267202857Y-125193809D01*
X267155238Y-125098571D01*
X267107619Y-125050952D01*
X267012380Y-125003333D01*
X266821904Y-125003333D01*
X266726666Y-125050952D01*
X266679047Y-125098571D01*
X266631428Y-125193809D01*
D14*
X257776904Y-90807380D02*
X257776904Y-91616904D01*
X257824523Y-91712142D01*
X257872142Y-91759761D01*
X257967380Y-91807380D01*
X258157857Y-91807380D01*
X258253095Y-91759761D01*
X258300714Y-91712142D01*
X258348333Y-91616904D01*
X258348333Y-90807380D01*
X259348333Y-91807380D02*
X258776904Y-91807380D01*
X259062619Y-91807380D02*
X259062619Y-90807380D01*
X258967380Y-90950238D01*
X258872142Y-91045476D01*
X258776904Y-91093095D01*
X259967380Y-90807380D02*
X260062619Y-90807380D01*
X260157857Y-90855000D01*
X260205476Y-90902619D01*
X260253095Y-90997857D01*
X260300714Y-91188333D01*
X260300714Y-91426428D01*
X260253095Y-91616904D01*
X260205476Y-91712142D01*
X260157857Y-91759761D01*
X260062619Y-91807380D01*
X259967380Y-91807380D01*
X259872142Y-91759761D01*
X259824523Y-91712142D01*
X259776904Y-91616904D01*
X259729285Y-91426428D01*
X259729285Y-91188333D01*
X259776904Y-90997857D01*
X259824523Y-90902619D01*
X259872142Y-90855000D01*
X259967380Y-90807380D01*
D13*
X243372380Y-22499523D02*
X244086666Y-22499523D01*
X244229523Y-22547142D01*
X244324761Y-22642380D01*
X244372380Y-22785238D01*
X244372380Y-22880476D01*
X244372380Y-21499523D02*
X244372380Y-22070952D01*
X244372380Y-21785238D02*
X243372380Y-21785238D01*
X243515238Y-21880476D01*
X243610476Y-21975714D01*
X243658095Y-22070952D01*
X243372380Y-20594761D02*
X243372380Y-21070952D01*
X243848571Y-21118571D01*
X243800952Y-21070952D01*
X243753333Y-20975714D01*
X243753333Y-20737619D01*
X243800952Y-20642380D01*
X243848571Y-20594761D01*
X243943809Y-20547142D01*
X244181904Y-20547142D01*
X244277142Y-20594761D01*
X244324761Y-20642380D01*
X244372380Y-20737619D01*
X244372380Y-20975714D01*
X244324761Y-21070952D01*
X244277142Y-21118571D01*
X253782380Y-49119523D02*
X254496666Y-49119523D01*
X254639523Y-49167142D01*
X254734761Y-49262380D01*
X254782380Y-49405238D01*
X254782380Y-49500476D01*
X254782380Y-48119523D02*
X254782380Y-48690952D01*
X254782380Y-48405238D02*
X253782380Y-48405238D01*
X253925238Y-48500476D01*
X254020476Y-48595714D01*
X254068095Y-48690952D01*
X253782380Y-47262380D02*
X253782380Y-47452857D01*
X253830000Y-47548095D01*
X253877619Y-47595714D01*
X254020476Y-47690952D01*
X254210952Y-47738571D01*
X254591904Y-47738571D01*
X254687142Y-47690952D01*
X254734761Y-47643333D01*
X254782380Y-47548095D01*
X254782380Y-47357619D01*
X254734761Y-47262380D01*
X254687142Y-47214761D01*
X254591904Y-47167142D01*
X254353809Y-47167142D01*
X254258571Y-47214761D01*
X254210952Y-47262380D01*
X254163333Y-47357619D01*
X254163333Y-47548095D01*
X254210952Y-47643333D01*
X254258571Y-47690952D01*
X254353809Y-47738571D01*
X254607142Y-30642857D02*
X254654761Y-30690476D01*
X254702380Y-30833333D01*
X254702380Y-30928571D01*
X254654761Y-31071428D01*
X254559523Y-31166666D01*
X254464285Y-31214285D01*
X254273809Y-31261904D01*
X254130952Y-31261904D01*
X253940476Y-31214285D01*
X253845238Y-31166666D01*
X253750000Y-31071428D01*
X253702380Y-30928571D01*
X253702380Y-30833333D01*
X253750000Y-30690476D01*
X253797619Y-30642857D01*
X254702380Y-29690476D02*
X254702380Y-30261904D01*
X254702380Y-29976190D02*
X253702380Y-29976190D01*
X253845238Y-30071428D01*
X253940476Y-30166666D01*
X253988095Y-30261904D01*
X253702380Y-29071428D02*
X253702380Y-28976190D01*
X253750000Y-28880952D01*
X253797619Y-28833333D01*
X253892857Y-28785714D01*
X254083333Y-28738095D01*
X254321428Y-28738095D01*
X254511904Y-28785714D01*
X254607142Y-28833333D01*
X254654761Y-28880952D01*
X254702380Y-28976190D01*
X254702380Y-29071428D01*
X254654761Y-29166666D01*
X254607142Y-29214285D01*
X254511904Y-29261904D01*
X254321428Y-29309523D01*
X254083333Y-29309523D01*
X253892857Y-29261904D01*
X253797619Y-29214285D01*
X253750000Y-29166666D01*
X253702380Y-29071428D01*
D14*
X258253095Y-22057380D02*
X258253095Y-22866904D01*
X258300714Y-22962142D01*
X258348333Y-23009761D01*
X258443571Y-23057380D01*
X258634047Y-23057380D01*
X258729285Y-23009761D01*
X258776904Y-22962142D01*
X258824523Y-22866904D01*
X258824523Y-22057380D01*
X259205476Y-22057380D02*
X259872142Y-22057380D01*
X259443571Y-23057380D01*
D13*
X265250476Y-55872380D02*
X265250476Y-56586666D01*
X265202857Y-56729523D01*
X265107619Y-56824761D01*
X264964761Y-56872380D01*
X264869523Y-56872380D01*
X266250476Y-56872380D02*
X265679047Y-56872380D01*
X265964761Y-56872380D02*
X265964761Y-55872380D01*
X265869523Y-56015238D01*
X265774285Y-56110476D01*
X265679047Y-56158095D01*
X266583809Y-55872380D02*
X267250476Y-55872380D01*
X266821904Y-56872380D01*
X193372380Y-22499523D02*
X194086666Y-22499523D01*
X194229523Y-22547142D01*
X194324761Y-22642380D01*
X194372380Y-22785238D01*
X194372380Y-22880476D01*
X194372380Y-21499523D02*
X194372380Y-22070952D01*
X194372380Y-21785238D02*
X193372380Y-21785238D01*
X193515238Y-21880476D01*
X193610476Y-21975714D01*
X193658095Y-22070952D01*
X193467619Y-21118571D02*
X193420000Y-21070952D01*
X193372380Y-20975714D01*
X193372380Y-20737619D01*
X193420000Y-20642380D01*
X193467619Y-20594761D01*
X193562857Y-20547142D01*
X193658095Y-20547142D01*
X193800952Y-20594761D01*
X194372380Y-21166190D01*
X194372380Y-20547142D01*
X215250476Y-55872380D02*
X215250476Y-56586666D01*
X215202857Y-56729523D01*
X215107619Y-56824761D01*
X214964761Y-56872380D01*
X214869523Y-56872380D01*
X216250476Y-56872380D02*
X215679047Y-56872380D01*
X215964761Y-56872380D02*
X215964761Y-55872380D01*
X215869523Y-56015238D01*
X215774285Y-56110476D01*
X215679047Y-56158095D01*
X217107619Y-56205714D02*
X217107619Y-56872380D01*
X216869523Y-55824761D02*
X216631428Y-56539047D01*
X217250476Y-56539047D01*
X203782380Y-49119523D02*
X204496666Y-49119523D01*
X204639523Y-49167142D01*
X204734761Y-49262380D01*
X204782380Y-49405238D01*
X204782380Y-49500476D01*
X204782380Y-48119523D02*
X204782380Y-48690952D01*
X204782380Y-48405238D02*
X203782380Y-48405238D01*
X203925238Y-48500476D01*
X204020476Y-48595714D01*
X204068095Y-48690952D01*
X203782380Y-47786190D02*
X203782380Y-47167142D01*
X204163333Y-47500476D01*
X204163333Y-47357619D01*
X204210952Y-47262380D01*
X204258571Y-47214761D01*
X204353809Y-47167142D01*
X204591904Y-47167142D01*
X204687142Y-47214761D01*
X204734761Y-47262380D01*
X204782380Y-47357619D01*
X204782380Y-47643333D01*
X204734761Y-47738571D01*
X204687142Y-47786190D01*
D14*
X208253095Y-22057380D02*
X208253095Y-22866904D01*
X208300714Y-22962142D01*
X208348333Y-23009761D01*
X208443571Y-23057380D01*
X208634047Y-23057380D01*
X208729285Y-23009761D01*
X208776904Y-22962142D01*
X208824523Y-22866904D01*
X208824523Y-22057380D01*
X209729285Y-22057380D02*
X209538809Y-22057380D01*
X209443571Y-22105000D01*
X209395952Y-22152619D01*
X209300714Y-22295476D01*
X209253095Y-22485952D01*
X209253095Y-22866904D01*
X209300714Y-22962142D01*
X209348333Y-23009761D01*
X209443571Y-23057380D01*
X209634047Y-23057380D01*
X209729285Y-23009761D01*
X209776904Y-22962142D01*
X209824523Y-22866904D01*
X209824523Y-22628809D01*
X209776904Y-22533571D01*
X209729285Y-22485952D01*
X209634047Y-22438333D01*
X209443571Y-22438333D01*
X209348333Y-22485952D01*
X209300714Y-22533571D01*
X209253095Y-22628809D01*
D13*
X204607142Y-30166666D02*
X204654761Y-30214285D01*
X204702380Y-30357142D01*
X204702380Y-30452380D01*
X204654761Y-30595238D01*
X204559523Y-30690476D01*
X204464285Y-30738095D01*
X204273809Y-30785714D01*
X204130952Y-30785714D01*
X203940476Y-30738095D01*
X203845238Y-30690476D01*
X203750000Y-30595238D01*
X203702380Y-30452380D01*
X203702380Y-30357142D01*
X203750000Y-30214285D01*
X203797619Y-30166666D01*
X204702380Y-29690476D02*
X204702380Y-29500000D01*
X204654761Y-29404761D01*
X204607142Y-29357142D01*
X204464285Y-29261904D01*
X204273809Y-29214285D01*
X203892857Y-29214285D01*
X203797619Y-29261904D01*
X203750000Y-29309523D01*
X203702380Y-29404761D01*
X203702380Y-29595238D01*
X203750000Y-29690476D01*
X203797619Y-29738095D01*
X203892857Y-29785714D01*
X204130952Y-29785714D01*
X204226190Y-29738095D01*
X204273809Y-29690476D01*
X204321428Y-29595238D01*
X204321428Y-29404761D01*
X204273809Y-29309523D01*
X204226190Y-29261904D01*
X204130952Y-29214285D01*
X137122380Y-22023333D02*
X137836666Y-22023333D01*
X137979523Y-22070952D01*
X138074761Y-22166190D01*
X138122380Y-22309047D01*
X138122380Y-22404285D01*
X138122380Y-21499523D02*
X138122380Y-21309047D01*
X138074761Y-21213809D01*
X138027142Y-21166190D01*
X137884285Y-21070952D01*
X137693809Y-21023333D01*
X137312857Y-21023333D01*
X137217619Y-21070952D01*
X137170000Y-21118571D01*
X137122380Y-21213809D01*
X137122380Y-21404285D01*
X137170000Y-21499523D01*
X137217619Y-21547142D01*
X137312857Y-21594761D01*
X137550952Y-21594761D01*
X137646190Y-21547142D01*
X137693809Y-21499523D01*
X137741428Y-21404285D01*
X137741428Y-21213809D01*
X137693809Y-21118571D01*
X137646190Y-21070952D01*
X137550952Y-21023333D01*
X147532380Y-49119523D02*
X148246666Y-49119523D01*
X148389523Y-49167142D01*
X148484761Y-49262380D01*
X148532380Y-49405238D01*
X148532380Y-49500476D01*
X148532380Y-48119523D02*
X148532380Y-48690952D01*
X148532380Y-48405238D02*
X147532380Y-48405238D01*
X147675238Y-48500476D01*
X147770476Y-48595714D01*
X147818095Y-48690952D01*
X147532380Y-47500476D02*
X147532380Y-47405238D01*
X147580000Y-47310000D01*
X147627619Y-47262380D01*
X147722857Y-47214761D01*
X147913333Y-47167142D01*
X148151428Y-47167142D01*
X148341904Y-47214761D01*
X148437142Y-47262380D01*
X148484761Y-47310000D01*
X148532380Y-47405238D01*
X148532380Y-47500476D01*
X148484761Y-47595714D01*
X148437142Y-47643333D01*
X148341904Y-47690952D01*
X148151428Y-47738571D01*
X147913333Y-47738571D01*
X147722857Y-47690952D01*
X147627619Y-47643333D01*
X147580000Y-47595714D01*
X147532380Y-47500476D01*
X148357142Y-30166666D02*
X148404761Y-30214285D01*
X148452380Y-30357142D01*
X148452380Y-30452380D01*
X148404761Y-30595238D01*
X148309523Y-30690476D01*
X148214285Y-30738095D01*
X148023809Y-30785714D01*
X147880952Y-30785714D01*
X147690476Y-30738095D01*
X147595238Y-30690476D01*
X147500000Y-30595238D01*
X147452380Y-30452380D01*
X147452380Y-30357142D01*
X147500000Y-30214285D01*
X147547619Y-30166666D01*
X147880952Y-29595238D02*
X147833333Y-29690476D01*
X147785714Y-29738095D01*
X147690476Y-29785714D01*
X147642857Y-29785714D01*
X147547619Y-29738095D01*
X147500000Y-29690476D01*
X147452380Y-29595238D01*
X147452380Y-29404761D01*
X147500000Y-29309523D01*
X147547619Y-29261904D01*
X147642857Y-29214285D01*
X147690476Y-29214285D01*
X147785714Y-29261904D01*
X147833333Y-29309523D01*
X147880952Y-29404761D01*
X147880952Y-29595238D01*
X147928571Y-29690476D01*
X147976190Y-29738095D01*
X148071428Y-29785714D01*
X148261904Y-29785714D01*
X148357142Y-29738095D01*
X148404761Y-29690476D01*
X148452380Y-29595238D01*
X148452380Y-29404761D01*
X148404761Y-29309523D01*
X148357142Y-29261904D01*
X148261904Y-29214285D01*
X148071428Y-29214285D01*
X147976190Y-29261904D01*
X147928571Y-29309523D01*
X147880952Y-29404761D01*
X159000476Y-55872380D02*
X159000476Y-56586666D01*
X158952857Y-56729523D01*
X158857619Y-56824761D01*
X158714761Y-56872380D01*
X158619523Y-56872380D01*
X160000476Y-56872380D02*
X159429047Y-56872380D01*
X159714761Y-56872380D02*
X159714761Y-55872380D01*
X159619523Y-56015238D01*
X159524285Y-56110476D01*
X159429047Y-56158095D01*
X160952857Y-56872380D02*
X160381428Y-56872380D01*
X160667142Y-56872380D02*
X160667142Y-55872380D01*
X160571904Y-56015238D01*
X160476666Y-56110476D01*
X160381428Y-56158095D01*
D14*
X152003095Y-22057380D02*
X152003095Y-22866904D01*
X152050714Y-22962142D01*
X152098333Y-23009761D01*
X152193571Y-23057380D01*
X152384047Y-23057380D01*
X152479285Y-23009761D01*
X152526904Y-22962142D01*
X152574523Y-22866904D01*
X152574523Y-22057380D01*
X153526904Y-22057380D02*
X153050714Y-22057380D01*
X153003095Y-22533571D01*
X153050714Y-22485952D01*
X153145952Y-22438333D01*
X153384047Y-22438333D01*
X153479285Y-22485952D01*
X153526904Y-22533571D01*
X153574523Y-22628809D01*
X153574523Y-22866904D01*
X153526904Y-22962142D01*
X153479285Y-23009761D01*
X153384047Y-23057380D01*
X153145952Y-23057380D01*
X153050714Y-23009761D01*
X153003095Y-22962142D01*
D13*
X84872380Y-22023333D02*
X85586666Y-22023333D01*
X85729523Y-22070952D01*
X85824761Y-22166190D01*
X85872380Y-22309047D01*
X85872380Y-22404285D01*
X84872380Y-21118571D02*
X84872380Y-21309047D01*
X84920000Y-21404285D01*
X84967619Y-21451904D01*
X85110476Y-21547142D01*
X85300952Y-21594761D01*
X85681904Y-21594761D01*
X85777142Y-21547142D01*
X85824761Y-21499523D01*
X85872380Y-21404285D01*
X85872380Y-21213809D01*
X85824761Y-21118571D01*
X85777142Y-21070952D01*
X85681904Y-21023333D01*
X85443809Y-21023333D01*
X85348571Y-21070952D01*
X85300952Y-21118571D01*
X85253333Y-21213809D01*
X85253333Y-21404285D01*
X85300952Y-21499523D01*
X85348571Y-21547142D01*
X85443809Y-21594761D01*
X95282380Y-48643333D02*
X95996666Y-48643333D01*
X96139523Y-48690952D01*
X96234761Y-48786190D01*
X96282380Y-48929047D01*
X96282380Y-49024285D01*
X95282380Y-48262380D02*
X95282380Y-47595714D01*
X96282380Y-48024285D01*
X96107142Y-30166666D02*
X96154761Y-30214285D01*
X96202380Y-30357142D01*
X96202380Y-30452380D01*
X96154761Y-30595238D01*
X96059523Y-30690476D01*
X95964285Y-30738095D01*
X95773809Y-30785714D01*
X95630952Y-30785714D01*
X95440476Y-30738095D01*
X95345238Y-30690476D01*
X95250000Y-30595238D01*
X95202380Y-30452380D01*
X95202380Y-30357142D01*
X95250000Y-30214285D01*
X95297619Y-30166666D01*
X95202380Y-29833333D02*
X95202380Y-29166666D01*
X96202380Y-29595238D01*
X107226666Y-55872380D02*
X107226666Y-56586666D01*
X107179047Y-56729523D01*
X107083809Y-56824761D01*
X106940952Y-56872380D01*
X106845714Y-56872380D01*
X107845714Y-56300952D02*
X107750476Y-56253333D01*
X107702857Y-56205714D01*
X107655238Y-56110476D01*
X107655238Y-56062857D01*
X107702857Y-55967619D01*
X107750476Y-55920000D01*
X107845714Y-55872380D01*
X108036190Y-55872380D01*
X108131428Y-55920000D01*
X108179047Y-55967619D01*
X108226666Y-56062857D01*
X108226666Y-56110476D01*
X108179047Y-56205714D01*
X108131428Y-56253333D01*
X108036190Y-56300952D01*
X107845714Y-56300952D01*
X107750476Y-56348571D01*
X107702857Y-56396190D01*
X107655238Y-56491428D01*
X107655238Y-56681904D01*
X107702857Y-56777142D01*
X107750476Y-56824761D01*
X107845714Y-56872380D01*
X108036190Y-56872380D01*
X108131428Y-56824761D01*
X108179047Y-56777142D01*
X108226666Y-56681904D01*
X108226666Y-56491428D01*
X108179047Y-56396190D01*
X108131428Y-56348571D01*
X108036190Y-56300952D01*
D14*
X99753095Y-22057380D02*
X99753095Y-22866904D01*
X99800714Y-22962142D01*
X99848333Y-23009761D01*
X99943571Y-23057380D01*
X100134047Y-23057380D01*
X100229285Y-23009761D01*
X100276904Y-22962142D01*
X100324523Y-22866904D01*
X100324523Y-22057380D01*
X101229285Y-22390714D02*
X101229285Y-23057380D01*
X100991190Y-22009761D02*
X100753095Y-22724047D01*
X101372142Y-22724047D01*
D13*
X63195035Y-173260522D02*
X62622615Y-173159507D01*
X62790974Y-173664583D02*
X62083867Y-172957476D01*
X62353241Y-172688102D01*
X62454257Y-172654431D01*
X62521600Y-172654431D01*
X62622615Y-172688102D01*
X62723631Y-172789118D01*
X62757302Y-172890133D01*
X62757302Y-172957476D01*
X62723631Y-173058492D01*
X62454257Y-173327866D01*
X62689959Y-172351385D02*
X63632768Y-172822789D01*
X63161363Y-171879980D01*
X64474562Y-171980995D02*
X64070501Y-172385056D01*
X64272531Y-172183026D02*
X63565425Y-171475919D01*
X63599096Y-171644278D01*
X63599096Y-171778965D01*
X63565425Y-171879980D01*
X49738095Y-128952380D02*
X49738095Y-129761904D01*
X49785714Y-129857142D01*
X49833333Y-129904761D01*
X49928571Y-129952380D01*
X50119047Y-129952380D01*
X50214285Y-129904761D01*
X50261904Y-129857142D01*
X50309523Y-129761904D01*
X50309523Y-128952380D01*
X51309523Y-129952380D02*
X50738095Y-129952380D01*
X51023809Y-129952380D02*
X51023809Y-128952380D01*
X50928571Y-129095238D01*
X50833333Y-129190476D01*
X50738095Y-129238095D01*
X34146666Y-165322380D02*
X34146666Y-166036666D01*
X34099047Y-166179523D01*
X34003809Y-166274761D01*
X33860952Y-166322380D01*
X33765714Y-166322380D01*
X34575238Y-165417619D02*
X34622857Y-165370000D01*
X34718095Y-165322380D01*
X34956190Y-165322380D01*
X35051428Y-165370000D01*
X35099047Y-165417619D01*
X35146666Y-165512857D01*
X35146666Y-165608095D01*
X35099047Y-165750952D01*
X34527619Y-166322380D01*
X35146666Y-166322380D01*
D14*
X43503095Y-22057380D02*
X43503095Y-22866904D01*
X43550714Y-22962142D01*
X43598333Y-23009761D01*
X43693571Y-23057380D01*
X43884047Y-23057380D01*
X43979285Y-23009761D01*
X44026904Y-22962142D01*
X44074523Y-22866904D01*
X44074523Y-22057380D01*
X44455476Y-22057380D02*
X45074523Y-22057380D01*
X44741190Y-22438333D01*
X44884047Y-22438333D01*
X44979285Y-22485952D01*
X45026904Y-22533571D01*
X45074523Y-22628809D01*
X45074523Y-22866904D01*
X45026904Y-22962142D01*
X44979285Y-23009761D01*
X44884047Y-23057380D01*
X44598333Y-23057380D01*
X44503095Y-23009761D01*
X44455476Y-22962142D01*
D13*
X45122380Y-160201904D02*
X45931904Y-160201904D01*
X46027142Y-160154285D01*
X46074761Y-160106666D01*
X46122380Y-160011428D01*
X46122380Y-159820952D01*
X46074761Y-159725714D01*
X46027142Y-159678095D01*
X45931904Y-159630476D01*
X45122380Y-159630476D01*
X45217619Y-159201904D02*
X45170000Y-159154285D01*
X45122380Y-159059047D01*
X45122380Y-158820952D01*
X45170000Y-158725714D01*
X45217619Y-158678095D01*
X45312857Y-158630476D01*
X45408095Y-158630476D01*
X45550952Y-158678095D01*
X46122380Y-159249523D01*
X46122380Y-158630476D01*
X40153374Y-132989742D02*
X40200993Y-132846885D01*
X40200993Y-132608789D01*
X40153374Y-132513551D01*
X40105755Y-132465932D01*
X40010517Y-132418313D01*
X39915279Y-132418313D01*
X39820041Y-132465932D01*
X39772422Y-132513551D01*
X39724803Y-132608789D01*
X39677184Y-132799266D01*
X39629565Y-132894504D01*
X39581946Y-132942123D01*
X39486708Y-132989742D01*
X39391470Y-132989742D01*
X39296232Y-132942123D01*
X39248613Y-132894504D01*
X39200993Y-132799266D01*
X39200993Y-132561170D01*
X39248613Y-132418313D01*
X39200993Y-132084980D02*
X40200993Y-131846885D01*
X39486708Y-131656409D01*
X40200993Y-131465932D01*
X39200993Y-131227837D01*
X40200993Y-130323075D02*
X40200993Y-130894504D01*
X40200993Y-130608789D02*
X39200993Y-130608789D01*
X39343851Y-130704028D01*
X39439089Y-130799266D01*
X39486708Y-130894504D01*
X62582380Y-161336666D02*
X62106190Y-161670000D01*
X62582380Y-161908095D02*
X61582380Y-161908095D01*
X61582380Y-161527142D01*
X61630000Y-161431904D01*
X61677619Y-161384285D01*
X61772857Y-161336666D01*
X61915714Y-161336666D01*
X62010952Y-161384285D01*
X62058571Y-161431904D01*
X62106190Y-161527142D01*
X62106190Y-161908095D01*
X61582380Y-161003333D02*
X61582380Y-160384285D01*
X61963333Y-160717619D01*
X61963333Y-160574761D01*
X62010952Y-160479523D01*
X62058571Y-160431904D01*
X62153809Y-160384285D01*
X62391904Y-160384285D01*
X62487142Y-160431904D01*
X62534761Y-160479523D01*
X62582380Y-160574761D01*
X62582380Y-160860476D01*
X62534761Y-160955714D01*
X62487142Y-161003333D01*
X47413333Y-178582380D02*
X47080000Y-178106190D01*
X46841904Y-178582380D02*
X46841904Y-177582380D01*
X47222857Y-177582380D01*
X47318095Y-177630000D01*
X47365714Y-177677619D01*
X47413333Y-177772857D01*
X47413333Y-177915714D01*
X47365714Y-178010952D01*
X47318095Y-178058571D01*
X47222857Y-178106190D01*
X46841904Y-178106190D01*
X47794285Y-177677619D02*
X47841904Y-177630000D01*
X47937142Y-177582380D01*
X48175238Y-177582380D01*
X48270476Y-177630000D01*
X48318095Y-177677619D01*
X48365714Y-177772857D01*
X48365714Y-177868095D01*
X48318095Y-178010952D01*
X47746666Y-178582380D01*
X48365714Y-178582380D01*
X44322380Y-158996666D02*
X43846190Y-159330000D01*
X44322380Y-159568095D02*
X43322380Y-159568095D01*
X43322380Y-159187142D01*
X43370000Y-159091904D01*
X43417619Y-159044285D01*
X43512857Y-158996666D01*
X43655714Y-158996666D01*
X43750952Y-159044285D01*
X43798571Y-159091904D01*
X43846190Y-159187142D01*
X43846190Y-159568095D01*
X44322380Y-158044285D02*
X44322380Y-158615714D01*
X44322380Y-158330000D02*
X43322380Y-158330000D01*
X43465238Y-158425238D01*
X43560476Y-158520476D01*
X43608095Y-158615714D01*
X50976666Y-55872380D02*
X50976666Y-56586666D01*
X50929047Y-56729523D01*
X50833809Y-56824761D01*
X50690952Y-56872380D01*
X50595714Y-56872380D01*
X51929047Y-55872380D02*
X51452857Y-55872380D01*
X51405238Y-56348571D01*
X51452857Y-56300952D01*
X51548095Y-56253333D01*
X51786190Y-56253333D01*
X51881428Y-56300952D01*
X51929047Y-56348571D01*
X51976666Y-56443809D01*
X51976666Y-56681904D01*
X51929047Y-56777142D01*
X51881428Y-56824761D01*
X51786190Y-56872380D01*
X51548095Y-56872380D01*
X51452857Y-56824761D01*
X51405238Y-56777142D01*
X39032380Y-48643333D02*
X39746666Y-48643333D01*
X39889523Y-48690952D01*
X39984761Y-48786190D01*
X40032380Y-48929047D01*
X40032380Y-49024285D01*
X39365714Y-47738571D02*
X40032380Y-47738571D01*
X38984761Y-47976666D02*
X39699047Y-48214761D01*
X39699047Y-47595714D01*
X28622380Y-22023333D02*
X29336666Y-22023333D01*
X29479523Y-22070952D01*
X29574761Y-22166190D01*
X29622380Y-22309047D01*
X29622380Y-22404285D01*
X28622380Y-21642380D02*
X28622380Y-21023333D01*
X29003333Y-21356666D01*
X29003333Y-21213809D01*
X29050952Y-21118571D01*
X29098571Y-21070952D01*
X29193809Y-21023333D01*
X29431904Y-21023333D01*
X29527142Y-21070952D01*
X29574761Y-21118571D01*
X29622380Y-21213809D01*
X29622380Y-21499523D01*
X29574761Y-21594761D01*
X29527142Y-21642380D01*
X42916666Y-120702380D02*
X42916666Y-121416666D01*
X42869047Y-121559523D01*
X42773809Y-121654761D01*
X42630952Y-121702380D01*
X42535714Y-121702380D01*
X43916666Y-121702380D02*
X43345238Y-121702380D01*
X43630952Y-121702380D02*
X43630952Y-120702380D01*
X43535714Y-120845238D01*
X43440476Y-120940476D01*
X43345238Y-120988095D01*
X45571904Y-173832380D02*
X45571904Y-172832380D01*
X45810000Y-172832380D01*
X45952857Y-172880000D01*
X46048095Y-172975238D01*
X46095714Y-173070476D01*
X46143333Y-173260952D01*
X46143333Y-173403809D01*
X46095714Y-173594285D01*
X46048095Y-173689523D01*
X45952857Y-173784761D01*
X45810000Y-173832380D01*
X45571904Y-173832380D01*
X47095714Y-173832380D02*
X46524285Y-173832380D01*
X46810000Y-173832380D02*
X46810000Y-172832380D01*
X46714761Y-172975238D01*
X46619523Y-173070476D01*
X46524285Y-173118095D01*
X42238095Y-174152380D02*
X42238095Y-173152380D01*
X42809523Y-174152380D02*
X42380952Y-173580952D01*
X42809523Y-173152380D02*
X42238095Y-173723809D01*
X39857142Y-30166666D02*
X39904761Y-30214285D01*
X39952380Y-30357142D01*
X39952380Y-30452380D01*
X39904761Y-30595238D01*
X39809523Y-30690476D01*
X39714285Y-30738095D01*
X39523809Y-30785714D01*
X39380952Y-30785714D01*
X39190476Y-30738095D01*
X39095238Y-30690476D01*
X39000000Y-30595238D01*
X38952380Y-30452380D01*
X38952380Y-30357142D01*
X39000000Y-30214285D01*
X39047619Y-30166666D01*
X38952380Y-29309523D02*
X38952380Y-29500000D01*
X39000000Y-29595238D01*
X39047619Y-29642857D01*
X39190476Y-29738095D01*
X39380952Y-29785714D01*
X39761904Y-29785714D01*
X39857142Y-29738095D01*
X39904761Y-29690476D01*
X39952380Y-29595238D01*
X39952380Y-29404761D01*
X39904761Y-29309523D01*
X39857142Y-29261904D01*
X39761904Y-29214285D01*
X39523809Y-29214285D01*
X39428571Y-29261904D01*
X39380952Y-29309523D01*
X39333333Y-29404761D01*
X39333333Y-29595238D01*
X39380952Y-29690476D01*
X39428571Y-29738095D01*
X39523809Y-29785714D01*
X47889605Y-172080931D02*
X47841986Y-172128550D01*
X47699129Y-172176169D01*
X47603891Y-172176169D01*
X47461033Y-172128550D01*
X47365795Y-172033312D01*
X47318176Y-171938074D01*
X47270557Y-171747598D01*
X47270557Y-171604741D01*
X47318176Y-171414265D01*
X47365795Y-171319027D01*
X47461033Y-171223789D01*
X47603891Y-171176169D01*
X47699129Y-171176169D01*
X47841986Y-171223789D01*
X47889605Y-171271408D01*
X48794367Y-171176169D02*
X48318176Y-171176169D01*
X48270557Y-171652360D01*
X48318176Y-171604741D01*
X48413414Y-171557122D01*
X48651510Y-171557122D01*
X48746748Y-171604741D01*
X48794367Y-171652360D01*
X48841986Y-171747598D01*
X48841986Y-171985693D01*
X48794367Y-172080931D01*
X48746748Y-172128550D01*
X48651510Y-172176169D01*
X48413414Y-172176169D01*
X48318176Y-172128550D01*
X48270557Y-172080931D01*
X53833333Y-143107142D02*
X53785714Y-143154761D01*
X53642857Y-143202380D01*
X53547619Y-143202380D01*
X53404761Y-143154761D01*
X53309523Y-143059523D01*
X53261904Y-142964285D01*
X53214285Y-142773809D01*
X53214285Y-142630952D01*
X53261904Y-142440476D01*
X53309523Y-142345238D01*
X53404761Y-142250000D01*
X53547619Y-142202380D01*
X53642857Y-142202380D01*
X53785714Y-142250000D01*
X53833333Y-142297619D01*
X54690476Y-142535714D02*
X54690476Y-143202380D01*
X54452380Y-142154761D02*
X54214285Y-142869047D01*
X54833333Y-142869047D01*
X52583333Y-153107142D02*
X52535714Y-153154761D01*
X52392857Y-153202380D01*
X52297619Y-153202380D01*
X52154761Y-153154761D01*
X52059523Y-153059523D01*
X52011904Y-152964285D01*
X51964285Y-152773809D01*
X51964285Y-152630952D01*
X52011904Y-152440476D01*
X52059523Y-152345238D01*
X52154761Y-152250000D01*
X52297619Y-152202380D01*
X52392857Y-152202380D01*
X52535714Y-152250000D01*
X52583333Y-152297619D01*
X52916666Y-152202380D02*
X53535714Y-152202380D01*
X53202380Y-152583333D01*
X53345238Y-152583333D01*
X53440476Y-152630952D01*
X53488095Y-152678571D01*
X53535714Y-152773809D01*
X53535714Y-153011904D01*
X53488095Y-153107142D01*
X53440476Y-153154761D01*
X53345238Y-153202380D01*
X53059523Y-153202380D01*
X52964285Y-153154761D01*
X52916666Y-153107142D01*
X61107142Y-133416666D02*
X61154761Y-133464285D01*
X61202380Y-133607142D01*
X61202380Y-133702380D01*
X61154761Y-133845238D01*
X61059523Y-133940476D01*
X60964285Y-133988095D01*
X60773809Y-134035714D01*
X60630952Y-134035714D01*
X60440476Y-133988095D01*
X60345238Y-133940476D01*
X60250000Y-133845238D01*
X60202380Y-133702380D01*
X60202380Y-133607142D01*
X60250000Y-133464285D01*
X60297619Y-133416666D01*
X60297619Y-133035714D02*
X60250000Y-132988095D01*
X60202380Y-132892857D01*
X60202380Y-132654761D01*
X60250000Y-132559523D01*
X60297619Y-132511904D01*
X60392857Y-132464285D01*
X60488095Y-132464285D01*
X60630952Y-132511904D01*
X61202380Y-133083333D01*
X61202380Y-132464285D01*
X41357142Y-132666666D02*
X41404761Y-132714285D01*
X41452380Y-132857142D01*
X41452380Y-132952380D01*
X41404761Y-133095238D01*
X41309523Y-133190476D01*
X41214285Y-133238095D01*
X41023809Y-133285714D01*
X40880952Y-133285714D01*
X40690476Y-133238095D01*
X40595238Y-133190476D01*
X40500000Y-133095238D01*
X40452380Y-132952380D01*
X40452380Y-132857142D01*
X40500000Y-132714285D01*
X40547619Y-132666666D01*
X41452380Y-131714285D02*
X41452380Y-132285714D01*
X41452380Y-132000000D02*
X40452380Y-132000000D01*
X40595238Y-132095238D01*
X40690476Y-132190476D01*
X40738095Y-132285714D01*
M02*
