G04 #@! TF.GenerationSoftware,KiCad,Pcbnew,5.1.5-1.fc30*
G04 #@! TF.CreationDate,2021-07-16T22:34:38+03:00*
G04 #@! TF.ProjectId,find-wire,66696e64-2d77-4697-9265-2e6b69636164,rev?*
G04 #@! TF.SameCoordinates,Original*
G04 #@! TF.FileFunction,Legend,Top*
G04 #@! TF.FilePolarity,Positive*
%FSLAX46Y46*%
G04 Gerber Fmt 4.6, Leading zero omitted, Abs format (unit mm)*
G04 Created by KiCad (PCBNEW 5.1.5-1.fc30) date 2021-07-16 22:34:38*
%MOMM*%
%LPD*%
G04 APERTURE LIST*
%ADD10C,0.200000*%
%ADD11C,0.127000*%
%ADD12C,0.120000*%
%ADD13C,0.015000*%
%ADD14C,0.150000*%
G04 APERTURE END LIST*
D10*
X80540000Y-72380000D02*
G75*
G03X80540000Y-72380000I-100000J0D01*
G01*
D11*
X78790000Y-70550000D02*
X79460000Y-70550000D01*
X78790000Y-63950000D02*
X78790000Y-70550000D01*
X89710000Y-63950000D02*
X89040000Y-63950000D01*
X89710000Y-70550000D02*
X89710000Y-63950000D01*
X89040000Y-70550000D02*
X89710000Y-70550000D01*
X79460000Y-63950000D02*
X78790000Y-63950000D01*
X82015000Y-46795000D02*
X82015000Y-53145000D01*
X91605000Y-46795000D02*
X91605000Y-53145000D01*
D10*
X90720000Y-44935000D02*
G75*
G03X90720000Y-44935000I-100000J0D01*
G01*
D12*
X86450000Y-127860000D02*
X76170000Y-127860000D01*
X86450000Y-145880000D02*
X86450000Y-127860000D01*
X76170000Y-145880000D02*
X86450000Y-145880000D01*
X76170000Y-127860000D02*
X76170000Y-145880000D01*
X83960000Y-127920000D02*
X82310000Y-127920000D01*
X83960000Y-145820000D02*
X83960000Y-127920000D01*
X78660000Y-145820000D02*
X83960000Y-145820000D01*
X78660000Y-127920000D02*
X78660000Y-145820000D01*
X80310000Y-127920000D02*
X78660000Y-127920000D01*
X82310000Y-127920000D02*
G75*
G02X80310000Y-127920000I-1000000J0D01*
G01*
X67725895Y-39346319D02*
X67725895Y-41956319D01*
X69095895Y-37976319D02*
G75*
G03X69095895Y-37976319I-1370000J0D01*
G01*
X61370000Y-32250000D02*
X63980000Y-32250000D01*
X61370000Y-32250000D02*
G75*
G03X61370000Y-32250000I-1370000J0D01*
G01*
X91620000Y-76750000D02*
X94230000Y-76750000D01*
X91620000Y-76750000D02*
G75*
G03X91620000Y-76750000I-1370000J0D01*
G01*
X97281264Y-54218736D02*
X95435715Y-56064285D01*
X99620000Y-53250000D02*
G75*
G03X99620000Y-53250000I-1370000J0D01*
G01*
X70750000Y-51460000D02*
X70750000Y-48850000D01*
X72120000Y-52830000D02*
G75*
G03X72120000Y-52830000I-1370000J0D01*
G01*
X92370000Y-33000000D02*
X94980000Y-33000000D01*
X92370000Y-33000000D02*
G75*
G03X92370000Y-33000000I-1370000J0D01*
G01*
X83145652Y-30910079D02*
X83145652Y-33520079D01*
X84515652Y-29540079D02*
G75*
G03X84515652Y-29540079I-1370000J0D01*
G01*
X92880000Y-27250000D02*
X90270000Y-27250000D01*
X95620000Y-27250000D02*
G75*
G03X95620000Y-27250000I-1370000J0D01*
G01*
X94466364Y-39357554D02*
X94466364Y-41967554D01*
X95836364Y-37987554D02*
G75*
G03X95836364Y-37987554I-1370000J0D01*
G01*
X104960000Y-137500000D02*
X102350000Y-137500000D01*
X107700000Y-137500000D02*
G75*
G03X107700000Y-137500000I-1370000J0D01*
G01*
X75790000Y-150250000D02*
X78400000Y-150250000D01*
X75790000Y-150250000D02*
G75*
G03X75790000Y-150250000I-1370000J0D01*
G01*
X56880000Y-140500000D02*
X54270000Y-140500000D01*
X59620000Y-140500000D02*
G75*
G03X59620000Y-140500000I-1370000J0D01*
G01*
X54380000Y-145750000D02*
X51770000Y-145750000D01*
X57120000Y-145750000D02*
G75*
G03X57120000Y-145750000I-1370000J0D01*
G01*
X96577684Y-140421555D02*
G75*
G03X92300000Y-141450000I-1827684J-1808445D01*
G01*
X96591741Y-144041875D02*
G75*
G02X92300000Y-143050000I-1841741J1811875D01*
G01*
X96600000Y-144030000D02*
X96600000Y-140430000D01*
X92922316Y-133578445D02*
G75*
G03X97200000Y-132550000I1827684J1808445D01*
G01*
X92908259Y-129958125D02*
G75*
G02X97200000Y-130950000I1841741J-1811875D01*
G01*
X92900000Y-129970000D02*
X92900000Y-133570000D01*
X75497751Y-39896319D02*
X75497751Y-40286319D01*
X77417751Y-37976319D02*
G75*
G03X77417751Y-37976319I-1920000J0D01*
G01*
X62420000Y-24710000D02*
X62264000Y-24710000D01*
X64736000Y-24710000D02*
X64580000Y-24710000D01*
X62420163Y-27311130D02*
G75*
G02X62420000Y-25229039I1079837J1041130D01*
G01*
X64579837Y-27311130D02*
G75*
G03X64580000Y-25229039I-1079837J1041130D01*
G01*
X62421392Y-27942335D02*
G75*
G02X62264484Y-24710000I1078608J1672335D01*
G01*
X64578608Y-27942335D02*
G75*
G03X64735516Y-24710000I-1078608J1672335D01*
G01*
X86790000Y-149170000D02*
X86790000Y-149014000D01*
X86790000Y-151486000D02*
X86790000Y-151330000D01*
X84188870Y-149170163D02*
G75*
G02X86270961Y-149170000I1041130J-1079837D01*
G01*
X84188870Y-151329837D02*
G75*
G03X86270961Y-151330000I1041130J1079837D01*
G01*
X83557665Y-149171392D02*
G75*
G02X86790000Y-149014484I1672335J-1078608D01*
G01*
X83557665Y-151328608D02*
G75*
G03X86790000Y-151485516I1672335J1078608D01*
G01*
X59285000Y-54509698D02*
X60085000Y-54509698D01*
X59685000Y-54909698D02*
X59685000Y-54109698D01*
X61467000Y-46419000D02*
X62533000Y-46419000D01*
X61232000Y-46459000D02*
X62768000Y-46459000D01*
X61052000Y-46499000D02*
X62948000Y-46499000D01*
X60902000Y-46539000D02*
X63098000Y-46539000D01*
X60771000Y-46579000D02*
X63229000Y-46579000D01*
X60654000Y-46619000D02*
X63346000Y-46619000D01*
X60547000Y-46659000D02*
X63453000Y-46659000D01*
X60448000Y-46699000D02*
X63552000Y-46699000D01*
X60355000Y-46739000D02*
X63645000Y-46739000D01*
X60269000Y-46779000D02*
X63731000Y-46779000D01*
X60187000Y-46819000D02*
X63813000Y-46819000D01*
X60110000Y-46859000D02*
X63890000Y-46859000D01*
X60036000Y-46899000D02*
X63964000Y-46899000D01*
X59966000Y-46939000D02*
X64034000Y-46939000D01*
X59898000Y-46979000D02*
X64102000Y-46979000D01*
X59834000Y-47019000D02*
X64166000Y-47019000D01*
X59772000Y-47059000D02*
X64228000Y-47059000D01*
X59713000Y-47099000D02*
X64287000Y-47099000D01*
X59655000Y-47139000D02*
X64345000Y-47139000D01*
X59600000Y-47179000D02*
X64400000Y-47179000D01*
X59546000Y-47219000D02*
X64454000Y-47219000D01*
X59495000Y-47259000D02*
X64505000Y-47259000D01*
X59444000Y-47299000D02*
X64556000Y-47299000D01*
X59396000Y-47339000D02*
X64604000Y-47339000D01*
X59349000Y-47379000D02*
X64651000Y-47379000D01*
X59303000Y-47419000D02*
X64697000Y-47419000D01*
X59259000Y-47459000D02*
X64741000Y-47459000D01*
X59216000Y-47499000D02*
X64784000Y-47499000D01*
X59174000Y-47539000D02*
X64826000Y-47539000D01*
X59133000Y-47579000D02*
X64867000Y-47579000D01*
X59093000Y-47619000D02*
X64907000Y-47619000D01*
X59055000Y-47659000D02*
X64945000Y-47659000D01*
X59017000Y-47699000D02*
X64983000Y-47699000D01*
X58981000Y-47739000D02*
X65019000Y-47739000D01*
X58945000Y-47779000D02*
X65055000Y-47779000D01*
X58910000Y-47819000D02*
X65090000Y-47819000D01*
X58876000Y-47859000D02*
X65124000Y-47859000D01*
X58844000Y-47899000D02*
X65156000Y-47899000D01*
X58811000Y-47939000D02*
X65189000Y-47939000D01*
X58780000Y-47979000D02*
X65220000Y-47979000D01*
X58750000Y-48019000D02*
X65250000Y-48019000D01*
X58720000Y-48059000D02*
X65280000Y-48059000D01*
X58691000Y-48099000D02*
X65309000Y-48099000D01*
X58662000Y-48139000D02*
X65338000Y-48139000D01*
X58635000Y-48179000D02*
X65365000Y-48179000D01*
X63040000Y-48219000D02*
X65392000Y-48219000D01*
X58608000Y-48219000D02*
X60960000Y-48219000D01*
X63040000Y-48259000D02*
X65418000Y-48259000D01*
X58582000Y-48259000D02*
X60960000Y-48259000D01*
X63040000Y-48299000D02*
X65444000Y-48299000D01*
X58556000Y-48299000D02*
X60960000Y-48299000D01*
X63040000Y-48339000D02*
X65469000Y-48339000D01*
X58531000Y-48339000D02*
X60960000Y-48339000D01*
X63040000Y-48379000D02*
X65493000Y-48379000D01*
X58507000Y-48379000D02*
X60960000Y-48379000D01*
X63040000Y-48419000D02*
X65517000Y-48419000D01*
X58483000Y-48419000D02*
X60960000Y-48419000D01*
X63040000Y-48459000D02*
X65540000Y-48459000D01*
X58460000Y-48459000D02*
X60960000Y-48459000D01*
X63040000Y-48499000D02*
X65562000Y-48499000D01*
X58438000Y-48499000D02*
X60960000Y-48499000D01*
X63040000Y-48539000D02*
X65584000Y-48539000D01*
X58416000Y-48539000D02*
X60960000Y-48539000D01*
X63040000Y-48579000D02*
X65606000Y-48579000D01*
X58394000Y-48579000D02*
X60960000Y-48579000D01*
X63040000Y-48619000D02*
X65627000Y-48619000D01*
X58373000Y-48619000D02*
X60960000Y-48619000D01*
X63040000Y-48659000D02*
X65647000Y-48659000D01*
X58353000Y-48659000D02*
X60960000Y-48659000D01*
X63040000Y-48699000D02*
X65666000Y-48699000D01*
X58334000Y-48699000D02*
X60960000Y-48699000D01*
X63040000Y-48739000D02*
X65686000Y-48739000D01*
X58314000Y-48739000D02*
X60960000Y-48739000D01*
X63040000Y-48779000D02*
X65704000Y-48779000D01*
X58296000Y-48779000D02*
X60960000Y-48779000D01*
X63040000Y-48819000D02*
X65722000Y-48819000D01*
X58278000Y-48819000D02*
X60960000Y-48819000D01*
X63040000Y-48859000D02*
X65740000Y-48859000D01*
X58260000Y-48859000D02*
X60960000Y-48859000D01*
X63040000Y-48899000D02*
X65757000Y-48899000D01*
X58243000Y-48899000D02*
X60960000Y-48899000D01*
X63040000Y-48939000D02*
X65774000Y-48939000D01*
X58226000Y-48939000D02*
X60960000Y-48939000D01*
X63040000Y-48979000D02*
X65790000Y-48979000D01*
X58210000Y-48979000D02*
X60960000Y-48979000D01*
X63040000Y-49019000D02*
X65805000Y-49019000D01*
X58195000Y-49019000D02*
X60960000Y-49019000D01*
X63040000Y-49059000D02*
X65821000Y-49059000D01*
X58179000Y-49059000D02*
X60960000Y-49059000D01*
X63040000Y-49099000D02*
X65835000Y-49099000D01*
X58165000Y-49099000D02*
X60960000Y-49099000D01*
X63040000Y-49139000D02*
X65850000Y-49139000D01*
X58150000Y-49139000D02*
X60960000Y-49139000D01*
X63040000Y-49179000D02*
X65863000Y-49179000D01*
X58137000Y-49179000D02*
X60960000Y-49179000D01*
X63040000Y-49219000D02*
X65877000Y-49219000D01*
X58123000Y-49219000D02*
X60960000Y-49219000D01*
X63040000Y-49259000D02*
X65889000Y-49259000D01*
X58111000Y-49259000D02*
X60960000Y-49259000D01*
X63040000Y-49299000D02*
X65902000Y-49299000D01*
X58098000Y-49299000D02*
X60960000Y-49299000D01*
X63040000Y-49339000D02*
X65914000Y-49339000D01*
X58086000Y-49339000D02*
X60960000Y-49339000D01*
X63040000Y-49379000D02*
X65925000Y-49379000D01*
X58075000Y-49379000D02*
X60960000Y-49379000D01*
X63040000Y-49419000D02*
X65936000Y-49419000D01*
X58064000Y-49419000D02*
X60960000Y-49419000D01*
X63040000Y-49459000D02*
X65947000Y-49459000D01*
X58053000Y-49459000D02*
X60960000Y-49459000D01*
X63040000Y-49499000D02*
X65957000Y-49499000D01*
X58043000Y-49499000D02*
X60960000Y-49499000D01*
X63040000Y-49539000D02*
X65967000Y-49539000D01*
X58033000Y-49539000D02*
X60960000Y-49539000D01*
X63040000Y-49579000D02*
X65976000Y-49579000D01*
X58024000Y-49579000D02*
X60960000Y-49579000D01*
X63040000Y-49619000D02*
X65985000Y-49619000D01*
X58015000Y-49619000D02*
X60960000Y-49619000D01*
X63040000Y-49659000D02*
X65994000Y-49659000D01*
X58006000Y-49659000D02*
X60960000Y-49659000D01*
X63040000Y-49699000D02*
X66002000Y-49699000D01*
X57998000Y-49699000D02*
X60960000Y-49699000D01*
X63040000Y-49739000D02*
X66010000Y-49739000D01*
X57990000Y-49739000D02*
X60960000Y-49739000D01*
X63040000Y-49779000D02*
X66017000Y-49779000D01*
X57983000Y-49779000D02*
X60960000Y-49779000D01*
X63040000Y-49820000D02*
X66024000Y-49820000D01*
X57976000Y-49820000D02*
X60960000Y-49820000D01*
X63040000Y-49860000D02*
X66030000Y-49860000D01*
X57970000Y-49860000D02*
X60960000Y-49860000D01*
X63040000Y-49900000D02*
X66037000Y-49900000D01*
X57963000Y-49900000D02*
X60960000Y-49900000D01*
X63040000Y-49940000D02*
X66042000Y-49940000D01*
X57958000Y-49940000D02*
X60960000Y-49940000D01*
X63040000Y-49980000D02*
X66048000Y-49980000D01*
X57952000Y-49980000D02*
X60960000Y-49980000D01*
X63040000Y-50020000D02*
X66052000Y-50020000D01*
X57948000Y-50020000D02*
X60960000Y-50020000D01*
X63040000Y-50060000D02*
X66057000Y-50060000D01*
X57943000Y-50060000D02*
X60960000Y-50060000D01*
X63040000Y-50100000D02*
X66061000Y-50100000D01*
X57939000Y-50100000D02*
X60960000Y-50100000D01*
X63040000Y-50140000D02*
X66065000Y-50140000D01*
X57935000Y-50140000D02*
X60960000Y-50140000D01*
X63040000Y-50180000D02*
X66068000Y-50180000D01*
X57932000Y-50180000D02*
X60960000Y-50180000D01*
X63040000Y-50220000D02*
X66071000Y-50220000D01*
X57929000Y-50220000D02*
X60960000Y-50220000D01*
X63040000Y-50260000D02*
X66074000Y-50260000D01*
X57926000Y-50260000D02*
X60960000Y-50260000D01*
X57924000Y-50300000D02*
X66076000Y-50300000D01*
X57923000Y-50340000D02*
X66077000Y-50340000D01*
X57921000Y-50380000D02*
X66079000Y-50380000D01*
X57920000Y-50420000D02*
X66080000Y-50420000D01*
X57920000Y-50460000D02*
X66080000Y-50460000D01*
X57920000Y-50500000D02*
X66080000Y-50500000D01*
X66120000Y-50500000D02*
G75*
G03X66120000Y-50500000I-4120000J0D01*
G01*
X62380000Y-73370000D02*
X62380000Y-70630000D01*
X72620000Y-73370000D02*
X72620000Y-70630000D01*
X72620000Y-70630000D02*
X62380000Y-70630000D01*
X72620000Y-73370000D02*
X62380000Y-73370000D01*
X52870000Y-56120000D02*
X50130000Y-56120000D01*
X52870000Y-45880000D02*
X50130000Y-45880000D01*
X50130000Y-45880000D02*
X50130000Y-56120000D01*
X52870000Y-45880000D02*
X52870000Y-56120000D01*
X76630000Y-124120000D02*
X76630000Y-121380000D01*
X86870000Y-124120000D02*
X86870000Y-121380000D01*
X86870000Y-121380000D02*
X76630000Y-121380000D01*
X86870000Y-124120000D02*
X76630000Y-124120000D01*
X46620000Y-136620000D02*
X43880000Y-136620000D01*
X46620000Y-126380000D02*
X43880000Y-126380000D01*
X43880000Y-126380000D02*
X43880000Y-136620000D01*
X46620000Y-126380000D02*
X46620000Y-136620000D01*
X57215000Y-127990302D02*
X56415000Y-127990302D01*
X56815000Y-127590302D02*
X56815000Y-128390302D01*
X55033000Y-136081000D02*
X53967000Y-136081000D01*
X55268000Y-136041000D02*
X53732000Y-136041000D01*
X55448000Y-136001000D02*
X53552000Y-136001000D01*
X55598000Y-135961000D02*
X53402000Y-135961000D01*
X55729000Y-135921000D02*
X53271000Y-135921000D01*
X55846000Y-135881000D02*
X53154000Y-135881000D01*
X55953000Y-135841000D02*
X53047000Y-135841000D01*
X56052000Y-135801000D02*
X52948000Y-135801000D01*
X56145000Y-135761000D02*
X52855000Y-135761000D01*
X56231000Y-135721000D02*
X52769000Y-135721000D01*
X56313000Y-135681000D02*
X52687000Y-135681000D01*
X56390000Y-135641000D02*
X52610000Y-135641000D01*
X56464000Y-135601000D02*
X52536000Y-135601000D01*
X56534000Y-135561000D02*
X52466000Y-135561000D01*
X56602000Y-135521000D02*
X52398000Y-135521000D01*
X56666000Y-135481000D02*
X52334000Y-135481000D01*
X56728000Y-135441000D02*
X52272000Y-135441000D01*
X56787000Y-135401000D02*
X52213000Y-135401000D01*
X56845000Y-135361000D02*
X52155000Y-135361000D01*
X56900000Y-135321000D02*
X52100000Y-135321000D01*
X56954000Y-135281000D02*
X52046000Y-135281000D01*
X57005000Y-135241000D02*
X51995000Y-135241000D01*
X57056000Y-135201000D02*
X51944000Y-135201000D01*
X57104000Y-135161000D02*
X51896000Y-135161000D01*
X57151000Y-135121000D02*
X51849000Y-135121000D01*
X57197000Y-135081000D02*
X51803000Y-135081000D01*
X57241000Y-135041000D02*
X51759000Y-135041000D01*
X57284000Y-135001000D02*
X51716000Y-135001000D01*
X57326000Y-134961000D02*
X51674000Y-134961000D01*
X57367000Y-134921000D02*
X51633000Y-134921000D01*
X57407000Y-134881000D02*
X51593000Y-134881000D01*
X57445000Y-134841000D02*
X51555000Y-134841000D01*
X57483000Y-134801000D02*
X51517000Y-134801000D01*
X57519000Y-134761000D02*
X51481000Y-134761000D01*
X57555000Y-134721000D02*
X51445000Y-134721000D01*
X57590000Y-134681000D02*
X51410000Y-134681000D01*
X57624000Y-134641000D02*
X51376000Y-134641000D01*
X57656000Y-134601000D02*
X51344000Y-134601000D01*
X57689000Y-134561000D02*
X51311000Y-134561000D01*
X57720000Y-134521000D02*
X51280000Y-134521000D01*
X57750000Y-134481000D02*
X51250000Y-134481000D01*
X57780000Y-134441000D02*
X51220000Y-134441000D01*
X57809000Y-134401000D02*
X51191000Y-134401000D01*
X57838000Y-134361000D02*
X51162000Y-134361000D01*
X57865000Y-134321000D02*
X51135000Y-134321000D01*
X53460000Y-134281000D02*
X51108000Y-134281000D01*
X57892000Y-134281000D02*
X55540000Y-134281000D01*
X53460000Y-134241000D02*
X51082000Y-134241000D01*
X57918000Y-134241000D02*
X55540000Y-134241000D01*
X53460000Y-134201000D02*
X51056000Y-134201000D01*
X57944000Y-134201000D02*
X55540000Y-134201000D01*
X53460000Y-134161000D02*
X51031000Y-134161000D01*
X57969000Y-134161000D02*
X55540000Y-134161000D01*
X53460000Y-134121000D02*
X51007000Y-134121000D01*
X57993000Y-134121000D02*
X55540000Y-134121000D01*
X53460000Y-134081000D02*
X50983000Y-134081000D01*
X58017000Y-134081000D02*
X55540000Y-134081000D01*
X53460000Y-134041000D02*
X50960000Y-134041000D01*
X58040000Y-134041000D02*
X55540000Y-134041000D01*
X53460000Y-134001000D02*
X50938000Y-134001000D01*
X58062000Y-134001000D02*
X55540000Y-134001000D01*
X53460000Y-133961000D02*
X50916000Y-133961000D01*
X58084000Y-133961000D02*
X55540000Y-133961000D01*
X53460000Y-133921000D02*
X50894000Y-133921000D01*
X58106000Y-133921000D02*
X55540000Y-133921000D01*
X53460000Y-133881000D02*
X50873000Y-133881000D01*
X58127000Y-133881000D02*
X55540000Y-133881000D01*
X53460000Y-133841000D02*
X50853000Y-133841000D01*
X58147000Y-133841000D02*
X55540000Y-133841000D01*
X53460000Y-133801000D02*
X50834000Y-133801000D01*
X58166000Y-133801000D02*
X55540000Y-133801000D01*
X53460000Y-133761000D02*
X50814000Y-133761000D01*
X58186000Y-133761000D02*
X55540000Y-133761000D01*
X53460000Y-133721000D02*
X50796000Y-133721000D01*
X58204000Y-133721000D02*
X55540000Y-133721000D01*
X53460000Y-133681000D02*
X50778000Y-133681000D01*
X58222000Y-133681000D02*
X55540000Y-133681000D01*
X53460000Y-133641000D02*
X50760000Y-133641000D01*
X58240000Y-133641000D02*
X55540000Y-133641000D01*
X53460000Y-133601000D02*
X50743000Y-133601000D01*
X58257000Y-133601000D02*
X55540000Y-133601000D01*
X53460000Y-133561000D02*
X50726000Y-133561000D01*
X58274000Y-133561000D02*
X55540000Y-133561000D01*
X53460000Y-133521000D02*
X50710000Y-133521000D01*
X58290000Y-133521000D02*
X55540000Y-133521000D01*
X53460000Y-133481000D02*
X50695000Y-133481000D01*
X58305000Y-133481000D02*
X55540000Y-133481000D01*
X53460000Y-133441000D02*
X50679000Y-133441000D01*
X58321000Y-133441000D02*
X55540000Y-133441000D01*
X53460000Y-133401000D02*
X50665000Y-133401000D01*
X58335000Y-133401000D02*
X55540000Y-133401000D01*
X53460000Y-133361000D02*
X50650000Y-133361000D01*
X58350000Y-133361000D02*
X55540000Y-133361000D01*
X53460000Y-133321000D02*
X50637000Y-133321000D01*
X58363000Y-133321000D02*
X55540000Y-133321000D01*
X53460000Y-133281000D02*
X50623000Y-133281000D01*
X58377000Y-133281000D02*
X55540000Y-133281000D01*
X53460000Y-133241000D02*
X50611000Y-133241000D01*
X58389000Y-133241000D02*
X55540000Y-133241000D01*
X53460000Y-133201000D02*
X50598000Y-133201000D01*
X58402000Y-133201000D02*
X55540000Y-133201000D01*
X53460000Y-133161000D02*
X50586000Y-133161000D01*
X58414000Y-133161000D02*
X55540000Y-133161000D01*
X53460000Y-133121000D02*
X50575000Y-133121000D01*
X58425000Y-133121000D02*
X55540000Y-133121000D01*
X53460000Y-133081000D02*
X50564000Y-133081000D01*
X58436000Y-133081000D02*
X55540000Y-133081000D01*
X53460000Y-133041000D02*
X50553000Y-133041000D01*
X58447000Y-133041000D02*
X55540000Y-133041000D01*
X53460000Y-133001000D02*
X50543000Y-133001000D01*
X58457000Y-133001000D02*
X55540000Y-133001000D01*
X53460000Y-132961000D02*
X50533000Y-132961000D01*
X58467000Y-132961000D02*
X55540000Y-132961000D01*
X53460000Y-132921000D02*
X50524000Y-132921000D01*
X58476000Y-132921000D02*
X55540000Y-132921000D01*
X53460000Y-132881000D02*
X50515000Y-132881000D01*
X58485000Y-132881000D02*
X55540000Y-132881000D01*
X53460000Y-132841000D02*
X50506000Y-132841000D01*
X58494000Y-132841000D02*
X55540000Y-132841000D01*
X53460000Y-132801000D02*
X50498000Y-132801000D01*
X58502000Y-132801000D02*
X55540000Y-132801000D01*
X53460000Y-132761000D02*
X50490000Y-132761000D01*
X58510000Y-132761000D02*
X55540000Y-132761000D01*
X53460000Y-132721000D02*
X50483000Y-132721000D01*
X58517000Y-132721000D02*
X55540000Y-132721000D01*
X53460000Y-132680000D02*
X50476000Y-132680000D01*
X58524000Y-132680000D02*
X55540000Y-132680000D01*
X53460000Y-132640000D02*
X50470000Y-132640000D01*
X58530000Y-132640000D02*
X55540000Y-132640000D01*
X53460000Y-132600000D02*
X50463000Y-132600000D01*
X58537000Y-132600000D02*
X55540000Y-132600000D01*
X53460000Y-132560000D02*
X50458000Y-132560000D01*
X58542000Y-132560000D02*
X55540000Y-132560000D01*
X53460000Y-132520000D02*
X50452000Y-132520000D01*
X58548000Y-132520000D02*
X55540000Y-132520000D01*
X53460000Y-132480000D02*
X50448000Y-132480000D01*
X58552000Y-132480000D02*
X55540000Y-132480000D01*
X53460000Y-132440000D02*
X50443000Y-132440000D01*
X58557000Y-132440000D02*
X55540000Y-132440000D01*
X53460000Y-132400000D02*
X50439000Y-132400000D01*
X58561000Y-132400000D02*
X55540000Y-132400000D01*
X53460000Y-132360000D02*
X50435000Y-132360000D01*
X58565000Y-132360000D02*
X55540000Y-132360000D01*
X53460000Y-132320000D02*
X50432000Y-132320000D01*
X58568000Y-132320000D02*
X55540000Y-132320000D01*
X53460000Y-132280000D02*
X50429000Y-132280000D01*
X58571000Y-132280000D02*
X55540000Y-132280000D01*
X53460000Y-132240000D02*
X50426000Y-132240000D01*
X58574000Y-132240000D02*
X55540000Y-132240000D01*
X58576000Y-132200000D02*
X50424000Y-132200000D01*
X58577000Y-132160000D02*
X50423000Y-132160000D01*
X58579000Y-132120000D02*
X50421000Y-132120000D01*
X58580000Y-132080000D02*
X50420000Y-132080000D01*
X58580000Y-132040000D02*
X50420000Y-132040000D01*
X58580000Y-132000000D02*
X50420000Y-132000000D01*
X58620000Y-132000000D02*
G75*
G03X58620000Y-132000000I-4120000J0D01*
G01*
X60098893Y-35356319D02*
X62838893Y-35356319D01*
X60098893Y-45596319D02*
X62838893Y-45596319D01*
X62838893Y-45596319D02*
X62838893Y-35356319D01*
X60098893Y-45596319D02*
X60098893Y-35356319D01*
X108419417Y-69393110D02*
X110356890Y-71330583D01*
X101178644Y-76633883D02*
X103116117Y-78571356D01*
X103116117Y-78571356D02*
X110356890Y-71330583D01*
X101178644Y-76633883D02*
X108419417Y-69393110D01*
X77740302Y-75785000D02*
X77740302Y-76585000D01*
X77340302Y-76185000D02*
X78140302Y-76185000D01*
X85831000Y-77967000D02*
X85831000Y-79033000D01*
X85791000Y-77732000D02*
X85791000Y-79268000D01*
X85751000Y-77552000D02*
X85751000Y-79448000D01*
X85711000Y-77402000D02*
X85711000Y-79598000D01*
X85671000Y-77271000D02*
X85671000Y-79729000D01*
X85631000Y-77154000D02*
X85631000Y-79846000D01*
X85591000Y-77047000D02*
X85591000Y-79953000D01*
X85551000Y-76948000D02*
X85551000Y-80052000D01*
X85511000Y-76855000D02*
X85511000Y-80145000D01*
X85471000Y-76769000D02*
X85471000Y-80231000D01*
X85431000Y-76687000D02*
X85431000Y-80313000D01*
X85391000Y-76610000D02*
X85391000Y-80390000D01*
X85351000Y-76536000D02*
X85351000Y-80464000D01*
X85311000Y-76466000D02*
X85311000Y-80534000D01*
X85271000Y-76398000D02*
X85271000Y-80602000D01*
X85231000Y-76334000D02*
X85231000Y-80666000D01*
X85191000Y-76272000D02*
X85191000Y-80728000D01*
X85151000Y-76213000D02*
X85151000Y-80787000D01*
X85111000Y-76155000D02*
X85111000Y-80845000D01*
X85071000Y-76100000D02*
X85071000Y-80900000D01*
X85031000Y-76046000D02*
X85031000Y-80954000D01*
X84991000Y-75995000D02*
X84991000Y-81005000D01*
X84951000Y-75944000D02*
X84951000Y-81056000D01*
X84911000Y-75896000D02*
X84911000Y-81104000D01*
X84871000Y-75849000D02*
X84871000Y-81151000D01*
X84831000Y-75803000D02*
X84831000Y-81197000D01*
X84791000Y-75759000D02*
X84791000Y-81241000D01*
X84751000Y-75716000D02*
X84751000Y-81284000D01*
X84711000Y-75674000D02*
X84711000Y-81326000D01*
X84671000Y-75633000D02*
X84671000Y-81367000D01*
X84631000Y-75593000D02*
X84631000Y-81407000D01*
X84591000Y-75555000D02*
X84591000Y-81445000D01*
X84551000Y-75517000D02*
X84551000Y-81483000D01*
X84511000Y-75481000D02*
X84511000Y-81519000D01*
X84471000Y-75445000D02*
X84471000Y-81555000D01*
X84431000Y-75410000D02*
X84431000Y-81590000D01*
X84391000Y-75376000D02*
X84391000Y-81624000D01*
X84351000Y-75344000D02*
X84351000Y-81656000D01*
X84311000Y-75311000D02*
X84311000Y-81689000D01*
X84271000Y-75280000D02*
X84271000Y-81720000D01*
X84231000Y-75250000D02*
X84231000Y-81750000D01*
X84191000Y-75220000D02*
X84191000Y-81780000D01*
X84151000Y-75191000D02*
X84151000Y-81809000D01*
X84111000Y-75162000D02*
X84111000Y-81838000D01*
X84071000Y-75135000D02*
X84071000Y-81865000D01*
X84031000Y-79540000D02*
X84031000Y-81892000D01*
X84031000Y-75108000D02*
X84031000Y-77460000D01*
X83991000Y-79540000D02*
X83991000Y-81918000D01*
X83991000Y-75082000D02*
X83991000Y-77460000D01*
X83951000Y-79540000D02*
X83951000Y-81944000D01*
X83951000Y-75056000D02*
X83951000Y-77460000D01*
X83911000Y-79540000D02*
X83911000Y-81969000D01*
X83911000Y-75031000D02*
X83911000Y-77460000D01*
X83871000Y-79540000D02*
X83871000Y-81993000D01*
X83871000Y-75007000D02*
X83871000Y-77460000D01*
X83831000Y-79540000D02*
X83831000Y-82017000D01*
X83831000Y-74983000D02*
X83831000Y-77460000D01*
X83791000Y-79540000D02*
X83791000Y-82040000D01*
X83791000Y-74960000D02*
X83791000Y-77460000D01*
X83751000Y-79540000D02*
X83751000Y-82062000D01*
X83751000Y-74938000D02*
X83751000Y-77460000D01*
X83711000Y-79540000D02*
X83711000Y-82084000D01*
X83711000Y-74916000D02*
X83711000Y-77460000D01*
X83671000Y-79540000D02*
X83671000Y-82106000D01*
X83671000Y-74894000D02*
X83671000Y-77460000D01*
X83631000Y-79540000D02*
X83631000Y-82127000D01*
X83631000Y-74873000D02*
X83631000Y-77460000D01*
X83591000Y-79540000D02*
X83591000Y-82147000D01*
X83591000Y-74853000D02*
X83591000Y-77460000D01*
X83551000Y-79540000D02*
X83551000Y-82166000D01*
X83551000Y-74834000D02*
X83551000Y-77460000D01*
X83511000Y-79540000D02*
X83511000Y-82186000D01*
X83511000Y-74814000D02*
X83511000Y-77460000D01*
X83471000Y-79540000D02*
X83471000Y-82204000D01*
X83471000Y-74796000D02*
X83471000Y-77460000D01*
X83431000Y-79540000D02*
X83431000Y-82222000D01*
X83431000Y-74778000D02*
X83431000Y-77460000D01*
X83391000Y-79540000D02*
X83391000Y-82240000D01*
X83391000Y-74760000D02*
X83391000Y-77460000D01*
X83351000Y-79540000D02*
X83351000Y-82257000D01*
X83351000Y-74743000D02*
X83351000Y-77460000D01*
X83311000Y-79540000D02*
X83311000Y-82274000D01*
X83311000Y-74726000D02*
X83311000Y-77460000D01*
X83271000Y-79540000D02*
X83271000Y-82290000D01*
X83271000Y-74710000D02*
X83271000Y-77460000D01*
X83231000Y-79540000D02*
X83231000Y-82305000D01*
X83231000Y-74695000D02*
X83231000Y-77460000D01*
X83191000Y-79540000D02*
X83191000Y-82321000D01*
X83191000Y-74679000D02*
X83191000Y-77460000D01*
X83151000Y-79540000D02*
X83151000Y-82335000D01*
X83151000Y-74665000D02*
X83151000Y-77460000D01*
X83111000Y-79540000D02*
X83111000Y-82350000D01*
X83111000Y-74650000D02*
X83111000Y-77460000D01*
X83071000Y-79540000D02*
X83071000Y-82363000D01*
X83071000Y-74637000D02*
X83071000Y-77460000D01*
X83031000Y-79540000D02*
X83031000Y-82377000D01*
X83031000Y-74623000D02*
X83031000Y-77460000D01*
X82991000Y-79540000D02*
X82991000Y-82389000D01*
X82991000Y-74611000D02*
X82991000Y-77460000D01*
X82951000Y-79540000D02*
X82951000Y-82402000D01*
X82951000Y-74598000D02*
X82951000Y-77460000D01*
X82911000Y-79540000D02*
X82911000Y-82414000D01*
X82911000Y-74586000D02*
X82911000Y-77460000D01*
X82871000Y-79540000D02*
X82871000Y-82425000D01*
X82871000Y-74575000D02*
X82871000Y-77460000D01*
X82831000Y-79540000D02*
X82831000Y-82436000D01*
X82831000Y-74564000D02*
X82831000Y-77460000D01*
X82791000Y-79540000D02*
X82791000Y-82447000D01*
X82791000Y-74553000D02*
X82791000Y-77460000D01*
X82751000Y-79540000D02*
X82751000Y-82457000D01*
X82751000Y-74543000D02*
X82751000Y-77460000D01*
X82711000Y-79540000D02*
X82711000Y-82467000D01*
X82711000Y-74533000D02*
X82711000Y-77460000D01*
X82671000Y-79540000D02*
X82671000Y-82476000D01*
X82671000Y-74524000D02*
X82671000Y-77460000D01*
X82631000Y-79540000D02*
X82631000Y-82485000D01*
X82631000Y-74515000D02*
X82631000Y-77460000D01*
X82591000Y-79540000D02*
X82591000Y-82494000D01*
X82591000Y-74506000D02*
X82591000Y-77460000D01*
X82551000Y-79540000D02*
X82551000Y-82502000D01*
X82551000Y-74498000D02*
X82551000Y-77460000D01*
X82511000Y-79540000D02*
X82511000Y-82510000D01*
X82511000Y-74490000D02*
X82511000Y-77460000D01*
X82471000Y-79540000D02*
X82471000Y-82517000D01*
X82471000Y-74483000D02*
X82471000Y-77460000D01*
X82430000Y-79540000D02*
X82430000Y-82524000D01*
X82430000Y-74476000D02*
X82430000Y-77460000D01*
X82390000Y-79540000D02*
X82390000Y-82530000D01*
X82390000Y-74470000D02*
X82390000Y-77460000D01*
X82350000Y-79540000D02*
X82350000Y-82537000D01*
X82350000Y-74463000D02*
X82350000Y-77460000D01*
X82310000Y-79540000D02*
X82310000Y-82542000D01*
X82310000Y-74458000D02*
X82310000Y-77460000D01*
X82270000Y-79540000D02*
X82270000Y-82548000D01*
X82270000Y-74452000D02*
X82270000Y-77460000D01*
X82230000Y-79540000D02*
X82230000Y-82552000D01*
X82230000Y-74448000D02*
X82230000Y-77460000D01*
X82190000Y-79540000D02*
X82190000Y-82557000D01*
X82190000Y-74443000D02*
X82190000Y-77460000D01*
X82150000Y-79540000D02*
X82150000Y-82561000D01*
X82150000Y-74439000D02*
X82150000Y-77460000D01*
X82110000Y-79540000D02*
X82110000Y-82565000D01*
X82110000Y-74435000D02*
X82110000Y-77460000D01*
X82070000Y-79540000D02*
X82070000Y-82568000D01*
X82070000Y-74432000D02*
X82070000Y-77460000D01*
X82030000Y-79540000D02*
X82030000Y-82571000D01*
X82030000Y-74429000D02*
X82030000Y-77460000D01*
X81990000Y-79540000D02*
X81990000Y-82574000D01*
X81990000Y-74426000D02*
X81990000Y-77460000D01*
X81950000Y-74424000D02*
X81950000Y-82576000D01*
X81910000Y-74423000D02*
X81910000Y-82577000D01*
X81870000Y-74421000D02*
X81870000Y-82579000D01*
X81830000Y-74420000D02*
X81830000Y-82580000D01*
X81790000Y-74420000D02*
X81790000Y-82580000D01*
X81750000Y-74420000D02*
X81750000Y-82580000D01*
X85870000Y-78500000D02*
G75*
G03X85870000Y-78500000I-4120000J0D01*
G01*
X93740302Y-64785000D02*
X93740302Y-65585000D01*
X93340302Y-65185000D02*
X94140302Y-65185000D01*
X101831000Y-66967000D02*
X101831000Y-68033000D01*
X101791000Y-66732000D02*
X101791000Y-68268000D01*
X101751000Y-66552000D02*
X101751000Y-68448000D01*
X101711000Y-66402000D02*
X101711000Y-68598000D01*
X101671000Y-66271000D02*
X101671000Y-68729000D01*
X101631000Y-66154000D02*
X101631000Y-68846000D01*
X101591000Y-66047000D02*
X101591000Y-68953000D01*
X101551000Y-65948000D02*
X101551000Y-69052000D01*
X101511000Y-65855000D02*
X101511000Y-69145000D01*
X101471000Y-65769000D02*
X101471000Y-69231000D01*
X101431000Y-65687000D02*
X101431000Y-69313000D01*
X101391000Y-65610000D02*
X101391000Y-69390000D01*
X101351000Y-65536000D02*
X101351000Y-69464000D01*
X101311000Y-65466000D02*
X101311000Y-69534000D01*
X101271000Y-68540000D02*
X101271000Y-69602000D01*
X101271000Y-65398000D02*
X101271000Y-66460000D01*
X101231000Y-68540000D02*
X101231000Y-69666000D01*
X101231000Y-65334000D02*
X101231000Y-66460000D01*
X101191000Y-68540000D02*
X101191000Y-69728000D01*
X101191000Y-65272000D02*
X101191000Y-66460000D01*
X101151000Y-68540000D02*
X101151000Y-69787000D01*
X101151000Y-65213000D02*
X101151000Y-66460000D01*
X101111000Y-68540000D02*
X101111000Y-69845000D01*
X101111000Y-65155000D02*
X101111000Y-66460000D01*
X101071000Y-68540000D02*
X101071000Y-69900000D01*
X101071000Y-65100000D02*
X101071000Y-66460000D01*
X101031000Y-68540000D02*
X101031000Y-69954000D01*
X101031000Y-65046000D02*
X101031000Y-66460000D01*
X100991000Y-68540000D02*
X100991000Y-70005000D01*
X100991000Y-64995000D02*
X100991000Y-66460000D01*
X100951000Y-68540000D02*
X100951000Y-70056000D01*
X100951000Y-64944000D02*
X100951000Y-66460000D01*
X100911000Y-68540000D02*
X100911000Y-70104000D01*
X100911000Y-64896000D02*
X100911000Y-66460000D01*
X100871000Y-68540000D02*
X100871000Y-70151000D01*
X100871000Y-64849000D02*
X100871000Y-66460000D01*
X100831000Y-68540000D02*
X100831000Y-70197000D01*
X100831000Y-64803000D02*
X100831000Y-66460000D01*
X100791000Y-68540000D02*
X100791000Y-70241000D01*
X100791000Y-64759000D02*
X100791000Y-66460000D01*
X100751000Y-68540000D02*
X100751000Y-70284000D01*
X100751000Y-64716000D02*
X100751000Y-66460000D01*
X100711000Y-68540000D02*
X100711000Y-70326000D01*
X100711000Y-64674000D02*
X100711000Y-66460000D01*
X100671000Y-68540000D02*
X100671000Y-70367000D01*
X100671000Y-64633000D02*
X100671000Y-66460000D01*
X100631000Y-68540000D02*
X100631000Y-70407000D01*
X100631000Y-64593000D02*
X100631000Y-66460000D01*
X100591000Y-68540000D02*
X100591000Y-70445000D01*
X100591000Y-64555000D02*
X100591000Y-66460000D01*
X100551000Y-68540000D02*
X100551000Y-70483000D01*
X100551000Y-64517000D02*
X100551000Y-66460000D01*
X100511000Y-68540000D02*
X100511000Y-70519000D01*
X100511000Y-64481000D02*
X100511000Y-66460000D01*
X100471000Y-68540000D02*
X100471000Y-70555000D01*
X100471000Y-64445000D02*
X100471000Y-66460000D01*
X100431000Y-68540000D02*
X100431000Y-70590000D01*
X100431000Y-64410000D02*
X100431000Y-66460000D01*
X100391000Y-68540000D02*
X100391000Y-70624000D01*
X100391000Y-64376000D02*
X100391000Y-66460000D01*
X100351000Y-68540000D02*
X100351000Y-70656000D01*
X100351000Y-64344000D02*
X100351000Y-66460000D01*
X100311000Y-68540000D02*
X100311000Y-70689000D01*
X100311000Y-64311000D02*
X100311000Y-66460000D01*
X100271000Y-68540000D02*
X100271000Y-70720000D01*
X100271000Y-64280000D02*
X100271000Y-66460000D01*
X100231000Y-68540000D02*
X100231000Y-70750000D01*
X100231000Y-64250000D02*
X100231000Y-66460000D01*
X100191000Y-68540000D02*
X100191000Y-70780000D01*
X100191000Y-64220000D02*
X100191000Y-66460000D01*
X100151000Y-68540000D02*
X100151000Y-70809000D01*
X100151000Y-64191000D02*
X100151000Y-66460000D01*
X100111000Y-68540000D02*
X100111000Y-70838000D01*
X100111000Y-64162000D02*
X100111000Y-66460000D01*
X100071000Y-68540000D02*
X100071000Y-70865000D01*
X100071000Y-64135000D02*
X100071000Y-66460000D01*
X100031000Y-68540000D02*
X100031000Y-70892000D01*
X100031000Y-64108000D02*
X100031000Y-66460000D01*
X99991000Y-68540000D02*
X99991000Y-70918000D01*
X99991000Y-64082000D02*
X99991000Y-66460000D01*
X99951000Y-68540000D02*
X99951000Y-70944000D01*
X99951000Y-64056000D02*
X99951000Y-66460000D01*
X99911000Y-68540000D02*
X99911000Y-70969000D01*
X99911000Y-64031000D02*
X99911000Y-66460000D01*
X99871000Y-68540000D02*
X99871000Y-70993000D01*
X99871000Y-64007000D02*
X99871000Y-66460000D01*
X99831000Y-68540000D02*
X99831000Y-71017000D01*
X99831000Y-63983000D02*
X99831000Y-66460000D01*
X99791000Y-68540000D02*
X99791000Y-71040000D01*
X99791000Y-63960000D02*
X99791000Y-66460000D01*
X99751000Y-68540000D02*
X99751000Y-71062000D01*
X99751000Y-63938000D02*
X99751000Y-66460000D01*
X99711000Y-68540000D02*
X99711000Y-71084000D01*
X99711000Y-63916000D02*
X99711000Y-66460000D01*
X99671000Y-68540000D02*
X99671000Y-71106000D01*
X99671000Y-63894000D02*
X99671000Y-66460000D01*
X99631000Y-68540000D02*
X99631000Y-71127000D01*
X99631000Y-63873000D02*
X99631000Y-66460000D01*
X99591000Y-68540000D02*
X99591000Y-71147000D01*
X99591000Y-63853000D02*
X99591000Y-66460000D01*
X99551000Y-68540000D02*
X99551000Y-71166000D01*
X99551000Y-63834000D02*
X99551000Y-66460000D01*
X99511000Y-68540000D02*
X99511000Y-71186000D01*
X99511000Y-63814000D02*
X99511000Y-66460000D01*
X99471000Y-68540000D02*
X99471000Y-71204000D01*
X99471000Y-63796000D02*
X99471000Y-66460000D01*
X99431000Y-68540000D02*
X99431000Y-71222000D01*
X99431000Y-63778000D02*
X99431000Y-66460000D01*
X99391000Y-68540000D02*
X99391000Y-71240000D01*
X99391000Y-63760000D02*
X99391000Y-66460000D01*
X99351000Y-68540000D02*
X99351000Y-71257000D01*
X99351000Y-63743000D02*
X99351000Y-66460000D01*
X99311000Y-68540000D02*
X99311000Y-71274000D01*
X99311000Y-63726000D02*
X99311000Y-66460000D01*
X99271000Y-68540000D02*
X99271000Y-71290000D01*
X99271000Y-63710000D02*
X99271000Y-66460000D01*
X99231000Y-68540000D02*
X99231000Y-71305000D01*
X99231000Y-63695000D02*
X99231000Y-66460000D01*
X99191000Y-63679000D02*
X99191000Y-71321000D01*
X99151000Y-63665000D02*
X99151000Y-71335000D01*
X99111000Y-63650000D02*
X99111000Y-71350000D01*
X99071000Y-63637000D02*
X99071000Y-71363000D01*
X99031000Y-63623000D02*
X99031000Y-71377000D01*
X98991000Y-63611000D02*
X98991000Y-71389000D01*
X98951000Y-63598000D02*
X98951000Y-71402000D01*
X98911000Y-63586000D02*
X98911000Y-71414000D01*
X98871000Y-63575000D02*
X98871000Y-71425000D01*
X98831000Y-63564000D02*
X98831000Y-71436000D01*
X98791000Y-63553000D02*
X98791000Y-71447000D01*
X98751000Y-63543000D02*
X98751000Y-71457000D01*
X98711000Y-63533000D02*
X98711000Y-71467000D01*
X98671000Y-63524000D02*
X98671000Y-71476000D01*
X98631000Y-63515000D02*
X98631000Y-71485000D01*
X98591000Y-63506000D02*
X98591000Y-71494000D01*
X98551000Y-63498000D02*
X98551000Y-71502000D01*
X98511000Y-63490000D02*
X98511000Y-71510000D01*
X98471000Y-63483000D02*
X98471000Y-71517000D01*
X98430000Y-63476000D02*
X98430000Y-71524000D01*
X98390000Y-63470000D02*
X98390000Y-71530000D01*
X98350000Y-63463000D02*
X98350000Y-71537000D01*
X98310000Y-63458000D02*
X98310000Y-71542000D01*
X98270000Y-63452000D02*
X98270000Y-71548000D01*
X98230000Y-63448000D02*
X98230000Y-71552000D01*
X98190000Y-63443000D02*
X98190000Y-71557000D01*
X98150000Y-63439000D02*
X98150000Y-71561000D01*
X98110000Y-63435000D02*
X98110000Y-71565000D01*
X98070000Y-63432000D02*
X98070000Y-71568000D01*
X98030000Y-63429000D02*
X98030000Y-71571000D01*
X97990000Y-63426000D02*
X97990000Y-71574000D01*
X97950000Y-63424000D02*
X97950000Y-71576000D01*
X97910000Y-63423000D02*
X97910000Y-71577000D01*
X97870000Y-63421000D02*
X97870000Y-71579000D01*
X97830000Y-63420000D02*
X97830000Y-71580000D01*
X97790000Y-63420000D02*
X97790000Y-71580000D01*
X97750000Y-63420000D02*
X97750000Y-71580000D01*
X101870000Y-67500000D02*
G75*
G03X101870000Y-67500000I-4120000J0D01*
G01*
X75509698Y-66715000D02*
X75509698Y-65915000D01*
X75909698Y-66315000D02*
X75109698Y-66315000D01*
X67419000Y-64533000D02*
X67419000Y-63467000D01*
X67459000Y-64768000D02*
X67459000Y-63232000D01*
X67499000Y-64948000D02*
X67499000Y-63052000D01*
X67539000Y-65098000D02*
X67539000Y-62902000D01*
X67579000Y-65229000D02*
X67579000Y-62771000D01*
X67619000Y-65346000D02*
X67619000Y-62654000D01*
X67659000Y-65453000D02*
X67659000Y-62547000D01*
X67699000Y-65552000D02*
X67699000Y-62448000D01*
X67739000Y-65645000D02*
X67739000Y-62355000D01*
X67779000Y-65731000D02*
X67779000Y-62269000D01*
X67819000Y-65813000D02*
X67819000Y-62187000D01*
X67859000Y-65890000D02*
X67859000Y-62110000D01*
X67899000Y-65964000D02*
X67899000Y-62036000D01*
X67939000Y-66034000D02*
X67939000Y-61966000D01*
X67979000Y-62960000D02*
X67979000Y-61898000D01*
X67979000Y-66102000D02*
X67979000Y-65040000D01*
X68019000Y-62960000D02*
X68019000Y-61834000D01*
X68019000Y-66166000D02*
X68019000Y-65040000D01*
X68059000Y-62960000D02*
X68059000Y-61772000D01*
X68059000Y-66228000D02*
X68059000Y-65040000D01*
X68099000Y-62960000D02*
X68099000Y-61713000D01*
X68099000Y-66287000D02*
X68099000Y-65040000D01*
X68139000Y-62960000D02*
X68139000Y-61655000D01*
X68139000Y-66345000D02*
X68139000Y-65040000D01*
X68179000Y-62960000D02*
X68179000Y-61600000D01*
X68179000Y-66400000D02*
X68179000Y-65040000D01*
X68219000Y-62960000D02*
X68219000Y-61546000D01*
X68219000Y-66454000D02*
X68219000Y-65040000D01*
X68259000Y-62960000D02*
X68259000Y-61495000D01*
X68259000Y-66505000D02*
X68259000Y-65040000D01*
X68299000Y-62960000D02*
X68299000Y-61444000D01*
X68299000Y-66556000D02*
X68299000Y-65040000D01*
X68339000Y-62960000D02*
X68339000Y-61396000D01*
X68339000Y-66604000D02*
X68339000Y-65040000D01*
X68379000Y-62960000D02*
X68379000Y-61349000D01*
X68379000Y-66651000D02*
X68379000Y-65040000D01*
X68419000Y-62960000D02*
X68419000Y-61303000D01*
X68419000Y-66697000D02*
X68419000Y-65040000D01*
X68459000Y-62960000D02*
X68459000Y-61259000D01*
X68459000Y-66741000D02*
X68459000Y-65040000D01*
X68499000Y-62960000D02*
X68499000Y-61216000D01*
X68499000Y-66784000D02*
X68499000Y-65040000D01*
X68539000Y-62960000D02*
X68539000Y-61174000D01*
X68539000Y-66826000D02*
X68539000Y-65040000D01*
X68579000Y-62960000D02*
X68579000Y-61133000D01*
X68579000Y-66867000D02*
X68579000Y-65040000D01*
X68619000Y-62960000D02*
X68619000Y-61093000D01*
X68619000Y-66907000D02*
X68619000Y-65040000D01*
X68659000Y-62960000D02*
X68659000Y-61055000D01*
X68659000Y-66945000D02*
X68659000Y-65040000D01*
X68699000Y-62960000D02*
X68699000Y-61017000D01*
X68699000Y-66983000D02*
X68699000Y-65040000D01*
X68739000Y-62960000D02*
X68739000Y-60981000D01*
X68739000Y-67019000D02*
X68739000Y-65040000D01*
X68779000Y-62960000D02*
X68779000Y-60945000D01*
X68779000Y-67055000D02*
X68779000Y-65040000D01*
X68819000Y-62960000D02*
X68819000Y-60910000D01*
X68819000Y-67090000D02*
X68819000Y-65040000D01*
X68859000Y-62960000D02*
X68859000Y-60876000D01*
X68859000Y-67124000D02*
X68859000Y-65040000D01*
X68899000Y-62960000D02*
X68899000Y-60844000D01*
X68899000Y-67156000D02*
X68899000Y-65040000D01*
X68939000Y-62960000D02*
X68939000Y-60811000D01*
X68939000Y-67189000D02*
X68939000Y-65040000D01*
X68979000Y-62960000D02*
X68979000Y-60780000D01*
X68979000Y-67220000D02*
X68979000Y-65040000D01*
X69019000Y-62960000D02*
X69019000Y-60750000D01*
X69019000Y-67250000D02*
X69019000Y-65040000D01*
X69059000Y-62960000D02*
X69059000Y-60720000D01*
X69059000Y-67280000D02*
X69059000Y-65040000D01*
X69099000Y-62960000D02*
X69099000Y-60691000D01*
X69099000Y-67309000D02*
X69099000Y-65040000D01*
X69139000Y-62960000D02*
X69139000Y-60662000D01*
X69139000Y-67338000D02*
X69139000Y-65040000D01*
X69179000Y-62960000D02*
X69179000Y-60635000D01*
X69179000Y-67365000D02*
X69179000Y-65040000D01*
X69219000Y-62960000D02*
X69219000Y-60608000D01*
X69219000Y-67392000D02*
X69219000Y-65040000D01*
X69259000Y-62960000D02*
X69259000Y-60582000D01*
X69259000Y-67418000D02*
X69259000Y-65040000D01*
X69299000Y-62960000D02*
X69299000Y-60556000D01*
X69299000Y-67444000D02*
X69299000Y-65040000D01*
X69339000Y-62960000D02*
X69339000Y-60531000D01*
X69339000Y-67469000D02*
X69339000Y-65040000D01*
X69379000Y-62960000D02*
X69379000Y-60507000D01*
X69379000Y-67493000D02*
X69379000Y-65040000D01*
X69419000Y-62960000D02*
X69419000Y-60483000D01*
X69419000Y-67517000D02*
X69419000Y-65040000D01*
X69459000Y-62960000D02*
X69459000Y-60460000D01*
X69459000Y-67540000D02*
X69459000Y-65040000D01*
X69499000Y-62960000D02*
X69499000Y-60438000D01*
X69499000Y-67562000D02*
X69499000Y-65040000D01*
X69539000Y-62960000D02*
X69539000Y-60416000D01*
X69539000Y-67584000D02*
X69539000Y-65040000D01*
X69579000Y-62960000D02*
X69579000Y-60394000D01*
X69579000Y-67606000D02*
X69579000Y-65040000D01*
X69619000Y-62960000D02*
X69619000Y-60373000D01*
X69619000Y-67627000D02*
X69619000Y-65040000D01*
X69659000Y-62960000D02*
X69659000Y-60353000D01*
X69659000Y-67647000D02*
X69659000Y-65040000D01*
X69699000Y-62960000D02*
X69699000Y-60334000D01*
X69699000Y-67666000D02*
X69699000Y-65040000D01*
X69739000Y-62960000D02*
X69739000Y-60314000D01*
X69739000Y-67686000D02*
X69739000Y-65040000D01*
X69779000Y-62960000D02*
X69779000Y-60296000D01*
X69779000Y-67704000D02*
X69779000Y-65040000D01*
X69819000Y-62960000D02*
X69819000Y-60278000D01*
X69819000Y-67722000D02*
X69819000Y-65040000D01*
X69859000Y-62960000D02*
X69859000Y-60260000D01*
X69859000Y-67740000D02*
X69859000Y-65040000D01*
X69899000Y-62960000D02*
X69899000Y-60243000D01*
X69899000Y-67757000D02*
X69899000Y-65040000D01*
X69939000Y-62960000D02*
X69939000Y-60226000D01*
X69939000Y-67774000D02*
X69939000Y-65040000D01*
X69979000Y-62960000D02*
X69979000Y-60210000D01*
X69979000Y-67790000D02*
X69979000Y-65040000D01*
X70019000Y-62960000D02*
X70019000Y-60195000D01*
X70019000Y-67805000D02*
X70019000Y-65040000D01*
X70059000Y-67821000D02*
X70059000Y-60179000D01*
X70099000Y-67835000D02*
X70099000Y-60165000D01*
X70139000Y-67850000D02*
X70139000Y-60150000D01*
X70179000Y-67863000D02*
X70179000Y-60137000D01*
X70219000Y-67877000D02*
X70219000Y-60123000D01*
X70259000Y-67889000D02*
X70259000Y-60111000D01*
X70299000Y-67902000D02*
X70299000Y-60098000D01*
X70339000Y-67914000D02*
X70339000Y-60086000D01*
X70379000Y-67925000D02*
X70379000Y-60075000D01*
X70419000Y-67936000D02*
X70419000Y-60064000D01*
X70459000Y-67947000D02*
X70459000Y-60053000D01*
X70499000Y-67957000D02*
X70499000Y-60043000D01*
X70539000Y-67967000D02*
X70539000Y-60033000D01*
X70579000Y-67976000D02*
X70579000Y-60024000D01*
X70619000Y-67985000D02*
X70619000Y-60015000D01*
X70659000Y-67994000D02*
X70659000Y-60006000D01*
X70699000Y-68002000D02*
X70699000Y-59998000D01*
X70739000Y-68010000D02*
X70739000Y-59990000D01*
X70779000Y-68017000D02*
X70779000Y-59983000D01*
X70820000Y-68024000D02*
X70820000Y-59976000D01*
X70860000Y-68030000D02*
X70860000Y-59970000D01*
X70900000Y-68037000D02*
X70900000Y-59963000D01*
X70940000Y-68042000D02*
X70940000Y-59958000D01*
X70980000Y-68048000D02*
X70980000Y-59952000D01*
X71020000Y-68052000D02*
X71020000Y-59948000D01*
X71060000Y-68057000D02*
X71060000Y-59943000D01*
X71100000Y-68061000D02*
X71100000Y-59939000D01*
X71140000Y-68065000D02*
X71140000Y-59935000D01*
X71180000Y-68068000D02*
X71180000Y-59932000D01*
X71220000Y-68071000D02*
X71220000Y-59929000D01*
X71260000Y-68074000D02*
X71260000Y-59926000D01*
X71300000Y-68076000D02*
X71300000Y-59924000D01*
X71340000Y-68077000D02*
X71340000Y-59923000D01*
X71380000Y-68079000D02*
X71380000Y-59921000D01*
X71420000Y-68080000D02*
X71420000Y-59920000D01*
X71460000Y-68080000D02*
X71460000Y-59920000D01*
X71500000Y-68080000D02*
X71500000Y-59920000D01*
X75620000Y-64000000D02*
G75*
G03X75620000Y-64000000I-4120000J0D01*
G01*
X77130000Y-60370000D02*
X77130000Y-57630000D01*
X87370000Y-60370000D02*
X87370000Y-57630000D01*
X87370000Y-57630000D02*
X77130000Y-57630000D01*
X87370000Y-60370000D02*
X77130000Y-60370000D01*
X75130000Y-45130000D02*
X77870000Y-45130000D01*
X75130000Y-55370000D02*
X77870000Y-55370000D01*
X77870000Y-55370000D02*
X77870000Y-45130000D01*
X75130000Y-55370000D02*
X75130000Y-45130000D01*
X69880000Y-34120000D02*
X69880000Y-31380000D01*
X80120000Y-34120000D02*
X80120000Y-31380000D01*
X80120000Y-31380000D02*
X69880000Y-31380000D01*
X80120000Y-34120000D02*
X69880000Y-34120000D01*
X101055000Y-38230000D02*
X101070000Y-38230000D01*
X98930000Y-38230000D02*
X98945000Y-38230000D01*
X101055000Y-42770000D02*
X101070000Y-42770000D01*
X98930000Y-42770000D02*
X98945000Y-42770000D01*
X101070000Y-42770000D02*
X101070000Y-38230000D01*
X98930000Y-42770000D02*
X98930000Y-38230000D01*
X90757669Y-36581685D02*
X90757669Y-39321685D01*
X80517669Y-36581685D02*
X80517669Y-39321685D01*
X80517669Y-39321685D02*
X90757669Y-39321685D01*
X80517669Y-36581685D02*
X90757669Y-36581685D01*
X99630000Y-145870000D02*
X99630000Y-143130000D01*
X109870000Y-145870000D02*
X109870000Y-143130000D01*
X109870000Y-143130000D02*
X99630000Y-143130000D01*
X109870000Y-145870000D02*
X99630000Y-145870000D01*
X52380000Y-151870000D02*
X52380000Y-149130000D01*
X62620000Y-151870000D02*
X62620000Y-149130000D01*
X62620000Y-149130000D02*
X52380000Y-149130000D01*
X62620000Y-151870000D02*
X52380000Y-151870000D01*
D13*
X77268380Y-69672374D02*
X78077904Y-69672374D01*
X78173142Y-69624755D01*
X78220761Y-69577136D01*
X78268380Y-69481898D01*
X78268380Y-69291422D01*
X78220761Y-69196184D01*
X78173142Y-69148565D01*
X78077904Y-69100946D01*
X77268380Y-69100946D01*
X77601714Y-68196184D02*
X78268380Y-68196184D01*
X77220761Y-68434279D02*
X77935047Y-68672374D01*
X77935047Y-68053327D01*
X91869380Y-50166904D02*
X92678904Y-50166904D01*
X92774142Y-50119285D01*
X92821761Y-50071666D01*
X92869380Y-49976428D01*
X92869380Y-49785952D01*
X92821761Y-49690714D01*
X92774142Y-49643095D01*
X92678904Y-49595476D01*
X91869380Y-49595476D01*
X91869380Y-49214523D02*
X91869380Y-48595476D01*
X92250333Y-48928809D01*
X92250333Y-48785952D01*
X92297952Y-48690714D01*
X92345571Y-48643095D01*
X92440809Y-48595476D01*
X92678904Y-48595476D01*
X92774142Y-48643095D01*
X92821761Y-48690714D01*
X92869380Y-48785952D01*
X92869380Y-49071666D01*
X92821761Y-49166904D01*
X92774142Y-49214523D01*
D14*
X110122380Y-139463809D02*
X110836666Y-139463809D01*
X110979523Y-139511428D01*
X111074761Y-139606666D01*
X111122380Y-139749523D01*
X111122380Y-139844761D01*
X110455714Y-139130476D02*
X110455714Y-138749523D01*
X110122380Y-138987619D02*
X110979523Y-138987619D01*
X111074761Y-138940000D01*
X111122380Y-138844761D01*
X111122380Y-138749523D01*
X111122380Y-138511428D02*
X110455714Y-137987619D01*
X110455714Y-138511428D02*
X111122380Y-137987619D01*
X111122380Y-137082857D02*
X111122380Y-137654285D01*
X111122380Y-137368571D02*
X110122380Y-137368571D01*
X110265238Y-137463809D01*
X110360476Y-137559047D01*
X110408095Y-137654285D01*
X80548095Y-126372380D02*
X80548095Y-127181904D01*
X80595714Y-127277142D01*
X80643333Y-127324761D01*
X80738571Y-127372380D01*
X80929047Y-127372380D01*
X81024285Y-127324761D01*
X81071904Y-127277142D01*
X81119523Y-127181904D01*
X81119523Y-126372380D01*
X81548095Y-126467619D02*
X81595714Y-126420000D01*
X81690952Y-126372380D01*
X81929047Y-126372380D01*
X82024285Y-126420000D01*
X82071904Y-126467619D01*
X82119523Y-126562857D01*
X82119523Y-126658095D01*
X82071904Y-126800952D01*
X81500476Y-127372380D01*
X82119523Y-127372380D01*
X58484761Y-28393333D02*
X58532380Y-28250476D01*
X58532380Y-28012380D01*
X58484761Y-27917142D01*
X58437142Y-27869523D01*
X58341904Y-27821904D01*
X58246666Y-27821904D01*
X58151428Y-27869523D01*
X58103809Y-27917142D01*
X58056190Y-28012380D01*
X58008571Y-28202857D01*
X57960952Y-28298095D01*
X57913333Y-28345714D01*
X57818095Y-28393333D01*
X57722857Y-28393333D01*
X57627619Y-28345714D01*
X57580000Y-28298095D01*
X57532380Y-28202857D01*
X57532380Y-27964761D01*
X57580000Y-27821904D01*
X57532380Y-27488571D02*
X58532380Y-27250476D01*
X57818095Y-27060000D01*
X58532380Y-26869523D01*
X57532380Y-26631428D01*
X57627619Y-26298095D02*
X57580000Y-26250476D01*
X57532380Y-26155238D01*
X57532380Y-25917142D01*
X57580000Y-25821904D01*
X57627619Y-25774285D01*
X57722857Y-25726666D01*
X57818095Y-25726666D01*
X57960952Y-25774285D01*
X58532380Y-26345714D01*
X58532380Y-25726666D01*
X66856666Y-122234761D02*
X66999523Y-122282380D01*
X67237619Y-122282380D01*
X67332857Y-122234761D01*
X67380476Y-122187142D01*
X67428095Y-122091904D01*
X67428095Y-121996666D01*
X67380476Y-121901428D01*
X67332857Y-121853809D01*
X67237619Y-121806190D01*
X67047142Y-121758571D01*
X66951904Y-121710952D01*
X66904285Y-121663333D01*
X66856666Y-121568095D01*
X66856666Y-121472857D01*
X66904285Y-121377619D01*
X66951904Y-121330000D01*
X67047142Y-121282380D01*
X67285238Y-121282380D01*
X67428095Y-121330000D01*
X67761428Y-121282380D02*
X67999523Y-122282380D01*
X68190000Y-121568095D01*
X68380476Y-122282380D01*
X68618571Y-121282380D01*
X69523333Y-122282380D02*
X68951904Y-122282380D01*
X69237619Y-122282380D02*
X69237619Y-121282380D01*
X69142380Y-121425238D01*
X69047142Y-121520476D01*
X68951904Y-121568095D01*
X106952380Y-41845238D02*
X106476190Y-42178571D01*
X106952380Y-42416666D02*
X105952380Y-42416666D01*
X105952380Y-42035714D01*
X106000000Y-41940476D01*
X106047619Y-41892857D01*
X106142857Y-41845238D01*
X106285714Y-41845238D01*
X106380952Y-41892857D01*
X106428571Y-41940476D01*
X106476190Y-42035714D01*
X106476190Y-42416666D01*
X105952380Y-41559523D02*
X106952380Y-41226190D01*
X105952380Y-40892857D01*
X106952380Y-40035714D02*
X106952380Y-40607142D01*
X106952380Y-40321428D02*
X105952380Y-40321428D01*
X106095238Y-40416666D01*
X106190476Y-40511904D01*
X106238095Y-40607142D01*
X70548275Y-41754414D02*
X70072085Y-42087747D01*
X70548275Y-42325842D02*
X69548275Y-42325842D01*
X69548275Y-41944890D01*
X69595895Y-41849652D01*
X69643514Y-41802033D01*
X69738752Y-41754414D01*
X69881609Y-41754414D01*
X69976847Y-41802033D01*
X70024466Y-41849652D01*
X70072085Y-41944890D01*
X70072085Y-42325842D01*
X70643514Y-41563938D02*
X70643514Y-40802033D01*
X70548275Y-40563938D02*
X69881609Y-40563938D01*
X69548275Y-40563938D02*
X69595895Y-40611557D01*
X69643514Y-40563938D01*
X69595895Y-40516319D01*
X69548275Y-40563938D01*
X69643514Y-40563938D01*
X69881609Y-40087747D02*
X70548275Y-40087747D01*
X69976847Y-40087747D02*
X69929228Y-40040128D01*
X69881609Y-39944890D01*
X69881609Y-39802033D01*
X69929228Y-39706795D01*
X70024466Y-39659176D01*
X70548275Y-39659176D01*
X70548275Y-38659176D02*
X70548275Y-39230604D01*
X70548275Y-38944890D02*
X69548275Y-38944890D01*
X69691133Y-39040128D01*
X69786371Y-39135366D01*
X69833990Y-39230604D01*
X59540000Y-30332380D02*
X59206666Y-29856190D01*
X58968571Y-30332380D02*
X58968571Y-29332380D01*
X59349523Y-29332380D01*
X59444761Y-29380000D01*
X59492380Y-29427619D01*
X59540000Y-29522857D01*
X59540000Y-29665714D01*
X59492380Y-29760952D01*
X59444761Y-29808571D01*
X59349523Y-29856190D01*
X58968571Y-29856190D01*
X59730476Y-30427619D02*
X60492380Y-30427619D01*
X61159047Y-30332380D02*
X61159047Y-29332380D01*
X61159047Y-30284761D02*
X61063809Y-30332380D01*
X60873333Y-30332380D01*
X60778095Y-30284761D01*
X60730476Y-30237142D01*
X60682857Y-30141904D01*
X60682857Y-29856190D01*
X60730476Y-29760952D01*
X60778095Y-29713333D01*
X60873333Y-29665714D01*
X61063809Y-29665714D01*
X61159047Y-29713333D01*
X62016190Y-30284761D02*
X61920952Y-30332380D01*
X61730476Y-30332380D01*
X61635238Y-30284761D01*
X61587619Y-30189523D01*
X61587619Y-29808571D01*
X61635238Y-29713333D01*
X61730476Y-29665714D01*
X61920952Y-29665714D01*
X62016190Y-29713333D01*
X62063809Y-29808571D01*
X62063809Y-29903809D01*
X61587619Y-29999047D01*
X62349523Y-29665714D02*
X62730476Y-29665714D01*
X62492380Y-29332380D02*
X62492380Y-30189523D01*
X62540000Y-30284761D01*
X62635238Y-30332380D01*
X62730476Y-30332380D01*
X62825714Y-30427619D02*
X63587619Y-30427619D01*
X63968571Y-30332380D02*
X63873333Y-30284761D01*
X63825714Y-30237142D01*
X63778095Y-30141904D01*
X63778095Y-29856190D01*
X63825714Y-29760952D01*
X63873333Y-29713333D01*
X63968571Y-29665714D01*
X64111428Y-29665714D01*
X64206666Y-29713333D01*
X64254285Y-29760952D01*
X64301904Y-29856190D01*
X64301904Y-30141904D01*
X64254285Y-30237142D01*
X64206666Y-30284761D01*
X64111428Y-30332380D01*
X63968571Y-30332380D01*
X64730476Y-29665714D02*
X64730476Y-30332380D01*
X64730476Y-29760952D02*
X64778095Y-29713333D01*
X64873333Y-29665714D01*
X65016190Y-29665714D01*
X65111428Y-29713333D01*
X65159047Y-29808571D01*
X65159047Y-30332380D01*
X66159047Y-30332380D02*
X65587619Y-30332380D01*
X65873333Y-30332380D02*
X65873333Y-29332380D01*
X65778095Y-29475238D01*
X65682857Y-29570476D01*
X65587619Y-29618095D01*
X92147142Y-74832380D02*
X91813809Y-74356190D01*
X91575714Y-74832380D02*
X91575714Y-73832380D01*
X91956666Y-73832380D01*
X92051904Y-73880000D01*
X92099523Y-73927619D01*
X92147142Y-74022857D01*
X92147142Y-74165714D01*
X92099523Y-74260952D01*
X92051904Y-74308571D01*
X91956666Y-74356190D01*
X91575714Y-74356190D01*
X93099523Y-74832380D02*
X92528095Y-74832380D01*
X92813809Y-74832380D02*
X92813809Y-73832380D01*
X92718571Y-73975238D01*
X92623333Y-74070476D01*
X92528095Y-74118095D01*
X93480476Y-73927619D02*
X93528095Y-73880000D01*
X93623333Y-73832380D01*
X93861428Y-73832380D01*
X93956666Y-73880000D01*
X94004285Y-73927619D01*
X94051904Y-74022857D01*
X94051904Y-74118095D01*
X94004285Y-74260952D01*
X93432857Y-74832380D01*
X94051904Y-74832380D01*
X97995104Y-57496344D02*
X97422685Y-57395329D01*
X97591043Y-57900405D02*
X96883937Y-57193298D01*
X97153311Y-56923924D01*
X97254326Y-56890252D01*
X97321669Y-56890252D01*
X97422685Y-56923924D01*
X97523700Y-57024939D01*
X97557372Y-57125955D01*
X97557372Y-57193298D01*
X97523700Y-57294313D01*
X97254326Y-57563687D01*
X98668540Y-56822909D02*
X98264479Y-57226970D01*
X98466509Y-57024939D02*
X97759402Y-56317832D01*
X97793074Y-56486191D01*
X97793074Y-56620878D01*
X97759402Y-56721894D01*
X99341975Y-56149474D02*
X98937914Y-56553535D01*
X99139944Y-56351504D02*
X98432837Y-55644397D01*
X98466509Y-55812756D01*
X98466509Y-55947443D01*
X98432837Y-56048458D01*
X68832380Y-50932857D02*
X68356190Y-51266190D01*
X68832380Y-51504285D02*
X67832380Y-51504285D01*
X67832380Y-51123333D01*
X67880000Y-51028095D01*
X67927619Y-50980476D01*
X68022857Y-50932857D01*
X68165714Y-50932857D01*
X68260952Y-50980476D01*
X68308571Y-51028095D01*
X68356190Y-51123333D01*
X68356190Y-51504285D01*
X68832380Y-49980476D02*
X68832380Y-50551904D01*
X68832380Y-50266190D02*
X67832380Y-50266190D01*
X67975238Y-50361428D01*
X68070476Y-50456666D01*
X68118095Y-50551904D01*
X67832380Y-49361428D02*
X67832380Y-49266190D01*
X67880000Y-49170952D01*
X67927619Y-49123333D01*
X68022857Y-49075714D01*
X68213333Y-49028095D01*
X68451428Y-49028095D01*
X68641904Y-49075714D01*
X68737142Y-49123333D01*
X68784761Y-49170952D01*
X68832380Y-49266190D01*
X68832380Y-49361428D01*
X68784761Y-49456666D01*
X68737142Y-49504285D01*
X68641904Y-49551904D01*
X68451428Y-49599523D01*
X68213333Y-49599523D01*
X68022857Y-49551904D01*
X67927619Y-49504285D01*
X67880000Y-49456666D01*
X67832380Y-49361428D01*
X93373333Y-31082380D02*
X93040000Y-30606190D01*
X92801904Y-31082380D02*
X92801904Y-30082380D01*
X93182857Y-30082380D01*
X93278095Y-30130000D01*
X93325714Y-30177619D01*
X93373333Y-30272857D01*
X93373333Y-30415714D01*
X93325714Y-30510952D01*
X93278095Y-30558571D01*
X93182857Y-30606190D01*
X92801904Y-30606190D01*
X93849523Y-31082380D02*
X94040000Y-31082380D01*
X94135238Y-31034761D01*
X94182857Y-30987142D01*
X94278095Y-30844285D01*
X94325714Y-30653809D01*
X94325714Y-30272857D01*
X94278095Y-30177619D01*
X94230476Y-30130000D01*
X94135238Y-30082380D01*
X93944761Y-30082380D01*
X93849523Y-30130000D01*
X93801904Y-30177619D01*
X93754285Y-30272857D01*
X93754285Y-30510952D01*
X93801904Y-30606190D01*
X93849523Y-30653809D01*
X93944761Y-30701428D01*
X94135238Y-30701428D01*
X94230476Y-30653809D01*
X94278095Y-30606190D01*
X94325714Y-30510952D01*
X85968032Y-32246745D02*
X85491842Y-32580079D01*
X85968032Y-32818174D02*
X84968032Y-32818174D01*
X84968032Y-32437221D01*
X85015652Y-32341983D01*
X85063271Y-32294364D01*
X85158509Y-32246745D01*
X85301366Y-32246745D01*
X85396604Y-32294364D01*
X85444223Y-32341983D01*
X85491842Y-32437221D01*
X85491842Y-32818174D01*
X85396604Y-31675317D02*
X85348985Y-31770555D01*
X85301366Y-31818174D01*
X85206128Y-31865793D01*
X85158509Y-31865793D01*
X85063271Y-31818174D01*
X85015652Y-31770555D01*
X84968032Y-31675317D01*
X84968032Y-31484840D01*
X85015652Y-31389602D01*
X85063271Y-31341983D01*
X85158509Y-31294364D01*
X85206128Y-31294364D01*
X85301366Y-31341983D01*
X85348985Y-31389602D01*
X85396604Y-31484840D01*
X85396604Y-31675317D01*
X85444223Y-31770555D01*
X85491842Y-31818174D01*
X85587080Y-31865793D01*
X85777556Y-31865793D01*
X85872794Y-31818174D01*
X85920413Y-31770555D01*
X85968032Y-31675317D01*
X85968032Y-31484840D01*
X85920413Y-31389602D01*
X85872794Y-31341983D01*
X85777556Y-31294364D01*
X85587080Y-31294364D01*
X85491842Y-31341983D01*
X85444223Y-31389602D01*
X85396604Y-31484840D01*
X91543333Y-30072380D02*
X91210000Y-29596190D01*
X90971904Y-30072380D02*
X90971904Y-29072380D01*
X91352857Y-29072380D01*
X91448095Y-29120000D01*
X91495714Y-29167619D01*
X91543333Y-29262857D01*
X91543333Y-29405714D01*
X91495714Y-29500952D01*
X91448095Y-29548571D01*
X91352857Y-29596190D01*
X90971904Y-29596190D01*
X91876666Y-29072380D02*
X92543333Y-29072380D01*
X92114761Y-30072380D01*
X97288744Y-40694220D02*
X96812554Y-41027554D01*
X97288744Y-41265649D02*
X96288744Y-41265649D01*
X96288744Y-40884696D01*
X96336364Y-40789458D01*
X96383983Y-40741839D01*
X96479221Y-40694220D01*
X96622078Y-40694220D01*
X96717316Y-40741839D01*
X96764935Y-40789458D01*
X96812554Y-40884696D01*
X96812554Y-41265649D01*
X96288744Y-39837077D02*
X96288744Y-40027554D01*
X96336364Y-40122792D01*
X96383983Y-40170411D01*
X96526840Y-40265649D01*
X96717316Y-40313268D01*
X97098268Y-40313268D01*
X97193506Y-40265649D01*
X97241125Y-40218030D01*
X97288744Y-40122792D01*
X97288744Y-39932315D01*
X97241125Y-39837077D01*
X97193506Y-39789458D01*
X97098268Y-39741839D01*
X96860173Y-39741839D01*
X96764935Y-39789458D01*
X96717316Y-39837077D01*
X96669697Y-39932315D01*
X96669697Y-40122792D01*
X96717316Y-40218030D01*
X96764935Y-40265649D01*
X96860173Y-40313268D01*
X103623333Y-140322380D02*
X103290000Y-139846190D01*
X103051904Y-140322380D02*
X103051904Y-139322380D01*
X103432857Y-139322380D01*
X103528095Y-139370000D01*
X103575714Y-139417619D01*
X103623333Y-139512857D01*
X103623333Y-139655714D01*
X103575714Y-139750952D01*
X103528095Y-139798571D01*
X103432857Y-139846190D01*
X103051904Y-139846190D01*
X104480476Y-139655714D02*
X104480476Y-140322380D01*
X104242380Y-139274761D02*
X104004285Y-139989047D01*
X104623333Y-139989047D01*
X76793333Y-148332380D02*
X76460000Y-147856190D01*
X76221904Y-148332380D02*
X76221904Y-147332380D01*
X76602857Y-147332380D01*
X76698095Y-147380000D01*
X76745714Y-147427619D01*
X76793333Y-147522857D01*
X76793333Y-147665714D01*
X76745714Y-147760952D01*
X76698095Y-147808571D01*
X76602857Y-147856190D01*
X76221904Y-147856190D01*
X77126666Y-147332380D02*
X77745714Y-147332380D01*
X77412380Y-147713333D01*
X77555238Y-147713333D01*
X77650476Y-147760952D01*
X77698095Y-147808571D01*
X77745714Y-147903809D01*
X77745714Y-148141904D01*
X77698095Y-148237142D01*
X77650476Y-148284761D01*
X77555238Y-148332380D01*
X77269523Y-148332380D01*
X77174285Y-148284761D01*
X77126666Y-148237142D01*
X55543333Y-143322380D02*
X55210000Y-142846190D01*
X54971904Y-143322380D02*
X54971904Y-142322380D01*
X55352857Y-142322380D01*
X55448095Y-142370000D01*
X55495714Y-142417619D01*
X55543333Y-142512857D01*
X55543333Y-142655714D01*
X55495714Y-142750952D01*
X55448095Y-142798571D01*
X55352857Y-142846190D01*
X54971904Y-142846190D01*
X55924285Y-142417619D02*
X55971904Y-142370000D01*
X56067142Y-142322380D01*
X56305238Y-142322380D01*
X56400476Y-142370000D01*
X56448095Y-142417619D01*
X56495714Y-142512857D01*
X56495714Y-142608095D01*
X56448095Y-142750952D01*
X55876666Y-143322380D01*
X56495714Y-143322380D01*
X53043333Y-148572380D02*
X52710000Y-148096190D01*
X52471904Y-148572380D02*
X52471904Y-147572380D01*
X52852857Y-147572380D01*
X52948095Y-147620000D01*
X52995714Y-147667619D01*
X53043333Y-147762857D01*
X53043333Y-147905714D01*
X52995714Y-148000952D01*
X52948095Y-148048571D01*
X52852857Y-148096190D01*
X52471904Y-148096190D01*
X53995714Y-148572380D02*
X53424285Y-148572380D01*
X53710000Y-148572380D02*
X53710000Y-147572380D01*
X53614761Y-147715238D01*
X53519523Y-147810476D01*
X53424285Y-147858095D01*
X90897619Y-142325238D02*
X90850000Y-142420476D01*
X90754761Y-142515714D01*
X90611904Y-142658571D01*
X90564285Y-142753809D01*
X90564285Y-142849047D01*
X90802380Y-142801428D02*
X90754761Y-142896666D01*
X90659523Y-142991904D01*
X90469047Y-143039523D01*
X90135714Y-143039523D01*
X89945238Y-142991904D01*
X89850000Y-142896666D01*
X89802380Y-142801428D01*
X89802380Y-142610952D01*
X89850000Y-142515714D01*
X89945238Y-142420476D01*
X90135714Y-142372857D01*
X90469047Y-142372857D01*
X90659523Y-142420476D01*
X90754761Y-142515714D01*
X90802380Y-142610952D01*
X90802380Y-142801428D01*
X89897619Y-141991904D02*
X89850000Y-141944285D01*
X89802380Y-141849047D01*
X89802380Y-141610952D01*
X89850000Y-141515714D01*
X89897619Y-141468095D01*
X89992857Y-141420476D01*
X90088095Y-141420476D01*
X90230952Y-141468095D01*
X90802380Y-142039523D01*
X90802380Y-141420476D01*
X99697619Y-131865238D02*
X99650000Y-131960476D01*
X99554761Y-132055714D01*
X99411904Y-132198571D01*
X99364285Y-132293809D01*
X99364285Y-132389047D01*
X99602380Y-132341428D02*
X99554761Y-132436666D01*
X99459523Y-132531904D01*
X99269047Y-132579523D01*
X98935714Y-132579523D01*
X98745238Y-132531904D01*
X98650000Y-132436666D01*
X98602380Y-132341428D01*
X98602380Y-132150952D01*
X98650000Y-132055714D01*
X98745238Y-131960476D01*
X98935714Y-131912857D01*
X99269047Y-131912857D01*
X99459523Y-131960476D01*
X99554761Y-132055714D01*
X99602380Y-132150952D01*
X99602380Y-132341428D01*
X99602380Y-130960476D02*
X99602380Y-131531904D01*
X99602380Y-131246190D02*
X98602380Y-131246190D01*
X98745238Y-131341428D01*
X98840476Y-131436666D01*
X98888095Y-131531904D01*
X94167142Y-78622380D02*
X93690952Y-78622380D01*
X93690952Y-77622380D01*
X94452857Y-78574761D02*
X94595714Y-78622380D01*
X94833809Y-78622380D01*
X94929047Y-78574761D01*
X94976666Y-78527142D01*
X95024285Y-78431904D01*
X95024285Y-78336666D01*
X94976666Y-78241428D01*
X94929047Y-78193809D01*
X94833809Y-78146190D01*
X94643333Y-78098571D01*
X94548095Y-78050952D01*
X94500476Y-78003333D01*
X94452857Y-77908095D01*
X94452857Y-77812857D01*
X94500476Y-77717619D01*
X94548095Y-77670000D01*
X94643333Y-77622380D01*
X94881428Y-77622380D01*
X95024285Y-77670000D01*
X95976666Y-78622380D02*
X95405238Y-78622380D01*
X95690952Y-78622380D02*
X95690952Y-77622380D01*
X95595714Y-77765238D01*
X95500476Y-77860476D01*
X95405238Y-77908095D01*
X78870131Y-40619414D02*
X77870131Y-40619414D01*
X77870131Y-40381319D01*
X77917751Y-40238461D01*
X78012989Y-40143223D01*
X78108227Y-40095604D01*
X78298703Y-40047985D01*
X78441560Y-40047985D01*
X78632036Y-40095604D01*
X78727274Y-40143223D01*
X78822512Y-40238461D01*
X78870131Y-40381319D01*
X78870131Y-40619414D01*
X77870131Y-39714652D02*
X77870131Y-39095604D01*
X78251084Y-39428938D01*
X78251084Y-39286080D01*
X78298703Y-39190842D01*
X78346322Y-39143223D01*
X78441560Y-39095604D01*
X78679655Y-39095604D01*
X78774893Y-39143223D01*
X78822512Y-39190842D01*
X78870131Y-39286080D01*
X78870131Y-39571795D01*
X78822512Y-39667033D01*
X78774893Y-39714652D01*
X74464417Y-40124414D02*
X74464417Y-39648223D01*
X74750131Y-40219652D02*
X73750131Y-39886319D01*
X74750131Y-39552985D01*
X66912380Y-27008095D02*
X65912380Y-27008095D01*
X65912380Y-26770000D01*
X65960000Y-26627142D01*
X66055238Y-26531904D01*
X66150476Y-26484285D01*
X66340952Y-26436666D01*
X66483809Y-26436666D01*
X66674285Y-26484285D01*
X66769523Y-26531904D01*
X66864761Y-26627142D01*
X66912380Y-26770000D01*
X66912380Y-27008095D01*
X66007619Y-26055714D02*
X65960000Y-26008095D01*
X65912380Y-25912857D01*
X65912380Y-25674761D01*
X65960000Y-25579523D01*
X66007619Y-25531904D01*
X66102857Y-25484285D01*
X66198095Y-25484285D01*
X66340952Y-25531904D01*
X66912380Y-26103333D01*
X66912380Y-25484285D01*
X89261904Y-150702380D02*
X89261904Y-149702380D01*
X89500000Y-149702380D01*
X89642857Y-149750000D01*
X89738095Y-149845238D01*
X89785714Y-149940476D01*
X89833333Y-150130952D01*
X89833333Y-150273809D01*
X89785714Y-150464285D01*
X89738095Y-150559523D01*
X89642857Y-150654761D01*
X89500000Y-150702380D01*
X89261904Y-150702380D01*
X90785714Y-150702380D02*
X90214285Y-150702380D01*
X90500000Y-150702380D02*
X90500000Y-149702380D01*
X90404761Y-149845238D01*
X90309523Y-149940476D01*
X90214285Y-149988095D01*
X57107142Y-52357142D02*
X57154761Y-52404761D01*
X57202380Y-52547619D01*
X57202380Y-52642857D01*
X57154761Y-52785714D01*
X57059523Y-52880952D01*
X56964285Y-52928571D01*
X56773809Y-52976190D01*
X56630952Y-52976190D01*
X56440476Y-52928571D01*
X56345238Y-52880952D01*
X56250000Y-52785714D01*
X56202380Y-52642857D01*
X56202380Y-52547619D01*
X56250000Y-52404761D01*
X56297619Y-52357142D01*
X57297619Y-52166666D02*
X57297619Y-51404761D01*
X56535714Y-50738095D02*
X57202380Y-50738095D01*
X56535714Y-51166666D02*
X57059523Y-51166666D01*
X57154761Y-51119047D01*
X57202380Y-51023809D01*
X57202380Y-50880952D01*
X57154761Y-50785714D01*
X57107142Y-50738095D01*
X56535714Y-49833333D02*
X57202380Y-49833333D01*
X56154761Y-50071428D02*
X56869047Y-50309523D01*
X56869047Y-49690476D01*
X57297619Y-49547619D02*
X57297619Y-48785714D01*
X56297619Y-48595238D02*
X56250000Y-48547619D01*
X56202380Y-48452380D01*
X56202380Y-48214285D01*
X56250000Y-48119047D01*
X56297619Y-48071428D01*
X56392857Y-48023809D01*
X56488095Y-48023809D01*
X56630952Y-48071428D01*
X57202380Y-48642857D01*
X57202380Y-48023809D01*
X65642857Y-74857142D02*
X65595238Y-74904761D01*
X65452380Y-74952380D01*
X65357142Y-74952380D01*
X65214285Y-74904761D01*
X65119047Y-74809523D01*
X65071428Y-74714285D01*
X65023809Y-74523809D01*
X65023809Y-74380952D01*
X65071428Y-74190476D01*
X65119047Y-74095238D01*
X65214285Y-74000000D01*
X65357142Y-73952380D01*
X65452380Y-73952380D01*
X65595238Y-74000000D01*
X65642857Y-74047619D01*
X65833333Y-75047619D02*
X66595238Y-75047619D01*
X67261904Y-74285714D02*
X67261904Y-74952380D01*
X66833333Y-74285714D02*
X66833333Y-74809523D01*
X66880952Y-74904761D01*
X66976190Y-74952380D01*
X67119047Y-74952380D01*
X67214285Y-74904761D01*
X67261904Y-74857142D01*
X68166666Y-74285714D02*
X68166666Y-74952380D01*
X67928571Y-73904761D02*
X67690476Y-74619047D01*
X68309523Y-74619047D01*
X68452380Y-75047619D02*
X69214285Y-75047619D01*
X69976190Y-74952380D02*
X69404761Y-74952380D01*
X69690476Y-74952380D02*
X69690476Y-73952380D01*
X69595238Y-74095238D01*
X69500000Y-74190476D01*
X69404761Y-74238095D01*
X54357142Y-52857142D02*
X54404761Y-52904761D01*
X54452380Y-53047619D01*
X54452380Y-53142857D01*
X54404761Y-53285714D01*
X54309523Y-53380952D01*
X54214285Y-53428571D01*
X54023809Y-53476190D01*
X53880952Y-53476190D01*
X53690476Y-53428571D01*
X53595238Y-53380952D01*
X53500000Y-53285714D01*
X53452380Y-53142857D01*
X53452380Y-53047619D01*
X53500000Y-52904761D01*
X53547619Y-52857142D01*
X54547619Y-52666666D02*
X54547619Y-51904761D01*
X53785714Y-51238095D02*
X54452380Y-51238095D01*
X53785714Y-51666666D02*
X54309523Y-51666666D01*
X54404761Y-51619047D01*
X54452380Y-51523809D01*
X54452380Y-51380952D01*
X54404761Y-51285714D01*
X54357142Y-51238095D01*
X53452380Y-50857142D02*
X53452380Y-50238095D01*
X53833333Y-50571428D01*
X53833333Y-50428571D01*
X53880952Y-50333333D01*
X53928571Y-50285714D01*
X54023809Y-50238095D01*
X54261904Y-50238095D01*
X54357142Y-50285714D01*
X54404761Y-50333333D01*
X54452380Y-50428571D01*
X54452380Y-50714285D01*
X54404761Y-50809523D01*
X54357142Y-50857142D01*
X54547619Y-50047619D02*
X54547619Y-49285714D01*
X54452380Y-48523809D02*
X54452380Y-49095238D01*
X54452380Y-48809523D02*
X53452380Y-48809523D01*
X53595238Y-48904761D01*
X53690476Y-49000000D01*
X53738095Y-49095238D01*
X79892857Y-125607142D02*
X79845238Y-125654761D01*
X79702380Y-125702380D01*
X79607142Y-125702380D01*
X79464285Y-125654761D01*
X79369047Y-125559523D01*
X79321428Y-125464285D01*
X79273809Y-125273809D01*
X79273809Y-125130952D01*
X79321428Y-124940476D01*
X79369047Y-124845238D01*
X79464285Y-124750000D01*
X79607142Y-124702380D01*
X79702380Y-124702380D01*
X79845238Y-124750000D01*
X79892857Y-124797619D01*
X80083333Y-125797619D02*
X80845238Y-125797619D01*
X81511904Y-125035714D02*
X81511904Y-125702380D01*
X81083333Y-125035714D02*
X81083333Y-125559523D01*
X81130952Y-125654761D01*
X81226190Y-125702380D01*
X81369047Y-125702380D01*
X81464285Y-125654761D01*
X81511904Y-125607142D01*
X81940476Y-124797619D02*
X81988095Y-124750000D01*
X82083333Y-124702380D01*
X82321428Y-124702380D01*
X82416666Y-124750000D01*
X82464285Y-124797619D01*
X82511904Y-124892857D01*
X82511904Y-124988095D01*
X82464285Y-125130952D01*
X81892857Y-125702380D01*
X82511904Y-125702380D01*
X82702380Y-125797619D02*
X83464285Y-125797619D01*
X84226190Y-125702380D02*
X83654761Y-125702380D01*
X83940476Y-125702380D02*
X83940476Y-124702380D01*
X83845238Y-124845238D01*
X83750000Y-124940476D01*
X83654761Y-124988095D01*
X48107142Y-133357142D02*
X48154761Y-133404761D01*
X48202380Y-133547619D01*
X48202380Y-133642857D01*
X48154761Y-133785714D01*
X48059523Y-133880952D01*
X47964285Y-133928571D01*
X47773809Y-133976190D01*
X47630952Y-133976190D01*
X47440476Y-133928571D01*
X47345238Y-133880952D01*
X47250000Y-133785714D01*
X47202380Y-133642857D01*
X47202380Y-133547619D01*
X47250000Y-133404761D01*
X47297619Y-133357142D01*
X48297619Y-133166666D02*
X48297619Y-132404761D01*
X47535714Y-131738095D02*
X48202380Y-131738095D01*
X47535714Y-132166666D02*
X48059523Y-132166666D01*
X48154761Y-132119047D01*
X48202380Y-132023809D01*
X48202380Y-131880952D01*
X48154761Y-131785714D01*
X48107142Y-131738095D01*
X48202380Y-130738095D02*
X48202380Y-131309523D01*
X48202380Y-131023809D02*
X47202380Y-131023809D01*
X47345238Y-131119047D01*
X47440476Y-131214285D01*
X47488095Y-131309523D01*
X48297619Y-130547619D02*
X48297619Y-129785714D01*
X47297619Y-129595238D02*
X47250000Y-129547619D01*
X47202380Y-129452380D01*
X47202380Y-129214285D01*
X47250000Y-129119047D01*
X47297619Y-129071428D01*
X47392857Y-129023809D01*
X47488095Y-129023809D01*
X47630952Y-129071428D01*
X48202380Y-129642857D01*
X48202380Y-129023809D01*
X60107142Y-133857142D02*
X60154761Y-133904761D01*
X60202380Y-134047619D01*
X60202380Y-134142857D01*
X60154761Y-134285714D01*
X60059523Y-134380952D01*
X59964285Y-134428571D01*
X59773809Y-134476190D01*
X59630952Y-134476190D01*
X59440476Y-134428571D01*
X59345238Y-134380952D01*
X59250000Y-134285714D01*
X59202380Y-134142857D01*
X59202380Y-134047619D01*
X59250000Y-133904761D01*
X59297619Y-133857142D01*
X60297619Y-133666666D02*
X60297619Y-132904761D01*
X59535714Y-132238095D02*
X60202380Y-132238095D01*
X59535714Y-132666666D02*
X60059523Y-132666666D01*
X60154761Y-132619047D01*
X60202380Y-132523809D01*
X60202380Y-132380952D01*
X60154761Y-132285714D01*
X60107142Y-132238095D01*
X60202380Y-131238095D02*
X60202380Y-131809523D01*
X60202380Y-131523809D02*
X59202380Y-131523809D01*
X59345238Y-131619047D01*
X59440476Y-131714285D01*
X59488095Y-131809523D01*
X60297619Y-131047619D02*
X60297619Y-130285714D01*
X60202380Y-129523809D02*
X60202380Y-130095238D01*
X60202380Y-129809523D02*
X59202380Y-129809523D01*
X59345238Y-129904761D01*
X59440476Y-130000000D01*
X59488095Y-130095238D01*
X59326035Y-41714414D02*
X59373654Y-41762033D01*
X59421273Y-41904890D01*
X59421273Y-42000128D01*
X59373654Y-42142985D01*
X59278416Y-42238223D01*
X59183178Y-42285842D01*
X58992702Y-42333461D01*
X58849845Y-42333461D01*
X58659369Y-42285842D01*
X58564131Y-42238223D01*
X58468893Y-42142985D01*
X58421273Y-42000128D01*
X58421273Y-41904890D01*
X58468893Y-41762033D01*
X58516512Y-41714414D01*
X59516512Y-41523938D02*
X59516512Y-40762033D01*
X59421273Y-40523938D02*
X58754607Y-40523938D01*
X58421273Y-40523938D02*
X58468893Y-40571557D01*
X58516512Y-40523938D01*
X58468893Y-40476319D01*
X58421273Y-40523938D01*
X58516512Y-40523938D01*
X58754607Y-40047747D02*
X59421273Y-40047747D01*
X58849845Y-40047747D02*
X58802226Y-40000128D01*
X58754607Y-39904890D01*
X58754607Y-39762033D01*
X58802226Y-39666795D01*
X58897464Y-39619176D01*
X59421273Y-39619176D01*
X59421273Y-38619176D02*
X59421273Y-39190604D01*
X59421273Y-38904890D02*
X58421273Y-38904890D01*
X58564131Y-39000128D01*
X58659369Y-39095366D01*
X58706988Y-39190604D01*
X103797969Y-72921572D02*
X103797969Y-72988916D01*
X103730625Y-73123603D01*
X103663282Y-73190946D01*
X103528595Y-73258290D01*
X103393908Y-73258290D01*
X103292893Y-73224618D01*
X103124534Y-73123603D01*
X103023519Y-73022588D01*
X102922503Y-72854229D01*
X102888832Y-72753214D01*
X102888832Y-72618527D01*
X102956175Y-72483840D01*
X103023519Y-72416496D01*
X103158206Y-72349153D01*
X103225549Y-72349153D01*
X104538748Y-72315481D02*
X104134687Y-72719542D01*
X104336717Y-72517511D02*
X103629610Y-71810404D01*
X103663282Y-71978763D01*
X103663282Y-72113450D01*
X103629610Y-72214466D01*
X105212183Y-71642046D02*
X104808122Y-72046107D01*
X105010152Y-71844076D02*
X104303045Y-71136969D01*
X104336717Y-71305328D01*
X104336717Y-71440015D01*
X104303045Y-71541030D01*
X81107142Y-73607142D02*
X81059523Y-73654761D01*
X80916666Y-73702380D01*
X80821428Y-73702380D01*
X80678571Y-73654761D01*
X80583333Y-73559523D01*
X80535714Y-73464285D01*
X80488095Y-73273809D01*
X80488095Y-73130952D01*
X80535714Y-72940476D01*
X80583333Y-72845238D01*
X80678571Y-72750000D01*
X80821428Y-72702380D01*
X80916666Y-72702380D01*
X81059523Y-72750000D01*
X81107142Y-72797619D01*
X82059523Y-73702380D02*
X81488095Y-73702380D01*
X81773809Y-73702380D02*
X81773809Y-72702380D01*
X81678571Y-72845238D01*
X81583333Y-72940476D01*
X81488095Y-72988095D01*
X82678571Y-72702380D02*
X82773809Y-72702380D01*
X82869047Y-72750000D01*
X82916666Y-72797619D01*
X82964285Y-72892857D01*
X83011904Y-73083333D01*
X83011904Y-73321428D01*
X82964285Y-73511904D01*
X82916666Y-73607142D01*
X82869047Y-73654761D01*
X82773809Y-73702380D01*
X82678571Y-73702380D01*
X82583333Y-73654761D01*
X82535714Y-73607142D01*
X82488095Y-73511904D01*
X82440476Y-73321428D01*
X82440476Y-73083333D01*
X82488095Y-72892857D01*
X82535714Y-72797619D01*
X82583333Y-72750000D01*
X82678571Y-72702380D01*
X97583333Y-62607142D02*
X97535714Y-62654761D01*
X97392857Y-62702380D01*
X97297619Y-62702380D01*
X97154761Y-62654761D01*
X97059523Y-62559523D01*
X97011904Y-62464285D01*
X96964285Y-62273809D01*
X96964285Y-62130952D01*
X97011904Y-61940476D01*
X97059523Y-61845238D01*
X97154761Y-61750000D01*
X97297619Y-61702380D01*
X97392857Y-61702380D01*
X97535714Y-61750000D01*
X97583333Y-61797619D01*
X98059523Y-62702380D02*
X98250000Y-62702380D01*
X98345238Y-62654761D01*
X98392857Y-62607142D01*
X98488095Y-62464285D01*
X98535714Y-62273809D01*
X98535714Y-61892857D01*
X98488095Y-61797619D01*
X98440476Y-61750000D01*
X98345238Y-61702380D01*
X98154761Y-61702380D01*
X98059523Y-61750000D01*
X98011904Y-61797619D01*
X97964285Y-61892857D01*
X97964285Y-62130952D01*
X98011904Y-62226190D01*
X98059523Y-62273809D01*
X98154761Y-62321428D01*
X98345238Y-62321428D01*
X98440476Y-62273809D01*
X98488095Y-62226190D01*
X98535714Y-62130952D01*
X71333333Y-69607142D02*
X71285714Y-69654761D01*
X71142857Y-69702380D01*
X71047619Y-69702380D01*
X70904761Y-69654761D01*
X70809523Y-69559523D01*
X70761904Y-69464285D01*
X70714285Y-69273809D01*
X70714285Y-69130952D01*
X70761904Y-68940476D01*
X70809523Y-68845238D01*
X70904761Y-68750000D01*
X71047619Y-68702380D01*
X71142857Y-68702380D01*
X71285714Y-68750000D01*
X71333333Y-68797619D01*
X71904761Y-69130952D02*
X71809523Y-69083333D01*
X71761904Y-69035714D01*
X71714285Y-68940476D01*
X71714285Y-68892857D01*
X71761904Y-68797619D01*
X71809523Y-68750000D01*
X71904761Y-68702380D01*
X72095238Y-68702380D01*
X72190476Y-68750000D01*
X72238095Y-68797619D01*
X72285714Y-68892857D01*
X72285714Y-68940476D01*
X72238095Y-69035714D01*
X72190476Y-69083333D01*
X72095238Y-69130952D01*
X71904761Y-69130952D01*
X71809523Y-69178571D01*
X71761904Y-69226190D01*
X71714285Y-69321428D01*
X71714285Y-69511904D01*
X71761904Y-69607142D01*
X71809523Y-69654761D01*
X71904761Y-69702380D01*
X72095238Y-69702380D01*
X72190476Y-69654761D01*
X72238095Y-69607142D01*
X72285714Y-69511904D01*
X72285714Y-69321428D01*
X72238095Y-69226190D01*
X72190476Y-69178571D01*
X72095238Y-69130952D01*
X82083333Y-61857142D02*
X82035714Y-61904761D01*
X81892857Y-61952380D01*
X81797619Y-61952380D01*
X81654761Y-61904761D01*
X81559523Y-61809523D01*
X81511904Y-61714285D01*
X81464285Y-61523809D01*
X81464285Y-61380952D01*
X81511904Y-61190476D01*
X81559523Y-61095238D01*
X81654761Y-61000000D01*
X81797619Y-60952380D01*
X81892857Y-60952380D01*
X82035714Y-61000000D01*
X82083333Y-61047619D01*
X82416666Y-60952380D02*
X83083333Y-60952380D01*
X82654761Y-61952380D01*
X74357142Y-50416666D02*
X74404761Y-50464285D01*
X74452380Y-50607142D01*
X74452380Y-50702380D01*
X74404761Y-50845238D01*
X74309523Y-50940476D01*
X74214285Y-50988095D01*
X74023809Y-51035714D01*
X73880952Y-51035714D01*
X73690476Y-50988095D01*
X73595238Y-50940476D01*
X73500000Y-50845238D01*
X73452380Y-50702380D01*
X73452380Y-50607142D01*
X73500000Y-50464285D01*
X73547619Y-50416666D01*
X73452380Y-49559523D02*
X73452380Y-49750000D01*
X73500000Y-49845238D01*
X73547619Y-49892857D01*
X73690476Y-49988095D01*
X73880952Y-50035714D01*
X74261904Y-50035714D01*
X74357142Y-49988095D01*
X74404761Y-49940476D01*
X74452380Y-49845238D01*
X74452380Y-49654761D01*
X74404761Y-49559523D01*
X74357142Y-49511904D01*
X74261904Y-49464285D01*
X74023809Y-49464285D01*
X73928571Y-49511904D01*
X73880952Y-49559523D01*
X73833333Y-49654761D01*
X73833333Y-49845238D01*
X73880952Y-49940476D01*
X73928571Y-49988095D01*
X74023809Y-50035714D01*
X74833333Y-35607142D02*
X74785714Y-35654761D01*
X74642857Y-35702380D01*
X74547619Y-35702380D01*
X74404761Y-35654761D01*
X74309523Y-35559523D01*
X74261904Y-35464285D01*
X74214285Y-35273809D01*
X74214285Y-35130952D01*
X74261904Y-34940476D01*
X74309523Y-34845238D01*
X74404761Y-34750000D01*
X74547619Y-34702380D01*
X74642857Y-34702380D01*
X74785714Y-34750000D01*
X74833333Y-34797619D01*
X75738095Y-34702380D02*
X75261904Y-34702380D01*
X75214285Y-35178571D01*
X75261904Y-35130952D01*
X75357142Y-35083333D01*
X75595238Y-35083333D01*
X75690476Y-35130952D01*
X75738095Y-35178571D01*
X75785714Y-35273809D01*
X75785714Y-35511904D01*
X75738095Y-35607142D01*
X75690476Y-35654761D01*
X75595238Y-35702380D01*
X75357142Y-35702380D01*
X75261904Y-35654761D01*
X75214285Y-35607142D01*
X103357142Y-40916666D02*
X103404761Y-40964285D01*
X103452380Y-41107142D01*
X103452380Y-41202380D01*
X103404761Y-41345238D01*
X103309523Y-41440476D01*
X103214285Y-41488095D01*
X103023809Y-41535714D01*
X102880952Y-41535714D01*
X102690476Y-41488095D01*
X102595238Y-41440476D01*
X102500000Y-41345238D01*
X102452380Y-41202380D01*
X102452380Y-41107142D01*
X102500000Y-40964285D01*
X102547619Y-40916666D01*
X102785714Y-40059523D02*
X103452380Y-40059523D01*
X102404761Y-40297619D02*
X103119047Y-40535714D01*
X103119047Y-39916666D01*
X85471002Y-35808827D02*
X85423383Y-35856446D01*
X85280526Y-35904065D01*
X85185288Y-35904065D01*
X85042430Y-35856446D01*
X84947192Y-35761208D01*
X84899573Y-35665970D01*
X84851954Y-35475494D01*
X84851954Y-35332637D01*
X84899573Y-35142161D01*
X84947192Y-35046923D01*
X85042430Y-34951685D01*
X85185288Y-34904065D01*
X85280526Y-34904065D01*
X85423383Y-34951685D01*
X85471002Y-34999304D01*
X85804335Y-34904065D02*
X86423383Y-34904065D01*
X86090049Y-35285018D01*
X86232907Y-35285018D01*
X86328145Y-35332637D01*
X86375764Y-35380256D01*
X86423383Y-35475494D01*
X86423383Y-35713589D01*
X86375764Y-35808827D01*
X86328145Y-35856446D01*
X86232907Y-35904065D01*
X85947192Y-35904065D01*
X85851954Y-35856446D01*
X85804335Y-35808827D01*
X104583333Y-147357142D02*
X104535714Y-147404761D01*
X104392857Y-147452380D01*
X104297619Y-147452380D01*
X104154761Y-147404761D01*
X104059523Y-147309523D01*
X104011904Y-147214285D01*
X103964285Y-147023809D01*
X103964285Y-146880952D01*
X104011904Y-146690476D01*
X104059523Y-146595238D01*
X104154761Y-146500000D01*
X104297619Y-146452380D01*
X104392857Y-146452380D01*
X104535714Y-146500000D01*
X104583333Y-146547619D01*
X104964285Y-146547619D02*
X105011904Y-146500000D01*
X105107142Y-146452380D01*
X105345238Y-146452380D01*
X105440476Y-146500000D01*
X105488095Y-146547619D01*
X105535714Y-146642857D01*
X105535714Y-146738095D01*
X105488095Y-146880952D01*
X104916666Y-147452380D01*
X105535714Y-147452380D01*
X64333333Y-151107142D02*
X64285714Y-151154761D01*
X64142857Y-151202380D01*
X64047619Y-151202380D01*
X63904761Y-151154761D01*
X63809523Y-151059523D01*
X63761904Y-150964285D01*
X63714285Y-150773809D01*
X63714285Y-150630952D01*
X63761904Y-150440476D01*
X63809523Y-150345238D01*
X63904761Y-150250000D01*
X64047619Y-150202380D01*
X64142857Y-150202380D01*
X64285714Y-150250000D01*
X64333333Y-150297619D01*
X65285714Y-151202380D02*
X64714285Y-151202380D01*
X65000000Y-151202380D02*
X65000000Y-150202380D01*
X64904761Y-150345238D01*
X64809523Y-150440476D01*
X64714285Y-150488095D01*
X64964285Y-22428571D02*
X65107142Y-22476190D01*
X65154761Y-22523809D01*
X65202380Y-22619047D01*
X65202380Y-22761904D01*
X65154761Y-22857142D01*
X65107142Y-22904761D01*
X65011904Y-22952380D01*
X64630952Y-22952380D01*
X64630952Y-21952380D01*
X64964285Y-21952380D01*
X65059523Y-22000000D01*
X65107142Y-22047619D01*
X65154761Y-22142857D01*
X65154761Y-22238095D01*
X65107142Y-22333333D01*
X65059523Y-22380952D01*
X64964285Y-22428571D01*
X64630952Y-22428571D01*
X65488095Y-21952380D02*
X66059523Y-21952380D01*
X65773809Y-22952380D02*
X65773809Y-21952380D01*
X66345238Y-22047619D02*
X66392857Y-22000000D01*
X66488095Y-21952380D01*
X66726190Y-21952380D01*
X66821428Y-22000000D01*
X66869047Y-22047619D01*
X66916666Y-22142857D01*
X66916666Y-22238095D01*
X66869047Y-22380952D01*
X66297619Y-22952380D01*
X66916666Y-22952380D01*
X49654285Y-121758571D02*
X49797142Y-121806190D01*
X49844761Y-121853809D01*
X49892380Y-121949047D01*
X49892380Y-122091904D01*
X49844761Y-122187142D01*
X49797142Y-122234761D01*
X49701904Y-122282380D01*
X49320952Y-122282380D01*
X49320952Y-121282380D01*
X49654285Y-121282380D01*
X49749523Y-121330000D01*
X49797142Y-121377619D01*
X49844761Y-121472857D01*
X49844761Y-121568095D01*
X49797142Y-121663333D01*
X49749523Y-121710952D01*
X49654285Y-121758571D01*
X49320952Y-121758571D01*
X50178095Y-121282380D02*
X50749523Y-121282380D01*
X50463809Y-122282380D02*
X50463809Y-121282380D01*
X51606666Y-122282380D02*
X51035238Y-122282380D01*
X51320952Y-122282380D02*
X51320952Y-121282380D01*
X51225714Y-121425238D01*
X51130476Y-121520476D01*
X51035238Y-121568095D01*
X43333333Y-33086666D02*
X43809523Y-33086666D01*
X43238095Y-33372380D02*
X43571428Y-32372380D01*
X43904761Y-33372380D01*
X44238095Y-32848571D02*
X44571428Y-32848571D01*
X44714285Y-33372380D02*
X44238095Y-33372380D01*
X44238095Y-32372380D01*
X44714285Y-32372380D01*
X45666666Y-33372380D02*
X45095238Y-33372380D01*
X45380952Y-33372380D02*
X45380952Y-32372380D01*
X45285714Y-32515238D01*
X45190476Y-32610476D01*
X45095238Y-32658095D01*
M02*
