%FSLAX45Y45*%
G04 Gerber Fmt 4.5, Leading zero omitted, Abs format (unit mm)*
G04 Created by KiCad (PCBNEW 5.1.5-1.fc30) date 2021-07-16 22:34:40*
%MOMM*%
%LPD*%
G04 APERTURE LIST*
%TA.AperFunction,Profile*%
%ADD10C,0.100000*%
%TD*%
%ADD11C,0.200000*%
%ADD12C,0.300000*%
G04 APERTURE END LIST*
D10*
X12100000Y-11150000D02*
X12100000Y-15400000D01*
X3625000Y-11150000D02*
X12100000Y-11150000D01*
X3625000Y-15400000D02*
X3625000Y-11150000D01*
X12100000Y-15400000D02*
X3625000Y-15400000D01*
X11175000Y-1800000D02*
X11175000Y-8850000D01*
X3925000Y-1800000D02*
X11175000Y-1800000D01*
X3925000Y-8850000D02*
X3925000Y-1800000D01*
X11175000Y-8850000D02*
X3925000Y-8850000D01*
D11*
X9310500Y-14185500D02*
X9385500Y-14260500D01*
X9385500Y-14185500D02*
X9310500Y-14260500D01*
X9437500Y-14058500D02*
X9512500Y-14133500D01*
X9512500Y-14058500D02*
X9437500Y-14133500D01*
X9437500Y-14312500D02*
X9512500Y-14387500D01*
X9512500Y-14312500D02*
X9437500Y-14387500D01*
X9437500Y-13012500D02*
X9512500Y-13087500D01*
X9512500Y-13012500D02*
X9437500Y-13087500D01*
X9437500Y-13266500D02*
X9512500Y-13341500D01*
X9512500Y-13266500D02*
X9437500Y-13341500D01*
X9564500Y-13139500D02*
X9639500Y-13214500D01*
X9639500Y-13139500D02*
X9564500Y-13214500D01*
X8083000Y-6344000D02*
G75*
G03X8083000Y-6344000I-39000J0D01*
G01*
X8083000Y-7106000D02*
G75*
G03X8083000Y-7106000I-39000J0D01*
G01*
X8337000Y-6344000D02*
G75*
G03X8337000Y-6344000I-39000J0D01*
G01*
X8337000Y-7106000D02*
G75*
G03X8337000Y-7106000I-39000J0D01*
G01*
X8591000Y-6344000D02*
G75*
G03X8591000Y-6344000I-39000J0D01*
G01*
X8591000Y-7106000D02*
G75*
G03X8591000Y-7106000I-39000J0D01*
G01*
X8845000Y-6344000D02*
G75*
G03X8845000Y-6344000I-39000J0D01*
G01*
X8845000Y-7106000D02*
G75*
G03X8845000Y-7106000I-39000J0D01*
G01*
X6317000Y-12786000D02*
G75*
G03X6317000Y-12786000I-39000J0D01*
G01*
X6317000Y-13040000D02*
G75*
G03X6317000Y-13040000I-39000J0D01*
G01*
X6317000Y-13294000D02*
G75*
G03X6317000Y-13294000I-39000J0D01*
G01*
X6317000Y-13548000D02*
G75*
G03X6317000Y-13548000I-39000J0D01*
G01*
X6317000Y-13802000D02*
G75*
G03X6317000Y-13802000I-39000J0D01*
G01*
X6317000Y-14056000D02*
G75*
G03X6317000Y-14056000I-39000J0D01*
G01*
X6317000Y-14310000D02*
G75*
G03X6317000Y-14310000I-39000J0D01*
G01*
X6317000Y-14564000D02*
G75*
G03X6317000Y-14564000I-39000J0D01*
G01*
X7111000Y-12786000D02*
G75*
G03X7111000Y-12786000I-39000J0D01*
G01*
X7111000Y-13040000D02*
G75*
G03X7111000Y-13040000I-39000J0D01*
G01*
X7111000Y-13294000D02*
G75*
G03X7111000Y-13294000I-39000J0D01*
G01*
X7111000Y-13548000D02*
G75*
G03X7111000Y-13548000I-39000J0D01*
G01*
X7111000Y-13802000D02*
G75*
G03X7111000Y-13802000I-39000J0D01*
G01*
X7111000Y-14056000D02*
G75*
G03X7111000Y-14056000I-39000J0D01*
G01*
X7111000Y-14310000D02*
G75*
G03X7111000Y-14310000I-39000J0D01*
G01*
X7111000Y-14564000D02*
G75*
G03X7111000Y-14564000I-39000J0D01*
G01*
X8339000Y-4600000D02*
G75*
G03X8339000Y-4600000I-39000J0D01*
G01*
X8339000Y-5394000D02*
G75*
G03X8339000Y-5394000I-39000J0D01*
G01*
X8593000Y-4600000D02*
G75*
G03X8593000Y-4600000I-39000J0D01*
G01*
X8593000Y-5394000D02*
G75*
G03X8593000Y-5394000I-39000J0D01*
G01*
X8847000Y-4600000D02*
G75*
G03X8847000Y-4600000I-39000J0D01*
G01*
X8847000Y-5394000D02*
G75*
G03X8847000Y-5394000I-39000J0D01*
G01*
X9101000Y-4600000D02*
G75*
G03X9101000Y-4600000I-39000J0D01*
G01*
X9101000Y-5394000D02*
G75*
G03X9101000Y-5394000I-39000J0D01*
G01*
X7975000Y-5860000D02*
X7975000Y-5940000D01*
X7935000Y-5900000D02*
X8015000Y-5900000D01*
X8475000Y-5860000D02*
X8475000Y-5940000D01*
X8435000Y-5900000D02*
X8515000Y-5900000D01*
X9100000Y-3260000D02*
X9100000Y-3340000D01*
X9060000Y-3300000D02*
X9140000Y-3300000D01*
X9608000Y-3260000D02*
X9608000Y-3340000D01*
X9568000Y-3300000D02*
X9648000Y-3300000D01*
X5150000Y-4810000D02*
X5150000Y-4890000D01*
X5110000Y-4850000D02*
X5190000Y-4850000D01*
X5150000Y-5310000D02*
X5150000Y-5390000D01*
X5110000Y-5350000D02*
X5190000Y-5350000D01*
X6500000Y-7160000D02*
X6500000Y-7240000D01*
X6460000Y-7200000D02*
X6540000Y-7200000D01*
X7000000Y-7160000D02*
X7000000Y-7240000D01*
X6960000Y-7200000D02*
X7040000Y-7200000D01*
X6200000Y-4885000D02*
X6200000Y-4965000D01*
X6160000Y-4925000D02*
X6240000Y-4925000D01*
X6200000Y-5135000D02*
X6200000Y-5215000D01*
X6160000Y-5175000D02*
X6240000Y-5175000D01*
X7650000Y-4735000D02*
X7650000Y-4815000D01*
X7610000Y-4775000D02*
X7690000Y-4775000D01*
X7650000Y-5235000D02*
X7650000Y-5315000D01*
X7610000Y-5275000D02*
X7690000Y-5275000D01*
X6900000Y-6360000D02*
X6900000Y-6440000D01*
X6860000Y-6400000D02*
X6940000Y-6400000D01*
X7400000Y-6360000D02*
X7400000Y-6440000D01*
X7360000Y-6400000D02*
X7440000Y-6400000D01*
X10000000Y-3760000D02*
X10000000Y-3840000D01*
X9960000Y-3800000D02*
X10040000Y-3800000D01*
X10000000Y-4260000D02*
X10000000Y-4340000D01*
X9960000Y-4300000D02*
X10040000Y-4300000D01*
X7075000Y-4735000D02*
X7075000Y-4815000D01*
X7035000Y-4775000D02*
X7115000Y-4775000D01*
X7075000Y-5243000D02*
X7075000Y-5323000D01*
X7035000Y-5283000D02*
X7115000Y-5283000D01*
X9025000Y-7635000D02*
X9025000Y-7715000D01*
X8985000Y-7675000D02*
X9065000Y-7675000D01*
X9533000Y-7635000D02*
X9533000Y-7715000D01*
X9493000Y-7675000D02*
X9573000Y-7675000D01*
X9446636Y-3758755D02*
X9446636Y-3838755D01*
X9406636Y-3798755D02*
X9486636Y-3798755D01*
X9446636Y-4266755D02*
X9446636Y-4346755D01*
X9406636Y-4306755D02*
X9486636Y-4306755D01*
X6772589Y-3757632D02*
X6772589Y-3837632D01*
X6732589Y-3797632D02*
X6812589Y-3797632D01*
X6772589Y-4265632D02*
X6772589Y-4345632D01*
X6732589Y-4305632D02*
X6812589Y-4305632D01*
X8313767Y-3755168D02*
X8313767Y-3835168D01*
X8273767Y-3795168D02*
X8353767Y-3795168D01*
X8813767Y-3755168D02*
X8813767Y-3835168D01*
X8773767Y-3795168D02*
X8853767Y-3795168D01*
X9525000Y-6710000D02*
X9525000Y-6790000D01*
X9485000Y-6750000D02*
X9565000Y-6750000D01*
X10025000Y-6710000D02*
X10025000Y-6790000D01*
X9985000Y-6750000D02*
X10065000Y-6750000D01*
X5317000Y-14010000D02*
X5317000Y-14090000D01*
X5277000Y-14050000D02*
X5357000Y-14050000D01*
X5825000Y-14010000D02*
X5825000Y-14090000D01*
X5785000Y-14050000D02*
X5865000Y-14050000D01*
X8050000Y-7810000D02*
X8050000Y-7890000D01*
X8010000Y-7850000D02*
X8090000Y-7850000D01*
X8300000Y-7810000D02*
X8300000Y-7890000D01*
X8260000Y-7850000D02*
X8340000Y-7850000D01*
X10125000Y-13710000D02*
X10125000Y-13790000D01*
X10085000Y-13750000D02*
X10165000Y-13750000D01*
X10633000Y-13710000D02*
X10633000Y-13790000D01*
X10593000Y-13750000D02*
X10673000Y-13750000D01*
X8314565Y-2914008D02*
X8314565Y-2994008D01*
X8274565Y-2954008D02*
X8354565Y-2954008D01*
X8314565Y-3422008D02*
X8314565Y-3502008D01*
X8274565Y-3462008D02*
X8354565Y-3462008D01*
X10400000Y-7535000D02*
X10400000Y-7615000D01*
X10360000Y-7575000D02*
X10440000Y-7575000D01*
X10753553Y-7181447D02*
X10753553Y-7261447D01*
X10713553Y-7221447D02*
X10793553Y-7221447D01*
X5067000Y-14535000D02*
X5067000Y-14615000D01*
X5027000Y-14575000D02*
X5107000Y-14575000D01*
X5575000Y-14535000D02*
X5575000Y-14615000D01*
X5535000Y-14575000D02*
X5615000Y-14575000D01*
X4525000Y-12860000D02*
X4525000Y-12940000D01*
X4485000Y-12900000D02*
X4565000Y-12900000D01*
X4525000Y-13360000D02*
X4525000Y-13440000D01*
X4485000Y-13400000D02*
X4565000Y-13400000D01*
X10225000Y-14410000D02*
X10225000Y-14490000D01*
X10185000Y-14450000D02*
X10265000Y-14450000D01*
X10725000Y-14410000D02*
X10725000Y-14490000D01*
X10685000Y-14450000D02*
X10765000Y-14450000D01*
X6146889Y-3757632D02*
X6146889Y-3837632D01*
X6106889Y-3797632D02*
X6186889Y-3797632D01*
X6146889Y-4257632D02*
X6146889Y-4337632D01*
X6106889Y-4297632D02*
X6186889Y-4297632D01*
X7442000Y-14985000D02*
X7442000Y-15065000D01*
X7402000Y-15025000D02*
X7482000Y-15025000D01*
X7950000Y-14985000D02*
X7950000Y-15065000D01*
X7910000Y-15025000D02*
X7990000Y-15025000D01*
X7750000Y-12885000D02*
X7750000Y-12965000D01*
X7710000Y-12925000D02*
X7790000Y-12925000D01*
X7750000Y-13139000D02*
X7750000Y-13219000D01*
X7710000Y-13179000D02*
X7790000Y-13179000D01*
X7750000Y-13393000D02*
X7750000Y-13473000D01*
X7710000Y-13433000D02*
X7790000Y-13433000D01*
X7750000Y-13647000D02*
X7750000Y-13727000D01*
X7710000Y-13687000D02*
X7790000Y-13687000D01*
X7750000Y-13901000D02*
X7750000Y-13981000D01*
X7710000Y-13941000D02*
X7790000Y-13941000D01*
X7750000Y-14155000D02*
X7750000Y-14235000D01*
X7710000Y-14195000D02*
X7790000Y-14195000D01*
X7750000Y-14409000D02*
X7750000Y-14489000D01*
X7710000Y-14449000D02*
X7790000Y-14449000D01*
X8512000Y-12885000D02*
X8512000Y-12965000D01*
X8472000Y-12925000D02*
X8552000Y-12925000D01*
X8512000Y-13139000D02*
X8512000Y-13219000D01*
X8472000Y-13179000D02*
X8552000Y-13179000D01*
X8512000Y-13393000D02*
X8512000Y-13473000D01*
X8472000Y-13433000D02*
X8552000Y-13433000D01*
X8512000Y-13647000D02*
X8512000Y-13727000D01*
X8472000Y-13687000D02*
X8552000Y-13687000D01*
X8512000Y-13901000D02*
X8512000Y-13981000D01*
X8472000Y-13941000D02*
X8552000Y-13941000D01*
X8512000Y-14155000D02*
X8512000Y-14235000D01*
X8472000Y-14195000D02*
X8552000Y-14195000D01*
X8512000Y-14409000D02*
X8512000Y-14489000D01*
X8472000Y-14449000D02*
X8552000Y-14449000D01*
X5500000Y-15010000D02*
X5500000Y-15090000D01*
X5460000Y-15050000D02*
X5540000Y-15050000D01*
X6000000Y-15010000D02*
X6000000Y-15090000D01*
X5960000Y-15050000D02*
X6040000Y-15050000D01*
X9465790Y-5644210D02*
X9465790Y-5724210D01*
X9425790Y-5684210D02*
X9505790Y-5684210D01*
X9825000Y-5285000D02*
X9825000Y-5365000D01*
X9785000Y-5325000D02*
X9865000Y-5325000D01*
X7250000Y-3235000D02*
X7250000Y-3315000D01*
X7210000Y-3275000D02*
X7290000Y-3275000D01*
X7750000Y-3235000D02*
X7750000Y-3315000D01*
X7710000Y-3275000D02*
X7790000Y-3275000D01*
X7925000Y-12235000D02*
X7925000Y-12315000D01*
X7885000Y-12275000D02*
X7965000Y-12275000D01*
X8425000Y-12235000D02*
X8425000Y-12315000D01*
X8385000Y-12275000D02*
X8465000Y-12275000D01*
X6000000Y-3185000D02*
X6000000Y-3265000D01*
X5960000Y-3225000D02*
X6040000Y-3225000D01*
X6508000Y-3185000D02*
X6508000Y-3265000D01*
X6468000Y-3225000D02*
X6548000Y-3225000D01*
X8917000Y-2685000D02*
X8917000Y-2765000D01*
X8877000Y-2725000D02*
X8957000Y-2725000D01*
X9425000Y-2685000D02*
X9425000Y-2765000D01*
X9385000Y-2725000D02*
X9465000Y-2725000D01*
X5450000Y-13035000D02*
X5450000Y-13115000D01*
X5410000Y-13075000D02*
X5490000Y-13075000D01*
X5450000Y-13285000D02*
X5450000Y-13365000D01*
X5410000Y-13325000D02*
X5490000Y-13325000D01*
X8427820Y-15056820D02*
X8427820Y-14993180D01*
X8364180Y-14993180D01*
X8364180Y-15056820D01*
X8427820Y-15056820D01*
X8681820Y-15056820D02*
X8681820Y-14993180D01*
X8618180Y-14993180D01*
X8618180Y-15056820D01*
X8681820Y-15056820D01*
X6381820Y-2531820D02*
X6381820Y-2468180D01*
X6318180Y-2468180D01*
X6318180Y-2531820D01*
X6381820Y-2531820D01*
X6381820Y-2785820D02*
X6381820Y-2722180D01*
X6318180Y-2722180D01*
X6318180Y-2785820D01*
X6381820Y-2785820D01*
X7549775Y-3857632D02*
X7609775Y-3797632D01*
X7549775Y-3737632D01*
X7489775Y-3797632D01*
X7549775Y-3857632D01*
X7549775Y-4238632D02*
X7609775Y-4178632D01*
X7549775Y-4118632D01*
X7489775Y-4178632D01*
X7549775Y-4238632D01*
X5175032Y-2200032D02*
X5424968Y-2449968D01*
X5424968Y-2200032D02*
X5175032Y-2449968D01*
X5424968Y-2325000D02*
G75*
G03X5424968Y-2325000I-124968J0D01*
G01*
X5175032Y-2962032D02*
X5424968Y-3211968D01*
X5424968Y-2962032D02*
X5175032Y-3211968D01*
X5424968Y-3087000D02*
G75*
G03X5424968Y-3087000I-124968J0D01*
G01*
X11450032Y-13338032D02*
X11699968Y-13587968D01*
X11699968Y-13338032D02*
X11450032Y-13587968D01*
X11699968Y-13463000D02*
G75*
G03X11699968Y-13463000I-124968J0D01*
G01*
X11450032Y-14100032D02*
X11699968Y-14349968D01*
X11699968Y-14100032D02*
X11450032Y-14349968D01*
X11699968Y-14225000D02*
G75*
G03X11699968Y-14225000I-124968J0D01*
G01*
X4538032Y-11550032D02*
X4787968Y-11799968D01*
X4787968Y-11550032D02*
X4538032Y-11799968D01*
X4787968Y-11675000D02*
G75*
G03X4787968Y-11675000I-124968J0D01*
G01*
X5300032Y-11550032D02*
X5549968Y-11799968D01*
X5549968Y-11550032D02*
X5300032Y-11799968D01*
X5549968Y-11675000D02*
G75*
G03X5549968Y-11675000I-124968J0D01*
G01*
X4325032Y-3675032D02*
X4574968Y-3924968D01*
X4574968Y-3675032D02*
X4325032Y-3924968D01*
X4574968Y-3800000D02*
G75*
G03X4574968Y-3800000I-124968J0D01*
G01*
X6313032Y-11550032D02*
X6562968Y-11799968D01*
X6562968Y-11550032D02*
X6313032Y-11799968D01*
X6562968Y-11675000D02*
G75*
G03X6562968Y-11675000I-124968J0D01*
G01*
X7075032Y-11550032D02*
X7324968Y-11799968D01*
X7324968Y-11550032D02*
X7075032Y-11799968D01*
X7324968Y-11675000D02*
G75*
G03X7324968Y-11675000I-124968J0D01*
G01*
X8975032Y-8200032D02*
X9224968Y-8449968D01*
X9224968Y-8200032D02*
X8975032Y-8449968D01*
X9224968Y-8325000D02*
G75*
G03X9224968Y-8325000I-124968J0D01*
G01*
X9737032Y-8200032D02*
X9986968Y-8449968D01*
X9986968Y-8200032D02*
X9737032Y-8449968D01*
X9986968Y-8325000D02*
G75*
G03X9986968Y-8325000I-124968J0D01*
G01*
X10500032Y-4650032D02*
X10749968Y-4899968D01*
X10749968Y-4650032D02*
X10500032Y-4899968D01*
X10749968Y-4775000D02*
G75*
G03X10749968Y-4775000I-124968J0D01*
G01*
X10500032Y-5412032D02*
X10749968Y-5661968D01*
X10749968Y-5412032D02*
X10500032Y-5661968D01*
X10749968Y-5537000D02*
G75*
G03X10749968Y-5537000I-124968J0D01*
G01*
X10500032Y-6174032D02*
X10749968Y-6423968D01*
X10749968Y-6174032D02*
X10500032Y-6423968D01*
X10749968Y-6299000D02*
G75*
G03X10749968Y-6299000I-124968J0D01*
G01*
X7150032Y-2200032D02*
X7399968Y-2449968D01*
X7399968Y-2200032D02*
X7150032Y-2449968D01*
X7399968Y-2325000D02*
G75*
G03X7399968Y-2325000I-124968J0D01*
G01*
X7912032Y-2200032D02*
X8161968Y-2449968D01*
X8161968Y-2200032D02*
X7912032Y-2449968D01*
X8161968Y-2325000D02*
G75*
G03X8161968Y-2325000I-124968J0D01*
G01*
D12*
X3906428Y-15870714D02*
X3906428Y-15570714D01*
X3977857Y-15570714D01*
X4020714Y-15585000D01*
X4049286Y-15613571D01*
X4063571Y-15642143D01*
X4077857Y-15699286D01*
X4077857Y-15742143D01*
X4063571Y-15799286D01*
X4049286Y-15827857D01*
X4020714Y-15856429D01*
X3977857Y-15870714D01*
X3906428Y-15870714D01*
X4206428Y-15870714D02*
X4206428Y-15670714D01*
X4206428Y-15727857D02*
X4220714Y-15699286D01*
X4235000Y-15685000D01*
X4263571Y-15670714D01*
X4292143Y-15670714D01*
X4392143Y-15870714D02*
X4392143Y-15670714D01*
X4392143Y-15570714D02*
X4377857Y-15585000D01*
X4392143Y-15599286D01*
X4406428Y-15585000D01*
X4392143Y-15570714D01*
X4392143Y-15599286D01*
X4577857Y-15870714D02*
X4549286Y-15856429D01*
X4535000Y-15827857D01*
X4535000Y-15570714D01*
X4735000Y-15870714D02*
X4706428Y-15856429D01*
X4692143Y-15827857D01*
X4692143Y-15570714D01*
X5077857Y-15870714D02*
X5077857Y-15570714D01*
X5177857Y-15785000D01*
X5277857Y-15570714D01*
X5277857Y-15870714D01*
X5549286Y-15870714D02*
X5549286Y-15713571D01*
X5535000Y-15685000D01*
X5506428Y-15670714D01*
X5449286Y-15670714D01*
X5420714Y-15685000D01*
X5549286Y-15856429D02*
X5520714Y-15870714D01*
X5449286Y-15870714D01*
X5420714Y-15856429D01*
X5406428Y-15827857D01*
X5406428Y-15799286D01*
X5420714Y-15770714D01*
X5449286Y-15756429D01*
X5520714Y-15756429D01*
X5549286Y-15742143D01*
X5692143Y-15670714D02*
X5692143Y-15970714D01*
X5692143Y-15685000D02*
X5720714Y-15670714D01*
X5777857Y-15670714D01*
X5806428Y-15685000D01*
X5820714Y-15699286D01*
X5835000Y-15727857D01*
X5835000Y-15813571D01*
X5820714Y-15842143D01*
X5806428Y-15856429D01*
X5777857Y-15870714D01*
X5720714Y-15870714D01*
X5692143Y-15856429D01*
X5963571Y-15842143D02*
X5977857Y-15856429D01*
X5963571Y-15870714D01*
X5949286Y-15856429D01*
X5963571Y-15842143D01*
X5963571Y-15870714D01*
X5963571Y-15685000D02*
X5977857Y-15699286D01*
X5963571Y-15713571D01*
X5949286Y-15699286D01*
X5963571Y-15685000D01*
X5963571Y-15713571D01*
X3545000Y-16327500D02*
X3620000Y-16402500D01*
X3620000Y-16327500D02*
X3545000Y-16402500D01*
X3963571Y-16200714D02*
X3992143Y-16200714D01*
X4020714Y-16215000D01*
X4035000Y-16229286D01*
X4049286Y-16257857D01*
X4063571Y-16315000D01*
X4063571Y-16386429D01*
X4049286Y-16443571D01*
X4035000Y-16472143D01*
X4020714Y-16486429D01*
X3992143Y-16500714D01*
X3963571Y-16500714D01*
X3935000Y-16486429D01*
X3920714Y-16472143D01*
X3906428Y-16443571D01*
X3892143Y-16386429D01*
X3892143Y-16315000D01*
X3906428Y-16257857D01*
X3920714Y-16229286D01*
X3935000Y-16215000D01*
X3963571Y-16200714D01*
X4192143Y-16472143D02*
X4206428Y-16486429D01*
X4192143Y-16500714D01*
X4177857Y-16486429D01*
X4192143Y-16472143D01*
X4192143Y-16500714D01*
X4306428Y-16200714D02*
X4506428Y-16200714D01*
X4377857Y-16500714D01*
X4763571Y-16200714D02*
X4620714Y-16200714D01*
X4606428Y-16343571D01*
X4620714Y-16329286D01*
X4649286Y-16315000D01*
X4720714Y-16315000D01*
X4749286Y-16329286D01*
X4763571Y-16343571D01*
X4777857Y-16372143D01*
X4777857Y-16443571D01*
X4763571Y-16472143D01*
X4749286Y-16486429D01*
X4720714Y-16500714D01*
X4649286Y-16500714D01*
X4620714Y-16486429D01*
X4606428Y-16472143D01*
X4906428Y-16500714D02*
X4906428Y-16300714D01*
X4906428Y-16329286D02*
X4920714Y-16315000D01*
X4949286Y-16300714D01*
X4992143Y-16300714D01*
X5020714Y-16315000D01*
X5035000Y-16343571D01*
X5035000Y-16500714D01*
X5035000Y-16343571D02*
X5049286Y-16315000D01*
X5077857Y-16300714D01*
X5120714Y-16300714D01*
X5149286Y-16315000D01*
X5163571Y-16343571D01*
X5163571Y-16500714D01*
X5306428Y-16500714D02*
X5306428Y-16300714D01*
X5306428Y-16329286D02*
X5320714Y-16315000D01*
X5349286Y-16300714D01*
X5392143Y-16300714D01*
X5420714Y-16315000D01*
X5435000Y-16343571D01*
X5435000Y-16500714D01*
X5435000Y-16343571D02*
X5449286Y-16315000D01*
X5477857Y-16300714D01*
X5520714Y-16300714D01*
X5549286Y-16315000D01*
X5563571Y-16343571D01*
X5563571Y-16500714D01*
X6149286Y-16186429D02*
X5892143Y-16572143D01*
X6535000Y-16200714D02*
X6563571Y-16200714D01*
X6592143Y-16215000D01*
X6606428Y-16229286D01*
X6620714Y-16257857D01*
X6635000Y-16315000D01*
X6635000Y-16386429D01*
X6620714Y-16443571D01*
X6606428Y-16472143D01*
X6592143Y-16486429D01*
X6563571Y-16500714D01*
X6535000Y-16500714D01*
X6506428Y-16486429D01*
X6492143Y-16472143D01*
X6477857Y-16443571D01*
X6463571Y-16386429D01*
X6463571Y-16315000D01*
X6477857Y-16257857D01*
X6492143Y-16229286D01*
X6506428Y-16215000D01*
X6535000Y-16200714D01*
X6763571Y-16472143D02*
X6777857Y-16486429D01*
X6763571Y-16500714D01*
X6749286Y-16486429D01*
X6763571Y-16472143D01*
X6763571Y-16500714D01*
X6963571Y-16200714D02*
X6992143Y-16200714D01*
X7020714Y-16215000D01*
X7035000Y-16229286D01*
X7049286Y-16257857D01*
X7063571Y-16315000D01*
X7063571Y-16386429D01*
X7049286Y-16443571D01*
X7035000Y-16472143D01*
X7020714Y-16486429D01*
X6992143Y-16500714D01*
X6963571Y-16500714D01*
X6935000Y-16486429D01*
X6920714Y-16472143D01*
X6906428Y-16443571D01*
X6892143Y-16386429D01*
X6892143Y-16315000D01*
X6906428Y-16257857D01*
X6920714Y-16229286D01*
X6935000Y-16215000D01*
X6963571Y-16200714D01*
X7163571Y-16200714D02*
X7349286Y-16200714D01*
X7249286Y-16315000D01*
X7292143Y-16315000D01*
X7320714Y-16329286D01*
X7335000Y-16343571D01*
X7349286Y-16372143D01*
X7349286Y-16443571D01*
X7335000Y-16472143D01*
X7320714Y-16486429D01*
X7292143Y-16500714D01*
X7206428Y-16500714D01*
X7177857Y-16486429D01*
X7163571Y-16472143D01*
X7535000Y-16200714D02*
X7563571Y-16200714D01*
X7592143Y-16215000D01*
X7606428Y-16229286D01*
X7620714Y-16257857D01*
X7635000Y-16315000D01*
X7635000Y-16386429D01*
X7620714Y-16443571D01*
X7606428Y-16472143D01*
X7592143Y-16486429D01*
X7563571Y-16500714D01*
X7535000Y-16500714D01*
X7506428Y-16486429D01*
X7492143Y-16472143D01*
X7477857Y-16443571D01*
X7463571Y-16386429D01*
X7463571Y-16315000D01*
X7477857Y-16257857D01*
X7492143Y-16229286D01*
X7506428Y-16215000D01*
X7535000Y-16200714D01*
X7749286Y-16200714D02*
X7749286Y-16257857D01*
X7863571Y-16200714D02*
X7863571Y-16257857D01*
X8306428Y-16615000D02*
X8292143Y-16600714D01*
X8263571Y-16557857D01*
X8249286Y-16529286D01*
X8235000Y-16486429D01*
X8220714Y-16415000D01*
X8220714Y-16357857D01*
X8235000Y-16286429D01*
X8249286Y-16243571D01*
X8263571Y-16215000D01*
X8292143Y-16172143D01*
X8306428Y-16157857D01*
X8549286Y-16200714D02*
X8492143Y-16200714D01*
X8463571Y-16215000D01*
X8449286Y-16229286D01*
X8420714Y-16272143D01*
X8406428Y-16329286D01*
X8406428Y-16443571D01*
X8420714Y-16472143D01*
X8435000Y-16486429D01*
X8463571Y-16500714D01*
X8520714Y-16500714D01*
X8549286Y-16486429D01*
X8563571Y-16472143D01*
X8577857Y-16443571D01*
X8577857Y-16372143D01*
X8563571Y-16343571D01*
X8549286Y-16329286D01*
X8520714Y-16315000D01*
X8463571Y-16315000D01*
X8435000Y-16329286D01*
X8420714Y-16343571D01*
X8406428Y-16372143D01*
X8935000Y-16500714D02*
X8935000Y-16200714D01*
X9063571Y-16500714D02*
X9063571Y-16343571D01*
X9049286Y-16315000D01*
X9020714Y-16300714D01*
X8977857Y-16300714D01*
X8949286Y-16315000D01*
X8935000Y-16329286D01*
X9249286Y-16500714D02*
X9220714Y-16486429D01*
X9206428Y-16472143D01*
X9192143Y-16443571D01*
X9192143Y-16357857D01*
X9206428Y-16329286D01*
X9220714Y-16315000D01*
X9249286Y-16300714D01*
X9292143Y-16300714D01*
X9320714Y-16315000D01*
X9335000Y-16329286D01*
X9349286Y-16357857D01*
X9349286Y-16443571D01*
X9335000Y-16472143D01*
X9320714Y-16486429D01*
X9292143Y-16500714D01*
X9249286Y-16500714D01*
X9520714Y-16500714D02*
X9492143Y-16486429D01*
X9477857Y-16457857D01*
X9477857Y-16200714D01*
X9749286Y-16486429D02*
X9720714Y-16500714D01*
X9663571Y-16500714D01*
X9635000Y-16486429D01*
X9620714Y-16457857D01*
X9620714Y-16343571D01*
X9635000Y-16315000D01*
X9663571Y-16300714D01*
X9720714Y-16300714D01*
X9749286Y-16315000D01*
X9763571Y-16343571D01*
X9763571Y-16372143D01*
X9620714Y-16400714D01*
X9877857Y-16486429D02*
X9906428Y-16500714D01*
X9963571Y-16500714D01*
X9992143Y-16486429D01*
X10006428Y-16457857D01*
X10006428Y-16443571D01*
X9992143Y-16415000D01*
X9963571Y-16400714D01*
X9920714Y-16400714D01*
X9892143Y-16386429D01*
X9877857Y-16357857D01*
X9877857Y-16343571D01*
X9892143Y-16315000D01*
X9920714Y-16300714D01*
X9963571Y-16300714D01*
X9992143Y-16315000D01*
X10106428Y-16615000D02*
X10120714Y-16600714D01*
X10149286Y-16557857D01*
X10163571Y-16529286D01*
X10177857Y-16486429D01*
X10192143Y-16415000D01*
X10192143Y-16357857D01*
X10177857Y-16286429D01*
X10163571Y-16243571D01*
X10149286Y-16215000D01*
X10120714Y-16172143D01*
X10106428Y-16157857D01*
X3620000Y-16761000D02*
G75*
G03X3620000Y-16761000I-39000J0D01*
G01*
X3963571Y-16596714D02*
X3992143Y-16596714D01*
X4020714Y-16611000D01*
X4035000Y-16625286D01*
X4049286Y-16653857D01*
X4063571Y-16711000D01*
X4063571Y-16782429D01*
X4049286Y-16839572D01*
X4035000Y-16868143D01*
X4020714Y-16882429D01*
X3992143Y-16896714D01*
X3963571Y-16896714D01*
X3935000Y-16882429D01*
X3920714Y-16868143D01*
X3906428Y-16839572D01*
X3892143Y-16782429D01*
X3892143Y-16711000D01*
X3906428Y-16653857D01*
X3920714Y-16625286D01*
X3935000Y-16611000D01*
X3963571Y-16596714D01*
X4192143Y-16868143D02*
X4206428Y-16882429D01*
X4192143Y-16896714D01*
X4177857Y-16882429D01*
X4192143Y-16868143D01*
X4192143Y-16896714D01*
X4306428Y-16596714D02*
X4506428Y-16596714D01*
X4377857Y-16896714D01*
X4663571Y-16725286D02*
X4635000Y-16711000D01*
X4620714Y-16696714D01*
X4606428Y-16668143D01*
X4606428Y-16653857D01*
X4620714Y-16625286D01*
X4635000Y-16611000D01*
X4663571Y-16596714D01*
X4720714Y-16596714D01*
X4749286Y-16611000D01*
X4763571Y-16625286D01*
X4777857Y-16653857D01*
X4777857Y-16668143D01*
X4763571Y-16696714D01*
X4749286Y-16711000D01*
X4720714Y-16725286D01*
X4663571Y-16725286D01*
X4635000Y-16739571D01*
X4620714Y-16753857D01*
X4606428Y-16782429D01*
X4606428Y-16839572D01*
X4620714Y-16868143D01*
X4635000Y-16882429D01*
X4663571Y-16896714D01*
X4720714Y-16896714D01*
X4749286Y-16882429D01*
X4763571Y-16868143D01*
X4777857Y-16839572D01*
X4777857Y-16782429D01*
X4763571Y-16753857D01*
X4749286Y-16739571D01*
X4720714Y-16725286D01*
X4906428Y-16896714D02*
X4906428Y-16696714D01*
X4906428Y-16725286D02*
X4920714Y-16711000D01*
X4949286Y-16696714D01*
X4992143Y-16696714D01*
X5020714Y-16711000D01*
X5035000Y-16739571D01*
X5035000Y-16896714D01*
X5035000Y-16739571D02*
X5049286Y-16711000D01*
X5077857Y-16696714D01*
X5120714Y-16696714D01*
X5149286Y-16711000D01*
X5163571Y-16739571D01*
X5163571Y-16896714D01*
X5306428Y-16896714D02*
X5306428Y-16696714D01*
X5306428Y-16725286D02*
X5320714Y-16711000D01*
X5349286Y-16696714D01*
X5392143Y-16696714D01*
X5420714Y-16711000D01*
X5435000Y-16739571D01*
X5435000Y-16896714D01*
X5435000Y-16739571D02*
X5449286Y-16711000D01*
X5477857Y-16696714D01*
X5520714Y-16696714D01*
X5549286Y-16711000D01*
X5563571Y-16739571D01*
X5563571Y-16896714D01*
X6149286Y-16582429D02*
X5892143Y-16968143D01*
X6535000Y-16596714D02*
X6563571Y-16596714D01*
X6592143Y-16611000D01*
X6606428Y-16625286D01*
X6620714Y-16653857D01*
X6635000Y-16711000D01*
X6635000Y-16782429D01*
X6620714Y-16839572D01*
X6606428Y-16868143D01*
X6592143Y-16882429D01*
X6563571Y-16896714D01*
X6535000Y-16896714D01*
X6506428Y-16882429D01*
X6492143Y-16868143D01*
X6477857Y-16839572D01*
X6463571Y-16782429D01*
X6463571Y-16711000D01*
X6477857Y-16653857D01*
X6492143Y-16625286D01*
X6506428Y-16611000D01*
X6535000Y-16596714D01*
X6763571Y-16868143D02*
X6777857Y-16882429D01*
X6763571Y-16896714D01*
X6749286Y-16882429D01*
X6763571Y-16868143D01*
X6763571Y-16896714D01*
X6963571Y-16596714D02*
X6992143Y-16596714D01*
X7020714Y-16611000D01*
X7035000Y-16625286D01*
X7049286Y-16653857D01*
X7063571Y-16711000D01*
X7063571Y-16782429D01*
X7049286Y-16839572D01*
X7035000Y-16868143D01*
X7020714Y-16882429D01*
X6992143Y-16896714D01*
X6963571Y-16896714D01*
X6935000Y-16882429D01*
X6920714Y-16868143D01*
X6906428Y-16839572D01*
X6892143Y-16782429D01*
X6892143Y-16711000D01*
X6906428Y-16653857D01*
X6920714Y-16625286D01*
X6935000Y-16611000D01*
X6963571Y-16596714D01*
X7163571Y-16596714D02*
X7349286Y-16596714D01*
X7249286Y-16711000D01*
X7292143Y-16711000D01*
X7320714Y-16725286D01*
X7335000Y-16739571D01*
X7349286Y-16768143D01*
X7349286Y-16839572D01*
X7335000Y-16868143D01*
X7320714Y-16882429D01*
X7292143Y-16896714D01*
X7206428Y-16896714D01*
X7177857Y-16882429D01*
X7163571Y-16868143D01*
X7635000Y-16896714D02*
X7463571Y-16896714D01*
X7549286Y-16896714D02*
X7549286Y-16596714D01*
X7520714Y-16639571D01*
X7492143Y-16668143D01*
X7463571Y-16682429D01*
X7749286Y-16596714D02*
X7749286Y-16653857D01*
X7863571Y-16596714D02*
X7863571Y-16653857D01*
X8306428Y-17011000D02*
X8292143Y-16996714D01*
X8263571Y-16953857D01*
X8249286Y-16925286D01*
X8235000Y-16882429D01*
X8220714Y-16811000D01*
X8220714Y-16753857D01*
X8235000Y-16682429D01*
X8249286Y-16639571D01*
X8263571Y-16611000D01*
X8292143Y-16568143D01*
X8306428Y-16553857D01*
X8392143Y-16596714D02*
X8577857Y-16596714D01*
X8477857Y-16711000D01*
X8520714Y-16711000D01*
X8549286Y-16725286D01*
X8563571Y-16739571D01*
X8577857Y-16768143D01*
X8577857Y-16839572D01*
X8563571Y-16868143D01*
X8549286Y-16882429D01*
X8520714Y-16896714D01*
X8435000Y-16896714D01*
X8406428Y-16882429D01*
X8392143Y-16868143D01*
X8692143Y-16625286D02*
X8706428Y-16611000D01*
X8735000Y-16596714D01*
X8806428Y-16596714D01*
X8835000Y-16611000D01*
X8849286Y-16625286D01*
X8863571Y-16653857D01*
X8863571Y-16682429D01*
X8849286Y-16725286D01*
X8677857Y-16896714D01*
X8863571Y-16896714D01*
X9220714Y-16896714D02*
X9220714Y-16596714D01*
X9349286Y-16896714D02*
X9349286Y-16739571D01*
X9335000Y-16711000D01*
X9306428Y-16696714D01*
X9263571Y-16696714D01*
X9235000Y-16711000D01*
X9220714Y-16725286D01*
X9535000Y-16896714D02*
X9506428Y-16882429D01*
X9492143Y-16868143D01*
X9477857Y-16839572D01*
X9477857Y-16753857D01*
X9492143Y-16725286D01*
X9506428Y-16711000D01*
X9535000Y-16696714D01*
X9577857Y-16696714D01*
X9606428Y-16711000D01*
X9620714Y-16725286D01*
X9635000Y-16753857D01*
X9635000Y-16839572D01*
X9620714Y-16868143D01*
X9606428Y-16882429D01*
X9577857Y-16896714D01*
X9535000Y-16896714D01*
X9806428Y-16896714D02*
X9777857Y-16882429D01*
X9763571Y-16853857D01*
X9763571Y-16596714D01*
X10035000Y-16882429D02*
X10006428Y-16896714D01*
X9949286Y-16896714D01*
X9920714Y-16882429D01*
X9906428Y-16853857D01*
X9906428Y-16739571D01*
X9920714Y-16711000D01*
X9949286Y-16696714D01*
X10006428Y-16696714D01*
X10035000Y-16711000D01*
X10049286Y-16739571D01*
X10049286Y-16768143D01*
X9906428Y-16796714D01*
X10163571Y-16882429D02*
X10192143Y-16896714D01*
X10249286Y-16896714D01*
X10277857Y-16882429D01*
X10292143Y-16853857D01*
X10292143Y-16839572D01*
X10277857Y-16811000D01*
X10249286Y-16796714D01*
X10206428Y-16796714D01*
X10177857Y-16782429D01*
X10163571Y-16753857D01*
X10163571Y-16739571D01*
X10177857Y-16711000D01*
X10206428Y-16696714D01*
X10249286Y-16696714D01*
X10277857Y-16711000D01*
X10392143Y-17011000D02*
X10406428Y-16996714D01*
X10435000Y-16953857D01*
X10449286Y-16925286D01*
X10463571Y-16882429D01*
X10477857Y-16811000D01*
X10477857Y-16753857D01*
X10463571Y-16682429D01*
X10449286Y-16639571D01*
X10435000Y-16611000D01*
X10406428Y-16568143D01*
X10392143Y-16553857D01*
X3580000Y-17117000D02*
X3580000Y-17197000D01*
X3540000Y-17157000D02*
X3620000Y-17157000D01*
X3963571Y-16992714D02*
X3992143Y-16992714D01*
X4020714Y-17007000D01*
X4035000Y-17021286D01*
X4049286Y-17049857D01*
X4063571Y-17107000D01*
X4063571Y-17178429D01*
X4049286Y-17235572D01*
X4035000Y-17264143D01*
X4020714Y-17278429D01*
X3992143Y-17292714D01*
X3963571Y-17292714D01*
X3935000Y-17278429D01*
X3920714Y-17264143D01*
X3906428Y-17235572D01*
X3892143Y-17178429D01*
X3892143Y-17107000D01*
X3906428Y-17049857D01*
X3920714Y-17021286D01*
X3935000Y-17007000D01*
X3963571Y-16992714D01*
X4192143Y-17264143D02*
X4206428Y-17278429D01*
X4192143Y-17292714D01*
X4177857Y-17278429D01*
X4192143Y-17264143D01*
X4192143Y-17292714D01*
X4377857Y-17121286D02*
X4349286Y-17107000D01*
X4335000Y-17092714D01*
X4320714Y-17064143D01*
X4320714Y-17049857D01*
X4335000Y-17021286D01*
X4349286Y-17007000D01*
X4377857Y-16992714D01*
X4435000Y-16992714D01*
X4463571Y-17007000D01*
X4477857Y-17021286D01*
X4492143Y-17049857D01*
X4492143Y-17064143D01*
X4477857Y-17092714D01*
X4463571Y-17107000D01*
X4435000Y-17121286D01*
X4377857Y-17121286D01*
X4349286Y-17135572D01*
X4335000Y-17149857D01*
X4320714Y-17178429D01*
X4320714Y-17235572D01*
X4335000Y-17264143D01*
X4349286Y-17278429D01*
X4377857Y-17292714D01*
X4435000Y-17292714D01*
X4463571Y-17278429D01*
X4477857Y-17264143D01*
X4492143Y-17235572D01*
X4492143Y-17178429D01*
X4477857Y-17149857D01*
X4463571Y-17135572D01*
X4435000Y-17121286D01*
X4677857Y-16992714D02*
X4706428Y-16992714D01*
X4735000Y-17007000D01*
X4749286Y-17021286D01*
X4763571Y-17049857D01*
X4777857Y-17107000D01*
X4777857Y-17178429D01*
X4763571Y-17235572D01*
X4749286Y-17264143D01*
X4735000Y-17278429D01*
X4706428Y-17292714D01*
X4677857Y-17292714D01*
X4649286Y-17278429D01*
X4635000Y-17264143D01*
X4620714Y-17235572D01*
X4606428Y-17178429D01*
X4606428Y-17107000D01*
X4620714Y-17049857D01*
X4635000Y-17021286D01*
X4649286Y-17007000D01*
X4677857Y-16992714D01*
X4906428Y-17292714D02*
X4906428Y-17092714D01*
X4906428Y-17121286D02*
X4920714Y-17107000D01*
X4949286Y-17092714D01*
X4992143Y-17092714D01*
X5020714Y-17107000D01*
X5035000Y-17135572D01*
X5035000Y-17292714D01*
X5035000Y-17135572D02*
X5049286Y-17107000D01*
X5077857Y-17092714D01*
X5120714Y-17092714D01*
X5149286Y-17107000D01*
X5163571Y-17135572D01*
X5163571Y-17292714D01*
X5306428Y-17292714D02*
X5306428Y-17092714D01*
X5306428Y-17121286D02*
X5320714Y-17107000D01*
X5349286Y-17092714D01*
X5392143Y-17092714D01*
X5420714Y-17107000D01*
X5435000Y-17135572D01*
X5435000Y-17292714D01*
X5435000Y-17135572D02*
X5449286Y-17107000D01*
X5477857Y-17092714D01*
X5520714Y-17092714D01*
X5549286Y-17107000D01*
X5563571Y-17135572D01*
X5563571Y-17292714D01*
X6149286Y-16978429D02*
X5892143Y-17364143D01*
X6535000Y-16992714D02*
X6563571Y-16992714D01*
X6592143Y-17007000D01*
X6606428Y-17021286D01*
X6620714Y-17049857D01*
X6635000Y-17107000D01*
X6635000Y-17178429D01*
X6620714Y-17235572D01*
X6606428Y-17264143D01*
X6592143Y-17278429D01*
X6563571Y-17292714D01*
X6535000Y-17292714D01*
X6506428Y-17278429D01*
X6492143Y-17264143D01*
X6477857Y-17235572D01*
X6463571Y-17178429D01*
X6463571Y-17107000D01*
X6477857Y-17049857D01*
X6492143Y-17021286D01*
X6506428Y-17007000D01*
X6535000Y-16992714D01*
X6763571Y-17264143D02*
X6777857Y-17278429D01*
X6763571Y-17292714D01*
X6749286Y-17278429D01*
X6763571Y-17264143D01*
X6763571Y-17292714D01*
X6963571Y-16992714D02*
X6992143Y-16992714D01*
X7020714Y-17007000D01*
X7035000Y-17021286D01*
X7049286Y-17049857D01*
X7063571Y-17107000D01*
X7063571Y-17178429D01*
X7049286Y-17235572D01*
X7035000Y-17264143D01*
X7020714Y-17278429D01*
X6992143Y-17292714D01*
X6963571Y-17292714D01*
X6935000Y-17278429D01*
X6920714Y-17264143D01*
X6906428Y-17235572D01*
X6892143Y-17178429D01*
X6892143Y-17107000D01*
X6906428Y-17049857D01*
X6920714Y-17021286D01*
X6935000Y-17007000D01*
X6963571Y-16992714D01*
X7163571Y-16992714D02*
X7349286Y-16992714D01*
X7249286Y-17107000D01*
X7292143Y-17107000D01*
X7320714Y-17121286D01*
X7335000Y-17135572D01*
X7349286Y-17164143D01*
X7349286Y-17235572D01*
X7335000Y-17264143D01*
X7320714Y-17278429D01*
X7292143Y-17292714D01*
X7206428Y-17292714D01*
X7177857Y-17278429D01*
X7163571Y-17264143D01*
X7635000Y-17292714D02*
X7463571Y-17292714D01*
X7549286Y-17292714D02*
X7549286Y-16992714D01*
X7520714Y-17035572D01*
X7492143Y-17064143D01*
X7463571Y-17078429D01*
X7749286Y-16992714D02*
X7749286Y-17049857D01*
X7863571Y-16992714D02*
X7863571Y-17049857D01*
X8306428Y-17407000D02*
X8292143Y-17392714D01*
X8263571Y-17349857D01*
X8249286Y-17321286D01*
X8235000Y-17278429D01*
X8220714Y-17207000D01*
X8220714Y-17149857D01*
X8235000Y-17078429D01*
X8249286Y-17035572D01*
X8263571Y-17007000D01*
X8292143Y-16964143D01*
X8306428Y-16949857D01*
X8392143Y-16992714D02*
X8592143Y-16992714D01*
X8463571Y-17292714D01*
X8835000Y-16992714D02*
X8777857Y-16992714D01*
X8749286Y-17007000D01*
X8735000Y-17021286D01*
X8706428Y-17064143D01*
X8692143Y-17121286D01*
X8692143Y-17235572D01*
X8706428Y-17264143D01*
X8720714Y-17278429D01*
X8749286Y-17292714D01*
X8806428Y-17292714D01*
X8835000Y-17278429D01*
X8849286Y-17264143D01*
X8863571Y-17235572D01*
X8863571Y-17164143D01*
X8849286Y-17135572D01*
X8835000Y-17121286D01*
X8806428Y-17107000D01*
X8749286Y-17107000D01*
X8720714Y-17121286D01*
X8706428Y-17135572D01*
X8692143Y-17164143D01*
X9220714Y-17292714D02*
X9220714Y-16992714D01*
X9349286Y-17292714D02*
X9349286Y-17135572D01*
X9335000Y-17107000D01*
X9306428Y-17092714D01*
X9263571Y-17092714D01*
X9235000Y-17107000D01*
X9220714Y-17121286D01*
X9535000Y-17292714D02*
X9506428Y-17278429D01*
X9492143Y-17264143D01*
X9477857Y-17235572D01*
X9477857Y-17149857D01*
X9492143Y-17121286D01*
X9506428Y-17107000D01*
X9535000Y-17092714D01*
X9577857Y-17092714D01*
X9606428Y-17107000D01*
X9620714Y-17121286D01*
X9635000Y-17149857D01*
X9635000Y-17235572D01*
X9620714Y-17264143D01*
X9606428Y-17278429D01*
X9577857Y-17292714D01*
X9535000Y-17292714D01*
X9806428Y-17292714D02*
X9777857Y-17278429D01*
X9763571Y-17249857D01*
X9763571Y-16992714D01*
X10035000Y-17278429D02*
X10006428Y-17292714D01*
X9949286Y-17292714D01*
X9920714Y-17278429D01*
X9906428Y-17249857D01*
X9906428Y-17135572D01*
X9920714Y-17107000D01*
X9949286Y-17092714D01*
X10006428Y-17092714D01*
X10035000Y-17107000D01*
X10049286Y-17135572D01*
X10049286Y-17164143D01*
X9906428Y-17192714D01*
X10163571Y-17278429D02*
X10192143Y-17292714D01*
X10249286Y-17292714D01*
X10277857Y-17278429D01*
X10292143Y-17249857D01*
X10292143Y-17235572D01*
X10277857Y-17207000D01*
X10249286Y-17192714D01*
X10206428Y-17192714D01*
X10177857Y-17178429D01*
X10163571Y-17149857D01*
X10163571Y-17135572D01*
X10177857Y-17107000D01*
X10206428Y-17092714D01*
X10249286Y-17092714D01*
X10277857Y-17107000D01*
X10392143Y-17407000D02*
X10406428Y-17392714D01*
X10435000Y-17349857D01*
X10449286Y-17321286D01*
X10463571Y-17278429D01*
X10477857Y-17207000D01*
X10477857Y-17149857D01*
X10463571Y-17078429D01*
X10449286Y-17035572D01*
X10435000Y-17007000D01*
X10406428Y-16964143D01*
X10392143Y-16949857D01*
X3606820Y-17584820D02*
X3606820Y-17521180D01*
X3543180Y-17521180D01*
X3543180Y-17584820D01*
X3606820Y-17584820D01*
X3963571Y-17388714D02*
X3992143Y-17388714D01*
X4020714Y-17403000D01*
X4035000Y-17417286D01*
X4049286Y-17445857D01*
X4063571Y-17503000D01*
X4063571Y-17574429D01*
X4049286Y-17631572D01*
X4035000Y-17660143D01*
X4020714Y-17674429D01*
X3992143Y-17688714D01*
X3963571Y-17688714D01*
X3935000Y-17674429D01*
X3920714Y-17660143D01*
X3906428Y-17631572D01*
X3892143Y-17574429D01*
X3892143Y-17503000D01*
X3906428Y-17445857D01*
X3920714Y-17417286D01*
X3935000Y-17403000D01*
X3963571Y-17388714D01*
X4192143Y-17660143D02*
X4206428Y-17674429D01*
X4192143Y-17688714D01*
X4177857Y-17674429D01*
X4192143Y-17660143D01*
X4192143Y-17688714D01*
X4349286Y-17688714D02*
X4406428Y-17688714D01*
X4435000Y-17674429D01*
X4449286Y-17660143D01*
X4477857Y-17617286D01*
X4492143Y-17560143D01*
X4492143Y-17445857D01*
X4477857Y-17417286D01*
X4463571Y-17403000D01*
X4435000Y-17388714D01*
X4377857Y-17388714D01*
X4349286Y-17403000D01*
X4335000Y-17417286D01*
X4320714Y-17445857D01*
X4320714Y-17517286D01*
X4335000Y-17545857D01*
X4349286Y-17560143D01*
X4377857Y-17574429D01*
X4435000Y-17574429D01*
X4463571Y-17560143D01*
X4477857Y-17545857D01*
X4492143Y-17517286D01*
X4677857Y-17388714D02*
X4706428Y-17388714D01*
X4735000Y-17403000D01*
X4749286Y-17417286D01*
X4763571Y-17445857D01*
X4777857Y-17503000D01*
X4777857Y-17574429D01*
X4763571Y-17631572D01*
X4749286Y-17660143D01*
X4735000Y-17674429D01*
X4706428Y-17688714D01*
X4677857Y-17688714D01*
X4649286Y-17674429D01*
X4635000Y-17660143D01*
X4620714Y-17631572D01*
X4606428Y-17574429D01*
X4606428Y-17503000D01*
X4620714Y-17445857D01*
X4635000Y-17417286D01*
X4649286Y-17403000D01*
X4677857Y-17388714D01*
X4906428Y-17688714D02*
X4906428Y-17488714D01*
X4906428Y-17517286D02*
X4920714Y-17503000D01*
X4949286Y-17488714D01*
X4992143Y-17488714D01*
X5020714Y-17503000D01*
X5035000Y-17531572D01*
X5035000Y-17688714D01*
X5035000Y-17531572D02*
X5049286Y-17503000D01*
X5077857Y-17488714D01*
X5120714Y-17488714D01*
X5149286Y-17503000D01*
X5163571Y-17531572D01*
X5163571Y-17688714D01*
X5306428Y-17688714D02*
X5306428Y-17488714D01*
X5306428Y-17517286D02*
X5320714Y-17503000D01*
X5349286Y-17488714D01*
X5392143Y-17488714D01*
X5420714Y-17503000D01*
X5435000Y-17531572D01*
X5435000Y-17688714D01*
X5435000Y-17531572D02*
X5449286Y-17503000D01*
X5477857Y-17488714D01*
X5520714Y-17488714D01*
X5549286Y-17503000D01*
X5563571Y-17531572D01*
X5563571Y-17688714D01*
X6149286Y-17374429D02*
X5892143Y-17760143D01*
X6535000Y-17388714D02*
X6563571Y-17388714D01*
X6592143Y-17403000D01*
X6606428Y-17417286D01*
X6620714Y-17445857D01*
X6635000Y-17503000D01*
X6635000Y-17574429D01*
X6620714Y-17631572D01*
X6606428Y-17660143D01*
X6592143Y-17674429D01*
X6563571Y-17688714D01*
X6535000Y-17688714D01*
X6506428Y-17674429D01*
X6492143Y-17660143D01*
X6477857Y-17631572D01*
X6463571Y-17574429D01*
X6463571Y-17503000D01*
X6477857Y-17445857D01*
X6492143Y-17417286D01*
X6506428Y-17403000D01*
X6535000Y-17388714D01*
X6763571Y-17660143D02*
X6777857Y-17674429D01*
X6763571Y-17688714D01*
X6749286Y-17674429D01*
X6763571Y-17660143D01*
X6763571Y-17688714D01*
X6963571Y-17388714D02*
X6992143Y-17388714D01*
X7020714Y-17403000D01*
X7035000Y-17417286D01*
X7049286Y-17445857D01*
X7063571Y-17503000D01*
X7063571Y-17574429D01*
X7049286Y-17631572D01*
X7035000Y-17660143D01*
X7020714Y-17674429D01*
X6992143Y-17688714D01*
X6963571Y-17688714D01*
X6935000Y-17674429D01*
X6920714Y-17660143D01*
X6906428Y-17631572D01*
X6892143Y-17574429D01*
X6892143Y-17503000D01*
X6906428Y-17445857D01*
X6920714Y-17417286D01*
X6935000Y-17403000D01*
X6963571Y-17388714D01*
X7163571Y-17388714D02*
X7349286Y-17388714D01*
X7249286Y-17503000D01*
X7292143Y-17503000D01*
X7320714Y-17517286D01*
X7335000Y-17531572D01*
X7349286Y-17560143D01*
X7349286Y-17631572D01*
X7335000Y-17660143D01*
X7320714Y-17674429D01*
X7292143Y-17688714D01*
X7206428Y-17688714D01*
X7177857Y-17674429D01*
X7163571Y-17660143D01*
X7620714Y-17388714D02*
X7477857Y-17388714D01*
X7463571Y-17531572D01*
X7477857Y-17517286D01*
X7506428Y-17503000D01*
X7577857Y-17503000D01*
X7606428Y-17517286D01*
X7620714Y-17531572D01*
X7635000Y-17560143D01*
X7635000Y-17631572D01*
X7620714Y-17660143D01*
X7606428Y-17674429D01*
X7577857Y-17688714D01*
X7506428Y-17688714D01*
X7477857Y-17674429D01*
X7463571Y-17660143D01*
X7749286Y-17388714D02*
X7749286Y-17445857D01*
X7863571Y-17388714D02*
X7863571Y-17445857D01*
X8306428Y-17803000D02*
X8292143Y-17788714D01*
X8263571Y-17745857D01*
X8249286Y-17717286D01*
X8235000Y-17674429D01*
X8220714Y-17603000D01*
X8220714Y-17545857D01*
X8235000Y-17474429D01*
X8249286Y-17431572D01*
X8263571Y-17403000D01*
X8292143Y-17360143D01*
X8306428Y-17345857D01*
X8549286Y-17488714D02*
X8549286Y-17688714D01*
X8477857Y-17374429D02*
X8406428Y-17588714D01*
X8592143Y-17588714D01*
X8935000Y-17688714D02*
X8935000Y-17388714D01*
X9063571Y-17688714D02*
X9063571Y-17531572D01*
X9049286Y-17503000D01*
X9020714Y-17488714D01*
X8977857Y-17488714D01*
X8949286Y-17503000D01*
X8935000Y-17517286D01*
X9249286Y-17688714D02*
X9220714Y-17674429D01*
X9206428Y-17660143D01*
X9192143Y-17631572D01*
X9192143Y-17545857D01*
X9206428Y-17517286D01*
X9220714Y-17503000D01*
X9249286Y-17488714D01*
X9292143Y-17488714D01*
X9320714Y-17503000D01*
X9335000Y-17517286D01*
X9349286Y-17545857D01*
X9349286Y-17631572D01*
X9335000Y-17660143D01*
X9320714Y-17674429D01*
X9292143Y-17688714D01*
X9249286Y-17688714D01*
X9520714Y-17688714D02*
X9492143Y-17674429D01*
X9477857Y-17645857D01*
X9477857Y-17388714D01*
X9749286Y-17674429D02*
X9720714Y-17688714D01*
X9663571Y-17688714D01*
X9635000Y-17674429D01*
X9620714Y-17645857D01*
X9620714Y-17531572D01*
X9635000Y-17503000D01*
X9663571Y-17488714D01*
X9720714Y-17488714D01*
X9749286Y-17503000D01*
X9763571Y-17531572D01*
X9763571Y-17560143D01*
X9620714Y-17588714D01*
X9877857Y-17674429D02*
X9906428Y-17688714D01*
X9963571Y-17688714D01*
X9992143Y-17674429D01*
X10006428Y-17645857D01*
X10006428Y-17631572D01*
X9992143Y-17603000D01*
X9963571Y-17588714D01*
X9920714Y-17588714D01*
X9892143Y-17574429D01*
X9877857Y-17545857D01*
X9877857Y-17531572D01*
X9892143Y-17503000D01*
X9920714Y-17488714D01*
X9963571Y-17488714D01*
X9992143Y-17503000D01*
X10106428Y-17803000D02*
X10120714Y-17788714D01*
X10149286Y-17745857D01*
X10163571Y-17717286D01*
X10177857Y-17674429D01*
X10192143Y-17603000D01*
X10192143Y-17545857D01*
X10177857Y-17474429D01*
X10163571Y-17431572D01*
X10149286Y-17403000D01*
X10120714Y-17360143D01*
X10106428Y-17345857D01*
X3560000Y-18009000D02*
X3620000Y-17949000D01*
X3560000Y-17889000D01*
X3500000Y-17949000D01*
X3560000Y-18009000D01*
X4063571Y-18084714D02*
X3892143Y-18084714D01*
X3977857Y-18084714D02*
X3977857Y-17784714D01*
X3949286Y-17827572D01*
X3920714Y-17856143D01*
X3892143Y-17870429D01*
X4192143Y-18056143D02*
X4206428Y-18070429D01*
X4192143Y-18084714D01*
X4177857Y-18070429D01*
X4192143Y-18056143D01*
X4192143Y-18084714D01*
X4320714Y-17813286D02*
X4335000Y-17799000D01*
X4363571Y-17784714D01*
X4435000Y-17784714D01*
X4463571Y-17799000D01*
X4477857Y-17813286D01*
X4492143Y-17841857D01*
X4492143Y-17870429D01*
X4477857Y-17913286D01*
X4306428Y-18084714D01*
X4492143Y-18084714D01*
X4677857Y-17784714D02*
X4706428Y-17784714D01*
X4735000Y-17799000D01*
X4749286Y-17813286D01*
X4763571Y-17841857D01*
X4777857Y-17899000D01*
X4777857Y-17970429D01*
X4763571Y-18027572D01*
X4749286Y-18056143D01*
X4735000Y-18070429D01*
X4706428Y-18084714D01*
X4677857Y-18084714D01*
X4649286Y-18070429D01*
X4635000Y-18056143D01*
X4620714Y-18027572D01*
X4606428Y-17970429D01*
X4606428Y-17899000D01*
X4620714Y-17841857D01*
X4635000Y-17813286D01*
X4649286Y-17799000D01*
X4677857Y-17784714D01*
X4906428Y-18084714D02*
X4906428Y-17884714D01*
X4906428Y-17913286D02*
X4920714Y-17899000D01*
X4949286Y-17884714D01*
X4992143Y-17884714D01*
X5020714Y-17899000D01*
X5035000Y-17927572D01*
X5035000Y-18084714D01*
X5035000Y-17927572D02*
X5049286Y-17899000D01*
X5077857Y-17884714D01*
X5120714Y-17884714D01*
X5149286Y-17899000D01*
X5163571Y-17927572D01*
X5163571Y-18084714D01*
X5306428Y-18084714D02*
X5306428Y-17884714D01*
X5306428Y-17913286D02*
X5320714Y-17899000D01*
X5349286Y-17884714D01*
X5392143Y-17884714D01*
X5420714Y-17899000D01*
X5435000Y-17927572D01*
X5435000Y-18084714D01*
X5435000Y-17927572D02*
X5449286Y-17899000D01*
X5477857Y-17884714D01*
X5520714Y-17884714D01*
X5549286Y-17899000D01*
X5563571Y-17927572D01*
X5563571Y-18084714D01*
X6149286Y-17770429D02*
X5892143Y-18156143D01*
X6535000Y-17784714D02*
X6563571Y-17784714D01*
X6592143Y-17799000D01*
X6606428Y-17813286D01*
X6620714Y-17841857D01*
X6635000Y-17899000D01*
X6635000Y-17970429D01*
X6620714Y-18027572D01*
X6606428Y-18056143D01*
X6592143Y-18070429D01*
X6563571Y-18084714D01*
X6535000Y-18084714D01*
X6506428Y-18070429D01*
X6492143Y-18056143D01*
X6477857Y-18027572D01*
X6463571Y-17970429D01*
X6463571Y-17899000D01*
X6477857Y-17841857D01*
X6492143Y-17813286D01*
X6506428Y-17799000D01*
X6535000Y-17784714D01*
X6763571Y-18056143D02*
X6777857Y-18070429D01*
X6763571Y-18084714D01*
X6749286Y-18070429D01*
X6763571Y-18056143D01*
X6763571Y-18084714D01*
X6963571Y-17784714D02*
X6992143Y-17784714D01*
X7020714Y-17799000D01*
X7035000Y-17813286D01*
X7049286Y-17841857D01*
X7063571Y-17899000D01*
X7063571Y-17970429D01*
X7049286Y-18027572D01*
X7035000Y-18056143D01*
X7020714Y-18070429D01*
X6992143Y-18084714D01*
X6963571Y-18084714D01*
X6935000Y-18070429D01*
X6920714Y-18056143D01*
X6906428Y-18027572D01*
X6892143Y-17970429D01*
X6892143Y-17899000D01*
X6906428Y-17841857D01*
X6920714Y-17813286D01*
X6935000Y-17799000D01*
X6963571Y-17784714D01*
X7320714Y-17884714D02*
X7320714Y-18084714D01*
X7249286Y-17770429D02*
X7177857Y-17984714D01*
X7363571Y-17984714D01*
X7449286Y-17784714D02*
X7649286Y-17784714D01*
X7520714Y-18084714D01*
X7749286Y-17784714D02*
X7749286Y-17841857D01*
X7863571Y-17784714D02*
X7863571Y-17841857D01*
X8306428Y-18199000D02*
X8292143Y-18184714D01*
X8263571Y-18141857D01*
X8249286Y-18113286D01*
X8235000Y-18070429D01*
X8220714Y-17999000D01*
X8220714Y-17941857D01*
X8235000Y-17870429D01*
X8249286Y-17827572D01*
X8263571Y-17799000D01*
X8292143Y-17756143D01*
X8306428Y-17741857D01*
X8406428Y-17813286D02*
X8420714Y-17799000D01*
X8449286Y-17784714D01*
X8520714Y-17784714D01*
X8549286Y-17799000D01*
X8563571Y-17813286D01*
X8577857Y-17841857D01*
X8577857Y-17870429D01*
X8563571Y-17913286D01*
X8392143Y-18084714D01*
X8577857Y-18084714D01*
X8935000Y-18084714D02*
X8935000Y-17784714D01*
X9063571Y-18084714D02*
X9063571Y-17927572D01*
X9049286Y-17899000D01*
X9020714Y-17884714D01*
X8977857Y-17884714D01*
X8949286Y-17899000D01*
X8935000Y-17913286D01*
X9249286Y-18084714D02*
X9220714Y-18070429D01*
X9206428Y-18056143D01*
X9192143Y-18027572D01*
X9192143Y-17941857D01*
X9206428Y-17913286D01*
X9220714Y-17899000D01*
X9249286Y-17884714D01*
X9292143Y-17884714D01*
X9320714Y-17899000D01*
X9335000Y-17913286D01*
X9349286Y-17941857D01*
X9349286Y-18027572D01*
X9335000Y-18056143D01*
X9320714Y-18070429D01*
X9292143Y-18084714D01*
X9249286Y-18084714D01*
X9520714Y-18084714D02*
X9492143Y-18070429D01*
X9477857Y-18041857D01*
X9477857Y-17784714D01*
X9749286Y-18070429D02*
X9720714Y-18084714D01*
X9663571Y-18084714D01*
X9635000Y-18070429D01*
X9620714Y-18041857D01*
X9620714Y-17927572D01*
X9635000Y-17899000D01*
X9663571Y-17884714D01*
X9720714Y-17884714D01*
X9749286Y-17899000D01*
X9763571Y-17927572D01*
X9763571Y-17956143D01*
X9620714Y-17984714D01*
X9877857Y-18070429D02*
X9906428Y-18084714D01*
X9963571Y-18084714D01*
X9992143Y-18070429D01*
X10006428Y-18041857D01*
X10006428Y-18027572D01*
X9992143Y-17999000D01*
X9963571Y-17984714D01*
X9920714Y-17984714D01*
X9892143Y-17970429D01*
X9877857Y-17941857D01*
X9877857Y-17927572D01*
X9892143Y-17899000D01*
X9920714Y-17884714D01*
X9963571Y-17884714D01*
X9992143Y-17899000D01*
X10106428Y-18199000D02*
X10120714Y-18184714D01*
X10149286Y-18141857D01*
X10163571Y-18113286D01*
X10177857Y-18070429D01*
X10192143Y-17999000D01*
X10192143Y-17941857D01*
X10177857Y-17870429D01*
X10163571Y-17827572D01*
X10149286Y-17799000D01*
X10120714Y-17756143D01*
X10106428Y-17741857D01*
X3370064Y-18220032D02*
X3620000Y-18469968D01*
X3620000Y-18220032D02*
X3370064Y-18469968D01*
X3620000Y-18345000D02*
G75*
G03X3620000Y-18345000I-124968J0D01*
G01*
X3892143Y-18209286D02*
X3906428Y-18195000D01*
X3935000Y-18180714D01*
X4006428Y-18180714D01*
X4035000Y-18195000D01*
X4049286Y-18209286D01*
X4063571Y-18237857D01*
X4063571Y-18266429D01*
X4049286Y-18309286D01*
X3877857Y-18480714D01*
X4063571Y-18480714D01*
X4192143Y-18452143D02*
X4206428Y-18466429D01*
X4192143Y-18480714D01*
X4177857Y-18466429D01*
X4192143Y-18452143D01*
X4192143Y-18480714D01*
X4477857Y-18180714D02*
X4335000Y-18180714D01*
X4320714Y-18323572D01*
X4335000Y-18309286D01*
X4363571Y-18295000D01*
X4435000Y-18295000D01*
X4463571Y-18309286D01*
X4477857Y-18323572D01*
X4492143Y-18352143D01*
X4492143Y-18423572D01*
X4477857Y-18452143D01*
X4463571Y-18466429D01*
X4435000Y-18480714D01*
X4363571Y-18480714D01*
X4335000Y-18466429D01*
X4320714Y-18452143D01*
X4677857Y-18180714D02*
X4706428Y-18180714D01*
X4735000Y-18195000D01*
X4749286Y-18209286D01*
X4763571Y-18237857D01*
X4777857Y-18295000D01*
X4777857Y-18366429D01*
X4763571Y-18423572D01*
X4749286Y-18452143D01*
X4735000Y-18466429D01*
X4706428Y-18480714D01*
X4677857Y-18480714D01*
X4649286Y-18466429D01*
X4635000Y-18452143D01*
X4620714Y-18423572D01*
X4606428Y-18366429D01*
X4606428Y-18295000D01*
X4620714Y-18237857D01*
X4635000Y-18209286D01*
X4649286Y-18195000D01*
X4677857Y-18180714D01*
X4906428Y-18480714D02*
X4906428Y-18280714D01*
X4906428Y-18309286D02*
X4920714Y-18295000D01*
X4949286Y-18280714D01*
X4992143Y-18280714D01*
X5020714Y-18295000D01*
X5035000Y-18323572D01*
X5035000Y-18480714D01*
X5035000Y-18323572D02*
X5049286Y-18295000D01*
X5077857Y-18280714D01*
X5120714Y-18280714D01*
X5149286Y-18295000D01*
X5163571Y-18323572D01*
X5163571Y-18480714D01*
X5306428Y-18480714D02*
X5306428Y-18280714D01*
X5306428Y-18309286D02*
X5320714Y-18295000D01*
X5349286Y-18280714D01*
X5392143Y-18280714D01*
X5420714Y-18295000D01*
X5435000Y-18323572D01*
X5435000Y-18480714D01*
X5435000Y-18323572D02*
X5449286Y-18295000D01*
X5477857Y-18280714D01*
X5520714Y-18280714D01*
X5549286Y-18295000D01*
X5563571Y-18323572D01*
X5563571Y-18480714D01*
X6149286Y-18166429D02*
X5892143Y-18552143D01*
X6535000Y-18180714D02*
X6563571Y-18180714D01*
X6592143Y-18195000D01*
X6606428Y-18209286D01*
X6620714Y-18237857D01*
X6635000Y-18295000D01*
X6635000Y-18366429D01*
X6620714Y-18423572D01*
X6606428Y-18452143D01*
X6592143Y-18466429D01*
X6563571Y-18480714D01*
X6535000Y-18480714D01*
X6506428Y-18466429D01*
X6492143Y-18452143D01*
X6477857Y-18423572D01*
X6463571Y-18366429D01*
X6463571Y-18295000D01*
X6477857Y-18237857D01*
X6492143Y-18209286D01*
X6506428Y-18195000D01*
X6535000Y-18180714D01*
X6763571Y-18452143D02*
X6777857Y-18466429D01*
X6763571Y-18480714D01*
X6749286Y-18466429D01*
X6763571Y-18452143D01*
X6763571Y-18480714D01*
X6963571Y-18180714D02*
X6992143Y-18180714D01*
X7020714Y-18195000D01*
X7035000Y-18209286D01*
X7049286Y-18237857D01*
X7063571Y-18295000D01*
X7063571Y-18366429D01*
X7049286Y-18423572D01*
X7035000Y-18452143D01*
X7020714Y-18466429D01*
X6992143Y-18480714D01*
X6963571Y-18480714D01*
X6935000Y-18466429D01*
X6920714Y-18452143D01*
X6906428Y-18423572D01*
X6892143Y-18366429D01*
X6892143Y-18295000D01*
X6906428Y-18237857D01*
X6920714Y-18209286D01*
X6935000Y-18195000D01*
X6963571Y-18180714D01*
X7206428Y-18480714D02*
X7263571Y-18480714D01*
X7292143Y-18466429D01*
X7306428Y-18452143D01*
X7335000Y-18409286D01*
X7349286Y-18352143D01*
X7349286Y-18237857D01*
X7335000Y-18209286D01*
X7320714Y-18195000D01*
X7292143Y-18180714D01*
X7235000Y-18180714D01*
X7206428Y-18195000D01*
X7192143Y-18209286D01*
X7177857Y-18237857D01*
X7177857Y-18309286D01*
X7192143Y-18337857D01*
X7206428Y-18352143D01*
X7235000Y-18366429D01*
X7292143Y-18366429D01*
X7320714Y-18352143D01*
X7335000Y-18337857D01*
X7349286Y-18309286D01*
X7520714Y-18309286D02*
X7492143Y-18295000D01*
X7477857Y-18280714D01*
X7463571Y-18252143D01*
X7463571Y-18237857D01*
X7477857Y-18209286D01*
X7492143Y-18195000D01*
X7520714Y-18180714D01*
X7577857Y-18180714D01*
X7606428Y-18195000D01*
X7620714Y-18209286D01*
X7635000Y-18237857D01*
X7635000Y-18252143D01*
X7620714Y-18280714D01*
X7606428Y-18295000D01*
X7577857Y-18309286D01*
X7520714Y-18309286D01*
X7492143Y-18323572D01*
X7477857Y-18337857D01*
X7463571Y-18366429D01*
X7463571Y-18423572D01*
X7477857Y-18452143D01*
X7492143Y-18466429D01*
X7520714Y-18480714D01*
X7577857Y-18480714D01*
X7606428Y-18466429D01*
X7620714Y-18452143D01*
X7635000Y-18423572D01*
X7635000Y-18366429D01*
X7620714Y-18337857D01*
X7606428Y-18323572D01*
X7577857Y-18309286D01*
X7749286Y-18180714D02*
X7749286Y-18237857D01*
X7863571Y-18180714D02*
X7863571Y-18237857D01*
X8306428Y-18595000D02*
X8292143Y-18580714D01*
X8263571Y-18537857D01*
X8249286Y-18509286D01*
X8235000Y-18466429D01*
X8220714Y-18395000D01*
X8220714Y-18337857D01*
X8235000Y-18266429D01*
X8249286Y-18223572D01*
X8263571Y-18195000D01*
X8292143Y-18152143D01*
X8306428Y-18137857D01*
X8577857Y-18480714D02*
X8406428Y-18480714D01*
X8492143Y-18480714D02*
X8492143Y-18180714D01*
X8463571Y-18223572D01*
X8435000Y-18252143D01*
X8406428Y-18266429D01*
X8835000Y-18180714D02*
X8777857Y-18180714D01*
X8749286Y-18195000D01*
X8735000Y-18209286D01*
X8706428Y-18252143D01*
X8692143Y-18309286D01*
X8692143Y-18423572D01*
X8706428Y-18452143D01*
X8720714Y-18466429D01*
X8749286Y-18480714D01*
X8806428Y-18480714D01*
X8835000Y-18466429D01*
X8849286Y-18452143D01*
X8863571Y-18423572D01*
X8863571Y-18352143D01*
X8849286Y-18323572D01*
X8835000Y-18309286D01*
X8806428Y-18295000D01*
X8749286Y-18295000D01*
X8720714Y-18309286D01*
X8706428Y-18323572D01*
X8692143Y-18352143D01*
X9220714Y-18480714D02*
X9220714Y-18180714D01*
X9349286Y-18480714D02*
X9349286Y-18323572D01*
X9335000Y-18295000D01*
X9306428Y-18280714D01*
X9263571Y-18280714D01*
X9235000Y-18295000D01*
X9220714Y-18309286D01*
X9535000Y-18480714D02*
X9506428Y-18466429D01*
X9492143Y-18452143D01*
X9477857Y-18423572D01*
X9477857Y-18337857D01*
X9492143Y-18309286D01*
X9506428Y-18295000D01*
X9535000Y-18280714D01*
X9577857Y-18280714D01*
X9606428Y-18295000D01*
X9620714Y-18309286D01*
X9635000Y-18337857D01*
X9635000Y-18423572D01*
X9620714Y-18452143D01*
X9606428Y-18466429D01*
X9577857Y-18480714D01*
X9535000Y-18480714D01*
X9806428Y-18480714D02*
X9777857Y-18466429D01*
X9763571Y-18437857D01*
X9763571Y-18180714D01*
X10035000Y-18466429D02*
X10006428Y-18480714D01*
X9949286Y-18480714D01*
X9920714Y-18466429D01*
X9906428Y-18437857D01*
X9906428Y-18323572D01*
X9920714Y-18295000D01*
X9949286Y-18280714D01*
X10006428Y-18280714D01*
X10035000Y-18295000D01*
X10049286Y-18323572D01*
X10049286Y-18352143D01*
X9906428Y-18380714D01*
X10163571Y-18466429D02*
X10192143Y-18480714D01*
X10249286Y-18480714D01*
X10277857Y-18466429D01*
X10292143Y-18437857D01*
X10292143Y-18423572D01*
X10277857Y-18395000D01*
X10249286Y-18380714D01*
X10206428Y-18380714D01*
X10177857Y-18366429D01*
X10163571Y-18337857D01*
X10163571Y-18323572D01*
X10177857Y-18295000D01*
X10206428Y-18280714D01*
X10249286Y-18280714D01*
X10277857Y-18295000D01*
X10392143Y-18595000D02*
X10406428Y-18580714D01*
X10435000Y-18537857D01*
X10449286Y-18509286D01*
X10463571Y-18466429D01*
X10477857Y-18395000D01*
X10477857Y-18337857D01*
X10463571Y-18266429D01*
X10449286Y-18223572D01*
X10435000Y-18195000D01*
X10406428Y-18152143D01*
X10392143Y-18137857D01*
M02*
