M48
; DRILL file {KiCad 5.1.5-1.fc30} date Fri 16 Jul 2021 10:34:41 PM MSK
; FORMAT={-:-/ absolute / metric / decimal}
; #@! TF.CreationDate,2021-07-16T22:34:41+03:00
; #@! TF.GenerationSoftware,Kicad,Pcbnew,5.1.5-1.fc30
; #@! TF.FileFunction,Plated,1,2,PTH
FMAT,2
METRIC
T1C0.750
T2C0.780
T3C0.800
T4C0.900
T5C1.200
T6C2.499
%
G90
G05
T1
X93.48Y-142.23
X94.75Y-140.96
X94.75Y-143.5
X94.75Y-130.5
X94.75Y-133.04
X96.02Y-131.77
T2
X80.44Y-63.44
X80.44Y-71.06
X82.98Y-63.44
X82.98Y-71.06
X85.52Y-63.44
X85.52Y-71.06
X88.06Y-63.44
X88.06Y-71.06
X62.78Y-127.86
X62.78Y-130.4
X62.78Y-132.94
X62.78Y-135.48
X62.78Y-138.02
X62.78Y-140.56
X62.78Y-143.1
X62.78Y-145.64
X70.72Y-127.86
X70.72Y-130.4
X70.72Y-132.94
X70.72Y-135.48
X70.72Y-138.02
X70.72Y-140.56
X70.72Y-143.1
X70.72Y-145.64
X83.0Y-46.0
X83.0Y-53.94
X85.54Y-46.0
X85.54Y-53.94
X88.08Y-46.0
X88.08Y-53.94
X90.62Y-46.0
X90.62Y-53.94
T3
X79.75Y-59.0
X84.75Y-59.0
X91.0Y-33.0
X96.08Y-33.0
X51.5Y-48.5
X51.5Y-53.5
X65.0Y-72.0
X70.0Y-72.0
X62.0Y-49.25
X62.0Y-51.75
X76.5Y-47.75
X76.5Y-52.75
X69.0Y-64.0
X74.0Y-64.0
X100.0Y-38.0
X100.0Y-43.0
X70.75Y-47.75
X70.75Y-52.83
X90.25Y-76.75
X95.33Y-76.75
X94.466Y-37.988
X94.466Y-43.068
X67.726Y-37.976
X67.726Y-43.056
X83.138Y-37.952
X88.138Y-37.952
X95.25Y-67.5
X100.25Y-67.5
X53.17Y-140.5
X58.25Y-140.5
X80.5Y-78.5
X83.0Y-78.5
X101.25Y-137.5
X106.33Y-137.5
X83.146Y-29.54
X83.146Y-34.62
X104.0Y-75.75
X107.536Y-72.214
X50.67Y-145.75
X55.75Y-145.75
X45.25Y-129.0
X45.25Y-134.0
X102.25Y-144.5
X107.25Y-144.5
X61.469Y-37.976
X61.469Y-42.976
X74.42Y-150.25
X79.5Y-150.25
X77.5Y-129.25
X77.5Y-131.79
X77.5Y-134.33
X77.5Y-136.87
X77.5Y-139.41
X77.5Y-141.95
X77.5Y-144.49
X85.12Y-129.25
X85.12Y-131.79
X85.12Y-134.33
X85.12Y-136.87
X85.12Y-139.41
X85.12Y-141.95
X85.12Y-144.49
X55.0Y-150.5
X60.0Y-150.5
X94.658Y-56.842
X98.25Y-53.25
X72.5Y-32.75
X77.5Y-32.75
X79.25Y-122.75
X84.25Y-122.75
X60.0Y-32.25
X65.08Y-32.25
X89.17Y-27.25
X94.25Y-27.25
X54.5Y-130.75
X54.5Y-133.25
T4
X83.96Y-150.25
X86.5Y-150.25
X63.5Y-25.0
X63.5Y-27.54
T5
X75.498Y-37.976
X75.498Y-41.786
T6
X53.0Y-23.25
X53.0Y-30.87
X115.75Y-134.63
X115.75Y-142.25
X46.63Y-116.75
X54.25Y-116.75
X44.5Y-38.0
X64.38Y-116.75
X72.0Y-116.75
X91.0Y-83.25
X98.62Y-83.25
X106.25Y-47.75
X106.25Y-55.37
X106.25Y-62.99
X72.75Y-23.25
X80.37Y-23.25
T0
M30
